G04 #@! TF.GenerationSoftware,KiCad,Pcbnew,5.1.5+dfsg1-2build2*
G04 #@! TF.CreationDate,2022-01-21T22:12:46+01:00*
G04 #@! TF.ProjectId,mre_addon_v2,6d72655f-6164-4646-9f6e-5f76322e6b69,V2.3*
G04 #@! TF.SameCoordinates,Original*
G04 #@! TF.FileFunction,Legend,Top*
G04 #@! TF.FilePolarity,Positive*
%FSLAX46Y46*%
G04 Gerber Fmt 4.6, Leading zero omitted, Abs format (unit mm)*
G04 Created by KiCad (PCBNEW 5.1.5+dfsg1-2build2) date 2022-01-21 22:12:46*
%MOMM*%
%LPD*%
G04 APERTURE LIST*
%ADD10C,0.125000*%
%ADD11C,0.150000*%
%ADD12C,0.187500*%
%ADD13C,0.225000*%
%ADD14C,0.250000*%
%ADD15C,0.300000*%
%ADD16C,0.120000*%
%ADD17C,0.127000*%
%ADD18C,0.381000*%
%ADD19C,0.254000*%
%ADD20C,0.010000*%
%ADD21C,0.101600*%
%ADD22C,0.304800*%
%ADD23C,0.130000*%
G04 APERTURE END LIST*
D10*
X121378571Y-145233333D02*
X121616666Y-145233333D01*
X121330952Y-145376190D02*
X121497619Y-144876190D01*
X121664285Y-145376190D01*
X121830952Y-145376190D02*
X121830952Y-144876190D01*
X121950000Y-144876190D01*
X122021428Y-144900000D01*
X122069047Y-144947619D01*
X122092857Y-144995238D01*
X122116666Y-145090476D01*
X122116666Y-145161904D01*
X122092857Y-145257142D01*
X122069047Y-145304761D01*
X122021428Y-145352380D01*
X121950000Y-145376190D01*
X121830952Y-145376190D01*
X122402380Y-145090476D02*
X122354761Y-145066666D01*
X122330952Y-145042857D01*
X122307142Y-144995238D01*
X122307142Y-144971428D01*
X122330952Y-144923809D01*
X122354761Y-144900000D01*
X122402380Y-144876190D01*
X122497619Y-144876190D01*
X122545238Y-144900000D01*
X122569047Y-144923809D01*
X122592857Y-144971428D01*
X122592857Y-144995238D01*
X122569047Y-145042857D01*
X122545238Y-145066666D01*
X122497619Y-145090476D01*
X122402380Y-145090476D01*
X122354761Y-145114285D01*
X122330952Y-145138095D01*
X122307142Y-145185714D01*
X122307142Y-145280952D01*
X122330952Y-145328571D01*
X122354761Y-145352380D01*
X122402380Y-145376190D01*
X122497619Y-145376190D01*
X122545238Y-145352380D01*
X122569047Y-145328571D01*
X122592857Y-145280952D01*
X122592857Y-145185714D01*
X122569047Y-145138095D01*
X122545238Y-145114285D01*
X122497619Y-145090476D01*
X123021428Y-144876190D02*
X122926190Y-144876190D01*
X122878571Y-144900000D01*
X122854761Y-144923809D01*
X122807142Y-144995238D01*
X122783333Y-145090476D01*
X122783333Y-145280952D01*
X122807142Y-145328571D01*
X122830952Y-145352380D01*
X122878571Y-145376190D01*
X122973809Y-145376190D01*
X123021428Y-145352380D01*
X123045238Y-145328571D01*
X123069047Y-145280952D01*
X123069047Y-145161904D01*
X123045238Y-145114285D01*
X123021428Y-145090476D01*
X122973809Y-145066666D01*
X122878571Y-145066666D01*
X122830952Y-145090476D01*
X122807142Y-145114285D01*
X122783333Y-145161904D01*
X123259523Y-144923809D02*
X123283333Y-144900000D01*
X123330952Y-144876190D01*
X123450000Y-144876190D01*
X123497619Y-144900000D01*
X123521428Y-144923809D01*
X123545238Y-144971428D01*
X123545238Y-145019047D01*
X123521428Y-145090476D01*
X123235714Y-145376190D01*
X123545238Y-145376190D01*
X123830952Y-145090476D02*
X123783333Y-145066666D01*
X123759523Y-145042857D01*
X123735714Y-144995238D01*
X123735714Y-144971428D01*
X123759523Y-144923809D01*
X123783333Y-144900000D01*
X123830952Y-144876190D01*
X123926190Y-144876190D01*
X123973809Y-144900000D01*
X123997619Y-144923809D01*
X124021428Y-144971428D01*
X124021428Y-144995238D01*
X123997619Y-145042857D01*
X123973809Y-145066666D01*
X123926190Y-145090476D01*
X123830952Y-145090476D01*
X123783333Y-145114285D01*
X123759523Y-145138095D01*
X123735714Y-145185714D01*
X123735714Y-145280952D01*
X123759523Y-145328571D01*
X123783333Y-145352380D01*
X123830952Y-145376190D01*
X123926190Y-145376190D01*
X123973809Y-145352380D01*
X123997619Y-145328571D01*
X124021428Y-145280952D01*
X124021428Y-145185714D01*
X123997619Y-145138095D01*
X123973809Y-145114285D01*
X123926190Y-145090476D01*
X131485714Y-162089285D02*
X131485714Y-161339285D01*
X131735714Y-161875000D01*
X131985714Y-161339285D01*
X131985714Y-162089285D01*
X132307142Y-161875000D02*
X132664285Y-161875000D01*
X132235714Y-162089285D02*
X132485714Y-161339285D01*
X132735714Y-162089285D01*
X132914285Y-161339285D02*
X133414285Y-162089285D01*
X133414285Y-161339285D02*
X132914285Y-162089285D01*
X133628571Y-161339285D02*
X134092857Y-161339285D01*
X133842857Y-161625000D01*
X133950000Y-161625000D01*
X134021428Y-161660714D01*
X134057142Y-161696428D01*
X134092857Y-161767857D01*
X134092857Y-161946428D01*
X134057142Y-162017857D01*
X134021428Y-162053571D01*
X133950000Y-162089285D01*
X133735714Y-162089285D01*
X133664285Y-162053571D01*
X133628571Y-162017857D01*
X134807142Y-162089285D02*
X134378571Y-162089285D01*
X134592857Y-162089285D02*
X134592857Y-161339285D01*
X134521428Y-161446428D01*
X134450000Y-161517857D01*
X134378571Y-161553571D01*
X135235714Y-161660714D02*
X135164285Y-161625000D01*
X135128571Y-161589285D01*
X135092857Y-161517857D01*
X135092857Y-161482142D01*
X135128571Y-161410714D01*
X135164285Y-161375000D01*
X135235714Y-161339285D01*
X135378571Y-161339285D01*
X135450000Y-161375000D01*
X135485714Y-161410714D01*
X135521428Y-161482142D01*
X135521428Y-161517857D01*
X135485714Y-161589285D01*
X135450000Y-161625000D01*
X135378571Y-161660714D01*
X135235714Y-161660714D01*
X135164285Y-161696428D01*
X135128571Y-161732142D01*
X135092857Y-161803571D01*
X135092857Y-161946428D01*
X135128571Y-162017857D01*
X135164285Y-162053571D01*
X135235714Y-162089285D01*
X135378571Y-162089285D01*
X135450000Y-162053571D01*
X135485714Y-162017857D01*
X135521428Y-161946428D01*
X135521428Y-161803571D01*
X135485714Y-161732142D01*
X135450000Y-161696428D01*
X135378571Y-161660714D01*
X136200000Y-161339285D02*
X135842857Y-161339285D01*
X135807142Y-161696428D01*
X135842857Y-161660714D01*
X135914285Y-161625000D01*
X136092857Y-161625000D01*
X136164285Y-161660714D01*
X136200000Y-161696428D01*
X136235714Y-161767857D01*
X136235714Y-161946428D01*
X136200000Y-162017857D01*
X136164285Y-162053571D01*
X136092857Y-162089285D01*
X135914285Y-162089285D01*
X135842857Y-162053571D01*
X135807142Y-162017857D01*
X136914285Y-161339285D02*
X136557142Y-161339285D01*
X136521428Y-161696428D01*
X136557142Y-161660714D01*
X136628571Y-161625000D01*
X136807142Y-161625000D01*
X136878571Y-161660714D01*
X136914285Y-161696428D01*
X136950000Y-161767857D01*
X136950000Y-161946428D01*
X136914285Y-162017857D01*
X136878571Y-162053571D01*
X136807142Y-162089285D01*
X136628571Y-162089285D01*
X136557142Y-162053571D01*
X136521428Y-162017857D01*
X88026190Y-138390476D02*
X88026190Y-138104761D01*
X88526190Y-138247619D02*
X88026190Y-138247619D01*
X88026190Y-137795238D02*
X88383333Y-137795238D01*
X88454761Y-137819047D01*
X88502380Y-137866666D01*
X88526190Y-137938095D01*
X88526190Y-137985714D01*
X88383333Y-137580952D02*
X88383333Y-137342857D01*
X88526190Y-137628571D02*
X88026190Y-137461904D01*
X88526190Y-137295238D01*
X88526190Y-136866666D02*
X88526190Y-137152380D01*
X88526190Y-137009523D02*
X88026190Y-137009523D01*
X88097619Y-137057142D01*
X88145238Y-137104761D01*
X88169047Y-137152380D01*
X88026190Y-136557142D02*
X88026190Y-136509523D01*
X88050000Y-136461904D01*
X88073809Y-136438095D01*
X88121428Y-136414285D01*
X88216666Y-136390476D01*
X88335714Y-136390476D01*
X88430952Y-136414285D01*
X88478571Y-136438095D01*
X88502380Y-136461904D01*
X88526190Y-136509523D01*
X88526190Y-136557142D01*
X88502380Y-136604761D01*
X88478571Y-136628571D01*
X88430952Y-136652380D01*
X88335714Y-136676190D01*
X88216666Y-136676190D01*
X88121428Y-136652380D01*
X88073809Y-136628571D01*
X88050000Y-136604761D01*
X88026190Y-136557142D01*
X88026190Y-135938095D02*
X88026190Y-136176190D01*
X88264285Y-136200000D01*
X88240476Y-136176190D01*
X88216666Y-136128571D01*
X88216666Y-136009523D01*
X88240476Y-135961904D01*
X88264285Y-135938095D01*
X88311904Y-135914285D01*
X88430952Y-135914285D01*
X88478571Y-135938095D01*
X88502380Y-135961904D01*
X88526190Y-136009523D01*
X88526190Y-136128571D01*
X88502380Y-136176190D01*
X88478571Y-136200000D01*
X88526190Y-135438095D02*
X88526190Y-135723809D01*
X88526190Y-135580952D02*
X88026190Y-135580952D01*
X88097619Y-135628571D01*
X88145238Y-135676190D01*
X88169047Y-135723809D01*
X88026190Y-135295238D02*
X88026190Y-135009523D01*
X88526190Y-135152380D02*
X88026190Y-135152380D01*
D11*
X120733333Y-135516666D02*
X120733333Y-134816666D01*
X120966666Y-135316666D01*
X121200000Y-134816666D01*
X121200000Y-135516666D01*
X121933333Y-135450000D02*
X121900000Y-135483333D01*
X121800000Y-135516666D01*
X121733333Y-135516666D01*
X121633333Y-135483333D01*
X121566666Y-135416666D01*
X121533333Y-135350000D01*
X121500000Y-135216666D01*
X121500000Y-135116666D01*
X121533333Y-134983333D01*
X121566666Y-134916666D01*
X121633333Y-134850000D01*
X121733333Y-134816666D01*
X121800000Y-134816666D01*
X121900000Y-134850000D01*
X121933333Y-134883333D01*
X122233333Y-135516666D02*
X122233333Y-134816666D01*
X122500000Y-134816666D01*
X122566666Y-134850000D01*
X122600000Y-134883333D01*
X122633333Y-134950000D01*
X122633333Y-135050000D01*
X122600000Y-135116666D01*
X122566666Y-135150000D01*
X122500000Y-135183333D01*
X122233333Y-135183333D01*
X123233333Y-134816666D02*
X123100000Y-134816666D01*
X123033333Y-134850000D01*
X123000000Y-134883333D01*
X122933333Y-134983333D01*
X122900000Y-135116666D01*
X122900000Y-135383333D01*
X122933333Y-135450000D01*
X122966666Y-135483333D01*
X123033333Y-135516666D01*
X123166666Y-135516666D01*
X123233333Y-135483333D01*
X123266666Y-135450000D01*
X123300000Y-135383333D01*
X123300000Y-135216666D01*
X123266666Y-135150000D01*
X123233333Y-135116666D01*
X123166666Y-135083333D01*
X123033333Y-135083333D01*
X122966666Y-135116666D01*
X122933333Y-135150000D01*
X122900000Y-135216666D01*
X123733333Y-134816666D02*
X123800000Y-134816666D01*
X123866666Y-134850000D01*
X123900000Y-134883333D01*
X123933333Y-134950000D01*
X123966666Y-135083333D01*
X123966666Y-135250000D01*
X123933333Y-135383333D01*
X123900000Y-135450000D01*
X123866666Y-135483333D01*
X123800000Y-135516666D01*
X123733333Y-135516666D01*
X123666666Y-135483333D01*
X123633333Y-135450000D01*
X123600000Y-135383333D01*
X123566666Y-135250000D01*
X123566666Y-135083333D01*
X123600000Y-134950000D01*
X123633333Y-134883333D01*
X123666666Y-134850000D01*
X123733333Y-134816666D01*
X124400000Y-134816666D02*
X124466666Y-134816666D01*
X124533333Y-134850000D01*
X124566666Y-134883333D01*
X124600000Y-134950000D01*
X124633333Y-135083333D01*
X124633333Y-135250000D01*
X124600000Y-135383333D01*
X124566666Y-135450000D01*
X124533333Y-135483333D01*
X124466666Y-135516666D01*
X124400000Y-135516666D01*
X124333333Y-135483333D01*
X124300000Y-135450000D01*
X124266666Y-135383333D01*
X124233333Y-135250000D01*
X124233333Y-135083333D01*
X124266666Y-134950000D01*
X124300000Y-134883333D01*
X124333333Y-134850000D01*
X124400000Y-134816666D01*
X125233333Y-135050000D02*
X125233333Y-135516666D01*
X125066666Y-134783333D02*
X124900000Y-135283333D01*
X125333333Y-135283333D01*
X104789285Y-142503571D02*
X104896428Y-142539285D01*
X105075000Y-142539285D01*
X105146428Y-142503571D01*
X105182142Y-142467857D01*
X105217857Y-142396428D01*
X105217857Y-142325000D01*
X105182142Y-142253571D01*
X105146428Y-142217857D01*
X105075000Y-142182142D01*
X104932142Y-142146428D01*
X104860714Y-142110714D01*
X104825000Y-142075000D01*
X104789285Y-142003571D01*
X104789285Y-141932142D01*
X104825000Y-141860714D01*
X104860714Y-141825000D01*
X104932142Y-141789285D01*
X105110714Y-141789285D01*
X105217857Y-141825000D01*
X105432142Y-141789285D02*
X105860714Y-141789285D01*
X105646428Y-142539285D02*
X105646428Y-141789285D01*
X106110714Y-142539285D02*
X106110714Y-141789285D01*
X106360714Y-142325000D01*
X106610714Y-141789285D01*
X106610714Y-142539285D01*
X106896428Y-141789285D02*
X107360714Y-141789285D01*
X107110714Y-142075000D01*
X107217857Y-142075000D01*
X107289285Y-142110714D01*
X107325000Y-142146428D01*
X107360714Y-142217857D01*
X107360714Y-142396428D01*
X107325000Y-142467857D01*
X107289285Y-142503571D01*
X107217857Y-142539285D01*
X107003571Y-142539285D01*
X106932142Y-142503571D01*
X106896428Y-142467857D01*
X107646428Y-141860714D02*
X107682142Y-141825000D01*
X107753571Y-141789285D01*
X107932142Y-141789285D01*
X108003571Y-141825000D01*
X108039285Y-141860714D01*
X108075000Y-141932142D01*
X108075000Y-142003571D01*
X108039285Y-142110714D01*
X107610714Y-142539285D01*
X108075000Y-142539285D01*
X108646428Y-142146428D02*
X108396428Y-142146428D01*
X108396428Y-142539285D02*
X108396428Y-141789285D01*
X108753571Y-141789285D01*
X109182142Y-141789285D02*
X109253571Y-141789285D01*
X109325000Y-141825000D01*
X109360714Y-141860714D01*
X109396428Y-141932142D01*
X109432142Y-142075000D01*
X109432142Y-142253571D01*
X109396428Y-142396428D01*
X109360714Y-142467857D01*
X109325000Y-142503571D01*
X109253571Y-142539285D01*
X109182142Y-142539285D01*
X109110714Y-142503571D01*
X109075000Y-142467857D01*
X109039285Y-142396428D01*
X109003571Y-142253571D01*
X109003571Y-142075000D01*
X109039285Y-141932142D01*
X109075000Y-141860714D01*
X109110714Y-141825000D01*
X109182142Y-141789285D01*
X109682142Y-141789285D02*
X110182142Y-141789285D01*
X109860714Y-142539285D01*
X110432142Y-141860714D02*
X110467857Y-141825000D01*
X110539285Y-141789285D01*
X110717857Y-141789285D01*
X110789285Y-141825000D01*
X110825000Y-141860714D01*
X110860714Y-141932142D01*
X110860714Y-142003571D01*
X110825000Y-142110714D01*
X110396428Y-142539285D01*
X110860714Y-142539285D01*
X111610714Y-142467857D02*
X111575000Y-142503571D01*
X111467857Y-142539285D01*
X111396428Y-142539285D01*
X111289285Y-142503571D01*
X111217857Y-142432142D01*
X111182142Y-142360714D01*
X111146428Y-142217857D01*
X111146428Y-142110714D01*
X111182142Y-141967857D01*
X111217857Y-141896428D01*
X111289285Y-141825000D01*
X111396428Y-141789285D01*
X111467857Y-141789285D01*
X111575000Y-141825000D01*
X111610714Y-141860714D01*
X112039285Y-142110714D02*
X111967857Y-142075000D01*
X111932142Y-142039285D01*
X111896428Y-141967857D01*
X111896428Y-141932142D01*
X111932142Y-141860714D01*
X111967857Y-141825000D01*
X112039285Y-141789285D01*
X112182142Y-141789285D01*
X112253571Y-141825000D01*
X112289285Y-141860714D01*
X112325000Y-141932142D01*
X112325000Y-141967857D01*
X112289285Y-142039285D01*
X112253571Y-142075000D01*
X112182142Y-142110714D01*
X112039285Y-142110714D01*
X111967857Y-142146428D01*
X111932142Y-142182142D01*
X111896428Y-142253571D01*
X111896428Y-142396428D01*
X111932142Y-142467857D01*
X111967857Y-142503571D01*
X112039285Y-142539285D01*
X112182142Y-142539285D01*
X112253571Y-142503571D01*
X112289285Y-142467857D01*
X112325000Y-142396428D01*
X112325000Y-142253571D01*
X112289285Y-142182142D01*
X112253571Y-142146428D01*
X112182142Y-142110714D01*
X112539285Y-141789285D02*
X112967857Y-141789285D01*
X112753571Y-142539285D02*
X112753571Y-141789285D01*
X113539285Y-141789285D02*
X113396428Y-141789285D01*
X113325000Y-141825000D01*
X113289285Y-141860714D01*
X113217857Y-141967857D01*
X113182142Y-142110714D01*
X113182142Y-142396428D01*
X113217857Y-142467857D01*
X113253571Y-142503571D01*
X113325000Y-142539285D01*
X113467857Y-142539285D01*
X113539285Y-142503571D01*
X113575000Y-142467857D01*
X113610714Y-142396428D01*
X113610714Y-142217857D01*
X113575000Y-142146428D01*
X113539285Y-142110714D01*
X113467857Y-142075000D01*
X113325000Y-142075000D01*
X113253571Y-142110714D01*
X113217857Y-142146428D01*
X113182142Y-142217857D01*
D12*
X148194810Y-152733035D02*
X148623381Y-152733035D01*
X148315345Y-153483035D02*
X148409095Y-152733035D01*
X149217131Y-153411607D02*
X149176953Y-153447321D01*
X149065345Y-153483035D01*
X148993917Y-153483035D01*
X148891238Y-153447321D01*
X148828738Y-153375892D01*
X148801953Y-153304464D01*
X148784095Y-153161607D01*
X148797488Y-153054464D01*
X148851060Y-152911607D01*
X148895703Y-152840178D01*
X148976060Y-152768750D01*
X149087667Y-152733035D01*
X149159095Y-152733035D01*
X149261774Y-152768750D01*
X149293024Y-152804464D01*
X149529631Y-153483035D02*
X149623381Y-152733035D01*
X149909095Y-152733035D01*
X149976060Y-152768750D01*
X150007310Y-152804464D01*
X150034095Y-152875892D01*
X150020703Y-152983035D01*
X149976060Y-153054464D01*
X149935881Y-153090178D01*
X149859988Y-153125892D01*
X149574274Y-153125892D01*
X150636774Y-153483035D02*
X150279631Y-153483035D01*
X150373381Y-152733035D01*
X149118917Y-154509821D02*
X149690345Y-154509821D01*
X138194810Y-152733035D02*
X138623381Y-152733035D01*
X138315345Y-153483035D02*
X138409095Y-152733035D01*
X139217131Y-153411607D02*
X139176953Y-153447321D01*
X139065345Y-153483035D01*
X138993917Y-153483035D01*
X138891238Y-153447321D01*
X138828738Y-153375892D01*
X138801953Y-153304464D01*
X138784095Y-153161607D01*
X138797488Y-153054464D01*
X138851060Y-152911607D01*
X138895703Y-152840178D01*
X138976060Y-152768750D01*
X139087667Y-152733035D01*
X139159095Y-152733035D01*
X139261774Y-152768750D01*
X139293024Y-152804464D01*
X139529631Y-153483035D02*
X139623381Y-152733035D01*
X139909095Y-152733035D01*
X139976060Y-152768750D01*
X140007310Y-152804464D01*
X140034095Y-152875892D01*
X140020703Y-152983035D01*
X139976060Y-153054464D01*
X139935881Y-153090178D01*
X139859988Y-153125892D01*
X139574274Y-153125892D01*
X140636774Y-153483035D02*
X140279631Y-153483035D01*
X140373381Y-152733035D01*
X139118917Y-154509821D02*
X139690345Y-154509821D01*
X139368917Y-154795535D02*
X139440345Y-154224107D01*
D13*
X136771428Y-147402380D02*
X136771428Y-146402380D01*
X136771428Y-146878571D02*
X137285714Y-146878571D01*
X137285714Y-147402380D02*
X137285714Y-146402380D01*
X138057142Y-147354761D02*
X137971428Y-147402380D01*
X137800000Y-147402380D01*
X137714285Y-147354761D01*
X137671428Y-147259523D01*
X137671428Y-146878571D01*
X137714285Y-146783333D01*
X137800000Y-146735714D01*
X137971428Y-146735714D01*
X138057142Y-146783333D01*
X138100000Y-146878571D01*
X138100000Y-146973809D01*
X137671428Y-147069047D01*
X138871428Y-147402380D02*
X138871428Y-146878571D01*
X138828571Y-146783333D01*
X138742857Y-146735714D01*
X138571428Y-146735714D01*
X138485714Y-146783333D01*
X138871428Y-147354761D02*
X138785714Y-147402380D01*
X138571428Y-147402380D01*
X138485714Y-147354761D01*
X138442857Y-147259523D01*
X138442857Y-147164285D01*
X138485714Y-147069047D01*
X138571428Y-147021428D01*
X138785714Y-147021428D01*
X138871428Y-146973809D01*
X139171428Y-146735714D02*
X139514285Y-146735714D01*
X139300000Y-146402380D02*
X139300000Y-147259523D01*
X139342857Y-147354761D01*
X139428571Y-147402380D01*
X139514285Y-147402380D01*
X140157142Y-147354761D02*
X140071428Y-147402380D01*
X139900000Y-147402380D01*
X139814285Y-147354761D01*
X139771428Y-147259523D01*
X139771428Y-146878571D01*
X139814285Y-146783333D01*
X139900000Y-146735714D01*
X140071428Y-146735714D01*
X140157142Y-146783333D01*
X140200000Y-146878571D01*
X140200000Y-146973809D01*
X139771428Y-147069047D01*
X140585714Y-147402380D02*
X140585714Y-146735714D01*
X140585714Y-146926190D02*
X140628571Y-146830952D01*
X140671428Y-146783333D01*
X140757142Y-146735714D01*
X140842857Y-146735714D01*
X141142857Y-147021428D02*
X141828571Y-147021428D01*
D14*
X148702380Y-150652380D02*
X148226190Y-150652380D01*
X148226190Y-149652380D01*
X148988095Y-150604761D02*
X149130952Y-150652380D01*
X149369047Y-150652380D01*
X149464285Y-150604761D01*
X149511904Y-150557142D01*
X149559523Y-150461904D01*
X149559523Y-150366666D01*
X149511904Y-150271428D01*
X149464285Y-150223809D01*
X149369047Y-150176190D01*
X149178571Y-150128571D01*
X149083333Y-150080952D01*
X149035714Y-150033333D01*
X148988095Y-149938095D01*
X148988095Y-149842857D01*
X149035714Y-149747619D01*
X149083333Y-149700000D01*
X149178571Y-149652380D01*
X149416666Y-149652380D01*
X149559523Y-149700000D01*
X149988095Y-149652380D02*
X149988095Y-150461904D01*
X150035714Y-150557142D01*
X150083333Y-150604761D01*
X150178571Y-150652380D01*
X150369047Y-150652380D01*
X150464285Y-150604761D01*
X150511904Y-150557142D01*
X150559523Y-150461904D01*
X150559523Y-149652380D01*
X151797619Y-149652380D02*
X151797619Y-150461904D01*
X151845238Y-150557142D01*
X151892857Y-150604761D01*
X151988095Y-150652380D01*
X152178571Y-150652380D01*
X152273809Y-150604761D01*
X152321428Y-150557142D01*
X152369047Y-150461904D01*
X152369047Y-149652380D01*
X152845238Y-149985714D02*
X152845238Y-150652380D01*
X152845238Y-150080952D02*
X152892857Y-150033333D01*
X152988095Y-149985714D01*
X153130952Y-149985714D01*
X153226190Y-150033333D01*
X153273809Y-150128571D01*
X153273809Y-150652380D01*
X148733333Y-144402380D02*
X148257142Y-144402380D01*
X148257142Y-143402380D01*
X149019047Y-144354761D02*
X149161904Y-144402380D01*
X149400000Y-144402380D01*
X149495238Y-144354761D01*
X149542857Y-144307142D01*
X149590476Y-144211904D01*
X149590476Y-144116666D01*
X149542857Y-144021428D01*
X149495238Y-143973809D01*
X149400000Y-143926190D01*
X149209523Y-143878571D01*
X149114285Y-143830952D01*
X149066666Y-143783333D01*
X149019047Y-143688095D01*
X149019047Y-143592857D01*
X149066666Y-143497619D01*
X149114285Y-143450000D01*
X149209523Y-143402380D01*
X149447619Y-143402380D01*
X149590476Y-143450000D01*
X150019047Y-143402380D02*
X150019047Y-144211904D01*
X150066666Y-144307142D01*
X150114285Y-144354761D01*
X150209523Y-144402380D01*
X150400000Y-144402380D01*
X150495238Y-144354761D01*
X150542857Y-144307142D01*
X150590476Y-144211904D01*
X150590476Y-143402380D01*
X151685714Y-143402380D02*
X152019047Y-144402380D01*
X152352380Y-143402380D01*
X152685714Y-144402380D02*
X152685714Y-143735714D01*
X152685714Y-143830952D02*
X152733333Y-143783333D01*
X152828571Y-143735714D01*
X152971428Y-143735714D01*
X153066666Y-143783333D01*
X153114285Y-143878571D01*
X153114285Y-144402380D01*
X153114285Y-143878571D02*
X153161904Y-143783333D01*
X153257142Y-143735714D01*
X153400000Y-143735714D01*
X153495238Y-143783333D01*
X153542857Y-143878571D01*
X153542857Y-144402380D01*
X138809523Y-149527380D02*
X138333333Y-149527380D01*
X138333333Y-148527380D01*
X139095238Y-149479761D02*
X139238095Y-149527380D01*
X139476190Y-149527380D01*
X139571428Y-149479761D01*
X139619047Y-149432142D01*
X139666666Y-149336904D01*
X139666666Y-149241666D01*
X139619047Y-149146428D01*
X139571428Y-149098809D01*
X139476190Y-149051190D01*
X139285714Y-149003571D01*
X139190476Y-148955952D01*
X139142857Y-148908333D01*
X139095238Y-148813095D01*
X139095238Y-148717857D01*
X139142857Y-148622619D01*
X139190476Y-148575000D01*
X139285714Y-148527380D01*
X139523809Y-148527380D01*
X139666666Y-148575000D01*
X140095238Y-148527380D02*
X140095238Y-149336904D01*
X140142857Y-149432142D01*
X140190476Y-149479761D01*
X140285714Y-149527380D01*
X140476190Y-149527380D01*
X140571428Y-149479761D01*
X140619047Y-149432142D01*
X140666666Y-149336904D01*
X140666666Y-148527380D01*
X138309523Y-151277380D02*
X137976190Y-150801190D01*
X137738095Y-151277380D02*
X137738095Y-150277380D01*
X138119047Y-150277380D01*
X138214285Y-150325000D01*
X138261904Y-150372619D01*
X138309523Y-150467857D01*
X138309523Y-150610714D01*
X138261904Y-150705952D01*
X138214285Y-150753571D01*
X138119047Y-150801190D01*
X137738095Y-150801190D01*
X138595238Y-150610714D02*
X138976190Y-150610714D01*
X138738095Y-150277380D02*
X138738095Y-151134523D01*
X138785714Y-151229761D01*
X138880952Y-151277380D01*
X138976190Y-151277380D01*
X139309523Y-151277380D02*
X139309523Y-150610714D01*
X139309523Y-150801190D02*
X139357142Y-150705952D01*
X139404761Y-150658333D01*
X139500000Y-150610714D01*
X139595238Y-150610714D01*
X139928571Y-151277380D02*
X139928571Y-150610714D01*
X139928571Y-150277380D02*
X139880952Y-150325000D01*
X139928571Y-150372619D01*
X139976190Y-150325000D01*
X139928571Y-150277380D01*
X139928571Y-150372619D01*
X140404761Y-151277380D02*
X140404761Y-150610714D01*
X140404761Y-150705952D02*
X140452380Y-150658333D01*
X140547619Y-150610714D01*
X140690476Y-150610714D01*
X140785714Y-150658333D01*
X140833333Y-150753571D01*
X140833333Y-151277380D01*
X140833333Y-150753571D02*
X140880952Y-150658333D01*
X140976190Y-150610714D01*
X141119047Y-150610714D01*
X141214285Y-150658333D01*
X141261904Y-150753571D01*
X141261904Y-151277380D01*
D13*
X148271428Y-147452380D02*
X148271428Y-146452380D01*
X148271428Y-146928571D02*
X148785714Y-146928571D01*
X148785714Y-147452380D02*
X148785714Y-146452380D01*
X149557142Y-147404761D02*
X149471428Y-147452380D01*
X149300000Y-147452380D01*
X149214285Y-147404761D01*
X149171428Y-147309523D01*
X149171428Y-146928571D01*
X149214285Y-146833333D01*
X149300000Y-146785714D01*
X149471428Y-146785714D01*
X149557142Y-146833333D01*
X149600000Y-146928571D01*
X149600000Y-147023809D01*
X149171428Y-147119047D01*
X150371428Y-147452380D02*
X150371428Y-146928571D01*
X150328571Y-146833333D01*
X150242857Y-146785714D01*
X150071428Y-146785714D01*
X149985714Y-146833333D01*
X150371428Y-147404761D02*
X150285714Y-147452380D01*
X150071428Y-147452380D01*
X149985714Y-147404761D01*
X149942857Y-147309523D01*
X149942857Y-147214285D01*
X149985714Y-147119047D01*
X150071428Y-147071428D01*
X150285714Y-147071428D01*
X150371428Y-147023809D01*
X150671428Y-146785714D02*
X151014285Y-146785714D01*
X150800000Y-146452380D02*
X150800000Y-147309523D01*
X150842857Y-147404761D01*
X150928571Y-147452380D01*
X151014285Y-147452380D01*
X151657142Y-147404761D02*
X151571428Y-147452380D01*
X151400000Y-147452380D01*
X151314285Y-147404761D01*
X151271428Y-147309523D01*
X151271428Y-146928571D01*
X151314285Y-146833333D01*
X151400000Y-146785714D01*
X151571428Y-146785714D01*
X151657142Y-146833333D01*
X151700000Y-146928571D01*
X151700000Y-147023809D01*
X151271428Y-147119047D01*
X152085714Y-147452380D02*
X152085714Y-146785714D01*
X152085714Y-146976190D02*
X152128571Y-146880952D01*
X152171428Y-146833333D01*
X152257142Y-146785714D01*
X152342857Y-146785714D01*
X152642857Y-147071428D02*
X153328571Y-147071428D01*
X152985714Y-147452380D02*
X152985714Y-146690476D01*
D14*
X138809523Y-143577380D02*
X138333333Y-143577380D01*
X138333333Y-142577380D01*
X139095238Y-143529761D02*
X139238095Y-143577380D01*
X139476190Y-143577380D01*
X139571428Y-143529761D01*
X139619047Y-143482142D01*
X139666666Y-143386904D01*
X139666666Y-143291666D01*
X139619047Y-143196428D01*
X139571428Y-143148809D01*
X139476190Y-143101190D01*
X139285714Y-143053571D01*
X139190476Y-143005952D01*
X139142857Y-142958333D01*
X139095238Y-142863095D01*
X139095238Y-142767857D01*
X139142857Y-142672619D01*
X139190476Y-142625000D01*
X139285714Y-142577380D01*
X139523809Y-142577380D01*
X139666666Y-142625000D01*
X140095238Y-142577380D02*
X140095238Y-143386904D01*
X140142857Y-143482142D01*
X140190476Y-143529761D01*
X140285714Y-143577380D01*
X140476190Y-143577380D01*
X140571428Y-143529761D01*
X140619047Y-143482142D01*
X140666666Y-143386904D01*
X140666666Y-142577380D01*
X139047619Y-145327380D02*
X139047619Y-144327380D01*
X139523809Y-144660714D02*
X139523809Y-145660714D01*
X139523809Y-144708333D02*
X139619047Y-144660714D01*
X139809523Y-144660714D01*
X139904761Y-144708333D01*
X139952380Y-144755952D01*
X140000000Y-144851190D01*
X140000000Y-145136904D01*
X139952380Y-145232142D01*
X139904761Y-145279761D01*
X139809523Y-145327380D01*
X139619047Y-145327380D01*
X139523809Y-145279761D01*
X91621428Y-147442857D02*
X91978571Y-148242857D01*
X92335714Y-147442857D01*
X93478571Y-148185714D02*
X93335714Y-148242857D01*
X93050000Y-148242857D01*
X92907142Y-148185714D01*
X92835714Y-148071428D01*
X92835714Y-147614285D01*
X92907142Y-147500000D01*
X93050000Y-147442857D01*
X93335714Y-147442857D01*
X93478571Y-147500000D01*
X93550000Y-147614285D01*
X93550000Y-147728571D01*
X92835714Y-147842857D01*
X94192857Y-148242857D02*
X94192857Y-147442857D01*
X94192857Y-147671428D02*
X94264285Y-147557142D01*
X94335714Y-147500000D01*
X94478571Y-147442857D01*
X94621428Y-147442857D01*
X95121428Y-148128571D02*
X95192857Y-148185714D01*
X95121428Y-148242857D01*
X95050000Y-148185714D01*
X95121428Y-148128571D01*
X95121428Y-148242857D01*
X96907142Y-147157142D02*
X96978571Y-147100000D01*
X97121428Y-147042857D01*
X97478571Y-147042857D01*
X97621428Y-147100000D01*
X97692857Y-147157142D01*
X97764285Y-147271428D01*
X97764285Y-147385714D01*
X97692857Y-147557142D01*
X96835714Y-148242857D01*
X97764285Y-148242857D01*
X98407142Y-148128571D02*
X98478571Y-148185714D01*
X98407142Y-148242857D01*
X98335714Y-148185714D01*
X98407142Y-148128571D01*
X98407142Y-148242857D01*
X98978571Y-147042857D02*
X99907142Y-147042857D01*
X99407142Y-147500000D01*
X99621428Y-147500000D01*
X99764285Y-147557142D01*
X99835714Y-147614285D01*
X99907142Y-147728571D01*
X99907142Y-148014285D01*
X99835714Y-148128571D01*
X99764285Y-148185714D01*
X99621428Y-148242857D01*
X99192857Y-148242857D01*
X99050000Y-148185714D01*
X98978571Y-148128571D01*
D11*
X86433333Y-144516666D02*
X86600000Y-145216666D01*
X86733333Y-144716666D01*
X86866666Y-145216666D01*
X87033333Y-144516666D01*
X87533333Y-144850000D02*
X87633333Y-144883333D01*
X87666666Y-144916666D01*
X87700000Y-144983333D01*
X87700000Y-145083333D01*
X87666666Y-145150000D01*
X87633333Y-145183333D01*
X87566666Y-145216666D01*
X87300000Y-145216666D01*
X87300000Y-144516666D01*
X87533333Y-144516666D01*
X87600000Y-144550000D01*
X87633333Y-144583333D01*
X87666666Y-144650000D01*
X87666666Y-144716666D01*
X87633333Y-144783333D01*
X87600000Y-144816666D01*
X87533333Y-144850000D01*
X87300000Y-144850000D01*
X88133333Y-144516666D02*
X88266666Y-144516666D01*
X88333333Y-144550000D01*
X88400000Y-144616666D01*
X88433333Y-144750000D01*
X88433333Y-144983333D01*
X88400000Y-145116666D01*
X88333333Y-145183333D01*
X88266666Y-145216666D01*
X88133333Y-145216666D01*
X88066666Y-145183333D01*
X88000000Y-145116666D01*
X87966666Y-144983333D01*
X87966666Y-144750000D01*
X88000000Y-144616666D01*
X88066666Y-144550000D01*
X88133333Y-144516666D01*
X88700000Y-144583333D02*
X88733333Y-144550000D01*
X88800000Y-144516666D01*
X88966666Y-144516666D01*
X89033333Y-144550000D01*
X89066666Y-144583333D01*
X89100000Y-144650000D01*
X89100000Y-144716666D01*
X89066666Y-144816666D01*
X88666666Y-145216666D01*
X89100000Y-145216666D01*
X90233333Y-145183333D02*
X90166666Y-145216666D01*
X90033333Y-145216666D01*
X89966666Y-145183333D01*
X89933333Y-145150000D01*
X89900000Y-145083333D01*
X89900000Y-144883333D01*
X89933333Y-144816666D01*
X89966666Y-144783333D01*
X90033333Y-144750000D01*
X90166666Y-144750000D01*
X90233333Y-144783333D01*
X90633333Y-145216666D02*
X90566666Y-145183333D01*
X90533333Y-145150000D01*
X90500000Y-145083333D01*
X90500000Y-144883333D01*
X90533333Y-144816666D01*
X90566666Y-144783333D01*
X90633333Y-144750000D01*
X90733333Y-144750000D01*
X90800000Y-144783333D01*
X90833333Y-144816666D01*
X90866666Y-144883333D01*
X90866666Y-145083333D01*
X90833333Y-145150000D01*
X90800000Y-145183333D01*
X90733333Y-145216666D01*
X90633333Y-145216666D01*
X91166666Y-144750000D02*
X91166666Y-145216666D01*
X91166666Y-144816666D02*
X91200000Y-144783333D01*
X91266666Y-144750000D01*
X91366666Y-144750000D01*
X91433333Y-144783333D01*
X91466666Y-144850000D01*
X91466666Y-145216666D01*
X91700000Y-144750000D02*
X91966666Y-144750000D01*
X91800000Y-144516666D02*
X91800000Y-145116666D01*
X91833333Y-145183333D01*
X91900000Y-145216666D01*
X91966666Y-145216666D01*
X92200000Y-145216666D02*
X92200000Y-144750000D01*
X92200000Y-144883333D02*
X92233333Y-144816666D01*
X92266666Y-144783333D01*
X92333333Y-144750000D01*
X92400000Y-144750000D01*
X92733333Y-145216666D02*
X92666666Y-145183333D01*
X92633333Y-145150000D01*
X92600000Y-145083333D01*
X92600000Y-144883333D01*
X92633333Y-144816666D01*
X92666666Y-144783333D01*
X92733333Y-144750000D01*
X92833333Y-144750000D01*
X92900000Y-144783333D01*
X92933333Y-144816666D01*
X92966666Y-144883333D01*
X92966666Y-145083333D01*
X92933333Y-145150000D01*
X92900000Y-145183333D01*
X92833333Y-145216666D01*
X92733333Y-145216666D01*
X93366666Y-145216666D02*
X93300000Y-145183333D01*
X93266666Y-145116666D01*
X93266666Y-144516666D01*
X93733333Y-145216666D02*
X93666666Y-145183333D01*
X93633333Y-145116666D01*
X93633333Y-144516666D01*
X94266666Y-145183333D02*
X94200000Y-145216666D01*
X94066666Y-145216666D01*
X94000000Y-145183333D01*
X93966666Y-145116666D01*
X93966666Y-144850000D01*
X94000000Y-144783333D01*
X94066666Y-144750000D01*
X94200000Y-144750000D01*
X94266666Y-144783333D01*
X94300000Y-144850000D01*
X94300000Y-144916666D01*
X93966666Y-144983333D01*
X94600000Y-145216666D02*
X94600000Y-144750000D01*
X94600000Y-144883333D02*
X94633333Y-144816666D01*
X94666666Y-144783333D01*
X94733333Y-144750000D01*
X94800000Y-144750000D01*
X95566666Y-145216666D02*
X95566666Y-144516666D01*
X95566666Y-144783333D02*
X95633333Y-144750000D01*
X95766666Y-144750000D01*
X95833333Y-144783333D01*
X95866666Y-144816666D01*
X95900000Y-144883333D01*
X95900000Y-145083333D01*
X95866666Y-145150000D01*
X95833333Y-145183333D01*
X95766666Y-145216666D01*
X95633333Y-145216666D01*
X95566666Y-145183333D01*
X96133333Y-144750000D02*
X96300000Y-145216666D01*
X96466666Y-144750000D02*
X96300000Y-145216666D01*
X96233333Y-145383333D01*
X96200000Y-145416666D01*
X96133333Y-145450000D01*
X97266666Y-145216666D02*
X97266666Y-144750000D01*
X97266666Y-144816666D02*
X97300000Y-144783333D01*
X97366666Y-144750000D01*
X97466666Y-144750000D01*
X97533333Y-144783333D01*
X97566666Y-144850000D01*
X97566666Y-145216666D01*
X97566666Y-144850000D02*
X97600000Y-144783333D01*
X97666666Y-144750000D01*
X97766666Y-144750000D01*
X97833333Y-144783333D01*
X97866666Y-144850000D01*
X97866666Y-145216666D01*
X98500000Y-145183333D02*
X98433333Y-145216666D01*
X98300000Y-145216666D01*
X98233333Y-145183333D01*
X98200000Y-145150000D01*
X98166666Y-145083333D01*
X98166666Y-144883333D01*
X98200000Y-144816666D01*
X98233333Y-144783333D01*
X98300000Y-144750000D01*
X98433333Y-144750000D01*
X98500000Y-144783333D01*
X98800000Y-145216666D02*
X98800000Y-144516666D01*
X98866666Y-144950000D02*
X99066666Y-145216666D01*
X99066666Y-144750000D02*
X98800000Y-145016666D01*
X99733333Y-145216666D02*
X99333333Y-145216666D01*
X99533333Y-145216666D02*
X99533333Y-144516666D01*
X99466666Y-144616666D01*
X99400000Y-144683333D01*
X99333333Y-144716666D01*
X100400000Y-145216666D02*
X100000000Y-145216666D01*
X100200000Y-145216666D02*
X100200000Y-144516666D01*
X100133333Y-144616666D01*
X100066666Y-144683333D01*
X100000000Y-144716666D01*
X101066666Y-145216666D02*
X100666666Y-145216666D01*
X100866666Y-145216666D02*
X100866666Y-144516666D01*
X100800000Y-144616666D01*
X100733333Y-144683333D01*
X100666666Y-144716666D01*
X101300000Y-144516666D02*
X101766666Y-144516666D01*
X101466666Y-145216666D01*
X86500000Y-146416666D02*
X86500000Y-145716666D01*
X86766666Y-145716666D01*
X86833333Y-145750000D01*
X86866666Y-145783333D01*
X86900000Y-145850000D01*
X86900000Y-145950000D01*
X86866666Y-146016666D01*
X86833333Y-146050000D01*
X86766666Y-146083333D01*
X86500000Y-146083333D01*
X87600000Y-146350000D02*
X87566666Y-146383333D01*
X87466666Y-146416666D01*
X87400000Y-146416666D01*
X87300000Y-146383333D01*
X87233333Y-146316666D01*
X87200000Y-146250000D01*
X87166666Y-146116666D01*
X87166666Y-146016666D01*
X87200000Y-145883333D01*
X87233333Y-145816666D01*
X87300000Y-145750000D01*
X87400000Y-145716666D01*
X87466666Y-145716666D01*
X87566666Y-145750000D01*
X87600000Y-145783333D01*
X88133333Y-146050000D02*
X88233333Y-146083333D01*
X88266666Y-146116666D01*
X88300000Y-146183333D01*
X88300000Y-146283333D01*
X88266666Y-146350000D01*
X88233333Y-146383333D01*
X88166666Y-146416666D01*
X87900000Y-146416666D01*
X87900000Y-145716666D01*
X88133333Y-145716666D01*
X88200000Y-145750000D01*
X88233333Y-145783333D01*
X88266666Y-145850000D01*
X88266666Y-145916666D01*
X88233333Y-145983333D01*
X88200000Y-146016666D01*
X88133333Y-146050000D01*
X87900000Y-146050000D01*
X89066666Y-145950000D02*
X89233333Y-146416666D01*
X89400000Y-145950000D01*
X89933333Y-146383333D02*
X89866666Y-146416666D01*
X89733333Y-146416666D01*
X89666666Y-146383333D01*
X89633333Y-146316666D01*
X89633333Y-146050000D01*
X89666666Y-145983333D01*
X89733333Y-145950000D01*
X89866666Y-145950000D01*
X89933333Y-145983333D01*
X89966666Y-146050000D01*
X89966666Y-146116666D01*
X89633333Y-146183333D01*
X90266666Y-146416666D02*
X90266666Y-145950000D01*
X90266666Y-146083333D02*
X90300000Y-146016666D01*
X90333333Y-145983333D01*
X90400000Y-145950000D01*
X90466666Y-145950000D01*
X90700000Y-146350000D02*
X90733333Y-146383333D01*
X90700000Y-146416666D01*
X90666666Y-146383333D01*
X90700000Y-146350000D01*
X90700000Y-146416666D01*
X91000000Y-145783333D02*
X91033333Y-145750000D01*
X91100000Y-145716666D01*
X91266666Y-145716666D01*
X91333333Y-145750000D01*
X91366666Y-145783333D01*
X91400000Y-145850000D01*
X91400000Y-145916666D01*
X91366666Y-146016666D01*
X90966666Y-146416666D01*
X91400000Y-146416666D01*
X91700000Y-146350000D02*
X91733333Y-146383333D01*
X91700000Y-146416666D01*
X91666666Y-146383333D01*
X91700000Y-146350000D01*
X91700000Y-146416666D01*
X91966666Y-145716666D02*
X92400000Y-145716666D01*
X92166666Y-145983333D01*
X92266666Y-145983333D01*
X92333333Y-146016666D01*
X92366666Y-146050000D01*
X92400000Y-146116666D01*
X92400000Y-146283333D01*
X92366666Y-146350000D01*
X92333333Y-146383333D01*
X92266666Y-146416666D01*
X92066666Y-146416666D01*
X92000000Y-146383333D01*
X91966666Y-146350000D01*
X93233333Y-146416666D02*
X93233333Y-145716666D01*
X93233333Y-145983333D02*
X93300000Y-145950000D01*
X93433333Y-145950000D01*
X93500000Y-145983333D01*
X93533333Y-146016666D01*
X93566666Y-146083333D01*
X93566666Y-146283333D01*
X93533333Y-146350000D01*
X93500000Y-146383333D01*
X93433333Y-146416666D01*
X93300000Y-146416666D01*
X93233333Y-146383333D01*
X93800000Y-145950000D02*
X93966666Y-146416666D01*
X94133333Y-145950000D02*
X93966666Y-146416666D01*
X93900000Y-146583333D01*
X93866666Y-146616666D01*
X93800000Y-146650000D01*
X95133333Y-145716666D02*
X95133333Y-146216666D01*
X95100000Y-146316666D01*
X95033333Y-146383333D01*
X94933333Y-146416666D01*
X94866666Y-146416666D01*
X95866666Y-146416666D02*
X95633333Y-146083333D01*
X95466666Y-146416666D02*
X95466666Y-145716666D01*
X95733333Y-145716666D01*
X95800000Y-145750000D01*
X95833333Y-145783333D01*
X95866666Y-145850000D01*
X95866666Y-145950000D01*
X95833333Y-146016666D01*
X95800000Y-146050000D01*
X95733333Y-146083333D01*
X95466666Y-146083333D01*
X96166666Y-146416666D02*
X96166666Y-145716666D01*
X96333333Y-145716666D01*
X96433333Y-145750000D01*
X96500000Y-145816666D01*
X96533333Y-145883333D01*
X96566666Y-146016666D01*
X96566666Y-146116666D01*
X96533333Y-146250000D01*
X96500000Y-146316666D01*
X96433333Y-146383333D01*
X96333333Y-146416666D01*
X96166666Y-146416666D01*
X97400000Y-146416666D02*
X97400000Y-145716666D01*
X97633333Y-146216666D01*
X97866666Y-145716666D01*
X97866666Y-146416666D01*
X98500000Y-146383333D02*
X98433333Y-146416666D01*
X98300000Y-146416666D01*
X98233333Y-146383333D01*
X98200000Y-146350000D01*
X98166666Y-146283333D01*
X98166666Y-146083333D01*
X98200000Y-146016666D01*
X98233333Y-145983333D01*
X98300000Y-145950000D01*
X98433333Y-145950000D01*
X98500000Y-145983333D01*
X99133333Y-146416666D02*
X98800000Y-146416666D01*
X98800000Y-145716666D01*
X99333333Y-146216666D02*
X99666666Y-146216666D01*
X99266666Y-146416666D02*
X99500000Y-145716666D01*
X99733333Y-146416666D01*
X100366666Y-146416666D02*
X100133333Y-146083333D01*
X99966666Y-146416666D02*
X99966666Y-145716666D01*
X100233333Y-145716666D01*
X100300000Y-145750000D01*
X100333333Y-145783333D01*
X100366666Y-145850000D01*
X100366666Y-145950000D01*
X100333333Y-146016666D01*
X100300000Y-146050000D01*
X100233333Y-146083333D01*
X99966666Y-146083333D01*
X100666666Y-146050000D02*
X100900000Y-146050000D01*
X101000000Y-146416666D02*
X100666666Y-146416666D01*
X100666666Y-145716666D01*
X101000000Y-145716666D01*
X101300000Y-146416666D02*
X101300000Y-145716666D01*
X101700000Y-146416666D01*
X101700000Y-145716666D01*
D14*
X90428571Y-149285714D02*
X90619047Y-149952380D01*
X90809523Y-149476190D01*
X91000000Y-149952380D01*
X91190476Y-149285714D01*
X91476190Y-149285714D02*
X91666666Y-149952380D01*
X91857142Y-149476190D01*
X92047619Y-149952380D01*
X92238095Y-149285714D01*
X92523809Y-149285714D02*
X92714285Y-149952380D01*
X92904761Y-149476190D01*
X93095238Y-149952380D01*
X93285714Y-149285714D01*
X93666666Y-149857142D02*
X93714285Y-149904761D01*
X93666666Y-149952380D01*
X93619047Y-149904761D01*
X93666666Y-149857142D01*
X93666666Y-149952380D01*
X94142857Y-149952380D02*
X94142857Y-149285714D01*
X94142857Y-149476190D02*
X94190476Y-149380952D01*
X94238095Y-149333333D01*
X94333333Y-149285714D01*
X94428571Y-149285714D01*
X95190476Y-149285714D02*
X95190476Y-149952380D01*
X94761904Y-149285714D02*
X94761904Y-149809523D01*
X94809523Y-149904761D01*
X94904761Y-149952380D01*
X95047619Y-149952380D01*
X95142857Y-149904761D01*
X95190476Y-149857142D01*
X95619047Y-149904761D02*
X95714285Y-149952380D01*
X95904761Y-149952380D01*
X96000000Y-149904761D01*
X96047619Y-149809523D01*
X96047619Y-149761904D01*
X96000000Y-149666666D01*
X95904761Y-149619047D01*
X95761904Y-149619047D01*
X95666666Y-149571428D01*
X95619047Y-149476190D01*
X95619047Y-149428571D01*
X95666666Y-149333333D01*
X95761904Y-149285714D01*
X95904761Y-149285714D01*
X96000000Y-149333333D01*
X96857142Y-149904761D02*
X96761904Y-149952380D01*
X96571428Y-149952380D01*
X96476190Y-149904761D01*
X96428571Y-149809523D01*
X96428571Y-149428571D01*
X96476190Y-149333333D01*
X96571428Y-149285714D01*
X96761904Y-149285714D01*
X96857142Y-149333333D01*
X96904761Y-149428571D01*
X96904761Y-149523809D01*
X96428571Y-149619047D01*
X97190476Y-149285714D02*
X97571428Y-149285714D01*
X97333333Y-149952380D02*
X97333333Y-149095238D01*
X97380952Y-149000000D01*
X97476190Y-148952380D01*
X97571428Y-148952380D01*
X97904761Y-149952380D02*
X97904761Y-149285714D01*
X97904761Y-148952380D02*
X97857142Y-149000000D01*
X97904761Y-149047619D01*
X97952380Y-149000000D01*
X97904761Y-148952380D01*
X97904761Y-149047619D01*
X98380952Y-149857142D02*
X98428571Y-149904761D01*
X98380952Y-149952380D01*
X98333333Y-149904761D01*
X98380952Y-149857142D01*
X98380952Y-149952380D01*
X99285714Y-149904761D02*
X99190476Y-149952380D01*
X99000000Y-149952380D01*
X98904761Y-149904761D01*
X98857142Y-149857142D01*
X98809523Y-149761904D01*
X98809523Y-149476190D01*
X98857142Y-149380952D01*
X98904761Y-149333333D01*
X99000000Y-149285714D01*
X99190476Y-149285714D01*
X99285714Y-149333333D01*
X99857142Y-149952380D02*
X99761904Y-149904761D01*
X99714285Y-149857142D01*
X99666666Y-149761904D01*
X99666666Y-149476190D01*
X99714285Y-149380952D01*
X99761904Y-149333333D01*
X99857142Y-149285714D01*
X100000000Y-149285714D01*
X100095238Y-149333333D01*
X100142857Y-149380952D01*
X100190476Y-149476190D01*
X100190476Y-149761904D01*
X100142857Y-149857142D01*
X100095238Y-149904761D01*
X100000000Y-149952380D01*
X99857142Y-149952380D01*
X100619047Y-149952380D02*
X100619047Y-149285714D01*
X100619047Y-149380952D02*
X100666666Y-149333333D01*
X100761904Y-149285714D01*
X100904761Y-149285714D01*
X101000000Y-149333333D01*
X101047619Y-149428571D01*
X101047619Y-149952380D01*
X101047619Y-149428571D02*
X101095238Y-149333333D01*
X101190476Y-149285714D01*
X101333333Y-149285714D01*
X101428571Y-149333333D01*
X101476190Y-149428571D01*
X101476190Y-149952380D01*
D15*
X90499999Y-173678571D02*
X90499999Y-172178571D01*
X90999999Y-173250000D01*
X91499999Y-172178571D01*
X91499999Y-173678571D01*
X93071428Y-173678571D02*
X92571428Y-172964285D01*
X92214285Y-173678571D02*
X92214285Y-172178571D01*
X92785714Y-172178571D01*
X92928571Y-172250000D01*
X92999999Y-172321428D01*
X93071428Y-172464285D01*
X93071428Y-172678571D01*
X92999999Y-172821428D01*
X92928571Y-172892857D01*
X92785714Y-172964285D01*
X92214285Y-172964285D01*
X93714285Y-172892857D02*
X94214285Y-172892857D01*
X94428571Y-173678571D02*
X93714285Y-173678571D01*
X93714285Y-172178571D01*
X94428571Y-172178571D01*
X96857142Y-173678571D02*
X96857142Y-172892857D01*
X96785714Y-172750000D01*
X96642857Y-172678571D01*
X96357142Y-172678571D01*
X96214285Y-172750000D01*
X96857142Y-173607142D02*
X96714285Y-173678571D01*
X96357142Y-173678571D01*
X96214285Y-173607142D01*
X96142857Y-173464285D01*
X96142857Y-173321428D01*
X96214285Y-173178571D01*
X96357142Y-173107142D01*
X96714285Y-173107142D01*
X96857142Y-173035714D01*
X98214285Y-173678571D02*
X98214285Y-172178571D01*
X98214285Y-173607142D02*
X98071428Y-173678571D01*
X97785714Y-173678571D01*
X97642857Y-173607142D01*
X97571428Y-173535714D01*
X97499999Y-173392857D01*
X97499999Y-172964285D01*
X97571428Y-172821428D01*
X97642857Y-172750000D01*
X97785714Y-172678571D01*
X98071428Y-172678571D01*
X98214285Y-172750000D01*
X99571428Y-173678571D02*
X99571428Y-172178571D01*
X99571428Y-173607142D02*
X99428571Y-173678571D01*
X99142857Y-173678571D01*
X98999999Y-173607142D01*
X98928571Y-173535714D01*
X98857142Y-173392857D01*
X98857142Y-172964285D01*
X98928571Y-172821428D01*
X98999999Y-172750000D01*
X99142857Y-172678571D01*
X99428571Y-172678571D01*
X99571428Y-172750000D01*
X100499999Y-173678571D02*
X100357142Y-173607142D01*
X100285714Y-173535714D01*
X100214285Y-173392857D01*
X100214285Y-172964285D01*
X100285714Y-172821428D01*
X100357142Y-172750000D01*
X100499999Y-172678571D01*
X100714285Y-172678571D01*
X100857142Y-172750000D01*
X100928571Y-172821428D01*
X100999999Y-172964285D01*
X100999999Y-173392857D01*
X100928571Y-173535714D01*
X100857142Y-173607142D01*
X100714285Y-173678571D01*
X100499999Y-173678571D01*
X101642857Y-172678571D02*
X101642857Y-173678571D01*
X101642857Y-172821428D02*
X101714285Y-172750000D01*
X101857142Y-172678571D01*
X102071428Y-172678571D01*
X102214285Y-172750000D01*
X102285714Y-172892857D01*
X102285714Y-173678571D01*
X104142857Y-173678571D02*
X104142857Y-172178571D01*
X104142857Y-172750000D02*
X104285714Y-172678571D01*
X104571428Y-172678571D01*
X104714285Y-172750000D01*
X104785714Y-172821428D01*
X104857142Y-172964285D01*
X104857142Y-173392857D01*
X104785714Y-173535714D01*
X104714285Y-173607142D01*
X104571428Y-173678571D01*
X104285714Y-173678571D01*
X104142857Y-173607142D01*
X105714285Y-173678571D02*
X105571428Y-173607142D01*
X105499999Y-173535714D01*
X105428571Y-173392857D01*
X105428571Y-172964285D01*
X105499999Y-172821428D01*
X105571428Y-172750000D01*
X105714285Y-172678571D01*
X105928571Y-172678571D01*
X106071428Y-172750000D01*
X106142857Y-172821428D01*
X106214285Y-172964285D01*
X106214285Y-173392857D01*
X106142857Y-173535714D01*
X106071428Y-173607142D01*
X105928571Y-173678571D01*
X105714285Y-173678571D01*
X107499999Y-173678571D02*
X107499999Y-172892857D01*
X107428571Y-172750000D01*
X107285714Y-172678571D01*
X106999999Y-172678571D01*
X106857142Y-172750000D01*
X107499999Y-173607142D02*
X107357142Y-173678571D01*
X106999999Y-173678571D01*
X106857142Y-173607142D01*
X106785714Y-173464285D01*
X106785714Y-173321428D01*
X106857142Y-173178571D01*
X106999999Y-173107142D01*
X107357142Y-173107142D01*
X107499999Y-173035714D01*
X108214285Y-173678571D02*
X108214285Y-172678571D01*
X108214285Y-172964285D02*
X108285714Y-172821428D01*
X108357142Y-172750000D01*
X108499999Y-172678571D01*
X108642857Y-172678571D01*
X109785714Y-173678571D02*
X109785714Y-172178571D01*
X109785714Y-173607142D02*
X109642857Y-173678571D01*
X109357142Y-173678571D01*
X109214285Y-173607142D01*
X109142857Y-173535714D01*
X109071428Y-173392857D01*
X109071428Y-172964285D01*
X109142857Y-172821428D01*
X109214285Y-172750000D01*
X109357142Y-172678571D01*
X109642857Y-172678571D01*
X109785714Y-172750000D01*
X111642857Y-173107142D02*
X112785714Y-173107142D01*
X114499999Y-172178571D02*
X114857142Y-173678571D01*
X115142857Y-172607142D01*
X115428571Y-173678571D01*
X115785714Y-172178571D01*
X116857142Y-172892857D02*
X117071428Y-172964285D01*
X117142857Y-173035714D01*
X117214285Y-173178571D01*
X117214285Y-173392857D01*
X117142857Y-173535714D01*
X117071428Y-173607142D01*
X116928571Y-173678571D01*
X116357142Y-173678571D01*
X116357142Y-172178571D01*
X116857142Y-172178571D01*
X116999999Y-172250000D01*
X117071428Y-172321428D01*
X117142857Y-172464285D01*
X117142857Y-172607142D01*
X117071428Y-172750000D01*
X116999999Y-172821428D01*
X116857142Y-172892857D01*
X116357142Y-172892857D01*
X118142857Y-172178571D02*
X118428571Y-172178571D01*
X118571428Y-172250000D01*
X118714285Y-172392857D01*
X118785714Y-172678571D01*
X118785714Y-173178571D01*
X118714285Y-173464285D01*
X118571428Y-173607142D01*
X118428571Y-173678571D01*
X118142857Y-173678571D01*
X117999999Y-173607142D01*
X117857142Y-173464285D01*
X117785714Y-173178571D01*
X117785714Y-172678571D01*
X117857142Y-172392857D01*
X117999999Y-172250000D01*
X118142857Y-172178571D01*
X119357142Y-172321428D02*
X119428571Y-172250000D01*
X119571428Y-172178571D01*
X119928571Y-172178571D01*
X120071428Y-172250000D01*
X120142857Y-172321428D01*
X120214285Y-172464285D01*
X120214285Y-172607142D01*
X120142857Y-172821428D01*
X119285714Y-173678571D01*
X120214285Y-173678571D01*
X123214285Y-173678571D02*
X123142857Y-173678571D01*
X122999999Y-173607142D01*
X122785714Y-173392857D01*
X122428571Y-172964285D01*
X122285714Y-172750000D01*
X122214285Y-172535714D01*
X122214285Y-172392857D01*
X122285714Y-172250000D01*
X122428571Y-172178571D01*
X122499999Y-172178571D01*
X122642857Y-172250000D01*
X122714285Y-172392857D01*
X122714285Y-172464285D01*
X122642857Y-172607142D01*
X122571428Y-172678571D01*
X122142857Y-172964285D01*
X122071428Y-173035714D01*
X121999999Y-173178571D01*
X121999999Y-173392857D01*
X122071428Y-173535714D01*
X122142857Y-173607142D01*
X122285714Y-173678571D01*
X122499999Y-173678571D01*
X122642857Y-173607142D01*
X122714285Y-173535714D01*
X122928571Y-173250000D01*
X122999999Y-173035714D01*
X122999999Y-172892857D01*
X124999999Y-172892857D02*
X125499999Y-172892857D01*
X125714285Y-173678571D02*
X124999999Y-173678571D01*
X124999999Y-172178571D01*
X125714285Y-172178571D01*
X127142857Y-172250000D02*
X126999999Y-172178571D01*
X126785714Y-172178571D01*
X126571428Y-172250000D01*
X126428571Y-172392857D01*
X126357142Y-172535714D01*
X126285714Y-172821428D01*
X126285714Y-173035714D01*
X126357142Y-173321428D01*
X126428571Y-173464285D01*
X126571428Y-173607142D01*
X126785714Y-173678571D01*
X126928571Y-173678571D01*
X127142857Y-173607142D01*
X127214285Y-173535714D01*
X127214285Y-173035714D01*
X126928571Y-173035714D01*
X127642857Y-172178571D02*
X128499999Y-172178571D01*
X128071428Y-173678571D02*
X128071428Y-172178571D01*
X131357142Y-173678571D02*
X131285714Y-173678571D01*
X131142857Y-173607142D01*
X130928571Y-173392857D01*
X130571428Y-172964285D01*
X130428571Y-172750000D01*
X130357142Y-172535714D01*
X130357142Y-172392857D01*
X130428571Y-172250000D01*
X130571428Y-172178571D01*
X130642857Y-172178571D01*
X130785714Y-172250000D01*
X130857142Y-172392857D01*
X130857142Y-172464285D01*
X130785714Y-172607142D01*
X130714285Y-172678571D01*
X130285714Y-172964285D01*
X130214285Y-173035714D01*
X130142857Y-173178571D01*
X130142857Y-173392857D01*
X130214285Y-173535714D01*
X130285714Y-173607142D01*
X130428571Y-173678571D01*
X130642857Y-173678571D01*
X130785714Y-173607142D01*
X130857142Y-173535714D01*
X131071428Y-173250000D01*
X131142857Y-173035714D01*
X131142857Y-172892857D01*
X133071428Y-173607142D02*
X133285714Y-173678571D01*
X133642857Y-173678571D01*
X133785714Y-173607142D01*
X133857142Y-173535714D01*
X133928571Y-173392857D01*
X133928571Y-173250000D01*
X133857142Y-173107142D01*
X133785714Y-173035714D01*
X133642857Y-172964285D01*
X133357142Y-172892857D01*
X133214285Y-172821428D01*
X133142857Y-172750000D01*
X133071428Y-172607142D01*
X133071428Y-172464285D01*
X133142857Y-172321428D01*
X133214285Y-172250000D01*
X133357142Y-172178571D01*
X133714285Y-172178571D01*
X133928571Y-172250000D01*
X134571428Y-173678571D02*
X134571428Y-172178571D01*
X134928571Y-172178571D01*
X135142857Y-172250000D01*
X135285714Y-172392857D01*
X135357142Y-172535714D01*
X135428571Y-172821428D01*
X135428571Y-173035714D01*
X135357142Y-173321428D01*
X135285714Y-173464285D01*
X135142857Y-173607142D01*
X134928571Y-173678571D01*
X134571428Y-173678571D01*
X136928571Y-173535714D02*
X136857142Y-173607142D01*
X136642857Y-173678571D01*
X136499999Y-173678571D01*
X136285714Y-173607142D01*
X136142857Y-173464285D01*
X136071428Y-173321428D01*
X135999999Y-173035714D01*
X135999999Y-172821428D01*
X136071428Y-172535714D01*
X136142857Y-172392857D01*
X136285714Y-172250000D01*
X136499999Y-172178571D01*
X136642857Y-172178571D01*
X136857142Y-172250000D01*
X136928571Y-172321428D01*
X138214285Y-173678571D02*
X138214285Y-172892857D01*
X138142857Y-172750000D01*
X137999999Y-172678571D01*
X137714285Y-172678571D01*
X137571428Y-172750000D01*
X138214285Y-173607142D02*
X138071428Y-173678571D01*
X137714285Y-173678571D01*
X137571428Y-173607142D01*
X137499999Y-173464285D01*
X137499999Y-173321428D01*
X137571428Y-173178571D01*
X137714285Y-173107142D01*
X138071428Y-173107142D01*
X138214285Y-173035714D01*
X138928571Y-173678571D02*
X138928571Y-172678571D01*
X138928571Y-172964285D02*
X138999999Y-172821428D01*
X139071428Y-172750000D01*
X139214285Y-172678571D01*
X139357142Y-172678571D01*
X140499999Y-173678571D02*
X140499999Y-172178571D01*
X140499999Y-173607142D02*
X140357142Y-173678571D01*
X140071428Y-173678571D01*
X139928571Y-173607142D01*
X139857142Y-173535714D01*
X139785714Y-173392857D01*
X139785714Y-172964285D01*
X139857142Y-172821428D01*
X139928571Y-172750000D01*
X140071428Y-172678571D01*
X140357142Y-172678571D01*
X140499999Y-172750000D01*
D10*
X102096540Y-126702380D02*
X102164992Y-126726190D01*
X102284040Y-126726190D01*
X102334635Y-126702380D01*
X102361421Y-126678571D01*
X102391183Y-126630952D01*
X102397135Y-126583333D01*
X102379278Y-126535714D01*
X102358444Y-126511904D01*
X102313802Y-126488095D01*
X102221540Y-126464285D01*
X102176897Y-126440476D01*
X102156063Y-126416666D01*
X102138206Y-126369047D01*
X102144159Y-126321428D01*
X102173921Y-126273809D01*
X102200706Y-126250000D01*
X102251302Y-126226190D01*
X102370349Y-126226190D01*
X102438802Y-126250000D01*
X102608444Y-126226190D02*
X102664992Y-126726190D01*
X102804873Y-126369047D01*
X102855468Y-126726190D01*
X103037016Y-126226190D01*
X103322730Y-126226190D02*
X103417968Y-126226190D01*
X103462611Y-126250000D01*
X103504278Y-126297619D01*
X103516183Y-126392857D01*
X103495349Y-126559523D01*
X103459635Y-126654761D01*
X103406063Y-126702380D01*
X103355468Y-126726190D01*
X103260230Y-126726190D01*
X103215587Y-126702380D01*
X103173921Y-126654761D01*
X103162016Y-126559523D01*
X103182849Y-126392857D01*
X103218563Y-126297619D01*
X103272135Y-126250000D01*
X103322730Y-126226190D01*
X104111421Y-126392857D02*
X104069754Y-126726190D01*
X104105468Y-126440476D02*
X104132254Y-126416666D01*
X104182849Y-126392857D01*
X104254278Y-126392857D01*
X104298921Y-126416666D01*
X104316778Y-126464285D01*
X104284040Y-126726190D01*
X104807849Y-126726190D02*
X104670944Y-126488095D01*
X104522135Y-126726190D02*
X104584635Y-126226190D01*
X104775111Y-126226190D01*
X104819754Y-126250000D01*
X104840587Y-126273809D01*
X104858444Y-126321428D01*
X104849516Y-126392857D01*
X104819754Y-126440476D01*
X104792968Y-126464285D01*
X104742373Y-126488095D01*
X104551897Y-126488095D01*
X105054873Y-126464285D02*
X105221540Y-126464285D01*
X105260230Y-126726190D02*
X105022135Y-126726190D01*
X105084635Y-126226190D01*
X105322730Y-126226190D01*
X105453683Y-126702380D02*
X105522135Y-126726190D01*
X105641183Y-126726190D01*
X105691778Y-126702380D01*
X105718563Y-126678571D01*
X105748325Y-126630952D01*
X105754278Y-126583333D01*
X105736421Y-126535714D01*
X105715587Y-126511904D01*
X105670944Y-126488095D01*
X105578683Y-126464285D01*
X105534040Y-126440476D01*
X105513206Y-126416666D01*
X105495349Y-126369047D01*
X105501302Y-126321428D01*
X105531063Y-126273809D01*
X105557849Y-126250000D01*
X105608444Y-126226190D01*
X105727492Y-126226190D01*
X105795944Y-126250000D01*
X105983444Y-126464285D02*
X106150111Y-126464285D01*
X106188802Y-126726190D02*
X105950706Y-126726190D01*
X106013206Y-126226190D01*
X106251302Y-126226190D01*
X106394159Y-126226190D02*
X106679873Y-126226190D01*
X106474516Y-126726190D02*
X106537016Y-126226190D01*
X107144159Y-126702380D02*
X107212611Y-126726190D01*
X107331659Y-126726190D01*
X107382254Y-126702380D01*
X107409040Y-126678571D01*
X107438802Y-126630952D01*
X107444754Y-126583333D01*
X107426897Y-126535714D01*
X107406063Y-126511904D01*
X107361421Y-126488095D01*
X107269159Y-126464285D01*
X107224516Y-126440476D01*
X107203683Y-126416666D01*
X107185825Y-126369047D01*
X107191778Y-126321428D01*
X107221540Y-126273809D01*
X107248325Y-126250000D01*
X107298921Y-126226190D01*
X107417968Y-126226190D01*
X107486421Y-126250000D01*
X107656063Y-126226190D02*
X107712611Y-126726190D01*
X107852492Y-126369047D01*
X107903087Y-126726190D01*
X108084635Y-126226190D01*
X108212611Y-126726190D02*
X108275111Y-126226190D01*
X108394159Y-126226190D01*
X108462611Y-126250000D01*
X108504278Y-126297619D01*
X108522135Y-126345238D01*
X108534040Y-126440476D01*
X108525111Y-126511904D01*
X108489397Y-126607142D01*
X108459635Y-126654761D01*
X108406063Y-126702380D01*
X108331659Y-126726190D01*
X108212611Y-126726190D01*
X108712611Y-126726190D02*
X108775111Y-126226190D01*
X109108444Y-126226190D02*
X109203683Y-126226190D01*
X109248325Y-126250000D01*
X109289992Y-126297619D01*
X109301897Y-126392857D01*
X109281063Y-126559523D01*
X109245349Y-126654761D01*
X109191778Y-126702380D01*
X109141183Y-126726190D01*
X109045944Y-126726190D01*
X109001302Y-126702380D01*
X108959635Y-126654761D01*
X108947730Y-126559523D01*
X108968563Y-126392857D01*
X109004278Y-126297619D01*
X109057849Y-126250000D01*
X109108444Y-126226190D01*
X110176897Y-126250000D02*
X110132254Y-126226190D01*
X110060825Y-126226190D01*
X109986421Y-126250000D01*
X109932849Y-126297619D01*
X109903087Y-126345238D01*
X109867373Y-126440476D01*
X109858444Y-126511904D01*
X109870349Y-126607142D01*
X109888206Y-126654761D01*
X109929873Y-126702380D01*
X109998325Y-126726190D01*
X110045944Y-126726190D01*
X110120349Y-126702380D01*
X110147135Y-126678571D01*
X110167968Y-126511904D01*
X110072730Y-126511904D01*
X110355468Y-126726190D02*
X110417968Y-126226190D01*
X110641183Y-126726190D01*
X110703683Y-126226190D01*
X110879278Y-126726190D02*
X110941778Y-126226190D01*
X111060825Y-126226190D01*
X111129278Y-126250000D01*
X111170944Y-126297619D01*
X111188802Y-126345238D01*
X111200706Y-126440476D01*
X111191778Y-126511904D01*
X111156063Y-126607142D01*
X111126302Y-126654761D01*
X111072730Y-126702380D01*
X110998325Y-126726190D01*
X110879278Y-126726190D01*
X111739397Y-126702380D02*
X111807849Y-126726190D01*
X111926897Y-126726190D01*
X111977492Y-126702380D01*
X112004278Y-126678571D01*
X112034040Y-126630952D01*
X112039992Y-126583333D01*
X112022135Y-126535714D01*
X112001302Y-126511904D01*
X111956659Y-126488095D01*
X111864397Y-126464285D01*
X111819754Y-126440476D01*
X111798921Y-126416666D01*
X111781063Y-126369047D01*
X111787016Y-126321428D01*
X111816778Y-126273809D01*
X111843563Y-126250000D01*
X111894159Y-126226190D01*
X112013206Y-126226190D01*
X112081659Y-126250000D01*
X112251302Y-126226190D02*
X112307849Y-126726190D01*
X112447730Y-126369047D01*
X112498325Y-126726190D01*
X112679873Y-126226190D01*
X113099516Y-126678571D02*
X113072730Y-126702380D01*
X112998325Y-126726190D01*
X112950706Y-126726190D01*
X112882254Y-126702380D01*
X112840587Y-126654761D01*
X112822730Y-126607142D01*
X112810825Y-126511904D01*
X112819754Y-126440476D01*
X112855468Y-126345238D01*
X112885230Y-126297619D01*
X112938802Y-126250000D01*
X113013206Y-126226190D01*
X113060825Y-126226190D01*
X113129278Y-126250000D01*
X113150111Y-126273809D01*
X113545944Y-126726190D02*
X113307849Y-126726190D01*
X113370349Y-126226190D01*
X113712611Y-126726190D02*
X113775111Y-126226190D01*
X113998325Y-126726190D02*
X113819754Y-126440476D01*
X114060825Y-126226190D02*
X113739397Y-126511904D01*
X114608444Y-126226190D02*
X114917968Y-126226190D01*
X114727492Y-126416666D01*
X114798921Y-126416666D01*
X114843563Y-126440476D01*
X114864397Y-126464285D01*
X114882254Y-126511904D01*
X114867373Y-126630952D01*
X114837611Y-126678571D01*
X114810825Y-126702380D01*
X114760230Y-126726190D01*
X114617373Y-126726190D01*
X114572730Y-126702380D01*
X114551897Y-126678571D01*
X115075706Y-126678571D02*
X115096540Y-126702380D01*
X115069754Y-126726190D01*
X115048921Y-126702380D01*
X115075706Y-126678571D01*
X115069754Y-126726190D01*
X115322730Y-126226190D02*
X115632254Y-126226190D01*
X115441778Y-126416666D01*
X115513206Y-126416666D01*
X115557849Y-126440476D01*
X115578683Y-126464285D01*
X115596540Y-126511904D01*
X115581659Y-126630952D01*
X115551897Y-126678571D01*
X115525111Y-126702380D01*
X115474516Y-126726190D01*
X115331659Y-126726190D01*
X115287016Y-126702380D01*
X115266183Y-126678571D01*
X115775111Y-126226190D02*
X115879278Y-126726190D01*
X116108444Y-126226190D01*
D14*
X93242857Y-131000000D02*
X93147619Y-130952380D01*
X93004761Y-130952380D01*
X92861904Y-131000000D01*
X92766666Y-131095238D01*
X92719047Y-131190476D01*
X92671428Y-131380952D01*
X92671428Y-131523809D01*
X92719047Y-131714285D01*
X92766666Y-131809523D01*
X92861904Y-131904761D01*
X93004761Y-131952380D01*
X93100000Y-131952380D01*
X93242857Y-131904761D01*
X93290476Y-131857142D01*
X93290476Y-131523809D01*
X93100000Y-131523809D01*
X93719047Y-131952380D02*
X93719047Y-130952380D01*
X94290476Y-131952380D01*
X94290476Y-130952380D01*
X94766666Y-131952380D02*
X94766666Y-130952380D01*
X95004761Y-130952380D01*
X95147619Y-131000000D01*
X95242857Y-131095238D01*
X95290476Y-131190476D01*
X95338095Y-131380952D01*
X95338095Y-131523809D01*
X95290476Y-131714285D01*
X95242857Y-131809523D01*
X95147619Y-131904761D01*
X95004761Y-131952380D01*
X94766666Y-131952380D01*
X97100000Y-131952380D02*
X96766666Y-131476190D01*
X96528571Y-131952380D02*
X96528571Y-130952380D01*
X96909523Y-130952380D01*
X97004761Y-131000000D01*
X97052380Y-131047619D01*
X97100000Y-131142857D01*
X97100000Y-131285714D01*
X97052380Y-131380952D01*
X97004761Y-131428571D01*
X96909523Y-131476190D01*
X96528571Y-131476190D01*
X97433333Y-130952380D02*
X98100000Y-131952380D01*
X98100000Y-130952380D02*
X97433333Y-131952380D01*
X99100000Y-130952380D02*
X99671428Y-130952380D01*
X99385714Y-131952380D02*
X99385714Y-130952380D01*
X99909523Y-130952380D02*
X100576190Y-131952380D01*
X100576190Y-130952380D02*
X99909523Y-131952380D01*
D15*
X95464285Y-140092857D02*
X95678571Y-140164285D01*
X95750000Y-140235714D01*
X95821428Y-140378571D01*
X95821428Y-140592857D01*
X95750000Y-140735714D01*
X95678571Y-140807142D01*
X95535714Y-140878571D01*
X94964285Y-140878571D01*
X94964285Y-139378571D01*
X95464285Y-139378571D01*
X95607142Y-139450000D01*
X95678571Y-139521428D01*
X95750000Y-139664285D01*
X95750000Y-139807142D01*
X95678571Y-139950000D01*
X95607142Y-140021428D01*
X95464285Y-140092857D01*
X94964285Y-140092857D01*
X96750000Y-139378571D02*
X97035714Y-139378571D01*
X97178571Y-139450000D01*
X97321428Y-139592857D01*
X97392857Y-139878571D01*
X97392857Y-140378571D01*
X97321428Y-140664285D01*
X97178571Y-140807142D01*
X97035714Y-140878571D01*
X96750000Y-140878571D01*
X96607142Y-140807142D01*
X96464285Y-140664285D01*
X96392857Y-140378571D01*
X96392857Y-139878571D01*
X96464285Y-139592857D01*
X96607142Y-139450000D01*
X96750000Y-139378571D01*
X98321428Y-139378571D02*
X98607142Y-139378571D01*
X98750000Y-139450000D01*
X98892857Y-139592857D01*
X98964285Y-139878571D01*
X98964285Y-140378571D01*
X98892857Y-140664285D01*
X98750000Y-140807142D01*
X98607142Y-140878571D01*
X98321428Y-140878571D01*
X98178571Y-140807142D01*
X98035714Y-140664285D01*
X97964285Y-140378571D01*
X97964285Y-139878571D01*
X98035714Y-139592857D01*
X98178571Y-139450000D01*
X98321428Y-139378571D01*
X99392857Y-139378571D02*
X100250000Y-139378571D01*
X99821428Y-140878571D02*
X99821428Y-139378571D01*
D16*
X136260000Y-153812779D02*
X136260000Y-153487221D01*
X135240000Y-153812779D02*
X135240000Y-153487221D01*
X126590000Y-153637221D02*
X126590000Y-153962779D01*
X127610000Y-153637221D02*
X127610000Y-153962779D01*
X148480000Y-156435000D02*
X142720000Y-156435000D01*
X148480000Y-155015000D02*
X148480000Y-156435000D01*
X147980000Y-155015000D02*
X148480000Y-155015000D01*
X147980000Y-141985000D02*
X147980000Y-155015000D01*
X148480000Y-141985000D02*
X147980000Y-141985000D01*
X148480000Y-140565000D02*
X148480000Y-141985000D01*
X142720000Y-140565000D02*
X148480000Y-140565000D01*
X140890000Y-156435000D02*
X141200000Y-156435000D01*
X140890000Y-140565000D02*
X140890000Y-156435000D01*
X141200000Y-140565000D02*
X140890000Y-140565000D01*
X134300000Y-161060000D02*
X137750000Y-161060000D01*
X134300000Y-161060000D02*
X132350000Y-161060000D01*
X134300000Y-155940000D02*
X136250000Y-155940000D01*
X134300000Y-155940000D02*
X132350000Y-155940000D01*
X144800000Y-156685000D02*
X144800000Y-140315000D01*
X153930000Y-156685000D02*
X144800000Y-156685000D01*
X154930000Y-155685000D02*
X153930000Y-156685000D01*
X154930000Y-141315000D02*
X154930000Y-155685000D01*
X153930000Y-140315000D02*
X154930000Y-141315000D01*
X144800000Y-140315000D02*
X153930000Y-140315000D01*
X148820000Y-133568631D02*
X148820000Y-135163369D01*
X153240000Y-133568631D02*
X153240000Y-135163369D01*
D17*
X108293000Y-158250000D02*
X108293000Y-172093000D01*
X93307000Y-157107000D02*
X106896000Y-157107000D01*
X106896000Y-158250000D02*
X108293000Y-158250000D01*
X106896000Y-157107000D02*
X106896000Y-158250000D01*
X108293000Y-172093000D02*
X105761900Y-172093000D01*
X93307000Y-157107000D02*
X93307000Y-171077000D01*
X93307000Y-171077000D02*
X101359100Y-171077000D01*
X105753000Y-172093000D02*
X101308000Y-171077000D01*
D18*
X35249380Y-125050460D02*
X35249380Y-140549540D01*
X35249380Y-140549540D02*
X20550400Y-140549540D01*
X20550400Y-140549540D02*
X20550400Y-125050460D01*
X20550400Y-125050460D02*
X35249380Y-125050460D01*
X31248880Y-125050460D02*
X31248880Y-140549540D01*
X29651220Y-140549540D02*
X29651220Y-125050460D01*
X14449320Y-125050460D02*
X20550400Y-125050460D01*
X14449320Y-130000920D02*
X14449320Y-125050460D01*
X20550400Y-130049180D02*
X14449320Y-130000920D01*
X14449320Y-135550820D02*
X20550400Y-135550820D01*
X14449320Y-140549540D02*
X14449320Y-135550820D01*
X20601200Y-140549540D02*
X14449320Y-140549540D01*
D16*
X122700000Y-144740000D02*
X119250000Y-144740000D01*
X122700000Y-144740000D02*
X124650000Y-144740000D01*
X122700000Y-149860000D02*
X120750000Y-149860000D01*
X122700000Y-149860000D02*
X124650000Y-149860000D01*
X92610000Y-132562779D02*
X92610000Y-132237221D01*
X91590000Y-132562779D02*
X91590000Y-132237221D01*
X112610000Y-139660000D02*
X113900000Y-139660000D01*
X112610000Y-140110000D02*
X112610000Y-139660000D01*
X112160000Y-140110000D02*
X112610000Y-140110000D01*
X105390000Y-140110000D02*
X105390000Y-139660000D01*
X105840000Y-140110000D02*
X105390000Y-140110000D01*
X112610000Y-132890000D02*
X112610000Y-133340000D01*
X112160000Y-132890000D02*
X112610000Y-132890000D01*
X105390000Y-132890000D02*
X105390000Y-133340000D01*
X105840000Y-132890000D02*
X105390000Y-132890000D01*
X149820000Y-126870000D02*
X151150000Y-126870000D01*
X149820000Y-128200000D02*
X149820000Y-126870000D01*
X149820000Y-129470000D02*
X152480000Y-129470000D01*
X152480000Y-129470000D02*
X152480000Y-129530000D01*
X149820000Y-129470000D02*
X149820000Y-129530000D01*
X149820000Y-129530000D02*
X152480000Y-129530000D01*
X47560000Y-115755000D02*
X53320000Y-115755000D01*
X47560000Y-117175000D02*
X47560000Y-115755000D01*
X48060000Y-117175000D02*
X47560000Y-117175000D01*
X48060000Y-121205000D02*
X48060000Y-117175000D01*
X47560000Y-121205000D02*
X48060000Y-121205000D01*
X47560000Y-122625000D02*
X47560000Y-121205000D01*
X53320000Y-122625000D02*
X47560000Y-122625000D01*
X55150000Y-115755000D02*
X54840000Y-115755000D01*
X55150000Y-122625000D02*
X55150000Y-115755000D01*
X54840000Y-122625000D02*
X55150000Y-122625000D01*
X51070000Y-126995000D02*
X51070000Y-134365000D01*
X41940000Y-126995000D02*
X51070000Y-126995000D01*
X40940000Y-127995000D02*
X41940000Y-126995000D01*
X40940000Y-133365000D02*
X40940000Y-127995000D01*
X41940000Y-134365000D02*
X40940000Y-133365000D01*
X51070000Y-134365000D02*
X41940000Y-134365000D01*
X83360000Y-136517221D02*
X83360000Y-136842779D01*
X84380000Y-136517221D02*
X84380000Y-136842779D01*
X138290000Y-157649721D02*
X138290000Y-157975279D01*
X139310000Y-157649721D02*
X139310000Y-157975279D01*
D19*
X132689600Y-162869800D02*
X127609600Y-162869800D01*
D14*
X124287931Y-172722460D02*
G75*
G03X124287931Y-172722460I-495951J0D01*
G01*
X146063351Y-140314600D02*
G75*
G03X146063351Y-140314600I-495951J0D01*
G01*
D16*
X105510000Y-172795000D02*
G75*
G03X106010000Y-172295000I0J500000D01*
G01*
X95010000Y-172295000D02*
G75*
G03X95510000Y-172795000I500000J0D01*
G01*
X107420000Y-171295000D02*
X107420000Y-170895000D01*
X107420000Y-168375000D02*
X107420000Y-162595000D01*
X107420000Y-160075000D02*
X107420000Y-157375000D01*
X93600000Y-168375000D02*
X93600000Y-162595000D01*
X93600000Y-171295000D02*
X93600000Y-170895000D01*
X93600000Y-160075000D02*
X93600000Y-157375000D01*
X93600000Y-157375000D02*
X107420000Y-157375000D01*
X107420000Y-171295000D02*
X93600000Y-171295000D01*
X95010000Y-171295000D02*
X95010000Y-172295000D01*
X106010000Y-171295000D02*
X106010000Y-172295000D01*
X105510000Y-172795000D02*
X95510000Y-172795000D01*
X106010000Y-172195000D02*
X105210000Y-171995000D01*
X105210000Y-171995000D02*
X103510000Y-171695000D01*
X103510000Y-171695000D02*
X102710000Y-171595000D01*
X102710000Y-171595000D02*
X101410000Y-171495000D01*
X101410000Y-171495000D02*
X99610000Y-171495000D01*
X99610000Y-171495000D02*
X98310000Y-171595000D01*
X98310000Y-171595000D02*
X96810000Y-171795000D01*
X96810000Y-171795000D02*
X95510000Y-172095000D01*
X95510000Y-172095000D02*
X95010000Y-172195000D01*
X90690000Y-170037221D02*
X90690000Y-170362779D01*
X91710000Y-170037221D02*
X91710000Y-170362779D01*
D20*
G36*
X104553077Y-149165296D02*
G01*
X104823256Y-149165333D01*
X107311000Y-149165333D01*
X107311000Y-150435333D01*
X103120000Y-150435333D01*
X103120000Y-151493666D01*
X106633666Y-151493666D01*
X106633666Y-152752158D01*
X106437258Y-152779079D01*
X106350156Y-152785271D01*
X106189355Y-152790960D01*
X105965821Y-152795980D01*
X105690523Y-152800162D01*
X105374426Y-152803337D01*
X105028498Y-152805339D01*
X104680424Y-152806000D01*
X103120000Y-152806000D01*
X103120000Y-153250500D01*
X103117508Y-153387680D01*
X103114520Y-153502923D01*
X103117766Y-153598125D01*
X103133974Y-153675180D01*
X103169874Y-153735982D01*
X103232196Y-153782426D01*
X103327669Y-153816408D01*
X103463023Y-153839821D01*
X103644987Y-153854561D01*
X103880291Y-153862521D01*
X104175664Y-153865598D01*
X104537836Y-153865685D01*
X104973536Y-153864677D01*
X105300166Y-153864333D01*
X107311000Y-153864333D01*
X107311000Y-155134333D01*
X105247250Y-155132056D01*
X104770159Y-155131305D01*
X104369907Y-155130016D01*
X104038668Y-155127920D01*
X103768614Y-155124750D01*
X103551918Y-155120237D01*
X103380754Y-155114113D01*
X103247294Y-155106109D01*
X103143712Y-155095958D01*
X103062180Y-155083391D01*
X102994871Y-155068139D01*
X102943739Y-155053102D01*
X102604791Y-154904449D01*
X102323155Y-154694794D01*
X102101830Y-154426861D01*
X101967982Y-154166893D01*
X101946195Y-154111267D01*
X101927912Y-154056455D01*
X101912776Y-153994749D01*
X101900432Y-153918442D01*
X101890523Y-153819824D01*
X101882695Y-153691189D01*
X101876590Y-153524828D01*
X101871854Y-153313032D01*
X101868129Y-153048094D01*
X101865060Y-152722306D01*
X101862292Y-152327960D01*
X101859468Y-151857348D01*
X101859200Y-151811166D01*
X101846925Y-149694500D01*
X101897707Y-149596192D01*
X102104000Y-149596192D01*
X102104929Y-151762013D01*
X102105251Y-152246718D01*
X102105948Y-152654209D01*
X102107294Y-152991940D01*
X102109566Y-153267364D01*
X102113036Y-153487934D01*
X102117980Y-153661103D01*
X102124673Y-153794325D01*
X102133389Y-153895052D01*
X102144403Y-153970738D01*
X102157989Y-154028835D01*
X102174423Y-154076797D01*
X102191725Y-154117129D01*
X102339395Y-154381307D01*
X102516899Y-154578963D01*
X102678460Y-154693806D01*
X102766309Y-154744284D01*
X102848144Y-154786517D01*
X102932180Y-154821252D01*
X103026633Y-154849237D01*
X103139719Y-154871219D01*
X103279652Y-154887946D01*
X103454650Y-154900164D01*
X103672926Y-154908623D01*
X103942697Y-154914069D01*
X104272178Y-154917250D01*
X104669585Y-154918913D01*
X105143133Y-154919806D01*
X105162583Y-154919834D01*
X107099333Y-154922666D01*
X107099333Y-154076000D01*
X103206002Y-154076000D01*
X102929500Y-153829154D01*
X102915866Y-153190577D01*
X102902233Y-152552000D01*
X106422000Y-152552000D01*
X106422000Y-151747666D01*
X102908333Y-151747666D01*
X102908333Y-150181333D01*
X107099333Y-150181333D01*
X107099333Y-149377000D01*
X104731914Y-149376999D01*
X102364496Y-149376999D01*
X102234248Y-149486596D01*
X102104000Y-149596192D01*
X101897707Y-149596192D01*
X101943712Y-149507132D01*
X101978524Y-149438285D01*
X102010763Y-149379346D01*
X102046902Y-149329548D01*
X102093415Y-149288122D01*
X102156773Y-149254300D01*
X102243450Y-149227313D01*
X102359919Y-149206393D01*
X102512651Y-149190772D01*
X102708121Y-149179682D01*
X102952801Y-149172354D01*
X103253164Y-149168019D01*
X103615682Y-149165910D01*
X104046829Y-149165259D01*
X104553077Y-149165296D01*
G37*
X104553077Y-149165296D02*
X104823256Y-149165333D01*
X107311000Y-149165333D01*
X107311000Y-150435333D01*
X103120000Y-150435333D01*
X103120000Y-151493666D01*
X106633666Y-151493666D01*
X106633666Y-152752158D01*
X106437258Y-152779079D01*
X106350156Y-152785271D01*
X106189355Y-152790960D01*
X105965821Y-152795980D01*
X105690523Y-152800162D01*
X105374426Y-152803337D01*
X105028498Y-152805339D01*
X104680424Y-152806000D01*
X103120000Y-152806000D01*
X103120000Y-153250500D01*
X103117508Y-153387680D01*
X103114520Y-153502923D01*
X103117766Y-153598125D01*
X103133974Y-153675180D01*
X103169874Y-153735982D01*
X103232196Y-153782426D01*
X103327669Y-153816408D01*
X103463023Y-153839821D01*
X103644987Y-153854561D01*
X103880291Y-153862521D01*
X104175664Y-153865598D01*
X104537836Y-153865685D01*
X104973536Y-153864677D01*
X105300166Y-153864333D01*
X107311000Y-153864333D01*
X107311000Y-155134333D01*
X105247250Y-155132056D01*
X104770159Y-155131305D01*
X104369907Y-155130016D01*
X104038668Y-155127920D01*
X103768614Y-155124750D01*
X103551918Y-155120237D01*
X103380754Y-155114113D01*
X103247294Y-155106109D01*
X103143712Y-155095958D01*
X103062180Y-155083391D01*
X102994871Y-155068139D01*
X102943739Y-155053102D01*
X102604791Y-154904449D01*
X102323155Y-154694794D01*
X102101830Y-154426861D01*
X101967982Y-154166893D01*
X101946195Y-154111267D01*
X101927912Y-154056455D01*
X101912776Y-153994749D01*
X101900432Y-153918442D01*
X101890523Y-153819824D01*
X101882695Y-153691189D01*
X101876590Y-153524828D01*
X101871854Y-153313032D01*
X101868129Y-153048094D01*
X101865060Y-152722306D01*
X101862292Y-152327960D01*
X101859468Y-151857348D01*
X101859200Y-151811166D01*
X101846925Y-149694500D01*
X101897707Y-149596192D01*
X102104000Y-149596192D01*
X102104929Y-151762013D01*
X102105251Y-152246718D01*
X102105948Y-152654209D01*
X102107294Y-152991940D01*
X102109566Y-153267364D01*
X102113036Y-153487934D01*
X102117980Y-153661103D01*
X102124673Y-153794325D01*
X102133389Y-153895052D01*
X102144403Y-153970738D01*
X102157989Y-154028835D01*
X102174423Y-154076797D01*
X102191725Y-154117129D01*
X102339395Y-154381307D01*
X102516899Y-154578963D01*
X102678460Y-154693806D01*
X102766309Y-154744284D01*
X102848144Y-154786517D01*
X102932180Y-154821252D01*
X103026633Y-154849237D01*
X103139719Y-154871219D01*
X103279652Y-154887946D01*
X103454650Y-154900164D01*
X103672926Y-154908623D01*
X103942697Y-154914069D01*
X104272178Y-154917250D01*
X104669585Y-154918913D01*
X105143133Y-154919806D01*
X105162583Y-154919834D01*
X107099333Y-154922666D01*
X107099333Y-154076000D01*
X103206002Y-154076000D01*
X102929500Y-153829154D01*
X102915866Y-153190577D01*
X102902233Y-152552000D01*
X106422000Y-152552000D01*
X106422000Y-151747666D01*
X102908333Y-151747666D01*
X102908333Y-150181333D01*
X107099333Y-150181333D01*
X107099333Y-149377000D01*
X104731914Y-149376999D01*
X102364496Y-149376999D01*
X102234248Y-149486596D01*
X102104000Y-149596192D01*
X101897707Y-149596192D01*
X101943712Y-149507132D01*
X101978524Y-149438285D01*
X102010763Y-149379346D01*
X102046902Y-149329548D01*
X102093415Y-149288122D01*
X102156773Y-149254300D01*
X102243450Y-149227313D01*
X102359919Y-149206393D01*
X102512651Y-149190772D01*
X102708121Y-149179682D01*
X102952801Y-149172354D01*
X103253164Y-149168019D01*
X103615682Y-149165910D01*
X104046829Y-149165259D01*
X104553077Y-149165296D01*
G36*
X113566881Y-149789750D02*
G01*
X113555166Y-150414166D01*
X111470250Y-150425148D01*
X109385333Y-150436131D01*
X109385333Y-151492727D01*
X112877833Y-151514833D01*
X112889548Y-152139250D01*
X112901263Y-152763666D01*
X109385333Y-152763666D01*
X109385333Y-155134333D01*
X108115333Y-155134333D01*
X108115345Y-154922666D01*
X108325147Y-154922666D01*
X109129994Y-154922666D01*
X109152500Y-152573166D01*
X112645000Y-152551060D01*
X112645000Y-151748605D01*
X110898750Y-151737552D01*
X109152500Y-151726500D01*
X109152500Y-150202500D01*
X111237416Y-150191517D01*
X113322333Y-150180535D01*
X113322333Y-149377000D01*
X108585721Y-149377000D01*
X108466943Y-149479151D01*
X108348166Y-149581303D01*
X108336657Y-152251985D01*
X108325147Y-154922666D01*
X108115345Y-154922666D01*
X108115491Y-152372083D01*
X108115593Y-151820341D01*
X108115956Y-151346906D01*
X108116763Y-150945418D01*
X108118200Y-150609519D01*
X108120451Y-150332848D01*
X108123701Y-150109046D01*
X108128136Y-149931753D01*
X108133939Y-149794611D01*
X108141296Y-149691259D01*
X108150391Y-149615337D01*
X108161410Y-149560488D01*
X108174537Y-149520349D01*
X108189956Y-149488564D01*
X108199771Y-149471863D01*
X108297252Y-149352178D01*
X108417190Y-149252668D01*
X108421863Y-149249771D01*
X108453179Y-149232204D01*
X108489428Y-149217268D01*
X108537316Y-149204748D01*
X108603549Y-149194431D01*
X108694831Y-149186103D01*
X108817869Y-149179551D01*
X108979368Y-149174562D01*
X109186033Y-149170923D01*
X109444570Y-149168418D01*
X109761686Y-149166836D01*
X110144084Y-149165963D01*
X110598472Y-149165584D01*
X111069215Y-149165491D01*
X113578596Y-149165333D01*
X113566881Y-149789750D01*
G37*
X113566881Y-149789750D02*
X113555166Y-150414166D01*
X111470250Y-150425148D01*
X109385333Y-150436131D01*
X109385333Y-151492727D01*
X112877833Y-151514833D01*
X112889548Y-152139250D01*
X112901263Y-152763666D01*
X109385333Y-152763666D01*
X109385333Y-155134333D01*
X108115333Y-155134333D01*
X108115345Y-154922666D01*
X108325147Y-154922666D01*
X109129994Y-154922666D01*
X109152500Y-152573166D01*
X112645000Y-152551060D01*
X112645000Y-151748605D01*
X110898750Y-151737552D01*
X109152500Y-151726500D01*
X109152500Y-150202500D01*
X111237416Y-150191517D01*
X113322333Y-150180535D01*
X113322333Y-149377000D01*
X108585721Y-149377000D01*
X108466943Y-149479151D01*
X108348166Y-149581303D01*
X108336657Y-152251985D01*
X108325147Y-154922666D01*
X108115345Y-154922666D01*
X108115491Y-152372083D01*
X108115593Y-151820341D01*
X108115956Y-151346906D01*
X108116763Y-150945418D01*
X108118200Y-150609519D01*
X108120451Y-150332848D01*
X108123701Y-150109046D01*
X108128136Y-149931753D01*
X108133939Y-149794611D01*
X108141296Y-149691259D01*
X108150391Y-149615337D01*
X108161410Y-149560488D01*
X108174537Y-149520349D01*
X108189956Y-149488564D01*
X108199771Y-149471863D01*
X108297252Y-149352178D01*
X108417190Y-149252668D01*
X108421863Y-149249771D01*
X108453179Y-149232204D01*
X108489428Y-149217268D01*
X108537316Y-149204748D01*
X108603549Y-149194431D01*
X108694831Y-149186103D01*
X108817869Y-149179551D01*
X108979368Y-149174562D01*
X109186033Y-149170923D01*
X109444570Y-149168418D01*
X109761686Y-149166836D01*
X110144084Y-149165963D01*
X110598472Y-149165584D01*
X111069215Y-149165491D01*
X113578596Y-149165333D01*
X113566881Y-149789750D01*
G36*
X115481333Y-155134333D02*
G01*
X114211333Y-155134333D01*
X114211333Y-149377000D01*
X114423000Y-149377000D01*
X114423000Y-154922666D01*
X115227333Y-154922666D01*
X115227333Y-149377000D01*
X114423000Y-149377000D01*
X114211333Y-149377000D01*
X114211333Y-149165333D01*
X115481333Y-149165333D01*
X115481333Y-155134333D01*
G37*
X115481333Y-155134333D02*
X114211333Y-155134333D01*
X114211333Y-149377000D01*
X114423000Y-149377000D01*
X114423000Y-154922666D01*
X115227333Y-154922666D01*
X115227333Y-149377000D01*
X114423000Y-149377000D01*
X114211333Y-149377000D01*
X114211333Y-149165333D01*
X115481333Y-149165333D01*
X115481333Y-155134333D01*
G36*
X87641800Y-148131965D02*
G01*
X87681528Y-148167427D01*
X87703016Y-148247304D01*
X87710483Y-148389684D01*
X87710666Y-148427043D01*
X87712732Y-148573808D01*
X87726134Y-148660524D01*
X87761679Y-148711804D01*
X87830177Y-148752264D01*
X87859667Y-148766399D01*
X88036702Y-148892432D01*
X88151863Y-149065812D01*
X88194314Y-149266924D01*
X88204740Y-149380986D01*
X88244954Y-149454387D01*
X88336388Y-149521322D01*
X88364045Y-149537723D01*
X88467732Y-149594665D01*
X88524217Y-149609217D01*
X88557922Y-149584139D01*
X88571849Y-149561224D01*
X88710638Y-149392494D01*
X88914136Y-149251868D01*
X89164363Y-149149260D01*
X89412242Y-149097893D01*
X89665879Y-149097533D01*
X89890415Y-149153974D01*
X90071165Y-149260668D01*
X90193445Y-149411065D01*
X90213345Y-149455208D01*
X90230734Y-149610687D01*
X90179566Y-149781013D01*
X90069941Y-149949700D01*
X89911960Y-150100265D01*
X89759839Y-150195440D01*
X89628845Y-150261359D01*
X89696339Y-150474779D01*
X89763833Y-150688200D01*
X90155416Y-150688767D01*
X90547000Y-150689333D01*
X90547000Y-151747666D01*
X89280462Y-151747666D01*
X88958699Y-151748519D01*
X88662465Y-151750933D01*
X88402883Y-151754687D01*
X88191074Y-151759564D01*
X88038160Y-151765343D01*
X87955265Y-151771807D01*
X87945396Y-151773963D01*
X87897194Y-151797170D01*
X87857753Y-151831563D01*
X87826201Y-151885165D01*
X87801667Y-151965999D01*
X87783278Y-152082088D01*
X87770164Y-152241458D01*
X87761451Y-152452130D01*
X87756269Y-152722129D01*
X87753746Y-153059478D01*
X87753010Y-153472200D01*
X87753000Y-153544731D01*
X87753000Y-155049666D01*
X86690980Y-155049666D01*
X86703406Y-153388083D01*
X86706731Y-152967729D01*
X86710127Y-152623289D01*
X86714074Y-152346012D01*
X86719050Y-152127147D01*
X86725534Y-151957942D01*
X86734008Y-151829646D01*
X86744949Y-151733508D01*
X86758837Y-151660776D01*
X86776151Y-151602700D01*
X86797371Y-151550526D01*
X86804972Y-151533849D01*
X86940179Y-151305626D01*
X87117742Y-151098082D01*
X87318375Y-150929256D01*
X87522795Y-150817188D01*
X87596470Y-150793482D01*
X87674034Y-150752882D01*
X87680007Y-150701356D01*
X87914814Y-150701356D01*
X88096901Y-150672239D01*
X88211727Y-150650859D01*
X88285181Y-150631523D01*
X88296125Y-150625986D01*
X88310815Y-150577203D01*
X88327830Y-150474221D01*
X88331781Y-150442388D01*
X88599666Y-150442388D01*
X88602776Y-150565030D01*
X88621107Y-150625214D01*
X88668163Y-150645132D01*
X88724168Y-150647000D01*
X88818789Y-150637340D01*
X88866433Y-150615250D01*
X88873322Y-150555668D01*
X88867269Y-150450245D01*
X88864877Y-150429698D01*
X88848823Y-150376170D01*
X89129968Y-150376170D01*
X89135754Y-150489414D01*
X89138678Y-150509416D01*
X89159779Y-150598726D01*
X89204781Y-150637678D01*
X89301623Y-150646903D01*
X89324998Y-150647000D01*
X89490387Y-150647000D01*
X89404000Y-150477666D01*
X89322199Y-150355562D01*
X89242338Y-150308598D01*
X89236304Y-150308333D01*
X89160416Y-150322131D01*
X89129968Y-150376170D01*
X88848823Y-150376170D01*
X88825843Y-150299556D01*
X88748003Y-150231446D01*
X88669018Y-150205359D01*
X88624032Y-150225945D01*
X88603954Y-150306130D01*
X88599666Y-150442388D01*
X88331781Y-150442388D01*
X88334414Y-150421181D01*
X88344679Y-150306162D01*
X88333392Y-150254928D01*
X88289390Y-150247237D01*
X88242804Y-150255070D01*
X88156911Y-150295023D01*
X88077763Y-150389876D01*
X88022427Y-150488991D01*
X87914814Y-150701356D01*
X87680007Y-150701356D01*
X87681155Y-150691458D01*
X87688611Y-150614092D01*
X87728566Y-150493508D01*
X87773502Y-150394309D01*
X87835134Y-150266957D01*
X87860637Y-150184009D01*
X87853652Y-150115127D01*
X87817821Y-150029971D01*
X87817349Y-150028977D01*
X87767005Y-149939659D01*
X87707446Y-149897697D01*
X87606675Y-149885496D01*
X87555533Y-149885000D01*
X87432178Y-149876743D01*
X87338693Y-149841176D01*
X87240266Y-149762107D01*
X87193776Y-149716737D01*
X87102417Y-149621094D01*
X87053388Y-149545417D01*
X87035367Y-149457690D01*
X87037034Y-149325897D01*
X87039322Y-149279948D01*
X87043777Y-149129084D01*
X87030564Y-149028439D01*
X86988724Y-148943834D01*
X86907297Y-148841088D01*
X86893378Y-148824786D01*
X86785941Y-148670795D01*
X86745668Y-148551673D01*
X86763341Y-148476684D01*
X86829740Y-148455087D01*
X86935648Y-148496146D01*
X87071845Y-148609122D01*
X87089549Y-148627696D01*
X87192203Y-148732046D01*
X87261754Y-148781908D01*
X87318765Y-148788283D01*
X87361416Y-148773133D01*
X87414493Y-148738475D01*
X87443297Y-148681746D01*
X87454932Y-148580006D01*
X87456666Y-148465547D01*
X87470351Y-148273647D01*
X87512353Y-148159466D01*
X87584094Y-148120445D01*
X87641800Y-148131965D01*
G37*
X87641800Y-148131965D02*
X87681528Y-148167427D01*
X87703016Y-148247304D01*
X87710483Y-148389684D01*
X87710666Y-148427043D01*
X87712732Y-148573808D01*
X87726134Y-148660524D01*
X87761679Y-148711804D01*
X87830177Y-148752264D01*
X87859667Y-148766399D01*
X88036702Y-148892432D01*
X88151863Y-149065812D01*
X88194314Y-149266924D01*
X88204740Y-149380986D01*
X88244954Y-149454387D01*
X88336388Y-149521322D01*
X88364045Y-149537723D01*
X88467732Y-149594665D01*
X88524217Y-149609217D01*
X88557922Y-149584139D01*
X88571849Y-149561224D01*
X88710638Y-149392494D01*
X88914136Y-149251868D01*
X89164363Y-149149260D01*
X89412242Y-149097893D01*
X89665879Y-149097533D01*
X89890415Y-149153974D01*
X90071165Y-149260668D01*
X90193445Y-149411065D01*
X90213345Y-149455208D01*
X90230734Y-149610687D01*
X90179566Y-149781013D01*
X90069941Y-149949700D01*
X89911960Y-150100265D01*
X89759839Y-150195440D01*
X89628845Y-150261359D01*
X89696339Y-150474779D01*
X89763833Y-150688200D01*
X90155416Y-150688767D01*
X90547000Y-150689333D01*
X90547000Y-151747666D01*
X89280462Y-151747666D01*
X88958699Y-151748519D01*
X88662465Y-151750933D01*
X88402883Y-151754687D01*
X88191074Y-151759564D01*
X88038160Y-151765343D01*
X87955265Y-151771807D01*
X87945396Y-151773963D01*
X87897194Y-151797170D01*
X87857753Y-151831563D01*
X87826201Y-151885165D01*
X87801667Y-151965999D01*
X87783278Y-152082088D01*
X87770164Y-152241458D01*
X87761451Y-152452130D01*
X87756269Y-152722129D01*
X87753746Y-153059478D01*
X87753010Y-153472200D01*
X87753000Y-153544731D01*
X87753000Y-155049666D01*
X86690980Y-155049666D01*
X86703406Y-153388083D01*
X86706731Y-152967729D01*
X86710127Y-152623289D01*
X86714074Y-152346012D01*
X86719050Y-152127147D01*
X86725534Y-151957942D01*
X86734008Y-151829646D01*
X86744949Y-151733508D01*
X86758837Y-151660776D01*
X86776151Y-151602700D01*
X86797371Y-151550526D01*
X86804972Y-151533849D01*
X86940179Y-151305626D01*
X87117742Y-151098082D01*
X87318375Y-150929256D01*
X87522795Y-150817188D01*
X87596470Y-150793482D01*
X87674034Y-150752882D01*
X87680007Y-150701356D01*
X87914814Y-150701356D01*
X88096901Y-150672239D01*
X88211727Y-150650859D01*
X88285181Y-150631523D01*
X88296125Y-150625986D01*
X88310815Y-150577203D01*
X88327830Y-150474221D01*
X88331781Y-150442388D01*
X88599666Y-150442388D01*
X88602776Y-150565030D01*
X88621107Y-150625214D01*
X88668163Y-150645132D01*
X88724168Y-150647000D01*
X88818789Y-150637340D01*
X88866433Y-150615250D01*
X88873322Y-150555668D01*
X88867269Y-150450245D01*
X88864877Y-150429698D01*
X88848823Y-150376170D01*
X89129968Y-150376170D01*
X89135754Y-150489414D01*
X89138678Y-150509416D01*
X89159779Y-150598726D01*
X89204781Y-150637678D01*
X89301623Y-150646903D01*
X89324998Y-150647000D01*
X89490387Y-150647000D01*
X89404000Y-150477666D01*
X89322199Y-150355562D01*
X89242338Y-150308598D01*
X89236304Y-150308333D01*
X89160416Y-150322131D01*
X89129968Y-150376170D01*
X88848823Y-150376170D01*
X88825843Y-150299556D01*
X88748003Y-150231446D01*
X88669018Y-150205359D01*
X88624032Y-150225945D01*
X88603954Y-150306130D01*
X88599666Y-150442388D01*
X88331781Y-150442388D01*
X88334414Y-150421181D01*
X88344679Y-150306162D01*
X88333392Y-150254928D01*
X88289390Y-150247237D01*
X88242804Y-150255070D01*
X88156911Y-150295023D01*
X88077763Y-150389876D01*
X88022427Y-150488991D01*
X87914814Y-150701356D01*
X87680007Y-150701356D01*
X87681155Y-150691458D01*
X87688611Y-150614092D01*
X87728566Y-150493508D01*
X87773502Y-150394309D01*
X87835134Y-150266957D01*
X87860637Y-150184009D01*
X87853652Y-150115127D01*
X87817821Y-150029971D01*
X87817349Y-150028977D01*
X87767005Y-149939659D01*
X87707446Y-149897697D01*
X87606675Y-149885496D01*
X87555533Y-149885000D01*
X87432178Y-149876743D01*
X87338693Y-149841176D01*
X87240266Y-149762107D01*
X87193776Y-149716737D01*
X87102417Y-149621094D01*
X87053388Y-149545417D01*
X87035367Y-149457690D01*
X87037034Y-149325897D01*
X87039322Y-149279948D01*
X87043777Y-149129084D01*
X87030564Y-149028439D01*
X86988724Y-148943834D01*
X86907297Y-148841088D01*
X86893378Y-148824786D01*
X86785941Y-148670795D01*
X86745668Y-148551673D01*
X86763341Y-148476684D01*
X86829740Y-148455087D01*
X86935648Y-148496146D01*
X87071845Y-148609122D01*
X87089549Y-148627696D01*
X87192203Y-148732046D01*
X87261754Y-148781908D01*
X87318765Y-148788283D01*
X87361416Y-148773133D01*
X87414493Y-148738475D01*
X87443297Y-148681746D01*
X87454932Y-148580006D01*
X87456666Y-148465547D01*
X87470351Y-148273647D01*
X87512353Y-148159466D01*
X87584094Y-148120445D01*
X87641800Y-148131965D01*
G36*
X92198236Y-151948750D02*
G01*
X92199985Y-152347365D01*
X92204927Y-152691853D01*
X92212843Y-152975509D01*
X92223513Y-153191628D01*
X92236718Y-153333506D01*
X92244991Y-153377500D01*
X92336241Y-153567348D01*
X92489395Y-153739389D01*
X92681734Y-153873124D01*
X92873657Y-153944685D01*
X92982373Y-153958855D01*
X93159417Y-153971271D01*
X93388455Y-153981256D01*
X93653157Y-153988134D01*
X93937188Y-153991227D01*
X93999250Y-153991333D01*
X94907333Y-153991333D01*
X94907333Y-150689333D01*
X95965666Y-150689333D01*
X95965666Y-152694457D01*
X95965600Y-153158108D01*
X95965184Y-153544611D01*
X95964094Y-153861487D01*
X95962004Y-154116255D01*
X95958588Y-154316435D01*
X95953523Y-154469546D01*
X95946481Y-154583109D01*
X95937139Y-154664642D01*
X95925171Y-154721665D01*
X95910251Y-154761699D01*
X95892055Y-154792262D01*
X95873892Y-154816254D01*
X95821293Y-154878417D01*
X95765296Y-154928448D01*
X95696592Y-154967618D01*
X95605870Y-154997200D01*
X95483819Y-155018465D01*
X95321131Y-155032686D01*
X95108495Y-155041136D01*
X94836600Y-155045085D01*
X94496138Y-155045806D01*
X94199609Y-155045028D01*
X93867179Y-155042750D01*
X93554855Y-155038541D01*
X93274700Y-155032724D01*
X93038773Y-155025620D01*
X92859136Y-155017552D01*
X92747852Y-155008842D01*
X92727166Y-155005678D01*
X92321531Y-154884585D01*
X91968493Y-154700470D01*
X91672197Y-154457292D01*
X91436787Y-154159013D01*
X91266408Y-153809594D01*
X91187514Y-153534166D01*
X91172741Y-153418414D01*
X91160407Y-153225211D01*
X91150737Y-152961746D01*
X91143954Y-152635205D01*
X91140282Y-152252777D01*
X91139666Y-151999582D01*
X91139666Y-150689333D01*
X92198000Y-150689333D01*
X92198236Y-151948750D01*
G37*
X92198236Y-151948750D02*
X92199985Y-152347365D01*
X92204927Y-152691853D01*
X92212843Y-152975509D01*
X92223513Y-153191628D01*
X92236718Y-153333506D01*
X92244991Y-153377500D01*
X92336241Y-153567348D01*
X92489395Y-153739389D01*
X92681734Y-153873124D01*
X92873657Y-153944685D01*
X92982373Y-153958855D01*
X93159417Y-153971271D01*
X93388455Y-153981256D01*
X93653157Y-153988134D01*
X93937188Y-153991227D01*
X93999250Y-153991333D01*
X94907333Y-153991333D01*
X94907333Y-150689333D01*
X95965666Y-150689333D01*
X95965666Y-152694457D01*
X95965600Y-153158108D01*
X95965184Y-153544611D01*
X95964094Y-153861487D01*
X95962004Y-154116255D01*
X95958588Y-154316435D01*
X95953523Y-154469546D01*
X95946481Y-154583109D01*
X95937139Y-154664642D01*
X95925171Y-154721665D01*
X95910251Y-154761699D01*
X95892055Y-154792262D01*
X95873892Y-154816254D01*
X95821293Y-154878417D01*
X95765296Y-154928448D01*
X95696592Y-154967618D01*
X95605870Y-154997200D01*
X95483819Y-155018465D01*
X95321131Y-155032686D01*
X95108495Y-155041136D01*
X94836600Y-155045085D01*
X94496138Y-155045806D01*
X94199609Y-155045028D01*
X93867179Y-155042750D01*
X93554855Y-155038541D01*
X93274700Y-155032724D01*
X93038773Y-155025620D01*
X92859136Y-155017552D01*
X92747852Y-155008842D01*
X92727166Y-155005678D01*
X92321531Y-154884585D01*
X91968493Y-154700470D01*
X91672197Y-154457292D01*
X91436787Y-154159013D01*
X91266408Y-153809594D01*
X91187514Y-153534166D01*
X91172741Y-153418414D01*
X91160407Y-153225211D01*
X91150737Y-152961746D01*
X91143954Y-152635205D01*
X91140282Y-152252777D01*
X91139666Y-151999582D01*
X91139666Y-150689333D01*
X92198000Y-150689333D01*
X92198236Y-151948750D01*
G36*
X100655386Y-151207916D02*
G01*
X100643500Y-151726500D01*
X99267666Y-151747666D01*
X97891833Y-151768833D01*
X97891833Y-152065166D01*
X98992500Y-152086333D01*
X99326118Y-152092928D01*
X99586756Y-152099132D01*
X99786084Y-152106147D01*
X99935775Y-152115180D01*
X100047500Y-152127432D01*
X100132929Y-152144108D01*
X100203735Y-152166413D01*
X100271588Y-152195549D01*
X100331272Y-152224431D01*
X100599462Y-152398704D01*
X100830323Y-152631859D01*
X101003788Y-152902162D01*
X101046115Y-152998641D01*
X101124626Y-153296929D01*
X101148411Y-153623005D01*
X101116727Y-153942092D01*
X101070029Y-154117915D01*
X100952753Y-154348773D01*
X100772259Y-154571166D01*
X100549124Y-154764512D01*
X100303924Y-154908229D01*
X100262187Y-154925979D01*
X100194646Y-154952262D01*
X100130004Y-154973666D01*
X100058928Y-154990778D01*
X99972089Y-155004183D01*
X99860154Y-155014470D01*
X99713792Y-155022224D01*
X99523673Y-155028032D01*
X99280464Y-155032480D01*
X98974836Y-155036156D01*
X98597456Y-155039645D01*
X98431583Y-155041059D01*
X96854666Y-155054390D01*
X96854666Y-153991333D01*
X98287682Y-153991333D01*
X98760171Y-153989810D01*
X99148576Y-153985232D01*
X99453426Y-153977581D01*
X99675248Y-153966842D01*
X99814571Y-153952998D01*
X99858569Y-153943271D01*
X99994248Y-153855304D01*
X100073438Y-153714692D01*
X100089440Y-153537270D01*
X100071659Y-153439734D01*
X100044534Y-153353738D01*
X100008355Y-153286267D01*
X99953361Y-153235083D01*
X99869789Y-153197949D01*
X99747879Y-153172627D01*
X99577869Y-153156878D01*
X99349997Y-153148466D01*
X99054503Y-153145152D01*
X98784523Y-153144666D01*
X98412625Y-153142813D01*
X98113778Y-153135596D01*
X97876414Y-153120526D01*
X97688966Y-153095116D01*
X97539867Y-153056879D01*
X97417549Y-153003327D01*
X97310446Y-152931972D01*
X97206989Y-152840326D01*
X97162464Y-152795821D01*
X96983112Y-152576636D01*
X96872327Y-152346541D01*
X96820512Y-152081356D01*
X96813676Y-151917000D01*
X96842107Y-151606210D01*
X96933000Y-151343657D01*
X97093093Y-151113832D01*
X97214579Y-150994440D01*
X97305077Y-150917841D01*
X97391840Y-150855240D01*
X97484285Y-150805229D01*
X97591831Y-150766400D01*
X97723896Y-150737346D01*
X97889900Y-150716658D01*
X98099261Y-150702927D01*
X98361396Y-150694747D01*
X98685726Y-150690709D01*
X99081668Y-150689405D01*
X99255486Y-150689333D01*
X100667272Y-150689333D01*
X100655386Y-151207916D01*
G37*
X100655386Y-151207916D02*
X100643500Y-151726500D01*
X99267666Y-151747666D01*
X97891833Y-151768833D01*
X97891833Y-152065166D01*
X98992500Y-152086333D01*
X99326118Y-152092928D01*
X99586756Y-152099132D01*
X99786084Y-152106147D01*
X99935775Y-152115180D01*
X100047500Y-152127432D01*
X100132929Y-152144108D01*
X100203735Y-152166413D01*
X100271588Y-152195549D01*
X100331272Y-152224431D01*
X100599462Y-152398704D01*
X100830323Y-152631859D01*
X101003788Y-152902162D01*
X101046115Y-152998641D01*
X101124626Y-153296929D01*
X101148411Y-153623005D01*
X101116727Y-153942092D01*
X101070029Y-154117915D01*
X100952753Y-154348773D01*
X100772259Y-154571166D01*
X100549124Y-154764512D01*
X100303924Y-154908229D01*
X100262187Y-154925979D01*
X100194646Y-154952262D01*
X100130004Y-154973666D01*
X100058928Y-154990778D01*
X99972089Y-155004183D01*
X99860154Y-155014470D01*
X99713792Y-155022224D01*
X99523673Y-155028032D01*
X99280464Y-155032480D01*
X98974836Y-155036156D01*
X98597456Y-155039645D01*
X98431583Y-155041059D01*
X96854666Y-155054390D01*
X96854666Y-153991333D01*
X98287682Y-153991333D01*
X98760171Y-153989810D01*
X99148576Y-153985232D01*
X99453426Y-153977581D01*
X99675248Y-153966842D01*
X99814571Y-153952998D01*
X99858569Y-153943271D01*
X99994248Y-153855304D01*
X100073438Y-153714692D01*
X100089440Y-153537270D01*
X100071659Y-153439734D01*
X100044534Y-153353738D01*
X100008355Y-153286267D01*
X99953361Y-153235083D01*
X99869789Y-153197949D01*
X99747879Y-153172627D01*
X99577869Y-153156878D01*
X99349997Y-153148466D01*
X99054503Y-153145152D01*
X98784523Y-153144666D01*
X98412625Y-153142813D01*
X98113778Y-153135596D01*
X97876414Y-153120526D01*
X97688966Y-153095116D01*
X97539867Y-153056879D01*
X97417549Y-153003327D01*
X97310446Y-152931972D01*
X97206989Y-152840326D01*
X97162464Y-152795821D01*
X96983112Y-152576636D01*
X96872327Y-152346541D01*
X96820512Y-152081356D01*
X96813676Y-151917000D01*
X96842107Y-151606210D01*
X96933000Y-151343657D01*
X97093093Y-151113832D01*
X97214579Y-150994440D01*
X97305077Y-150917841D01*
X97391840Y-150855240D01*
X97484285Y-150805229D01*
X97591831Y-150766400D01*
X97723896Y-150737346D01*
X97889900Y-150716658D01*
X98099261Y-150702927D01*
X98361396Y-150694747D01*
X98685726Y-150690709D01*
X99081668Y-150689405D01*
X99255486Y-150689333D01*
X100667272Y-150689333D01*
X100655386Y-151207916D01*
D16*
X93395000Y-134480000D02*
X93395000Y-133150000D01*
X94725000Y-134480000D02*
X93395000Y-134480000D01*
X95995000Y-134480000D02*
X95995000Y-131820000D01*
X95995000Y-131820000D02*
X101135000Y-131820000D01*
X95995000Y-134480000D02*
X101135000Y-134480000D01*
X101135000Y-134480000D02*
X101135000Y-131820000D01*
X118690000Y-138837221D02*
X118690000Y-139162779D01*
X119710000Y-138837221D02*
X119710000Y-139162779D01*
X128360000Y-147558578D02*
X128360000Y-147041422D01*
X126940000Y-147558578D02*
X126940000Y-147041422D01*
X133348000Y-164506600D02*
X134368000Y-164506600D01*
X133348000Y-169706600D02*
X134368000Y-169706600D01*
X130808000Y-164506600D02*
X131828000Y-164506600D01*
X130808000Y-169706600D02*
X131828000Y-169706600D01*
X128268000Y-164506600D02*
X129288000Y-164506600D01*
X128268000Y-169706600D02*
X129288000Y-169706600D01*
X125728000Y-164506600D02*
X126748000Y-164506600D01*
X125728000Y-169706600D02*
X126748000Y-169706600D01*
X135888000Y-164506600D02*
X136458000Y-164506600D01*
X135888000Y-169706600D02*
X136458000Y-169706600D01*
X123638000Y-164506600D02*
X124208000Y-164506600D01*
X123638000Y-169706600D02*
X124208000Y-169706600D01*
X124208000Y-171146600D02*
X124208000Y-169706600D01*
X136458000Y-169706600D02*
X136458000Y-164506600D01*
X123638000Y-169706600D02*
X123638000Y-164506600D01*
X137111200Y-136661200D02*
X136091200Y-136661200D01*
X137111200Y-131461200D02*
X136091200Y-131461200D01*
X139651200Y-136661200D02*
X138631200Y-136661200D01*
X139651200Y-131461200D02*
X138631200Y-131461200D01*
X142191200Y-136661200D02*
X141171200Y-136661200D01*
X142191200Y-131461200D02*
X141171200Y-131461200D01*
X144731200Y-136661200D02*
X143711200Y-136661200D01*
X144731200Y-131461200D02*
X143711200Y-131461200D01*
X134571200Y-136661200D02*
X134001200Y-136661200D01*
X134571200Y-131461200D02*
X134001200Y-131461200D01*
X146821200Y-136661200D02*
X146251200Y-136661200D01*
X146821200Y-131461200D02*
X146251200Y-131461200D01*
X146251200Y-130021200D02*
X146251200Y-131461200D01*
X134001200Y-131461200D02*
X134001200Y-136661200D01*
X146821200Y-131461200D02*
X146821200Y-136661200D01*
X88400000Y-139260000D02*
X91850000Y-139260000D01*
X88400000Y-139260000D02*
X86450000Y-139260000D01*
X88400000Y-134140000D02*
X90350000Y-134140000D01*
X88400000Y-134140000D02*
X86450000Y-134140000D01*
X121220000Y-154760000D02*
X121220000Y-153300000D01*
X124380000Y-154760000D02*
X124380000Y-152600000D01*
X124380000Y-154760000D02*
X123450000Y-154760000D01*
X121220000Y-154760000D02*
X122150000Y-154760000D01*
X124210000Y-148518000D02*
X124210000Y-146088000D01*
X121140000Y-146758000D02*
X121140000Y-148518000D01*
D11*
X120500000Y-137325000D02*
X120500000Y-138675000D01*
X125625000Y-137325000D02*
X125625000Y-132675000D01*
X120375000Y-137325000D02*
X120375000Y-132675000D01*
X125625000Y-137325000D02*
X125400000Y-137325000D01*
X125625000Y-132675000D02*
X125400000Y-132675000D01*
X120375000Y-132675000D02*
X120600000Y-132675000D01*
X120375000Y-137325000D02*
X120500000Y-137325000D01*
D16*
X94340000Y-135350000D02*
X100460000Y-135350000D01*
X100460000Y-135350000D02*
X100460000Y-139050000D01*
X100460000Y-139050000D02*
X94340000Y-139050000D01*
X94340000Y-139050000D02*
X94340000Y-135350000D01*
X130740000Y-153487221D02*
X130740000Y-153812779D01*
X131760000Y-153487221D02*
X131760000Y-153812779D01*
X132240000Y-153487221D02*
X132240000Y-153812779D01*
X133260000Y-153487221D02*
X133260000Y-153812779D01*
X133740000Y-153487221D02*
X133740000Y-153812779D01*
X134760000Y-153487221D02*
X134760000Y-153812779D01*
X111562779Y-145810000D02*
X111237221Y-145810000D01*
X111562779Y-146830000D02*
X111237221Y-146830000D01*
X111562779Y-144300000D02*
X111237221Y-144300000D01*
X111562779Y-145320000D02*
X111237221Y-145320000D01*
X111562779Y-142790000D02*
X111237221Y-142790000D01*
X111562779Y-143810000D02*
X111237221Y-143810000D01*
X130837221Y-132310000D02*
X131162779Y-132310000D01*
X130837221Y-131290000D02*
X131162779Y-131290000D01*
X131162779Y-134490000D02*
X130837221Y-134490000D01*
X131162779Y-135510000D02*
X130837221Y-135510000D01*
X131162779Y-136090000D02*
X130837221Y-136090000D01*
X131162779Y-137110000D02*
X130837221Y-137110000D01*
X130815621Y-138693400D02*
X131141179Y-138693400D01*
X130815621Y-137673400D02*
X131141179Y-137673400D01*
X118560000Y-148700279D02*
X118560000Y-148374721D01*
X117540000Y-148700279D02*
X117540000Y-148374721D01*
X128160000Y-147562779D02*
X128160000Y-147237221D01*
X127140000Y-147562779D02*
X127140000Y-147237221D01*
X118624721Y-151310000D02*
X118950279Y-151310000D01*
X118624721Y-150290000D02*
X118950279Y-150290000D01*
X119710000Y-142562779D02*
X119710000Y-142237221D01*
X118690000Y-142562779D02*
X118690000Y-142237221D01*
X127710000Y-142562779D02*
X127710000Y-142237221D01*
X126690000Y-142562779D02*
X126690000Y-142237221D01*
X126387221Y-151310000D02*
X126712779Y-151310000D01*
X126387221Y-150290000D02*
X126712779Y-150290000D01*
X121310000Y-142575279D02*
X121310000Y-142249721D01*
X120290000Y-142575279D02*
X120290000Y-142249721D01*
X126110000Y-142562779D02*
X126110000Y-142237221D01*
X125090000Y-142562779D02*
X125090000Y-142237221D01*
X124510000Y-142562779D02*
X124510000Y-142237221D01*
X123490000Y-142562779D02*
X123490000Y-142237221D01*
X119710000Y-135175279D02*
X119710000Y-134849721D01*
X118690000Y-135175279D02*
X118690000Y-134849721D01*
X126290000Y-138837221D02*
X126290000Y-139162779D01*
X127310000Y-138837221D02*
X127310000Y-139162779D01*
X127310000Y-135150279D02*
X127310000Y-134824721D01*
X126290000Y-135150279D02*
X126290000Y-134824721D01*
X127890000Y-134824721D02*
X127890000Y-135150279D01*
X128910000Y-134824721D02*
X128910000Y-135150279D01*
X120490000Y-128037221D02*
X120490000Y-128362779D01*
X121510000Y-128037221D02*
X121510000Y-128362779D01*
X122090000Y-128037221D02*
X122090000Y-128362779D01*
X123110000Y-128037221D02*
X123110000Y-128362779D01*
X125490000Y-128037221D02*
X125490000Y-128362779D01*
X126510000Y-128037221D02*
X126510000Y-128362779D01*
X124910000Y-128362779D02*
X124910000Y-128037221D01*
X123890000Y-128362779D02*
X123890000Y-128037221D01*
X137580000Y-148945000D02*
X137580000Y-150045000D01*
X137850000Y-148945000D02*
X137580000Y-148945000D01*
X137850000Y-147445000D02*
X137850000Y-148945000D01*
X131220000Y-148945000D02*
X131220000Y-151775000D01*
X130950000Y-148945000D02*
X131220000Y-148945000D01*
X130950000Y-147445000D02*
X130950000Y-148945000D01*
X95330000Y-130270000D02*
X94695000Y-130270000D01*
X94695000Y-130270000D02*
X94695000Y-129635000D01*
X115885000Y-145585000D02*
X113600000Y-145585000D01*
X115885000Y-147055000D02*
X115885000Y-145585000D01*
X113600000Y-147055000D02*
X115885000Y-147055000D01*
X115885000Y-144075000D02*
X113600000Y-144075000D01*
X115885000Y-145545000D02*
X115885000Y-144075000D01*
X113600000Y-145545000D02*
X115885000Y-145545000D01*
X136565000Y-152165000D02*
X136565000Y-154450000D01*
X138035000Y-152165000D02*
X136565000Y-152165000D01*
X138035000Y-154450000D02*
X138035000Y-152165000D01*
X87960000Y-141092779D02*
X87960000Y-140767221D01*
X86940000Y-141092779D02*
X86940000Y-140767221D01*
X88630000Y-140767221D02*
X88630000Y-141092779D01*
X89650000Y-140767221D02*
X89650000Y-141092779D01*
X124890000Y-153637221D02*
X124890000Y-153962779D01*
X125910000Y-153637221D02*
X125910000Y-153962779D01*
X114637221Y-131510000D02*
X114962779Y-131510000D01*
X114637221Y-130490000D02*
X114962779Y-130490000D01*
X114562779Y-142790000D02*
X114237221Y-142790000D01*
X114562779Y-143810000D02*
X114237221Y-143810000D01*
X102937221Y-131510000D02*
X103262779Y-131510000D01*
X102937221Y-130490000D02*
X103262779Y-130490000D01*
X118560000Y-145662779D02*
X118560000Y-145337221D01*
X117540000Y-145662779D02*
X117540000Y-145337221D01*
X117975000Y-153631221D02*
X117975000Y-153956779D01*
X118995000Y-153631221D02*
X118995000Y-153956779D01*
X119702200Y-153631321D02*
X119702200Y-153956879D01*
X120722200Y-153631321D02*
X120722200Y-153956879D01*
X122912779Y-150290000D02*
X122587221Y-150290000D01*
X122912779Y-151310000D02*
X122587221Y-151310000D01*
X128910000Y-139162779D02*
X128910000Y-138837221D01*
X127890000Y-139162779D02*
X127890000Y-138837221D01*
X118890000Y-128037221D02*
X118890000Y-128362779D01*
X119910000Y-128037221D02*
X119910000Y-128362779D01*
X122910000Y-142562779D02*
X122910000Y-142237221D01*
X121890000Y-142562779D02*
X121890000Y-142237221D01*
X131162779Y-132890000D02*
X130837221Y-132890000D01*
X131162779Y-133910000D02*
X130837221Y-133910000D01*
X127090000Y-128037221D02*
X127090000Y-128362779D01*
X128110000Y-128037221D02*
X128110000Y-128362779D01*
D10*
X135428571Y-155728571D02*
X135404761Y-155752380D01*
X135333333Y-155776190D01*
X135285714Y-155776190D01*
X135214285Y-155752380D01*
X135166666Y-155704761D01*
X135142857Y-155657142D01*
X135119047Y-155561904D01*
X135119047Y-155490476D01*
X135142857Y-155395238D01*
X135166666Y-155347619D01*
X135214285Y-155300000D01*
X135285714Y-155276190D01*
X135333333Y-155276190D01*
X135404761Y-155300000D01*
X135428571Y-155323809D01*
X135619047Y-155323809D02*
X135642857Y-155300000D01*
X135690476Y-155276190D01*
X135809523Y-155276190D01*
X135857142Y-155300000D01*
X135880952Y-155323809D01*
X135904761Y-155371428D01*
X135904761Y-155419047D01*
X135880952Y-155490476D01*
X135595238Y-155776190D01*
X135904761Y-155776190D01*
X136071428Y-155276190D02*
X136404761Y-155276190D01*
X136190476Y-155776190D01*
X127016666Y-155878571D02*
X126992857Y-155902380D01*
X126921428Y-155926190D01*
X126873809Y-155926190D01*
X126802380Y-155902380D01*
X126754761Y-155854761D01*
X126730952Y-155807142D01*
X126707142Y-155711904D01*
X126707142Y-155640476D01*
X126730952Y-155545238D01*
X126754761Y-155497619D01*
X126802380Y-155450000D01*
X126873809Y-155426190D01*
X126921428Y-155426190D01*
X126992857Y-155450000D01*
X127016666Y-155473809D01*
X127302380Y-155640476D02*
X127254761Y-155616666D01*
X127230952Y-155592857D01*
X127207142Y-155545238D01*
X127207142Y-155521428D01*
X127230952Y-155473809D01*
X127254761Y-155450000D01*
X127302380Y-155426190D01*
X127397619Y-155426190D01*
X127445238Y-155450000D01*
X127469047Y-155473809D01*
X127492857Y-155521428D01*
X127492857Y-155545238D01*
X127469047Y-155592857D01*
X127445238Y-155616666D01*
X127397619Y-155640476D01*
X127302380Y-155640476D01*
X127254761Y-155664285D01*
X127230952Y-155688095D01*
X127207142Y-155735714D01*
X127207142Y-155830952D01*
X127230952Y-155878571D01*
X127254761Y-155902380D01*
X127302380Y-155926190D01*
X127397619Y-155926190D01*
X127445238Y-155902380D01*
X127469047Y-155878571D01*
X127492857Y-155830952D01*
X127492857Y-155735714D01*
X127469047Y-155688095D01*
X127445238Y-155664285D01*
X127397619Y-155640476D01*
D11*
X153702380Y-149309523D02*
X154416666Y-149309523D01*
X154559523Y-149357142D01*
X154654761Y-149452380D01*
X154702380Y-149595238D01*
X154702380Y-149690476D01*
X154702380Y-148309523D02*
X154702380Y-148880952D01*
X154702380Y-148595238D02*
X153702380Y-148595238D01*
X153845238Y-148690476D01*
X153940476Y-148785714D01*
X153988095Y-148880952D01*
X153702380Y-147690476D02*
X153702380Y-147595238D01*
X153750000Y-147500000D01*
X153797619Y-147452380D01*
X153892857Y-147404761D01*
X154083333Y-147357142D01*
X154321428Y-147357142D01*
X154511904Y-147404761D01*
X154607142Y-147452380D01*
X154654761Y-147500000D01*
X154702380Y-147595238D01*
X154702380Y-147690476D01*
X154654761Y-147785714D01*
X154607142Y-147833333D01*
X154511904Y-147880952D01*
X154321428Y-147928571D01*
X154083333Y-147928571D01*
X153892857Y-147880952D01*
X153797619Y-147833333D01*
X153750000Y-147785714D01*
X153702380Y-147690476D01*
X133538095Y-157952380D02*
X133538095Y-158761904D01*
X133585714Y-158857142D01*
X133633333Y-158904761D01*
X133728571Y-158952380D01*
X133919047Y-158952380D01*
X134014285Y-158904761D01*
X134061904Y-158857142D01*
X134109523Y-158761904D01*
X134109523Y-157952380D01*
X135014285Y-157952380D02*
X134823809Y-157952380D01*
X134728571Y-158000000D01*
X134680952Y-158047619D01*
X134585714Y-158190476D01*
X134538095Y-158380952D01*
X134538095Y-158761904D01*
X134585714Y-158857142D01*
X134633333Y-158904761D01*
X134728571Y-158952380D01*
X134919047Y-158952380D01*
X135014285Y-158904761D01*
X135061904Y-158857142D01*
X135109523Y-158761904D01*
X135109523Y-158523809D01*
X135061904Y-158428571D01*
X135014285Y-158380952D01*
X134919047Y-158333333D01*
X134728571Y-158333333D01*
X134633333Y-158380952D01*
X134585714Y-158428571D01*
X134538095Y-158523809D01*
X153702380Y-149309523D02*
X154416666Y-149309523D01*
X154559523Y-149357142D01*
X154654761Y-149452380D01*
X154702380Y-149595238D01*
X154702380Y-149690476D01*
X154702380Y-148309523D02*
X154702380Y-148880952D01*
X154702380Y-148595238D02*
X153702380Y-148595238D01*
X153845238Y-148690476D01*
X153940476Y-148785714D01*
X153988095Y-148880952D01*
X153702380Y-147690476D02*
X153702380Y-147595238D01*
X153750000Y-147500000D01*
X153797619Y-147452380D01*
X153892857Y-147404761D01*
X154083333Y-147357142D01*
X154321428Y-147357142D01*
X154511904Y-147404761D01*
X154607142Y-147452380D01*
X154654761Y-147500000D01*
X154702380Y-147595238D01*
X154702380Y-147690476D01*
X154654761Y-147785714D01*
X154607142Y-147833333D01*
X154511904Y-147880952D01*
X154321428Y-147928571D01*
X154083333Y-147928571D01*
X153892857Y-147880952D01*
X153797619Y-147833333D01*
X153750000Y-147785714D01*
X153702380Y-147690476D01*
X154138571Y-134699333D02*
X154138571Y-135032666D01*
X154662380Y-135032666D02*
X153662380Y-135032666D01*
X153662380Y-134556476D01*
X154662380Y-133651714D02*
X154662380Y-134223142D01*
X154662380Y-133937428D02*
X153662380Y-133937428D01*
X153805238Y-134032666D01*
X153900476Y-134127904D01*
X153948095Y-134223142D01*
D21*
X99774928Y-162474261D02*
X99774928Y-162927833D01*
X99744690Y-163018547D01*
X99684214Y-163079023D01*
X99593500Y-163109261D01*
X99533023Y-163109261D01*
X100409928Y-163109261D02*
X100047071Y-163109261D01*
X100228500Y-163109261D02*
X100228500Y-162474261D01*
X100168023Y-162564976D01*
X100107547Y-162625452D01*
X100047071Y-162655690D01*
X100984452Y-162474261D02*
X100682071Y-162474261D01*
X100651833Y-162776642D01*
X100682071Y-162746404D01*
X100742547Y-162716166D01*
X100893738Y-162716166D01*
X100954214Y-162746404D01*
X100984452Y-162776642D01*
X101014690Y-162837119D01*
X101014690Y-162988309D01*
X100984452Y-163048785D01*
X100954214Y-163079023D01*
X100893738Y-163109261D01*
X100742547Y-163109261D01*
X100682071Y-163079023D01*
X100651833Y-163048785D01*
X101226357Y-163109261D02*
X101558976Y-162685928D01*
X101226357Y-162685928D02*
X101558976Y-163109261D01*
D22*
X16134428Y-129098857D02*
X17295571Y-129098857D01*
X16715000Y-129679428D02*
X16715000Y-128518285D01*
X16823857Y-137190571D02*
X16823857Y-136029428D01*
D10*
X91178571Y-132721428D02*
X91202380Y-132745238D01*
X91226190Y-132816666D01*
X91226190Y-132864285D01*
X91202380Y-132935714D01*
X91154761Y-132983333D01*
X91107142Y-133007142D01*
X91011904Y-133030952D01*
X90940476Y-133030952D01*
X90845238Y-133007142D01*
X90797619Y-132983333D01*
X90750000Y-132935714D01*
X90726190Y-132864285D01*
X90726190Y-132816666D01*
X90750000Y-132745238D01*
X90773809Y-132721428D01*
X90773809Y-132530952D02*
X90750000Y-132507142D01*
X90726190Y-132459523D01*
X90726190Y-132340476D01*
X90750000Y-132292857D01*
X90773809Y-132269047D01*
X90821428Y-132245238D01*
X90869047Y-132245238D01*
X90940476Y-132269047D01*
X91226190Y-132554761D01*
X91226190Y-132245238D01*
X91226190Y-131769047D02*
X91226190Y-132054761D01*
X91226190Y-131911904D02*
X90726190Y-131911904D01*
X90797619Y-131959523D01*
X90845238Y-132007142D01*
X90869047Y-132054761D01*
D11*
X108238095Y-135952380D02*
X108238095Y-136761904D01*
X108285714Y-136857142D01*
X108333333Y-136904761D01*
X108428571Y-136952380D01*
X108619047Y-136952380D01*
X108714285Y-136904761D01*
X108761904Y-136857142D01*
X108809523Y-136761904D01*
X108809523Y-135952380D01*
X109809523Y-136952380D02*
X109238095Y-136952380D01*
X109523809Y-136952380D02*
X109523809Y-135952380D01*
X109428571Y-136095238D01*
X109333333Y-136190476D01*
X109238095Y-136238095D01*
X147490476Y-127652380D02*
X147490476Y-128366666D01*
X147442857Y-128509523D01*
X147347619Y-128604761D01*
X147204761Y-128652380D01*
X147109523Y-128652380D01*
X147919047Y-127747619D02*
X147966666Y-127700000D01*
X148061904Y-127652380D01*
X148300000Y-127652380D01*
X148395238Y-127700000D01*
X148442857Y-127747619D01*
X148490476Y-127842857D01*
X148490476Y-127938095D01*
X148442857Y-128080952D01*
X147871428Y-128652380D01*
X148490476Y-128652380D01*
X149442857Y-128652380D02*
X148871428Y-128652380D01*
X149157142Y-128652380D02*
X149157142Y-127652380D01*
X149061904Y-127795238D01*
X148966666Y-127890476D01*
X148871428Y-127938095D01*
X41222380Y-131489523D02*
X41936666Y-131489523D01*
X42079523Y-131537142D01*
X42174761Y-131632380D01*
X42222380Y-131775238D01*
X42222380Y-131870476D01*
X41555714Y-130584761D02*
X42222380Y-130584761D01*
X41174761Y-130822857D02*
X41889047Y-131060952D01*
X41889047Y-130441904D01*
X41222380Y-129870476D02*
X41222380Y-129775238D01*
X41270000Y-129680000D01*
X41317619Y-129632380D01*
X41412857Y-129584761D01*
X41603333Y-129537142D01*
X41841428Y-129537142D01*
X42031904Y-129584761D01*
X42127142Y-129632380D01*
X42174761Y-129680000D01*
X42222380Y-129775238D01*
X42222380Y-129870476D01*
X42174761Y-129965714D01*
X42127142Y-130013333D01*
X42031904Y-130060952D01*
X41841428Y-130108571D01*
X41603333Y-130108571D01*
X41412857Y-130060952D01*
X41317619Y-130013333D01*
X41270000Y-129965714D01*
X41222380Y-129870476D01*
D10*
X83098571Y-137001428D02*
X83122380Y-137025238D01*
X83146190Y-137096666D01*
X83146190Y-137144285D01*
X83122380Y-137215714D01*
X83074761Y-137263333D01*
X83027142Y-137287142D01*
X82931904Y-137310952D01*
X82860476Y-137310952D01*
X82765238Y-137287142D01*
X82717619Y-137263333D01*
X82670000Y-137215714D01*
X82646190Y-137144285D01*
X82646190Y-137096666D01*
X82670000Y-137025238D01*
X82693809Y-137001428D01*
X82693809Y-136810952D02*
X82670000Y-136787142D01*
X82646190Y-136739523D01*
X82646190Y-136620476D01*
X82670000Y-136572857D01*
X82693809Y-136549047D01*
X82741428Y-136525238D01*
X82789047Y-136525238D01*
X82860476Y-136549047D01*
X83146190Y-136834761D01*
X83146190Y-136525238D01*
X82646190Y-136096666D02*
X82646190Y-136191904D01*
X82670000Y-136239523D01*
X82693809Y-136263333D01*
X82765238Y-136310952D01*
X82860476Y-136334761D01*
X83050952Y-136334761D01*
X83098571Y-136310952D01*
X83122380Y-136287142D01*
X83146190Y-136239523D01*
X83146190Y-136144285D01*
X83122380Y-136096666D01*
X83098571Y-136072857D01*
X83050952Y-136049047D01*
X82931904Y-136049047D01*
X82884285Y-136072857D01*
X82860476Y-136096666D01*
X82836666Y-136144285D01*
X82836666Y-136239523D01*
X82860476Y-136287142D01*
X82884285Y-136310952D01*
X82931904Y-136334761D01*
X139928571Y-158121428D02*
X139952380Y-158145238D01*
X139976190Y-158216666D01*
X139976190Y-158264285D01*
X139952380Y-158335714D01*
X139904761Y-158383333D01*
X139857142Y-158407142D01*
X139761904Y-158430952D01*
X139690476Y-158430952D01*
X139595238Y-158407142D01*
X139547619Y-158383333D01*
X139500000Y-158335714D01*
X139476190Y-158264285D01*
X139476190Y-158216666D01*
X139500000Y-158145238D01*
X139523809Y-158121428D01*
X139523809Y-157930952D02*
X139500000Y-157907142D01*
X139476190Y-157859523D01*
X139476190Y-157740476D01*
X139500000Y-157692857D01*
X139523809Y-157669047D01*
X139571428Y-157645238D01*
X139619047Y-157645238D01*
X139690476Y-157669047D01*
X139976190Y-157954761D01*
X139976190Y-157645238D01*
X139476190Y-157192857D02*
X139476190Y-157430952D01*
X139714285Y-157454761D01*
X139690476Y-157430952D01*
X139666666Y-157383333D01*
X139666666Y-157264285D01*
X139690476Y-157216666D01*
X139714285Y-157192857D01*
X139761904Y-157169047D01*
X139880952Y-157169047D01*
X139928571Y-157192857D01*
X139952380Y-157216666D01*
X139976190Y-157264285D01*
X139976190Y-157383333D01*
X139952380Y-157430952D01*
X139928571Y-157454761D01*
D11*
X107766790Y-124169514D02*
X107957266Y-124836180D01*
X108147742Y-124359990D01*
X108338219Y-124836180D01*
X108528695Y-124169514D01*
X108909647Y-124836180D02*
X108909647Y-124169514D01*
X108909647Y-123836180D02*
X108862028Y-123883800D01*
X108909647Y-123931419D01*
X108957266Y-123883800D01*
X108909647Y-123836180D01*
X108909647Y-123931419D01*
X109814409Y-124836180D02*
X109814409Y-123836180D01*
X109814409Y-124788561D02*
X109719171Y-124836180D01*
X109528695Y-124836180D01*
X109433457Y-124788561D01*
X109385838Y-124740942D01*
X109338219Y-124645704D01*
X109338219Y-124359990D01*
X109385838Y-124264752D01*
X109433457Y-124217133D01*
X109528695Y-124169514D01*
X109719171Y-124169514D01*
X109814409Y-124217133D01*
X110671552Y-124788561D02*
X110576314Y-124836180D01*
X110385838Y-124836180D01*
X110290600Y-124788561D01*
X110242980Y-124693323D01*
X110242980Y-124312371D01*
X110290600Y-124217133D01*
X110385838Y-124169514D01*
X110576314Y-124169514D01*
X110671552Y-124217133D01*
X110719171Y-124312371D01*
X110719171Y-124407609D01*
X110242980Y-124502847D01*
X111147742Y-124836180D02*
X111147742Y-123836180D01*
X111147742Y-124217133D02*
X111242980Y-124169514D01*
X111433457Y-124169514D01*
X111528695Y-124217133D01*
X111576314Y-124264752D01*
X111623933Y-124359990D01*
X111623933Y-124645704D01*
X111576314Y-124740942D01*
X111528695Y-124788561D01*
X111433457Y-124836180D01*
X111242980Y-124836180D01*
X111147742Y-124788561D01*
X112481076Y-124836180D02*
X112481076Y-124312371D01*
X112433457Y-124217133D01*
X112338219Y-124169514D01*
X112147742Y-124169514D01*
X112052504Y-124217133D01*
X112481076Y-124788561D02*
X112385838Y-124836180D01*
X112147742Y-124836180D01*
X112052504Y-124788561D01*
X112004885Y-124693323D01*
X112004885Y-124598085D01*
X112052504Y-124502847D01*
X112147742Y-124455228D01*
X112385838Y-124455228D01*
X112481076Y-124407609D01*
X112957266Y-124169514D02*
X112957266Y-124836180D01*
X112957266Y-124264752D02*
X113004885Y-124217133D01*
X113100123Y-124169514D01*
X113242980Y-124169514D01*
X113338219Y-124217133D01*
X113385838Y-124312371D01*
X113385838Y-124836180D01*
X114290600Y-124836180D02*
X114290600Y-123836180D01*
X114290600Y-124788561D02*
X114195361Y-124836180D01*
X114004885Y-124836180D01*
X113909647Y-124788561D01*
X113862028Y-124740942D01*
X113814409Y-124645704D01*
X113814409Y-124359990D01*
X113862028Y-124264752D01*
X113909647Y-124217133D01*
X114004885Y-124169514D01*
X114195361Y-124169514D01*
X114290600Y-124217133D01*
X114528695Y-124931419D02*
X115290600Y-124931419D01*
X115528695Y-124836180D02*
X115528695Y-123836180D01*
X115862028Y-124550466D01*
X116195361Y-123836180D01*
X116195361Y-124836180D01*
X117242980Y-124836180D02*
X116909647Y-124359990D01*
X116671552Y-124836180D02*
X116671552Y-123836180D01*
X117052504Y-123836180D01*
X117147742Y-123883800D01*
X117195361Y-123931419D01*
X117242980Y-124026657D01*
X117242980Y-124169514D01*
X117195361Y-124264752D01*
X117147742Y-124312371D01*
X117052504Y-124359990D01*
X116671552Y-124359990D01*
X117671552Y-124312371D02*
X118004885Y-124312371D01*
X118147742Y-124836180D02*
X117671552Y-124836180D01*
X117671552Y-123836180D01*
X118147742Y-123836180D01*
X118338219Y-124931419D02*
X119100123Y-124931419D01*
X119909647Y-124836180D02*
X119576314Y-124359990D01*
X119338219Y-124836180D02*
X119338219Y-123836180D01*
X119719171Y-123836180D01*
X119814409Y-123883800D01*
X119862028Y-123931419D01*
X119909647Y-124026657D01*
X119909647Y-124169514D01*
X119862028Y-124264752D01*
X119814409Y-124312371D01*
X119719171Y-124359990D01*
X119338219Y-124359990D01*
X120528695Y-123836180D02*
X120623933Y-123836180D01*
X120719171Y-123883800D01*
X120766790Y-123931419D01*
X120814409Y-124026657D01*
X120862028Y-124217133D01*
X120862028Y-124455228D01*
X120814409Y-124645704D01*
X120766790Y-124740942D01*
X120719171Y-124788561D01*
X120623933Y-124836180D01*
X120528695Y-124836180D01*
X120433457Y-124788561D01*
X120385838Y-124740942D01*
X120338219Y-124645704D01*
X120290600Y-124455228D01*
X120290600Y-124217133D01*
X120338219Y-124026657D01*
X120385838Y-123931419D01*
X120433457Y-123883800D01*
X120528695Y-123836180D01*
X121766790Y-123836180D02*
X121290600Y-123836180D01*
X121242980Y-124312371D01*
X121290600Y-124264752D01*
X121385838Y-124217133D01*
X121623933Y-124217133D01*
X121719171Y-124264752D01*
X121766790Y-124312371D01*
X121814409Y-124407609D01*
X121814409Y-124645704D01*
X121766790Y-124740942D01*
X121719171Y-124788561D01*
X121623933Y-124836180D01*
X121385838Y-124836180D01*
X121290600Y-124788561D01*
X121242980Y-124740942D01*
X122719171Y-123836180D02*
X122242980Y-123836180D01*
X122195361Y-124312371D01*
X122242980Y-124264752D01*
X122338219Y-124217133D01*
X122576314Y-124217133D01*
X122671552Y-124264752D01*
X122719171Y-124312371D01*
X122766790Y-124407609D01*
X122766790Y-124645704D01*
X122719171Y-124740942D01*
X122671552Y-124788561D01*
X122576314Y-124836180D01*
X122338219Y-124836180D01*
X122242980Y-124788561D01*
X122195361Y-124740942D01*
X117218377Y-157386645D02*
X117218377Y-157922360D01*
X117182662Y-158029502D01*
X117111234Y-158100931D01*
X117004091Y-158136645D01*
X116932662Y-158136645D01*
X117968377Y-158136645D02*
X117539805Y-158136645D01*
X117754091Y-158136645D02*
X117754091Y-157386645D01*
X117682662Y-157493788D01*
X117611234Y-157565217D01*
X117539805Y-157600931D01*
X118218377Y-157386645D02*
X118682662Y-157386645D01*
X118432662Y-157672360D01*
X118539805Y-157672360D01*
X118611234Y-157708074D01*
X118646948Y-157743788D01*
X118682662Y-157815217D01*
X118682662Y-157993788D01*
X118646948Y-158065217D01*
X118611234Y-158100931D01*
X118539805Y-158136645D01*
X118325520Y-158136645D01*
X118254091Y-158100931D01*
X118218377Y-158065217D01*
X114800297Y-157386645D02*
X114800297Y-157922360D01*
X114764582Y-158029502D01*
X114693154Y-158100931D01*
X114586011Y-158136645D01*
X114514582Y-158136645D01*
X115550297Y-158136645D02*
X115121725Y-158136645D01*
X115336011Y-158136645D02*
X115336011Y-157386645D01*
X115264582Y-157493788D01*
X115193154Y-157565217D01*
X115121725Y-157600931D01*
X115836011Y-157458074D02*
X115871725Y-157422360D01*
X115943154Y-157386645D01*
X116121725Y-157386645D01*
X116193154Y-157422360D01*
X116228868Y-157458074D01*
X116264582Y-157529502D01*
X116264582Y-157600931D01*
X116228868Y-157708074D01*
X115800297Y-158136645D01*
X116264582Y-158136645D01*
X136604760Y-167918583D02*
X137319046Y-167918583D01*
X137461903Y-167966202D01*
X137557141Y-168061440D01*
X137604760Y-168204298D01*
X137604760Y-168299536D01*
X136604760Y-167537631D02*
X136604760Y-166918583D01*
X136985713Y-167251917D01*
X136985713Y-167109060D01*
X137033332Y-167013821D01*
X137080951Y-166966202D01*
X137176189Y-166918583D01*
X137414284Y-166918583D01*
X137509522Y-166966202D01*
X137557141Y-167013821D01*
X137604760Y-167109060D01*
X137604760Y-167394774D01*
X137557141Y-167490012D01*
X137509522Y-167537631D01*
X136604760Y-166299536D02*
X136604760Y-166204298D01*
X136652380Y-166109060D01*
X136699999Y-166061440D01*
X136795237Y-166013821D01*
X136985713Y-165966202D01*
X137223808Y-165966202D01*
X137414284Y-166013821D01*
X137509522Y-166061440D01*
X137557141Y-166109060D01*
X137604760Y-166204298D01*
X137604760Y-166299536D01*
X137557141Y-166394774D01*
X137509522Y-166442393D01*
X137414284Y-166490012D01*
X137223808Y-166537631D01*
X136985713Y-166537631D01*
X136795237Y-166490012D01*
X136699999Y-166442393D01*
X136652380Y-166394774D01*
X136604760Y-166299536D01*
D23*
X127140465Y-162628202D02*
X127140465Y-162163917D01*
X127426180Y-162413917D01*
X127426180Y-162306774D01*
X127461894Y-162235345D01*
X127497608Y-162199631D01*
X127569037Y-162163917D01*
X127747608Y-162163917D01*
X127819037Y-162199631D01*
X127854751Y-162235345D01*
X127890465Y-162306774D01*
X127890465Y-162521060D01*
X127854751Y-162592488D01*
X127819037Y-162628202D01*
X127819037Y-161842488D02*
X127854751Y-161806774D01*
X127890465Y-161842488D01*
X127854751Y-161878202D01*
X127819037Y-161842488D01*
X127890465Y-161842488D01*
X127140465Y-161556774D02*
X127140465Y-161092488D01*
X127426180Y-161342488D01*
X127426180Y-161235345D01*
X127461894Y-161163917D01*
X127497608Y-161128202D01*
X127569037Y-161092488D01*
X127747608Y-161092488D01*
X127819037Y-161128202D01*
X127854751Y-161163917D01*
X127890465Y-161235345D01*
X127890465Y-161449631D01*
X127854751Y-161521060D01*
X127819037Y-161556774D01*
X127140465Y-160878202D02*
X127890465Y-160628202D01*
X127140465Y-160378202D01*
X124600465Y-162171917D02*
X124600465Y-162529060D01*
X124957608Y-162564774D01*
X124921894Y-162529060D01*
X124886180Y-162457631D01*
X124886180Y-162279060D01*
X124921894Y-162207631D01*
X124957608Y-162171917D01*
X125029037Y-162136202D01*
X125207608Y-162136202D01*
X125279037Y-162171917D01*
X125314751Y-162207631D01*
X125350465Y-162279060D01*
X125350465Y-162457631D01*
X125314751Y-162529060D01*
X125279037Y-162564774D01*
X124600465Y-161921917D02*
X125350465Y-161671917D01*
X124600465Y-161421917D01*
D11*
X82190476Y-152352380D02*
X82190476Y-151352380D01*
X82523809Y-152066666D01*
X82857142Y-151352380D01*
X82857142Y-152352380D01*
X83238095Y-151352380D02*
X83904761Y-151352380D01*
X83476190Y-152352380D01*
X104532380Y-145803333D02*
X105246666Y-145803333D01*
X105389523Y-145850952D01*
X105484761Y-145946190D01*
X105532380Y-146089047D01*
X105532380Y-146184285D01*
X104532380Y-145422380D02*
X104532380Y-144803333D01*
X104913333Y-145136666D01*
X104913333Y-144993809D01*
X104960952Y-144898571D01*
X105008571Y-144850952D01*
X105103809Y-144803333D01*
X105341904Y-144803333D01*
X105437142Y-144850952D01*
X105484761Y-144898571D01*
X105532380Y-144993809D01*
X105532380Y-145279523D01*
X105484761Y-145374761D01*
X105437142Y-145422380D01*
X78201780Y-163145923D02*
X77201780Y-163145923D01*
X77916066Y-162812590D01*
X77201780Y-162479257D01*
X78201780Y-162479257D01*
X77297019Y-162050685D02*
X77249400Y-162003066D01*
X77201780Y-161907828D01*
X77201780Y-161669733D01*
X77249400Y-161574495D01*
X77297019Y-161526876D01*
X77392257Y-161479257D01*
X77487495Y-161479257D01*
X77630352Y-161526876D01*
X78201780Y-162098304D01*
X78201780Y-161479257D01*
X76957180Y-147067723D02*
X75957180Y-147067723D01*
X76671466Y-146734390D01*
X75957180Y-146401057D01*
X76957180Y-146401057D01*
X75957180Y-145448676D02*
X75957180Y-145924866D01*
X76433371Y-145972485D01*
X76385752Y-145924866D01*
X76338133Y-145829628D01*
X76338133Y-145591533D01*
X76385752Y-145496295D01*
X76433371Y-145448676D01*
X76528609Y-145401057D01*
X76766704Y-145401057D01*
X76861942Y-145448676D01*
X76909561Y-145496295D01*
X76957180Y-145591533D01*
X76957180Y-145829628D01*
X76909561Y-145924866D01*
X76861942Y-145972485D01*
X82070676Y-161213980D02*
X82070676Y-160213980D01*
X82404009Y-160928266D01*
X82737342Y-160213980D01*
X82737342Y-161213980D01*
X83642104Y-160213980D02*
X83451628Y-160213980D01*
X83356390Y-160261600D01*
X83308771Y-160309219D01*
X83213533Y-160452076D01*
X83165914Y-160642552D01*
X83165914Y-161023504D01*
X83213533Y-161118742D01*
X83261152Y-161166361D01*
X83356390Y-161213980D01*
X83546866Y-161213980D01*
X83642104Y-161166361D01*
X83689723Y-161118742D01*
X83737342Y-161023504D01*
X83737342Y-160785409D01*
X83689723Y-160690171D01*
X83642104Y-160642552D01*
X83546866Y-160594933D01*
X83356390Y-160594933D01*
X83261152Y-160642552D01*
X83213533Y-160690171D01*
X83165914Y-160785409D01*
D23*
X134981600Y-139844628D02*
X134945885Y-139916057D01*
X134945885Y-140023200D01*
X134981600Y-140130342D01*
X135053028Y-140201771D01*
X135124457Y-140237485D01*
X135267314Y-140273200D01*
X135374457Y-140273200D01*
X135517314Y-140237485D01*
X135588742Y-140201771D01*
X135660171Y-140130342D01*
X135695885Y-140023200D01*
X135695885Y-139951771D01*
X135660171Y-139844628D01*
X135624457Y-139808914D01*
X135374457Y-139808914D01*
X135374457Y-139951771D01*
X135695885Y-139487485D02*
X134945885Y-139487485D01*
X135695885Y-139058914D01*
X134945885Y-139058914D01*
X135695885Y-138701771D02*
X134945885Y-138701771D01*
X134945885Y-138523200D01*
X134981600Y-138416057D01*
X135053028Y-138344628D01*
X135124457Y-138308914D01*
X135267314Y-138273200D01*
X135374457Y-138273200D01*
X135517314Y-138308914D01*
X135588742Y-138344628D01*
X135660171Y-138416057D01*
X135695885Y-138523200D01*
X135695885Y-138701771D01*
X145105885Y-139035057D02*
X145105885Y-139392200D01*
X145463028Y-139427914D01*
X145427314Y-139392200D01*
X145391600Y-139320771D01*
X145391600Y-139142200D01*
X145427314Y-139070771D01*
X145463028Y-139035057D01*
X145534457Y-138999342D01*
X145713028Y-138999342D01*
X145784457Y-139035057D01*
X145820171Y-139070771D01*
X145855885Y-139142200D01*
X145855885Y-139320771D01*
X145820171Y-139392200D01*
X145784457Y-139427914D01*
X145105885Y-138785057D02*
X145855885Y-138535057D01*
X145105885Y-138285057D01*
X140775885Y-140812914D02*
X140025885Y-140812914D01*
X140025885Y-140527200D01*
X140061600Y-140455771D01*
X140097314Y-140420057D01*
X140168742Y-140384342D01*
X140275885Y-140384342D01*
X140347314Y-140420057D01*
X140383028Y-140455771D01*
X140418742Y-140527200D01*
X140418742Y-140812914D01*
X140704457Y-139634342D02*
X140740171Y-139670057D01*
X140775885Y-139777200D01*
X140775885Y-139848628D01*
X140740171Y-139955771D01*
X140668742Y-140027200D01*
X140597314Y-140062914D01*
X140454457Y-140098628D01*
X140347314Y-140098628D01*
X140204457Y-140062914D01*
X140133028Y-140027200D01*
X140061600Y-139955771D01*
X140025885Y-139848628D01*
X140025885Y-139777200D01*
X140061600Y-139670057D01*
X140097314Y-139634342D01*
X140775885Y-138920057D02*
X140775885Y-139348628D01*
X140775885Y-139134342D02*
X140025885Y-139134342D01*
X140133028Y-139205771D01*
X140204457Y-139277200D01*
X140240171Y-139348628D01*
X140775885Y-138205771D02*
X140775885Y-138634342D01*
X140775885Y-138420057D02*
X140025885Y-138420057D01*
X140133028Y-138491485D01*
X140204457Y-138562914D01*
X140240171Y-138634342D01*
X143315885Y-140328771D02*
X142565885Y-140328771D01*
X142565885Y-140043057D01*
X142601600Y-139971628D01*
X142637314Y-139935914D01*
X142708742Y-139900200D01*
X142815885Y-139900200D01*
X142887314Y-139935914D01*
X142923028Y-139971628D01*
X142958742Y-140043057D01*
X142958742Y-140328771D01*
X142923028Y-139328771D02*
X142958742Y-139221628D01*
X142994457Y-139185914D01*
X143065885Y-139150200D01*
X143173028Y-139150200D01*
X143244457Y-139185914D01*
X143280171Y-139221628D01*
X143315885Y-139293057D01*
X143315885Y-139578771D01*
X142565885Y-139578771D01*
X142565885Y-139328771D01*
X142601600Y-139257342D01*
X142637314Y-139221628D01*
X142708742Y-139185914D01*
X142780171Y-139185914D01*
X142851600Y-139221628D01*
X142887314Y-139257342D01*
X142923028Y-139328771D01*
X142923028Y-139578771D01*
X142887314Y-138721628D02*
X142851600Y-138793057D01*
X142815885Y-138828771D01*
X142744457Y-138864485D01*
X142708742Y-138864485D01*
X142637314Y-138828771D01*
X142601600Y-138793057D01*
X142565885Y-138721628D01*
X142565885Y-138578771D01*
X142601600Y-138507342D01*
X142637314Y-138471628D01*
X142708742Y-138435914D01*
X142744457Y-138435914D01*
X142815885Y-138471628D01*
X142851600Y-138507342D01*
X142887314Y-138578771D01*
X142887314Y-138721628D01*
X142923028Y-138793057D01*
X142958742Y-138828771D01*
X143030171Y-138864485D01*
X143173028Y-138864485D01*
X143244457Y-138828771D01*
X143280171Y-138793057D01*
X143315885Y-138721628D01*
X143315885Y-138578771D01*
X143280171Y-138507342D01*
X143244457Y-138471628D01*
X143173028Y-138435914D01*
X143030171Y-138435914D01*
X142958742Y-138471628D01*
X142923028Y-138507342D01*
X142887314Y-138578771D01*
X138235885Y-140759342D02*
X137485885Y-140759342D01*
X137485885Y-140473628D01*
X137521600Y-140402200D01*
X137557314Y-140366485D01*
X137628742Y-140330771D01*
X137735885Y-140330771D01*
X137807314Y-140366485D01*
X137843028Y-140402200D01*
X137878742Y-140473628D01*
X137878742Y-140759342D01*
X138021600Y-140045057D02*
X138021600Y-139687914D01*
X138235885Y-140116485D02*
X137485885Y-139866485D01*
X138235885Y-139616485D01*
X138235885Y-138973628D02*
X138235885Y-139402200D01*
X138235885Y-139187914D02*
X137485885Y-139187914D01*
X137593028Y-139259342D01*
X137664457Y-139330771D01*
X137700171Y-139402200D01*
X137485885Y-138295057D02*
X137485885Y-138652200D01*
X137843028Y-138687914D01*
X137807314Y-138652200D01*
X137771600Y-138580771D01*
X137771600Y-138402200D01*
X137807314Y-138330771D01*
X137843028Y-138295057D01*
X137914457Y-138259342D01*
X138093028Y-138259342D01*
X138164457Y-138295057D01*
X138200171Y-138330771D01*
X138235885Y-138402200D01*
X138235885Y-138580771D01*
X138200171Y-138652200D01*
X138164457Y-138687914D01*
X135822885Y-129763914D02*
X135072885Y-129763914D01*
X135072885Y-129478200D01*
X135108600Y-129406771D01*
X135144314Y-129371057D01*
X135215742Y-129335342D01*
X135322885Y-129335342D01*
X135394314Y-129371057D01*
X135430028Y-129406771D01*
X135465742Y-129478200D01*
X135465742Y-129763914D01*
X135751457Y-128585342D02*
X135787171Y-128621057D01*
X135822885Y-128728200D01*
X135822885Y-128799628D01*
X135787171Y-128906771D01*
X135715742Y-128978200D01*
X135644314Y-129013914D01*
X135501457Y-129049628D01*
X135394314Y-129049628D01*
X135251457Y-129013914D01*
X135180028Y-128978200D01*
X135108600Y-128906771D01*
X135072885Y-128799628D01*
X135072885Y-128728200D01*
X135108600Y-128621057D01*
X135144314Y-128585342D01*
X135822885Y-127871057D02*
X135822885Y-128299628D01*
X135822885Y-128085342D02*
X135072885Y-128085342D01*
X135180028Y-128156771D01*
X135251457Y-128228200D01*
X135287171Y-128299628D01*
X135144314Y-127585342D02*
X135108600Y-127549628D01*
X135072885Y-127478200D01*
X135072885Y-127299628D01*
X135108600Y-127228200D01*
X135144314Y-127192485D01*
X135215742Y-127156771D01*
X135287171Y-127156771D01*
X135394314Y-127192485D01*
X135822885Y-127621057D01*
X135822885Y-127156771D01*
X138235885Y-129763914D02*
X137485885Y-129763914D01*
X137485885Y-129478200D01*
X137521600Y-129406771D01*
X137557314Y-129371057D01*
X137628742Y-129335342D01*
X137735885Y-129335342D01*
X137807314Y-129371057D01*
X137843028Y-129406771D01*
X137878742Y-129478200D01*
X137878742Y-129763914D01*
X138164457Y-128585342D02*
X138200171Y-128621057D01*
X138235885Y-128728200D01*
X138235885Y-128799628D01*
X138200171Y-128906771D01*
X138128742Y-128978200D01*
X138057314Y-129013914D01*
X137914457Y-129049628D01*
X137807314Y-129049628D01*
X137664457Y-129013914D01*
X137593028Y-128978200D01*
X137521600Y-128906771D01*
X137485885Y-128799628D01*
X137485885Y-128728200D01*
X137521600Y-128621057D01*
X137557314Y-128585342D01*
X138235885Y-127871057D02*
X138235885Y-128299628D01*
X138235885Y-128085342D02*
X137485885Y-128085342D01*
X137593028Y-128156771D01*
X137664457Y-128228200D01*
X137700171Y-128299628D01*
X137485885Y-127406771D02*
X137485885Y-127335342D01*
X137521600Y-127263914D01*
X137557314Y-127228200D01*
X137628742Y-127192485D01*
X137771600Y-127156771D01*
X137950171Y-127156771D01*
X138093028Y-127192485D01*
X138164457Y-127228200D01*
X138200171Y-127263914D01*
X138235885Y-127335342D01*
X138235885Y-127406771D01*
X138200171Y-127478200D01*
X138164457Y-127513914D01*
X138093028Y-127549628D01*
X137950171Y-127585342D01*
X137771600Y-127585342D01*
X137628742Y-127549628D01*
X137557314Y-127513914D01*
X137521600Y-127478200D01*
X137485885Y-127406771D01*
X140775885Y-129787771D02*
X140025885Y-129787771D01*
X140025885Y-129502057D01*
X140061600Y-129430628D01*
X140097314Y-129394914D01*
X140168742Y-129359200D01*
X140275885Y-129359200D01*
X140347314Y-129394914D01*
X140383028Y-129430628D01*
X140418742Y-129502057D01*
X140418742Y-129787771D01*
X140383028Y-128787771D02*
X140418742Y-128680628D01*
X140454457Y-128644914D01*
X140525885Y-128609200D01*
X140633028Y-128609200D01*
X140704457Y-128644914D01*
X140740171Y-128680628D01*
X140775885Y-128752057D01*
X140775885Y-129037771D01*
X140025885Y-129037771D01*
X140025885Y-128787771D01*
X140061600Y-128716342D01*
X140097314Y-128680628D01*
X140168742Y-128644914D01*
X140240171Y-128644914D01*
X140311600Y-128680628D01*
X140347314Y-128716342D01*
X140383028Y-128787771D01*
X140383028Y-129037771D01*
X140775885Y-128252057D02*
X140775885Y-128109200D01*
X140740171Y-128037771D01*
X140704457Y-128002057D01*
X140597314Y-127930628D01*
X140454457Y-127894914D01*
X140168742Y-127894914D01*
X140097314Y-127930628D01*
X140061600Y-127966342D01*
X140025885Y-128037771D01*
X140025885Y-128180628D01*
X140061600Y-128252057D01*
X140097314Y-128287771D01*
X140168742Y-128323485D01*
X140347314Y-128323485D01*
X140418742Y-128287771D01*
X140454457Y-128252057D01*
X140490171Y-128180628D01*
X140490171Y-128037771D01*
X140454457Y-127966342D01*
X140418742Y-127930628D01*
X140347314Y-127894914D01*
X142565885Y-129859200D02*
X143315885Y-129609200D01*
X142565885Y-129359200D01*
X143315885Y-129109200D02*
X142565885Y-129109200D01*
X142565885Y-128930628D01*
X142601600Y-128823485D01*
X142673028Y-128752057D01*
X142744457Y-128716342D01*
X142887314Y-128680628D01*
X142994457Y-128680628D01*
X143137314Y-128716342D01*
X143208742Y-128752057D01*
X143280171Y-128823485D01*
X143315885Y-128930628D01*
X143315885Y-129109200D01*
X143315885Y-128359200D02*
X142565885Y-128359200D01*
X142565885Y-128180628D01*
X142601600Y-128073485D01*
X142673028Y-128002057D01*
X142744457Y-127966342D01*
X142887314Y-127930628D01*
X142994457Y-127930628D01*
X143137314Y-127966342D01*
X143208742Y-128002057D01*
X143280171Y-128073485D01*
X143315885Y-128180628D01*
X143315885Y-128359200D01*
X145855885Y-129323485D02*
X145855885Y-129752057D01*
X145855885Y-129537771D02*
X145105885Y-129537771D01*
X145213028Y-129609200D01*
X145284457Y-129680628D01*
X145320171Y-129752057D01*
X145177314Y-129037771D02*
X145141600Y-129002057D01*
X145105885Y-128930628D01*
X145105885Y-128752057D01*
X145141600Y-128680628D01*
X145177314Y-128644914D01*
X145248742Y-128609200D01*
X145320171Y-128609200D01*
X145427314Y-128644914D01*
X145855885Y-129073485D01*
X145855885Y-128609200D01*
X145105885Y-128394914D02*
X145855885Y-128144914D01*
X145105885Y-127894914D01*
D11*
X109464600Y-157379085D02*
X109714600Y-158129085D01*
X109964600Y-157379085D01*
X110643171Y-158057657D02*
X110607457Y-158093371D01*
X110500314Y-158129085D01*
X110428885Y-158129085D01*
X110321742Y-158093371D01*
X110250314Y-158021942D01*
X110214600Y-157950514D01*
X110178885Y-157807657D01*
X110178885Y-157700514D01*
X110214600Y-157557657D01*
X110250314Y-157486228D01*
X110321742Y-157414800D01*
X110428885Y-157379085D01*
X110500314Y-157379085D01*
X110607457Y-157414800D01*
X110643171Y-157450514D01*
X111393171Y-158057657D02*
X111357457Y-158093371D01*
X111250314Y-158129085D01*
X111178885Y-158129085D01*
X111071742Y-158093371D01*
X111000314Y-158021942D01*
X110964600Y-157950514D01*
X110928885Y-157807657D01*
X110928885Y-157700514D01*
X110964600Y-157557657D01*
X111000314Y-157486228D01*
X111071742Y-157414800D01*
X111178885Y-157379085D01*
X111250314Y-157379085D01*
X111357457Y-157414800D01*
X111393171Y-157450514D01*
X112433171Y-157414800D02*
X112361742Y-157379085D01*
X112254600Y-157379085D01*
X112147457Y-157414800D01*
X112076028Y-157486228D01*
X112040314Y-157557657D01*
X112004600Y-157700514D01*
X112004600Y-157807657D01*
X112040314Y-157950514D01*
X112076028Y-158021942D01*
X112147457Y-158093371D01*
X112254600Y-158129085D01*
X112326028Y-158129085D01*
X112433171Y-158093371D01*
X112468885Y-158057657D01*
X112468885Y-157807657D01*
X112326028Y-157807657D01*
X112790314Y-158129085D02*
X112790314Y-157379085D01*
X113218885Y-158129085D01*
X113218885Y-157379085D01*
X113576028Y-158129085D02*
X113576028Y-157379085D01*
X113754600Y-157379085D01*
X113861742Y-157414800D01*
X113933171Y-157486228D01*
X113968885Y-157557657D01*
X114004600Y-157700514D01*
X114004600Y-157807657D01*
X113968885Y-157950514D01*
X113933171Y-158021942D01*
X113861742Y-158093371D01*
X113754600Y-158129085D01*
X113576028Y-158129085D01*
X84532885Y-142467857D02*
X84497171Y-142503571D01*
X84390028Y-142539285D01*
X84318600Y-142539285D01*
X84211457Y-142503571D01*
X84140028Y-142432142D01*
X84104314Y-142360714D01*
X84068600Y-142217857D01*
X84068600Y-142110714D01*
X84104314Y-141967857D01*
X84140028Y-141896428D01*
X84211457Y-141825000D01*
X84318600Y-141789285D01*
X84390028Y-141789285D01*
X84497171Y-141825000D01*
X84532885Y-141860714D01*
X84818600Y-142325000D02*
X85175742Y-142325000D01*
X84747171Y-142539285D02*
X84997171Y-141789285D01*
X85247171Y-142539285D01*
X85497171Y-142539285D02*
X85497171Y-141789285D01*
X85925742Y-142539285D01*
X85925742Y-141789285D01*
X86640028Y-142539285D02*
X86282885Y-142539285D01*
X86282885Y-141789285D01*
X90412600Y-142467857D02*
X90376885Y-142503571D01*
X90269742Y-142539285D01*
X90198314Y-142539285D01*
X90091171Y-142503571D01*
X90019742Y-142432142D01*
X89984028Y-142360714D01*
X89948314Y-142217857D01*
X89948314Y-142110714D01*
X89984028Y-141967857D01*
X90019742Y-141896428D01*
X90091171Y-141825000D01*
X90198314Y-141789285D01*
X90269742Y-141789285D01*
X90376885Y-141825000D01*
X90412600Y-141860714D01*
X90698314Y-142325000D02*
X91055457Y-142325000D01*
X90626885Y-142539285D02*
X90876885Y-141789285D01*
X91126885Y-142539285D01*
X91376885Y-142539285D02*
X91376885Y-141789285D01*
X91805457Y-142539285D01*
X91805457Y-141789285D01*
X92162600Y-142539285D02*
X92162600Y-141789285D01*
X92162600Y-142146428D02*
X92591171Y-142146428D01*
X92591171Y-142539285D02*
X92591171Y-141789285D01*
X99700476Y-168452380D02*
X99700476Y-169166666D01*
X99652857Y-169309523D01*
X99557619Y-169404761D01*
X99414761Y-169452380D01*
X99319523Y-169452380D01*
X100700476Y-169452380D02*
X100129047Y-169452380D01*
X100414761Y-169452380D02*
X100414761Y-168452380D01*
X100319523Y-168595238D01*
X100224285Y-168690476D01*
X100129047Y-168738095D01*
X101605238Y-168452380D02*
X101129047Y-168452380D01*
X101081428Y-168928571D01*
X101129047Y-168880952D01*
X101224285Y-168833333D01*
X101462380Y-168833333D01*
X101557619Y-168880952D01*
X101605238Y-168928571D01*
X101652857Y-169023809D01*
X101652857Y-169261904D01*
X101605238Y-169357142D01*
X101557619Y-169404761D01*
X101462380Y-169452380D01*
X101224285Y-169452380D01*
X101129047Y-169404761D01*
X101081428Y-169357142D01*
X92987142Y-170842857D02*
X93034761Y-170890476D01*
X93082380Y-171033333D01*
X93082380Y-171128571D01*
X93034761Y-171271428D01*
X92939523Y-171366666D01*
X92844285Y-171414285D01*
X92653809Y-171461904D01*
X92510952Y-171461904D01*
X92320476Y-171414285D01*
X92225238Y-171366666D01*
X92130000Y-171271428D01*
X92082380Y-171128571D01*
X92082380Y-171033333D01*
X92130000Y-170890476D01*
X92177619Y-170842857D01*
X92415714Y-169985714D02*
X93082380Y-169985714D01*
X92034761Y-170223809D02*
X92749047Y-170461904D01*
X92749047Y-169842857D01*
X92177619Y-169509523D02*
X92130000Y-169461904D01*
X92082380Y-169366666D01*
X92082380Y-169128571D01*
X92130000Y-169033333D01*
X92177619Y-168985714D01*
X92272857Y-168938095D01*
X92368095Y-168938095D01*
X92510952Y-168985714D01*
X93082380Y-169557142D01*
X93082380Y-168938095D01*
X101377380Y-133483333D02*
X102091666Y-133483333D01*
X102234523Y-133530952D01*
X102329761Y-133626190D01*
X102377380Y-133769047D01*
X102377380Y-133864285D01*
X101377380Y-133102380D02*
X101377380Y-132483333D01*
X101758333Y-132816666D01*
X101758333Y-132673809D01*
X101805952Y-132578571D01*
X101853571Y-132530952D01*
X101948809Y-132483333D01*
X102186904Y-132483333D01*
X102282142Y-132530952D01*
X102329761Y-132578571D01*
X102377380Y-132673809D01*
X102377380Y-132959523D01*
X102329761Y-133054761D01*
X102282142Y-133102380D01*
D10*
X119116666Y-137426190D02*
X118950000Y-137188095D01*
X118830952Y-137426190D02*
X118830952Y-136926190D01*
X119021428Y-136926190D01*
X119069047Y-136950000D01*
X119092857Y-136973809D01*
X119116666Y-137021428D01*
X119116666Y-137092857D01*
X119092857Y-137140476D01*
X119069047Y-137164285D01*
X119021428Y-137188095D01*
X118830952Y-137188095D01*
X119402380Y-137140476D02*
X119354761Y-137116666D01*
X119330952Y-137092857D01*
X119307142Y-137045238D01*
X119307142Y-137021428D01*
X119330952Y-136973809D01*
X119354761Y-136950000D01*
X119402380Y-136926190D01*
X119497619Y-136926190D01*
X119545238Y-136950000D01*
X119569047Y-136973809D01*
X119592857Y-137021428D01*
X119592857Y-137045238D01*
X119569047Y-137092857D01*
X119545238Y-137116666D01*
X119497619Y-137140476D01*
X119402380Y-137140476D01*
X119354761Y-137164285D01*
X119330952Y-137188095D01*
X119307142Y-137235714D01*
X119307142Y-137330952D01*
X119330952Y-137378571D01*
X119354761Y-137402380D01*
X119402380Y-137426190D01*
X119497619Y-137426190D01*
X119545238Y-137402380D01*
X119569047Y-137378571D01*
X119592857Y-137330952D01*
X119592857Y-137235714D01*
X119569047Y-137188095D01*
X119545238Y-137164285D01*
X119497619Y-137140476D01*
D11*
X147273580Y-134870723D02*
X147987866Y-134870723D01*
X148130723Y-134918342D01*
X148225961Y-135013580D01*
X148273580Y-135156438D01*
X148273580Y-135251676D01*
X147368819Y-134442152D02*
X147321200Y-134394533D01*
X147273580Y-134299295D01*
X147273580Y-134061200D01*
X147321200Y-133965961D01*
X147368819Y-133918342D01*
X147464057Y-133870723D01*
X147559295Y-133870723D01*
X147702152Y-133918342D01*
X148273580Y-134489771D01*
X148273580Y-133870723D01*
X147273580Y-133251676D02*
X147273580Y-133156438D01*
X147321200Y-133061200D01*
X147368819Y-133013580D01*
X147464057Y-132965961D01*
X147654533Y-132918342D01*
X147892628Y-132918342D01*
X148083104Y-132965961D01*
X148178342Y-133013580D01*
X148225961Y-133061200D01*
X148273580Y-133156438D01*
X148273580Y-133251676D01*
X148225961Y-133346914D01*
X148178342Y-133394533D01*
X148083104Y-133442152D01*
X147892628Y-133489771D01*
X147654533Y-133489771D01*
X147464057Y-133442152D01*
X147368819Y-133394533D01*
X147321200Y-133346914D01*
X147273580Y-133251676D01*
D10*
X122419047Y-155826190D02*
X122419047Y-156230952D01*
X122442857Y-156278571D01*
X122466666Y-156302380D01*
X122514285Y-156326190D01*
X122609523Y-156326190D01*
X122657142Y-156302380D01*
X122680952Y-156278571D01*
X122704761Y-156230952D01*
X122704761Y-155826190D01*
X123157142Y-155992857D02*
X123157142Y-156326190D01*
X123038095Y-155802380D02*
X122919047Y-156159523D01*
X123228571Y-156159523D01*
X122303647Y-147376190D02*
X122303647Y-147780952D01*
X122327457Y-147828571D01*
X122351266Y-147852380D01*
X122398885Y-147876190D01*
X122494123Y-147876190D01*
X122541742Y-147852380D01*
X122565552Y-147828571D01*
X122589361Y-147780952D01*
X122589361Y-147376190D01*
X122779838Y-147376190D02*
X123089361Y-147376190D01*
X122922695Y-147566666D01*
X122994123Y-147566666D01*
X123041742Y-147590476D01*
X123065552Y-147614285D01*
X123089361Y-147661904D01*
X123089361Y-147780952D01*
X123065552Y-147828571D01*
X123041742Y-147852380D01*
X122994123Y-147876190D01*
X122851266Y-147876190D01*
X122803647Y-147852380D01*
X122779838Y-147828571D01*
D11*
X96066666Y-137704761D02*
X96209523Y-137752380D01*
X96447619Y-137752380D01*
X96542857Y-137704761D01*
X96590476Y-137657142D01*
X96638095Y-137561904D01*
X96638095Y-137466666D01*
X96590476Y-137371428D01*
X96542857Y-137323809D01*
X96447619Y-137276190D01*
X96257142Y-137228571D01*
X96161904Y-137180952D01*
X96114285Y-137133333D01*
X96066666Y-137038095D01*
X96066666Y-136942857D01*
X96114285Y-136847619D01*
X96161904Y-136800000D01*
X96257142Y-136752380D01*
X96495238Y-136752380D01*
X96638095Y-136800000D01*
X96971428Y-136752380D02*
X97209523Y-137752380D01*
X97400000Y-137038095D01*
X97590476Y-137752380D01*
X97828571Y-136752380D01*
X98733333Y-137752380D02*
X98161904Y-137752380D01*
X98447619Y-137752380D02*
X98447619Y-136752380D01*
X98352380Y-136895238D01*
X98257142Y-136990476D01*
X98161904Y-137038095D01*
D10*
X130928571Y-155776190D02*
X130761904Y-155538095D01*
X130642857Y-155776190D02*
X130642857Y-155276190D01*
X130833333Y-155276190D01*
X130880952Y-155300000D01*
X130904761Y-155323809D01*
X130928571Y-155371428D01*
X130928571Y-155442857D01*
X130904761Y-155490476D01*
X130880952Y-155514285D01*
X130833333Y-155538095D01*
X130642857Y-155538095D01*
X131095238Y-155276190D02*
X131404761Y-155276190D01*
X131238095Y-155466666D01*
X131309523Y-155466666D01*
X131357142Y-155490476D01*
X131380952Y-155514285D01*
X131404761Y-155561904D01*
X131404761Y-155680952D01*
X131380952Y-155728571D01*
X131357142Y-155752380D01*
X131309523Y-155776190D01*
X131166666Y-155776190D01*
X131119047Y-155752380D01*
X131095238Y-155728571D01*
X131833333Y-155442857D02*
X131833333Y-155776190D01*
X131714285Y-155252380D02*
X131595238Y-155609523D01*
X131904761Y-155609523D01*
X132428571Y-155776190D02*
X132261904Y-155538095D01*
X132142857Y-155776190D02*
X132142857Y-155276190D01*
X132333333Y-155276190D01*
X132380952Y-155300000D01*
X132404761Y-155323809D01*
X132428571Y-155371428D01*
X132428571Y-155442857D01*
X132404761Y-155490476D01*
X132380952Y-155514285D01*
X132333333Y-155538095D01*
X132142857Y-155538095D01*
X132595238Y-155276190D02*
X132904761Y-155276190D01*
X132738095Y-155466666D01*
X132809523Y-155466666D01*
X132857142Y-155490476D01*
X132880952Y-155514285D01*
X132904761Y-155561904D01*
X132904761Y-155680952D01*
X132880952Y-155728571D01*
X132857142Y-155752380D01*
X132809523Y-155776190D01*
X132666666Y-155776190D01*
X132619047Y-155752380D01*
X132595238Y-155728571D01*
X133071428Y-155276190D02*
X133380952Y-155276190D01*
X133214285Y-155466666D01*
X133285714Y-155466666D01*
X133333333Y-155490476D01*
X133357142Y-155514285D01*
X133380952Y-155561904D01*
X133380952Y-155680952D01*
X133357142Y-155728571D01*
X133333333Y-155752380D01*
X133285714Y-155776190D01*
X133142857Y-155776190D01*
X133095238Y-155752380D01*
X133071428Y-155728571D01*
X133928571Y-155776190D02*
X133761904Y-155538095D01*
X133642857Y-155776190D02*
X133642857Y-155276190D01*
X133833333Y-155276190D01*
X133880952Y-155300000D01*
X133904761Y-155323809D01*
X133928571Y-155371428D01*
X133928571Y-155442857D01*
X133904761Y-155490476D01*
X133880952Y-155514285D01*
X133833333Y-155538095D01*
X133642857Y-155538095D01*
X134095238Y-155276190D02*
X134404761Y-155276190D01*
X134238095Y-155466666D01*
X134309523Y-155466666D01*
X134357142Y-155490476D01*
X134380952Y-155514285D01*
X134404761Y-155561904D01*
X134404761Y-155680952D01*
X134380952Y-155728571D01*
X134357142Y-155752380D01*
X134309523Y-155776190D01*
X134166666Y-155776190D01*
X134119047Y-155752380D01*
X134095238Y-155728571D01*
X134595238Y-155323809D02*
X134619047Y-155300000D01*
X134666666Y-155276190D01*
X134785714Y-155276190D01*
X134833333Y-155300000D01*
X134857142Y-155323809D01*
X134880952Y-155371428D01*
X134880952Y-155419047D01*
X134857142Y-155490476D01*
X134571428Y-155776190D01*
X134880952Y-155776190D01*
X108868571Y-146546190D02*
X108701904Y-146308095D01*
X108582857Y-146546190D02*
X108582857Y-146046190D01*
X108773333Y-146046190D01*
X108820952Y-146070000D01*
X108844761Y-146093809D01*
X108868571Y-146141428D01*
X108868571Y-146212857D01*
X108844761Y-146260476D01*
X108820952Y-146284285D01*
X108773333Y-146308095D01*
X108582857Y-146308095D01*
X109059047Y-146093809D02*
X109082857Y-146070000D01*
X109130476Y-146046190D01*
X109249523Y-146046190D01*
X109297142Y-146070000D01*
X109320952Y-146093809D01*
X109344761Y-146141428D01*
X109344761Y-146189047D01*
X109320952Y-146260476D01*
X109035238Y-146546190D01*
X109344761Y-146546190D01*
X109797142Y-146046190D02*
X109559047Y-146046190D01*
X109535238Y-146284285D01*
X109559047Y-146260476D01*
X109606666Y-146236666D01*
X109725714Y-146236666D01*
X109773333Y-146260476D01*
X109797142Y-146284285D01*
X109820952Y-146331904D01*
X109820952Y-146450952D01*
X109797142Y-146498571D01*
X109773333Y-146522380D01*
X109725714Y-146546190D01*
X109606666Y-146546190D01*
X109559047Y-146522380D01*
X109535238Y-146498571D01*
X108858571Y-145096190D02*
X108691904Y-144858095D01*
X108572857Y-145096190D02*
X108572857Y-144596190D01*
X108763333Y-144596190D01*
X108810952Y-144620000D01*
X108834761Y-144643809D01*
X108858571Y-144691428D01*
X108858571Y-144762857D01*
X108834761Y-144810476D01*
X108810952Y-144834285D01*
X108763333Y-144858095D01*
X108572857Y-144858095D01*
X109049047Y-144643809D02*
X109072857Y-144620000D01*
X109120476Y-144596190D01*
X109239523Y-144596190D01*
X109287142Y-144620000D01*
X109310952Y-144643809D01*
X109334761Y-144691428D01*
X109334761Y-144739047D01*
X109310952Y-144810476D01*
X109025238Y-145096190D01*
X109334761Y-145096190D01*
X109763333Y-144762857D02*
X109763333Y-145096190D01*
X109644285Y-144572380D02*
X109525238Y-144929523D01*
X109834761Y-144929523D01*
X108878571Y-143526190D02*
X108711904Y-143288095D01*
X108592857Y-143526190D02*
X108592857Y-143026190D01*
X108783333Y-143026190D01*
X108830952Y-143050000D01*
X108854761Y-143073809D01*
X108878571Y-143121428D01*
X108878571Y-143192857D01*
X108854761Y-143240476D01*
X108830952Y-143264285D01*
X108783333Y-143288095D01*
X108592857Y-143288095D01*
X109069047Y-143073809D02*
X109092857Y-143050000D01*
X109140476Y-143026190D01*
X109259523Y-143026190D01*
X109307142Y-143050000D01*
X109330952Y-143073809D01*
X109354761Y-143121428D01*
X109354761Y-143169047D01*
X109330952Y-143240476D01*
X109045238Y-143526190D01*
X109354761Y-143526190D01*
X109521428Y-143026190D02*
X109830952Y-143026190D01*
X109664285Y-143216666D01*
X109735714Y-143216666D01*
X109783333Y-143240476D01*
X109807142Y-143264285D01*
X109830952Y-143311904D01*
X109830952Y-143430952D01*
X109807142Y-143478571D01*
X109783333Y-143502380D01*
X109735714Y-143526190D01*
X109592857Y-143526190D01*
X109545238Y-143502380D01*
X109521428Y-143478571D01*
X132878571Y-132026190D02*
X132711904Y-131788095D01*
X132592857Y-132026190D02*
X132592857Y-131526190D01*
X132783333Y-131526190D01*
X132830952Y-131550000D01*
X132854761Y-131573809D01*
X132878571Y-131621428D01*
X132878571Y-131692857D01*
X132854761Y-131740476D01*
X132830952Y-131764285D01*
X132783333Y-131788095D01*
X132592857Y-131788095D01*
X133069047Y-131573809D02*
X133092857Y-131550000D01*
X133140476Y-131526190D01*
X133259523Y-131526190D01*
X133307142Y-131550000D01*
X133330952Y-131573809D01*
X133354761Y-131621428D01*
X133354761Y-131669047D01*
X133330952Y-131740476D01*
X133045238Y-132026190D01*
X133354761Y-132026190D01*
X133545238Y-131573809D02*
X133569047Y-131550000D01*
X133616666Y-131526190D01*
X133735714Y-131526190D01*
X133783333Y-131550000D01*
X133807142Y-131573809D01*
X133830952Y-131621428D01*
X133830952Y-131669047D01*
X133807142Y-131740476D01*
X133521428Y-132026190D01*
X133830952Y-132026190D01*
X132878571Y-135226190D02*
X132711904Y-134988095D01*
X132592857Y-135226190D02*
X132592857Y-134726190D01*
X132783333Y-134726190D01*
X132830952Y-134750000D01*
X132854761Y-134773809D01*
X132878571Y-134821428D01*
X132878571Y-134892857D01*
X132854761Y-134940476D01*
X132830952Y-134964285D01*
X132783333Y-134988095D01*
X132592857Y-134988095D01*
X133069047Y-134773809D02*
X133092857Y-134750000D01*
X133140476Y-134726190D01*
X133259523Y-134726190D01*
X133307142Y-134750000D01*
X133330952Y-134773809D01*
X133354761Y-134821428D01*
X133354761Y-134869047D01*
X133330952Y-134940476D01*
X133045238Y-135226190D01*
X133354761Y-135226190D01*
X133830952Y-135226190D02*
X133545238Y-135226190D01*
X133688095Y-135226190D02*
X133688095Y-134726190D01*
X133640476Y-134797619D01*
X133592857Y-134845238D01*
X133545238Y-134869047D01*
X132778571Y-136826190D02*
X132611904Y-136588095D01*
X132492857Y-136826190D02*
X132492857Y-136326190D01*
X132683333Y-136326190D01*
X132730952Y-136350000D01*
X132754761Y-136373809D01*
X132778571Y-136421428D01*
X132778571Y-136492857D01*
X132754761Y-136540476D01*
X132730952Y-136564285D01*
X132683333Y-136588095D01*
X132492857Y-136588095D01*
X132969047Y-136373809D02*
X132992857Y-136350000D01*
X133040476Y-136326190D01*
X133159523Y-136326190D01*
X133207142Y-136350000D01*
X133230952Y-136373809D01*
X133254761Y-136421428D01*
X133254761Y-136469047D01*
X133230952Y-136540476D01*
X132945238Y-136826190D01*
X133254761Y-136826190D01*
X133564285Y-136326190D02*
X133611904Y-136326190D01*
X133659523Y-136350000D01*
X133683333Y-136373809D01*
X133707142Y-136421428D01*
X133730952Y-136516666D01*
X133730952Y-136635714D01*
X133707142Y-136730952D01*
X133683333Y-136778571D01*
X133659523Y-136802380D01*
X133611904Y-136826190D01*
X133564285Y-136826190D01*
X133516666Y-136802380D01*
X133492857Y-136778571D01*
X133469047Y-136730952D01*
X133445238Y-136635714D01*
X133445238Y-136516666D01*
X133469047Y-136421428D01*
X133492857Y-136373809D01*
X133516666Y-136350000D01*
X133564285Y-136326190D01*
X132778571Y-138426190D02*
X132611904Y-138188095D01*
X132492857Y-138426190D02*
X132492857Y-137926190D01*
X132683333Y-137926190D01*
X132730952Y-137950000D01*
X132754761Y-137973809D01*
X132778571Y-138021428D01*
X132778571Y-138092857D01*
X132754761Y-138140476D01*
X132730952Y-138164285D01*
X132683333Y-138188095D01*
X132492857Y-138188095D01*
X133254761Y-138426190D02*
X132969047Y-138426190D01*
X133111904Y-138426190D02*
X133111904Y-137926190D01*
X133064285Y-137997619D01*
X133016666Y-138045238D01*
X132969047Y-138069047D01*
X133492857Y-138426190D02*
X133588095Y-138426190D01*
X133635714Y-138402380D01*
X133659523Y-138378571D01*
X133707142Y-138307142D01*
X133730952Y-138211904D01*
X133730952Y-138021428D01*
X133707142Y-137973809D01*
X133683333Y-137950000D01*
X133635714Y-137926190D01*
X133540476Y-137926190D01*
X133492857Y-137950000D01*
X133469047Y-137973809D01*
X133445238Y-138021428D01*
X133445238Y-138140476D01*
X133469047Y-138188095D01*
X133492857Y-138211904D01*
X133540476Y-138235714D01*
X133635714Y-138235714D01*
X133683333Y-138211904D01*
X133707142Y-138188095D01*
X133730952Y-138140476D01*
X116178571Y-148776190D02*
X116011904Y-148538095D01*
X115892857Y-148776190D02*
X115892857Y-148276190D01*
X116083333Y-148276190D01*
X116130952Y-148300000D01*
X116154761Y-148323809D01*
X116178571Y-148371428D01*
X116178571Y-148442857D01*
X116154761Y-148490476D01*
X116130952Y-148514285D01*
X116083333Y-148538095D01*
X115892857Y-148538095D01*
X116654761Y-148776190D02*
X116369047Y-148776190D01*
X116511904Y-148776190D02*
X116511904Y-148276190D01*
X116464285Y-148347619D01*
X116416666Y-148395238D01*
X116369047Y-148419047D01*
X116940476Y-148490476D02*
X116892857Y-148466666D01*
X116869047Y-148442857D01*
X116845238Y-148395238D01*
X116845238Y-148371428D01*
X116869047Y-148323809D01*
X116892857Y-148300000D01*
X116940476Y-148276190D01*
X117035714Y-148276190D01*
X117083333Y-148300000D01*
X117107142Y-148323809D01*
X117130952Y-148371428D01*
X117130952Y-148395238D01*
X117107142Y-148442857D01*
X117083333Y-148466666D01*
X117035714Y-148490476D01*
X116940476Y-148490476D01*
X116892857Y-148514285D01*
X116869047Y-148538095D01*
X116845238Y-148585714D01*
X116845238Y-148680952D01*
X116869047Y-148728571D01*
X116892857Y-148752380D01*
X116940476Y-148776190D01*
X117035714Y-148776190D01*
X117083333Y-148752380D01*
X117107142Y-148728571D01*
X117130952Y-148680952D01*
X117130952Y-148585714D01*
X117107142Y-148538095D01*
X117083333Y-148514285D01*
X117035714Y-148490476D01*
D11*
X129702380Y-148057257D02*
X129226190Y-148390590D01*
X129702380Y-148628685D02*
X128702380Y-148628685D01*
X128702380Y-148247733D01*
X128750000Y-148152495D01*
X128797619Y-148104876D01*
X128892857Y-148057257D01*
X129035714Y-148057257D01*
X129130952Y-148104876D01*
X129178571Y-148152495D01*
X129226190Y-148247733D01*
X129226190Y-148628685D01*
X129702380Y-147104876D02*
X129702380Y-147676304D01*
X129702380Y-147390590D02*
X128702380Y-147390590D01*
X128845238Y-147485828D01*
X128940476Y-147581066D01*
X128988095Y-147676304D01*
X128702380Y-146771542D02*
X128702380Y-146104876D01*
X129702380Y-146533447D01*
D10*
X118478571Y-152126190D02*
X118311904Y-151888095D01*
X118192857Y-152126190D02*
X118192857Y-151626190D01*
X118383333Y-151626190D01*
X118430952Y-151650000D01*
X118454761Y-151673809D01*
X118478571Y-151721428D01*
X118478571Y-151792857D01*
X118454761Y-151840476D01*
X118430952Y-151864285D01*
X118383333Y-151888095D01*
X118192857Y-151888095D01*
X118954761Y-152126190D02*
X118669047Y-152126190D01*
X118811904Y-152126190D02*
X118811904Y-151626190D01*
X118764285Y-151697619D01*
X118716666Y-151745238D01*
X118669047Y-151769047D01*
X119383333Y-151626190D02*
X119288095Y-151626190D01*
X119240476Y-151650000D01*
X119216666Y-151673809D01*
X119169047Y-151745238D01*
X119145238Y-151840476D01*
X119145238Y-152030952D01*
X119169047Y-152078571D01*
X119192857Y-152102380D01*
X119240476Y-152126190D01*
X119335714Y-152126190D01*
X119383333Y-152102380D01*
X119407142Y-152078571D01*
X119430952Y-152030952D01*
X119430952Y-151911904D01*
X119407142Y-151864285D01*
X119383333Y-151840476D01*
X119335714Y-151816666D01*
X119240476Y-151816666D01*
X119192857Y-151840476D01*
X119169047Y-151864285D01*
X119145238Y-151911904D01*
X118878571Y-144426190D02*
X118711904Y-144188095D01*
X118592857Y-144426190D02*
X118592857Y-143926190D01*
X118783333Y-143926190D01*
X118830952Y-143950000D01*
X118854761Y-143973809D01*
X118878571Y-144021428D01*
X118878571Y-144092857D01*
X118854761Y-144140476D01*
X118830952Y-144164285D01*
X118783333Y-144188095D01*
X118592857Y-144188095D01*
X119354761Y-144426190D02*
X119069047Y-144426190D01*
X119211904Y-144426190D02*
X119211904Y-143926190D01*
X119164285Y-143997619D01*
X119116666Y-144045238D01*
X119069047Y-144069047D01*
X119807142Y-143926190D02*
X119569047Y-143926190D01*
X119545238Y-144164285D01*
X119569047Y-144140476D01*
X119616666Y-144116666D01*
X119735714Y-144116666D01*
X119783333Y-144140476D01*
X119807142Y-144164285D01*
X119830952Y-144211904D01*
X119830952Y-144330952D01*
X119807142Y-144378571D01*
X119783333Y-144402380D01*
X119735714Y-144426190D01*
X119616666Y-144426190D01*
X119569047Y-144402380D01*
X119545238Y-144378571D01*
X126878571Y-144426190D02*
X126711904Y-144188095D01*
X126592857Y-144426190D02*
X126592857Y-143926190D01*
X126783333Y-143926190D01*
X126830952Y-143950000D01*
X126854761Y-143973809D01*
X126878571Y-144021428D01*
X126878571Y-144092857D01*
X126854761Y-144140476D01*
X126830952Y-144164285D01*
X126783333Y-144188095D01*
X126592857Y-144188095D01*
X127354761Y-144426190D02*
X127069047Y-144426190D01*
X127211904Y-144426190D02*
X127211904Y-143926190D01*
X127164285Y-143997619D01*
X127116666Y-144045238D01*
X127069047Y-144069047D01*
X127783333Y-144092857D02*
X127783333Y-144426190D01*
X127664285Y-143902380D02*
X127545238Y-144259523D01*
X127854761Y-144259523D01*
X126228571Y-152126190D02*
X126061904Y-151888095D01*
X125942857Y-152126190D02*
X125942857Y-151626190D01*
X126133333Y-151626190D01*
X126180952Y-151650000D01*
X126204761Y-151673809D01*
X126228571Y-151721428D01*
X126228571Y-151792857D01*
X126204761Y-151840476D01*
X126180952Y-151864285D01*
X126133333Y-151888095D01*
X125942857Y-151888095D01*
X126704761Y-152126190D02*
X126419047Y-152126190D01*
X126561904Y-152126190D02*
X126561904Y-151626190D01*
X126514285Y-151697619D01*
X126466666Y-151745238D01*
X126419047Y-151769047D01*
X126871428Y-151626190D02*
X127180952Y-151626190D01*
X127014285Y-151816666D01*
X127085714Y-151816666D01*
X127133333Y-151840476D01*
X127157142Y-151864285D01*
X127180952Y-151911904D01*
X127180952Y-152030952D01*
X127157142Y-152078571D01*
X127133333Y-152102380D01*
X127085714Y-152126190D01*
X126942857Y-152126190D01*
X126895238Y-152102380D01*
X126871428Y-152078571D01*
X120478571Y-144426190D02*
X120311904Y-144188095D01*
X120192857Y-144426190D02*
X120192857Y-143926190D01*
X120383333Y-143926190D01*
X120430952Y-143950000D01*
X120454761Y-143973809D01*
X120478571Y-144021428D01*
X120478571Y-144092857D01*
X120454761Y-144140476D01*
X120430952Y-144164285D01*
X120383333Y-144188095D01*
X120192857Y-144188095D01*
X120954761Y-144426190D02*
X120669047Y-144426190D01*
X120811904Y-144426190D02*
X120811904Y-143926190D01*
X120764285Y-143997619D01*
X120716666Y-144045238D01*
X120669047Y-144069047D01*
X121145238Y-143973809D02*
X121169047Y-143950000D01*
X121216666Y-143926190D01*
X121335714Y-143926190D01*
X121383333Y-143950000D01*
X121407142Y-143973809D01*
X121430952Y-144021428D01*
X121430952Y-144069047D01*
X121407142Y-144140476D01*
X121121428Y-144426190D01*
X121430952Y-144426190D01*
X125278571Y-144426190D02*
X125111904Y-144188095D01*
X124992857Y-144426190D02*
X124992857Y-143926190D01*
X125183333Y-143926190D01*
X125230952Y-143950000D01*
X125254761Y-143973809D01*
X125278571Y-144021428D01*
X125278571Y-144092857D01*
X125254761Y-144140476D01*
X125230952Y-144164285D01*
X125183333Y-144188095D01*
X124992857Y-144188095D01*
X125754761Y-144426190D02*
X125469047Y-144426190D01*
X125611904Y-144426190D02*
X125611904Y-143926190D01*
X125564285Y-143997619D01*
X125516666Y-144045238D01*
X125469047Y-144069047D01*
X126230952Y-144426190D02*
X125945238Y-144426190D01*
X126088095Y-144426190D02*
X126088095Y-143926190D01*
X126040476Y-143997619D01*
X125992857Y-144045238D01*
X125945238Y-144069047D01*
X123678571Y-144426190D02*
X123511904Y-144188095D01*
X123392857Y-144426190D02*
X123392857Y-143926190D01*
X123583333Y-143926190D01*
X123630952Y-143950000D01*
X123654761Y-143973809D01*
X123678571Y-144021428D01*
X123678571Y-144092857D01*
X123654761Y-144140476D01*
X123630952Y-144164285D01*
X123583333Y-144188095D01*
X123392857Y-144188095D01*
X124154761Y-144426190D02*
X123869047Y-144426190D01*
X124011904Y-144426190D02*
X124011904Y-143926190D01*
X123964285Y-143997619D01*
X123916666Y-144045238D01*
X123869047Y-144069047D01*
X124464285Y-143926190D02*
X124511904Y-143926190D01*
X124559523Y-143950000D01*
X124583333Y-143973809D01*
X124607142Y-144021428D01*
X124630952Y-144116666D01*
X124630952Y-144235714D01*
X124607142Y-144330952D01*
X124583333Y-144378571D01*
X124559523Y-144402380D01*
X124511904Y-144426190D01*
X124464285Y-144426190D01*
X124416666Y-144402380D01*
X124392857Y-144378571D01*
X124369047Y-144330952D01*
X124345238Y-144235714D01*
X124345238Y-144116666D01*
X124369047Y-144021428D01*
X124392857Y-143973809D01*
X124416666Y-143950000D01*
X124464285Y-143926190D01*
X119116666Y-133426190D02*
X118950000Y-133188095D01*
X118830952Y-133426190D02*
X118830952Y-132926190D01*
X119021428Y-132926190D01*
X119069047Y-132950000D01*
X119092857Y-132973809D01*
X119116666Y-133021428D01*
X119116666Y-133092857D01*
X119092857Y-133140476D01*
X119069047Y-133164285D01*
X119021428Y-133188095D01*
X118830952Y-133188095D01*
X119354761Y-133426190D02*
X119450000Y-133426190D01*
X119497619Y-133402380D01*
X119521428Y-133378571D01*
X119569047Y-133307142D01*
X119592857Y-133211904D01*
X119592857Y-133021428D01*
X119569047Y-132973809D01*
X119545238Y-132950000D01*
X119497619Y-132926190D01*
X119402380Y-132926190D01*
X119354761Y-132950000D01*
X119330952Y-132973809D01*
X119307142Y-133021428D01*
X119307142Y-133140476D01*
X119330952Y-133188095D01*
X119354761Y-133211904D01*
X119402380Y-133235714D01*
X119497619Y-133235714D01*
X119545238Y-133211904D01*
X119569047Y-133188095D01*
X119592857Y-133140476D01*
X126716666Y-137426190D02*
X126550000Y-137188095D01*
X126430952Y-137426190D02*
X126430952Y-136926190D01*
X126621428Y-136926190D01*
X126669047Y-136950000D01*
X126692857Y-136973809D01*
X126716666Y-137021428D01*
X126716666Y-137092857D01*
X126692857Y-137140476D01*
X126669047Y-137164285D01*
X126621428Y-137188095D01*
X126430952Y-137188095D01*
X126883333Y-136926190D02*
X127216666Y-136926190D01*
X127002380Y-137426190D01*
X126816666Y-133426190D02*
X126650000Y-133188095D01*
X126530952Y-133426190D02*
X126530952Y-132926190D01*
X126721428Y-132926190D01*
X126769047Y-132950000D01*
X126792857Y-132973809D01*
X126816666Y-133021428D01*
X126816666Y-133092857D01*
X126792857Y-133140476D01*
X126769047Y-133164285D01*
X126721428Y-133188095D01*
X126530952Y-133188095D01*
X127245238Y-132926190D02*
X127150000Y-132926190D01*
X127102380Y-132950000D01*
X127078571Y-132973809D01*
X127030952Y-133045238D01*
X127007142Y-133140476D01*
X127007142Y-133330952D01*
X127030952Y-133378571D01*
X127054761Y-133402380D01*
X127102380Y-133426190D01*
X127197619Y-133426190D01*
X127245238Y-133402380D01*
X127269047Y-133378571D01*
X127292857Y-133330952D01*
X127292857Y-133211904D01*
X127269047Y-133164285D01*
X127245238Y-133140476D01*
X127197619Y-133116666D01*
X127102380Y-133116666D01*
X127054761Y-133140476D01*
X127030952Y-133164285D01*
X127007142Y-133211904D01*
X128316666Y-133426190D02*
X128150000Y-133188095D01*
X128030952Y-133426190D02*
X128030952Y-132926190D01*
X128221428Y-132926190D01*
X128269047Y-132950000D01*
X128292857Y-132973809D01*
X128316666Y-133021428D01*
X128316666Y-133092857D01*
X128292857Y-133140476D01*
X128269047Y-133164285D01*
X128221428Y-133188095D01*
X128030952Y-133188095D01*
X128769047Y-132926190D02*
X128530952Y-132926190D01*
X128507142Y-133164285D01*
X128530952Y-133140476D01*
X128578571Y-133116666D01*
X128697619Y-133116666D01*
X128745238Y-133140476D01*
X128769047Y-133164285D01*
X128792857Y-133211904D01*
X128792857Y-133330952D01*
X128769047Y-133378571D01*
X128745238Y-133402380D01*
X128697619Y-133426190D01*
X128578571Y-133426190D01*
X128530952Y-133402380D01*
X128507142Y-133378571D01*
X120916666Y-126626190D02*
X120750000Y-126388095D01*
X120630952Y-126626190D02*
X120630952Y-126126190D01*
X120821428Y-126126190D01*
X120869047Y-126150000D01*
X120892857Y-126173809D01*
X120916666Y-126221428D01*
X120916666Y-126292857D01*
X120892857Y-126340476D01*
X120869047Y-126364285D01*
X120821428Y-126388095D01*
X120630952Y-126388095D01*
X121345238Y-126292857D02*
X121345238Y-126626190D01*
X121226190Y-126102380D02*
X121107142Y-126459523D01*
X121416666Y-126459523D01*
X122516666Y-126626190D02*
X122350000Y-126388095D01*
X122230952Y-126626190D02*
X122230952Y-126126190D01*
X122421428Y-126126190D01*
X122469047Y-126150000D01*
X122492857Y-126173809D01*
X122516666Y-126221428D01*
X122516666Y-126292857D01*
X122492857Y-126340476D01*
X122469047Y-126364285D01*
X122421428Y-126388095D01*
X122230952Y-126388095D01*
X122683333Y-126126190D02*
X122992857Y-126126190D01*
X122826190Y-126316666D01*
X122897619Y-126316666D01*
X122945238Y-126340476D01*
X122969047Y-126364285D01*
X122992857Y-126411904D01*
X122992857Y-126530952D01*
X122969047Y-126578571D01*
X122945238Y-126602380D01*
X122897619Y-126626190D01*
X122754761Y-126626190D01*
X122707142Y-126602380D01*
X122683333Y-126578571D01*
X125916666Y-126626190D02*
X125750000Y-126388095D01*
X125630952Y-126626190D02*
X125630952Y-126126190D01*
X125821428Y-126126190D01*
X125869047Y-126150000D01*
X125892857Y-126173809D01*
X125916666Y-126221428D01*
X125916666Y-126292857D01*
X125892857Y-126340476D01*
X125869047Y-126364285D01*
X125821428Y-126388095D01*
X125630952Y-126388095D01*
X126107142Y-126173809D02*
X126130952Y-126150000D01*
X126178571Y-126126190D01*
X126297619Y-126126190D01*
X126345238Y-126150000D01*
X126369047Y-126173809D01*
X126392857Y-126221428D01*
X126392857Y-126269047D01*
X126369047Y-126340476D01*
X126083333Y-126626190D01*
X126392857Y-126626190D01*
X124316666Y-126626190D02*
X124150000Y-126388095D01*
X124030952Y-126626190D02*
X124030952Y-126126190D01*
X124221428Y-126126190D01*
X124269047Y-126150000D01*
X124292857Y-126173809D01*
X124316666Y-126221428D01*
X124316666Y-126292857D01*
X124292857Y-126340476D01*
X124269047Y-126364285D01*
X124221428Y-126388095D01*
X124030952Y-126388095D01*
X124792857Y-126626190D02*
X124507142Y-126626190D01*
X124650000Y-126626190D02*
X124650000Y-126126190D01*
X124602380Y-126197619D01*
X124554761Y-126245238D01*
X124507142Y-126269047D01*
D11*
X134304761Y-151022619D02*
X134209523Y-150975000D01*
X134114285Y-150879761D01*
X133971428Y-150736904D01*
X133876190Y-150689285D01*
X133780952Y-150689285D01*
X133828571Y-150927380D02*
X133733333Y-150879761D01*
X133638095Y-150784523D01*
X133590476Y-150594047D01*
X133590476Y-150260714D01*
X133638095Y-150070238D01*
X133733333Y-149975000D01*
X133828571Y-149927380D01*
X134019047Y-149927380D01*
X134114285Y-149975000D01*
X134209523Y-150070238D01*
X134257142Y-150260714D01*
X134257142Y-150594047D01*
X134209523Y-150784523D01*
X134114285Y-150879761D01*
X134019047Y-150927380D01*
X133828571Y-150927380D01*
X135209523Y-150927380D02*
X134638095Y-150927380D01*
X134923809Y-150927380D02*
X134923809Y-149927380D01*
X134828571Y-150070238D01*
X134733333Y-150165476D01*
X134638095Y-150213095D01*
X96350000Y-126189285D02*
X96350000Y-126725000D01*
X96314285Y-126832142D01*
X96242857Y-126903571D01*
X96135714Y-126939285D01*
X96064285Y-126939285D01*
X97100000Y-126939285D02*
X96671428Y-126939285D01*
X96885714Y-126939285D02*
X96885714Y-126189285D01*
X96814285Y-126296428D01*
X96742857Y-126367857D01*
X96671428Y-126403571D01*
D10*
X116050952Y-146536190D02*
X116050952Y-146036190D01*
X116170000Y-146036190D01*
X116241428Y-146060000D01*
X116289047Y-146107619D01*
X116312857Y-146155238D01*
X116336666Y-146250476D01*
X116336666Y-146321904D01*
X116312857Y-146417142D01*
X116289047Y-146464761D01*
X116241428Y-146512380D01*
X116170000Y-146536190D01*
X116050952Y-146536190D01*
X116503333Y-146036190D02*
X116812857Y-146036190D01*
X116646190Y-146226666D01*
X116717619Y-146226666D01*
X116765238Y-146250476D01*
X116789047Y-146274285D01*
X116812857Y-146321904D01*
X116812857Y-146440952D01*
X116789047Y-146488571D01*
X116765238Y-146512380D01*
X116717619Y-146536190D01*
X116574761Y-146536190D01*
X116527142Y-146512380D01*
X116503333Y-146488571D01*
X116050952Y-145036190D02*
X116050952Y-144536190D01*
X116170000Y-144536190D01*
X116241428Y-144560000D01*
X116289047Y-144607619D01*
X116312857Y-144655238D01*
X116336666Y-144750476D01*
X116336666Y-144821904D01*
X116312857Y-144917142D01*
X116289047Y-144964761D01*
X116241428Y-145012380D01*
X116170000Y-145036190D01*
X116050952Y-145036190D01*
X116527142Y-144583809D02*
X116550952Y-144560000D01*
X116598571Y-144536190D01*
X116717619Y-144536190D01*
X116765238Y-144560000D01*
X116789047Y-144583809D01*
X116812857Y-144631428D01*
X116812857Y-144679047D01*
X116789047Y-144750476D01*
X116503333Y-145036190D01*
X116812857Y-145036190D01*
X136930952Y-155776190D02*
X136930952Y-155276190D01*
X137050000Y-155276190D01*
X137121428Y-155300000D01*
X137169047Y-155347619D01*
X137192857Y-155395238D01*
X137216666Y-155490476D01*
X137216666Y-155561904D01*
X137192857Y-155657142D01*
X137169047Y-155704761D01*
X137121428Y-155752380D01*
X137050000Y-155776190D01*
X136930952Y-155776190D01*
X137692857Y-155776190D02*
X137407142Y-155776190D01*
X137550000Y-155776190D02*
X137550000Y-155276190D01*
X137502380Y-155347619D01*
X137454761Y-155395238D01*
X137407142Y-155419047D01*
X87628571Y-143451428D02*
X87652380Y-143475238D01*
X87676190Y-143546666D01*
X87676190Y-143594285D01*
X87652380Y-143665714D01*
X87604761Y-143713333D01*
X87557142Y-143737142D01*
X87461904Y-143760952D01*
X87390476Y-143760952D01*
X87295238Y-143737142D01*
X87247619Y-143713333D01*
X87200000Y-143665714D01*
X87176190Y-143594285D01*
X87176190Y-143546666D01*
X87200000Y-143475238D01*
X87223809Y-143451428D01*
X87223809Y-143260952D02*
X87200000Y-143237142D01*
X87176190Y-143189523D01*
X87176190Y-143070476D01*
X87200000Y-143022857D01*
X87223809Y-142999047D01*
X87271428Y-142975238D01*
X87319047Y-142975238D01*
X87390476Y-142999047D01*
X87676190Y-143284761D01*
X87676190Y-142975238D01*
X87342857Y-142546666D02*
X87676190Y-142546666D01*
X87152380Y-142665714D02*
X87509523Y-142784761D01*
X87509523Y-142475238D01*
X89318571Y-143451428D02*
X89342380Y-143475238D01*
X89366190Y-143546666D01*
X89366190Y-143594285D01*
X89342380Y-143665714D01*
X89294761Y-143713333D01*
X89247142Y-143737142D01*
X89151904Y-143760952D01*
X89080476Y-143760952D01*
X88985238Y-143737142D01*
X88937619Y-143713333D01*
X88890000Y-143665714D01*
X88866190Y-143594285D01*
X88866190Y-143546666D01*
X88890000Y-143475238D01*
X88913809Y-143451428D01*
X88913809Y-143260952D02*
X88890000Y-143237142D01*
X88866190Y-143189523D01*
X88866190Y-143070476D01*
X88890000Y-143022857D01*
X88913809Y-142999047D01*
X88961428Y-142975238D01*
X89009047Y-142975238D01*
X89080476Y-142999047D01*
X89366190Y-143284761D01*
X89366190Y-142975238D01*
X88866190Y-142808571D02*
X88866190Y-142499047D01*
X89056666Y-142665714D01*
X89056666Y-142594285D01*
X89080476Y-142546666D01*
X89104285Y-142522857D01*
X89151904Y-142499047D01*
X89270952Y-142499047D01*
X89318571Y-142522857D01*
X89342380Y-142546666D01*
X89366190Y-142594285D01*
X89366190Y-142737142D01*
X89342380Y-142784761D01*
X89318571Y-142808571D01*
X125078571Y-155878571D02*
X125054761Y-155902380D01*
X124983333Y-155926190D01*
X124935714Y-155926190D01*
X124864285Y-155902380D01*
X124816666Y-155854761D01*
X124792857Y-155807142D01*
X124769047Y-155711904D01*
X124769047Y-155640476D01*
X124792857Y-155545238D01*
X124816666Y-155497619D01*
X124864285Y-155450000D01*
X124935714Y-155426190D01*
X124983333Y-155426190D01*
X125054761Y-155450000D01*
X125078571Y-155473809D01*
X125554761Y-155926190D02*
X125269047Y-155926190D01*
X125411904Y-155926190D02*
X125411904Y-155426190D01*
X125364285Y-155497619D01*
X125316666Y-155545238D01*
X125269047Y-155569047D01*
X125721428Y-155426190D02*
X126054761Y-155426190D01*
X125840476Y-155926190D01*
X114478571Y-132278571D02*
X114454761Y-132302380D01*
X114383333Y-132326190D01*
X114335714Y-132326190D01*
X114264285Y-132302380D01*
X114216666Y-132254761D01*
X114192857Y-132207142D01*
X114169047Y-132111904D01*
X114169047Y-132040476D01*
X114192857Y-131945238D01*
X114216666Y-131897619D01*
X114264285Y-131850000D01*
X114335714Y-131826190D01*
X114383333Y-131826190D01*
X114454761Y-131850000D01*
X114478571Y-131873809D01*
X114954761Y-132326190D02*
X114669047Y-132326190D01*
X114811904Y-132326190D02*
X114811904Y-131826190D01*
X114764285Y-131897619D01*
X114716666Y-131945238D01*
X114669047Y-131969047D01*
X115383333Y-131826190D02*
X115288095Y-131826190D01*
X115240476Y-131850000D01*
X115216666Y-131873809D01*
X115169047Y-131945238D01*
X115145238Y-132040476D01*
X115145238Y-132230952D01*
X115169047Y-132278571D01*
X115192857Y-132302380D01*
X115240476Y-132326190D01*
X115335714Y-132326190D01*
X115383333Y-132302380D01*
X115407142Y-132278571D01*
X115430952Y-132230952D01*
X115430952Y-132111904D01*
X115407142Y-132064285D01*
X115383333Y-132040476D01*
X115335714Y-132016666D01*
X115240476Y-132016666D01*
X115192857Y-132040476D01*
X115169047Y-132064285D01*
X115145238Y-132111904D01*
X116178571Y-143478571D02*
X116154761Y-143502380D01*
X116083333Y-143526190D01*
X116035714Y-143526190D01*
X115964285Y-143502380D01*
X115916666Y-143454761D01*
X115892857Y-143407142D01*
X115869047Y-143311904D01*
X115869047Y-143240476D01*
X115892857Y-143145238D01*
X115916666Y-143097619D01*
X115964285Y-143050000D01*
X116035714Y-143026190D01*
X116083333Y-143026190D01*
X116154761Y-143050000D01*
X116178571Y-143073809D01*
X116654761Y-143526190D02*
X116369047Y-143526190D01*
X116511904Y-143526190D02*
X116511904Y-143026190D01*
X116464285Y-143097619D01*
X116416666Y-143145238D01*
X116369047Y-143169047D01*
X116821428Y-143026190D02*
X117130952Y-143026190D01*
X116964285Y-143216666D01*
X117035714Y-143216666D01*
X117083333Y-143240476D01*
X117107142Y-143264285D01*
X117130952Y-143311904D01*
X117130952Y-143430952D01*
X117107142Y-143478571D01*
X117083333Y-143502380D01*
X117035714Y-143526190D01*
X116892857Y-143526190D01*
X116845238Y-143502380D01*
X116821428Y-143478571D01*
X102778571Y-132278571D02*
X102754761Y-132302380D01*
X102683333Y-132326190D01*
X102635714Y-132326190D01*
X102564285Y-132302380D01*
X102516666Y-132254761D01*
X102492857Y-132207142D01*
X102469047Y-132111904D01*
X102469047Y-132040476D01*
X102492857Y-131945238D01*
X102516666Y-131897619D01*
X102564285Y-131850000D01*
X102635714Y-131826190D01*
X102683333Y-131826190D01*
X102754761Y-131850000D01*
X102778571Y-131873809D01*
X103254761Y-132326190D02*
X102969047Y-132326190D01*
X103111904Y-132326190D02*
X103111904Y-131826190D01*
X103064285Y-131897619D01*
X103016666Y-131945238D01*
X102969047Y-131969047D01*
X103445238Y-131873809D02*
X103469047Y-131850000D01*
X103516666Y-131826190D01*
X103635714Y-131826190D01*
X103683333Y-131850000D01*
X103707142Y-131873809D01*
X103730952Y-131921428D01*
X103730952Y-131969047D01*
X103707142Y-132040476D01*
X103421428Y-132326190D01*
X103730952Y-132326190D01*
X117728571Y-143778571D02*
X117704761Y-143802380D01*
X117633333Y-143826190D01*
X117585714Y-143826190D01*
X117514285Y-143802380D01*
X117466666Y-143754761D01*
X117442857Y-143707142D01*
X117419047Y-143611904D01*
X117419047Y-143540476D01*
X117442857Y-143445238D01*
X117466666Y-143397619D01*
X117514285Y-143350000D01*
X117585714Y-143326190D01*
X117633333Y-143326190D01*
X117704761Y-143350000D01*
X117728571Y-143373809D01*
X118204761Y-143826190D02*
X117919047Y-143826190D01*
X118061904Y-143826190D02*
X118061904Y-143326190D01*
X118014285Y-143397619D01*
X117966666Y-143445238D01*
X117919047Y-143469047D01*
X118680952Y-143826190D02*
X118395238Y-143826190D01*
X118538095Y-143826190D02*
X118538095Y-143326190D01*
X118490476Y-143397619D01*
X118442857Y-143445238D01*
X118395238Y-143469047D01*
X118416666Y-155878571D02*
X118392857Y-155902380D01*
X118321428Y-155926190D01*
X118273809Y-155926190D01*
X118202380Y-155902380D01*
X118154761Y-155854761D01*
X118130952Y-155807142D01*
X118107142Y-155711904D01*
X118107142Y-155640476D01*
X118130952Y-155545238D01*
X118154761Y-155497619D01*
X118202380Y-155450000D01*
X118273809Y-155426190D01*
X118321428Y-155426190D01*
X118392857Y-155450000D01*
X118416666Y-155473809D01*
X118654761Y-155926190D02*
X118750000Y-155926190D01*
X118797619Y-155902380D01*
X118821428Y-155878571D01*
X118869047Y-155807142D01*
X118892857Y-155711904D01*
X118892857Y-155521428D01*
X118869047Y-155473809D01*
X118845238Y-155450000D01*
X118797619Y-155426190D01*
X118702380Y-155426190D01*
X118654761Y-155450000D01*
X118630952Y-155473809D01*
X118607142Y-155521428D01*
X118607142Y-155640476D01*
X118630952Y-155688095D01*
X118654761Y-155711904D01*
X118702380Y-155735714D01*
X118797619Y-155735714D01*
X118845238Y-155711904D01*
X118869047Y-155688095D01*
X118892857Y-155640476D01*
X120116666Y-155878571D02*
X120092857Y-155902380D01*
X120021428Y-155926190D01*
X119973809Y-155926190D01*
X119902380Y-155902380D01*
X119854761Y-155854761D01*
X119830952Y-155807142D01*
X119807142Y-155711904D01*
X119807142Y-155640476D01*
X119830952Y-155545238D01*
X119854761Y-155497619D01*
X119902380Y-155450000D01*
X119973809Y-155426190D01*
X120021428Y-155426190D01*
X120092857Y-155450000D01*
X120116666Y-155473809D01*
X120283333Y-155426190D02*
X120616666Y-155426190D01*
X120402380Y-155926190D01*
X122666666Y-152078571D02*
X122642857Y-152102380D01*
X122571428Y-152126190D01*
X122523809Y-152126190D01*
X122452380Y-152102380D01*
X122404761Y-152054761D01*
X122380952Y-152007142D01*
X122357142Y-151911904D01*
X122357142Y-151840476D01*
X122380952Y-151745238D01*
X122404761Y-151697619D01*
X122452380Y-151650000D01*
X122523809Y-151626190D01*
X122571428Y-151626190D01*
X122642857Y-151650000D01*
X122666666Y-151673809D01*
X123095238Y-151626190D02*
X123000000Y-151626190D01*
X122952380Y-151650000D01*
X122928571Y-151673809D01*
X122880952Y-151745238D01*
X122857142Y-151840476D01*
X122857142Y-152030952D01*
X122880952Y-152078571D01*
X122904761Y-152102380D01*
X122952380Y-152126190D01*
X123047619Y-152126190D01*
X123095238Y-152102380D01*
X123119047Y-152078571D01*
X123142857Y-152030952D01*
X123142857Y-151911904D01*
X123119047Y-151864285D01*
X123095238Y-151840476D01*
X123047619Y-151816666D01*
X122952380Y-151816666D01*
X122904761Y-151840476D01*
X122880952Y-151864285D01*
X122857142Y-151911904D01*
X128316666Y-137378571D02*
X128292857Y-137402380D01*
X128221428Y-137426190D01*
X128173809Y-137426190D01*
X128102380Y-137402380D01*
X128054761Y-137354761D01*
X128030952Y-137307142D01*
X128007142Y-137211904D01*
X128007142Y-137140476D01*
X128030952Y-137045238D01*
X128054761Y-136997619D01*
X128102380Y-136950000D01*
X128173809Y-136926190D01*
X128221428Y-136926190D01*
X128292857Y-136950000D01*
X128316666Y-136973809D01*
X128769047Y-136926190D02*
X128530952Y-136926190D01*
X128507142Y-137164285D01*
X128530952Y-137140476D01*
X128578571Y-137116666D01*
X128697619Y-137116666D01*
X128745238Y-137140476D01*
X128769047Y-137164285D01*
X128792857Y-137211904D01*
X128792857Y-137330952D01*
X128769047Y-137378571D01*
X128745238Y-137402380D01*
X128697619Y-137426190D01*
X128578571Y-137426190D01*
X128530952Y-137402380D01*
X128507142Y-137378571D01*
X119316666Y-126578571D02*
X119292857Y-126602380D01*
X119221428Y-126626190D01*
X119173809Y-126626190D01*
X119102380Y-126602380D01*
X119054761Y-126554761D01*
X119030952Y-126507142D01*
X119007142Y-126411904D01*
X119007142Y-126340476D01*
X119030952Y-126245238D01*
X119054761Y-126197619D01*
X119102380Y-126150000D01*
X119173809Y-126126190D01*
X119221428Y-126126190D01*
X119292857Y-126150000D01*
X119316666Y-126173809D01*
X119745238Y-126292857D02*
X119745238Y-126626190D01*
X119626190Y-126102380D02*
X119507142Y-126459523D01*
X119816666Y-126459523D01*
X122316666Y-144378571D02*
X122292857Y-144402380D01*
X122221428Y-144426190D01*
X122173809Y-144426190D01*
X122102380Y-144402380D01*
X122054761Y-144354761D01*
X122030952Y-144307142D01*
X122007142Y-144211904D01*
X122007142Y-144140476D01*
X122030952Y-144045238D01*
X122054761Y-143997619D01*
X122102380Y-143950000D01*
X122173809Y-143926190D01*
X122221428Y-143926190D01*
X122292857Y-143950000D01*
X122316666Y-143973809D01*
X122483333Y-143926190D02*
X122792857Y-143926190D01*
X122626190Y-144116666D01*
X122697619Y-144116666D01*
X122745238Y-144140476D01*
X122769047Y-144164285D01*
X122792857Y-144211904D01*
X122792857Y-144330952D01*
X122769047Y-144378571D01*
X122745238Y-144402380D01*
X122697619Y-144426190D01*
X122554761Y-144426190D01*
X122507142Y-144402380D01*
X122483333Y-144378571D01*
X132916666Y-133578571D02*
X132892857Y-133602380D01*
X132821428Y-133626190D01*
X132773809Y-133626190D01*
X132702380Y-133602380D01*
X132654761Y-133554761D01*
X132630952Y-133507142D01*
X132607142Y-133411904D01*
X132607142Y-133340476D01*
X132630952Y-133245238D01*
X132654761Y-133197619D01*
X132702380Y-133150000D01*
X132773809Y-133126190D01*
X132821428Y-133126190D01*
X132892857Y-133150000D01*
X132916666Y-133173809D01*
X133107142Y-133173809D02*
X133130952Y-133150000D01*
X133178571Y-133126190D01*
X133297619Y-133126190D01*
X133345238Y-133150000D01*
X133369047Y-133173809D01*
X133392857Y-133221428D01*
X133392857Y-133269047D01*
X133369047Y-133340476D01*
X133083333Y-133626190D01*
X133392857Y-133626190D01*
X127516666Y-126578571D02*
X127492857Y-126602380D01*
X127421428Y-126626190D01*
X127373809Y-126626190D01*
X127302380Y-126602380D01*
X127254761Y-126554761D01*
X127230952Y-126507142D01*
X127207142Y-126411904D01*
X127207142Y-126340476D01*
X127230952Y-126245238D01*
X127254761Y-126197619D01*
X127302380Y-126150000D01*
X127373809Y-126126190D01*
X127421428Y-126126190D01*
X127492857Y-126150000D01*
X127516666Y-126173809D01*
X127992857Y-126626190D02*
X127707142Y-126626190D01*
X127850000Y-126626190D02*
X127850000Y-126126190D01*
X127802380Y-126197619D01*
X127754761Y-126245238D01*
X127707142Y-126269047D01*
M02*
