G04 #@! TF.GenerationSoftware,KiCad,Pcbnew,5.1.5+dfsg1-2build2*
G04 #@! TF.CreationDate,2021-11-24T23:00:56+01:00*
G04 #@! TF.ProjectId,mre_addon_v2,6d72655f-6164-4646-9f6e-5f76322e6b69,V2.0*
G04 #@! TF.SameCoordinates,Original*
G04 #@! TF.FileFunction,Legend,Bot*
G04 #@! TF.FilePolarity,Positive*
%FSLAX46Y46*%
G04 Gerber Fmt 4.6, Leading zero omitted, Abs format (unit mm)*
G04 Created by KiCad (PCBNEW 5.1.5+dfsg1-2build2) date 2021-11-24 23:00:56*
%MOMM*%
%LPD*%
G04 APERTURE LIST*
%ADD10C,0.150000*%
%ADD11C,0.120000*%
%ADD12C,0.187500*%
%ADD13C,0.125000*%
%ADD14C,0.250000*%
%ADD15C,0.254000*%
%ADD16C,0.010000*%
%ADD17C,0.130000*%
%ADD18C,0.101600*%
G04 APERTURE END LIST*
D10*
X87540312Y-133216666D02*
X87452812Y-132516666D01*
X87140312Y-133216666D02*
X87390312Y-132816666D01*
X87052812Y-132516666D02*
X87502812Y-132916666D01*
X86273645Y-132950000D02*
X85740312Y-132950000D01*
X84919479Y-132516666D02*
X84519479Y-132516666D01*
X84806979Y-133216666D02*
X84719479Y-132516666D01*
X84373645Y-133216666D02*
X84286145Y-132516666D01*
X84073645Y-133216666D02*
X84027812Y-132850000D01*
X84052812Y-132783333D01*
X84115312Y-132750000D01*
X84215312Y-132750000D01*
X84286145Y-132783333D01*
X84323645Y-132816666D01*
X83469479Y-133183333D02*
X83540312Y-133216666D01*
X83673645Y-133216666D01*
X83736145Y-133183333D01*
X83761145Y-133116666D01*
X83727812Y-132850000D01*
X83686145Y-132783333D01*
X83615312Y-132750000D01*
X83481979Y-132750000D01*
X83419479Y-132783333D01*
X83394479Y-132850000D01*
X83402812Y-132916666D01*
X83744479Y-132983333D01*
X83140312Y-133216666D02*
X83081979Y-132750000D01*
X83098645Y-132883333D02*
X83056979Y-132816666D01*
X83019479Y-132783333D01*
X82948645Y-132750000D01*
X82881979Y-132750000D01*
X82706979Y-133216666D02*
X82648645Y-132750000D01*
X82656979Y-132816666D02*
X82619479Y-132783333D01*
X82548645Y-132750000D01*
X82448645Y-132750000D01*
X82386145Y-132783333D01*
X82361145Y-132850000D01*
X82406979Y-133216666D01*
X82361145Y-132850000D02*
X82319479Y-132783333D01*
X82248645Y-132750000D01*
X82148645Y-132750000D01*
X82086145Y-132783333D01*
X82061145Y-132850000D01*
X82106979Y-133216666D01*
X81673645Y-133216666D02*
X81736145Y-133183333D01*
X81765312Y-133150000D01*
X81790312Y-133083333D01*
X81765312Y-132883333D01*
X81723645Y-132816666D01*
X81686145Y-132783333D01*
X81615312Y-132750000D01*
X81515312Y-132750000D01*
X81452812Y-132783333D01*
X81423645Y-132816666D01*
X81398645Y-132883333D01*
X81423645Y-133083333D01*
X81465312Y-133150000D01*
X81502812Y-133183333D01*
X81573645Y-133216666D01*
X81673645Y-133216666D01*
X80836145Y-133183333D02*
X80906979Y-133216666D01*
X81040312Y-133216666D01*
X81102812Y-133183333D01*
X81131979Y-133150000D01*
X81156979Y-133083333D01*
X81131979Y-132883333D01*
X81090312Y-132816666D01*
X81052812Y-132783333D01*
X80981979Y-132750000D01*
X80848645Y-132750000D01*
X80786145Y-132783333D01*
X80440312Y-133216666D02*
X80502812Y-133183333D01*
X80531979Y-133150000D01*
X80556979Y-133083333D01*
X80531979Y-132883333D01*
X80490312Y-132816666D01*
X80452812Y-132783333D01*
X80381979Y-132750000D01*
X80281979Y-132750000D01*
X80219479Y-132783333D01*
X80190312Y-132816666D01*
X80165312Y-132883333D01*
X80190312Y-133083333D01*
X80231979Y-133150000D01*
X80269479Y-133183333D01*
X80340312Y-133216666D01*
X80440312Y-133216666D01*
X79548645Y-132750000D02*
X79606979Y-133216666D01*
X79848645Y-132750000D02*
X79894479Y-133116666D01*
X79869479Y-133183333D01*
X79806979Y-133216666D01*
X79706979Y-133216666D01*
X79636145Y-133183333D01*
X79598645Y-133150000D01*
X79215312Y-132750000D02*
X79302812Y-133450000D01*
X79219479Y-132783333D02*
X79148645Y-132750000D01*
X79015312Y-132750000D01*
X78952812Y-132783333D01*
X78923645Y-132816666D01*
X78898645Y-132883333D01*
X78923645Y-133083333D01*
X78965312Y-133150000D01*
X79002812Y-133183333D01*
X79073645Y-133216666D01*
X79206979Y-133216666D01*
X79269479Y-133183333D01*
X78540312Y-133216666D02*
X78602812Y-133183333D01*
X78627812Y-133116666D01*
X78552812Y-132516666D01*
X78002812Y-133183333D02*
X78073645Y-133216666D01*
X78206979Y-133216666D01*
X78269479Y-133183333D01*
X78294479Y-133116666D01*
X78261145Y-132850000D01*
X78219479Y-132783333D01*
X78148645Y-132750000D01*
X78015312Y-132750000D01*
X77952812Y-132783333D01*
X77927812Y-132850000D01*
X77936145Y-132916666D01*
X78277812Y-132983333D01*
X113652380Y-137414285D02*
X112652380Y-137414285D01*
X113128571Y-137414285D02*
X113128571Y-137985714D01*
X113652380Y-137985714D02*
X112652380Y-137985714D01*
X113652380Y-135309523D02*
X113652380Y-134833333D01*
X112652380Y-134833333D01*
D11*
X89500000Y-126100000D02*
X77500000Y-126100000D01*
X89500000Y-133800000D02*
X89500000Y-126100000D01*
X77500000Y-133800000D02*
X89500000Y-133800000D01*
X77500000Y-126100000D02*
X77500000Y-133800000D01*
D12*
X85767857Y-126733035D02*
X85339285Y-126733035D01*
X85553571Y-127483035D02*
X85553571Y-126733035D01*
X84660714Y-127411607D02*
X84696428Y-127447321D01*
X84803571Y-127483035D01*
X84875000Y-127483035D01*
X84982142Y-127447321D01*
X85053571Y-127375892D01*
X85089285Y-127304464D01*
X85125000Y-127161607D01*
X85125000Y-127054464D01*
X85089285Y-126911607D01*
X85053571Y-126840178D01*
X84982142Y-126768750D01*
X84875000Y-126733035D01*
X84803571Y-126733035D01*
X84696428Y-126768750D01*
X84660714Y-126804464D01*
X84339285Y-127483035D02*
X84339285Y-126733035D01*
X84053571Y-126733035D01*
X83982142Y-126768750D01*
X83946428Y-126804464D01*
X83910714Y-126875892D01*
X83910714Y-126983035D01*
X83946428Y-127054464D01*
X83982142Y-127090178D01*
X84053571Y-127125892D01*
X84339285Y-127125892D01*
X83232142Y-127483035D02*
X83589285Y-127483035D01*
X83589285Y-126733035D01*
X84785714Y-128509821D02*
X84214285Y-128509821D01*
X84500000Y-128795535D02*
X84500000Y-128224107D01*
X88755189Y-126733035D02*
X88326618Y-126733035D01*
X88634654Y-127483035D02*
X88540904Y-126733035D01*
X87732868Y-127411607D02*
X87773046Y-127447321D01*
X87884654Y-127483035D01*
X87956082Y-127483035D01*
X88058761Y-127447321D01*
X88121261Y-127375892D01*
X88148046Y-127304464D01*
X88165904Y-127161607D01*
X88152511Y-127054464D01*
X88098939Y-126911607D01*
X88054296Y-126840178D01*
X87973939Y-126768750D01*
X87862332Y-126733035D01*
X87790904Y-126733035D01*
X87688225Y-126768750D01*
X87656975Y-126804464D01*
X87420368Y-127483035D02*
X87326618Y-126733035D01*
X87040904Y-126733035D01*
X86973939Y-126768750D01*
X86942689Y-126804464D01*
X86915904Y-126875892D01*
X86929296Y-126983035D01*
X86973939Y-127054464D01*
X87014118Y-127090178D01*
X87090011Y-127125892D01*
X87375725Y-127125892D01*
X86313225Y-127483035D02*
X86670368Y-127483035D01*
X86576618Y-126733035D01*
X87831082Y-128509821D02*
X87259654Y-128509821D01*
D11*
X147400000Y-143400000D02*
X142000000Y-143400000D01*
X147400000Y-151800000D02*
X147400000Y-143400000D01*
X142000000Y-151800000D02*
X147400000Y-151800000D01*
X142000000Y-143400000D02*
X142000000Y-151800000D01*
D12*
X155507142Y-147283035D02*
X155507142Y-146533035D01*
X155507142Y-146890178D02*
X155078571Y-146890178D01*
X155078571Y-147283035D02*
X155078571Y-146533035D01*
X154435714Y-147247321D02*
X154507142Y-147283035D01*
X154650000Y-147283035D01*
X154721428Y-147247321D01*
X154757142Y-147175892D01*
X154757142Y-146890178D01*
X154721428Y-146818750D01*
X154650000Y-146783035D01*
X154507142Y-146783035D01*
X154435714Y-146818750D01*
X154400000Y-146890178D01*
X154400000Y-146961607D01*
X154757142Y-147033035D01*
X153757142Y-147283035D02*
X153757142Y-146890178D01*
X153792857Y-146818750D01*
X153864285Y-146783035D01*
X154007142Y-146783035D01*
X154078571Y-146818750D01*
X153757142Y-147247321D02*
X153828571Y-147283035D01*
X154007142Y-147283035D01*
X154078571Y-147247321D01*
X154114285Y-147175892D01*
X154114285Y-147104464D01*
X154078571Y-147033035D01*
X154007142Y-146997321D01*
X153828571Y-146997321D01*
X153757142Y-146961607D01*
X153507142Y-146783035D02*
X153221428Y-146783035D01*
X153400000Y-146533035D02*
X153400000Y-147175892D01*
X153364285Y-147247321D01*
X153292857Y-147283035D01*
X153221428Y-147283035D01*
X152685714Y-147247321D02*
X152757142Y-147283035D01*
X152900000Y-147283035D01*
X152971428Y-147247321D01*
X153007142Y-147175892D01*
X153007142Y-146890178D01*
X152971428Y-146818750D01*
X152900000Y-146783035D01*
X152757142Y-146783035D01*
X152685714Y-146818750D01*
X152650000Y-146890178D01*
X152650000Y-146961607D01*
X153007142Y-147033035D01*
X152328571Y-147283035D02*
X152328571Y-146783035D01*
X152328571Y-146925892D02*
X152292857Y-146854464D01*
X152257142Y-146818750D01*
X152185714Y-146783035D01*
X152114285Y-146783035D01*
X151864285Y-146997321D02*
X151292857Y-146997321D01*
X151578571Y-147283035D02*
X151578571Y-146711607D01*
X154239285Y-147881250D02*
X154310714Y-147845535D01*
X154417857Y-147845535D01*
X154525000Y-147881250D01*
X154596428Y-147952678D01*
X154632142Y-148024107D01*
X154667857Y-148166964D01*
X154667857Y-148274107D01*
X154632142Y-148416964D01*
X154596428Y-148488392D01*
X154525000Y-148559821D01*
X154417857Y-148595535D01*
X154346428Y-148595535D01*
X154239285Y-148559821D01*
X154203571Y-148524107D01*
X154203571Y-148274107D01*
X154346428Y-148274107D01*
X153453571Y-148595535D02*
X153703571Y-148238392D01*
X153882142Y-148595535D02*
X153882142Y-147845535D01*
X153596428Y-147845535D01*
X153525000Y-147881250D01*
X153489285Y-147916964D01*
X153453571Y-147988392D01*
X153453571Y-148095535D01*
X153489285Y-148166964D01*
X153525000Y-148202678D01*
X153596428Y-148238392D01*
X153882142Y-148238392D01*
X153132142Y-148202678D02*
X152882142Y-148202678D01*
X152775000Y-148595535D02*
X153132142Y-148595535D01*
X153132142Y-147845535D01*
X152775000Y-147845535D01*
X152310714Y-148238392D02*
X152310714Y-148595535D01*
X152560714Y-147845535D02*
X152310714Y-148238392D01*
X152060714Y-147845535D01*
X151816796Y-150283035D02*
X152173939Y-150283035D01*
X152080189Y-149533035D01*
X151598046Y-150247321D02*
X151495368Y-150283035D01*
X151316796Y-150283035D01*
X151240904Y-150247321D01*
X151200725Y-150211607D01*
X151156082Y-150140178D01*
X151147154Y-150068750D01*
X151173939Y-149997321D01*
X151205189Y-149961607D01*
X151272154Y-149925892D01*
X151410546Y-149890178D01*
X151477511Y-149854464D01*
X151508761Y-149818750D01*
X151535546Y-149747321D01*
X151526618Y-149675892D01*
X151481975Y-149604464D01*
X151441796Y-149568750D01*
X151365904Y-149533035D01*
X151187332Y-149533035D01*
X151084654Y-149568750D01*
X150758761Y-149533035D02*
X150834654Y-150140178D01*
X150807868Y-150211607D01*
X150776618Y-150247321D01*
X150709654Y-150283035D01*
X150566796Y-150283035D01*
X150490904Y-150247321D01*
X150450725Y-150211607D01*
X150406082Y-150140178D01*
X150330189Y-149533035D01*
X149401618Y-149533035D02*
X149477511Y-150140178D01*
X149450725Y-150211607D01*
X149419475Y-150247321D01*
X149352511Y-150283035D01*
X149209654Y-150283035D01*
X149133761Y-150247321D01*
X149093582Y-150211607D01*
X149048939Y-150140178D01*
X148973046Y-149533035D01*
X148647154Y-149783035D02*
X148709654Y-150283035D01*
X148656082Y-149854464D02*
X148615904Y-149818750D01*
X148540011Y-149783035D01*
X148432868Y-149783035D01*
X148365904Y-149818750D01*
X148339118Y-149890178D01*
X148388225Y-150283035D01*
X151553404Y-151202678D02*
X151450725Y-151238392D01*
X151419475Y-151274107D01*
X151392689Y-151345535D01*
X151406082Y-151452678D01*
X151450725Y-151524107D01*
X151490904Y-151559821D01*
X151566796Y-151595535D01*
X151852511Y-151595535D01*
X151758761Y-150845535D01*
X151508761Y-150845535D01*
X151441796Y-150881250D01*
X151410546Y-150916964D01*
X151383761Y-150988392D01*
X151392689Y-151059821D01*
X151437332Y-151131250D01*
X151477511Y-151166964D01*
X151553404Y-151202678D01*
X151803404Y-151202678D01*
X150745368Y-151595535D02*
X151102511Y-151595535D01*
X151008761Y-150845535D01*
X150504296Y-151381250D02*
X150147154Y-151381250D01*
X150602511Y-151595535D02*
X150258761Y-150845535D01*
X150102511Y-151595535D01*
X149415011Y-151524107D02*
X149455189Y-151559821D01*
X149566796Y-151595535D01*
X149638225Y-151595535D01*
X149740904Y-151559821D01*
X149803404Y-151488392D01*
X149830189Y-151416964D01*
X149848046Y-151274107D01*
X149834654Y-151166964D01*
X149781082Y-151024107D01*
X149736439Y-150952678D01*
X149656082Y-150881250D01*
X149544475Y-150845535D01*
X149473046Y-150845535D01*
X149370368Y-150881250D01*
X149339118Y-150916964D01*
X149102511Y-151595535D02*
X149008761Y-150845535D01*
X148673939Y-151595535D02*
X148941796Y-151166964D01*
X148580189Y-150845535D02*
X149062332Y-151274107D01*
X152106082Y-144283035D02*
X152463225Y-144283035D01*
X152369475Y-143533035D01*
X151887332Y-144247321D02*
X151784654Y-144283035D01*
X151606082Y-144283035D01*
X151530189Y-144247321D01*
X151490011Y-144211607D01*
X151445368Y-144140178D01*
X151436439Y-144068750D01*
X151463225Y-143997321D01*
X151494475Y-143961607D01*
X151561439Y-143925892D01*
X151699832Y-143890178D01*
X151766796Y-143854464D01*
X151798046Y-143818750D01*
X151824832Y-143747321D01*
X151815904Y-143675892D01*
X151771261Y-143604464D01*
X151731082Y-143568750D01*
X151655189Y-143533035D01*
X151476618Y-143533035D01*
X151373939Y-143568750D01*
X151048046Y-143533035D02*
X151123939Y-144140178D01*
X151097154Y-144211607D01*
X151065904Y-144247321D01*
X150998939Y-144283035D01*
X150856082Y-144283035D01*
X150780189Y-144247321D01*
X150740011Y-144211607D01*
X150695368Y-144140178D01*
X150619475Y-143533035D01*
X149798046Y-143533035D02*
X149641796Y-144283035D01*
X149298046Y-143533035D01*
X149141796Y-144283035D02*
X149079296Y-143783035D01*
X149088225Y-143854464D02*
X149048046Y-143818750D01*
X148972154Y-143783035D01*
X148865011Y-143783035D01*
X148798046Y-143818750D01*
X148771261Y-143890178D01*
X148820368Y-144283035D01*
X148771261Y-143890178D02*
X148726618Y-143818750D01*
X148650725Y-143783035D01*
X148543582Y-143783035D01*
X148476618Y-143818750D01*
X148449832Y-143890178D01*
X148498939Y-144283035D01*
X152204296Y-145238392D02*
X152248939Y-145595535D01*
X152405189Y-144845535D02*
X152204296Y-145238392D01*
X151905189Y-144845535D01*
X151699832Y-145202678D02*
X151449832Y-145202678D01*
X151391796Y-145595535D02*
X151748939Y-145595535D01*
X151655189Y-144845535D01*
X151298046Y-144845535D01*
X150713225Y-145595535D02*
X151070368Y-145595535D01*
X150976618Y-144845535D01*
X150106082Y-145595535D02*
X150463225Y-145595535D01*
X150369475Y-144845535D01*
X149619475Y-144845535D02*
X149476618Y-144845535D01*
X149409654Y-144881250D01*
X149347154Y-144952678D01*
X149329296Y-145095535D01*
X149360546Y-145345535D01*
X149414118Y-145488392D01*
X149494475Y-145559821D01*
X149570368Y-145595535D01*
X149713225Y-145595535D01*
X149780189Y-145559821D01*
X149842689Y-145488392D01*
X149860546Y-145345535D01*
X149829296Y-145095535D01*
X149775725Y-144952678D01*
X149695368Y-144881250D01*
X149619475Y-144845535D01*
X149048046Y-144845535D02*
X148963225Y-145595535D01*
X148753404Y-145059821D01*
X148677511Y-145595535D01*
X148405189Y-144845535D01*
X140802511Y-144483035D02*
X141159654Y-144483035D01*
X141065904Y-143733035D01*
X140583761Y-144447321D02*
X140481082Y-144483035D01*
X140302511Y-144483035D01*
X140226618Y-144447321D01*
X140186439Y-144411607D01*
X140141796Y-144340178D01*
X140132868Y-144268750D01*
X140159654Y-144197321D01*
X140190904Y-144161607D01*
X140257868Y-144125892D01*
X140396261Y-144090178D01*
X140463225Y-144054464D01*
X140494475Y-144018750D01*
X140521261Y-143947321D01*
X140512332Y-143875892D01*
X140467689Y-143804464D01*
X140427511Y-143768750D01*
X140351618Y-143733035D01*
X140173046Y-143733035D01*
X140070368Y-143768750D01*
X139744475Y-143733035D02*
X139820368Y-144340178D01*
X139793582Y-144411607D01*
X139762332Y-144447321D01*
X139695368Y-144483035D01*
X139552511Y-144483035D01*
X139476618Y-144447321D01*
X139436439Y-144411607D01*
X139391796Y-144340178D01*
X139315904Y-143733035D01*
X138481082Y-144483035D02*
X138387332Y-143733035D01*
X138061439Y-143983035D02*
X138155189Y-144733035D01*
X138065904Y-144018750D02*
X137990011Y-143983035D01*
X137847154Y-143983035D01*
X137780189Y-144018750D01*
X137748939Y-144054464D01*
X137722154Y-144125892D01*
X137748939Y-144340178D01*
X137793582Y-144411607D01*
X137833761Y-144447321D01*
X137909654Y-144483035D01*
X138052511Y-144483035D01*
X138119475Y-144447321D01*
X139963225Y-145795535D02*
X140168582Y-145438392D01*
X140391796Y-145795535D02*
X140298046Y-145045535D01*
X140012332Y-145045535D01*
X139945368Y-145081250D01*
X139914118Y-145116964D01*
X139887332Y-145188392D01*
X139900725Y-145295535D01*
X139945368Y-145366964D01*
X139985546Y-145402678D01*
X140061439Y-145438392D01*
X140347154Y-145438392D01*
X139592689Y-145402678D02*
X139342689Y-145402678D01*
X139284654Y-145795535D02*
X139641796Y-145795535D01*
X139548046Y-145045535D01*
X139190904Y-145045535D01*
X138963225Y-145795535D02*
X138869475Y-145045535D01*
X138690904Y-145045535D01*
X138588225Y-145081250D01*
X138525725Y-145152678D01*
X138498939Y-145224107D01*
X138481082Y-145366964D01*
X138494475Y-145474107D01*
X138548046Y-145616964D01*
X138592689Y-145688392D01*
X138673046Y-145759821D01*
X138784654Y-145795535D01*
X138963225Y-145795535D01*
X141188225Y-147283035D02*
X141094475Y-146533035D01*
X141139118Y-146890178D02*
X140710546Y-146890178D01*
X140759654Y-147283035D02*
X140665904Y-146533035D01*
X140112332Y-147247321D02*
X140188225Y-147283035D01*
X140331082Y-147283035D01*
X140398046Y-147247321D01*
X140424832Y-147175892D01*
X140389118Y-146890178D01*
X140344475Y-146818750D01*
X140268582Y-146783035D01*
X140125725Y-146783035D01*
X140058761Y-146818750D01*
X140031975Y-146890178D01*
X140040904Y-146961607D01*
X140406975Y-147033035D01*
X139438225Y-147283035D02*
X139389118Y-146890178D01*
X139415904Y-146818750D01*
X139482868Y-146783035D01*
X139625725Y-146783035D01*
X139701618Y-146818750D01*
X139433761Y-147247321D02*
X139509654Y-147283035D01*
X139688225Y-147283035D01*
X139755189Y-147247321D01*
X139781975Y-147175892D01*
X139773046Y-147104464D01*
X139728404Y-147033035D01*
X139652511Y-146997321D01*
X139473939Y-146997321D01*
X139398046Y-146961607D01*
X139125725Y-146783035D02*
X138840011Y-146783035D01*
X138987332Y-146533035D02*
X139067689Y-147175892D01*
X139040904Y-147247321D01*
X138973939Y-147283035D01*
X138902511Y-147283035D01*
X138362332Y-147247321D02*
X138438225Y-147283035D01*
X138581082Y-147283035D01*
X138648046Y-147247321D01*
X138674832Y-147175892D01*
X138639118Y-146890178D01*
X138594475Y-146818750D01*
X138518582Y-146783035D01*
X138375725Y-146783035D01*
X138308761Y-146818750D01*
X138281975Y-146890178D01*
X138290904Y-146961607D01*
X138656975Y-147033035D01*
X138009654Y-147283035D02*
X137947154Y-146783035D01*
X137965011Y-146925892D02*
X137920368Y-146854464D01*
X137880189Y-146818750D01*
X137804296Y-146783035D01*
X137732868Y-146783035D01*
X137509654Y-146997321D02*
X136938225Y-146997321D01*
X140505189Y-147845535D02*
X140420368Y-148595535D01*
X140210546Y-148059821D01*
X140134654Y-148595535D01*
X139862332Y-147845535D01*
X139670368Y-148595535D02*
X139576618Y-147845535D01*
X139621261Y-148202678D02*
X139192689Y-148202678D01*
X139241796Y-148595535D02*
X139148046Y-147845535D01*
X138884654Y-148595535D02*
X138790904Y-147845535D01*
X138540904Y-147845535D02*
X138112332Y-147845535D01*
X138420368Y-148595535D02*
X138326618Y-147845535D01*
X137906975Y-148202678D02*
X137656975Y-148202678D01*
X137598939Y-148595535D02*
X137956082Y-148595535D01*
X137862332Y-147845535D01*
X137505189Y-147845535D01*
X140784654Y-150483035D02*
X141141796Y-150483035D01*
X141048046Y-149733035D01*
X140565904Y-150447321D02*
X140463225Y-150483035D01*
X140284654Y-150483035D01*
X140208761Y-150447321D01*
X140168582Y-150411607D01*
X140123939Y-150340178D01*
X140115011Y-150268750D01*
X140141796Y-150197321D01*
X140173046Y-150161607D01*
X140240011Y-150125892D01*
X140378404Y-150090178D01*
X140445368Y-150054464D01*
X140476618Y-150018750D01*
X140503404Y-149947321D01*
X140494475Y-149875892D01*
X140449832Y-149804464D01*
X140409654Y-149768750D01*
X140333761Y-149733035D01*
X140155189Y-149733035D01*
X140052511Y-149768750D01*
X139726618Y-149733035D02*
X139802511Y-150340178D01*
X139775725Y-150411607D01*
X139744475Y-150447321D01*
X139677511Y-150483035D01*
X139534654Y-150483035D01*
X139458761Y-150447321D01*
X139418582Y-150411607D01*
X139373939Y-150340178D01*
X139298046Y-149733035D01*
X138034654Y-150483035D02*
X138240011Y-150125892D01*
X138463225Y-150483035D02*
X138369475Y-149733035D01*
X138083761Y-149733035D01*
X138016796Y-149768750D01*
X137985546Y-149804464D01*
X137958761Y-149875892D01*
X137972154Y-149983035D01*
X138016796Y-150054464D01*
X138056975Y-150090178D01*
X138132868Y-150125892D01*
X138418582Y-150125892D01*
X137757868Y-149983035D02*
X137472154Y-149983035D01*
X137619475Y-149733035D02*
X137699832Y-150375892D01*
X137673046Y-150447321D01*
X137606082Y-150483035D01*
X137534654Y-150483035D01*
X137284654Y-150483035D02*
X137222154Y-149983035D01*
X137240011Y-150125892D02*
X137195368Y-150054464D01*
X137155189Y-150018750D01*
X137079296Y-149983035D01*
X137007868Y-149983035D01*
X136820368Y-150483035D02*
X136757868Y-149983035D01*
X136726618Y-149733035D02*
X136766796Y-149768750D01*
X136735546Y-149804464D01*
X136695368Y-149768750D01*
X136726618Y-149733035D01*
X136735546Y-149804464D01*
X136463225Y-150483035D02*
X136400725Y-149983035D01*
X136409654Y-150054464D02*
X136369475Y-150018750D01*
X136293582Y-149983035D01*
X136186439Y-149983035D01*
X136119475Y-150018750D01*
X136092689Y-150090178D01*
X136141796Y-150483035D01*
X136092689Y-150090178D02*
X136048046Y-150018750D01*
X135972154Y-149983035D01*
X135865011Y-149983035D01*
X135798046Y-150018750D01*
X135771261Y-150090178D01*
X135820368Y-150483035D01*
X139641796Y-151081250D02*
X139708761Y-151045535D01*
X139815904Y-151045535D01*
X139927511Y-151081250D01*
X140007868Y-151152678D01*
X140052511Y-151224107D01*
X140106082Y-151366964D01*
X140119475Y-151474107D01*
X140101618Y-151616964D01*
X140074832Y-151688392D01*
X140012332Y-151759821D01*
X139909654Y-151795535D01*
X139838225Y-151795535D01*
X139726618Y-151759821D01*
X139686439Y-151724107D01*
X139655189Y-151474107D01*
X139798046Y-151474107D01*
X138945368Y-151795535D02*
X139150725Y-151438392D01*
X139373939Y-151795535D02*
X139280189Y-151045535D01*
X138994475Y-151045535D01*
X138927511Y-151081250D01*
X138896261Y-151116964D01*
X138869475Y-151188392D01*
X138882868Y-151295535D01*
X138927511Y-151366964D01*
X138967689Y-151402678D01*
X139043582Y-151438392D01*
X139329296Y-151438392D01*
X138574832Y-151402678D02*
X138324832Y-151402678D01*
X138266796Y-151795535D02*
X138623939Y-151795535D01*
X138530189Y-151045535D01*
X138173046Y-151045535D01*
X137896261Y-151402678D02*
X137646261Y-151402678D01*
X137588225Y-151795535D02*
X137945368Y-151795535D01*
X137851618Y-151045535D01*
X137494475Y-151045535D01*
X137266796Y-151795535D02*
X137173046Y-151045535D01*
X136838225Y-151795535D01*
X136744475Y-151045535D01*
D10*
X111285714Y-140251785D02*
X111285714Y-140787500D01*
X111321428Y-140894642D01*
X111392857Y-140966071D01*
X111500000Y-141001785D01*
X111571428Y-141001785D01*
X110928571Y-141001785D02*
X110928571Y-140251785D01*
X110642857Y-140251785D01*
X110571428Y-140287500D01*
X110535714Y-140323214D01*
X110500000Y-140394642D01*
X110500000Y-140501785D01*
X110535714Y-140573214D01*
X110571428Y-140608928D01*
X110642857Y-140644642D01*
X110928571Y-140644642D01*
X109785714Y-141001785D02*
X110214285Y-141001785D01*
X110000000Y-141001785D02*
X110000000Y-140251785D01*
X110071428Y-140358928D01*
X110142857Y-140430357D01*
X110214285Y-140466071D01*
X109428571Y-140966071D02*
X109428571Y-141001785D01*
X109464285Y-141073214D01*
X109500000Y-141108928D01*
X108321428Y-140251785D02*
X108321428Y-140787500D01*
X108357142Y-140894642D01*
X108428571Y-140966071D01*
X108535714Y-141001785D01*
X108607142Y-141001785D01*
X107964285Y-141001785D02*
X107964285Y-140251785D01*
X107678571Y-140251785D01*
X107607142Y-140287500D01*
X107571428Y-140323214D01*
X107535714Y-140394642D01*
X107535714Y-140501785D01*
X107571428Y-140573214D01*
X107607142Y-140608928D01*
X107678571Y-140644642D01*
X107964285Y-140644642D01*
X107250000Y-140323214D02*
X107214285Y-140287500D01*
X107142857Y-140251785D01*
X106964285Y-140251785D01*
X106892857Y-140287500D01*
X106857142Y-140323214D01*
X106821428Y-140394642D01*
X106821428Y-140466071D01*
X106857142Y-140573214D01*
X107285714Y-141001785D01*
X106821428Y-141001785D01*
X106500000Y-140930357D02*
X106464285Y-140966071D01*
X106500000Y-141001785D01*
X106535714Y-140966071D01*
X106500000Y-140930357D01*
X106500000Y-141001785D01*
X106500000Y-140537500D02*
X106464285Y-140573214D01*
X106500000Y-140608928D01*
X106535714Y-140573214D01*
X106500000Y-140537500D01*
X106500000Y-140608928D01*
X113535714Y-142276785D02*
X113607142Y-142241071D01*
X113642857Y-142169642D01*
X113642857Y-141526785D01*
X113142857Y-142276785D02*
X113214285Y-142241071D01*
X113250000Y-142205357D01*
X113285714Y-142133928D01*
X113285714Y-141919642D01*
X113250000Y-141848214D01*
X113214285Y-141812500D01*
X113142857Y-141776785D01*
X113035714Y-141776785D01*
X112964285Y-141812500D01*
X112928571Y-141848214D01*
X112892857Y-141919642D01*
X112892857Y-142133928D01*
X112928571Y-142205357D01*
X112964285Y-142241071D01*
X113035714Y-142276785D01*
X113142857Y-142276785D01*
X112642857Y-141776785D02*
X112500000Y-142276785D01*
X112357142Y-141919642D01*
X112214285Y-142276785D01*
X112071428Y-141776785D01*
X111750000Y-142241071D02*
X111750000Y-142276785D01*
X111785714Y-142348214D01*
X111821428Y-142383928D01*
X110750000Y-142276785D02*
X110821428Y-142241071D01*
X110857142Y-142169642D01*
X110857142Y-141526785D01*
X110357142Y-142276785D02*
X110428571Y-142241071D01*
X110464285Y-142205357D01*
X110500000Y-142133928D01*
X110500000Y-141919642D01*
X110464285Y-141848214D01*
X110428571Y-141812500D01*
X110357142Y-141776785D01*
X110250000Y-141776785D01*
X110178571Y-141812500D01*
X110142857Y-141848214D01*
X110107142Y-141919642D01*
X110107142Y-142133928D01*
X110142857Y-142205357D01*
X110178571Y-142241071D01*
X110250000Y-142276785D01*
X110357142Y-142276785D01*
X109857142Y-141776785D02*
X109714285Y-142276785D01*
X109571428Y-141919642D01*
X109428571Y-142276785D01*
X109285714Y-141776785D01*
X108428571Y-141883928D02*
X107857142Y-141883928D01*
X107857142Y-142098214D02*
X108428571Y-142098214D01*
X106928571Y-142276785D02*
X106928571Y-141776785D01*
X106928571Y-141526785D02*
X106964285Y-141562500D01*
X106928571Y-141598214D01*
X106892857Y-141562500D01*
X106928571Y-141526785D01*
X106928571Y-141598214D01*
X106250000Y-142276785D02*
X106250000Y-141526785D01*
X106250000Y-142241071D02*
X106321428Y-142276785D01*
X106464285Y-142276785D01*
X106535714Y-142241071D01*
X106571428Y-142205357D01*
X106607142Y-142133928D01*
X106607142Y-141919642D01*
X106571428Y-141848214D01*
X106535714Y-141812500D01*
X106464285Y-141776785D01*
X106321428Y-141776785D01*
X106250000Y-141812500D01*
X105964285Y-142276785D02*
X105571428Y-141776785D01*
X105964285Y-141776785D02*
X105571428Y-142276785D01*
X104750000Y-141598214D02*
X104714285Y-141562500D01*
X104642857Y-141526785D01*
X104464285Y-141526785D01*
X104392857Y-141562500D01*
X104357142Y-141598214D01*
X104321428Y-141669642D01*
X104321428Y-141741071D01*
X104357142Y-141848214D01*
X104785714Y-142276785D01*
X104321428Y-142276785D01*
X113910714Y-143551785D02*
X113982142Y-143516071D01*
X114017857Y-143444642D01*
X114017857Y-142801785D01*
X113517857Y-143551785D02*
X113589285Y-143516071D01*
X113625000Y-143480357D01*
X113660714Y-143408928D01*
X113660714Y-143194642D01*
X113625000Y-143123214D01*
X113589285Y-143087500D01*
X113517857Y-143051785D01*
X113410714Y-143051785D01*
X113339285Y-143087500D01*
X113303571Y-143123214D01*
X113267857Y-143194642D01*
X113267857Y-143408928D01*
X113303571Y-143480357D01*
X113339285Y-143516071D01*
X113410714Y-143551785D01*
X113517857Y-143551785D01*
X113017857Y-143051785D02*
X112875000Y-143551785D01*
X112732142Y-143194642D01*
X112589285Y-143551785D01*
X112446428Y-143051785D01*
X112125000Y-143516071D02*
X112125000Y-143551785D01*
X112160714Y-143623214D01*
X112196428Y-143658928D01*
X111339285Y-143051785D02*
X111053571Y-143051785D01*
X111232142Y-143551785D02*
X111232142Y-142908928D01*
X111196428Y-142837500D01*
X111125000Y-142801785D01*
X111053571Y-142801785D01*
X110696428Y-143551785D02*
X110767857Y-143516071D01*
X110803571Y-143444642D01*
X110803571Y-142801785D01*
X110303571Y-143551785D02*
X110375000Y-143516071D01*
X110410714Y-143480357D01*
X110446428Y-143408928D01*
X110446428Y-143194642D01*
X110410714Y-143123214D01*
X110375000Y-143087500D01*
X110303571Y-143051785D01*
X110196428Y-143051785D01*
X110125000Y-143087500D01*
X110089285Y-143123214D01*
X110053571Y-143194642D01*
X110053571Y-143408928D01*
X110089285Y-143480357D01*
X110125000Y-143516071D01*
X110196428Y-143551785D01*
X110303571Y-143551785D01*
X109410714Y-143551785D02*
X109410714Y-143158928D01*
X109446428Y-143087500D01*
X109517857Y-143051785D01*
X109660714Y-143051785D01*
X109732142Y-143087500D01*
X109410714Y-143516071D02*
X109482142Y-143551785D01*
X109660714Y-143551785D01*
X109732142Y-143516071D01*
X109767857Y-143444642D01*
X109767857Y-143373214D01*
X109732142Y-143301785D01*
X109660714Y-143266071D01*
X109482142Y-143266071D01*
X109410714Y-143230357D01*
X109160714Y-143051785D02*
X108875000Y-143051785D01*
X109053571Y-142801785D02*
X109053571Y-143444642D01*
X109017857Y-143516071D01*
X108946428Y-143551785D01*
X108875000Y-143551785D01*
X108053571Y-143158928D02*
X107482142Y-143158928D01*
X107482142Y-143373214D02*
X108053571Y-143373214D01*
X106553571Y-143551785D02*
X106553571Y-143051785D01*
X106553571Y-142801785D02*
X106589285Y-142837500D01*
X106553571Y-142873214D01*
X106517857Y-142837500D01*
X106553571Y-142801785D01*
X106553571Y-142873214D01*
X105875000Y-143551785D02*
X105875000Y-142801785D01*
X105875000Y-143516071D02*
X105946428Y-143551785D01*
X106089285Y-143551785D01*
X106160714Y-143516071D01*
X106196428Y-143480357D01*
X106232142Y-143408928D01*
X106232142Y-143194642D01*
X106196428Y-143123214D01*
X106160714Y-143087500D01*
X106089285Y-143051785D01*
X105946428Y-143051785D01*
X105875000Y-143087500D01*
X105589285Y-143551785D02*
X105196428Y-143051785D01*
X105589285Y-143051785D02*
X105196428Y-143551785D01*
X104196428Y-142801785D02*
X104125000Y-142801785D01*
X104053571Y-142837500D01*
X104017857Y-142873214D01*
X103982142Y-142944642D01*
X103946428Y-143087500D01*
X103946428Y-143266071D01*
X103982142Y-143408928D01*
X104017857Y-143480357D01*
X104053571Y-143516071D01*
X104125000Y-143551785D01*
X104196428Y-143551785D01*
X104267857Y-143516071D01*
X104303571Y-143480357D01*
X104339285Y-143408928D01*
X104375000Y-143266071D01*
X104375000Y-143087500D01*
X104339285Y-142944642D01*
X104303571Y-142873214D01*
X104267857Y-142837500D01*
X104196428Y-142801785D01*
X113803571Y-144826785D02*
X113875000Y-144791071D01*
X113910714Y-144719642D01*
X113910714Y-144076785D01*
X113410714Y-144826785D02*
X113482142Y-144791071D01*
X113517857Y-144755357D01*
X113553571Y-144683928D01*
X113553571Y-144469642D01*
X113517857Y-144398214D01*
X113482142Y-144362500D01*
X113410714Y-144326785D01*
X113303571Y-144326785D01*
X113232142Y-144362500D01*
X113196428Y-144398214D01*
X113160714Y-144469642D01*
X113160714Y-144683928D01*
X113196428Y-144755357D01*
X113232142Y-144791071D01*
X113303571Y-144826785D01*
X113410714Y-144826785D01*
X112910714Y-144326785D02*
X112767857Y-144826785D01*
X112625000Y-144469642D01*
X112482142Y-144826785D01*
X112339285Y-144326785D01*
X112017857Y-144791071D02*
X112017857Y-144826785D01*
X112053571Y-144898214D01*
X112089285Y-144933928D01*
X111125000Y-144826785D02*
X111125000Y-144076785D01*
X110803571Y-144826785D02*
X110803571Y-144433928D01*
X110839285Y-144362500D01*
X110910714Y-144326785D01*
X111017857Y-144326785D01*
X111089285Y-144362500D01*
X111125000Y-144398214D01*
X110446428Y-144826785D02*
X110446428Y-144326785D01*
X110446428Y-144076785D02*
X110482142Y-144112500D01*
X110446428Y-144148214D01*
X110410714Y-144112500D01*
X110446428Y-144076785D01*
X110446428Y-144148214D01*
X109767857Y-144326785D02*
X109767857Y-144933928D01*
X109803571Y-145005357D01*
X109839285Y-145041071D01*
X109910714Y-145076785D01*
X110017857Y-145076785D01*
X110089285Y-145041071D01*
X109767857Y-144791071D02*
X109839285Y-144826785D01*
X109982142Y-144826785D01*
X110053571Y-144791071D01*
X110089285Y-144755357D01*
X110125000Y-144683928D01*
X110125000Y-144469642D01*
X110089285Y-144398214D01*
X110053571Y-144362500D01*
X109982142Y-144326785D01*
X109839285Y-144326785D01*
X109767857Y-144362500D01*
X109410714Y-144826785D02*
X109410714Y-144076785D01*
X109089285Y-144826785D02*
X109089285Y-144433928D01*
X109125000Y-144362500D01*
X109196428Y-144326785D01*
X109303571Y-144326785D01*
X109375000Y-144362500D01*
X109410714Y-144398214D01*
X108160714Y-144433928D02*
X107589285Y-144433928D01*
X107589285Y-144648214D02*
X108160714Y-144648214D01*
X106660714Y-144826785D02*
X106660714Y-144326785D01*
X106660714Y-144076785D02*
X106696428Y-144112500D01*
X106660714Y-144148214D01*
X106625000Y-144112500D01*
X106660714Y-144076785D01*
X106660714Y-144148214D01*
X105982142Y-144826785D02*
X105982142Y-144076785D01*
X105982142Y-144791071D02*
X106053571Y-144826785D01*
X106196428Y-144826785D01*
X106267857Y-144791071D01*
X106303571Y-144755357D01*
X106339285Y-144683928D01*
X106339285Y-144469642D01*
X106303571Y-144398214D01*
X106267857Y-144362500D01*
X106196428Y-144326785D01*
X106053571Y-144326785D01*
X105982142Y-144362500D01*
X105696428Y-144826785D02*
X105303571Y-144326785D01*
X105696428Y-144326785D02*
X105303571Y-144826785D01*
X104517857Y-144076785D02*
X104053571Y-144076785D01*
X104303571Y-144362500D01*
X104196428Y-144362500D01*
X104125000Y-144398214D01*
X104089285Y-144433928D01*
X104053571Y-144505357D01*
X104053571Y-144683928D01*
X104089285Y-144755357D01*
X104125000Y-144791071D01*
X104196428Y-144826785D01*
X104410714Y-144826785D01*
X104482142Y-144791071D01*
X104517857Y-144755357D01*
X114125000Y-145601785D02*
X113839285Y-145601785D01*
X114017857Y-146101785D02*
X114017857Y-145458928D01*
X113982142Y-145387500D01*
X113910714Y-145351785D01*
X113839285Y-145351785D01*
X113482142Y-146101785D02*
X113553571Y-146066071D01*
X113589285Y-145994642D01*
X113589285Y-145351785D01*
X113089285Y-146101785D02*
X113160714Y-146066071D01*
X113196428Y-146030357D01*
X113232142Y-145958928D01*
X113232142Y-145744642D01*
X113196428Y-145673214D01*
X113160714Y-145637500D01*
X113089285Y-145601785D01*
X112982142Y-145601785D01*
X112910714Y-145637500D01*
X112875000Y-145673214D01*
X112839285Y-145744642D01*
X112839285Y-145958928D01*
X112875000Y-146030357D01*
X112910714Y-146066071D01*
X112982142Y-146101785D01*
X113089285Y-146101785D01*
X112196428Y-146101785D02*
X112196428Y-145708928D01*
X112232142Y-145637500D01*
X112303571Y-145601785D01*
X112446428Y-145601785D01*
X112517857Y-145637500D01*
X112196428Y-146066071D02*
X112267857Y-146101785D01*
X112446428Y-146101785D01*
X112517857Y-146066071D01*
X112553571Y-145994642D01*
X112553571Y-145923214D01*
X112517857Y-145851785D01*
X112446428Y-145816071D01*
X112267857Y-145816071D01*
X112196428Y-145780357D01*
X111946428Y-145601785D02*
X111660714Y-145601785D01*
X111839285Y-145351785D02*
X111839285Y-145994642D01*
X111803571Y-146066071D01*
X111732142Y-146101785D01*
X111660714Y-146101785D01*
X111375000Y-146066071D02*
X111375000Y-146101785D01*
X111410714Y-146173214D01*
X111446428Y-146208928D01*
X110375000Y-146101785D02*
X110446428Y-146066071D01*
X110482142Y-145994642D01*
X110482142Y-145351785D01*
X109982142Y-146101785D02*
X110053571Y-146066071D01*
X110089285Y-146030357D01*
X110125000Y-145958928D01*
X110125000Y-145744642D01*
X110089285Y-145673214D01*
X110053571Y-145637500D01*
X109982142Y-145601785D01*
X109875000Y-145601785D01*
X109803571Y-145637500D01*
X109767857Y-145673214D01*
X109732142Y-145744642D01*
X109732142Y-145958928D01*
X109767857Y-146030357D01*
X109803571Y-146066071D01*
X109875000Y-146101785D01*
X109982142Y-146101785D01*
X109482142Y-145601785D02*
X109339285Y-146101785D01*
X109196428Y-145744642D01*
X109053571Y-146101785D01*
X108910714Y-145601785D01*
X108053571Y-145708928D02*
X107482142Y-145708928D01*
X107482142Y-145923214D02*
X108053571Y-145923214D01*
X106553571Y-146101785D02*
X106553571Y-145601785D01*
X106553571Y-145351785D02*
X106589285Y-145387500D01*
X106553571Y-145423214D01*
X106517857Y-145387500D01*
X106553571Y-145351785D01*
X106553571Y-145423214D01*
X105875000Y-146101785D02*
X105875000Y-145351785D01*
X105875000Y-146066071D02*
X105946428Y-146101785D01*
X106089285Y-146101785D01*
X106160714Y-146066071D01*
X106196428Y-146030357D01*
X106232142Y-145958928D01*
X106232142Y-145744642D01*
X106196428Y-145673214D01*
X106160714Y-145637500D01*
X106089285Y-145601785D01*
X105946428Y-145601785D01*
X105875000Y-145637500D01*
X105589285Y-146101785D02*
X105196428Y-145601785D01*
X105589285Y-145601785D02*
X105196428Y-146101785D01*
X104017857Y-145601785D02*
X104017857Y-146101785D01*
X104196428Y-145316071D02*
X104375000Y-145851785D01*
X103910714Y-145851785D01*
X120446428Y-146876785D02*
X120160714Y-146876785D01*
X120339285Y-147376785D02*
X120339285Y-146733928D01*
X120303571Y-146662500D01*
X120232142Y-146626785D01*
X120160714Y-146626785D01*
X119803571Y-147376785D02*
X119875000Y-147341071D01*
X119910714Y-147269642D01*
X119910714Y-146626785D01*
X119410714Y-147376785D02*
X119482142Y-147341071D01*
X119517857Y-147305357D01*
X119553571Y-147233928D01*
X119553571Y-147019642D01*
X119517857Y-146948214D01*
X119482142Y-146912500D01*
X119410714Y-146876785D01*
X119303571Y-146876785D01*
X119232142Y-146912500D01*
X119196428Y-146948214D01*
X119160714Y-147019642D01*
X119160714Y-147233928D01*
X119196428Y-147305357D01*
X119232142Y-147341071D01*
X119303571Y-147376785D01*
X119410714Y-147376785D01*
X118517857Y-147376785D02*
X118517857Y-146983928D01*
X118553571Y-146912500D01*
X118625000Y-146876785D01*
X118767857Y-146876785D01*
X118839285Y-146912500D01*
X118517857Y-147341071D02*
X118589285Y-147376785D01*
X118767857Y-147376785D01*
X118839285Y-147341071D01*
X118875000Y-147269642D01*
X118875000Y-147198214D01*
X118839285Y-147126785D01*
X118767857Y-147091071D01*
X118589285Y-147091071D01*
X118517857Y-147055357D01*
X118267857Y-146876785D02*
X117982142Y-146876785D01*
X118160714Y-146626785D02*
X118160714Y-147269642D01*
X118125000Y-147341071D01*
X118053571Y-147376785D01*
X117982142Y-147376785D01*
X117696428Y-147341071D02*
X117696428Y-147376785D01*
X117732142Y-147448214D01*
X117767857Y-147483928D01*
X116910714Y-146876785D02*
X116625000Y-146876785D01*
X116803571Y-147376785D02*
X116803571Y-146733928D01*
X116767857Y-146662500D01*
X116696428Y-146626785D01*
X116625000Y-146626785D01*
X116267857Y-147376785D02*
X116339285Y-147341071D01*
X116375000Y-147269642D01*
X116375000Y-146626785D01*
X115875000Y-147376785D02*
X115946428Y-147341071D01*
X115982142Y-147305357D01*
X116017857Y-147233928D01*
X116017857Y-147019642D01*
X115982142Y-146948214D01*
X115946428Y-146912500D01*
X115875000Y-146876785D01*
X115767857Y-146876785D01*
X115696428Y-146912500D01*
X115660714Y-146948214D01*
X115625000Y-147019642D01*
X115625000Y-147233928D01*
X115660714Y-147305357D01*
X115696428Y-147341071D01*
X115767857Y-147376785D01*
X115875000Y-147376785D01*
X114982142Y-147376785D02*
X114982142Y-146983928D01*
X115017857Y-146912500D01*
X115089285Y-146876785D01*
X115232142Y-146876785D01*
X115303571Y-146912500D01*
X114982142Y-147341071D02*
X115053571Y-147376785D01*
X115232142Y-147376785D01*
X115303571Y-147341071D01*
X115339285Y-147269642D01*
X115339285Y-147198214D01*
X115303571Y-147126785D01*
X115232142Y-147091071D01*
X115053571Y-147091071D01*
X114982142Y-147055357D01*
X114732142Y-146876785D02*
X114446428Y-146876785D01*
X114625000Y-146626785D02*
X114625000Y-147269642D01*
X114589285Y-147341071D01*
X114517857Y-147376785D01*
X114446428Y-147376785D01*
X113625000Y-146983928D02*
X113053571Y-146983928D01*
X113053571Y-147198214D02*
X113625000Y-147198214D01*
X112125000Y-147376785D02*
X112125000Y-146876785D01*
X112125000Y-147019642D02*
X112089285Y-146948214D01*
X112053571Y-146912500D01*
X111982142Y-146876785D01*
X111910714Y-146876785D01*
X111375000Y-147341071D02*
X111446428Y-147376785D01*
X111589285Y-147376785D01*
X111660714Y-147341071D01*
X111696428Y-147269642D01*
X111696428Y-146983928D01*
X111660714Y-146912500D01*
X111589285Y-146876785D01*
X111446428Y-146876785D01*
X111375000Y-146912500D01*
X111339285Y-146983928D01*
X111339285Y-147055357D01*
X111696428Y-147126785D01*
X110696428Y-147376785D02*
X110696428Y-146983928D01*
X110732142Y-146912500D01*
X110803571Y-146876785D01*
X110946428Y-146876785D01*
X111017857Y-146912500D01*
X110696428Y-147341071D02*
X110767857Y-147376785D01*
X110946428Y-147376785D01*
X111017857Y-147341071D01*
X111053571Y-147269642D01*
X111053571Y-147198214D01*
X111017857Y-147126785D01*
X110946428Y-147091071D01*
X110767857Y-147091071D01*
X110696428Y-147055357D01*
X110017857Y-147376785D02*
X110017857Y-146626785D01*
X110017857Y-147341071D02*
X110089285Y-147376785D01*
X110232142Y-147376785D01*
X110303571Y-147341071D01*
X110339285Y-147305357D01*
X110375000Y-147233928D01*
X110375000Y-147019642D01*
X110339285Y-146948214D01*
X110303571Y-146912500D01*
X110232142Y-146876785D01*
X110089285Y-146876785D01*
X110017857Y-146912500D01*
X109089285Y-147376785D02*
X109089285Y-146876785D01*
X109089285Y-146626785D02*
X109125000Y-146662500D01*
X109089285Y-146698214D01*
X109053571Y-146662500D01*
X109089285Y-146626785D01*
X109089285Y-146698214D01*
X108732142Y-146876785D02*
X108732142Y-147376785D01*
X108732142Y-146948214D02*
X108696428Y-146912500D01*
X108625000Y-146876785D01*
X108517857Y-146876785D01*
X108446428Y-146912500D01*
X108410714Y-146983928D01*
X108410714Y-147376785D01*
X107732142Y-147376785D02*
X107732142Y-146626785D01*
X107732142Y-147341071D02*
X107803571Y-147376785D01*
X107946428Y-147376785D01*
X108017857Y-147341071D01*
X108053571Y-147305357D01*
X108089285Y-147233928D01*
X108089285Y-147019642D01*
X108053571Y-146948214D01*
X108017857Y-146912500D01*
X107946428Y-146876785D01*
X107803571Y-146876785D01*
X107732142Y-146912500D01*
X107089285Y-147341071D02*
X107160714Y-147376785D01*
X107303571Y-147376785D01*
X107375000Y-147341071D01*
X107410714Y-147269642D01*
X107410714Y-146983928D01*
X107375000Y-146912500D01*
X107303571Y-146876785D01*
X107160714Y-146876785D01*
X107089285Y-146912500D01*
X107053571Y-146983928D01*
X107053571Y-147055357D01*
X107410714Y-147126785D01*
X106803571Y-147376785D02*
X106410714Y-146876785D01*
X106803571Y-146876785D02*
X106410714Y-147376785D01*
X105660714Y-146876785D02*
X105375000Y-146876785D01*
X105553571Y-147376785D02*
X105553571Y-146733928D01*
X105517857Y-146662500D01*
X105446428Y-146626785D01*
X105375000Y-146626785D01*
X105125000Y-147376785D02*
X105125000Y-146876785D01*
X105125000Y-147019642D02*
X105089285Y-146948214D01*
X105053571Y-146912500D01*
X104982142Y-146876785D01*
X104910714Y-146876785D01*
X104553571Y-147376785D02*
X104625000Y-147341071D01*
X104660714Y-147305357D01*
X104696428Y-147233928D01*
X104696428Y-147019642D01*
X104660714Y-146948214D01*
X104625000Y-146912500D01*
X104553571Y-146876785D01*
X104446428Y-146876785D01*
X104375000Y-146912500D01*
X104339285Y-146948214D01*
X104303571Y-147019642D01*
X104303571Y-147233928D01*
X104339285Y-147305357D01*
X104375000Y-147341071D01*
X104446428Y-147376785D01*
X104553571Y-147376785D01*
X103982142Y-147376785D02*
X103982142Y-146876785D01*
X103982142Y-146948214D02*
X103946428Y-146912500D01*
X103875000Y-146876785D01*
X103767857Y-146876785D01*
X103696428Y-146912500D01*
X103660714Y-146983928D01*
X103660714Y-147376785D01*
X103660714Y-146983928D02*
X103625000Y-146912500D01*
X103553571Y-146876785D01*
X103446428Y-146876785D01*
X103375000Y-146912500D01*
X103339285Y-146983928D01*
X103339285Y-147376785D01*
X102517857Y-146876785D02*
X102232142Y-146876785D01*
X102410714Y-147376785D02*
X102410714Y-146733928D01*
X102375000Y-146662500D01*
X102303571Y-146626785D01*
X102232142Y-146626785D01*
X101875000Y-147376785D02*
X101946428Y-147341071D01*
X101982142Y-147269642D01*
X101982142Y-146626785D01*
X101267857Y-147376785D02*
X101267857Y-146983928D01*
X101303571Y-146912500D01*
X101375000Y-146876785D01*
X101517857Y-146876785D01*
X101589285Y-146912500D01*
X101267857Y-147341071D02*
X101339285Y-147376785D01*
X101517857Y-147376785D01*
X101589285Y-147341071D01*
X101625000Y-147269642D01*
X101625000Y-147198214D01*
X101589285Y-147126785D01*
X101517857Y-147091071D01*
X101339285Y-147091071D01*
X101267857Y-147055357D01*
X100946428Y-147341071D02*
X100875000Y-147376785D01*
X100732142Y-147376785D01*
X100660714Y-147341071D01*
X100625000Y-147269642D01*
X100625000Y-147233928D01*
X100660714Y-147162500D01*
X100732142Y-147126785D01*
X100839285Y-147126785D01*
X100910714Y-147091071D01*
X100946428Y-147019642D01*
X100946428Y-146983928D01*
X100910714Y-146912500D01*
X100839285Y-146876785D01*
X100732142Y-146876785D01*
X100660714Y-146912500D01*
X100303571Y-147376785D02*
X100303571Y-146626785D01*
X99982142Y-147376785D02*
X99982142Y-146983928D01*
X100017857Y-146912500D01*
X100089285Y-146876785D01*
X100196428Y-146876785D01*
X100267857Y-146912500D01*
X100303571Y-146948214D01*
X98732142Y-147341071D02*
X98803571Y-147376785D01*
X98946428Y-147376785D01*
X99017857Y-147341071D01*
X99053571Y-147305357D01*
X99089285Y-147233928D01*
X99089285Y-147019642D01*
X99053571Y-146948214D01*
X99017857Y-146912500D01*
X98946428Y-146876785D01*
X98803571Y-146876785D01*
X98732142Y-146912500D01*
X98517857Y-146876785D02*
X98232142Y-146876785D01*
X98410714Y-147376785D02*
X98410714Y-146733928D01*
X98375000Y-146662500D01*
X98303571Y-146626785D01*
X98232142Y-146626785D01*
X97660714Y-146876785D02*
X97660714Y-147483928D01*
X97696428Y-147555357D01*
X97732142Y-147591071D01*
X97803571Y-147626785D01*
X97910714Y-147626785D01*
X97982142Y-147591071D01*
X97660714Y-147341071D02*
X97732142Y-147376785D01*
X97875000Y-147376785D01*
X97946428Y-147341071D01*
X97982142Y-147305357D01*
X98017857Y-147233928D01*
X98017857Y-147019642D01*
X97982142Y-146948214D01*
X97946428Y-146912500D01*
X97875000Y-146876785D01*
X97732142Y-146876785D01*
X97660714Y-146912500D01*
X114392857Y-148151785D02*
X114107142Y-148151785D01*
X114285714Y-148651785D02*
X114285714Y-148008928D01*
X114250000Y-147937500D01*
X114178571Y-147901785D01*
X114107142Y-147901785D01*
X113750000Y-148651785D02*
X113821428Y-148616071D01*
X113857142Y-148544642D01*
X113857142Y-147901785D01*
X113357142Y-148651785D02*
X113428571Y-148616071D01*
X113464285Y-148580357D01*
X113500000Y-148508928D01*
X113500000Y-148294642D01*
X113464285Y-148223214D01*
X113428571Y-148187500D01*
X113357142Y-148151785D01*
X113250000Y-148151785D01*
X113178571Y-148187500D01*
X113142857Y-148223214D01*
X113107142Y-148294642D01*
X113107142Y-148508928D01*
X113142857Y-148580357D01*
X113178571Y-148616071D01*
X113250000Y-148651785D01*
X113357142Y-148651785D01*
X112464285Y-148651785D02*
X112464285Y-148258928D01*
X112500000Y-148187500D01*
X112571428Y-148151785D01*
X112714285Y-148151785D01*
X112785714Y-148187500D01*
X112464285Y-148616071D02*
X112535714Y-148651785D01*
X112714285Y-148651785D01*
X112785714Y-148616071D01*
X112821428Y-148544642D01*
X112821428Y-148473214D01*
X112785714Y-148401785D01*
X112714285Y-148366071D01*
X112535714Y-148366071D01*
X112464285Y-148330357D01*
X112214285Y-148151785D02*
X111928571Y-148151785D01*
X112107142Y-147901785D02*
X112107142Y-148544642D01*
X112071428Y-148616071D01*
X112000000Y-148651785D01*
X111928571Y-148651785D01*
X111642857Y-148616071D02*
X111642857Y-148651785D01*
X111678571Y-148723214D01*
X111714285Y-148758928D01*
X110750000Y-148651785D02*
X110750000Y-147901785D01*
X110428571Y-148651785D02*
X110428571Y-148258928D01*
X110464285Y-148187500D01*
X110535714Y-148151785D01*
X110642857Y-148151785D01*
X110714285Y-148187500D01*
X110750000Y-148223214D01*
X110071428Y-148651785D02*
X110071428Y-148151785D01*
X110071428Y-147901785D02*
X110107142Y-147937500D01*
X110071428Y-147973214D01*
X110035714Y-147937500D01*
X110071428Y-147901785D01*
X110071428Y-147973214D01*
X109392857Y-148151785D02*
X109392857Y-148758928D01*
X109428571Y-148830357D01*
X109464285Y-148866071D01*
X109535714Y-148901785D01*
X109642857Y-148901785D01*
X109714285Y-148866071D01*
X109392857Y-148616071D02*
X109464285Y-148651785D01*
X109607142Y-148651785D01*
X109678571Y-148616071D01*
X109714285Y-148580357D01*
X109750000Y-148508928D01*
X109750000Y-148294642D01*
X109714285Y-148223214D01*
X109678571Y-148187500D01*
X109607142Y-148151785D01*
X109464285Y-148151785D01*
X109392857Y-148187500D01*
X109035714Y-148651785D02*
X109035714Y-147901785D01*
X108714285Y-148651785D02*
X108714285Y-148258928D01*
X108750000Y-148187500D01*
X108821428Y-148151785D01*
X108928571Y-148151785D01*
X109000000Y-148187500D01*
X109035714Y-148223214D01*
X107785714Y-148258928D02*
X107214285Y-148258928D01*
X107214285Y-148473214D02*
X107785714Y-148473214D01*
X106285714Y-148651785D02*
X106285714Y-148151785D01*
X106285714Y-147901785D02*
X106321428Y-147937500D01*
X106285714Y-147973214D01*
X106250000Y-147937500D01*
X106285714Y-147901785D01*
X106285714Y-147973214D01*
X105607142Y-148651785D02*
X105607142Y-147901785D01*
X105607142Y-148616071D02*
X105678571Y-148651785D01*
X105821428Y-148651785D01*
X105892857Y-148616071D01*
X105928571Y-148580357D01*
X105964285Y-148508928D01*
X105964285Y-148294642D01*
X105928571Y-148223214D01*
X105892857Y-148187500D01*
X105821428Y-148151785D01*
X105678571Y-148151785D01*
X105607142Y-148187500D01*
X105321428Y-148651785D02*
X104928571Y-148151785D01*
X105321428Y-148151785D02*
X104928571Y-148651785D01*
X103678571Y-148651785D02*
X104107142Y-148651785D01*
X103892857Y-148651785D02*
X103892857Y-147901785D01*
X103964285Y-148008928D01*
X104035714Y-148080357D01*
X104107142Y-148116071D01*
X113910714Y-149926785D02*
X113910714Y-149176785D01*
X113589285Y-149926785D02*
X113589285Y-149533928D01*
X113625000Y-149462500D01*
X113696428Y-149426785D01*
X113803571Y-149426785D01*
X113875000Y-149462500D01*
X113910714Y-149498214D01*
X113232142Y-149926785D02*
X113232142Y-149426785D01*
X113232142Y-149176785D02*
X113267857Y-149212500D01*
X113232142Y-149248214D01*
X113196428Y-149212500D01*
X113232142Y-149176785D01*
X113232142Y-149248214D01*
X112553571Y-149426785D02*
X112553571Y-150033928D01*
X112589285Y-150105357D01*
X112625000Y-150141071D01*
X112696428Y-150176785D01*
X112803571Y-150176785D01*
X112875000Y-150141071D01*
X112553571Y-149891071D02*
X112625000Y-149926785D01*
X112767857Y-149926785D01*
X112839285Y-149891071D01*
X112875000Y-149855357D01*
X112910714Y-149783928D01*
X112910714Y-149569642D01*
X112875000Y-149498214D01*
X112839285Y-149462500D01*
X112767857Y-149426785D01*
X112625000Y-149426785D01*
X112553571Y-149462500D01*
X112196428Y-149926785D02*
X112196428Y-149176785D01*
X111875000Y-149926785D02*
X111875000Y-149533928D01*
X111910714Y-149462500D01*
X111982142Y-149426785D01*
X112089285Y-149426785D01*
X112160714Y-149462500D01*
X112196428Y-149498214D01*
X111482142Y-149891071D02*
X111482142Y-149926785D01*
X111517857Y-149998214D01*
X111553571Y-150033928D01*
X110482142Y-149926785D02*
X110553571Y-149891071D01*
X110589285Y-149819642D01*
X110589285Y-149176785D01*
X110089285Y-149926785D02*
X110160714Y-149891071D01*
X110196428Y-149855357D01*
X110232142Y-149783928D01*
X110232142Y-149569642D01*
X110196428Y-149498214D01*
X110160714Y-149462500D01*
X110089285Y-149426785D01*
X109982142Y-149426785D01*
X109910714Y-149462500D01*
X109875000Y-149498214D01*
X109839285Y-149569642D01*
X109839285Y-149783928D01*
X109875000Y-149855357D01*
X109910714Y-149891071D01*
X109982142Y-149926785D01*
X110089285Y-149926785D01*
X109589285Y-149426785D02*
X109446428Y-149926785D01*
X109303571Y-149569642D01*
X109160714Y-149926785D01*
X109017857Y-149426785D01*
X108160714Y-149533928D02*
X107589285Y-149533928D01*
X107589285Y-149748214D02*
X108160714Y-149748214D01*
X106660714Y-149926785D02*
X106660714Y-149426785D01*
X106660714Y-149176785D02*
X106696428Y-149212500D01*
X106660714Y-149248214D01*
X106625000Y-149212500D01*
X106660714Y-149176785D01*
X106660714Y-149248214D01*
X105982142Y-149926785D02*
X105982142Y-149176785D01*
X105982142Y-149891071D02*
X106053571Y-149926785D01*
X106196428Y-149926785D01*
X106267857Y-149891071D01*
X106303571Y-149855357D01*
X106339285Y-149783928D01*
X106339285Y-149569642D01*
X106303571Y-149498214D01*
X106267857Y-149462500D01*
X106196428Y-149426785D01*
X106053571Y-149426785D01*
X105982142Y-149462500D01*
X105696428Y-149926785D02*
X105303571Y-149426785D01*
X105696428Y-149426785D02*
X105303571Y-149926785D01*
X104089285Y-149176785D02*
X104446428Y-149176785D01*
X104482142Y-149533928D01*
X104446428Y-149498214D01*
X104375000Y-149462500D01*
X104196428Y-149462500D01*
X104125000Y-149498214D01*
X104089285Y-149533928D01*
X104053571Y-149605357D01*
X104053571Y-149783928D01*
X104089285Y-149855357D01*
X104125000Y-149891071D01*
X104196428Y-149926785D01*
X104375000Y-149926785D01*
X104446428Y-149891071D01*
X104482142Y-149855357D01*
X114285714Y-151201785D02*
X114285714Y-150451785D01*
X113964285Y-151201785D02*
X113964285Y-150808928D01*
X114000000Y-150737500D01*
X114071428Y-150701785D01*
X114178571Y-150701785D01*
X114250000Y-150737500D01*
X114285714Y-150773214D01*
X113607142Y-151201785D02*
X113607142Y-150701785D01*
X113607142Y-150451785D02*
X113642857Y-150487500D01*
X113607142Y-150523214D01*
X113571428Y-150487500D01*
X113607142Y-150451785D01*
X113607142Y-150523214D01*
X112928571Y-150701785D02*
X112928571Y-151308928D01*
X112964285Y-151380357D01*
X113000000Y-151416071D01*
X113071428Y-151451785D01*
X113178571Y-151451785D01*
X113250000Y-151416071D01*
X112928571Y-151166071D02*
X113000000Y-151201785D01*
X113142857Y-151201785D01*
X113214285Y-151166071D01*
X113250000Y-151130357D01*
X113285714Y-151058928D01*
X113285714Y-150844642D01*
X113250000Y-150773214D01*
X113214285Y-150737500D01*
X113142857Y-150701785D01*
X113000000Y-150701785D01*
X112928571Y-150737500D01*
X112571428Y-151201785D02*
X112571428Y-150451785D01*
X112250000Y-151201785D02*
X112250000Y-150808928D01*
X112285714Y-150737500D01*
X112357142Y-150701785D01*
X112464285Y-150701785D01*
X112535714Y-150737500D01*
X112571428Y-150773214D01*
X111857142Y-151166071D02*
X111857142Y-151201785D01*
X111892857Y-151273214D01*
X111928571Y-151308928D01*
X111071428Y-150701785D02*
X110785714Y-150701785D01*
X110964285Y-151201785D02*
X110964285Y-150558928D01*
X110928571Y-150487500D01*
X110857142Y-150451785D01*
X110785714Y-150451785D01*
X110428571Y-151201785D02*
X110500000Y-151166071D01*
X110535714Y-151094642D01*
X110535714Y-150451785D01*
X110035714Y-151201785D02*
X110107142Y-151166071D01*
X110142857Y-151130357D01*
X110178571Y-151058928D01*
X110178571Y-150844642D01*
X110142857Y-150773214D01*
X110107142Y-150737500D01*
X110035714Y-150701785D01*
X109928571Y-150701785D01*
X109857142Y-150737500D01*
X109821428Y-150773214D01*
X109785714Y-150844642D01*
X109785714Y-151058928D01*
X109821428Y-151130357D01*
X109857142Y-151166071D01*
X109928571Y-151201785D01*
X110035714Y-151201785D01*
X109142857Y-151201785D02*
X109142857Y-150808928D01*
X109178571Y-150737500D01*
X109250000Y-150701785D01*
X109392857Y-150701785D01*
X109464285Y-150737500D01*
X109142857Y-151166071D02*
X109214285Y-151201785D01*
X109392857Y-151201785D01*
X109464285Y-151166071D01*
X109500000Y-151094642D01*
X109500000Y-151023214D01*
X109464285Y-150951785D01*
X109392857Y-150916071D01*
X109214285Y-150916071D01*
X109142857Y-150880357D01*
X108892857Y-150701785D02*
X108607142Y-150701785D01*
X108785714Y-150451785D02*
X108785714Y-151094642D01*
X108750000Y-151166071D01*
X108678571Y-151201785D01*
X108607142Y-151201785D01*
X107785714Y-150808928D02*
X107214285Y-150808928D01*
X107214285Y-151023214D02*
X107785714Y-151023214D01*
X106285714Y-151201785D02*
X106285714Y-150701785D01*
X106285714Y-150451785D02*
X106321428Y-150487500D01*
X106285714Y-150523214D01*
X106250000Y-150487500D01*
X106285714Y-150451785D01*
X106285714Y-150523214D01*
X105607142Y-151201785D02*
X105607142Y-150451785D01*
X105607142Y-151166071D02*
X105678571Y-151201785D01*
X105821428Y-151201785D01*
X105892857Y-151166071D01*
X105928571Y-151130357D01*
X105964285Y-151058928D01*
X105964285Y-150844642D01*
X105928571Y-150773214D01*
X105892857Y-150737500D01*
X105821428Y-150701785D01*
X105678571Y-150701785D01*
X105607142Y-150737500D01*
X105321428Y-151201785D02*
X104928571Y-150701785D01*
X105321428Y-150701785D02*
X104928571Y-151201785D01*
X103750000Y-150451785D02*
X103892857Y-150451785D01*
X103964285Y-150487500D01*
X104000000Y-150523214D01*
X104071428Y-150630357D01*
X104107142Y-150773214D01*
X104107142Y-151058928D01*
X104071428Y-151130357D01*
X104035714Y-151166071D01*
X103964285Y-151201785D01*
X103821428Y-151201785D01*
X103750000Y-151166071D01*
X103714285Y-151130357D01*
X103678571Y-151058928D01*
X103678571Y-150880357D01*
X103714285Y-150808928D01*
X103750000Y-150773214D01*
X103821428Y-150737500D01*
X103964285Y-150737500D01*
X104035714Y-150773214D01*
X104071428Y-150808928D01*
X104107142Y-150880357D01*
X114178571Y-152476785D02*
X114178571Y-151726785D01*
X113857142Y-152476785D02*
X113857142Y-152083928D01*
X113892857Y-152012500D01*
X113964285Y-151976785D01*
X114071428Y-151976785D01*
X114142857Y-152012500D01*
X114178571Y-152048214D01*
X113500000Y-152476785D02*
X113500000Y-151976785D01*
X113500000Y-151726785D02*
X113535714Y-151762500D01*
X113500000Y-151798214D01*
X113464285Y-151762500D01*
X113500000Y-151726785D01*
X113500000Y-151798214D01*
X112821428Y-151976785D02*
X112821428Y-152583928D01*
X112857142Y-152655357D01*
X112892857Y-152691071D01*
X112964285Y-152726785D01*
X113071428Y-152726785D01*
X113142857Y-152691071D01*
X112821428Y-152441071D02*
X112892857Y-152476785D01*
X113035714Y-152476785D01*
X113107142Y-152441071D01*
X113142857Y-152405357D01*
X113178571Y-152333928D01*
X113178571Y-152119642D01*
X113142857Y-152048214D01*
X113107142Y-152012500D01*
X113035714Y-151976785D01*
X112892857Y-151976785D01*
X112821428Y-152012500D01*
X112464285Y-152476785D02*
X112464285Y-151726785D01*
X112142857Y-152476785D02*
X112142857Y-152083928D01*
X112178571Y-152012500D01*
X112250000Y-151976785D01*
X112357142Y-151976785D01*
X112428571Y-152012500D01*
X112464285Y-152048214D01*
X111750000Y-152441071D02*
X111750000Y-152476785D01*
X111785714Y-152548214D01*
X111821428Y-152583928D01*
X110857142Y-152476785D02*
X110857142Y-151726785D01*
X110535714Y-152476785D02*
X110535714Y-152083928D01*
X110571428Y-152012500D01*
X110642857Y-151976785D01*
X110750000Y-151976785D01*
X110821428Y-152012500D01*
X110857142Y-152048214D01*
X110178571Y-152476785D02*
X110178571Y-151976785D01*
X110178571Y-151726785D02*
X110214285Y-151762500D01*
X110178571Y-151798214D01*
X110142857Y-151762500D01*
X110178571Y-151726785D01*
X110178571Y-151798214D01*
X109500000Y-151976785D02*
X109500000Y-152583928D01*
X109535714Y-152655357D01*
X109571428Y-152691071D01*
X109642857Y-152726785D01*
X109750000Y-152726785D01*
X109821428Y-152691071D01*
X109500000Y-152441071D02*
X109571428Y-152476785D01*
X109714285Y-152476785D01*
X109785714Y-152441071D01*
X109821428Y-152405357D01*
X109857142Y-152333928D01*
X109857142Y-152119642D01*
X109821428Y-152048214D01*
X109785714Y-152012500D01*
X109714285Y-151976785D01*
X109571428Y-151976785D01*
X109500000Y-152012500D01*
X109142857Y-152476785D02*
X109142857Y-151726785D01*
X108821428Y-152476785D02*
X108821428Y-152083928D01*
X108857142Y-152012500D01*
X108928571Y-151976785D01*
X109035714Y-151976785D01*
X109107142Y-152012500D01*
X109142857Y-152048214D01*
X107892857Y-152083928D02*
X107321428Y-152083928D01*
X107321428Y-152298214D02*
X107892857Y-152298214D01*
X106392857Y-152476785D02*
X106392857Y-151976785D01*
X106392857Y-151726785D02*
X106428571Y-151762500D01*
X106392857Y-151798214D01*
X106357142Y-151762500D01*
X106392857Y-151726785D01*
X106392857Y-151798214D01*
X105714285Y-152476785D02*
X105714285Y-151726785D01*
X105714285Y-152441071D02*
X105785714Y-152476785D01*
X105928571Y-152476785D01*
X106000000Y-152441071D01*
X106035714Y-152405357D01*
X106071428Y-152333928D01*
X106071428Y-152119642D01*
X106035714Y-152048214D01*
X106000000Y-152012500D01*
X105928571Y-151976785D01*
X105785714Y-151976785D01*
X105714285Y-152012500D01*
X105428571Y-152476785D02*
X105035714Y-151976785D01*
X105428571Y-151976785D02*
X105035714Y-152476785D01*
X104250000Y-151726785D02*
X103750000Y-151726785D01*
X104071428Y-152476785D01*
D13*
X116367745Y-126226190D02*
X116058221Y-126226190D01*
X116248697Y-126416666D01*
X116177269Y-126416666D01*
X116132626Y-126440476D01*
X116111793Y-126464285D01*
X116093936Y-126511904D01*
X116108816Y-126630952D01*
X116138578Y-126678571D01*
X116165364Y-126702380D01*
X116215959Y-126726190D01*
X116358816Y-126726190D01*
X116403459Y-126702380D01*
X116424293Y-126678571D01*
X115900483Y-126678571D02*
X115879650Y-126702380D01*
X115906436Y-126726190D01*
X115927269Y-126702380D01*
X115900483Y-126678571D01*
X115906436Y-126726190D01*
X115653459Y-126226190D02*
X115343936Y-126226190D01*
X115534412Y-126416666D01*
X115462983Y-126416666D01*
X115418340Y-126440476D01*
X115397507Y-126464285D01*
X115379650Y-126511904D01*
X115394531Y-126630952D01*
X115424293Y-126678571D01*
X115451078Y-126702380D01*
X115501674Y-126726190D01*
X115644531Y-126726190D01*
X115689174Y-126702380D01*
X115710007Y-126678571D01*
X115201078Y-126226190D02*
X115096912Y-126726190D01*
X114867745Y-126226190D01*
X114340959Y-126392857D02*
X114382626Y-126726190D01*
X114346912Y-126440476D02*
X114320126Y-126416666D01*
X114269531Y-126392857D01*
X114198102Y-126392857D01*
X114153459Y-126416666D01*
X114135602Y-126464285D01*
X114168340Y-126726190D01*
X113644531Y-126726190D02*
X113781436Y-126488095D01*
X113930245Y-126726190D02*
X113867745Y-126226190D01*
X113677269Y-126226190D01*
X113632626Y-126250000D01*
X113611793Y-126273809D01*
X113593936Y-126321428D01*
X113602864Y-126392857D01*
X113632626Y-126440476D01*
X113659412Y-126464285D01*
X113710007Y-126488095D01*
X113900483Y-126488095D01*
X113397507Y-126464285D02*
X113230840Y-126464285D01*
X113192150Y-126726190D02*
X113430245Y-126726190D01*
X113367745Y-126226190D01*
X113129650Y-126226190D01*
X112998697Y-126702380D02*
X112930245Y-126726190D01*
X112811197Y-126726190D01*
X112760602Y-126702380D01*
X112733816Y-126678571D01*
X112704055Y-126630952D01*
X112698102Y-126583333D01*
X112715959Y-126535714D01*
X112736793Y-126511904D01*
X112781436Y-126488095D01*
X112873697Y-126464285D01*
X112918340Y-126440476D01*
X112939174Y-126416666D01*
X112957031Y-126369047D01*
X112951078Y-126321428D01*
X112921316Y-126273809D01*
X112894531Y-126250000D01*
X112843936Y-126226190D01*
X112724888Y-126226190D01*
X112656436Y-126250000D01*
X112468936Y-126464285D02*
X112302269Y-126464285D01*
X112263578Y-126726190D02*
X112501674Y-126726190D01*
X112439174Y-126226190D01*
X112201078Y-126226190D01*
X112058221Y-126226190D02*
X111772507Y-126226190D01*
X111977864Y-126726190D02*
X111915364Y-126226190D01*
X111308221Y-126702380D02*
X111239769Y-126726190D01*
X111120721Y-126726190D01*
X111070126Y-126702380D01*
X111043340Y-126678571D01*
X111013578Y-126630952D01*
X111007626Y-126583333D01*
X111025483Y-126535714D01*
X111046316Y-126511904D01*
X111090959Y-126488095D01*
X111183221Y-126464285D01*
X111227864Y-126440476D01*
X111248697Y-126416666D01*
X111266555Y-126369047D01*
X111260602Y-126321428D01*
X111230840Y-126273809D01*
X111204055Y-126250000D01*
X111153459Y-126226190D01*
X111034412Y-126226190D01*
X110965959Y-126250000D01*
X110796316Y-126226190D02*
X110739769Y-126726190D01*
X110599888Y-126369047D01*
X110549293Y-126726190D01*
X110367745Y-126226190D01*
X109948102Y-126678571D02*
X109974888Y-126702380D01*
X110049293Y-126726190D01*
X110096912Y-126726190D01*
X110165364Y-126702380D01*
X110207031Y-126654761D01*
X110224888Y-126607142D01*
X110236793Y-126511904D01*
X110227864Y-126440476D01*
X110192150Y-126345238D01*
X110162388Y-126297619D01*
X110108816Y-126250000D01*
X110034412Y-126226190D01*
X109986793Y-126226190D01*
X109918340Y-126250000D01*
X109897507Y-126273809D01*
X109501674Y-126726190D02*
X109739769Y-126726190D01*
X109677269Y-126226190D01*
X109335007Y-126726190D02*
X109272507Y-126226190D01*
X109049293Y-126726190D02*
X109227864Y-126440476D01*
X108986793Y-126226190D02*
X109308221Y-126511904D01*
X108474888Y-126702380D02*
X108406436Y-126726190D01*
X108287388Y-126726190D01*
X108236793Y-126702380D01*
X108210007Y-126678571D01*
X108180245Y-126630952D01*
X108174293Y-126583333D01*
X108192150Y-126535714D01*
X108212983Y-126511904D01*
X108257626Y-126488095D01*
X108349888Y-126464285D01*
X108394531Y-126440476D01*
X108415364Y-126416666D01*
X108433221Y-126369047D01*
X108427269Y-126321428D01*
X108397507Y-126273809D01*
X108370721Y-126250000D01*
X108320126Y-126226190D01*
X108201078Y-126226190D01*
X108132626Y-126250000D01*
X107962983Y-126226190D02*
X107906436Y-126726190D01*
X107766555Y-126369047D01*
X107715959Y-126726190D01*
X107534412Y-126226190D01*
X107406436Y-126726190D02*
X107343936Y-126226190D01*
X107224888Y-126226190D01*
X107156436Y-126250000D01*
X107114769Y-126297619D01*
X107096912Y-126345238D01*
X107085007Y-126440476D01*
X107093936Y-126511904D01*
X107129650Y-126607142D01*
X107159412Y-126654761D01*
X107212983Y-126702380D01*
X107287388Y-126726190D01*
X107406436Y-126726190D01*
X106906436Y-126726190D02*
X106843936Y-126226190D01*
X106510602Y-126226190D02*
X106415364Y-126226190D01*
X106370721Y-126250000D01*
X106329055Y-126297619D01*
X106317150Y-126392857D01*
X106337983Y-126559523D01*
X106373697Y-126654761D01*
X106427269Y-126702380D01*
X106477864Y-126726190D01*
X106573102Y-126726190D01*
X106617745Y-126702380D01*
X106659412Y-126654761D01*
X106671316Y-126559523D01*
X106650483Y-126392857D01*
X106614769Y-126297619D01*
X106561197Y-126250000D01*
X106510602Y-126226190D01*
X105784412Y-126702380D02*
X105715959Y-126726190D01*
X105596912Y-126726190D01*
X105546316Y-126702380D01*
X105519531Y-126678571D01*
X105489769Y-126630952D01*
X105483816Y-126583333D01*
X105501674Y-126535714D01*
X105522507Y-126511904D01*
X105567150Y-126488095D01*
X105659412Y-126464285D01*
X105704055Y-126440476D01*
X105724888Y-126416666D01*
X105742745Y-126369047D01*
X105736793Y-126321428D01*
X105707031Y-126273809D01*
X105680245Y-126250000D01*
X105629650Y-126226190D01*
X105510602Y-126226190D01*
X105442150Y-126250000D01*
X105272507Y-126226190D02*
X105215959Y-126726190D01*
X105076078Y-126369047D01*
X105025483Y-126726190D01*
X104843936Y-126226190D01*
X104558221Y-126226190D02*
X104462983Y-126226190D01*
X104418340Y-126250000D01*
X104376674Y-126297619D01*
X104364769Y-126392857D01*
X104385602Y-126559523D01*
X104421316Y-126654761D01*
X104474888Y-126702380D01*
X104525483Y-126726190D01*
X104620721Y-126726190D01*
X104665364Y-126702380D01*
X104707031Y-126654761D01*
X104718936Y-126559523D01*
X104698102Y-126392857D01*
X104662388Y-126297619D01*
X104608816Y-126250000D01*
X104558221Y-126226190D01*
X103489769Y-126250000D02*
X103534412Y-126226190D01*
X103605840Y-126226190D01*
X103680245Y-126250000D01*
X103733816Y-126297619D01*
X103763578Y-126345238D01*
X103799293Y-126440476D01*
X103808221Y-126511904D01*
X103796316Y-126607142D01*
X103778459Y-126654761D01*
X103736793Y-126702380D01*
X103668340Y-126726190D01*
X103620721Y-126726190D01*
X103546316Y-126702380D01*
X103519531Y-126678571D01*
X103498697Y-126511904D01*
X103593936Y-126511904D01*
X103311197Y-126726190D02*
X103248697Y-126226190D01*
X103025483Y-126726190D01*
X102962983Y-126226190D01*
X102787388Y-126726190D02*
X102724888Y-126226190D01*
X102605840Y-126226190D01*
X102537388Y-126250000D01*
X102495721Y-126297619D01*
X102477864Y-126345238D01*
X102465959Y-126440476D01*
X102474888Y-126511904D01*
X102510602Y-126607142D01*
X102540364Y-126654761D01*
X102593936Y-126702380D01*
X102668340Y-126726190D01*
X102787388Y-126726190D01*
D14*
X100923809Y-130852380D02*
X100352380Y-130852380D01*
X100638095Y-131852380D02*
X100638095Y-130852380D01*
X100114285Y-130852380D02*
X99447619Y-131852380D01*
X99447619Y-130852380D02*
X100114285Y-131852380D01*
X97733333Y-131852380D02*
X98066666Y-131376190D01*
X98304761Y-131852380D02*
X98304761Y-130852380D01*
X97923809Y-130852380D01*
X97828571Y-130900000D01*
X97780952Y-130947619D01*
X97733333Y-131042857D01*
X97733333Y-131185714D01*
X97780952Y-131280952D01*
X97828571Y-131328571D01*
X97923809Y-131376190D01*
X98304761Y-131376190D01*
X97400000Y-130852380D02*
X96733333Y-131852380D01*
X96733333Y-130852380D02*
X97400000Y-131852380D01*
X95066666Y-130900000D02*
X95161904Y-130852380D01*
X95304761Y-130852380D01*
X95447619Y-130900000D01*
X95542857Y-130995238D01*
X95590476Y-131090476D01*
X95638095Y-131280952D01*
X95638095Y-131423809D01*
X95590476Y-131614285D01*
X95542857Y-131709523D01*
X95447619Y-131804761D01*
X95304761Y-131852380D01*
X95209523Y-131852380D01*
X95066666Y-131804761D01*
X95019047Y-131757142D01*
X95019047Y-131423809D01*
X95209523Y-131423809D01*
X94590476Y-131852380D02*
X94590476Y-130852380D01*
X94019047Y-131852380D01*
X94019047Y-130852380D01*
X93542857Y-131852380D02*
X93542857Y-130852380D01*
X93304761Y-130852380D01*
X93161904Y-130900000D01*
X93066666Y-130995238D01*
X93019047Y-131090476D01*
X92971428Y-131280952D01*
X92971428Y-131423809D01*
X93019047Y-131614285D01*
X93066666Y-131709523D01*
X93161904Y-131804761D01*
X93304761Y-131852380D01*
X93542857Y-131852380D01*
D15*
X132689600Y-162869800D02*
X127609600Y-162869800D01*
D14*
X124287931Y-172722460D02*
G75*
G03X124287931Y-172722460I-495951J0D01*
G01*
X146063351Y-140314600D02*
G75*
G03X146063351Y-140314600I-495951J0D01*
G01*
D16*
G36*
X140296090Y-167842348D02*
G01*
X140217546Y-167842778D01*
X140160702Y-167843942D01*
X140121895Y-167846207D01*
X140097462Y-167849940D01*
X140083738Y-167855506D01*
X140077060Y-167863273D01*
X140073764Y-167873605D01*
X140073444Y-167874943D01*
X140068438Y-167899079D01*
X140059171Y-167946701D01*
X140046608Y-168012741D01*
X140031713Y-168092128D01*
X140015449Y-168179796D01*
X140014881Y-168182875D01*
X139998590Y-168268789D01*
X139983348Y-168344696D01*
X139970139Y-168406045D01*
X139959946Y-168448282D01*
X139953752Y-168466855D01*
X139953457Y-168467184D01*
X139935212Y-168476253D01*
X139897595Y-168491367D01*
X139848729Y-168509262D01*
X139848457Y-168509358D01*
X139786907Y-168532493D01*
X139714343Y-168561965D01*
X139645943Y-168591597D01*
X139642706Y-168593062D01*
X139531298Y-168643626D01*
X139284601Y-168475160D01*
X139208923Y-168423803D01*
X139140369Y-168377889D01*
X139082912Y-168340030D01*
X139040524Y-168312837D01*
X139017175Y-168298921D01*
X139014958Y-168297889D01*
X138997990Y-168302484D01*
X138966299Y-168324655D01*
X138918648Y-168365447D01*
X138853802Y-168425905D01*
X138787603Y-168490227D01*
X138723786Y-168553612D01*
X138666671Y-168611451D01*
X138619695Y-168660175D01*
X138586297Y-168696210D01*
X138569915Y-168715984D01*
X138569306Y-168717002D01*
X138567495Y-168730572D01*
X138574317Y-168752733D01*
X138591460Y-168786478D01*
X138620607Y-168834800D01*
X138663445Y-168900692D01*
X138720552Y-168985517D01*
X138771234Y-169060177D01*
X138816539Y-169127140D01*
X138853850Y-169182516D01*
X138880548Y-169222420D01*
X138894015Y-169242962D01*
X138894863Y-169244356D01*
X138893219Y-169264038D01*
X138880755Y-169302293D01*
X138859952Y-169351889D01*
X138852538Y-169367728D01*
X138820186Y-169438290D01*
X138785672Y-169518353D01*
X138757635Y-169587629D01*
X138737432Y-169639045D01*
X138721385Y-169678119D01*
X138712112Y-169698541D01*
X138710959Y-169700114D01*
X138693904Y-169702721D01*
X138653702Y-169709863D01*
X138595698Y-169720523D01*
X138525237Y-169733685D01*
X138447665Y-169748333D01*
X138368328Y-169763449D01*
X138292569Y-169778018D01*
X138225736Y-169791022D01*
X138173172Y-169801445D01*
X138140224Y-169808270D01*
X138132143Y-169810199D01*
X138123795Y-169814962D01*
X138117494Y-169825718D01*
X138112955Y-169846098D01*
X138109896Y-169879734D01*
X138108033Y-169930255D01*
X138107082Y-170001292D01*
X138106760Y-170096476D01*
X138106743Y-170135492D01*
X138106743Y-170452799D01*
X138182943Y-170467839D01*
X138225337Y-170475995D01*
X138288600Y-170487899D01*
X138365038Y-170502116D01*
X138446957Y-170517210D01*
X138469600Y-170521355D01*
X138545194Y-170536053D01*
X138611047Y-170550505D01*
X138661634Y-170563375D01*
X138691426Y-170573322D01*
X138696388Y-170576287D01*
X138708574Y-170597283D01*
X138726047Y-170637967D01*
X138745423Y-170690322D01*
X138749266Y-170701600D01*
X138774661Y-170771523D01*
X138806183Y-170850418D01*
X138837031Y-170921266D01*
X138837183Y-170921595D01*
X138888553Y-171032733D01*
X138719601Y-171281253D01*
X138550648Y-171529772D01*
X138767571Y-171747058D01*
X138833181Y-171811726D01*
X138893021Y-171868733D01*
X138943733Y-171915033D01*
X138981954Y-171947584D01*
X139004325Y-171963343D01*
X139007534Y-171964343D01*
X139026374Y-171956469D01*
X139064820Y-171934578D01*
X139118670Y-171901267D01*
X139183724Y-171859131D01*
X139254060Y-171811943D01*
X139325445Y-171763810D01*
X139389092Y-171721928D01*
X139440959Y-171688871D01*
X139477005Y-171667218D01*
X139493133Y-171659543D01*
X139512811Y-171666037D01*
X139550125Y-171683150D01*
X139597379Y-171707326D01*
X139602388Y-171710013D01*
X139666023Y-171741927D01*
X139709659Y-171757579D01*
X139736798Y-171757745D01*
X139750943Y-171743204D01*
X139751025Y-171743000D01*
X139758095Y-171725779D01*
X139774958Y-171684899D01*
X139800305Y-171623525D01*
X139832829Y-171544819D01*
X139871222Y-171451947D01*
X139914178Y-171348072D01*
X139955778Y-171247502D01*
X140001496Y-171136516D01*
X140043474Y-171033703D01*
X140080452Y-170942215D01*
X140111173Y-170865201D01*
X140134378Y-170805815D01*
X140148810Y-170767209D01*
X140153257Y-170752800D01*
X140142104Y-170736272D01*
X140112931Y-170709930D01*
X140074029Y-170680887D01*
X139963243Y-170589039D01*
X139876649Y-170483759D01*
X139815284Y-170367266D01*
X139780185Y-170241776D01*
X139772392Y-170109507D01*
X139778057Y-170048457D01*
X139808922Y-169921795D01*
X139862080Y-169809941D01*
X139934233Y-169714001D01*
X140022083Y-169635076D01*
X140122335Y-169574270D01*
X140231690Y-169532687D01*
X140346853Y-169511428D01*
X140464525Y-169511599D01*
X140581410Y-169534301D01*
X140694211Y-169580638D01*
X140799631Y-169651713D01*
X140843632Y-169691911D01*
X140928021Y-169795129D01*
X140986778Y-169907925D01*
X141020296Y-170027010D01*
X141028965Y-170149095D01*
X141013177Y-170270893D01*
X140973322Y-170389116D01*
X140909793Y-170500475D01*
X140822979Y-170601684D01*
X140725971Y-170680887D01*
X140685563Y-170711162D01*
X140657018Y-170737219D01*
X140646743Y-170752825D01*
X140652123Y-170769843D01*
X140667425Y-170810500D01*
X140691388Y-170871642D01*
X140722756Y-170950119D01*
X140760268Y-171042780D01*
X140802667Y-171146472D01*
X140844337Y-171247526D01*
X140890310Y-171358607D01*
X140932893Y-171461541D01*
X140970779Y-171553165D01*
X141002660Y-171630316D01*
X141027229Y-171689831D01*
X141043180Y-171728544D01*
X141049090Y-171743000D01*
X141063052Y-171757685D01*
X141090060Y-171757642D01*
X141133587Y-171742099D01*
X141197110Y-171710284D01*
X141197612Y-171710013D01*
X141245440Y-171685323D01*
X141284103Y-171667338D01*
X141305905Y-171659614D01*
X141306867Y-171659543D01*
X141323279Y-171667378D01*
X141359513Y-171689165D01*
X141411526Y-171722328D01*
X141475275Y-171764291D01*
X141545940Y-171811943D01*
X141617884Y-171860191D01*
X141682726Y-171902151D01*
X141736265Y-171935227D01*
X141774303Y-171956821D01*
X141792467Y-171964343D01*
X141809192Y-171954457D01*
X141842820Y-171926826D01*
X141889990Y-171884495D01*
X141947342Y-171830505D01*
X142011516Y-171767899D01*
X142032503Y-171746983D01*
X142249501Y-171529623D01*
X142084332Y-171287220D01*
X142034136Y-171212781D01*
X141990081Y-171145972D01*
X141954638Y-171090665D01*
X141930281Y-171050729D01*
X141919478Y-171030036D01*
X141919162Y-171028563D01*
X141924857Y-171009058D01*
X141940174Y-170969822D01*
X141962463Y-170917430D01*
X141978107Y-170882355D01*
X142007359Y-170815201D01*
X142034906Y-170747358D01*
X142056263Y-170690034D01*
X142062065Y-170672572D01*
X142078548Y-170625938D01*
X142094660Y-170589905D01*
X142103510Y-170576287D01*
X142123040Y-170567952D01*
X142165666Y-170556137D01*
X142225855Y-170542181D01*
X142298078Y-170527422D01*
X142330400Y-170521355D01*
X142412478Y-170506273D01*
X142491205Y-170491669D01*
X142558891Y-170478980D01*
X142607840Y-170469642D01*
X142617057Y-170467839D01*
X142693257Y-170452799D01*
X142693257Y-170135492D01*
X142693086Y-170031154D01*
X142692384Y-169952213D01*
X142690866Y-169895038D01*
X142688251Y-169855999D01*
X142684254Y-169831465D01*
X142678591Y-169817805D01*
X142670980Y-169811389D01*
X142667857Y-169810199D01*
X142649022Y-169805980D01*
X142607412Y-169797562D01*
X142548370Y-169785961D01*
X142477243Y-169772195D01*
X142399375Y-169757280D01*
X142320113Y-169742232D01*
X142244802Y-169728069D01*
X142178787Y-169715806D01*
X142127413Y-169706461D01*
X142096025Y-169701050D01*
X142089041Y-169700114D01*
X142082715Y-169687596D01*
X142068710Y-169654246D01*
X142049645Y-169606377D01*
X142042366Y-169587629D01*
X142013004Y-169515195D01*
X141978429Y-169435170D01*
X141947463Y-169367728D01*
X141924677Y-169316159D01*
X141909518Y-169273785D01*
X141904458Y-169247834D01*
X141905264Y-169244356D01*
X141915959Y-169227936D01*
X141940380Y-169191417D01*
X141975905Y-169138687D01*
X142019913Y-169073635D01*
X142069783Y-169000151D01*
X142079644Y-168985645D01*
X142137508Y-168899704D01*
X142180044Y-168834261D01*
X142208946Y-168786304D01*
X142225910Y-168752820D01*
X142232633Y-168730795D01*
X142230810Y-168717217D01*
X142230764Y-168717131D01*
X142216414Y-168699297D01*
X142184677Y-168664817D01*
X142138990Y-168617268D01*
X142082796Y-168560222D01*
X142019532Y-168497255D01*
X142012398Y-168490227D01*
X141932670Y-168413020D01*
X141871143Y-168356330D01*
X141826579Y-168319110D01*
X141797743Y-168300315D01*
X141785042Y-168297889D01*
X141766506Y-168308471D01*
X141728039Y-168332916D01*
X141673614Y-168368612D01*
X141607202Y-168412947D01*
X141532775Y-168463311D01*
X141515399Y-168475160D01*
X141268703Y-168643626D01*
X141157294Y-168593062D01*
X141089543Y-168563595D01*
X141016817Y-168533959D01*
X140954297Y-168510330D01*
X140951543Y-168509358D01*
X140902640Y-168491457D01*
X140864943Y-168476320D01*
X140846575Y-168467210D01*
X140846544Y-168467184D01*
X140840715Y-168450717D01*
X140830808Y-168410219D01*
X140817805Y-168350242D01*
X140802691Y-168275340D01*
X140786448Y-168190064D01*
X140785119Y-168182875D01*
X140768825Y-168095014D01*
X140753867Y-168015260D01*
X140741209Y-167948681D01*
X140731814Y-167900347D01*
X140726646Y-167875325D01*
X140726556Y-167874943D01*
X140723411Y-167864299D01*
X140717296Y-167856262D01*
X140704547Y-167850467D01*
X140681500Y-167846547D01*
X140644491Y-167844135D01*
X140589856Y-167842865D01*
X140513933Y-167842371D01*
X140413056Y-167842286D01*
X140400000Y-167842286D01*
X140296090Y-167842348D01*
G37*
X140296090Y-167842348D02*
X140217546Y-167842778D01*
X140160702Y-167843942D01*
X140121895Y-167846207D01*
X140097462Y-167849940D01*
X140083738Y-167855506D01*
X140077060Y-167863273D01*
X140073764Y-167873605D01*
X140073444Y-167874943D01*
X140068438Y-167899079D01*
X140059171Y-167946701D01*
X140046608Y-168012741D01*
X140031713Y-168092128D01*
X140015449Y-168179796D01*
X140014881Y-168182875D01*
X139998590Y-168268789D01*
X139983348Y-168344696D01*
X139970139Y-168406045D01*
X139959946Y-168448282D01*
X139953752Y-168466855D01*
X139953457Y-168467184D01*
X139935212Y-168476253D01*
X139897595Y-168491367D01*
X139848729Y-168509262D01*
X139848457Y-168509358D01*
X139786907Y-168532493D01*
X139714343Y-168561965D01*
X139645943Y-168591597D01*
X139642706Y-168593062D01*
X139531298Y-168643626D01*
X139284601Y-168475160D01*
X139208923Y-168423803D01*
X139140369Y-168377889D01*
X139082912Y-168340030D01*
X139040524Y-168312837D01*
X139017175Y-168298921D01*
X139014958Y-168297889D01*
X138997990Y-168302484D01*
X138966299Y-168324655D01*
X138918648Y-168365447D01*
X138853802Y-168425905D01*
X138787603Y-168490227D01*
X138723786Y-168553612D01*
X138666671Y-168611451D01*
X138619695Y-168660175D01*
X138586297Y-168696210D01*
X138569915Y-168715984D01*
X138569306Y-168717002D01*
X138567495Y-168730572D01*
X138574317Y-168752733D01*
X138591460Y-168786478D01*
X138620607Y-168834800D01*
X138663445Y-168900692D01*
X138720552Y-168985517D01*
X138771234Y-169060177D01*
X138816539Y-169127140D01*
X138853850Y-169182516D01*
X138880548Y-169222420D01*
X138894015Y-169242962D01*
X138894863Y-169244356D01*
X138893219Y-169264038D01*
X138880755Y-169302293D01*
X138859952Y-169351889D01*
X138852538Y-169367728D01*
X138820186Y-169438290D01*
X138785672Y-169518353D01*
X138757635Y-169587629D01*
X138737432Y-169639045D01*
X138721385Y-169678119D01*
X138712112Y-169698541D01*
X138710959Y-169700114D01*
X138693904Y-169702721D01*
X138653702Y-169709863D01*
X138595698Y-169720523D01*
X138525237Y-169733685D01*
X138447665Y-169748333D01*
X138368328Y-169763449D01*
X138292569Y-169778018D01*
X138225736Y-169791022D01*
X138173172Y-169801445D01*
X138140224Y-169808270D01*
X138132143Y-169810199D01*
X138123795Y-169814962D01*
X138117494Y-169825718D01*
X138112955Y-169846098D01*
X138109896Y-169879734D01*
X138108033Y-169930255D01*
X138107082Y-170001292D01*
X138106760Y-170096476D01*
X138106743Y-170135492D01*
X138106743Y-170452799D01*
X138182943Y-170467839D01*
X138225337Y-170475995D01*
X138288600Y-170487899D01*
X138365038Y-170502116D01*
X138446957Y-170517210D01*
X138469600Y-170521355D01*
X138545194Y-170536053D01*
X138611047Y-170550505D01*
X138661634Y-170563375D01*
X138691426Y-170573322D01*
X138696388Y-170576287D01*
X138708574Y-170597283D01*
X138726047Y-170637967D01*
X138745423Y-170690322D01*
X138749266Y-170701600D01*
X138774661Y-170771523D01*
X138806183Y-170850418D01*
X138837031Y-170921266D01*
X138837183Y-170921595D01*
X138888553Y-171032733D01*
X138719601Y-171281253D01*
X138550648Y-171529772D01*
X138767571Y-171747058D01*
X138833181Y-171811726D01*
X138893021Y-171868733D01*
X138943733Y-171915033D01*
X138981954Y-171947584D01*
X139004325Y-171963343D01*
X139007534Y-171964343D01*
X139026374Y-171956469D01*
X139064820Y-171934578D01*
X139118670Y-171901267D01*
X139183724Y-171859131D01*
X139254060Y-171811943D01*
X139325445Y-171763810D01*
X139389092Y-171721928D01*
X139440959Y-171688871D01*
X139477005Y-171667218D01*
X139493133Y-171659543D01*
X139512811Y-171666037D01*
X139550125Y-171683150D01*
X139597379Y-171707326D01*
X139602388Y-171710013D01*
X139666023Y-171741927D01*
X139709659Y-171757579D01*
X139736798Y-171757745D01*
X139750943Y-171743204D01*
X139751025Y-171743000D01*
X139758095Y-171725779D01*
X139774958Y-171684899D01*
X139800305Y-171623525D01*
X139832829Y-171544819D01*
X139871222Y-171451947D01*
X139914178Y-171348072D01*
X139955778Y-171247502D01*
X140001496Y-171136516D01*
X140043474Y-171033703D01*
X140080452Y-170942215D01*
X140111173Y-170865201D01*
X140134378Y-170805815D01*
X140148810Y-170767209D01*
X140153257Y-170752800D01*
X140142104Y-170736272D01*
X140112931Y-170709930D01*
X140074029Y-170680887D01*
X139963243Y-170589039D01*
X139876649Y-170483759D01*
X139815284Y-170367266D01*
X139780185Y-170241776D01*
X139772392Y-170109507D01*
X139778057Y-170048457D01*
X139808922Y-169921795D01*
X139862080Y-169809941D01*
X139934233Y-169714001D01*
X140022083Y-169635076D01*
X140122335Y-169574270D01*
X140231690Y-169532687D01*
X140346853Y-169511428D01*
X140464525Y-169511599D01*
X140581410Y-169534301D01*
X140694211Y-169580638D01*
X140799631Y-169651713D01*
X140843632Y-169691911D01*
X140928021Y-169795129D01*
X140986778Y-169907925D01*
X141020296Y-170027010D01*
X141028965Y-170149095D01*
X141013177Y-170270893D01*
X140973322Y-170389116D01*
X140909793Y-170500475D01*
X140822979Y-170601684D01*
X140725971Y-170680887D01*
X140685563Y-170711162D01*
X140657018Y-170737219D01*
X140646743Y-170752825D01*
X140652123Y-170769843D01*
X140667425Y-170810500D01*
X140691388Y-170871642D01*
X140722756Y-170950119D01*
X140760268Y-171042780D01*
X140802667Y-171146472D01*
X140844337Y-171247526D01*
X140890310Y-171358607D01*
X140932893Y-171461541D01*
X140970779Y-171553165D01*
X141002660Y-171630316D01*
X141027229Y-171689831D01*
X141043180Y-171728544D01*
X141049090Y-171743000D01*
X141063052Y-171757685D01*
X141090060Y-171757642D01*
X141133587Y-171742099D01*
X141197110Y-171710284D01*
X141197612Y-171710013D01*
X141245440Y-171685323D01*
X141284103Y-171667338D01*
X141305905Y-171659614D01*
X141306867Y-171659543D01*
X141323279Y-171667378D01*
X141359513Y-171689165D01*
X141411526Y-171722328D01*
X141475275Y-171764291D01*
X141545940Y-171811943D01*
X141617884Y-171860191D01*
X141682726Y-171902151D01*
X141736265Y-171935227D01*
X141774303Y-171956821D01*
X141792467Y-171964343D01*
X141809192Y-171954457D01*
X141842820Y-171926826D01*
X141889990Y-171884495D01*
X141947342Y-171830505D01*
X142011516Y-171767899D01*
X142032503Y-171746983D01*
X142249501Y-171529623D01*
X142084332Y-171287220D01*
X142034136Y-171212781D01*
X141990081Y-171145972D01*
X141954638Y-171090665D01*
X141930281Y-171050729D01*
X141919478Y-171030036D01*
X141919162Y-171028563D01*
X141924857Y-171009058D01*
X141940174Y-170969822D01*
X141962463Y-170917430D01*
X141978107Y-170882355D01*
X142007359Y-170815201D01*
X142034906Y-170747358D01*
X142056263Y-170690034D01*
X142062065Y-170672572D01*
X142078548Y-170625938D01*
X142094660Y-170589905D01*
X142103510Y-170576287D01*
X142123040Y-170567952D01*
X142165666Y-170556137D01*
X142225855Y-170542181D01*
X142298078Y-170527422D01*
X142330400Y-170521355D01*
X142412478Y-170506273D01*
X142491205Y-170491669D01*
X142558891Y-170478980D01*
X142607840Y-170469642D01*
X142617057Y-170467839D01*
X142693257Y-170452799D01*
X142693257Y-170135492D01*
X142693086Y-170031154D01*
X142692384Y-169952213D01*
X142690866Y-169895038D01*
X142688251Y-169855999D01*
X142684254Y-169831465D01*
X142678591Y-169817805D01*
X142670980Y-169811389D01*
X142667857Y-169810199D01*
X142649022Y-169805980D01*
X142607412Y-169797562D01*
X142548370Y-169785961D01*
X142477243Y-169772195D01*
X142399375Y-169757280D01*
X142320113Y-169742232D01*
X142244802Y-169728069D01*
X142178787Y-169715806D01*
X142127413Y-169706461D01*
X142096025Y-169701050D01*
X142089041Y-169700114D01*
X142082715Y-169687596D01*
X142068710Y-169654246D01*
X142049645Y-169606377D01*
X142042366Y-169587629D01*
X142013004Y-169515195D01*
X141978429Y-169435170D01*
X141947463Y-169367728D01*
X141924677Y-169316159D01*
X141909518Y-169273785D01*
X141904458Y-169247834D01*
X141905264Y-169244356D01*
X141915959Y-169227936D01*
X141940380Y-169191417D01*
X141975905Y-169138687D01*
X142019913Y-169073635D01*
X142069783Y-169000151D01*
X142079644Y-168985645D01*
X142137508Y-168899704D01*
X142180044Y-168834261D01*
X142208946Y-168786304D01*
X142225910Y-168752820D01*
X142232633Y-168730795D01*
X142230810Y-168717217D01*
X142230764Y-168717131D01*
X142216414Y-168699297D01*
X142184677Y-168664817D01*
X142138990Y-168617268D01*
X142082796Y-168560222D01*
X142019532Y-168497255D01*
X142012398Y-168490227D01*
X141932670Y-168413020D01*
X141871143Y-168356330D01*
X141826579Y-168319110D01*
X141797743Y-168300315D01*
X141785042Y-168297889D01*
X141766506Y-168308471D01*
X141728039Y-168332916D01*
X141673614Y-168368612D01*
X141607202Y-168412947D01*
X141532775Y-168463311D01*
X141515399Y-168475160D01*
X141268703Y-168643626D01*
X141157294Y-168593062D01*
X141089543Y-168563595D01*
X141016817Y-168533959D01*
X140954297Y-168510330D01*
X140951543Y-168509358D01*
X140902640Y-168491457D01*
X140864943Y-168476320D01*
X140846575Y-168467210D01*
X140846544Y-168467184D01*
X140840715Y-168450717D01*
X140830808Y-168410219D01*
X140817805Y-168350242D01*
X140802691Y-168275340D01*
X140786448Y-168190064D01*
X140785119Y-168182875D01*
X140768825Y-168095014D01*
X140753867Y-168015260D01*
X140741209Y-167948681D01*
X140731814Y-167900347D01*
X140726646Y-167875325D01*
X140726556Y-167874943D01*
X140723411Y-167864299D01*
X140717296Y-167856262D01*
X140704547Y-167850467D01*
X140681500Y-167846547D01*
X140644491Y-167844135D01*
X140589856Y-167842865D01*
X140513933Y-167842371D01*
X140413056Y-167842286D01*
X140400000Y-167842286D01*
X140296090Y-167842348D01*
G36*
X137246405Y-172566966D02*
G01*
X137188979Y-172604497D01*
X137161281Y-172638096D01*
X137139338Y-172699064D01*
X137137595Y-172747308D01*
X137141543Y-172811816D01*
X137290314Y-172876934D01*
X137362651Y-172910202D01*
X137409916Y-172936964D01*
X137434493Y-172960144D01*
X137438763Y-172982667D01*
X137425111Y-173007455D01*
X137410057Y-173023886D01*
X137366254Y-173050235D01*
X137318611Y-173052081D01*
X137274855Y-173031546D01*
X137242711Y-172990752D01*
X137236962Y-172976347D01*
X137209424Y-172931356D01*
X137177742Y-172912182D01*
X137134286Y-172895779D01*
X137134286Y-172957966D01*
X137138128Y-173000283D01*
X137153177Y-173035969D01*
X137184720Y-173076943D01*
X137189408Y-173082267D01*
X137224494Y-173118720D01*
X137254653Y-173138283D01*
X137292385Y-173147283D01*
X137323665Y-173150230D01*
X137379615Y-173150965D01*
X137419445Y-173141660D01*
X137444292Y-173127846D01*
X137483344Y-173097467D01*
X137510375Y-173064613D01*
X137527483Y-173023294D01*
X137536762Y-172967521D01*
X137540307Y-172891305D01*
X137540590Y-172852622D01*
X137539628Y-172806247D01*
X137451993Y-172806247D01*
X137450977Y-172831126D01*
X137448444Y-172835200D01*
X137431726Y-172829665D01*
X137395751Y-172815017D01*
X137347669Y-172794190D01*
X137337614Y-172789714D01*
X137276848Y-172758814D01*
X137243368Y-172731657D01*
X137236010Y-172706220D01*
X137253609Y-172680481D01*
X137268144Y-172669109D01*
X137320590Y-172646364D01*
X137369678Y-172650122D01*
X137410773Y-172677884D01*
X137439242Y-172727152D01*
X137448369Y-172766257D01*
X137451993Y-172806247D01*
X137539628Y-172806247D01*
X137538715Y-172762249D01*
X137531804Y-172695384D01*
X137518116Y-172646695D01*
X137495904Y-172610849D01*
X137463426Y-172582513D01*
X137449267Y-172573355D01*
X137384947Y-172549507D01*
X137314527Y-172548006D01*
X137246405Y-172566966D01*
G37*
X137246405Y-172566966D02*
X137188979Y-172604497D01*
X137161281Y-172638096D01*
X137139338Y-172699064D01*
X137137595Y-172747308D01*
X137141543Y-172811816D01*
X137290314Y-172876934D01*
X137362651Y-172910202D01*
X137409916Y-172936964D01*
X137434493Y-172960144D01*
X137438763Y-172982667D01*
X137425111Y-173007455D01*
X137410057Y-173023886D01*
X137366254Y-173050235D01*
X137318611Y-173052081D01*
X137274855Y-173031546D01*
X137242711Y-172990752D01*
X137236962Y-172976347D01*
X137209424Y-172931356D01*
X137177742Y-172912182D01*
X137134286Y-172895779D01*
X137134286Y-172957966D01*
X137138128Y-173000283D01*
X137153177Y-173035969D01*
X137184720Y-173076943D01*
X137189408Y-173082267D01*
X137224494Y-173118720D01*
X137254653Y-173138283D01*
X137292385Y-173147283D01*
X137323665Y-173150230D01*
X137379615Y-173150965D01*
X137419445Y-173141660D01*
X137444292Y-173127846D01*
X137483344Y-173097467D01*
X137510375Y-173064613D01*
X137527483Y-173023294D01*
X137536762Y-172967521D01*
X137540307Y-172891305D01*
X137540590Y-172852622D01*
X137539628Y-172806247D01*
X137451993Y-172806247D01*
X137450977Y-172831126D01*
X137448444Y-172835200D01*
X137431726Y-172829665D01*
X137395751Y-172815017D01*
X137347669Y-172794190D01*
X137337614Y-172789714D01*
X137276848Y-172758814D01*
X137243368Y-172731657D01*
X137236010Y-172706220D01*
X137253609Y-172680481D01*
X137268144Y-172669109D01*
X137320590Y-172646364D01*
X137369678Y-172650122D01*
X137410773Y-172677884D01*
X137439242Y-172727152D01*
X137448369Y-172766257D01*
X137451993Y-172806247D01*
X137539628Y-172806247D01*
X137538715Y-172762249D01*
X137531804Y-172695384D01*
X137518116Y-172646695D01*
X137495904Y-172610849D01*
X137463426Y-172582513D01*
X137449267Y-172573355D01*
X137384947Y-172549507D01*
X137314527Y-172548006D01*
X137246405Y-172566966D01*
G36*
X137747400Y-172558752D02*
G01*
X137730052Y-172566334D01*
X137688644Y-172599128D01*
X137653235Y-172646547D01*
X137631336Y-172697151D01*
X137627771Y-172722098D01*
X137639721Y-172756927D01*
X137665933Y-172775357D01*
X137694036Y-172786516D01*
X137706905Y-172788572D01*
X137713171Y-172773649D01*
X137725544Y-172741175D01*
X137730972Y-172726502D01*
X137761410Y-172675744D01*
X137805480Y-172650427D01*
X137861990Y-172651206D01*
X137866175Y-172652203D01*
X137896345Y-172666507D01*
X137918524Y-172694393D01*
X137933673Y-172739287D01*
X137942750Y-172804615D01*
X137946714Y-172893804D01*
X137947086Y-172941261D01*
X137947270Y-173016071D01*
X137948478Y-173067069D01*
X137951691Y-173099471D01*
X137957891Y-173118495D01*
X137968060Y-173129356D01*
X137983181Y-173137272D01*
X137984054Y-173137670D01*
X138013172Y-173149981D01*
X138027597Y-173154514D01*
X138029814Y-173140809D01*
X138031711Y-173102925D01*
X138033153Y-173045715D01*
X138034002Y-172974027D01*
X138034171Y-172921565D01*
X138033308Y-172820047D01*
X138029930Y-172743032D01*
X138022858Y-172686023D01*
X138010912Y-172644526D01*
X137992910Y-172614043D01*
X137967673Y-172590080D01*
X137942753Y-172573355D01*
X137882829Y-172551097D01*
X137813089Y-172546076D01*
X137747400Y-172558752D01*
G37*
X137747400Y-172558752D02*
X137730052Y-172566334D01*
X137688644Y-172599128D01*
X137653235Y-172646547D01*
X137631336Y-172697151D01*
X137627771Y-172722098D01*
X137639721Y-172756927D01*
X137665933Y-172775357D01*
X137694036Y-172786516D01*
X137706905Y-172788572D01*
X137713171Y-172773649D01*
X137725544Y-172741175D01*
X137730972Y-172726502D01*
X137761410Y-172675744D01*
X137805480Y-172650427D01*
X137861990Y-172651206D01*
X137866175Y-172652203D01*
X137896345Y-172666507D01*
X137918524Y-172694393D01*
X137933673Y-172739287D01*
X137942750Y-172804615D01*
X137946714Y-172893804D01*
X137947086Y-172941261D01*
X137947270Y-173016071D01*
X137948478Y-173067069D01*
X137951691Y-173099471D01*
X137957891Y-173118495D01*
X137968060Y-173129356D01*
X137983181Y-173137272D01*
X137984054Y-173137670D01*
X138013172Y-173149981D01*
X138027597Y-173154514D01*
X138029814Y-173140809D01*
X138031711Y-173102925D01*
X138033153Y-173045715D01*
X138034002Y-172974027D01*
X138034171Y-172921565D01*
X138033308Y-172820047D01*
X138029930Y-172743032D01*
X138022858Y-172686023D01*
X138010912Y-172644526D01*
X137992910Y-172614043D01*
X137967673Y-172590080D01*
X137942753Y-172573355D01*
X137882829Y-172551097D01*
X137813089Y-172546076D01*
X137747400Y-172558752D01*
G36*
X138255124Y-172556335D02*
G01*
X138213333Y-172575344D01*
X138180531Y-172598378D01*
X138156497Y-172624133D01*
X138139903Y-172657358D01*
X138129423Y-172702800D01*
X138123729Y-172765207D01*
X138121493Y-172849327D01*
X138121257Y-172904721D01*
X138121257Y-173120826D01*
X138158226Y-173137670D01*
X138187344Y-173149981D01*
X138201769Y-173154514D01*
X138204528Y-173141025D01*
X138206718Y-173104653D01*
X138208058Y-173051542D01*
X138208343Y-173009372D01*
X138209566Y-172948447D01*
X138212864Y-172900115D01*
X138217679Y-172870518D01*
X138221504Y-172864229D01*
X138247217Y-172870652D01*
X138287582Y-172887125D01*
X138334321Y-172909458D01*
X138379155Y-172933457D01*
X138413807Y-172954930D01*
X138429998Y-172969685D01*
X138430062Y-172969845D01*
X138428670Y-172997152D01*
X138416182Y-173023219D01*
X138394257Y-173044392D01*
X138362257Y-173051474D01*
X138334908Y-173050649D01*
X138296174Y-173050042D01*
X138275842Y-173059116D01*
X138263631Y-173083092D01*
X138262091Y-173087613D01*
X138256797Y-173121806D01*
X138270953Y-173142568D01*
X138307852Y-173152462D01*
X138347711Y-173154292D01*
X138419438Y-173140727D01*
X138456568Y-173121355D01*
X138502424Y-173075845D01*
X138526744Y-173019983D01*
X138528927Y-172960957D01*
X138508371Y-172905953D01*
X138477451Y-172871486D01*
X138446580Y-172852189D01*
X138398058Y-172827759D01*
X138341515Y-172802985D01*
X138332090Y-172799199D01*
X138269981Y-172771791D01*
X138234178Y-172747634D01*
X138222663Y-172723619D01*
X138233420Y-172696635D01*
X138251886Y-172675543D01*
X138295531Y-172649572D01*
X138343554Y-172647624D01*
X138387594Y-172667637D01*
X138419291Y-172707551D01*
X138423451Y-172717848D01*
X138447673Y-172755724D01*
X138483035Y-172783842D01*
X138527657Y-172806917D01*
X138527657Y-172741485D01*
X138525031Y-172701506D01*
X138513770Y-172669997D01*
X138488801Y-172636378D01*
X138464831Y-172610484D01*
X138427559Y-172573817D01*
X138398599Y-172554121D01*
X138367495Y-172546220D01*
X138332287Y-172544914D01*
X138255124Y-172556335D01*
G37*
X138255124Y-172556335D02*
X138213333Y-172575344D01*
X138180531Y-172598378D01*
X138156497Y-172624133D01*
X138139903Y-172657358D01*
X138129423Y-172702800D01*
X138123729Y-172765207D01*
X138121493Y-172849327D01*
X138121257Y-172904721D01*
X138121257Y-173120826D01*
X138158226Y-173137670D01*
X138187344Y-173149981D01*
X138201769Y-173154514D01*
X138204528Y-173141025D01*
X138206718Y-173104653D01*
X138208058Y-173051542D01*
X138208343Y-173009372D01*
X138209566Y-172948447D01*
X138212864Y-172900115D01*
X138217679Y-172870518D01*
X138221504Y-172864229D01*
X138247217Y-172870652D01*
X138287582Y-172887125D01*
X138334321Y-172909458D01*
X138379155Y-172933457D01*
X138413807Y-172954930D01*
X138429998Y-172969685D01*
X138430062Y-172969845D01*
X138428670Y-172997152D01*
X138416182Y-173023219D01*
X138394257Y-173044392D01*
X138362257Y-173051474D01*
X138334908Y-173050649D01*
X138296174Y-173050042D01*
X138275842Y-173059116D01*
X138263631Y-173083092D01*
X138262091Y-173087613D01*
X138256797Y-173121806D01*
X138270953Y-173142568D01*
X138307852Y-173152462D01*
X138347711Y-173154292D01*
X138419438Y-173140727D01*
X138456568Y-173121355D01*
X138502424Y-173075845D01*
X138526744Y-173019983D01*
X138528927Y-172960957D01*
X138508371Y-172905953D01*
X138477451Y-172871486D01*
X138446580Y-172852189D01*
X138398058Y-172827759D01*
X138341515Y-172802985D01*
X138332090Y-172799199D01*
X138269981Y-172771791D01*
X138234178Y-172747634D01*
X138222663Y-172723619D01*
X138233420Y-172696635D01*
X138251886Y-172675543D01*
X138295531Y-172649572D01*
X138343554Y-172647624D01*
X138387594Y-172667637D01*
X138419291Y-172707551D01*
X138423451Y-172717848D01*
X138447673Y-172755724D01*
X138483035Y-172783842D01*
X138527657Y-172806917D01*
X138527657Y-172741485D01*
X138525031Y-172701506D01*
X138513770Y-172669997D01*
X138488801Y-172636378D01*
X138464831Y-172610484D01*
X138427559Y-172573817D01*
X138398599Y-172554121D01*
X138367495Y-172546220D01*
X138332287Y-172544914D01*
X138255124Y-172556335D01*
G36*
X138620167Y-172558663D02*
G01*
X138617952Y-172596850D01*
X138616216Y-172654886D01*
X138615101Y-172728180D01*
X138614743Y-172805055D01*
X138614743Y-173065196D01*
X138660674Y-173111127D01*
X138692325Y-173139429D01*
X138720110Y-173150893D01*
X138758085Y-173150168D01*
X138773160Y-173148321D01*
X138820274Y-173142948D01*
X138859244Y-173139869D01*
X138868743Y-173139585D01*
X138900767Y-173141445D01*
X138946568Y-173146114D01*
X138964326Y-173148321D01*
X139007943Y-173151735D01*
X139037255Y-173144320D01*
X139066320Y-173121427D01*
X139076812Y-173111127D01*
X139122743Y-173065196D01*
X139122743Y-172578602D01*
X139085774Y-172561758D01*
X139053941Y-172549282D01*
X139035317Y-172544914D01*
X139030542Y-172558718D01*
X139026079Y-172597286D01*
X139022225Y-172656356D01*
X139019278Y-172731663D01*
X139017857Y-172795286D01*
X139013886Y-173045657D01*
X138979241Y-173050556D01*
X138947732Y-173047131D01*
X138932292Y-173036041D01*
X138927977Y-173015308D01*
X138924292Y-172971145D01*
X138921531Y-172909146D01*
X138919988Y-172834909D01*
X138919765Y-172796706D01*
X138919543Y-172576783D01*
X138873834Y-172560849D01*
X138841482Y-172550015D01*
X138823885Y-172544962D01*
X138823377Y-172544914D01*
X138821612Y-172558648D01*
X138819671Y-172596730D01*
X138817718Y-172654482D01*
X138815916Y-172727227D01*
X138814657Y-172795286D01*
X138810686Y-173045657D01*
X138723600Y-173045657D01*
X138719604Y-172817240D01*
X138715608Y-172588822D01*
X138673153Y-172566868D01*
X138641808Y-172551793D01*
X138623256Y-172544951D01*
X138622721Y-172544914D01*
X138620167Y-172558663D01*
G37*
X138620167Y-172558663D02*
X138617952Y-172596850D01*
X138616216Y-172654886D01*
X138615101Y-172728180D01*
X138614743Y-172805055D01*
X138614743Y-173065196D01*
X138660674Y-173111127D01*
X138692325Y-173139429D01*
X138720110Y-173150893D01*
X138758085Y-173150168D01*
X138773160Y-173148321D01*
X138820274Y-173142948D01*
X138859244Y-173139869D01*
X138868743Y-173139585D01*
X138900767Y-173141445D01*
X138946568Y-173146114D01*
X138964326Y-173148321D01*
X139007943Y-173151735D01*
X139037255Y-173144320D01*
X139066320Y-173121427D01*
X139076812Y-173111127D01*
X139122743Y-173065196D01*
X139122743Y-172578602D01*
X139085774Y-172561758D01*
X139053941Y-172549282D01*
X139035317Y-172544914D01*
X139030542Y-172558718D01*
X139026079Y-172597286D01*
X139022225Y-172656356D01*
X139019278Y-172731663D01*
X139017857Y-172795286D01*
X139013886Y-173045657D01*
X138979241Y-173050556D01*
X138947732Y-173047131D01*
X138932292Y-173036041D01*
X138927977Y-173015308D01*
X138924292Y-172971145D01*
X138921531Y-172909146D01*
X138919988Y-172834909D01*
X138919765Y-172796706D01*
X138919543Y-172576783D01*
X138873834Y-172560849D01*
X138841482Y-172550015D01*
X138823885Y-172544962D01*
X138823377Y-172544914D01*
X138821612Y-172558648D01*
X138819671Y-172596730D01*
X138817718Y-172654482D01*
X138815916Y-172727227D01*
X138814657Y-172795286D01*
X138810686Y-173045657D01*
X138723600Y-173045657D01*
X138719604Y-172817240D01*
X138715608Y-172588822D01*
X138673153Y-172566868D01*
X138641808Y-172551793D01*
X138623256Y-172544951D01*
X138622721Y-172544914D01*
X138620167Y-172558663D01*
G36*
X139209883Y-172665358D02*
G01*
X139210067Y-172773837D01*
X139210781Y-172857287D01*
X139212325Y-172919704D01*
X139214999Y-172965085D01*
X139219106Y-172997429D01*
X139224945Y-173020733D01*
X139232818Y-173038995D01*
X139238779Y-173049418D01*
X139288145Y-173105945D01*
X139350736Y-173141377D01*
X139419987Y-173154090D01*
X139489332Y-173142463D01*
X139530625Y-173121568D01*
X139573975Y-173085422D01*
X139603519Y-173041276D01*
X139621345Y-172983462D01*
X139629537Y-172906313D01*
X139630698Y-172849714D01*
X139630542Y-172845647D01*
X139529143Y-172845647D01*
X139528524Y-172910550D01*
X139525686Y-172953514D01*
X139519160Y-172981622D01*
X139507477Y-173001953D01*
X139493517Y-173017288D01*
X139446635Y-173046890D01*
X139396299Y-173049419D01*
X139348724Y-173024705D01*
X139345021Y-173021356D01*
X139329217Y-173003935D01*
X139319307Y-172983209D01*
X139313942Y-172952362D01*
X139311772Y-172904577D01*
X139311429Y-172851748D01*
X139312173Y-172785381D01*
X139315252Y-172741106D01*
X139321939Y-172712009D01*
X139333504Y-172691173D01*
X139342987Y-172680107D01*
X139387040Y-172652198D01*
X139437776Y-172648843D01*
X139486204Y-172670159D01*
X139495550Y-172678073D01*
X139511460Y-172695647D01*
X139521390Y-172716587D01*
X139526722Y-172747782D01*
X139528837Y-172796122D01*
X139529143Y-172845647D01*
X139630542Y-172845647D01*
X139627190Y-172758568D01*
X139615274Y-172690086D01*
X139592865Y-172638600D01*
X139557876Y-172598443D01*
X139530625Y-172577861D01*
X139481093Y-172555625D01*
X139423684Y-172545304D01*
X139370318Y-172548067D01*
X139340457Y-172559212D01*
X139328739Y-172562383D01*
X139320963Y-172550557D01*
X139315535Y-172518866D01*
X139311429Y-172470593D01*
X139306933Y-172416829D01*
X139300687Y-172384482D01*
X139289324Y-172365985D01*
X139269472Y-172353770D01*
X139257000Y-172348362D01*
X139209829Y-172328601D01*
X139209883Y-172665358D01*
G37*
X139209883Y-172665358D02*
X139210067Y-172773837D01*
X139210781Y-172857287D01*
X139212325Y-172919704D01*
X139214999Y-172965085D01*
X139219106Y-172997429D01*
X139224945Y-173020733D01*
X139232818Y-173038995D01*
X139238779Y-173049418D01*
X139288145Y-173105945D01*
X139350736Y-173141377D01*
X139419987Y-173154090D01*
X139489332Y-173142463D01*
X139530625Y-173121568D01*
X139573975Y-173085422D01*
X139603519Y-173041276D01*
X139621345Y-172983462D01*
X139629537Y-172906313D01*
X139630698Y-172849714D01*
X139630542Y-172845647D01*
X139529143Y-172845647D01*
X139528524Y-172910550D01*
X139525686Y-172953514D01*
X139519160Y-172981622D01*
X139507477Y-173001953D01*
X139493517Y-173017288D01*
X139446635Y-173046890D01*
X139396299Y-173049419D01*
X139348724Y-173024705D01*
X139345021Y-173021356D01*
X139329217Y-173003935D01*
X139319307Y-172983209D01*
X139313942Y-172952362D01*
X139311772Y-172904577D01*
X139311429Y-172851748D01*
X139312173Y-172785381D01*
X139315252Y-172741106D01*
X139321939Y-172712009D01*
X139333504Y-172691173D01*
X139342987Y-172680107D01*
X139387040Y-172652198D01*
X139437776Y-172648843D01*
X139486204Y-172670159D01*
X139495550Y-172678073D01*
X139511460Y-172695647D01*
X139521390Y-172716587D01*
X139526722Y-172747782D01*
X139528837Y-172796122D01*
X139529143Y-172845647D01*
X139630542Y-172845647D01*
X139627190Y-172758568D01*
X139615274Y-172690086D01*
X139592865Y-172638600D01*
X139557876Y-172598443D01*
X139530625Y-172577861D01*
X139481093Y-172555625D01*
X139423684Y-172545304D01*
X139370318Y-172548067D01*
X139340457Y-172559212D01*
X139328739Y-172562383D01*
X139320963Y-172550557D01*
X139315535Y-172518866D01*
X139311429Y-172470593D01*
X139306933Y-172416829D01*
X139300687Y-172384482D01*
X139289324Y-172365985D01*
X139269472Y-172353770D01*
X139257000Y-172348362D01*
X139209829Y-172328601D01*
X139209883Y-172665358D01*
G36*
X139870074Y-172549755D02*
G01*
X139804142Y-172574084D01*
X139750727Y-172617117D01*
X139729836Y-172647409D01*
X139707061Y-172702994D01*
X139707534Y-172743186D01*
X139731438Y-172770217D01*
X139740283Y-172774813D01*
X139778470Y-172789144D01*
X139797972Y-172785472D01*
X139804578Y-172761407D01*
X139804914Y-172748114D01*
X139817008Y-172699210D01*
X139848529Y-172664999D01*
X139892341Y-172648476D01*
X139941305Y-172652634D01*
X139981106Y-172674227D01*
X139994550Y-172686544D01*
X140004079Y-172701487D01*
X140010515Y-172724075D01*
X140014683Y-172759328D01*
X140017403Y-172812266D01*
X140019498Y-172887907D01*
X140020040Y-172911857D01*
X140022019Y-172993790D01*
X140024269Y-173051455D01*
X140027643Y-173089608D01*
X140032994Y-173113004D01*
X140041176Y-173126398D01*
X140053041Y-173134545D01*
X140060638Y-173138144D01*
X140092898Y-173150452D01*
X140111889Y-173154514D01*
X140118164Y-173140948D01*
X140121994Y-173099934D01*
X140123400Y-173030999D01*
X140122402Y-172933669D01*
X140122092Y-172918657D01*
X140119899Y-172829859D01*
X140117307Y-172765019D01*
X140113618Y-172719067D01*
X140108136Y-172686935D01*
X140100165Y-172663553D01*
X140089007Y-172643852D01*
X140083170Y-172635410D01*
X140049704Y-172598057D01*
X140012273Y-172569003D01*
X140007691Y-172566467D01*
X139940574Y-172546443D01*
X139870074Y-172549755D01*
G37*
X139870074Y-172549755D02*
X139804142Y-172574084D01*
X139750727Y-172617117D01*
X139729836Y-172647409D01*
X139707061Y-172702994D01*
X139707534Y-172743186D01*
X139731438Y-172770217D01*
X139740283Y-172774813D01*
X139778470Y-172789144D01*
X139797972Y-172785472D01*
X139804578Y-172761407D01*
X139804914Y-172748114D01*
X139817008Y-172699210D01*
X139848529Y-172664999D01*
X139892341Y-172648476D01*
X139941305Y-172652634D01*
X139981106Y-172674227D01*
X139994550Y-172686544D01*
X140004079Y-172701487D01*
X140010515Y-172724075D01*
X140014683Y-172759328D01*
X140017403Y-172812266D01*
X140019498Y-172887907D01*
X140020040Y-172911857D01*
X140022019Y-172993790D01*
X140024269Y-173051455D01*
X140027643Y-173089608D01*
X140032994Y-173113004D01*
X140041176Y-173126398D01*
X140053041Y-173134545D01*
X140060638Y-173138144D01*
X140092898Y-173150452D01*
X140111889Y-173154514D01*
X140118164Y-173140948D01*
X140121994Y-173099934D01*
X140123400Y-173030999D01*
X140122402Y-172933669D01*
X140122092Y-172918657D01*
X140119899Y-172829859D01*
X140117307Y-172765019D01*
X140113618Y-172719067D01*
X140108136Y-172686935D01*
X140100165Y-172663553D01*
X140089007Y-172643852D01*
X140083170Y-172635410D01*
X140049704Y-172598057D01*
X140012273Y-172569003D01*
X140007691Y-172566467D01*
X139940574Y-172546443D01*
X139870074Y-172549755D01*
G36*
X140360256Y-172550968D02*
G01*
X140303384Y-172572087D01*
X140302733Y-172572493D01*
X140267560Y-172598380D01*
X140241593Y-172628633D01*
X140223330Y-172668058D01*
X140211268Y-172721462D01*
X140203904Y-172793651D01*
X140199736Y-172889432D01*
X140199371Y-172903078D01*
X140194124Y-173108842D01*
X140238284Y-173131678D01*
X140270237Y-173147110D01*
X140289530Y-173154423D01*
X140290422Y-173154514D01*
X140293761Y-173141022D01*
X140296413Y-173104626D01*
X140298044Y-173051452D01*
X140298400Y-173008393D01*
X140298408Y-172938641D01*
X140301597Y-172894837D01*
X140312712Y-172873944D01*
X140336499Y-172872925D01*
X140377704Y-172888741D01*
X140439914Y-172917815D01*
X140485659Y-172941963D01*
X140509187Y-172962913D01*
X140516104Y-172985747D01*
X140516114Y-172986877D01*
X140504701Y-173026212D01*
X140470908Y-173047462D01*
X140419191Y-173050539D01*
X140381939Y-173050006D01*
X140362297Y-173060735D01*
X140350048Y-173086505D01*
X140342998Y-173119337D01*
X140353158Y-173137966D01*
X140356983Y-173140632D01*
X140392999Y-173151340D01*
X140443434Y-173152856D01*
X140495374Y-173145759D01*
X140532178Y-173132788D01*
X140583062Y-173089585D01*
X140611986Y-173029446D01*
X140617714Y-172982462D01*
X140613343Y-172940082D01*
X140597525Y-172905488D01*
X140566203Y-172874763D01*
X140515322Y-172843990D01*
X140440824Y-172809252D01*
X140436286Y-172807288D01*
X140369179Y-172776287D01*
X140327768Y-172750862D01*
X140310019Y-172728014D01*
X140313893Y-172704745D01*
X140337357Y-172678056D01*
X140344373Y-172671914D01*
X140391370Y-172648100D01*
X140440067Y-172649103D01*
X140482478Y-172672451D01*
X140510616Y-172715675D01*
X140513231Y-172724160D01*
X140538692Y-172765308D01*
X140570999Y-172785128D01*
X140617714Y-172804770D01*
X140617714Y-172753950D01*
X140603504Y-172680082D01*
X140561325Y-172612327D01*
X140539376Y-172589661D01*
X140489483Y-172560569D01*
X140426033Y-172547400D01*
X140360256Y-172550968D01*
G37*
X140360256Y-172550968D02*
X140303384Y-172572087D01*
X140302733Y-172572493D01*
X140267560Y-172598380D01*
X140241593Y-172628633D01*
X140223330Y-172668058D01*
X140211268Y-172721462D01*
X140203904Y-172793651D01*
X140199736Y-172889432D01*
X140199371Y-172903078D01*
X140194124Y-173108842D01*
X140238284Y-173131678D01*
X140270237Y-173147110D01*
X140289530Y-173154423D01*
X140290422Y-173154514D01*
X140293761Y-173141022D01*
X140296413Y-173104626D01*
X140298044Y-173051452D01*
X140298400Y-173008393D01*
X140298408Y-172938641D01*
X140301597Y-172894837D01*
X140312712Y-172873944D01*
X140336499Y-172872925D01*
X140377704Y-172888741D01*
X140439914Y-172917815D01*
X140485659Y-172941963D01*
X140509187Y-172962913D01*
X140516104Y-172985747D01*
X140516114Y-172986877D01*
X140504701Y-173026212D01*
X140470908Y-173047462D01*
X140419191Y-173050539D01*
X140381939Y-173050006D01*
X140362297Y-173060735D01*
X140350048Y-173086505D01*
X140342998Y-173119337D01*
X140353158Y-173137966D01*
X140356983Y-173140632D01*
X140392999Y-173151340D01*
X140443434Y-173152856D01*
X140495374Y-173145759D01*
X140532178Y-173132788D01*
X140583062Y-173089585D01*
X140611986Y-173029446D01*
X140617714Y-172982462D01*
X140613343Y-172940082D01*
X140597525Y-172905488D01*
X140566203Y-172874763D01*
X140515322Y-172843990D01*
X140440824Y-172809252D01*
X140436286Y-172807288D01*
X140369179Y-172776287D01*
X140327768Y-172750862D01*
X140310019Y-172728014D01*
X140313893Y-172704745D01*
X140337357Y-172678056D01*
X140344373Y-172671914D01*
X140391370Y-172648100D01*
X140440067Y-172649103D01*
X140482478Y-172672451D01*
X140510616Y-172715675D01*
X140513231Y-172724160D01*
X140538692Y-172765308D01*
X140570999Y-172785128D01*
X140617714Y-172804770D01*
X140617714Y-172753950D01*
X140603504Y-172680082D01*
X140561325Y-172612327D01*
X140539376Y-172589661D01*
X140489483Y-172560569D01*
X140426033Y-172547400D01*
X140360256Y-172550968D01*
G36*
X141024114Y-172451289D02*
G01*
X141019861Y-172510613D01*
X141014975Y-172545572D01*
X141008205Y-172560820D01*
X140998298Y-172561015D01*
X140995086Y-172559195D01*
X140952356Y-172546015D01*
X140896773Y-172546785D01*
X140840263Y-172560333D01*
X140804918Y-172577861D01*
X140768679Y-172605861D01*
X140742187Y-172637549D01*
X140724001Y-172677813D01*
X140712678Y-172731543D01*
X140706778Y-172803626D01*
X140704857Y-172898951D01*
X140704823Y-172917237D01*
X140704800Y-173122646D01*
X140750509Y-173138580D01*
X140782973Y-173149420D01*
X140800785Y-173154468D01*
X140801309Y-173154514D01*
X140803063Y-173140828D01*
X140804556Y-173103076D01*
X140805674Y-173046224D01*
X140806303Y-172975234D01*
X140806400Y-172932073D01*
X140806602Y-172846973D01*
X140807642Y-172785981D01*
X140810169Y-172744177D01*
X140814836Y-172716642D01*
X140822293Y-172698456D01*
X140833189Y-172684698D01*
X140839993Y-172678073D01*
X140886728Y-172651375D01*
X140937728Y-172649375D01*
X140983999Y-172671955D01*
X140992556Y-172680107D01*
X141005107Y-172695436D01*
X141013812Y-172713618D01*
X141019369Y-172739909D01*
X141022474Y-172779562D01*
X141023824Y-172837832D01*
X141024114Y-172918173D01*
X141024114Y-173122646D01*
X141069823Y-173138580D01*
X141102287Y-173149420D01*
X141120099Y-173154468D01*
X141120623Y-173154514D01*
X141121963Y-173140623D01*
X141123172Y-173101439D01*
X141124199Y-173040700D01*
X141124998Y-172962141D01*
X141125519Y-172869498D01*
X141125714Y-172766509D01*
X141125714Y-172369342D01*
X141078543Y-172349444D01*
X141031371Y-172329547D01*
X141024114Y-172451289D01*
G37*
X141024114Y-172451289D02*
X141019861Y-172510613D01*
X141014975Y-172545572D01*
X141008205Y-172560820D01*
X140998298Y-172561015D01*
X140995086Y-172559195D01*
X140952356Y-172546015D01*
X140896773Y-172546785D01*
X140840263Y-172560333D01*
X140804918Y-172577861D01*
X140768679Y-172605861D01*
X140742187Y-172637549D01*
X140724001Y-172677813D01*
X140712678Y-172731543D01*
X140706778Y-172803626D01*
X140704857Y-172898951D01*
X140704823Y-172917237D01*
X140704800Y-173122646D01*
X140750509Y-173138580D01*
X140782973Y-173149420D01*
X140800785Y-173154468D01*
X140801309Y-173154514D01*
X140803063Y-173140828D01*
X140804556Y-173103076D01*
X140805674Y-173046224D01*
X140806303Y-172975234D01*
X140806400Y-172932073D01*
X140806602Y-172846973D01*
X140807642Y-172785981D01*
X140810169Y-172744177D01*
X140814836Y-172716642D01*
X140822293Y-172698456D01*
X140833189Y-172684698D01*
X140839993Y-172678073D01*
X140886728Y-172651375D01*
X140937728Y-172649375D01*
X140983999Y-172671955D01*
X140992556Y-172680107D01*
X141005107Y-172695436D01*
X141013812Y-172713618D01*
X141019369Y-172739909D01*
X141022474Y-172779562D01*
X141023824Y-172837832D01*
X141024114Y-172918173D01*
X141024114Y-173122646D01*
X141069823Y-173138580D01*
X141102287Y-173149420D01*
X141120099Y-173154468D01*
X141120623Y-173154514D01*
X141121963Y-173140623D01*
X141123172Y-173101439D01*
X141124199Y-173040700D01*
X141124998Y-172962141D01*
X141125519Y-172869498D01*
X141125714Y-172766509D01*
X141125714Y-172369342D01*
X141078543Y-172349444D01*
X141031371Y-172329547D01*
X141024114Y-172451289D01*
G36*
X142231697Y-172531239D02*
G01*
X142174473Y-172569735D01*
X142130251Y-172625335D01*
X142103833Y-172696086D01*
X142098490Y-172748162D01*
X142099097Y-172769893D01*
X142104178Y-172786531D01*
X142118145Y-172801437D01*
X142145411Y-172817973D01*
X142190388Y-172839498D01*
X142257489Y-172869374D01*
X142257829Y-172869524D01*
X142319593Y-172897813D01*
X142370241Y-172922933D01*
X142404596Y-172942179D01*
X142417482Y-172952848D01*
X142417486Y-172952934D01*
X142406128Y-172976166D01*
X142379569Y-173001774D01*
X142349077Y-173020221D01*
X142333630Y-173023886D01*
X142291485Y-173011212D01*
X142255192Y-172979471D01*
X142237483Y-172944572D01*
X142220448Y-172918845D01*
X142187078Y-172889546D01*
X142147851Y-172864235D01*
X142113244Y-172850471D01*
X142106007Y-172849714D01*
X142097861Y-172862160D01*
X142097370Y-172893972D01*
X142103357Y-172936866D01*
X142114643Y-172982558D01*
X142130050Y-173022761D01*
X142130829Y-173024322D01*
X142177196Y-173089062D01*
X142237289Y-173133097D01*
X142305535Y-173154711D01*
X142376362Y-173152185D01*
X142444196Y-173123804D01*
X142447212Y-173121808D01*
X142500573Y-173073448D01*
X142535660Y-173010352D01*
X142555078Y-172927387D01*
X142557684Y-172904078D01*
X142562299Y-172794055D01*
X142556767Y-172742748D01*
X142417486Y-172742748D01*
X142415676Y-172774753D01*
X142405778Y-172784093D01*
X142381102Y-172777105D01*
X142342205Y-172760587D01*
X142298725Y-172739881D01*
X142297644Y-172739333D01*
X142260791Y-172719949D01*
X142246000Y-172707013D01*
X142249647Y-172693451D01*
X142265005Y-172675632D01*
X142304077Y-172649845D01*
X142346154Y-172647950D01*
X142383897Y-172666717D01*
X142409966Y-172702915D01*
X142417486Y-172742748D01*
X142556767Y-172742748D01*
X142552806Y-172706027D01*
X142528450Y-172636212D01*
X142494544Y-172587302D01*
X142433347Y-172537878D01*
X142365937Y-172513359D01*
X142297120Y-172511797D01*
X142231697Y-172531239D01*
G37*
X142231697Y-172531239D02*
X142174473Y-172569735D01*
X142130251Y-172625335D01*
X142103833Y-172696086D01*
X142098490Y-172748162D01*
X142099097Y-172769893D01*
X142104178Y-172786531D01*
X142118145Y-172801437D01*
X142145411Y-172817973D01*
X142190388Y-172839498D01*
X142257489Y-172869374D01*
X142257829Y-172869524D01*
X142319593Y-172897813D01*
X142370241Y-172922933D01*
X142404596Y-172942179D01*
X142417482Y-172952848D01*
X142417486Y-172952934D01*
X142406128Y-172976166D01*
X142379569Y-173001774D01*
X142349077Y-173020221D01*
X142333630Y-173023886D01*
X142291485Y-173011212D01*
X142255192Y-172979471D01*
X142237483Y-172944572D01*
X142220448Y-172918845D01*
X142187078Y-172889546D01*
X142147851Y-172864235D01*
X142113244Y-172850471D01*
X142106007Y-172849714D01*
X142097861Y-172862160D01*
X142097370Y-172893972D01*
X142103357Y-172936866D01*
X142114643Y-172982558D01*
X142130050Y-173022761D01*
X142130829Y-173024322D01*
X142177196Y-173089062D01*
X142237289Y-173133097D01*
X142305535Y-173154711D01*
X142376362Y-173152185D01*
X142444196Y-173123804D01*
X142447212Y-173121808D01*
X142500573Y-173073448D01*
X142535660Y-173010352D01*
X142555078Y-172927387D01*
X142557684Y-172904078D01*
X142562299Y-172794055D01*
X142556767Y-172742748D01*
X142417486Y-172742748D01*
X142415676Y-172774753D01*
X142405778Y-172784093D01*
X142381102Y-172777105D01*
X142342205Y-172760587D01*
X142298725Y-172739881D01*
X142297644Y-172739333D01*
X142260791Y-172719949D01*
X142246000Y-172707013D01*
X142249647Y-172693451D01*
X142265005Y-172675632D01*
X142304077Y-172649845D01*
X142346154Y-172647950D01*
X142383897Y-172666717D01*
X142409966Y-172702915D01*
X142417486Y-172742748D01*
X142556767Y-172742748D01*
X142552806Y-172706027D01*
X142528450Y-172636212D01*
X142494544Y-172587302D01*
X142433347Y-172537878D01*
X142365937Y-172513359D01*
X142297120Y-172511797D01*
X142231697Y-172531239D01*
G36*
X143358885Y-172521962D02*
G01*
X143290855Y-172557733D01*
X143240649Y-172615301D01*
X143222815Y-172652312D01*
X143208937Y-172707882D01*
X143201833Y-172778096D01*
X143201160Y-172854727D01*
X143206573Y-172929552D01*
X143217730Y-172994342D01*
X143234286Y-173040873D01*
X143239374Y-173048887D01*
X143299645Y-173108707D01*
X143371231Y-173144535D01*
X143448908Y-173155020D01*
X143527452Y-173138810D01*
X143549311Y-173129092D01*
X143591878Y-173099143D01*
X143629237Y-173059433D01*
X143632768Y-173054397D01*
X143647119Y-173030124D01*
X143656606Y-173004178D01*
X143662210Y-172970022D01*
X143664914Y-172921119D01*
X143665701Y-172850935D01*
X143665714Y-172835200D01*
X143665678Y-172830192D01*
X143520571Y-172830192D01*
X143519727Y-172896430D01*
X143516404Y-172940386D01*
X143509417Y-172968779D01*
X143497584Y-172988325D01*
X143491543Y-172994857D01*
X143456814Y-173019680D01*
X143423097Y-173018548D01*
X143389005Y-172997016D01*
X143368671Y-172974029D01*
X143356629Y-172940478D01*
X143349866Y-172887569D01*
X143349402Y-172881399D01*
X143348248Y-172785513D01*
X143360312Y-172714299D01*
X143385430Y-172668194D01*
X143423440Y-172647635D01*
X143437008Y-172646514D01*
X143472636Y-172652152D01*
X143497006Y-172671686D01*
X143511907Y-172709042D01*
X143519125Y-172768150D01*
X143520571Y-172830192D01*
X143665678Y-172830192D01*
X143665174Y-172760413D01*
X143662904Y-172708159D01*
X143657932Y-172671949D01*
X143649287Y-172645299D01*
X143635995Y-172621722D01*
X143633057Y-172617338D01*
X143583687Y-172558249D01*
X143529891Y-172523947D01*
X143464398Y-172510331D01*
X143442158Y-172509665D01*
X143358885Y-172521962D01*
G37*
X143358885Y-172521962D02*
X143290855Y-172557733D01*
X143240649Y-172615301D01*
X143222815Y-172652312D01*
X143208937Y-172707882D01*
X143201833Y-172778096D01*
X143201160Y-172854727D01*
X143206573Y-172929552D01*
X143217730Y-172994342D01*
X143234286Y-173040873D01*
X143239374Y-173048887D01*
X143299645Y-173108707D01*
X143371231Y-173144535D01*
X143448908Y-173155020D01*
X143527452Y-173138810D01*
X143549311Y-173129092D01*
X143591878Y-173099143D01*
X143629237Y-173059433D01*
X143632768Y-173054397D01*
X143647119Y-173030124D01*
X143656606Y-173004178D01*
X143662210Y-172970022D01*
X143664914Y-172921119D01*
X143665701Y-172850935D01*
X143665714Y-172835200D01*
X143665678Y-172830192D01*
X143520571Y-172830192D01*
X143519727Y-172896430D01*
X143516404Y-172940386D01*
X143509417Y-172968779D01*
X143497584Y-172988325D01*
X143491543Y-172994857D01*
X143456814Y-173019680D01*
X143423097Y-173018548D01*
X143389005Y-172997016D01*
X143368671Y-172974029D01*
X143356629Y-172940478D01*
X143349866Y-172887569D01*
X143349402Y-172881399D01*
X143348248Y-172785513D01*
X143360312Y-172714299D01*
X143385430Y-172668194D01*
X143423440Y-172647635D01*
X143437008Y-172646514D01*
X143472636Y-172652152D01*
X143497006Y-172671686D01*
X143511907Y-172709042D01*
X143519125Y-172768150D01*
X143520571Y-172830192D01*
X143665678Y-172830192D01*
X143665174Y-172760413D01*
X143662904Y-172708159D01*
X143657932Y-172671949D01*
X143649287Y-172645299D01*
X143635995Y-172621722D01*
X143633057Y-172617338D01*
X143583687Y-172558249D01*
X143529891Y-172523947D01*
X143464398Y-172510331D01*
X143442158Y-172509665D01*
X143358885Y-172521962D01*
G36*
X141683907Y-172527780D02*
G01*
X141637328Y-172554723D01*
X141604943Y-172581466D01*
X141581258Y-172609484D01*
X141564941Y-172643748D01*
X141554661Y-172689227D01*
X141549086Y-172750892D01*
X141546884Y-172833711D01*
X141546629Y-172893246D01*
X141546629Y-173112391D01*
X141608314Y-173140044D01*
X141670000Y-173167697D01*
X141677257Y-172927670D01*
X141680256Y-172838028D01*
X141683402Y-172772962D01*
X141687299Y-172728026D01*
X141692553Y-172698770D01*
X141699769Y-172680748D01*
X141709550Y-172669511D01*
X141712688Y-172667079D01*
X141760239Y-172648083D01*
X141808303Y-172655600D01*
X141836914Y-172675543D01*
X141848553Y-172689675D01*
X141856609Y-172708220D01*
X141861729Y-172736334D01*
X141864559Y-172779173D01*
X141865744Y-172841895D01*
X141865943Y-172907261D01*
X141865982Y-172989268D01*
X141867386Y-173047316D01*
X141872086Y-173086465D01*
X141882013Y-173111780D01*
X141899097Y-173128323D01*
X141925268Y-173141156D01*
X141960225Y-173154491D01*
X141998404Y-173169007D01*
X141993859Y-172911389D01*
X141992029Y-172818519D01*
X141989888Y-172749889D01*
X141986819Y-172700711D01*
X141982206Y-172666198D01*
X141975432Y-172641562D01*
X141965881Y-172622016D01*
X141954366Y-172604770D01*
X141898810Y-172549680D01*
X141831020Y-172517822D01*
X141757287Y-172510191D01*
X141683907Y-172527780D01*
G37*
X141683907Y-172527780D02*
X141637328Y-172554723D01*
X141604943Y-172581466D01*
X141581258Y-172609484D01*
X141564941Y-172643748D01*
X141554661Y-172689227D01*
X141549086Y-172750892D01*
X141546884Y-172833711D01*
X141546629Y-172893246D01*
X141546629Y-173112391D01*
X141608314Y-173140044D01*
X141670000Y-173167697D01*
X141677257Y-172927670D01*
X141680256Y-172838028D01*
X141683402Y-172772962D01*
X141687299Y-172728026D01*
X141692553Y-172698770D01*
X141699769Y-172680748D01*
X141709550Y-172669511D01*
X141712688Y-172667079D01*
X141760239Y-172648083D01*
X141808303Y-172655600D01*
X141836914Y-172675543D01*
X141848553Y-172689675D01*
X141856609Y-172708220D01*
X141861729Y-172736334D01*
X141864559Y-172779173D01*
X141865744Y-172841895D01*
X141865943Y-172907261D01*
X141865982Y-172989268D01*
X141867386Y-173047316D01*
X141872086Y-173086465D01*
X141882013Y-173111780D01*
X141899097Y-173128323D01*
X141925268Y-173141156D01*
X141960225Y-173154491D01*
X141998404Y-173169007D01*
X141993859Y-172911389D01*
X141992029Y-172818519D01*
X141989888Y-172749889D01*
X141986819Y-172700711D01*
X141982206Y-172666198D01*
X141975432Y-172641562D01*
X141965881Y-172622016D01*
X141954366Y-172604770D01*
X141898810Y-172549680D01*
X141831020Y-172517822D01*
X141757287Y-172510191D01*
X141683907Y-172527780D01*
G36*
X142800256Y-172519918D02*
G01*
X142744799Y-172547568D01*
X142695852Y-172598480D01*
X142682371Y-172617338D01*
X142667686Y-172642015D01*
X142658158Y-172668816D01*
X142652707Y-172704587D01*
X142650253Y-172756169D01*
X142649714Y-172824267D01*
X142652148Y-172917588D01*
X142660606Y-172987657D01*
X142676826Y-173039931D01*
X142702546Y-173079869D01*
X142739503Y-173112929D01*
X142742218Y-173114886D01*
X142778640Y-173134908D01*
X142822498Y-173144815D01*
X142878276Y-173147257D01*
X142968952Y-173147257D01*
X142968990Y-173235283D01*
X142969834Y-173284308D01*
X142974976Y-173313065D01*
X142988413Y-173330311D01*
X143014142Y-173344808D01*
X143020321Y-173347769D01*
X143049236Y-173361648D01*
X143071624Y-173370414D01*
X143088271Y-173371171D01*
X143099964Y-173361023D01*
X143107490Y-173337073D01*
X143111634Y-173296426D01*
X143113185Y-173236186D01*
X143112929Y-173153455D01*
X143111651Y-173045339D01*
X143111252Y-173013000D01*
X143109815Y-172901524D01*
X143108528Y-172828603D01*
X142969029Y-172828603D01*
X142968245Y-172890499D01*
X142964760Y-172930997D01*
X142956876Y-172957708D01*
X142942895Y-172978244D01*
X142933403Y-172988260D01*
X142894596Y-173017567D01*
X142860237Y-173019952D01*
X142824784Y-172995750D01*
X142823886Y-172994857D01*
X142809461Y-172976153D01*
X142800687Y-172950732D01*
X142796261Y-172911584D01*
X142794882Y-172851697D01*
X142794857Y-172838430D01*
X142798188Y-172755901D01*
X142809031Y-172698691D01*
X142828660Y-172663766D01*
X142858350Y-172648094D01*
X142875509Y-172646514D01*
X142916234Y-172653926D01*
X142944168Y-172678330D01*
X142960983Y-172722980D01*
X142968350Y-172791130D01*
X142969029Y-172828603D01*
X143108528Y-172828603D01*
X143108292Y-172815245D01*
X143106323Y-172750333D01*
X143103550Y-172702958D01*
X143099612Y-172669290D01*
X143094151Y-172645498D01*
X143086808Y-172627753D01*
X143077223Y-172612224D01*
X143073113Y-172606381D01*
X143018595Y-172551185D01*
X142949664Y-172519890D01*
X142869928Y-172511165D01*
X142800256Y-172519918D01*
G37*
X142800256Y-172519918D02*
X142744799Y-172547568D01*
X142695852Y-172598480D01*
X142682371Y-172617338D01*
X142667686Y-172642015D01*
X142658158Y-172668816D01*
X142652707Y-172704587D01*
X142650253Y-172756169D01*
X142649714Y-172824267D01*
X142652148Y-172917588D01*
X142660606Y-172987657D01*
X142676826Y-173039931D01*
X142702546Y-173079869D01*
X142739503Y-173112929D01*
X142742218Y-173114886D01*
X142778640Y-173134908D01*
X142822498Y-173144815D01*
X142878276Y-173147257D01*
X142968952Y-173147257D01*
X142968990Y-173235283D01*
X142969834Y-173284308D01*
X142974976Y-173313065D01*
X142988413Y-173330311D01*
X143014142Y-173344808D01*
X143020321Y-173347769D01*
X143049236Y-173361648D01*
X143071624Y-173370414D01*
X143088271Y-173371171D01*
X143099964Y-173361023D01*
X143107490Y-173337073D01*
X143111634Y-173296426D01*
X143113185Y-173236186D01*
X143112929Y-173153455D01*
X143111651Y-173045339D01*
X143111252Y-173013000D01*
X143109815Y-172901524D01*
X143108528Y-172828603D01*
X142969029Y-172828603D01*
X142968245Y-172890499D01*
X142964760Y-172930997D01*
X142956876Y-172957708D01*
X142942895Y-172978244D01*
X142933403Y-172988260D01*
X142894596Y-173017567D01*
X142860237Y-173019952D01*
X142824784Y-172995750D01*
X142823886Y-172994857D01*
X142809461Y-172976153D01*
X142800687Y-172950732D01*
X142796261Y-172911584D01*
X142794882Y-172851697D01*
X142794857Y-172838430D01*
X142798188Y-172755901D01*
X142809031Y-172698691D01*
X142828660Y-172663766D01*
X142858350Y-172648094D01*
X142875509Y-172646514D01*
X142916234Y-172653926D01*
X142944168Y-172678330D01*
X142960983Y-172722980D01*
X142968350Y-172791130D01*
X142969029Y-172828603D01*
X143108528Y-172828603D01*
X143108292Y-172815245D01*
X143106323Y-172750333D01*
X143103550Y-172702958D01*
X143099612Y-172669290D01*
X143094151Y-172645498D01*
X143086808Y-172627753D01*
X143077223Y-172612224D01*
X143073113Y-172606381D01*
X143018595Y-172551185D01*
X142949664Y-172519890D01*
X142869928Y-172511165D01*
X142800256Y-172519918D01*
D11*
X107000000Y-134350000D02*
X107000000Y-138450000D01*
X107000000Y-138450000D02*
X109000000Y-138450000D01*
X109000000Y-138450000D02*
X109000000Y-134350000D01*
X109000000Y-134350000D02*
X107000000Y-134350000D01*
X109200000Y-135100000D02*
X109500000Y-134800000D01*
X109500000Y-134800000D02*
X109500000Y-135400000D01*
X109200000Y-135100000D02*
X109500000Y-135400000D01*
X109600000Y-134350000D02*
X109600000Y-138450000D01*
X109600000Y-138450000D02*
X111600000Y-138450000D01*
X111600000Y-138450000D02*
X111600000Y-134350000D01*
X111600000Y-134350000D02*
X109600000Y-134350000D01*
X111800000Y-135100000D02*
X112100000Y-134800000D01*
X112100000Y-134800000D02*
X112100000Y-135400000D01*
X111800000Y-135100000D02*
X112100000Y-135400000D01*
X116930000Y-129530000D02*
X116930000Y-128200000D01*
X115600000Y-129530000D02*
X116930000Y-129530000D01*
X114330000Y-129530000D02*
X114330000Y-126870000D01*
X114330000Y-126870000D02*
X101570000Y-126870000D01*
X114330000Y-129530000D02*
X101570000Y-129530000D01*
X101570000Y-129530000D02*
X101570000Y-126870000D01*
D17*
X152311028Y-130831085D02*
X152311028Y-131438228D01*
X152275314Y-131509657D01*
X152239600Y-131545371D01*
X152168171Y-131581085D01*
X152025314Y-131581085D01*
X151953885Y-131545371D01*
X151918171Y-131509657D01*
X151882457Y-131438228D01*
X151882457Y-130831085D01*
X151382457Y-130831085D02*
X151311028Y-130831085D01*
X151239600Y-130866800D01*
X151203885Y-130902514D01*
X151168171Y-130973942D01*
X151132457Y-131116800D01*
X151132457Y-131295371D01*
X151168171Y-131438228D01*
X151203885Y-131509657D01*
X151239600Y-131545371D01*
X151311028Y-131581085D01*
X151382457Y-131581085D01*
X151453885Y-131545371D01*
X151489600Y-131509657D01*
X151525314Y-131438228D01*
X151561028Y-131295371D01*
X151561028Y-131116800D01*
X151525314Y-130973942D01*
X151489600Y-130902514D01*
X151453885Y-130866800D01*
X151382457Y-130831085D01*
D13*
X118323361Y-160462990D02*
X118323361Y-160820133D01*
X118347171Y-160891561D01*
X118394790Y-160939180D01*
X118466219Y-160962990D01*
X118513838Y-160962990D01*
X117823361Y-160962990D02*
X118109076Y-160962990D01*
X117966219Y-160962990D02*
X117966219Y-160462990D01*
X118013838Y-160534419D01*
X118061457Y-160582038D01*
X118109076Y-160605847D01*
X117656695Y-160462990D02*
X117347171Y-160462990D01*
X117513838Y-160653466D01*
X117442409Y-160653466D01*
X117394790Y-160677276D01*
X117370980Y-160701085D01*
X117347171Y-160748704D01*
X117347171Y-160867752D01*
X117370980Y-160915371D01*
X117394790Y-160939180D01*
X117442409Y-160962990D01*
X117585266Y-160962990D01*
X117632885Y-160939180D01*
X117656695Y-160915371D01*
X115783361Y-160462990D02*
X115783361Y-160820133D01*
X115807171Y-160891561D01*
X115854790Y-160939180D01*
X115926219Y-160962990D01*
X115973838Y-160962990D01*
X115283361Y-160962990D02*
X115569076Y-160962990D01*
X115426219Y-160962990D02*
X115426219Y-160462990D01*
X115473838Y-160534419D01*
X115521457Y-160582038D01*
X115569076Y-160605847D01*
X115092885Y-160510609D02*
X115069076Y-160486800D01*
X115021457Y-160462990D01*
X114902409Y-160462990D01*
X114854790Y-160486800D01*
X114830980Y-160510609D01*
X114807171Y-160558228D01*
X114807171Y-160605847D01*
X114830980Y-160677276D01*
X115116695Y-160962990D01*
X114807171Y-160962990D01*
D17*
X129886751Y-160017060D02*
X129922465Y-160124202D01*
X129922465Y-160302774D01*
X129886751Y-160374202D01*
X129851037Y-160409917D01*
X129779608Y-160445631D01*
X129708180Y-160445631D01*
X129636751Y-160409917D01*
X129601037Y-160374202D01*
X129565322Y-160302774D01*
X129529608Y-160159917D01*
X129493894Y-160088488D01*
X129458180Y-160052774D01*
X129386751Y-160017060D01*
X129315322Y-160017060D01*
X129243894Y-160052774D01*
X129208180Y-160088488D01*
X129172465Y-160159917D01*
X129172465Y-160338488D01*
X129208180Y-160445631D01*
X129172465Y-160695631D02*
X129922465Y-160874202D01*
X129386751Y-161017060D01*
X129922465Y-161159917D01*
X129172465Y-161338488D01*
X129922465Y-161624202D02*
X129172465Y-161624202D01*
X129922465Y-161981345D02*
X129172465Y-161981345D01*
X129708180Y-162231345D01*
X129172465Y-162481345D01*
X129922465Y-162481345D01*
X132256180Y-171998631D02*
X132220465Y-171927202D01*
X132220465Y-171820060D01*
X132256180Y-171712917D01*
X132327608Y-171641488D01*
X132399037Y-171605774D01*
X132541894Y-171570060D01*
X132649037Y-171570060D01*
X132791894Y-171605774D01*
X132863322Y-171641488D01*
X132934751Y-171712917D01*
X132970465Y-171820060D01*
X132970465Y-171891488D01*
X132934751Y-171998631D01*
X132899037Y-172034345D01*
X132649037Y-172034345D01*
X132649037Y-171891488D01*
X132970465Y-172355774D02*
X132220465Y-172355774D01*
X132970465Y-172784345D01*
X132220465Y-172784345D01*
X132970465Y-173141488D02*
X132220465Y-173141488D01*
X132220465Y-173320060D01*
X132256180Y-173427202D01*
X132327608Y-173498631D01*
X132399037Y-173534345D01*
X132541894Y-173570060D01*
X132649037Y-173570060D01*
X132791894Y-173534345D01*
X132863322Y-173498631D01*
X132934751Y-173427202D01*
X132970465Y-173320060D01*
X132970465Y-173141488D01*
X127140465Y-160413917D02*
X127140465Y-160878202D01*
X127426180Y-160628202D01*
X127426180Y-160735345D01*
X127461894Y-160806774D01*
X127497608Y-160842488D01*
X127569037Y-160878202D01*
X127747608Y-160878202D01*
X127819037Y-160842488D01*
X127854751Y-160806774D01*
X127890465Y-160735345D01*
X127890465Y-160521060D01*
X127854751Y-160449631D01*
X127819037Y-160413917D01*
X127819037Y-161199631D02*
X127854751Y-161235345D01*
X127890465Y-161199631D01*
X127854751Y-161163917D01*
X127819037Y-161199631D01*
X127890465Y-161199631D01*
X127140465Y-161485345D02*
X127140465Y-161949631D01*
X127426180Y-161699631D01*
X127426180Y-161806774D01*
X127461894Y-161878202D01*
X127497608Y-161913917D01*
X127569037Y-161949631D01*
X127747608Y-161949631D01*
X127819037Y-161913917D01*
X127854751Y-161878202D01*
X127890465Y-161806774D01*
X127890465Y-161592488D01*
X127854751Y-161521060D01*
X127819037Y-161485345D01*
X127140465Y-162163917D02*
X127890465Y-162413917D01*
X127140465Y-162663917D01*
X132256180Y-161076631D02*
X132220465Y-161005202D01*
X132220465Y-160898060D01*
X132256180Y-160790917D01*
X132327608Y-160719488D01*
X132399037Y-160683774D01*
X132541894Y-160648060D01*
X132649037Y-160648060D01*
X132791894Y-160683774D01*
X132863322Y-160719488D01*
X132934751Y-160790917D01*
X132970465Y-160898060D01*
X132970465Y-160969488D01*
X132934751Y-161076631D01*
X132899037Y-161112345D01*
X132649037Y-161112345D01*
X132649037Y-160969488D01*
X132970465Y-161433774D02*
X132220465Y-161433774D01*
X132970465Y-161862345D01*
X132220465Y-161862345D01*
X132970465Y-162219488D02*
X132220465Y-162219488D01*
X132220465Y-162398060D01*
X132256180Y-162505202D01*
X132327608Y-162576631D01*
X132399037Y-162612345D01*
X132541894Y-162648060D01*
X132649037Y-162648060D01*
X132791894Y-162612345D01*
X132863322Y-162576631D01*
X132934751Y-162505202D01*
X132970465Y-162398060D01*
X132970465Y-162219488D01*
X130394751Y-171605774D02*
X130430465Y-171712917D01*
X130430465Y-171891488D01*
X130394751Y-171962917D01*
X130359037Y-171998631D01*
X130287608Y-172034345D01*
X130216180Y-172034345D01*
X130144751Y-171998631D01*
X130109037Y-171962917D01*
X130073322Y-171891488D01*
X130037608Y-171748631D01*
X130001894Y-171677202D01*
X129966180Y-171641488D01*
X129894751Y-171605774D01*
X129823322Y-171605774D01*
X129751894Y-171641488D01*
X129716180Y-171677202D01*
X129680465Y-171748631D01*
X129680465Y-171927202D01*
X129716180Y-172034345D01*
X130359037Y-172784345D02*
X130394751Y-172748631D01*
X130430465Y-172641488D01*
X130430465Y-172570060D01*
X130394751Y-172462917D01*
X130323322Y-172391488D01*
X130251894Y-172355774D01*
X130109037Y-172320060D01*
X130001894Y-172320060D01*
X129859037Y-172355774D01*
X129787608Y-172391488D01*
X129716180Y-172462917D01*
X129680465Y-172570060D01*
X129680465Y-172641488D01*
X129716180Y-172748631D01*
X129751894Y-172784345D01*
X130430465Y-173105774D02*
X129680465Y-173105774D01*
X130430465Y-173534345D02*
X130001894Y-173212917D01*
X129680465Y-173534345D02*
X130109037Y-173105774D01*
X131156751Y-159663228D02*
X131192465Y-159770371D01*
X131192465Y-159948942D01*
X131156751Y-160020371D01*
X131121037Y-160056085D01*
X131049608Y-160091800D01*
X130978180Y-160091800D01*
X130906751Y-160056085D01*
X130871037Y-160020371D01*
X130835322Y-159948942D01*
X130799608Y-159806085D01*
X130763894Y-159734657D01*
X130728180Y-159698942D01*
X130656751Y-159663228D01*
X130585322Y-159663228D01*
X130513894Y-159698942D01*
X130478180Y-159734657D01*
X130442465Y-159806085D01*
X130442465Y-159984657D01*
X130478180Y-160091800D01*
X130442465Y-160341800D02*
X131192465Y-160520371D01*
X130656751Y-160663228D01*
X131192465Y-160806085D01*
X130442465Y-160984657D01*
X130442465Y-161413228D02*
X130442465Y-161556085D01*
X130478180Y-161627514D01*
X130549608Y-161698942D01*
X130692465Y-161734657D01*
X130942465Y-161734657D01*
X131085322Y-161698942D01*
X131156751Y-161627514D01*
X131192465Y-161556085D01*
X131192465Y-161413228D01*
X131156751Y-161341800D01*
X131085322Y-161270371D01*
X130942465Y-161234657D01*
X130692465Y-161234657D01*
X130549608Y-161270371D01*
X130478180Y-161341800D01*
X130442465Y-161413228D01*
X130406751Y-162591800D02*
X131371037Y-161948942D01*
X135637465Y-160034917D02*
X134887465Y-160034917D01*
X135637465Y-160463488D01*
X134887465Y-160463488D01*
X135637465Y-161249202D02*
X135280322Y-160999202D01*
X135637465Y-160820631D02*
X134887465Y-160820631D01*
X134887465Y-161106345D01*
X134923180Y-161177774D01*
X134958894Y-161213488D01*
X135030322Y-161249202D01*
X135137465Y-161249202D01*
X135208894Y-161213488D01*
X135244608Y-161177774D01*
X135280322Y-161106345D01*
X135280322Y-160820631D01*
X135601751Y-161534917D02*
X135637465Y-161642060D01*
X135637465Y-161820631D01*
X135601751Y-161892060D01*
X135566037Y-161927774D01*
X135494608Y-161963488D01*
X135423180Y-161963488D01*
X135351751Y-161927774D01*
X135316037Y-161892060D01*
X135280322Y-161820631D01*
X135244608Y-161677774D01*
X135208894Y-161606345D01*
X135173180Y-161570631D01*
X135101751Y-161534917D01*
X135030322Y-161534917D01*
X134958894Y-161570631D01*
X134923180Y-161606345D01*
X134887465Y-161677774D01*
X134887465Y-161856345D01*
X134923180Y-161963488D01*
X134887465Y-162177774D02*
X134887465Y-162606345D01*
X135637465Y-162392060D02*
X134887465Y-162392060D01*
X127140465Y-171589917D02*
X127140465Y-172054202D01*
X127426180Y-171804202D01*
X127426180Y-171911345D01*
X127461894Y-171982774D01*
X127497608Y-172018488D01*
X127569037Y-172054202D01*
X127747608Y-172054202D01*
X127819037Y-172018488D01*
X127854751Y-171982774D01*
X127890465Y-171911345D01*
X127890465Y-171697060D01*
X127854751Y-171625631D01*
X127819037Y-171589917D01*
X127819037Y-172375631D02*
X127854751Y-172411345D01*
X127890465Y-172375631D01*
X127854751Y-172339917D01*
X127819037Y-172375631D01*
X127890465Y-172375631D01*
X127140465Y-172661345D02*
X127140465Y-173125631D01*
X127426180Y-172875631D01*
X127426180Y-172982774D01*
X127461894Y-173054202D01*
X127497608Y-173089917D01*
X127569037Y-173125631D01*
X127747608Y-173125631D01*
X127819037Y-173089917D01*
X127854751Y-173054202D01*
X127890465Y-172982774D01*
X127890465Y-172768488D01*
X127854751Y-172697060D01*
X127819037Y-172661345D01*
X127140465Y-173339917D02*
X127890465Y-173589917D01*
X127140465Y-173839917D01*
X124600465Y-161886202D02*
X124600465Y-161529060D01*
X124957608Y-161493345D01*
X124921894Y-161529060D01*
X124886180Y-161600488D01*
X124886180Y-161779060D01*
X124921894Y-161850488D01*
X124957608Y-161886202D01*
X125029037Y-161921917D01*
X125207608Y-161921917D01*
X125279037Y-161886202D01*
X125314751Y-161850488D01*
X125350465Y-161779060D01*
X125350465Y-161600488D01*
X125314751Y-161529060D01*
X125279037Y-161493345D01*
X124600465Y-162136202D02*
X125350465Y-162386202D01*
X124600465Y-162636202D01*
D18*
X135376799Y-171493583D02*
X135400989Y-171566155D01*
X135400989Y-171687107D01*
X135376799Y-171735488D01*
X135352608Y-171759679D01*
X135304227Y-171783869D01*
X135255846Y-171783869D01*
X135207465Y-171759679D01*
X135183275Y-171735488D01*
X135159084Y-171687107D01*
X135134894Y-171590345D01*
X135110703Y-171541964D01*
X135086513Y-171517774D01*
X135038132Y-171493583D01*
X134989751Y-171493583D01*
X134941370Y-171517774D01*
X134917180Y-171541964D01*
X134892989Y-171590345D01*
X134892989Y-171711298D01*
X134917180Y-171783869D01*
X134892989Y-171953202D02*
X135400989Y-172074155D01*
X135038132Y-172170917D01*
X135400989Y-172267679D01*
X134892989Y-172388631D01*
X135400989Y-172582155D02*
X134892989Y-172582155D01*
X134892989Y-172703107D01*
X134917180Y-172775679D01*
X134965560Y-172824060D01*
X135013941Y-172848250D01*
X135110703Y-172872440D01*
X135183275Y-172872440D01*
X135280037Y-172848250D01*
X135328418Y-172824060D01*
X135376799Y-172775679D01*
X135400989Y-172703107D01*
X135400989Y-172582155D01*
X135400989Y-173090155D02*
X134892989Y-173090155D01*
X134892989Y-173428821D02*
X134892989Y-173525583D01*
X134917180Y-173573964D01*
X134965560Y-173622345D01*
X135062322Y-173646536D01*
X135231656Y-173646536D01*
X135328418Y-173622345D01*
X135376799Y-173573964D01*
X135400989Y-173525583D01*
X135400989Y-173428821D01*
X135376799Y-173380440D01*
X135328418Y-173332060D01*
X135231656Y-173307869D01*
X135062322Y-173307869D01*
X134965560Y-173332060D01*
X134917180Y-173380440D01*
X134892989Y-173428821D01*
D17*
X124600465Y-172046202D02*
X124600465Y-171689060D01*
X124957608Y-171653345D01*
X124921894Y-171689060D01*
X124886180Y-171760488D01*
X124886180Y-171939060D01*
X124921894Y-172010488D01*
X124957608Y-172046202D01*
X125029037Y-172081917D01*
X125207608Y-172081917D01*
X125279037Y-172046202D01*
X125314751Y-172010488D01*
X125350465Y-171939060D01*
X125350465Y-171760488D01*
X125314751Y-171689060D01*
X125279037Y-171653345D01*
X124600465Y-172296202D02*
X125350465Y-172546202D01*
X124600465Y-172796202D01*
D10*
X136604760Y-166299536D02*
X137319046Y-166299536D01*
X137461903Y-166251917D01*
X137557141Y-166156679D01*
X137604760Y-166013821D01*
X137604760Y-165918583D01*
X136604760Y-166680488D02*
X136604760Y-167299536D01*
X136985713Y-166966202D01*
X136985713Y-167109060D01*
X137033332Y-167204298D01*
X137080951Y-167251917D01*
X137176189Y-167299536D01*
X137414284Y-167299536D01*
X137509522Y-167251917D01*
X137557141Y-167204298D01*
X137604760Y-167109060D01*
X137604760Y-166823345D01*
X137557141Y-166728107D01*
X137509522Y-166680488D01*
X136604760Y-167918583D02*
X136604760Y-168013821D01*
X136652380Y-168109060D01*
X136699999Y-168156679D01*
X136795237Y-168204298D01*
X136985713Y-168251917D01*
X137223808Y-168251917D01*
X137414284Y-168204298D01*
X137509522Y-168156679D01*
X137557141Y-168109060D01*
X137604760Y-168013821D01*
X137604760Y-167918583D01*
X137557141Y-167823345D01*
X137509522Y-167775726D01*
X137414284Y-167728107D01*
X137223808Y-167680488D01*
X136985713Y-167680488D01*
X136795237Y-167728107D01*
X136699999Y-167775726D01*
X136652380Y-167823345D01*
X136604760Y-167918583D01*
D17*
X140775885Y-138241485D02*
X140025885Y-138241485D01*
X140025885Y-138527200D01*
X140061600Y-138598628D01*
X140097314Y-138634342D01*
X140168742Y-138670057D01*
X140275885Y-138670057D01*
X140347314Y-138634342D01*
X140383028Y-138598628D01*
X140418742Y-138527200D01*
X140418742Y-138241485D01*
X140704457Y-139420057D02*
X140740171Y-139384342D01*
X140775885Y-139277200D01*
X140775885Y-139205771D01*
X140740171Y-139098628D01*
X140668742Y-139027200D01*
X140597314Y-138991485D01*
X140454457Y-138955771D01*
X140347314Y-138955771D01*
X140204457Y-138991485D01*
X140133028Y-139027200D01*
X140061600Y-139098628D01*
X140025885Y-139205771D01*
X140025885Y-139277200D01*
X140061600Y-139384342D01*
X140097314Y-139420057D01*
X140775885Y-140134342D02*
X140775885Y-139705771D01*
X140775885Y-139920057D02*
X140025885Y-139920057D01*
X140133028Y-139848628D01*
X140204457Y-139777200D01*
X140240171Y-139705771D01*
X140775885Y-140848628D02*
X140775885Y-140420057D01*
X140775885Y-140634342D02*
X140025885Y-140634342D01*
X140133028Y-140562914D01*
X140204457Y-140491485D01*
X140240171Y-140420057D01*
X143315885Y-138471628D02*
X142565885Y-138471628D01*
X142565885Y-138757342D01*
X142601600Y-138828771D01*
X142637314Y-138864485D01*
X142708742Y-138900200D01*
X142815885Y-138900200D01*
X142887314Y-138864485D01*
X142923028Y-138828771D01*
X142958742Y-138757342D01*
X142958742Y-138471628D01*
X142923028Y-139471628D02*
X142958742Y-139578771D01*
X142994457Y-139614485D01*
X143065885Y-139650200D01*
X143173028Y-139650200D01*
X143244457Y-139614485D01*
X143280171Y-139578771D01*
X143315885Y-139507342D01*
X143315885Y-139221628D01*
X142565885Y-139221628D01*
X142565885Y-139471628D01*
X142601600Y-139543057D01*
X142637314Y-139578771D01*
X142708742Y-139614485D01*
X142780171Y-139614485D01*
X142851600Y-139578771D01*
X142887314Y-139543057D01*
X142923028Y-139471628D01*
X142923028Y-139221628D01*
X142887314Y-140078771D02*
X142851600Y-140007342D01*
X142815885Y-139971628D01*
X142744457Y-139935914D01*
X142708742Y-139935914D01*
X142637314Y-139971628D01*
X142601600Y-140007342D01*
X142565885Y-140078771D01*
X142565885Y-140221628D01*
X142601600Y-140293057D01*
X142637314Y-140328771D01*
X142708742Y-140364485D01*
X142744457Y-140364485D01*
X142815885Y-140328771D01*
X142851600Y-140293057D01*
X142887314Y-140221628D01*
X142887314Y-140078771D01*
X142923028Y-140007342D01*
X142958742Y-139971628D01*
X143030171Y-139935914D01*
X143173028Y-139935914D01*
X143244457Y-139971628D01*
X143280171Y-140007342D01*
X143315885Y-140078771D01*
X143315885Y-140221628D01*
X143280171Y-140293057D01*
X143244457Y-140328771D01*
X143173028Y-140364485D01*
X143030171Y-140364485D01*
X142958742Y-140328771D01*
X142923028Y-140293057D01*
X142887314Y-140221628D01*
X145855885Y-128394914D02*
X145855885Y-127966342D01*
X145855885Y-128180628D02*
X145105885Y-128180628D01*
X145213028Y-128109200D01*
X145284457Y-128037771D01*
X145320171Y-127966342D01*
X145177314Y-128680628D02*
X145141600Y-128716342D01*
X145105885Y-128787771D01*
X145105885Y-128966342D01*
X145141600Y-129037771D01*
X145177314Y-129073485D01*
X145248742Y-129109200D01*
X145320171Y-129109200D01*
X145427314Y-129073485D01*
X145855885Y-128644914D01*
X145855885Y-129109200D01*
X145105885Y-129323485D02*
X145855885Y-129573485D01*
X145105885Y-129823485D01*
X138235885Y-138295057D02*
X137485885Y-138295057D01*
X137485885Y-138580771D01*
X137521600Y-138652200D01*
X137557314Y-138687914D01*
X137628742Y-138723628D01*
X137735885Y-138723628D01*
X137807314Y-138687914D01*
X137843028Y-138652200D01*
X137878742Y-138580771D01*
X137878742Y-138295057D01*
X138021600Y-139009342D02*
X138021600Y-139366485D01*
X138235885Y-138937914D02*
X137485885Y-139187914D01*
X138235885Y-139437914D01*
X138235885Y-140080771D02*
X138235885Y-139652200D01*
X138235885Y-139866485D02*
X137485885Y-139866485D01*
X137593028Y-139795057D01*
X137664457Y-139723628D01*
X137700171Y-139652200D01*
X137485885Y-140759342D02*
X137485885Y-140402200D01*
X137843028Y-140366485D01*
X137807314Y-140402200D01*
X137771600Y-140473628D01*
X137771600Y-140652200D01*
X137807314Y-140723628D01*
X137843028Y-140759342D01*
X137914457Y-140795057D01*
X138093028Y-140795057D01*
X138164457Y-140759342D01*
X138200171Y-140723628D01*
X138235885Y-140652200D01*
X138235885Y-140473628D01*
X138200171Y-140402200D01*
X138164457Y-140366485D01*
X135822885Y-127192485D02*
X135072885Y-127192485D01*
X135072885Y-127478200D01*
X135108600Y-127549628D01*
X135144314Y-127585342D01*
X135215742Y-127621057D01*
X135322885Y-127621057D01*
X135394314Y-127585342D01*
X135430028Y-127549628D01*
X135465742Y-127478200D01*
X135465742Y-127192485D01*
X135751457Y-128371057D02*
X135787171Y-128335342D01*
X135822885Y-128228200D01*
X135822885Y-128156771D01*
X135787171Y-128049628D01*
X135715742Y-127978200D01*
X135644314Y-127942485D01*
X135501457Y-127906771D01*
X135394314Y-127906771D01*
X135251457Y-127942485D01*
X135180028Y-127978200D01*
X135108600Y-128049628D01*
X135072885Y-128156771D01*
X135072885Y-128228200D01*
X135108600Y-128335342D01*
X135144314Y-128371057D01*
X135822885Y-129085342D02*
X135822885Y-128656771D01*
X135822885Y-128871057D02*
X135072885Y-128871057D01*
X135180028Y-128799628D01*
X135251457Y-128728200D01*
X135287171Y-128656771D01*
X135144314Y-129371057D02*
X135108600Y-129406771D01*
X135072885Y-129478200D01*
X135072885Y-129656771D01*
X135108600Y-129728200D01*
X135144314Y-129763914D01*
X135215742Y-129799628D01*
X135287171Y-129799628D01*
X135394314Y-129763914D01*
X135822885Y-129335342D01*
X135822885Y-129799628D01*
X138235885Y-127192485D02*
X137485885Y-127192485D01*
X137485885Y-127478200D01*
X137521600Y-127549628D01*
X137557314Y-127585342D01*
X137628742Y-127621057D01*
X137735885Y-127621057D01*
X137807314Y-127585342D01*
X137843028Y-127549628D01*
X137878742Y-127478200D01*
X137878742Y-127192485D01*
X138164457Y-128371057D02*
X138200171Y-128335342D01*
X138235885Y-128228200D01*
X138235885Y-128156771D01*
X138200171Y-128049628D01*
X138128742Y-127978200D01*
X138057314Y-127942485D01*
X137914457Y-127906771D01*
X137807314Y-127906771D01*
X137664457Y-127942485D01*
X137593028Y-127978200D01*
X137521600Y-128049628D01*
X137485885Y-128156771D01*
X137485885Y-128228200D01*
X137521600Y-128335342D01*
X137557314Y-128371057D01*
X138235885Y-129085342D02*
X138235885Y-128656771D01*
X138235885Y-128871057D02*
X137485885Y-128871057D01*
X137593028Y-128799628D01*
X137664457Y-128728200D01*
X137700171Y-128656771D01*
X137485885Y-129549628D02*
X137485885Y-129621057D01*
X137521600Y-129692485D01*
X137557314Y-129728200D01*
X137628742Y-129763914D01*
X137771600Y-129799628D01*
X137950171Y-129799628D01*
X138093028Y-129763914D01*
X138164457Y-129728200D01*
X138200171Y-129692485D01*
X138235885Y-129621057D01*
X138235885Y-129549628D01*
X138200171Y-129478200D01*
X138164457Y-129442485D01*
X138093028Y-129406771D01*
X137950171Y-129371057D01*
X137771600Y-129371057D01*
X137628742Y-129406771D01*
X137557314Y-129442485D01*
X137521600Y-129478200D01*
X137485885Y-129549628D01*
X140775885Y-127930628D02*
X140025885Y-127930628D01*
X140025885Y-128216342D01*
X140061600Y-128287771D01*
X140097314Y-128323485D01*
X140168742Y-128359200D01*
X140275885Y-128359200D01*
X140347314Y-128323485D01*
X140383028Y-128287771D01*
X140418742Y-128216342D01*
X140418742Y-127930628D01*
X140383028Y-128930628D02*
X140418742Y-129037771D01*
X140454457Y-129073485D01*
X140525885Y-129109200D01*
X140633028Y-129109200D01*
X140704457Y-129073485D01*
X140740171Y-129037771D01*
X140775885Y-128966342D01*
X140775885Y-128680628D01*
X140025885Y-128680628D01*
X140025885Y-128930628D01*
X140061600Y-129002057D01*
X140097314Y-129037771D01*
X140168742Y-129073485D01*
X140240171Y-129073485D01*
X140311600Y-129037771D01*
X140347314Y-129002057D01*
X140383028Y-128930628D01*
X140383028Y-128680628D01*
X140775885Y-129466342D02*
X140775885Y-129609200D01*
X140740171Y-129680628D01*
X140704457Y-129716342D01*
X140597314Y-129787771D01*
X140454457Y-129823485D01*
X140168742Y-129823485D01*
X140097314Y-129787771D01*
X140061600Y-129752057D01*
X140025885Y-129680628D01*
X140025885Y-129537771D01*
X140061600Y-129466342D01*
X140097314Y-129430628D01*
X140168742Y-129394914D01*
X140347314Y-129394914D01*
X140418742Y-129430628D01*
X140454457Y-129466342D01*
X140490171Y-129537771D01*
X140490171Y-129680628D01*
X140454457Y-129752057D01*
X140418742Y-129787771D01*
X140347314Y-129823485D01*
X142565885Y-127859200D02*
X143315885Y-128109200D01*
X142565885Y-128359200D01*
X143315885Y-128609200D02*
X142565885Y-128609200D01*
X142565885Y-128787771D01*
X142601600Y-128894914D01*
X142673028Y-128966342D01*
X142744457Y-129002057D01*
X142887314Y-129037771D01*
X142994457Y-129037771D01*
X143137314Y-129002057D01*
X143208742Y-128966342D01*
X143280171Y-128894914D01*
X143315885Y-128787771D01*
X143315885Y-128609200D01*
X143315885Y-129359200D02*
X142565885Y-129359200D01*
X142565885Y-129537771D01*
X142601600Y-129644914D01*
X142673028Y-129716342D01*
X142744457Y-129752057D01*
X142887314Y-129787771D01*
X142994457Y-129787771D01*
X143137314Y-129752057D01*
X143208742Y-129716342D01*
X143280171Y-129644914D01*
X143315885Y-129537771D01*
X143315885Y-129359200D01*
X134981600Y-138701771D02*
X134945885Y-138630342D01*
X134945885Y-138523200D01*
X134981600Y-138416057D01*
X135053028Y-138344628D01*
X135124457Y-138308914D01*
X135267314Y-138273200D01*
X135374457Y-138273200D01*
X135517314Y-138308914D01*
X135588742Y-138344628D01*
X135660171Y-138416057D01*
X135695885Y-138523200D01*
X135695885Y-138594628D01*
X135660171Y-138701771D01*
X135624457Y-138737485D01*
X135374457Y-138737485D01*
X135374457Y-138594628D01*
X135695885Y-139058914D02*
X134945885Y-139058914D01*
X135695885Y-139487485D01*
X134945885Y-139487485D01*
X135695885Y-139844628D02*
X134945885Y-139844628D01*
X134945885Y-140023200D01*
X134981600Y-140130342D01*
X135053028Y-140201771D01*
X135124457Y-140237485D01*
X135267314Y-140273200D01*
X135374457Y-140273200D01*
X135517314Y-140237485D01*
X135588742Y-140201771D01*
X135660171Y-140130342D01*
X135695885Y-140023200D01*
X135695885Y-139844628D01*
X145105885Y-138749342D02*
X145105885Y-138392200D01*
X145463028Y-138356485D01*
X145427314Y-138392200D01*
X145391600Y-138463628D01*
X145391600Y-138642200D01*
X145427314Y-138713628D01*
X145463028Y-138749342D01*
X145534457Y-138785057D01*
X145713028Y-138785057D01*
X145784457Y-138749342D01*
X145820171Y-138713628D01*
X145855885Y-138642200D01*
X145855885Y-138463628D01*
X145820171Y-138392200D01*
X145784457Y-138356485D01*
X145105885Y-138999342D02*
X145855885Y-139249342D01*
X145105885Y-139499342D01*
X106935234Y-146827331D02*
X106363805Y-146827331D01*
X106649520Y-147113045D02*
X106649520Y-146541617D01*
D10*
X154427180Y-152763876D02*
X153427180Y-152763876D01*
X154141466Y-153097209D01*
X153427180Y-153430542D01*
X154427180Y-153430542D01*
X154427180Y-154430542D02*
X154427180Y-153859114D01*
X154427180Y-154144828D02*
X153427180Y-154144828D01*
X153570038Y-154049590D01*
X153665276Y-153954352D01*
X153712895Y-153859114D01*
X78201780Y-161526876D02*
X77201780Y-161526876D01*
X77916066Y-161860209D01*
X77201780Y-162193542D01*
X78201780Y-162193542D01*
X77297019Y-162622114D02*
X77249400Y-162669733D01*
X77201780Y-162764971D01*
X77201780Y-163003066D01*
X77249400Y-163098304D01*
X77297019Y-163145923D01*
X77392257Y-163193542D01*
X77487495Y-163193542D01*
X77630352Y-163145923D01*
X78201780Y-162574495D01*
X78201780Y-163193542D01*
X76957180Y-145448676D02*
X75957180Y-145448676D01*
X76671466Y-145782009D01*
X75957180Y-146115342D01*
X76957180Y-146115342D01*
X75957180Y-147067723D02*
X75957180Y-146591533D01*
X76433371Y-146543914D01*
X76385752Y-146591533D01*
X76338133Y-146686771D01*
X76338133Y-146924866D01*
X76385752Y-147020104D01*
X76433371Y-147067723D01*
X76528609Y-147115342D01*
X76766704Y-147115342D01*
X76861942Y-147067723D01*
X76909561Y-147020104D01*
X76957180Y-146924866D01*
X76957180Y-146686771D01*
X76909561Y-146591533D01*
X76861942Y-146543914D01*
X83809523Y-152352380D02*
X83809523Y-151352380D01*
X83476190Y-152066666D01*
X83142857Y-151352380D01*
X83142857Y-152352380D01*
X82761904Y-151352380D02*
X82095238Y-151352380D01*
X82523809Y-152352380D01*
X83689723Y-161213980D02*
X83689723Y-160213980D01*
X83356390Y-160928266D01*
X83023057Y-160213980D01*
X83023057Y-161213980D01*
X82118295Y-160213980D02*
X82308771Y-160213980D01*
X82404009Y-160261600D01*
X82451628Y-160309219D01*
X82546866Y-160452076D01*
X82594485Y-160642552D01*
X82594485Y-161023504D01*
X82546866Y-161118742D01*
X82499247Y-161166361D01*
X82404009Y-161213980D01*
X82213533Y-161213980D01*
X82118295Y-161166361D01*
X82070676Y-161118742D01*
X82023057Y-161023504D01*
X82023057Y-160785409D01*
X82070676Y-160690171D01*
X82118295Y-160642552D01*
X82213533Y-160594933D01*
X82404009Y-160594933D01*
X82499247Y-160642552D01*
X82546866Y-160690171D01*
X82594485Y-160785409D01*
X110371523Y-171958780D02*
X110371523Y-170958780D01*
X110038190Y-171673066D01*
X109704857Y-170958780D01*
X109704857Y-171958780D01*
X108800095Y-171292114D02*
X108800095Y-171958780D01*
X109038190Y-170911161D02*
X109276285Y-171625447D01*
X108657238Y-171625447D01*
X122411123Y-171958780D02*
X122411123Y-170958780D01*
X122077790Y-171673066D01*
X121744457Y-170958780D01*
X121744457Y-171958780D01*
X121363504Y-170958780D02*
X120744457Y-170958780D01*
X121077790Y-171339733D01*
X120934933Y-171339733D01*
X120839695Y-171387352D01*
X120792076Y-171434971D01*
X120744457Y-171530209D01*
X120744457Y-171768304D01*
X120792076Y-171863542D01*
X120839695Y-171911161D01*
X120934933Y-171958780D01*
X121220647Y-171958780D01*
X121315885Y-171911161D01*
X121363504Y-171863542D01*
X146950180Y-133256676D02*
X147664466Y-133256676D01*
X147807323Y-133209057D01*
X147902561Y-133113819D01*
X147950180Y-132970961D01*
X147950180Y-132875723D01*
X147045419Y-133685247D02*
X146997800Y-133732866D01*
X146950180Y-133828104D01*
X146950180Y-134066200D01*
X146997800Y-134161438D01*
X147045419Y-134209057D01*
X147140657Y-134256676D01*
X147235895Y-134256676D01*
X147378752Y-134209057D01*
X147950180Y-133637628D01*
X147950180Y-134256676D01*
X146950180Y-134875723D02*
X146950180Y-134970961D01*
X146997800Y-135066200D01*
X147045419Y-135113819D01*
X147140657Y-135161438D01*
X147331133Y-135209057D01*
X147569228Y-135209057D01*
X147759704Y-135161438D01*
X147854942Y-135113819D01*
X147902561Y-135066200D01*
X147950180Y-134970961D01*
X147950180Y-134875723D01*
X147902561Y-134780485D01*
X147854942Y-134732866D01*
X147759704Y-134685247D01*
X147569228Y-134637628D01*
X147331133Y-134637628D01*
X147140657Y-134685247D01*
X147045419Y-134732866D01*
X146997800Y-134780485D01*
X146950180Y-134875723D01*
D13*
X113281552Y-160486800D02*
X113329171Y-160462990D01*
X113400600Y-160462990D01*
X113472028Y-160486800D01*
X113519647Y-160534419D01*
X113543457Y-160582038D01*
X113567266Y-160677276D01*
X113567266Y-160748704D01*
X113543457Y-160843942D01*
X113519647Y-160891561D01*
X113472028Y-160939180D01*
X113400600Y-160962990D01*
X113352980Y-160962990D01*
X113281552Y-160939180D01*
X113257742Y-160915371D01*
X113257742Y-160748704D01*
X113352980Y-160748704D01*
X113043457Y-160962990D02*
X113043457Y-160462990D01*
X112757742Y-160962990D01*
X112757742Y-160462990D01*
X112519647Y-160962990D02*
X112519647Y-160462990D01*
X112400600Y-160462990D01*
X112329171Y-160486800D01*
X112281552Y-160534419D01*
X112257742Y-160582038D01*
X112233933Y-160677276D01*
X112233933Y-160748704D01*
X112257742Y-160843942D01*
X112281552Y-160891561D01*
X112329171Y-160939180D01*
X112400600Y-160962990D01*
X112519647Y-160962990D01*
X111067266Y-160462990D02*
X110900600Y-160962990D01*
X110733933Y-160462990D01*
X110281552Y-160915371D02*
X110305361Y-160939180D01*
X110376790Y-160962990D01*
X110424409Y-160962990D01*
X110495838Y-160939180D01*
X110543457Y-160891561D01*
X110567266Y-160843942D01*
X110591076Y-160748704D01*
X110591076Y-160677276D01*
X110567266Y-160582038D01*
X110543457Y-160534419D01*
X110495838Y-160486800D01*
X110424409Y-160462990D01*
X110376790Y-160462990D01*
X110305361Y-160486800D01*
X110281552Y-160510609D01*
X109781552Y-160915371D02*
X109805361Y-160939180D01*
X109876790Y-160962990D01*
X109924409Y-160962990D01*
X109995838Y-160939180D01*
X110043457Y-160891561D01*
X110067266Y-160843942D01*
X110091076Y-160748704D01*
X110091076Y-160677276D01*
X110067266Y-160582038D01*
X110043457Y-160534419D01*
X109995838Y-160486800D01*
X109924409Y-160462990D01*
X109876790Y-160462990D01*
X109805361Y-160486800D01*
X109781552Y-160510609D01*
D10*
X92162600Y-142309657D02*
X92198314Y-142345371D01*
X92305457Y-142381085D01*
X92376885Y-142381085D01*
X92484028Y-142345371D01*
X92555457Y-142273942D01*
X92591171Y-142202514D01*
X92626885Y-142059657D01*
X92626885Y-141952514D01*
X92591171Y-141809657D01*
X92555457Y-141738228D01*
X92484028Y-141666800D01*
X92376885Y-141631085D01*
X92305457Y-141631085D01*
X92198314Y-141666800D01*
X92162600Y-141702514D01*
X91876885Y-142166800D02*
X91519742Y-142166800D01*
X91948314Y-142381085D02*
X91698314Y-141631085D01*
X91448314Y-142381085D01*
X91198314Y-142381085D02*
X91198314Y-141631085D01*
X90769742Y-142381085D01*
X90769742Y-141631085D01*
X90412600Y-142381085D02*
X90412600Y-141631085D01*
X90412600Y-141988228D02*
X89984028Y-141988228D01*
X89984028Y-142381085D02*
X89984028Y-141631085D01*
X86231314Y-142309657D02*
X86267028Y-142345371D01*
X86374171Y-142381085D01*
X86445600Y-142381085D01*
X86552742Y-142345371D01*
X86624171Y-142273942D01*
X86659885Y-142202514D01*
X86695600Y-142059657D01*
X86695600Y-141952514D01*
X86659885Y-141809657D01*
X86624171Y-141738228D01*
X86552742Y-141666800D01*
X86445600Y-141631085D01*
X86374171Y-141631085D01*
X86267028Y-141666800D01*
X86231314Y-141702514D01*
X85945600Y-142166800D02*
X85588457Y-142166800D01*
X86017028Y-142381085D02*
X85767028Y-141631085D01*
X85517028Y-142381085D01*
X85267028Y-142381085D02*
X85267028Y-141631085D01*
X84838457Y-142381085D01*
X84838457Y-141631085D01*
X84124171Y-142381085D02*
X84481314Y-142381085D01*
X84481314Y-141631085D01*
X107452380Y-131966666D02*
X108166666Y-131966666D01*
X108309523Y-131919047D01*
X108404761Y-131823809D01*
X108452380Y-131680952D01*
X108452380Y-131585714D01*
X108452380Y-132442857D02*
X107452380Y-132442857D01*
X107452380Y-132823809D01*
X107500000Y-132919047D01*
X107547619Y-132966666D01*
X107642857Y-133014285D01*
X107785714Y-133014285D01*
X107880952Y-132966666D01*
X107928571Y-132919047D01*
X107976190Y-132823809D01*
X107976190Y-132442857D01*
X107547619Y-133395238D02*
X107500000Y-133442857D01*
X107452380Y-133538095D01*
X107452380Y-133776190D01*
X107500000Y-133871428D01*
X107547619Y-133919047D01*
X107642857Y-133966666D01*
X107738095Y-133966666D01*
X107880952Y-133919047D01*
X108452380Y-133347619D01*
X108452380Y-133966666D01*
X110052380Y-131966666D02*
X110766666Y-131966666D01*
X110909523Y-131919047D01*
X111004761Y-131823809D01*
X111052380Y-131680952D01*
X111052380Y-131585714D01*
X111052380Y-132442857D02*
X110052380Y-132442857D01*
X110052380Y-132823809D01*
X110100000Y-132919047D01*
X110147619Y-132966666D01*
X110242857Y-133014285D01*
X110385714Y-133014285D01*
X110480952Y-132966666D01*
X110528571Y-132919047D01*
X110576190Y-132823809D01*
X110576190Y-132442857D01*
X111052380Y-133966666D02*
X111052380Y-133395238D01*
X111052380Y-133680952D02*
X110052380Y-133680952D01*
X110195238Y-133585714D01*
X110290476Y-133490476D01*
X110338095Y-133395238D01*
X117382380Y-127866666D02*
X118096666Y-127866666D01*
X118239523Y-127819047D01*
X118334761Y-127723809D01*
X118382380Y-127580952D01*
X118382380Y-127485714D01*
X117477619Y-128295238D02*
X117430000Y-128342857D01*
X117382380Y-128438095D01*
X117382380Y-128676190D01*
X117430000Y-128771428D01*
X117477619Y-128819047D01*
X117572857Y-128866666D01*
X117668095Y-128866666D01*
X117810952Y-128819047D01*
X118382380Y-128247619D01*
X118382380Y-128866666D01*
M02*
