G04 #@! TF.GenerationSoftware,KiCad,Pcbnew,5.1.5+dfsg1-2build2*
G04 #@! TF.CreationDate,2021-11-24T23:00:57+01:00*
G04 #@! TF.ProjectId,mre_addon_v2,6d72655f-6164-4646-9f6e-5f76322e6b69,V2.0*
G04 #@! TF.SameCoordinates,Original*
G04 #@! TF.FileFunction,Soldermask,Bot*
G04 #@! TF.FilePolarity,Negative*
%FSLAX46Y46*%
G04 Gerber Fmt 4.6, Leading zero omitted, Abs format (unit mm)*
G04 Created by KiCad (PCBNEW 5.1.5+dfsg1-2build2) date 2021-11-24 23:00:57*
%MOMM*%
%LPD*%
G04 APERTURE LIST*
%ADD10C,2.200000*%
%ADD11C,0.100000*%
G04 APERTURE END LIST*
D10*
X91300000Y-162700000D02*
G75*
G03X91300000Y-162700000I-2800000J0D01*
G01*
X145000000Y-162700000D02*
G75*
G03X145000000Y-162700000I-2800000J0D01*
G01*
D11*
G36*
X122466200Y-170731200D02*
G01*
X120764200Y-170731200D01*
X120764200Y-169029200D01*
X122466200Y-169029200D01*
X122466200Y-170731200D01*
G37*
G36*
X110401200Y-170731200D02*
G01*
X108699200Y-170731200D01*
X108699200Y-169029200D01*
X110401200Y-169029200D01*
X110401200Y-170731200D01*
G37*
G36*
X125824080Y-169230060D02*
G01*
X124122080Y-169230060D01*
X124122080Y-167528060D01*
X125824080Y-167528060D01*
X125824080Y-169230060D01*
G37*
G36*
X127761308Y-167560763D02*
G01*
X127916180Y-167624913D01*
X128055561Y-167718045D01*
X128174095Y-167836579D01*
X128267227Y-167975960D01*
X128331377Y-168130832D01*
X128364080Y-168295244D01*
X128364080Y-168462876D01*
X128331377Y-168627288D01*
X128267227Y-168782160D01*
X128174095Y-168921541D01*
X128055561Y-169040075D01*
X127916180Y-169133207D01*
X127761308Y-169197357D01*
X127596896Y-169230060D01*
X127429264Y-169230060D01*
X127264852Y-169197357D01*
X127109980Y-169133207D01*
X126970599Y-169040075D01*
X126852065Y-168921541D01*
X126758933Y-168782160D01*
X126694783Y-168627288D01*
X126662080Y-168462876D01*
X126662080Y-168295244D01*
X126694783Y-168130832D01*
X126758933Y-167975960D01*
X126852065Y-167836579D01*
X126970599Y-167718045D01*
X127109980Y-167624913D01*
X127264852Y-167560763D01*
X127429264Y-167528060D01*
X127596896Y-167528060D01*
X127761308Y-167560763D01*
G37*
G36*
X132841308Y-167560763D02*
G01*
X132996180Y-167624913D01*
X133135561Y-167718045D01*
X133254095Y-167836579D01*
X133347227Y-167975960D01*
X133411377Y-168130832D01*
X133444080Y-168295244D01*
X133444080Y-168462876D01*
X133411377Y-168627288D01*
X133347227Y-168782160D01*
X133254095Y-168921541D01*
X133135561Y-169040075D01*
X132996180Y-169133207D01*
X132841308Y-169197357D01*
X132676896Y-169230060D01*
X132509264Y-169230060D01*
X132344852Y-169197357D01*
X132189980Y-169133207D01*
X132050599Y-169040075D01*
X131932065Y-168921541D01*
X131838933Y-168782160D01*
X131774783Y-168627288D01*
X131742080Y-168462876D01*
X131742080Y-168295244D01*
X131774783Y-168130832D01*
X131838933Y-167975960D01*
X131932065Y-167836579D01*
X132050599Y-167718045D01*
X132189980Y-167624913D01*
X132344852Y-167560763D01*
X132509264Y-167528060D01*
X132676896Y-167528060D01*
X132841308Y-167560763D01*
G37*
G36*
X135381308Y-167560763D02*
G01*
X135536180Y-167624913D01*
X135675561Y-167718045D01*
X135794095Y-167836579D01*
X135887227Y-167975960D01*
X135951377Y-168130832D01*
X135984080Y-168295244D01*
X135984080Y-168462876D01*
X135951377Y-168627288D01*
X135887227Y-168782160D01*
X135794095Y-168921541D01*
X135675561Y-169040075D01*
X135536180Y-169133207D01*
X135381308Y-169197357D01*
X135216896Y-169230060D01*
X135049264Y-169230060D01*
X134884852Y-169197357D01*
X134729980Y-169133207D01*
X134590599Y-169040075D01*
X134472065Y-168921541D01*
X134378933Y-168782160D01*
X134314783Y-168627288D01*
X134282080Y-168462876D01*
X134282080Y-168295244D01*
X134314783Y-168130832D01*
X134378933Y-167975960D01*
X134472065Y-167836579D01*
X134590599Y-167718045D01*
X134729980Y-167624913D01*
X134884852Y-167560763D01*
X135049264Y-167528060D01*
X135216896Y-167528060D01*
X135381308Y-167560763D01*
G37*
G36*
X130301308Y-167560763D02*
G01*
X130456180Y-167624913D01*
X130595561Y-167718045D01*
X130714095Y-167836579D01*
X130807227Y-167975960D01*
X130871377Y-168130832D01*
X130904080Y-168295244D01*
X130904080Y-168462876D01*
X130871377Y-168627288D01*
X130807227Y-168782160D01*
X130714095Y-168921541D01*
X130595561Y-169040075D01*
X130456180Y-169133207D01*
X130301308Y-169197357D01*
X130136896Y-169230060D01*
X129969264Y-169230060D01*
X129804852Y-169197357D01*
X129649980Y-169133207D01*
X129510599Y-169040075D01*
X129392065Y-168921541D01*
X129298933Y-168782160D01*
X129234783Y-168627288D01*
X129202080Y-168462876D01*
X129202080Y-168295244D01*
X129234783Y-168130832D01*
X129298933Y-167975960D01*
X129392065Y-167836579D01*
X129510599Y-167718045D01*
X129649980Y-167624913D01*
X129804852Y-167560763D01*
X129969264Y-167528060D01*
X130136896Y-167528060D01*
X130301308Y-167560763D01*
G37*
G36*
X104058532Y-167730541D02*
G01*
X104148707Y-167767893D01*
X104229863Y-167822120D01*
X104298880Y-167891137D01*
X104353107Y-167972293D01*
X104390459Y-168062468D01*
X104409500Y-168158197D01*
X104409500Y-168255803D01*
X104390459Y-168351532D01*
X104353107Y-168441707D01*
X104298880Y-168522863D01*
X104229863Y-168591880D01*
X104148707Y-168646107D01*
X104058532Y-168683459D01*
X103962803Y-168702500D01*
X103865197Y-168702500D01*
X103769468Y-168683459D01*
X103679293Y-168646107D01*
X103598137Y-168591880D01*
X103529120Y-168522863D01*
X103474893Y-168441707D01*
X103437541Y-168351532D01*
X103418500Y-168255803D01*
X103418500Y-168158197D01*
X103437541Y-168062468D01*
X103474893Y-167972293D01*
X103529120Y-167891137D01*
X103598137Y-167822120D01*
X103679293Y-167767893D01*
X103769468Y-167730541D01*
X103865197Y-167711500D01*
X103962803Y-167711500D01*
X104058532Y-167730541D01*
G37*
G36*
X96058532Y-167730541D02*
G01*
X96148707Y-167767893D01*
X96229863Y-167822120D01*
X96298880Y-167891137D01*
X96353107Y-167972293D01*
X96390459Y-168062468D01*
X96409500Y-168158197D01*
X96409500Y-168255803D01*
X96390459Y-168351532D01*
X96353107Y-168441707D01*
X96298880Y-168522863D01*
X96229863Y-168591880D01*
X96148707Y-168646107D01*
X96058532Y-168683459D01*
X95962803Y-168702500D01*
X95865197Y-168702500D01*
X95769468Y-168683459D01*
X95679293Y-168646107D01*
X95598137Y-168591880D01*
X95529120Y-168522863D01*
X95474893Y-168441707D01*
X95437541Y-168351532D01*
X95418500Y-168255803D01*
X95418500Y-168158197D01*
X95437541Y-168062468D01*
X95474893Y-167972293D01*
X95529120Y-167891137D01*
X95598137Y-167822120D01*
X95679293Y-167767893D01*
X95769468Y-167730541D01*
X95865197Y-167711500D01*
X95962803Y-167711500D01*
X96058532Y-167730541D01*
G37*
G36*
X127761308Y-165020763D02*
G01*
X127916180Y-165084913D01*
X128055561Y-165178045D01*
X128174095Y-165296579D01*
X128267227Y-165435960D01*
X128331377Y-165590832D01*
X128364080Y-165755244D01*
X128364080Y-165922876D01*
X128331377Y-166087288D01*
X128267227Y-166242160D01*
X128174095Y-166381541D01*
X128055561Y-166500075D01*
X127916180Y-166593207D01*
X127761308Y-166657357D01*
X127596896Y-166690060D01*
X127429264Y-166690060D01*
X127264852Y-166657357D01*
X127109980Y-166593207D01*
X126970599Y-166500075D01*
X126852065Y-166381541D01*
X126758933Y-166242160D01*
X126694783Y-166087288D01*
X126662080Y-165922876D01*
X126662080Y-165755244D01*
X126694783Y-165590832D01*
X126758933Y-165435960D01*
X126852065Y-165296579D01*
X126970599Y-165178045D01*
X127109980Y-165084913D01*
X127264852Y-165020763D01*
X127429264Y-164988060D01*
X127596896Y-164988060D01*
X127761308Y-165020763D01*
G37*
G36*
X130301308Y-165020763D02*
G01*
X130456180Y-165084913D01*
X130595561Y-165178045D01*
X130714095Y-165296579D01*
X130807227Y-165435960D01*
X130871377Y-165590832D01*
X130904080Y-165755244D01*
X130904080Y-165922876D01*
X130871377Y-166087288D01*
X130807227Y-166242160D01*
X130714095Y-166381541D01*
X130595561Y-166500075D01*
X130456180Y-166593207D01*
X130301308Y-166657357D01*
X130136896Y-166690060D01*
X129969264Y-166690060D01*
X129804852Y-166657357D01*
X129649980Y-166593207D01*
X129510599Y-166500075D01*
X129392065Y-166381541D01*
X129298933Y-166242160D01*
X129234783Y-166087288D01*
X129202080Y-165922876D01*
X129202080Y-165755244D01*
X129234783Y-165590832D01*
X129298933Y-165435960D01*
X129392065Y-165296579D01*
X129510599Y-165178045D01*
X129649980Y-165084913D01*
X129804852Y-165020763D01*
X129969264Y-164988060D01*
X130136896Y-164988060D01*
X130301308Y-165020763D01*
G37*
G36*
X125221308Y-165020763D02*
G01*
X125376180Y-165084913D01*
X125515561Y-165178045D01*
X125634095Y-165296579D01*
X125727227Y-165435960D01*
X125791377Y-165590832D01*
X125824080Y-165755244D01*
X125824080Y-165922876D01*
X125791377Y-166087288D01*
X125727227Y-166242160D01*
X125634095Y-166381541D01*
X125515561Y-166500075D01*
X125376180Y-166593207D01*
X125221308Y-166657357D01*
X125056896Y-166690060D01*
X124889264Y-166690060D01*
X124724852Y-166657357D01*
X124569980Y-166593207D01*
X124430599Y-166500075D01*
X124312065Y-166381541D01*
X124218933Y-166242160D01*
X124154783Y-166087288D01*
X124122080Y-165922876D01*
X124122080Y-165755244D01*
X124154783Y-165590832D01*
X124218933Y-165435960D01*
X124312065Y-165296579D01*
X124430599Y-165178045D01*
X124569980Y-165084913D01*
X124724852Y-165020763D01*
X124889264Y-164988060D01*
X125056896Y-164988060D01*
X125221308Y-165020763D01*
G37*
G36*
X132841308Y-165020763D02*
G01*
X132996180Y-165084913D01*
X133135561Y-165178045D01*
X133254095Y-165296579D01*
X133347227Y-165435960D01*
X133411377Y-165590832D01*
X133444080Y-165755244D01*
X133444080Y-165922876D01*
X133411377Y-166087288D01*
X133347227Y-166242160D01*
X133254095Y-166381541D01*
X133135561Y-166500075D01*
X132996180Y-166593207D01*
X132841308Y-166657357D01*
X132676896Y-166690060D01*
X132509264Y-166690060D01*
X132344852Y-166657357D01*
X132189980Y-166593207D01*
X132050599Y-166500075D01*
X131932065Y-166381541D01*
X131838933Y-166242160D01*
X131774783Y-166087288D01*
X131742080Y-165922876D01*
X131742080Y-165755244D01*
X131774783Y-165590832D01*
X131838933Y-165435960D01*
X131932065Y-165296579D01*
X132050599Y-165178045D01*
X132189980Y-165084913D01*
X132344852Y-165020763D01*
X132509264Y-164988060D01*
X132676896Y-164988060D01*
X132841308Y-165020763D01*
G37*
G36*
X135381308Y-165020763D02*
G01*
X135536180Y-165084913D01*
X135675561Y-165178045D01*
X135794095Y-165296579D01*
X135887227Y-165435960D01*
X135951377Y-165590832D01*
X135984080Y-165755244D01*
X135984080Y-165922876D01*
X135951377Y-166087288D01*
X135887227Y-166242160D01*
X135794095Y-166381541D01*
X135675561Y-166500075D01*
X135536180Y-166593207D01*
X135381308Y-166657357D01*
X135216896Y-166690060D01*
X135049264Y-166690060D01*
X134884852Y-166657357D01*
X134729980Y-166593207D01*
X134590599Y-166500075D01*
X134472065Y-166381541D01*
X134378933Y-166242160D01*
X134314783Y-166087288D01*
X134282080Y-165922876D01*
X134282080Y-165755244D01*
X134314783Y-165590832D01*
X134378933Y-165435960D01*
X134472065Y-165296579D01*
X134590599Y-165178045D01*
X134729980Y-165084913D01*
X134884852Y-165020763D01*
X135049264Y-164988060D01*
X135216896Y-164988060D01*
X135381308Y-165020763D01*
G37*
G36*
X76778428Y-160171903D02*
G01*
X76933300Y-160236053D01*
X77072681Y-160329185D01*
X77191215Y-160447719D01*
X77284347Y-160587100D01*
X77348497Y-160741972D01*
X77381200Y-160906384D01*
X77381200Y-161074016D01*
X77348497Y-161238428D01*
X77284347Y-161393300D01*
X77191215Y-161532681D01*
X77072681Y-161651215D01*
X76933300Y-161744347D01*
X76778428Y-161808497D01*
X76614016Y-161841200D01*
X76446384Y-161841200D01*
X76281972Y-161808497D01*
X76127100Y-161744347D01*
X75987719Y-161651215D01*
X75869185Y-161532681D01*
X75776053Y-161393300D01*
X75711903Y-161238428D01*
X75679200Y-161074016D01*
X75679200Y-160906384D01*
X75711903Y-160741972D01*
X75776053Y-160587100D01*
X75869185Y-160447719D01*
X75987719Y-160329185D01*
X76127100Y-160236053D01*
X76281972Y-160171903D01*
X76446384Y-160139200D01*
X76614016Y-160139200D01*
X76778428Y-160171903D01*
G37*
G36*
X154248428Y-160171903D02*
G01*
X154403300Y-160236053D01*
X154542681Y-160329185D01*
X154661215Y-160447719D01*
X154754347Y-160587100D01*
X154818497Y-160741972D01*
X154851200Y-160906384D01*
X154851200Y-161074016D01*
X154818497Y-161238428D01*
X154754347Y-161393300D01*
X154661215Y-161532681D01*
X154542681Y-161651215D01*
X154403300Y-161744347D01*
X154248428Y-161808497D01*
X154084016Y-161841200D01*
X153916384Y-161841200D01*
X153751972Y-161808497D01*
X153597100Y-161744347D01*
X153457719Y-161651215D01*
X153339185Y-161532681D01*
X153246053Y-161393300D01*
X153181903Y-161238428D01*
X153149200Y-161074016D01*
X153149200Y-160906384D01*
X153181903Y-160741972D01*
X153246053Y-160587100D01*
X153339185Y-160447719D01*
X153457719Y-160329185D01*
X153597100Y-160236053D01*
X153751972Y-160171903D01*
X153916384Y-160139200D01*
X154084016Y-160139200D01*
X154248428Y-160171903D01*
G37*
G36*
X118751600Y-160211800D02*
G01*
X117049600Y-160211800D01*
X117049600Y-158509800D01*
X118751600Y-158509800D01*
X118751600Y-160211800D01*
G37*
G36*
X116251600Y-160211800D02*
G01*
X114549600Y-160211800D01*
X114549600Y-158509800D01*
X116251600Y-158509800D01*
X116251600Y-160211800D01*
G37*
G36*
X111213600Y-160173800D02*
G01*
X109587600Y-160173800D01*
X109587600Y-158547800D01*
X111213600Y-158547800D01*
X111213600Y-160173800D01*
G37*
G36*
X113713600Y-160173800D02*
G01*
X112087600Y-160173800D01*
X112087600Y-158547800D01*
X113713600Y-158547800D01*
X113713600Y-160173800D01*
G37*
G36*
X84525428Y-158393903D02*
G01*
X84680300Y-158458053D01*
X84819681Y-158551185D01*
X84938215Y-158669719D01*
X85031347Y-158809100D01*
X85095497Y-158963972D01*
X85128200Y-159128384D01*
X85128200Y-159296016D01*
X85095497Y-159460428D01*
X85031347Y-159615300D01*
X84938215Y-159754681D01*
X84819681Y-159873215D01*
X84680300Y-159966347D01*
X84525428Y-160030497D01*
X84361016Y-160063200D01*
X84193384Y-160063200D01*
X84028972Y-160030497D01*
X83874100Y-159966347D01*
X83734719Y-159873215D01*
X83616185Y-159754681D01*
X83523053Y-159615300D01*
X83458903Y-159460428D01*
X83426200Y-159296016D01*
X83426200Y-159128384D01*
X83458903Y-158963972D01*
X83523053Y-158809100D01*
X83616185Y-158669719D01*
X83734719Y-158551185D01*
X83874100Y-158458053D01*
X84028972Y-158393903D01*
X84193384Y-158361200D01*
X84361016Y-158361200D01*
X84525428Y-158393903D01*
G37*
G36*
X81985428Y-158393903D02*
G01*
X82140300Y-158458053D01*
X82279681Y-158551185D01*
X82398215Y-158669719D01*
X82491347Y-158809100D01*
X82555497Y-158963972D01*
X82588200Y-159128384D01*
X82588200Y-159296016D01*
X82555497Y-159460428D01*
X82491347Y-159615300D01*
X82398215Y-159754681D01*
X82279681Y-159873215D01*
X82140300Y-159966347D01*
X81985428Y-160030497D01*
X81821016Y-160063200D01*
X81653384Y-160063200D01*
X81488972Y-160030497D01*
X81334100Y-159966347D01*
X81194719Y-159873215D01*
X81076185Y-159754681D01*
X80983053Y-159615300D01*
X80918903Y-159460428D01*
X80886200Y-159296016D01*
X80886200Y-159128384D01*
X80918903Y-158963972D01*
X80983053Y-158809100D01*
X81076185Y-158669719D01*
X81194719Y-158551185D01*
X81334100Y-158458053D01*
X81488972Y-158393903D01*
X81653384Y-158361200D01*
X81821016Y-158361200D01*
X81985428Y-158393903D01*
G37*
G36*
X80048200Y-160063200D02*
G01*
X78346200Y-160063200D01*
X78346200Y-158361200D01*
X80048200Y-158361200D01*
X80048200Y-160063200D01*
G37*
G36*
X76778428Y-157631903D02*
G01*
X76933300Y-157696053D01*
X77072681Y-157789185D01*
X77191215Y-157907719D01*
X77284347Y-158047100D01*
X77348497Y-158201972D01*
X77381200Y-158366384D01*
X77381200Y-158534016D01*
X77348497Y-158698428D01*
X77284347Y-158853300D01*
X77191215Y-158992681D01*
X77072681Y-159111215D01*
X76933300Y-159204347D01*
X76778428Y-159268497D01*
X76614016Y-159301200D01*
X76446384Y-159301200D01*
X76281972Y-159268497D01*
X76127100Y-159204347D01*
X75987719Y-159111215D01*
X75869185Y-158992681D01*
X75776053Y-158853300D01*
X75711903Y-158698428D01*
X75679200Y-158534016D01*
X75679200Y-158366384D01*
X75711903Y-158201972D01*
X75776053Y-158047100D01*
X75869185Y-157907719D01*
X75987719Y-157789185D01*
X76127100Y-157696053D01*
X76281972Y-157631903D01*
X76446384Y-157599200D01*
X76614016Y-157599200D01*
X76778428Y-157631903D01*
G37*
G36*
X154248428Y-157631903D02*
G01*
X154403300Y-157696053D01*
X154542681Y-157789185D01*
X154661215Y-157907719D01*
X154754347Y-158047100D01*
X154818497Y-158201972D01*
X154851200Y-158366384D01*
X154851200Y-158534016D01*
X154818497Y-158698428D01*
X154754347Y-158853300D01*
X154661215Y-158992681D01*
X154542681Y-159111215D01*
X154403300Y-159204347D01*
X154248428Y-159268497D01*
X154084016Y-159301200D01*
X153916384Y-159301200D01*
X153751972Y-159268497D01*
X153597100Y-159204347D01*
X153457719Y-159111215D01*
X153339185Y-158992681D01*
X153246053Y-158853300D01*
X153181903Y-158698428D01*
X153149200Y-158534016D01*
X153149200Y-158366384D01*
X153181903Y-158201972D01*
X153246053Y-158047100D01*
X153339185Y-157907719D01*
X153457719Y-157789185D01*
X153597100Y-157696053D01*
X153751972Y-157631903D01*
X153916384Y-157599200D01*
X154084016Y-157599200D01*
X154248428Y-157631903D01*
G37*
G36*
X77381200Y-156761200D02*
G01*
X75679200Y-156761200D01*
X75679200Y-155059200D01*
X77381200Y-155059200D01*
X77381200Y-156761200D01*
G37*
G36*
X154851200Y-156761200D02*
G01*
X153149200Y-156761200D01*
X153149200Y-155059200D01*
X154851200Y-155059200D01*
X154851200Y-156761200D01*
G37*
G36*
X76778428Y-152551903D02*
G01*
X76933300Y-152616053D01*
X77072681Y-152709185D01*
X77191215Y-152827719D01*
X77284347Y-152967100D01*
X77348497Y-153121972D01*
X77381200Y-153286384D01*
X77381200Y-153454016D01*
X77348497Y-153618428D01*
X77284347Y-153773300D01*
X77191215Y-153912681D01*
X77072681Y-154031215D01*
X76933300Y-154124347D01*
X76778428Y-154188497D01*
X76614016Y-154221200D01*
X76446384Y-154221200D01*
X76281972Y-154188497D01*
X76127100Y-154124347D01*
X75987719Y-154031215D01*
X75869185Y-153912681D01*
X75776053Y-153773300D01*
X75711903Y-153618428D01*
X75679200Y-153454016D01*
X75679200Y-153286384D01*
X75711903Y-153121972D01*
X75776053Y-152967100D01*
X75869185Y-152827719D01*
X75987719Y-152709185D01*
X76127100Y-152616053D01*
X76281972Y-152551903D01*
X76446384Y-152519200D01*
X76614016Y-152519200D01*
X76778428Y-152551903D01*
G37*
G36*
X142420721Y-153070174D02*
G01*
X142520995Y-153111709D01*
X142565812Y-153141655D01*
X142611242Y-153172010D01*
X142687990Y-153248758D01*
X142687991Y-153248760D01*
X142748291Y-153339005D01*
X142789826Y-153439279D01*
X142811000Y-153545730D01*
X142811000Y-153654270D01*
X142789826Y-153760721D01*
X142748291Y-153860995D01*
X142748290Y-153860996D01*
X142687990Y-153951242D01*
X142611242Y-154027990D01*
X142606415Y-154031215D01*
X142520995Y-154088291D01*
X142420721Y-154129826D01*
X142314270Y-154151000D01*
X142205730Y-154151000D01*
X142099279Y-154129826D01*
X141999005Y-154088291D01*
X141913585Y-154031215D01*
X141908758Y-154027990D01*
X141832010Y-153951242D01*
X141771710Y-153860996D01*
X141771709Y-153860995D01*
X141730174Y-153760721D01*
X141709000Y-153654270D01*
X141709000Y-153545730D01*
X141730174Y-153439279D01*
X141771709Y-153339005D01*
X141832009Y-153248760D01*
X141832010Y-153248758D01*
X141908758Y-153172010D01*
X141954188Y-153141655D01*
X141999005Y-153111709D01*
X142099279Y-153070174D01*
X142205730Y-153049000D01*
X142314270Y-153049000D01*
X142420721Y-153070174D01*
G37*
G36*
X76778428Y-150011903D02*
G01*
X76933300Y-150076053D01*
X77072681Y-150169185D01*
X77191215Y-150287719D01*
X77284347Y-150427100D01*
X77348497Y-150581972D01*
X77381200Y-150746384D01*
X77381200Y-150914016D01*
X77348497Y-151078428D01*
X77284347Y-151233300D01*
X77191215Y-151372681D01*
X77072681Y-151491215D01*
X76933300Y-151584347D01*
X76778428Y-151648497D01*
X76614016Y-151681200D01*
X76446384Y-151681200D01*
X76281972Y-151648497D01*
X76127100Y-151584347D01*
X75987719Y-151491215D01*
X75869185Y-151372681D01*
X75776053Y-151233300D01*
X75711903Y-151078428D01*
X75679200Y-150914016D01*
X75679200Y-150746384D01*
X75711903Y-150581972D01*
X75776053Y-150427100D01*
X75869185Y-150287719D01*
X75987719Y-150169185D01*
X76127100Y-150076053D01*
X76281972Y-150011903D01*
X76446384Y-149979200D01*
X76614016Y-149979200D01*
X76778428Y-150011903D01*
G37*
G36*
X146433642Y-149829781D02*
G01*
X146579414Y-149890162D01*
X146579416Y-149890163D01*
X146710608Y-149977822D01*
X146822178Y-150089392D01*
X146889019Y-150189428D01*
X146909838Y-150220586D01*
X146970219Y-150366358D01*
X147001000Y-150521107D01*
X147001000Y-150678893D01*
X146970219Y-150833642D01*
X146909838Y-150979414D01*
X146909837Y-150979416D01*
X146822178Y-151110608D01*
X146710608Y-151222178D01*
X146579416Y-151309837D01*
X146579415Y-151309838D01*
X146579414Y-151309838D01*
X146433642Y-151370219D01*
X146278893Y-151401000D01*
X146121107Y-151401000D01*
X145966358Y-151370219D01*
X145820586Y-151309838D01*
X145820585Y-151309838D01*
X145820584Y-151309837D01*
X145689392Y-151222178D01*
X145577822Y-151110608D01*
X145490163Y-150979416D01*
X145490162Y-150979414D01*
X145429781Y-150833642D01*
X145399000Y-150678893D01*
X145399000Y-150521107D01*
X145429781Y-150366358D01*
X145490162Y-150220586D01*
X145510981Y-150189428D01*
X145577822Y-150089392D01*
X145689392Y-149977822D01*
X145820584Y-149890163D01*
X145820586Y-149890162D01*
X145966358Y-149829781D01*
X146121107Y-149799000D01*
X146278893Y-149799000D01*
X146433642Y-149829781D01*
G37*
G36*
X143433642Y-149829781D02*
G01*
X143579414Y-149890162D01*
X143579416Y-149890163D01*
X143710608Y-149977822D01*
X143822178Y-150089392D01*
X143889019Y-150189428D01*
X143909838Y-150220586D01*
X143970219Y-150366358D01*
X144001000Y-150521107D01*
X144001000Y-150678893D01*
X143970219Y-150833642D01*
X143909838Y-150979414D01*
X143909837Y-150979416D01*
X143822178Y-151110608D01*
X143710608Y-151222178D01*
X143579416Y-151309837D01*
X143579415Y-151309838D01*
X143579414Y-151309838D01*
X143433642Y-151370219D01*
X143278893Y-151401000D01*
X143121107Y-151401000D01*
X142966358Y-151370219D01*
X142820586Y-151309838D01*
X142820585Y-151309838D01*
X142820584Y-151309837D01*
X142689392Y-151222178D01*
X142577822Y-151110608D01*
X142490163Y-150979416D01*
X142490162Y-150979414D01*
X142429781Y-150833642D01*
X142399000Y-150678893D01*
X142399000Y-150521107D01*
X142429781Y-150366358D01*
X142490162Y-150220586D01*
X142510981Y-150189428D01*
X142577822Y-150089392D01*
X142689392Y-149977822D01*
X142820584Y-149890163D01*
X142820586Y-149890162D01*
X142966358Y-149829781D01*
X143121107Y-149799000D01*
X143278893Y-149799000D01*
X143433642Y-149829781D01*
G37*
G36*
X84525428Y-149122903D02*
G01*
X84680300Y-149187053D01*
X84819681Y-149280185D01*
X84938215Y-149398719D01*
X85031347Y-149538100D01*
X85095497Y-149692972D01*
X85128200Y-149857384D01*
X85128200Y-150025016D01*
X85095497Y-150189428D01*
X85031347Y-150344300D01*
X84938215Y-150483681D01*
X84819681Y-150602215D01*
X84680300Y-150695347D01*
X84525428Y-150759497D01*
X84361016Y-150792200D01*
X84193384Y-150792200D01*
X84028972Y-150759497D01*
X83874100Y-150695347D01*
X83734719Y-150602215D01*
X83616185Y-150483681D01*
X83523053Y-150344300D01*
X83458903Y-150189428D01*
X83426200Y-150025016D01*
X83426200Y-149857384D01*
X83458903Y-149692972D01*
X83523053Y-149538100D01*
X83616185Y-149398719D01*
X83734719Y-149280185D01*
X83874100Y-149187053D01*
X84028972Y-149122903D01*
X84193384Y-149090200D01*
X84361016Y-149090200D01*
X84525428Y-149122903D01*
G37*
G36*
X81985428Y-149122903D02*
G01*
X82140300Y-149187053D01*
X82279681Y-149280185D01*
X82398215Y-149398719D01*
X82491347Y-149538100D01*
X82555497Y-149692972D01*
X82588200Y-149857384D01*
X82588200Y-150025016D01*
X82555497Y-150189428D01*
X82491347Y-150344300D01*
X82398215Y-150483681D01*
X82279681Y-150602215D01*
X82140300Y-150695347D01*
X81985428Y-150759497D01*
X81821016Y-150792200D01*
X81653384Y-150792200D01*
X81488972Y-150759497D01*
X81334100Y-150695347D01*
X81194719Y-150602215D01*
X81076185Y-150483681D01*
X80983053Y-150344300D01*
X80918903Y-150189428D01*
X80886200Y-150025016D01*
X80886200Y-149857384D01*
X80918903Y-149692972D01*
X80983053Y-149538100D01*
X81076185Y-149398719D01*
X81194719Y-149280185D01*
X81334100Y-149187053D01*
X81488972Y-149122903D01*
X81653384Y-149090200D01*
X81821016Y-149090200D01*
X81985428Y-149122903D01*
G37*
G36*
X80048200Y-150792200D02*
G01*
X78346200Y-150792200D01*
X78346200Y-149090200D01*
X80048200Y-149090200D01*
X80048200Y-150792200D01*
G37*
G36*
X150822585Y-146078802D02*
G01*
X150972410Y-146108604D01*
X151254674Y-146225521D01*
X151508705Y-146395259D01*
X151724741Y-146611295D01*
X151894479Y-146865326D01*
X152011396Y-147147590D01*
X152071000Y-147447240D01*
X152071000Y-147752760D01*
X152011396Y-148052410D01*
X151894479Y-148334674D01*
X151724741Y-148588705D01*
X151508705Y-148804741D01*
X151254674Y-148974479D01*
X150972410Y-149091396D01*
X150822585Y-149121198D01*
X150672761Y-149151000D01*
X150367239Y-149151000D01*
X150217415Y-149121198D01*
X150067590Y-149091396D01*
X149785326Y-148974479D01*
X149531295Y-148804741D01*
X149315259Y-148588705D01*
X149145521Y-148334674D01*
X149028604Y-148052410D01*
X148969000Y-147752760D01*
X148969000Y-147447240D01*
X149028604Y-147147590D01*
X149145521Y-146865326D01*
X149315259Y-146611295D01*
X149531295Y-146395259D01*
X149785326Y-146225521D01*
X150067590Y-146108604D01*
X150217415Y-146078802D01*
X150367239Y-146049000D01*
X150672761Y-146049000D01*
X150822585Y-146078802D01*
G37*
G36*
X77381200Y-149141200D02*
G01*
X75679200Y-149141200D01*
X75679200Y-147439200D01*
X77381200Y-147439200D01*
X77381200Y-149141200D01*
G37*
G36*
X143433642Y-146829781D02*
G01*
X143579414Y-146890162D01*
X143579416Y-146890163D01*
X143710608Y-146977822D01*
X143822178Y-147089392D01*
X143861064Y-147147590D01*
X143909838Y-147220586D01*
X143970219Y-147366358D01*
X144001000Y-147521107D01*
X144001000Y-147678893D01*
X143970219Y-147833642D01*
X143909838Y-147979414D01*
X143909837Y-147979416D01*
X143822178Y-148110608D01*
X143710608Y-148222178D01*
X143579416Y-148309837D01*
X143579415Y-148309838D01*
X143579414Y-148309838D01*
X143433642Y-148370219D01*
X143278893Y-148401000D01*
X143121107Y-148401000D01*
X142966358Y-148370219D01*
X142820586Y-148309838D01*
X142820585Y-148309838D01*
X142820584Y-148309837D01*
X142689392Y-148222178D01*
X142577822Y-148110608D01*
X142490163Y-147979416D01*
X142490162Y-147979414D01*
X142429781Y-147833642D01*
X142399000Y-147678893D01*
X142399000Y-147521107D01*
X142429781Y-147366358D01*
X142490162Y-147220586D01*
X142538936Y-147147590D01*
X142577822Y-147089392D01*
X142689392Y-146977822D01*
X142820584Y-146890163D01*
X142820586Y-146890162D01*
X142966358Y-146829781D01*
X143121107Y-146799000D01*
X143278893Y-146799000D01*
X143433642Y-146829781D01*
G37*
G36*
X146433642Y-146829781D02*
G01*
X146579414Y-146890162D01*
X146579416Y-146890163D01*
X146710608Y-146977822D01*
X146822178Y-147089392D01*
X146861064Y-147147590D01*
X146909838Y-147220586D01*
X146970219Y-147366358D01*
X147001000Y-147521107D01*
X147001000Y-147678893D01*
X146970219Y-147833642D01*
X146909838Y-147979414D01*
X146909837Y-147979416D01*
X146822178Y-148110608D01*
X146710608Y-148222178D01*
X146579416Y-148309837D01*
X146579415Y-148309838D01*
X146579414Y-148309838D01*
X146433642Y-148370219D01*
X146278893Y-148401000D01*
X146121107Y-148401000D01*
X145966358Y-148370219D01*
X145820586Y-148309838D01*
X145820585Y-148309838D01*
X145820584Y-148309837D01*
X145689392Y-148222178D01*
X145577822Y-148110608D01*
X145490163Y-147979416D01*
X145490162Y-147979414D01*
X145429781Y-147833642D01*
X145399000Y-147678893D01*
X145399000Y-147521107D01*
X145429781Y-147366358D01*
X145490162Y-147220586D01*
X145538936Y-147147590D01*
X145577822Y-147089392D01*
X145689392Y-146977822D01*
X145820584Y-146890163D01*
X145820586Y-146890162D01*
X145966358Y-146829781D01*
X146121107Y-146799000D01*
X146278893Y-146799000D01*
X146433642Y-146829781D01*
G37*
G36*
X107355600Y-146506000D02*
G01*
X105953600Y-146506000D01*
X105953600Y-145604000D01*
X107355600Y-145604000D01*
X107355600Y-146506000D01*
G37*
G36*
X146853048Y-143803122D02*
G01*
X146887387Y-143813539D01*
X146919036Y-143830456D01*
X146946778Y-143853222D01*
X146969544Y-143880964D01*
X146986461Y-143912613D01*
X146996878Y-143946952D01*
X147001000Y-143988807D01*
X147001000Y-145211193D01*
X146996878Y-145253048D01*
X146986461Y-145287387D01*
X146969544Y-145319036D01*
X146946778Y-145346778D01*
X146919036Y-145369544D01*
X146887387Y-145386461D01*
X146853048Y-145396878D01*
X146811193Y-145401000D01*
X145588807Y-145401000D01*
X145546952Y-145396878D01*
X145512613Y-145386461D01*
X145480964Y-145369544D01*
X145453222Y-145346778D01*
X145430456Y-145319036D01*
X145413539Y-145287387D01*
X145403122Y-145253048D01*
X145399000Y-145211193D01*
X145399000Y-143988807D01*
X145403122Y-143946952D01*
X145413539Y-143912613D01*
X145430456Y-143880964D01*
X145453222Y-143853222D01*
X145480964Y-143830456D01*
X145512613Y-143813539D01*
X145546952Y-143803122D01*
X145588807Y-143799000D01*
X146811193Y-143799000D01*
X146853048Y-143803122D01*
G37*
G36*
X143433642Y-143829781D02*
G01*
X143557208Y-143880964D01*
X143579416Y-143890163D01*
X143710608Y-143977822D01*
X143822178Y-144089392D01*
X143909837Y-144220584D01*
X143909838Y-144220586D01*
X143970219Y-144366358D01*
X144001000Y-144521107D01*
X144001000Y-144678893D01*
X143970219Y-144833642D01*
X143943225Y-144898810D01*
X143909837Y-144979416D01*
X143822178Y-145110608D01*
X143710608Y-145222178D01*
X143579416Y-145309837D01*
X143579415Y-145309838D01*
X143579414Y-145309838D01*
X143433642Y-145370219D01*
X143278893Y-145401000D01*
X143121107Y-145401000D01*
X142966358Y-145370219D01*
X142820586Y-145309838D01*
X142820585Y-145309838D01*
X142820584Y-145309837D01*
X142689392Y-145222178D01*
X142577822Y-145110608D01*
X142490163Y-144979416D01*
X142456775Y-144898810D01*
X142429781Y-144833642D01*
X142399000Y-144678893D01*
X142399000Y-144521107D01*
X142429781Y-144366358D01*
X142490162Y-144220586D01*
X142490163Y-144220584D01*
X142577822Y-144089392D01*
X142689392Y-143977822D01*
X142820584Y-143890163D01*
X142842792Y-143880964D01*
X142966358Y-143829781D01*
X143121107Y-143799000D01*
X143278893Y-143799000D01*
X143433642Y-143829781D01*
G37*
G36*
X106993010Y-144365925D02*
G01*
X107078026Y-144391714D01*
X107156375Y-144433593D01*
X107225049Y-144489951D01*
X107281407Y-144558625D01*
X107323286Y-144636974D01*
X107349075Y-144721990D01*
X107357782Y-144810400D01*
X107349075Y-144898810D01*
X107323286Y-144983826D01*
X107281407Y-145062175D01*
X107225049Y-145130849D01*
X107156375Y-145187207D01*
X107078026Y-145229086D01*
X106993010Y-145254875D01*
X106926758Y-145261400D01*
X106382442Y-145261400D01*
X106316190Y-145254875D01*
X106231174Y-145229086D01*
X106152825Y-145187207D01*
X106084151Y-145130849D01*
X106027793Y-145062175D01*
X105985914Y-144983826D01*
X105960125Y-144898810D01*
X105951418Y-144810400D01*
X105960125Y-144721990D01*
X105985914Y-144636974D01*
X106027793Y-144558625D01*
X106084151Y-144489951D01*
X106152825Y-144433593D01*
X106231174Y-144391714D01*
X106316190Y-144365925D01*
X106382442Y-144359400D01*
X106926758Y-144359400D01*
X106993010Y-144365925D01*
G37*
G36*
X30801277Y-139188263D02*
G01*
X30901152Y-139208129D01*
X31018059Y-139256554D01*
X31183391Y-139325036D01*
X31437401Y-139494760D01*
X31653420Y-139710779D01*
X31823144Y-139964789D01*
X31940051Y-140247029D01*
X31973676Y-140416070D01*
X31999650Y-140546653D01*
X31999650Y-140852147D01*
X31940051Y-141151772D01*
X31931668Y-141172010D01*
X31823144Y-141434011D01*
X31653420Y-141688021D01*
X31437401Y-141904040D01*
X31183391Y-142073764D01*
X31018059Y-142142246D01*
X30901152Y-142190671D01*
X30801277Y-142210537D01*
X30601529Y-142250270D01*
X30296031Y-142250270D01*
X30096283Y-142210537D01*
X29996408Y-142190671D01*
X29879501Y-142142246D01*
X29714169Y-142073764D01*
X29460159Y-141904040D01*
X29244140Y-141688021D01*
X29074416Y-141434011D01*
X28965892Y-141172010D01*
X28957509Y-141151772D01*
X28897910Y-140852147D01*
X28897910Y-140546653D01*
X28923885Y-140416070D01*
X28957509Y-140247029D01*
X29074416Y-139964789D01*
X29244140Y-139710779D01*
X29460159Y-139494760D01*
X29714169Y-139325036D01*
X29879501Y-139256554D01*
X29996408Y-139208129D01*
X30096283Y-139188263D01*
X30296031Y-139148530D01*
X30601529Y-139148530D01*
X30801277Y-139188263D01*
G37*
G36*
X142420721Y-141070174D02*
G01*
X142520995Y-141111709D01*
X142565812Y-141141655D01*
X142611242Y-141172010D01*
X142687990Y-141248758D01*
X142687991Y-141248760D01*
X142748291Y-141339005D01*
X142789826Y-141439279D01*
X142811000Y-141545730D01*
X142811000Y-141654270D01*
X142789826Y-141760721D01*
X142748291Y-141860995D01*
X142748290Y-141860996D01*
X142687990Y-141951242D01*
X142611242Y-142027990D01*
X142565812Y-142058345D01*
X142520995Y-142088291D01*
X142420721Y-142129826D01*
X142314270Y-142151000D01*
X142205730Y-142151000D01*
X142099279Y-142129826D01*
X141999005Y-142088291D01*
X141954188Y-142058345D01*
X141908758Y-142027990D01*
X141832010Y-141951242D01*
X141771710Y-141860996D01*
X141771709Y-141860995D01*
X141730174Y-141760721D01*
X141709000Y-141654270D01*
X141709000Y-141545730D01*
X141730174Y-141439279D01*
X141771709Y-141339005D01*
X141832009Y-141248760D01*
X141832010Y-141248758D01*
X141908758Y-141172010D01*
X141954188Y-141141655D01*
X141999005Y-141111709D01*
X142099279Y-141070174D01*
X142205730Y-141049000D01*
X142314270Y-141049000D01*
X142420721Y-141070174D01*
G37*
G36*
X85579659Y-140049660D02*
G01*
X85716332Y-140106272D01*
X85839335Y-140188460D01*
X85943940Y-140293065D01*
X85971420Y-140334192D01*
X86026129Y-140416070D01*
X86082740Y-140552741D01*
X86089794Y-140588202D01*
X86111600Y-140697833D01*
X86111600Y-140845767D01*
X86082740Y-140990859D01*
X86026128Y-141127532D01*
X85943940Y-141250535D01*
X85839335Y-141355140D01*
X85716332Y-141437328D01*
X85716331Y-141437329D01*
X85716330Y-141437329D01*
X85579659Y-141493940D01*
X85434568Y-141522800D01*
X85286632Y-141522800D01*
X85141541Y-141493940D01*
X85004870Y-141437329D01*
X85004869Y-141437329D01*
X85004868Y-141437328D01*
X84881865Y-141355140D01*
X84777260Y-141250535D01*
X84695072Y-141127532D01*
X84638460Y-140990859D01*
X84609600Y-140845767D01*
X84609600Y-140697833D01*
X84631407Y-140588202D01*
X84638460Y-140552741D01*
X84695071Y-140416070D01*
X84749780Y-140334192D01*
X84777260Y-140293065D01*
X84881865Y-140188460D01*
X85004868Y-140106272D01*
X85141541Y-140049660D01*
X85286632Y-140020800D01*
X85434568Y-140020800D01*
X85579659Y-140049660D01*
G37*
G36*
X91579659Y-140049660D02*
G01*
X91716332Y-140106272D01*
X91839335Y-140188460D01*
X91943940Y-140293065D01*
X91971420Y-140334192D01*
X92026129Y-140416070D01*
X92082740Y-140552741D01*
X92089794Y-140588202D01*
X92111600Y-140697833D01*
X92111600Y-140845767D01*
X92082740Y-140990859D01*
X92026128Y-141127532D01*
X91943940Y-141250535D01*
X91839335Y-141355140D01*
X91716332Y-141437328D01*
X91716331Y-141437329D01*
X91716330Y-141437329D01*
X91579659Y-141493940D01*
X91434568Y-141522800D01*
X91286632Y-141522800D01*
X91141541Y-141493940D01*
X91004870Y-141437329D01*
X91004869Y-141437329D01*
X91004868Y-141437328D01*
X90881865Y-141355140D01*
X90777260Y-141250535D01*
X90695072Y-141127532D01*
X90638460Y-140990859D01*
X90609600Y-140845767D01*
X90609600Y-140697833D01*
X90631407Y-140588202D01*
X90638460Y-140552741D01*
X90695071Y-140416070D01*
X90749780Y-140334192D01*
X90777260Y-140293065D01*
X90881865Y-140188460D01*
X91004868Y-140106272D01*
X91141541Y-140049660D01*
X91286632Y-140020800D01*
X91434568Y-140020800D01*
X91579659Y-140049660D01*
G37*
G36*
X17303717Y-138088443D02*
G01*
X17403592Y-138108309D01*
X17520499Y-138156734D01*
X17685831Y-138225216D01*
X17939841Y-138394940D01*
X18155860Y-138610959D01*
X18325584Y-138864969D01*
X18394066Y-139030301D01*
X18442491Y-139147208D01*
X18502090Y-139446833D01*
X18502090Y-139752327D01*
X18448688Y-140020800D01*
X18442491Y-140051951D01*
X18325584Y-140334191D01*
X18155860Y-140588201D01*
X17939841Y-140804220D01*
X17685831Y-140973944D01*
X17520499Y-141042426D01*
X17403592Y-141090851D01*
X17303717Y-141110717D01*
X17103969Y-141150450D01*
X16798471Y-141150450D01*
X16598723Y-141110717D01*
X16498848Y-141090851D01*
X16381941Y-141042426D01*
X16216609Y-140973944D01*
X15962599Y-140804220D01*
X15746580Y-140588201D01*
X15576856Y-140334191D01*
X15459949Y-140051951D01*
X15453753Y-140020800D01*
X15400350Y-139752327D01*
X15400350Y-139446833D01*
X15459949Y-139147208D01*
X15508374Y-139030301D01*
X15576856Y-138864969D01*
X15746580Y-138610959D01*
X15962599Y-138394940D01*
X16216609Y-138225216D01*
X16381941Y-138156734D01*
X16498848Y-138108309D01*
X16598723Y-138088443D01*
X16798471Y-138048710D01*
X17103969Y-138048710D01*
X17303717Y-138088443D01*
G37*
G36*
X111401000Y-138251000D02*
G01*
X109799000Y-138251000D01*
X109799000Y-134549000D01*
X111401000Y-134549000D01*
X111401000Y-138251000D01*
G37*
G36*
X108801000Y-138251000D02*
G01*
X107199000Y-138251000D01*
X107199000Y-134549000D01*
X108801000Y-134549000D01*
X108801000Y-138251000D01*
G37*
G36*
X140646728Y-134517903D02*
G01*
X140801600Y-134582053D01*
X140940981Y-134675185D01*
X141059515Y-134793719D01*
X141152647Y-134933100D01*
X141216797Y-135087972D01*
X141249500Y-135252384D01*
X141249500Y-135420016D01*
X141216797Y-135584428D01*
X141152647Y-135739300D01*
X141059515Y-135878681D01*
X140940981Y-135997215D01*
X140801600Y-136090347D01*
X140646728Y-136154497D01*
X140482316Y-136187200D01*
X140314684Y-136187200D01*
X140150272Y-136154497D01*
X139995400Y-136090347D01*
X139856019Y-135997215D01*
X139737485Y-135878681D01*
X139644353Y-135739300D01*
X139580203Y-135584428D01*
X139547500Y-135420016D01*
X139547500Y-135252384D01*
X139580203Y-135087972D01*
X139644353Y-134933100D01*
X139737485Y-134793719D01*
X139856019Y-134675185D01*
X139995400Y-134582053D01*
X140150272Y-134517903D01*
X140314684Y-134485200D01*
X140482316Y-134485200D01*
X140646728Y-134517903D01*
G37*
G36*
X135566728Y-134517903D02*
G01*
X135721600Y-134582053D01*
X135860981Y-134675185D01*
X135979515Y-134793719D01*
X136072647Y-134933100D01*
X136136797Y-135087972D01*
X136169500Y-135252384D01*
X136169500Y-135420016D01*
X136136797Y-135584428D01*
X136072647Y-135739300D01*
X135979515Y-135878681D01*
X135860981Y-135997215D01*
X135721600Y-136090347D01*
X135566728Y-136154497D01*
X135402316Y-136187200D01*
X135234684Y-136187200D01*
X135070272Y-136154497D01*
X134915400Y-136090347D01*
X134776019Y-135997215D01*
X134657485Y-135878681D01*
X134564353Y-135739300D01*
X134500203Y-135584428D01*
X134467500Y-135420016D01*
X134467500Y-135252384D01*
X134500203Y-135087972D01*
X134564353Y-134933100D01*
X134657485Y-134793719D01*
X134776019Y-134675185D01*
X134915400Y-134582053D01*
X135070272Y-134517903D01*
X135234684Y-134485200D01*
X135402316Y-134485200D01*
X135566728Y-134517903D01*
G37*
G36*
X138106728Y-134517903D02*
G01*
X138261600Y-134582053D01*
X138400981Y-134675185D01*
X138519515Y-134793719D01*
X138612647Y-134933100D01*
X138676797Y-135087972D01*
X138709500Y-135252384D01*
X138709500Y-135420016D01*
X138676797Y-135584428D01*
X138612647Y-135739300D01*
X138519515Y-135878681D01*
X138400981Y-135997215D01*
X138261600Y-136090347D01*
X138106728Y-136154497D01*
X137942316Y-136187200D01*
X137774684Y-136187200D01*
X137610272Y-136154497D01*
X137455400Y-136090347D01*
X137316019Y-135997215D01*
X137197485Y-135878681D01*
X137104353Y-135739300D01*
X137040203Y-135584428D01*
X137007500Y-135420016D01*
X137007500Y-135252384D01*
X137040203Y-135087972D01*
X137104353Y-134933100D01*
X137197485Y-134793719D01*
X137316019Y-134675185D01*
X137455400Y-134582053D01*
X137610272Y-134517903D01*
X137774684Y-134485200D01*
X137942316Y-134485200D01*
X138106728Y-134517903D01*
G37*
G36*
X143186728Y-134517903D02*
G01*
X143341600Y-134582053D01*
X143480981Y-134675185D01*
X143599515Y-134793719D01*
X143692647Y-134933100D01*
X143756797Y-135087972D01*
X143789500Y-135252384D01*
X143789500Y-135420016D01*
X143756797Y-135584428D01*
X143692647Y-135739300D01*
X143599515Y-135878681D01*
X143480981Y-135997215D01*
X143341600Y-136090347D01*
X143186728Y-136154497D01*
X143022316Y-136187200D01*
X142854684Y-136187200D01*
X142690272Y-136154497D01*
X142535400Y-136090347D01*
X142396019Y-135997215D01*
X142277485Y-135878681D01*
X142184353Y-135739300D01*
X142120203Y-135584428D01*
X142087500Y-135420016D01*
X142087500Y-135252384D01*
X142120203Y-135087972D01*
X142184353Y-134933100D01*
X142277485Y-134793719D01*
X142396019Y-134675185D01*
X142535400Y-134582053D01*
X142690272Y-134517903D01*
X142854684Y-134485200D01*
X143022316Y-134485200D01*
X143186728Y-134517903D01*
G37*
G36*
X146329500Y-136187200D02*
G01*
X144627500Y-136187200D01*
X144627500Y-134485200D01*
X146329500Y-134485200D01*
X146329500Y-136187200D01*
G37*
G36*
X99893512Y-132303927D02*
G01*
X100042812Y-132333624D01*
X100206784Y-132401544D01*
X100354354Y-132500147D01*
X100479853Y-132625646D01*
X100578456Y-132773216D01*
X100646376Y-132937188D01*
X100681000Y-133111259D01*
X100681000Y-133288741D01*
X100646376Y-133462812D01*
X100578456Y-133626784D01*
X100479853Y-133774354D01*
X100354354Y-133899853D01*
X100206784Y-133998456D01*
X100042812Y-134066376D01*
X99893512Y-134096073D01*
X99868742Y-134101000D01*
X99691258Y-134101000D01*
X99666488Y-134096073D01*
X99517188Y-134066376D01*
X99353216Y-133998456D01*
X99205646Y-133899853D01*
X99080147Y-133774354D01*
X98981544Y-133626784D01*
X98913624Y-133462812D01*
X98879000Y-133288741D01*
X98879000Y-133111259D01*
X98913624Y-132937188D01*
X98981544Y-132773216D01*
X99080147Y-132625646D01*
X99205646Y-132500147D01*
X99353216Y-132401544D01*
X99517188Y-132333624D01*
X99666488Y-132303927D01*
X99691258Y-132299000D01*
X99868742Y-132299000D01*
X99893512Y-132303927D01*
G37*
G36*
X97353512Y-132303927D02*
G01*
X97502812Y-132333624D01*
X97666784Y-132401544D01*
X97814354Y-132500147D01*
X97939853Y-132625646D01*
X98038456Y-132773216D01*
X98106376Y-132937188D01*
X98141000Y-133111259D01*
X98141000Y-133288741D01*
X98106376Y-133462812D01*
X98038456Y-133626784D01*
X97939853Y-133774354D01*
X97814354Y-133899853D01*
X97666784Y-133998456D01*
X97502812Y-134066376D01*
X97353512Y-134096073D01*
X97328742Y-134101000D01*
X97151258Y-134101000D01*
X97126488Y-134096073D01*
X96977188Y-134066376D01*
X96813216Y-133998456D01*
X96665646Y-133899853D01*
X96540147Y-133774354D01*
X96441544Y-133626784D01*
X96373624Y-133462812D01*
X96339000Y-133288741D01*
X96339000Y-133111259D01*
X96373624Y-132937188D01*
X96441544Y-132773216D01*
X96540147Y-132625646D01*
X96665646Y-132500147D01*
X96813216Y-132401544D01*
X96977188Y-132333624D01*
X97126488Y-132303927D01*
X97151258Y-132299000D01*
X97328742Y-132299000D01*
X97353512Y-132303927D01*
G37*
G36*
X95601000Y-134101000D02*
G01*
X93799000Y-134101000D01*
X93799000Y-132299000D01*
X95601000Y-132299000D01*
X95601000Y-134101000D01*
G37*
G36*
X145726728Y-131977903D02*
G01*
X145881600Y-132042053D01*
X146020981Y-132135185D01*
X146139515Y-132253719D01*
X146232647Y-132393100D01*
X146296797Y-132547972D01*
X146329500Y-132712384D01*
X146329500Y-132880016D01*
X146296797Y-133044428D01*
X146232647Y-133199300D01*
X146139515Y-133338681D01*
X146020981Y-133457215D01*
X145881600Y-133550347D01*
X145726728Y-133614497D01*
X145562316Y-133647200D01*
X145394684Y-133647200D01*
X145230272Y-133614497D01*
X145075400Y-133550347D01*
X144936019Y-133457215D01*
X144817485Y-133338681D01*
X144724353Y-133199300D01*
X144660203Y-133044428D01*
X144627500Y-132880016D01*
X144627500Y-132712384D01*
X144660203Y-132547972D01*
X144724353Y-132393100D01*
X144817485Y-132253719D01*
X144936019Y-132135185D01*
X145075400Y-132042053D01*
X145230272Y-131977903D01*
X145394684Y-131945200D01*
X145562316Y-131945200D01*
X145726728Y-131977903D01*
G37*
G36*
X140646728Y-131977903D02*
G01*
X140801600Y-132042053D01*
X140940981Y-132135185D01*
X141059515Y-132253719D01*
X141152647Y-132393100D01*
X141216797Y-132547972D01*
X141249500Y-132712384D01*
X141249500Y-132880016D01*
X141216797Y-133044428D01*
X141152647Y-133199300D01*
X141059515Y-133338681D01*
X140940981Y-133457215D01*
X140801600Y-133550347D01*
X140646728Y-133614497D01*
X140482316Y-133647200D01*
X140314684Y-133647200D01*
X140150272Y-133614497D01*
X139995400Y-133550347D01*
X139856019Y-133457215D01*
X139737485Y-133338681D01*
X139644353Y-133199300D01*
X139580203Y-133044428D01*
X139547500Y-132880016D01*
X139547500Y-132712384D01*
X139580203Y-132547972D01*
X139644353Y-132393100D01*
X139737485Y-132253719D01*
X139856019Y-132135185D01*
X139995400Y-132042053D01*
X140150272Y-131977903D01*
X140314684Y-131945200D01*
X140482316Y-131945200D01*
X140646728Y-131977903D01*
G37*
G36*
X138106728Y-131977903D02*
G01*
X138261600Y-132042053D01*
X138400981Y-132135185D01*
X138519515Y-132253719D01*
X138612647Y-132393100D01*
X138676797Y-132547972D01*
X138709500Y-132712384D01*
X138709500Y-132880016D01*
X138676797Y-133044428D01*
X138612647Y-133199300D01*
X138519515Y-133338681D01*
X138400981Y-133457215D01*
X138261600Y-133550347D01*
X138106728Y-133614497D01*
X137942316Y-133647200D01*
X137774684Y-133647200D01*
X137610272Y-133614497D01*
X137455400Y-133550347D01*
X137316019Y-133457215D01*
X137197485Y-133338681D01*
X137104353Y-133199300D01*
X137040203Y-133044428D01*
X137007500Y-132880016D01*
X137007500Y-132712384D01*
X137040203Y-132547972D01*
X137104353Y-132393100D01*
X137197485Y-132253719D01*
X137316019Y-132135185D01*
X137455400Y-132042053D01*
X137610272Y-131977903D01*
X137774684Y-131945200D01*
X137942316Y-131945200D01*
X138106728Y-131977903D01*
G37*
G36*
X143186728Y-131977903D02*
G01*
X143341600Y-132042053D01*
X143480981Y-132135185D01*
X143599515Y-132253719D01*
X143692647Y-132393100D01*
X143756797Y-132547972D01*
X143789500Y-132712384D01*
X143789500Y-132880016D01*
X143756797Y-133044428D01*
X143692647Y-133199300D01*
X143599515Y-133338681D01*
X143480981Y-133457215D01*
X143341600Y-133550347D01*
X143186728Y-133614497D01*
X143022316Y-133647200D01*
X142854684Y-133647200D01*
X142690272Y-133614497D01*
X142535400Y-133550347D01*
X142396019Y-133457215D01*
X142277485Y-133338681D01*
X142184353Y-133199300D01*
X142120203Y-133044428D01*
X142087500Y-132880016D01*
X142087500Y-132712384D01*
X142120203Y-132547972D01*
X142184353Y-132393100D01*
X142277485Y-132253719D01*
X142396019Y-132135185D01*
X142535400Y-132042053D01*
X142690272Y-131977903D01*
X142854684Y-131945200D01*
X143022316Y-131945200D01*
X143186728Y-131977903D01*
G37*
G36*
X135566728Y-131977903D02*
G01*
X135721600Y-132042053D01*
X135860981Y-132135185D01*
X135979515Y-132253719D01*
X136072647Y-132393100D01*
X136136797Y-132547972D01*
X136169500Y-132712384D01*
X136169500Y-132880016D01*
X136136797Y-133044428D01*
X136072647Y-133199300D01*
X135979515Y-133338681D01*
X135860981Y-133457215D01*
X135721600Y-133550347D01*
X135566728Y-133614497D01*
X135402316Y-133647200D01*
X135234684Y-133647200D01*
X135070272Y-133614497D01*
X134915400Y-133550347D01*
X134776019Y-133457215D01*
X134657485Y-133338681D01*
X134564353Y-133199300D01*
X134500203Y-133044428D01*
X134467500Y-132880016D01*
X134467500Y-132712384D01*
X134500203Y-132547972D01*
X134564353Y-132393100D01*
X134657485Y-132253719D01*
X134776019Y-132135185D01*
X134915400Y-132042053D01*
X135070272Y-131977903D01*
X135234684Y-131945200D01*
X135402316Y-131945200D01*
X135566728Y-131977903D01*
G37*
G36*
X88600721Y-132370174D02*
G01*
X88700995Y-132411709D01*
X88700996Y-132411710D01*
X88791242Y-132472010D01*
X88867990Y-132548758D01*
X88867991Y-132548760D01*
X88928291Y-132639005D01*
X88969826Y-132739279D01*
X88991000Y-132845730D01*
X88991000Y-132954270D01*
X88969826Y-133060721D01*
X88928291Y-133160995D01*
X88928290Y-133160996D01*
X88867990Y-133251242D01*
X88791242Y-133327990D01*
X88745812Y-133358345D01*
X88700995Y-133388291D01*
X88600721Y-133429826D01*
X88494270Y-133451000D01*
X88385730Y-133451000D01*
X88279279Y-133429826D01*
X88179005Y-133388291D01*
X88134188Y-133358345D01*
X88088758Y-133327990D01*
X88012010Y-133251242D01*
X87951710Y-133160996D01*
X87951709Y-133160995D01*
X87910174Y-133060721D01*
X87889000Y-132954270D01*
X87889000Y-132845730D01*
X87910174Y-132739279D01*
X87951709Y-132639005D01*
X88012009Y-132548760D01*
X88012010Y-132548758D01*
X88088758Y-132472010D01*
X88179004Y-132411710D01*
X88179005Y-132411709D01*
X88279279Y-132370174D01*
X88385730Y-132349000D01*
X88494270Y-132349000D01*
X88600721Y-132370174D01*
G37*
G36*
X80482585Y-128378802D02*
G01*
X80632410Y-128408604D01*
X80914674Y-128525521D01*
X81168705Y-128695259D01*
X81384741Y-128911295D01*
X81554479Y-129165326D01*
X81671396Y-129447590D01*
X81691031Y-129546300D01*
X81731000Y-129747239D01*
X81731000Y-130052761D01*
X81727609Y-130069807D01*
X81671396Y-130352410D01*
X81554479Y-130634674D01*
X81384741Y-130888705D01*
X81168705Y-131104741D01*
X80914674Y-131274479D01*
X80632410Y-131391396D01*
X80482585Y-131421198D01*
X80332761Y-131451000D01*
X80027239Y-131451000D01*
X79877415Y-131421198D01*
X79727590Y-131391396D01*
X79445326Y-131274479D01*
X79191295Y-131104741D01*
X78975259Y-130888705D01*
X78805521Y-130634674D01*
X78688604Y-130352410D01*
X78632391Y-130069807D01*
X78629000Y-130052761D01*
X78629000Y-129747239D01*
X78668969Y-129546300D01*
X78688604Y-129447590D01*
X78805521Y-129165326D01*
X78975259Y-128911295D01*
X79191295Y-128695259D01*
X79445326Y-128525521D01*
X79727590Y-128408604D01*
X79877415Y-128378802D01*
X80027239Y-128349000D01*
X80332761Y-128349000D01*
X80482585Y-128378802D01*
G37*
G36*
X87733642Y-129129781D02*
G01*
X87857208Y-129180964D01*
X87879416Y-129190163D01*
X88010608Y-129277822D01*
X88122178Y-129389392D01*
X88185475Y-129484124D01*
X88209838Y-129520586D01*
X88270219Y-129666358D01*
X88301000Y-129821107D01*
X88301000Y-129978893D01*
X88270219Y-130133642D01*
X88211761Y-130274771D01*
X88209837Y-130279416D01*
X88122178Y-130410608D01*
X88010608Y-130522178D01*
X87879416Y-130609837D01*
X87879415Y-130609838D01*
X87879414Y-130609838D01*
X87733642Y-130670219D01*
X87578893Y-130701000D01*
X87421107Y-130701000D01*
X87266358Y-130670219D01*
X87120586Y-130609838D01*
X87120585Y-130609838D01*
X87120584Y-130609837D01*
X86989392Y-130522178D01*
X86877822Y-130410608D01*
X86790163Y-130279416D01*
X86788239Y-130274771D01*
X86729781Y-130133642D01*
X86699000Y-129978893D01*
X86699000Y-129821107D01*
X86729781Y-129666358D01*
X86790162Y-129520586D01*
X86814525Y-129484124D01*
X86877822Y-129389392D01*
X86989392Y-129277822D01*
X87120584Y-129190163D01*
X87142792Y-129180964D01*
X87266358Y-129129781D01*
X87421107Y-129099000D01*
X87578893Y-129099000D01*
X87733642Y-129129781D01*
G37*
G36*
X85153048Y-129103122D02*
G01*
X85187387Y-129113539D01*
X85219036Y-129130456D01*
X85246778Y-129153222D01*
X85269544Y-129180964D01*
X85286461Y-129212613D01*
X85296878Y-129246952D01*
X85301000Y-129288807D01*
X85301000Y-130511193D01*
X85296878Y-130553048D01*
X85286461Y-130587387D01*
X85269544Y-130619036D01*
X85246778Y-130646778D01*
X85219036Y-130669544D01*
X85187387Y-130686461D01*
X85153048Y-130696878D01*
X85111193Y-130701000D01*
X83888807Y-130701000D01*
X83846952Y-130696878D01*
X83812613Y-130686461D01*
X83780964Y-130669544D01*
X83753222Y-130646778D01*
X83730456Y-130619036D01*
X83713539Y-130587387D01*
X83703122Y-130553048D01*
X83699000Y-130511193D01*
X83699000Y-129288807D01*
X83703122Y-129246952D01*
X83713539Y-129212613D01*
X83730456Y-129180964D01*
X83753222Y-129153222D01*
X83780964Y-129130456D01*
X83812613Y-129113539D01*
X83846952Y-129103122D01*
X83888807Y-129099000D01*
X85111193Y-129099000D01*
X85153048Y-129103122D01*
G37*
G36*
X99246578Y-129480197D02*
G01*
X99299350Y-129490694D01*
X99398770Y-129531875D01*
X99488246Y-129591661D01*
X99564339Y-129667754D01*
X99624125Y-129757230D01*
X99665306Y-129856650D01*
X99686300Y-129962194D01*
X99686300Y-130069806D01*
X99665306Y-130175350D01*
X99624125Y-130274770D01*
X99564339Y-130364246D01*
X99488246Y-130440339D01*
X99398770Y-130500125D01*
X99299350Y-130541306D01*
X99246578Y-130551803D01*
X99193807Y-130562300D01*
X99086193Y-130562300D01*
X99033422Y-130551803D01*
X98980650Y-130541306D01*
X98881230Y-130500125D01*
X98791754Y-130440339D01*
X98715661Y-130364246D01*
X98655875Y-130274770D01*
X98614694Y-130175350D01*
X98593700Y-130069806D01*
X98593700Y-129962194D01*
X98614694Y-129856650D01*
X98655875Y-129757230D01*
X98715661Y-129667754D01*
X98791754Y-129591661D01*
X98881230Y-129531875D01*
X98980650Y-129490694D01*
X99033422Y-129480197D01*
X99086193Y-129469700D01*
X99193807Y-129469700D01*
X99246578Y-129480197D01*
G37*
G36*
X152601000Y-129901000D02*
G01*
X150799000Y-129901000D01*
X150799000Y-128099000D01*
X152601000Y-128099000D01*
X152601000Y-129901000D01*
G37*
G36*
X94159610Y-128462811D02*
G01*
X94219350Y-128474694D01*
X94318770Y-128515875D01*
X94408246Y-128575661D01*
X94484339Y-128651754D01*
X94544125Y-128741230D01*
X94585306Y-128840650D01*
X94606300Y-128946194D01*
X94606300Y-129053806D01*
X94585306Y-129159350D01*
X94544125Y-129258770D01*
X94484339Y-129348246D01*
X94408246Y-129424339D01*
X94318770Y-129484125D01*
X94219350Y-129525306D01*
X94186325Y-129531875D01*
X94113807Y-129546300D01*
X94006193Y-129546300D01*
X93933675Y-129531875D01*
X93900650Y-129525306D01*
X93801230Y-129484125D01*
X93711754Y-129424339D01*
X93635661Y-129348246D01*
X93575875Y-129258770D01*
X93534694Y-129159350D01*
X93513700Y-129053806D01*
X93513700Y-128946194D01*
X93534694Y-128840650D01*
X93575875Y-128741230D01*
X93635661Y-128651754D01*
X93711754Y-128575661D01*
X93801230Y-128515875D01*
X93900650Y-128474694D01*
X93960390Y-128462811D01*
X94006193Y-128453700D01*
X94113807Y-128453700D01*
X94159610Y-128462811D01*
G37*
G36*
X110633512Y-127303927D02*
G01*
X110782812Y-127333624D01*
X110946784Y-127401544D01*
X111094354Y-127500147D01*
X111219853Y-127625646D01*
X111318456Y-127773216D01*
X111386376Y-127937188D01*
X111421000Y-128111259D01*
X111421000Y-128288741D01*
X111386376Y-128462812D01*
X111318456Y-128626784D01*
X111219853Y-128774354D01*
X111094354Y-128899853D01*
X110946784Y-128998456D01*
X110782812Y-129066376D01*
X110633512Y-129096073D01*
X110608742Y-129101000D01*
X110431258Y-129101000D01*
X110406488Y-129096073D01*
X110257188Y-129066376D01*
X110093216Y-128998456D01*
X109945646Y-128899853D01*
X109820147Y-128774354D01*
X109721544Y-128626784D01*
X109653624Y-128462812D01*
X109619000Y-128288741D01*
X109619000Y-128111259D01*
X109653624Y-127937188D01*
X109721544Y-127773216D01*
X109820147Y-127625646D01*
X109945646Y-127500147D01*
X110093216Y-127401544D01*
X110257188Y-127333624D01*
X110406488Y-127303927D01*
X110431258Y-127299000D01*
X110608742Y-127299000D01*
X110633512Y-127303927D01*
G37*
G36*
X103013512Y-127303927D02*
G01*
X103162812Y-127333624D01*
X103326784Y-127401544D01*
X103474354Y-127500147D01*
X103599853Y-127625646D01*
X103698456Y-127773216D01*
X103766376Y-127937188D01*
X103801000Y-128111259D01*
X103801000Y-128288741D01*
X103766376Y-128462812D01*
X103698456Y-128626784D01*
X103599853Y-128774354D01*
X103474354Y-128899853D01*
X103326784Y-128998456D01*
X103162812Y-129066376D01*
X103013512Y-129096073D01*
X102988742Y-129101000D01*
X102811258Y-129101000D01*
X102786488Y-129096073D01*
X102637188Y-129066376D01*
X102473216Y-128998456D01*
X102325646Y-128899853D01*
X102200147Y-128774354D01*
X102101544Y-128626784D01*
X102033624Y-128462812D01*
X101999000Y-128288741D01*
X101999000Y-128111259D01*
X102033624Y-127937188D01*
X102101544Y-127773216D01*
X102200147Y-127625646D01*
X102325646Y-127500147D01*
X102473216Y-127401544D01*
X102637188Y-127333624D01*
X102786488Y-127303927D01*
X102811258Y-127299000D01*
X102988742Y-127299000D01*
X103013512Y-127303927D01*
G37*
G36*
X105553512Y-127303927D02*
G01*
X105702812Y-127333624D01*
X105866784Y-127401544D01*
X106014354Y-127500147D01*
X106139853Y-127625646D01*
X106238456Y-127773216D01*
X106306376Y-127937188D01*
X106341000Y-128111259D01*
X106341000Y-128288741D01*
X106306376Y-128462812D01*
X106238456Y-128626784D01*
X106139853Y-128774354D01*
X106014354Y-128899853D01*
X105866784Y-128998456D01*
X105702812Y-129066376D01*
X105553512Y-129096073D01*
X105528742Y-129101000D01*
X105351258Y-129101000D01*
X105326488Y-129096073D01*
X105177188Y-129066376D01*
X105013216Y-128998456D01*
X104865646Y-128899853D01*
X104740147Y-128774354D01*
X104641544Y-128626784D01*
X104573624Y-128462812D01*
X104539000Y-128288741D01*
X104539000Y-128111259D01*
X104573624Y-127937188D01*
X104641544Y-127773216D01*
X104740147Y-127625646D01*
X104865646Y-127500147D01*
X105013216Y-127401544D01*
X105177188Y-127333624D01*
X105326488Y-127303927D01*
X105351258Y-127299000D01*
X105528742Y-127299000D01*
X105553512Y-127303927D01*
G37*
G36*
X108093512Y-127303927D02*
G01*
X108242812Y-127333624D01*
X108406784Y-127401544D01*
X108554354Y-127500147D01*
X108679853Y-127625646D01*
X108778456Y-127773216D01*
X108846376Y-127937188D01*
X108881000Y-128111259D01*
X108881000Y-128288741D01*
X108846376Y-128462812D01*
X108778456Y-128626784D01*
X108679853Y-128774354D01*
X108554354Y-128899853D01*
X108406784Y-128998456D01*
X108242812Y-129066376D01*
X108093512Y-129096073D01*
X108068742Y-129101000D01*
X107891258Y-129101000D01*
X107866488Y-129096073D01*
X107717188Y-129066376D01*
X107553216Y-128998456D01*
X107405646Y-128899853D01*
X107280147Y-128774354D01*
X107181544Y-128626784D01*
X107113624Y-128462812D01*
X107079000Y-128288741D01*
X107079000Y-128111259D01*
X107113624Y-127937188D01*
X107181544Y-127773216D01*
X107280147Y-127625646D01*
X107405646Y-127500147D01*
X107553216Y-127401544D01*
X107717188Y-127333624D01*
X107866488Y-127303927D01*
X107891258Y-127299000D01*
X108068742Y-127299000D01*
X108093512Y-127303927D01*
G37*
G36*
X113173512Y-127303927D02*
G01*
X113322812Y-127333624D01*
X113486784Y-127401544D01*
X113634354Y-127500147D01*
X113759853Y-127625646D01*
X113858456Y-127773216D01*
X113926376Y-127937188D01*
X113961000Y-128111259D01*
X113961000Y-128288741D01*
X113926376Y-128462812D01*
X113858456Y-128626784D01*
X113759853Y-128774354D01*
X113634354Y-128899853D01*
X113486784Y-128998456D01*
X113322812Y-129066376D01*
X113173512Y-129096073D01*
X113148742Y-129101000D01*
X112971258Y-129101000D01*
X112946488Y-129096073D01*
X112797188Y-129066376D01*
X112633216Y-128998456D01*
X112485646Y-128899853D01*
X112360147Y-128774354D01*
X112261544Y-128626784D01*
X112193624Y-128462812D01*
X112159000Y-128288741D01*
X112159000Y-128111259D01*
X112193624Y-127937188D01*
X112261544Y-127773216D01*
X112360147Y-127625646D01*
X112485646Y-127500147D01*
X112633216Y-127401544D01*
X112797188Y-127333624D01*
X112946488Y-127303927D01*
X112971258Y-127299000D01*
X113148742Y-127299000D01*
X113173512Y-127303927D01*
G37*
G36*
X116501000Y-129101000D02*
G01*
X114699000Y-129101000D01*
X114699000Y-127299000D01*
X116501000Y-127299000D01*
X116501000Y-129101000D01*
G37*
G36*
X99246578Y-127448197D02*
G01*
X99299350Y-127458694D01*
X99398770Y-127499875D01*
X99488246Y-127559661D01*
X99564339Y-127635754D01*
X99624125Y-127725230D01*
X99665306Y-127824650D01*
X99686300Y-127930194D01*
X99686300Y-128037806D01*
X99665306Y-128143350D01*
X99624125Y-128242770D01*
X99564339Y-128332246D01*
X99488246Y-128408339D01*
X99398770Y-128468125D01*
X99299350Y-128509306D01*
X99266325Y-128515875D01*
X99193807Y-128530300D01*
X99086193Y-128530300D01*
X99013675Y-128515875D01*
X98980650Y-128509306D01*
X98881230Y-128468125D01*
X98791754Y-128408339D01*
X98715661Y-128332246D01*
X98655875Y-128242770D01*
X98614694Y-128143350D01*
X98593700Y-128037806D01*
X98593700Y-127930194D01*
X98614694Y-127824650D01*
X98655875Y-127725230D01*
X98715661Y-127635754D01*
X98791754Y-127559661D01*
X98881230Y-127499875D01*
X98980650Y-127458694D01*
X99033422Y-127448197D01*
X99086193Y-127437700D01*
X99193807Y-127437700D01*
X99246578Y-127448197D01*
G37*
G36*
X17303717Y-124489283D02*
G01*
X17403592Y-124509149D01*
X17520499Y-124557574D01*
X17685831Y-124626056D01*
X17939841Y-124795780D01*
X18155860Y-125011799D01*
X18325584Y-125265809D01*
X18361687Y-125352971D01*
X18442491Y-125548048D01*
X18502090Y-125847673D01*
X18502090Y-126153167D01*
X18442491Y-126452792D01*
X18402740Y-126548758D01*
X18325584Y-126735031D01*
X18155860Y-126989041D01*
X17939841Y-127205060D01*
X17685831Y-127374784D01*
X17520499Y-127443266D01*
X17403592Y-127491691D01*
X17303717Y-127511557D01*
X17103969Y-127551290D01*
X16798471Y-127551290D01*
X16598723Y-127511557D01*
X16498848Y-127491691D01*
X16381941Y-127443266D01*
X16216609Y-127374784D01*
X15962599Y-127205060D01*
X15746580Y-126989041D01*
X15576856Y-126735031D01*
X15499700Y-126548758D01*
X15459949Y-126452792D01*
X15400350Y-126153167D01*
X15400350Y-125847673D01*
X15459949Y-125548048D01*
X15540753Y-125352971D01*
X15576856Y-125265809D01*
X15746580Y-125011799D01*
X15962599Y-124795780D01*
X16216609Y-124626056D01*
X16381941Y-124557574D01*
X16498848Y-124509149D01*
X16598723Y-124489283D01*
X16798471Y-124449550D01*
X17103969Y-124449550D01*
X17303717Y-124489283D01*
G37*
G36*
X88600721Y-126370174D02*
G01*
X88700995Y-126411709D01*
X88700996Y-126411710D01*
X88791242Y-126472010D01*
X88867990Y-126548758D01*
X88867991Y-126548760D01*
X88928291Y-126639005D01*
X88969826Y-126739279D01*
X88991000Y-126845730D01*
X88991000Y-126954270D01*
X88969826Y-127060721D01*
X88928291Y-127160995D01*
X88928290Y-127160996D01*
X88867990Y-127251242D01*
X88791242Y-127327990D01*
X88745812Y-127358345D01*
X88700995Y-127388291D01*
X88600721Y-127429826D01*
X88494270Y-127451000D01*
X88385730Y-127451000D01*
X88279279Y-127429826D01*
X88179005Y-127388291D01*
X88134188Y-127358345D01*
X88088758Y-127327990D01*
X88012010Y-127251242D01*
X87951710Y-127160996D01*
X87951709Y-127160995D01*
X87910174Y-127060721D01*
X87889000Y-126954270D01*
X87889000Y-126845730D01*
X87910174Y-126739279D01*
X87951709Y-126639005D01*
X88012009Y-126548760D01*
X88012010Y-126548758D01*
X88088758Y-126472010D01*
X88179004Y-126411710D01*
X88179005Y-126411709D01*
X88279279Y-126370174D01*
X88385730Y-126349000D01*
X88494270Y-126349000D01*
X88600721Y-126370174D01*
G37*
G36*
X30801277Y-123389463D02*
G01*
X30901152Y-123409329D01*
X31018059Y-123457754D01*
X31183391Y-123526236D01*
X31437401Y-123695960D01*
X31653420Y-123911979D01*
X31823144Y-124165989D01*
X31940051Y-124448229D01*
X31999650Y-124747851D01*
X31999650Y-125053349D01*
X31940051Y-125352971D01*
X31823144Y-125635211D01*
X31653420Y-125889221D01*
X31437401Y-126105240D01*
X31183391Y-126274964D01*
X31018059Y-126343446D01*
X30901152Y-126391871D01*
X30801419Y-126411709D01*
X30601529Y-126451470D01*
X30296031Y-126451470D01*
X30096141Y-126411709D01*
X29996408Y-126391871D01*
X29879501Y-126343446D01*
X29714169Y-126274964D01*
X29460159Y-126105240D01*
X29244140Y-125889221D01*
X29074416Y-125635211D01*
X28957509Y-125352971D01*
X28897910Y-125053349D01*
X28897910Y-124747851D01*
X28957509Y-124448229D01*
X29074416Y-124165989D01*
X29244140Y-123911979D01*
X29460159Y-123695960D01*
X29714169Y-123526236D01*
X29879501Y-123457754D01*
X29996408Y-123409329D01*
X30096283Y-123389463D01*
X30296031Y-123349730D01*
X30601529Y-123349730D01*
X30801277Y-123389463D01*
G37*
M02*
