M48
; DRILL file {KiCad 5.1.5+dfsg1-2build2} date St  5. január 2022, 19:43:28
; FORMAT={-:-/ absolute / inch / decimal}
; #@! TF.CreationDate,2022-01-05T19:43:28+01:00
; #@! TF.GenerationSoftware,Kicad,Pcbnew,5.1.5+dfsg1-2build2
FMAT,2
INCH
T1C0.0118
T2C0.0157
T3C0.0197
T4C0.0276
T5C0.0300
T6C0.0394
T7C0.0402
T8C0.0453
T9C0.0697
T10C0.0390
T11C0.0394
T12C0.1181
%
G90
G05
T1
X3.126Y-5.4803
X3.126Y-5.6299
X3.252Y-5.4803
X3.3071Y-5.6969
X3.4331Y-5.3583
X3.4331Y-5.4055
X3.6575Y-5.4291
X3.7835Y-5.0157
X3.8189Y-6.4921
X3.8346Y-6.3071
X3.8661Y-6.6929
X3.9094Y-6.4921
X3.9606Y-6.4016
X3.9843Y-6.3071
X4.0354Y-6.4921
X4.0354Y-6.6929
X4.0748Y-5.4488
X4.0748Y-5.5079
X4.0748Y-5.5748
X4.126Y-5.1575
X4.1772Y-5.4291
X4.1969Y-5.4803
X4.2205Y-5.3701
X4.2677Y-5.4488
X4.2717Y-5.2598
X4.2835Y-5.3228
X4.2992Y-4.9764
X4.2992Y-5.1496
X4.3071Y-5.2598
X4.3189Y-5.5866
X4.3287Y-5.7008
X4.3307Y-5.7579
X4.3425Y-5.2598
X4.3543Y-5.4724
X4.378Y-5.3228
X4.4252Y-5.5079
X4.4331Y-5.7008
X4.4331Y-5.7598
X4.4409Y-5.1496
X4.4528Y-5.5945
X4.5276Y-5.2283
X4.5276Y-5.4409
X4.5551Y-5.5945
X4.5591Y-5.3937
X4.5709Y-5.4488
X4.5906Y-5.2835
X4.5906Y-5.3307
X4.5906Y-5.3701
X4.6142Y-5.0157
X4.6142Y-5.1496
X4.6378Y-5.252
X4.6476Y-5.5945
X4.6496Y-5.9843
X4.6693Y-5.0157
X4.6693Y-5.3858
X4.6929Y-5.2126
X4.6929Y-5.4094
X4.7165Y-6.1417
X4.7323Y-5.252
X4.7559Y-5.937
X4.7697Y-5.9941
X4.7992Y-6.0354
X4.8169Y-5.7106
X4.8169Y-5.8091
X4.8228Y-6.0118
X4.8228Y-6.0591
X4.8346Y-5.3701
X4.8504Y-5.8366
X4.872Y-5.9272
X4.8819Y-5.7106
X4.8858Y-6.1811
X4.8976Y-5.1102
X4.9075Y-5.7835
X4.937Y-5.4094
X4.9449Y-6.0906
X4.9843Y-6.1811
X5.0276Y-5.9843
X5.0276Y-6.0354
X5.0512Y-5.189
X5.0512Y-6.0079
X5.0512Y-6.063
X5.0551Y-5.5669
X5.0827Y-5.9567
X5.2126Y-5.189
X5.2126Y-5.5669
X5.37Y-6.18
X5.6535Y-5.6102
T2
X3.4764Y-5.3071
X3.4764Y-5.4803
X3.5138Y-5.3563
X3.9685Y-5.1102
X4.7008Y-5.1102
X4.8346Y-5.2835
X4.8819Y-6.3465
X4.9134Y-5.5118
X4.9843Y-5.1102
X4.9843Y-6.3465
X5.0551Y-5.4094
X5.0827Y-5.6811
X5.0827Y-5.7244
X5.0827Y-5.7677
X5.0827Y-5.811
X5.0827Y-5.8543
X5.126Y-5.6811
X5.126Y-5.7244
X5.126Y-5.7677
X5.126Y-5.811
X5.126Y-5.8543
X5.126Y-6.0709
X5.1358Y-5.5118
X5.1535Y-5.0157
X5.22Y-6.3465
X5.2598Y-5.9764
X5.2598Y-6.0236
X5.2598Y-6.0709
X5.315Y-5.9764
X5.315Y-6.0236
X5.315Y-6.0709
X5.3268Y-5.0157
X5.3268Y-5.4724
X5.4291Y-5.4724
X5.4331Y-5.9764
X5.4331Y-6.0236
X5.4331Y-6.0709
X5.4528Y-5.685
X5.4528Y-5.7244
X5.4528Y-5.8819
X5.4803Y-5.9764
X5.4803Y-6.0236
X5.4803Y-6.0709
X5.5118Y-5.685
X5.5118Y-5.7244
X5.5118Y-5.8819
X5.5276Y-5.9764
X5.5276Y-6.0236
X5.5276Y-6.0709
X5.878Y-5.4724
X6.0551Y-5.0157
X6.0551Y-5.4724
T3
X4.199Y-5.7012
X4.199Y-5.7502
T4
X3.3607Y-5.5422
X3.5969Y-5.5422
T5
X3.7761Y-6.6223
X4.0911Y-6.6223
T6
X3.3268Y-5.1142
X3.4449Y-5.1142
X4.0512Y-5.0472
X4.1512Y-5.0472
X4.2512Y-5.0472
X4.3512Y-5.0472
X4.4512Y-5.0472
X4.5512Y-5.0472
X5.6378Y-5.6929
X5.6378Y-5.811
X5.6378Y-5.9291
X5.7559Y-5.6929
X5.7559Y-5.811
X5.7559Y-5.9291
X5.9724Y-5.0472
X4.3465Y-6.274
X4.4449Y-6.274
X4.5433Y-6.274
X4.6418Y-6.274
X3.7293Y-5.2421
X3.8293Y-5.2421
X3.9293Y-5.2421
T7
X5.6378Y-5.6929
X5.6378Y-5.811
X5.6378Y-5.9291
X5.7559Y-5.6929
X5.7559Y-5.811
X5.7559Y-5.9291
X3.3268Y-5.1142
X3.4449Y-5.1142
T8
X3.013Y-5.8382
X3.013Y-5.9382
X3.013Y-6.0382
X3.013Y-6.1382
X3.013Y-6.2382
X3.013Y-6.3382
X3.118Y-5.9032
X3.118Y-6.2682
X3.218Y-5.9032
X3.218Y-6.2682
X3.318Y-5.9032
X3.318Y-6.2682
X4.313Y-6.6882
X4.788Y-6.6882
X4.9202Y-6.5291
X4.9202Y-6.6291
X5.0202Y-6.5291
X5.0202Y-6.6291
X5.1202Y-6.5291
X5.1202Y-6.6291
X5.2202Y-6.5291
X5.2202Y-6.6291
X5.3202Y-6.5291
X5.3202Y-6.6291
X5.3275Y-5.2282
X5.3275Y-5.3282
X5.4275Y-5.2282
X5.4275Y-5.3282
X5.5275Y-5.2282
X5.5275Y-5.3282
X5.6275Y-5.2282
X5.6275Y-5.3282
X5.7275Y-5.2282
X5.7275Y-5.3282
X6.063Y-6.1382
X6.063Y-6.2382
X6.063Y-6.3382
T9
X0.6674Y-4.9606
X0.6674Y-5.496
X1.1988Y-4.9173
X1.1988Y-5.5393
T10
X3.7031Y-5.0787
X3.9031Y-5.0387
X3.9031Y-5.1187
T11
X3.4819Y-4.9961
X3.4819Y-5.2323
X5.6008Y-5.5748
X5.6008Y-6.0472
T12
X5.926Y-5.811
X3.1567Y-5.1142
T0
M30
