G04 #@! TF.GenerationSoftware,KiCad,Pcbnew,5.1.5+dfsg1-2build2*
G04 #@! TF.CreationDate,2022-01-05T19:43:25+01:00*
G04 #@! TF.ProjectId,mre_addon_v2,6d72655f-6164-4646-9f6e-5f76322e6b69,V2.2*
G04 #@! TF.SameCoordinates,Original*
G04 #@! TF.FileFunction,Paste,Bot*
G04 #@! TF.FilePolarity,Positive*
%FSLAX46Y46*%
G04 Gerber Fmt 4.6, Leading zero omitted, Abs format (unit mm)*
G04 Created by KiCad (PCBNEW 5.1.5+dfsg1-2build2) date 2022-01-05 19:43:25*
%MOMM*%
%LPD*%
G04 APERTURE LIST*
%ADD10C,0.100000*%
G04 APERTURE END LIST*
D10*
G36*
X137077691Y-155376053D02*
G01*
X137098926Y-155379203D01*
X137119750Y-155384419D01*
X137139962Y-155391651D01*
X137159368Y-155400830D01*
X137177781Y-155411866D01*
X137195024Y-155424654D01*
X137210930Y-155439070D01*
X137225346Y-155454976D01*
X137238134Y-155472219D01*
X137249170Y-155490632D01*
X137258349Y-155510038D01*
X137265581Y-155530250D01*
X137270797Y-155551074D01*
X137273947Y-155572309D01*
X137275000Y-155593750D01*
X137275000Y-156031250D01*
X137273947Y-156052691D01*
X137270797Y-156073926D01*
X137265581Y-156094750D01*
X137258349Y-156114962D01*
X137249170Y-156134368D01*
X137238134Y-156152781D01*
X137225346Y-156170024D01*
X137210930Y-156185930D01*
X137195024Y-156200346D01*
X137177781Y-156213134D01*
X137159368Y-156224170D01*
X137139962Y-156233349D01*
X137119750Y-156240581D01*
X137098926Y-156245797D01*
X137077691Y-156248947D01*
X137056250Y-156250000D01*
X136543750Y-156250000D01*
X136522309Y-156248947D01*
X136501074Y-156245797D01*
X136480250Y-156240581D01*
X136460038Y-156233349D01*
X136440632Y-156224170D01*
X136422219Y-156213134D01*
X136404976Y-156200346D01*
X136389070Y-156185930D01*
X136374654Y-156170024D01*
X136361866Y-156152781D01*
X136350830Y-156134368D01*
X136341651Y-156114962D01*
X136334419Y-156094750D01*
X136329203Y-156073926D01*
X136326053Y-156052691D01*
X136325000Y-156031250D01*
X136325000Y-155593750D01*
X136326053Y-155572309D01*
X136329203Y-155551074D01*
X136334419Y-155530250D01*
X136341651Y-155510038D01*
X136350830Y-155490632D01*
X136361866Y-155472219D01*
X136374654Y-155454976D01*
X136389070Y-155439070D01*
X136404976Y-155424654D01*
X136422219Y-155411866D01*
X136440632Y-155400830D01*
X136460038Y-155391651D01*
X136480250Y-155384419D01*
X136501074Y-155379203D01*
X136522309Y-155376053D01*
X136543750Y-155375000D01*
X137056250Y-155375000D01*
X137077691Y-155376053D01*
G37*
G36*
X137077691Y-156951053D02*
G01*
X137098926Y-156954203D01*
X137119750Y-156959419D01*
X137139962Y-156966651D01*
X137159368Y-156975830D01*
X137177781Y-156986866D01*
X137195024Y-156999654D01*
X137210930Y-157014070D01*
X137225346Y-157029976D01*
X137238134Y-157047219D01*
X137249170Y-157065632D01*
X137258349Y-157085038D01*
X137265581Y-157105250D01*
X137270797Y-157126074D01*
X137273947Y-157147309D01*
X137275000Y-157168750D01*
X137275000Y-157606250D01*
X137273947Y-157627691D01*
X137270797Y-157648926D01*
X137265581Y-157669750D01*
X137258349Y-157689962D01*
X137249170Y-157709368D01*
X137238134Y-157727781D01*
X137225346Y-157745024D01*
X137210930Y-157760930D01*
X137195024Y-157775346D01*
X137177781Y-157788134D01*
X137159368Y-157799170D01*
X137139962Y-157808349D01*
X137119750Y-157815581D01*
X137098926Y-157820797D01*
X137077691Y-157823947D01*
X137056250Y-157825000D01*
X136543750Y-157825000D01*
X136522309Y-157823947D01*
X136501074Y-157820797D01*
X136480250Y-157815581D01*
X136460038Y-157808349D01*
X136440632Y-157799170D01*
X136422219Y-157788134D01*
X136404976Y-157775346D01*
X136389070Y-157760930D01*
X136374654Y-157745024D01*
X136361866Y-157727781D01*
X136350830Y-157709368D01*
X136341651Y-157689962D01*
X136334419Y-157669750D01*
X136329203Y-157648926D01*
X136326053Y-157627691D01*
X136325000Y-157606250D01*
X136325000Y-157168750D01*
X136326053Y-157147309D01*
X136329203Y-157126074D01*
X136334419Y-157105250D01*
X136341651Y-157085038D01*
X136350830Y-157065632D01*
X136361866Y-157047219D01*
X136374654Y-157029976D01*
X136389070Y-157014070D01*
X136404976Y-156999654D01*
X136422219Y-156986866D01*
X136440632Y-156975830D01*
X136460038Y-156966651D01*
X136480250Y-156959419D01*
X136501074Y-156954203D01*
X136522309Y-156951053D01*
X136543750Y-156950000D01*
X137056250Y-156950000D01*
X137077691Y-156951053D01*
G37*
G36*
X112327691Y-145826053D02*
G01*
X112348926Y-145829203D01*
X112369750Y-145834419D01*
X112389962Y-145841651D01*
X112409368Y-145850830D01*
X112427781Y-145861866D01*
X112445024Y-145874654D01*
X112460930Y-145889070D01*
X112475346Y-145904976D01*
X112488134Y-145922219D01*
X112499170Y-145940632D01*
X112508349Y-145960038D01*
X112515581Y-145980250D01*
X112520797Y-146001074D01*
X112523947Y-146022309D01*
X112525000Y-146043750D01*
X112525000Y-146556250D01*
X112523947Y-146577691D01*
X112520797Y-146598926D01*
X112515581Y-146619750D01*
X112508349Y-146639962D01*
X112499170Y-146659368D01*
X112488134Y-146677781D01*
X112475346Y-146695024D01*
X112460930Y-146710930D01*
X112445024Y-146725346D01*
X112427781Y-146738134D01*
X112409368Y-146749170D01*
X112389962Y-146758349D01*
X112369750Y-146765581D01*
X112348926Y-146770797D01*
X112327691Y-146773947D01*
X112306250Y-146775000D01*
X111868750Y-146775000D01*
X111847309Y-146773947D01*
X111826074Y-146770797D01*
X111805250Y-146765581D01*
X111785038Y-146758349D01*
X111765632Y-146749170D01*
X111747219Y-146738134D01*
X111729976Y-146725346D01*
X111714070Y-146710930D01*
X111699654Y-146695024D01*
X111686866Y-146677781D01*
X111675830Y-146659368D01*
X111666651Y-146639962D01*
X111659419Y-146619750D01*
X111654203Y-146598926D01*
X111651053Y-146577691D01*
X111650000Y-146556250D01*
X111650000Y-146043750D01*
X111651053Y-146022309D01*
X111654203Y-146001074D01*
X111659419Y-145980250D01*
X111666651Y-145960038D01*
X111675830Y-145940632D01*
X111686866Y-145922219D01*
X111699654Y-145904976D01*
X111714070Y-145889070D01*
X111729976Y-145874654D01*
X111747219Y-145861866D01*
X111765632Y-145850830D01*
X111785038Y-145841651D01*
X111805250Y-145834419D01*
X111826074Y-145829203D01*
X111847309Y-145826053D01*
X111868750Y-145825000D01*
X112306250Y-145825000D01*
X112327691Y-145826053D01*
G37*
G36*
X110752691Y-145826053D02*
G01*
X110773926Y-145829203D01*
X110794750Y-145834419D01*
X110814962Y-145841651D01*
X110834368Y-145850830D01*
X110852781Y-145861866D01*
X110870024Y-145874654D01*
X110885930Y-145889070D01*
X110900346Y-145904976D01*
X110913134Y-145922219D01*
X110924170Y-145940632D01*
X110933349Y-145960038D01*
X110940581Y-145980250D01*
X110945797Y-146001074D01*
X110948947Y-146022309D01*
X110950000Y-146043750D01*
X110950000Y-146556250D01*
X110948947Y-146577691D01*
X110945797Y-146598926D01*
X110940581Y-146619750D01*
X110933349Y-146639962D01*
X110924170Y-146659368D01*
X110913134Y-146677781D01*
X110900346Y-146695024D01*
X110885930Y-146710930D01*
X110870024Y-146725346D01*
X110852781Y-146738134D01*
X110834368Y-146749170D01*
X110814962Y-146758349D01*
X110794750Y-146765581D01*
X110773926Y-146770797D01*
X110752691Y-146773947D01*
X110731250Y-146775000D01*
X110293750Y-146775000D01*
X110272309Y-146773947D01*
X110251074Y-146770797D01*
X110230250Y-146765581D01*
X110210038Y-146758349D01*
X110190632Y-146749170D01*
X110172219Y-146738134D01*
X110154976Y-146725346D01*
X110139070Y-146710930D01*
X110124654Y-146695024D01*
X110111866Y-146677781D01*
X110100830Y-146659368D01*
X110091651Y-146639962D01*
X110084419Y-146619750D01*
X110079203Y-146598926D01*
X110076053Y-146577691D01*
X110075000Y-146556250D01*
X110075000Y-146043750D01*
X110076053Y-146022309D01*
X110079203Y-146001074D01*
X110084419Y-145980250D01*
X110091651Y-145960038D01*
X110100830Y-145940632D01*
X110111866Y-145922219D01*
X110124654Y-145904976D01*
X110139070Y-145889070D01*
X110154976Y-145874654D01*
X110172219Y-145861866D01*
X110190632Y-145850830D01*
X110210038Y-145841651D01*
X110230250Y-145834419D01*
X110251074Y-145829203D01*
X110272309Y-145826053D01*
X110293750Y-145825000D01*
X110731250Y-145825000D01*
X110752691Y-145826053D01*
G37*
G36*
X112327691Y-144326053D02*
G01*
X112348926Y-144329203D01*
X112369750Y-144334419D01*
X112389962Y-144341651D01*
X112409368Y-144350830D01*
X112427781Y-144361866D01*
X112445024Y-144374654D01*
X112460930Y-144389070D01*
X112475346Y-144404976D01*
X112488134Y-144422219D01*
X112499170Y-144440632D01*
X112508349Y-144460038D01*
X112515581Y-144480250D01*
X112520797Y-144501074D01*
X112523947Y-144522309D01*
X112525000Y-144543750D01*
X112525000Y-145056250D01*
X112523947Y-145077691D01*
X112520797Y-145098926D01*
X112515581Y-145119750D01*
X112508349Y-145139962D01*
X112499170Y-145159368D01*
X112488134Y-145177781D01*
X112475346Y-145195024D01*
X112460930Y-145210930D01*
X112445024Y-145225346D01*
X112427781Y-145238134D01*
X112409368Y-145249170D01*
X112389962Y-145258349D01*
X112369750Y-145265581D01*
X112348926Y-145270797D01*
X112327691Y-145273947D01*
X112306250Y-145275000D01*
X111868750Y-145275000D01*
X111847309Y-145273947D01*
X111826074Y-145270797D01*
X111805250Y-145265581D01*
X111785038Y-145258349D01*
X111765632Y-145249170D01*
X111747219Y-145238134D01*
X111729976Y-145225346D01*
X111714070Y-145210930D01*
X111699654Y-145195024D01*
X111686866Y-145177781D01*
X111675830Y-145159368D01*
X111666651Y-145139962D01*
X111659419Y-145119750D01*
X111654203Y-145098926D01*
X111651053Y-145077691D01*
X111650000Y-145056250D01*
X111650000Y-144543750D01*
X111651053Y-144522309D01*
X111654203Y-144501074D01*
X111659419Y-144480250D01*
X111666651Y-144460038D01*
X111675830Y-144440632D01*
X111686866Y-144422219D01*
X111699654Y-144404976D01*
X111714070Y-144389070D01*
X111729976Y-144374654D01*
X111747219Y-144361866D01*
X111765632Y-144350830D01*
X111785038Y-144341651D01*
X111805250Y-144334419D01*
X111826074Y-144329203D01*
X111847309Y-144326053D01*
X111868750Y-144325000D01*
X112306250Y-144325000D01*
X112327691Y-144326053D01*
G37*
G36*
X110752691Y-144326053D02*
G01*
X110773926Y-144329203D01*
X110794750Y-144334419D01*
X110814962Y-144341651D01*
X110834368Y-144350830D01*
X110852781Y-144361866D01*
X110870024Y-144374654D01*
X110885930Y-144389070D01*
X110900346Y-144404976D01*
X110913134Y-144422219D01*
X110924170Y-144440632D01*
X110933349Y-144460038D01*
X110940581Y-144480250D01*
X110945797Y-144501074D01*
X110948947Y-144522309D01*
X110950000Y-144543750D01*
X110950000Y-145056250D01*
X110948947Y-145077691D01*
X110945797Y-145098926D01*
X110940581Y-145119750D01*
X110933349Y-145139962D01*
X110924170Y-145159368D01*
X110913134Y-145177781D01*
X110900346Y-145195024D01*
X110885930Y-145210930D01*
X110870024Y-145225346D01*
X110852781Y-145238134D01*
X110834368Y-145249170D01*
X110814962Y-145258349D01*
X110794750Y-145265581D01*
X110773926Y-145270797D01*
X110752691Y-145273947D01*
X110731250Y-145275000D01*
X110293750Y-145275000D01*
X110272309Y-145273947D01*
X110251074Y-145270797D01*
X110230250Y-145265581D01*
X110210038Y-145258349D01*
X110190632Y-145249170D01*
X110172219Y-145238134D01*
X110154976Y-145225346D01*
X110139070Y-145210930D01*
X110124654Y-145195024D01*
X110111866Y-145177781D01*
X110100830Y-145159368D01*
X110091651Y-145139962D01*
X110084419Y-145119750D01*
X110079203Y-145098926D01*
X110076053Y-145077691D01*
X110075000Y-145056250D01*
X110075000Y-144543750D01*
X110076053Y-144522309D01*
X110079203Y-144501074D01*
X110084419Y-144480250D01*
X110091651Y-144460038D01*
X110100830Y-144440632D01*
X110111866Y-144422219D01*
X110124654Y-144404976D01*
X110139070Y-144389070D01*
X110154976Y-144374654D01*
X110172219Y-144361866D01*
X110190632Y-144350830D01*
X110210038Y-144341651D01*
X110230250Y-144334419D01*
X110251074Y-144329203D01*
X110272309Y-144326053D01*
X110293750Y-144325000D01*
X110731250Y-144325000D01*
X110752691Y-144326053D01*
G37*
M02*
