M48
; DRILL file {KiCad 5.1.5+dfsg1-2build2} date Po  7. február 2022, 22:11:22
; FORMAT={-:-/ absolute / inch / decimal}
; #@! TF.CreationDate,2022-02-07T22:11:22+01:00
; #@! TF.GenerationSoftware,Kicad,Pcbnew,5.1.5+dfsg1-2build2
FMAT,2
INCH
T1C0.0118
T2C0.0157
T3C0.0197
T4C0.0276
T5C0.0300
T6C0.0315
T7C0.0394
T8C0.0402
T9C0.0453
T10C0.0697
T11C0.0390
T12C0.0394
T13C0.1181
%
G90
G05
T1
X3.4331Y-5.3583
X3.4331Y-5.4055
X3.7835Y-5.0157
X3.8019Y-6.274
X3.8465Y-6.2992
X3.8661Y-6.6929
X3.9213Y-6.2992
X3.937Y-5.3701
X3.9961Y-6.2992
X4.0354Y-6.6929
X4.0689Y-6.2736
X4.0748Y-5.4488
X4.0748Y-5.5079
X4.0748Y-5.5866
X4.126Y-5.1496
X4.1772Y-5.4291
X4.1969Y-5.4803
X4.2205Y-5.3701
X4.2677Y-5.4488
X4.2717Y-5.2598
X4.2835Y-5.3228
X4.2992Y-5.1496
X4.3071Y-5.2598
X4.3189Y-5.5866
X4.3425Y-5.2598
X4.3543Y-5.4724
X4.378Y-5.3228
X4.4252Y-5.5079
X4.4409Y-5.1496
X4.4449Y-5.7008
X4.4449Y-5.7598
X4.4528Y-5.5945
X4.5Y-5.1496
X4.5276Y-5.2283
X4.5276Y-5.4606
X4.5551Y-5.5945
X4.5591Y-5.3937
X4.5906Y-5.2835
X4.5906Y-5.3307
X4.5906Y-5.3701
X4.5906Y-5.4606
X4.6142Y-5.0157
X4.6142Y-5.1496
X4.6378Y-5.252
X4.6476Y-5.5945
X4.6693Y-5.0157
X4.6693Y-5.3858
X4.6929Y-5.4134
X4.7008Y-5.2126
X4.7008Y-5.252
X4.752Y-5.3622
X4.7559Y-5.9272
X4.7913Y-6.0945
X4.8169Y-5.7106
X4.8169Y-5.8091
X4.8346Y-5.3622
X4.8504Y-5.8366
X4.872Y-5.9272
X4.8819Y-5.7106
X4.8898Y-6.0945
X4.8976Y-5.1102
X4.8976Y-6.0236
X4.9075Y-5.7835
X4.935Y-5.4134
X4.9843Y-5.252
X5.0197Y-6.128
X5.0512Y-5.189
X5.0935Y-6.0945
X5.122Y-6.1791
X5.122Y-6.2283
X5.1496Y-6.1535
X5.1496Y-6.2028
X5.1496Y-6.2539
X5.2126Y-5.189
X5.378Y-6.0492
X5.6299Y-5.5748
T2
X3.4764Y-5.3071
X3.4764Y-5.4803
X3.5138Y-5.3563
X3.9685Y-5.1102
X4.7008Y-5.1102
X4.8346Y-5.2835
X4.8819Y-6.3543
X4.9134Y-5.5118
X4.9724Y-6.3543
X4.9843Y-5.1102
X5.0551Y-5.4094
X5.0935Y-5.6004
X5.0935Y-5.6437
X5.0935Y-5.687
X5.0935Y-5.7303
X5.0935Y-5.7736
X5.0935Y-5.8732
X5.0935Y-5.9205
X5.1358Y-5.5118
X5.1368Y-5.6004
X5.1368Y-5.6437
X5.1368Y-5.687
X5.1368Y-5.7303
X5.1368Y-5.7736
X5.1368Y-5.8732
X5.1368Y-5.9205
X5.1535Y-5.0157
X5.22Y-6.3543
X5.2691Y-5.8732
X5.2691Y-5.9205
X5.2691Y-5.9677
X5.3242Y-5.8732
X5.3242Y-5.9205
X5.3242Y-5.9677
X5.3268Y-5.0157
X5.3268Y-5.4724
X5.4337Y-5.8732
X5.4337Y-5.9205
X5.4337Y-5.9677
X5.4528Y-5.6348
X5.4528Y-5.6742
X5.4528Y-5.7126
X5.4809Y-5.8732
X5.4809Y-5.9205
X5.4809Y-5.9677
X5.5118Y-5.6348
X5.5118Y-5.6742
X5.5118Y-5.7126
X5.5281Y-5.8732
X5.5281Y-5.9205
X5.5281Y-5.9677
X5.5281Y-6.1791
X5.6299Y-5.4724
X5.876Y-5.4724
X6.0335Y-5.0157
X6.0335Y-5.4724
T3
X4.7402Y-6.2756
X4.199Y-5.7012
X4.199Y-5.7502
T4
X3.3607Y-5.5422
X3.5969Y-5.5422
T5
X3.7761Y-6.6144
X4.0911Y-6.6144
T6
X5.9488Y-5.0669
X5.9488Y-5.4669
T7
X5.7283Y-5.0472
X3.7293Y-5.2421
X3.8293Y-5.2421
X3.9293Y-5.2421
X3.3287Y-5.1142
X3.4469Y-5.1142
X4.3465Y-6.274
X4.4449Y-6.274
X4.5433Y-6.274
X4.6418Y-6.274
X4.0512Y-5.0472
X4.1512Y-5.0472
X4.2512Y-5.0472
X4.3512Y-5.0472
X4.4512Y-5.0472
X4.5512Y-5.0472
X5.626Y-5.6693
X5.626Y-5.7874
X5.626Y-5.9055
X5.626Y-6.0236
X5.7441Y-5.6693
X5.7441Y-5.7874
X5.7441Y-5.9055
X5.7441Y-6.0236
T8
X3.3287Y-5.1142
X3.4469Y-5.1142
X5.626Y-5.6693
X5.626Y-5.7874
X5.626Y-5.9055
X5.626Y-6.0236
X5.7441Y-5.6693
X5.7441Y-5.7874
X5.7441Y-5.9055
X5.7441Y-6.0236
T9
X3.013Y-5.8382
X3.013Y-5.9382
X3.013Y-6.0382
X3.013Y-6.1382
X3.013Y-6.2382
X3.013Y-6.3382
X3.118Y-5.9032
X3.118Y-6.2682
X3.218Y-5.9032
X3.218Y-6.2682
X3.318Y-5.9032
X3.318Y-6.2682
X4.9202Y-6.5291
X4.9202Y-6.6291
X5.0202Y-6.5291
X5.0202Y-6.6291
X5.1202Y-6.5291
X5.1202Y-6.6291
X5.2202Y-6.5291
X5.2202Y-6.6291
X5.3202Y-6.5291
X5.3202Y-6.6291
X5.3275Y-5.2282
X5.3275Y-5.3282
X5.4275Y-5.2282
X5.4275Y-5.3282
X5.5275Y-5.2282
X5.5275Y-5.3282
X5.6275Y-5.2282
X5.6275Y-5.3282
X5.7275Y-5.2282
X5.7275Y-5.3282
X6.063Y-6.1382
X6.063Y-6.2382
X6.063Y-6.3382
T10
X0.6674Y-4.9606
X0.6674Y-5.496
X1.1988Y-4.9173
X1.1988Y-5.5393
T11
X3.7031Y-5.0787
X3.9031Y-5.0387
X3.9031Y-5.1187
T12
X3.4839Y-4.9961
X3.4839Y-5.2323
X5.589Y-5.5512
X5.589Y-6.1417
T13
X3.1587Y-5.1142
X5.9142Y-5.7543
X5.9142Y-5.9394
T0
M30
