G04 #@! TF.GenerationSoftware,KiCad,Pcbnew,5.1.5+dfsg1-2build2*
G04 #@! TF.CreationDate,2022-02-07T22:13:22+01:00*
G04 #@! TF.ProjectId,mre_addon_v2,6d72655f-6164-4646-9f6e-5f76322e6b69,V2.3*
G04 #@! TF.SameCoordinates,Original*
G04 #@! TF.FileFunction,Legend,Bot*
G04 #@! TF.FilePolarity,Positive*
%FSLAX46Y46*%
G04 Gerber Fmt 4.6, Leading zero omitted, Abs format (unit mm)*
G04 Created by KiCad (PCBNEW 5.1.5+dfsg1-2build2) date 2022-02-07 22:13:22*
%MOMM*%
%LPD*%
G04 APERTURE LIST*
%ADD10C,0.250000*%
%ADD11C,0.120000*%
%ADD12C,0.150000*%
%ADD13C,0.187500*%
%ADD14C,0.125000*%
%ADD15C,0.254000*%
%ADD16C,0.010000*%
%ADD17C,0.130000*%
%ADD18C,0.101600*%
%ADD19C,0.200000*%
G04 APERTURE END LIST*
D10*
X127938095Y-144379761D02*
X127795238Y-144427380D01*
X127557142Y-144427380D01*
X127461904Y-144379761D01*
X127414285Y-144332142D01*
X127366666Y-144236904D01*
X127366666Y-144141666D01*
X127414285Y-144046428D01*
X127461904Y-143998809D01*
X127557142Y-143951190D01*
X127747619Y-143903571D01*
X127842857Y-143855952D01*
X127890476Y-143808333D01*
X127938095Y-143713095D01*
X127938095Y-143617857D01*
X127890476Y-143522619D01*
X127842857Y-143475000D01*
X127747619Y-143427380D01*
X127509523Y-143427380D01*
X127366666Y-143475000D01*
X126938095Y-144427380D02*
X126938095Y-143427380D01*
X126700000Y-143427380D01*
X126557142Y-143475000D01*
X126461904Y-143570238D01*
X126414285Y-143665476D01*
X126366666Y-143855952D01*
X126366666Y-143998809D01*
X126414285Y-144189285D01*
X126461904Y-144284523D01*
X126557142Y-144379761D01*
X126700000Y-144427380D01*
X126938095Y-144427380D01*
X124604761Y-144332142D02*
X124652380Y-144379761D01*
X124795238Y-144427380D01*
X124890476Y-144427380D01*
X125033333Y-144379761D01*
X125128571Y-144284523D01*
X125176190Y-144189285D01*
X125223809Y-143998809D01*
X125223809Y-143855952D01*
X125176190Y-143665476D01*
X125128571Y-143570238D01*
X125033333Y-143475000D01*
X124890476Y-143427380D01*
X124795238Y-143427380D01*
X124652380Y-143475000D01*
X124604761Y-143522619D01*
X123747619Y-144427380D02*
X123747619Y-143903571D01*
X123795238Y-143808333D01*
X123890476Y-143760714D01*
X124080952Y-143760714D01*
X124176190Y-143808333D01*
X123747619Y-144379761D02*
X123842857Y-144427380D01*
X124080952Y-144427380D01*
X124176190Y-144379761D01*
X124223809Y-144284523D01*
X124223809Y-144189285D01*
X124176190Y-144094047D01*
X124080952Y-144046428D01*
X123842857Y-144046428D01*
X123747619Y-143998809D01*
X123271428Y-144427380D02*
X123271428Y-143760714D01*
X123271428Y-143951190D02*
X123223809Y-143855952D01*
X123176190Y-143808333D01*
X123080952Y-143760714D01*
X122985714Y-143760714D01*
X122223809Y-144427380D02*
X122223809Y-143427380D01*
X122223809Y-144379761D02*
X122319047Y-144427380D01*
X122509523Y-144427380D01*
X122604761Y-144379761D01*
X122652380Y-144332142D01*
X122700000Y-144236904D01*
X122700000Y-143951190D01*
X122652380Y-143855952D01*
X122604761Y-143808333D01*
X122509523Y-143760714D01*
X122319047Y-143760714D01*
X122223809Y-143808333D01*
X120414285Y-144332142D02*
X120461904Y-144379761D01*
X120604761Y-144427380D01*
X120700000Y-144427380D01*
X120842857Y-144379761D01*
X120938095Y-144284523D01*
X120985714Y-144189285D01*
X121033333Y-143998809D01*
X121033333Y-143855952D01*
X120985714Y-143665476D01*
X120938095Y-143570238D01*
X120842857Y-143475000D01*
X120700000Y-143427380D01*
X120604761Y-143427380D01*
X120461904Y-143475000D01*
X120414285Y-143522619D01*
X120033333Y-144379761D02*
X119890476Y-144427380D01*
X119652380Y-144427380D01*
X119557142Y-144379761D01*
X119509523Y-144332142D01*
X119461904Y-144236904D01*
X119461904Y-144141666D01*
X119509523Y-144046428D01*
X119557142Y-143998809D01*
X119652380Y-143951190D01*
X119842857Y-143903571D01*
X119938095Y-143855952D01*
X119985714Y-143808333D01*
X120033333Y-143713095D01*
X120033333Y-143617857D01*
X119985714Y-143522619D01*
X119938095Y-143475000D01*
X119842857Y-143427380D01*
X119604761Y-143427380D01*
X119461904Y-143475000D01*
X119080952Y-143760714D02*
X118366666Y-143760714D01*
X118795238Y-143332142D02*
X119080952Y-144617857D01*
X118461904Y-144189285D02*
X119176190Y-144189285D01*
X118747619Y-144617857D02*
X118461904Y-143332142D01*
X117271428Y-144427380D02*
X117271428Y-143427380D01*
X116890476Y-143427380D01*
X116795238Y-143475000D01*
X116747619Y-143522619D01*
X116700000Y-143617857D01*
X116700000Y-143760714D01*
X116747619Y-143855952D01*
X116795238Y-143903571D01*
X116890476Y-143951190D01*
X117271428Y-143951190D01*
X116271428Y-144427380D02*
X116271428Y-143427380D01*
X115795238Y-144427380D02*
X115795238Y-143427380D01*
X115223809Y-144427380D01*
X115223809Y-143427380D01*
X113985714Y-144046428D02*
X113223809Y-144046428D01*
X111985714Y-144427380D02*
X111985714Y-143427380D01*
X111604761Y-143427380D01*
X111509523Y-143475000D01*
X111461904Y-143522619D01*
X111414285Y-143617857D01*
X111414285Y-143760714D01*
X111461904Y-143855952D01*
X111509523Y-143903571D01*
X111604761Y-143951190D01*
X111985714Y-143951190D01*
X110652380Y-143903571D02*
X110509523Y-143951190D01*
X110461904Y-143998809D01*
X110414285Y-144094047D01*
X110414285Y-144236904D01*
X110461904Y-144332142D01*
X110509523Y-144379761D01*
X110604761Y-144427380D01*
X110985714Y-144427380D01*
X110985714Y-143427380D01*
X110652380Y-143427380D01*
X110557142Y-143475000D01*
X110509523Y-143522619D01*
X110461904Y-143617857D01*
X110461904Y-143713095D01*
X110509523Y-143808333D01*
X110557142Y-143855952D01*
X110652380Y-143903571D01*
X110985714Y-143903571D01*
X109938095Y-144427380D02*
X109747619Y-144427380D01*
X109652380Y-144379761D01*
X109604761Y-144332142D01*
X109509523Y-144189285D01*
X109461904Y-143998809D01*
X109461904Y-143617857D01*
X109509523Y-143522619D01*
X109557142Y-143475000D01*
X109652380Y-143427380D01*
X109842857Y-143427380D01*
X109938095Y-143475000D01*
X109985714Y-143522619D01*
X110033333Y-143617857D01*
X110033333Y-143855952D01*
X109985714Y-143951190D01*
X109938095Y-143998809D01*
X109842857Y-144046428D01*
X109652380Y-144046428D01*
X109557142Y-143998809D01*
X109509523Y-143951190D01*
X109461904Y-143855952D01*
X128580952Y-145653571D02*
X128247619Y-145653571D01*
X128104761Y-146177380D02*
X128580952Y-146177380D01*
X128580952Y-145177380D01*
X128104761Y-145177380D01*
X127152380Y-145225000D02*
X127247619Y-145177380D01*
X127390476Y-145177380D01*
X127533333Y-145225000D01*
X127628571Y-145320238D01*
X127676190Y-145415476D01*
X127723809Y-145605952D01*
X127723809Y-145748809D01*
X127676190Y-145939285D01*
X127628571Y-146034523D01*
X127533333Y-146129761D01*
X127390476Y-146177380D01*
X127295238Y-146177380D01*
X127152380Y-146129761D01*
X127104761Y-146082142D01*
X127104761Y-145748809D01*
X127295238Y-145748809D01*
X126819047Y-145177380D02*
X126247619Y-145177380D01*
X126533333Y-146177380D02*
X126533333Y-145177380D01*
X124580952Y-146082142D02*
X124628571Y-146129761D01*
X124771428Y-146177380D01*
X124866666Y-146177380D01*
X125009523Y-146129761D01*
X125104761Y-146034523D01*
X125152380Y-145939285D01*
X125200000Y-145748809D01*
X125200000Y-145605952D01*
X125152380Y-145415476D01*
X125104761Y-145320238D01*
X125009523Y-145225000D01*
X124866666Y-145177380D01*
X124771428Y-145177380D01*
X124628571Y-145225000D01*
X124580952Y-145272619D01*
X124152380Y-146177380D02*
X124152380Y-145177380D01*
X123723809Y-146177380D02*
X123723809Y-145653571D01*
X123771428Y-145558333D01*
X123866666Y-145510714D01*
X124009523Y-145510714D01*
X124104761Y-145558333D01*
X124152380Y-145605952D01*
X123247619Y-146177380D02*
X123247619Y-145510714D01*
X123247619Y-145177380D02*
X123295238Y-145225000D01*
X123247619Y-145272619D01*
X123200000Y-145225000D01*
X123247619Y-145177380D01*
X123247619Y-145272619D01*
X122771428Y-145510714D02*
X122771428Y-146510714D01*
X122771428Y-145558333D02*
X122676190Y-145510714D01*
X122485714Y-145510714D01*
X122390476Y-145558333D01*
X122342857Y-145605952D01*
X122295238Y-145701190D01*
X122295238Y-145986904D01*
X122342857Y-146082142D01*
X122390476Y-146129761D01*
X122485714Y-146177380D01*
X122676190Y-146177380D01*
X122771428Y-146129761D01*
X120533333Y-146082142D02*
X120580952Y-146129761D01*
X120723809Y-146177380D01*
X120819047Y-146177380D01*
X120961904Y-146129761D01*
X121057142Y-146034523D01*
X121104761Y-145939285D01*
X121152380Y-145748809D01*
X121152380Y-145605952D01*
X121104761Y-145415476D01*
X121057142Y-145320238D01*
X120961904Y-145225000D01*
X120819047Y-145177380D01*
X120723809Y-145177380D01*
X120580952Y-145225000D01*
X120533333Y-145272619D01*
X120152380Y-146129761D02*
X120009523Y-146177380D01*
X119771428Y-146177380D01*
X119676190Y-146129761D01*
X119628571Y-146082142D01*
X119580952Y-145986904D01*
X119580952Y-145891666D01*
X119628571Y-145796428D01*
X119676190Y-145748809D01*
X119771428Y-145701190D01*
X119961904Y-145653571D01*
X120057142Y-145605952D01*
X120104761Y-145558333D01*
X120152380Y-145463095D01*
X120152380Y-145367857D01*
X120104761Y-145272619D01*
X120057142Y-145225000D01*
X119961904Y-145177380D01*
X119723809Y-145177380D01*
X119580952Y-145225000D01*
X119200000Y-145510714D02*
X118485714Y-145510714D01*
X118914285Y-145082142D02*
X119200000Y-146367857D01*
X118580952Y-145939285D02*
X119295238Y-145939285D01*
X118866666Y-146367857D02*
X118580952Y-145082142D01*
X117390476Y-146177380D02*
X117390476Y-145177380D01*
X117009523Y-145177380D01*
X116914285Y-145225000D01*
X116866666Y-145272619D01*
X116819047Y-145367857D01*
X116819047Y-145510714D01*
X116866666Y-145605952D01*
X116914285Y-145653571D01*
X117009523Y-145701190D01*
X117390476Y-145701190D01*
X116390476Y-146177380D02*
X116390476Y-145177380D01*
X115914285Y-146177380D02*
X115914285Y-145177380D01*
X115342857Y-146177380D01*
X115342857Y-145177380D01*
X114104761Y-145796428D02*
X113342857Y-145796428D01*
X112104761Y-146177380D02*
X112104761Y-145177380D01*
X111723809Y-145177380D01*
X111628571Y-145225000D01*
X111580952Y-145272619D01*
X111533333Y-145367857D01*
X111533333Y-145510714D01*
X111580952Y-145605952D01*
X111628571Y-145653571D01*
X111723809Y-145701190D01*
X112104761Y-145701190D01*
X111152380Y-145891666D02*
X110676190Y-145891666D01*
X111247619Y-146177380D02*
X110914285Y-145177380D01*
X110580952Y-146177380D01*
X109723809Y-146177380D02*
X110295238Y-146177380D01*
X110009523Y-146177380D02*
X110009523Y-145177380D01*
X110104761Y-145320238D01*
X110200000Y-145415476D01*
X110295238Y-145463095D01*
X108819047Y-145177380D02*
X109295238Y-145177380D01*
X109342857Y-145653571D01*
X109295238Y-145605952D01*
X109200000Y-145558333D01*
X108961904Y-145558333D01*
X108866666Y-145605952D01*
X108819047Y-145653571D01*
X108771428Y-145748809D01*
X108771428Y-145986904D01*
X108819047Y-146082142D01*
X108866666Y-146129761D01*
X108961904Y-146177380D01*
X109200000Y-146177380D01*
X109295238Y-146129761D01*
X109342857Y-146082142D01*
D11*
X103400000Y-147050000D02*
G75*
G03X103400000Y-147050000I-5000000J0D01*
G01*
X101950000Y-145000000D02*
G75*
G03X101950000Y-145000000I-5000000J0D01*
G01*
X98400000Y-147600000D02*
X98400000Y-146500000D01*
X97850000Y-147050000D02*
X98950000Y-147050000D01*
X96500000Y-145000000D02*
X97450000Y-145000000D01*
X96950000Y-144500000D02*
X96950000Y-145500000D01*
D12*
X148809523Y-127652380D02*
X148809523Y-128366666D01*
X148857142Y-128509523D01*
X148952380Y-128604761D01*
X149095238Y-128652380D01*
X149190476Y-128652380D01*
X148380952Y-127747619D02*
X148333333Y-127700000D01*
X148238095Y-127652380D01*
X148000000Y-127652380D01*
X147904761Y-127700000D01*
X147857142Y-127747619D01*
X147809523Y-127842857D01*
X147809523Y-127938095D01*
X147857142Y-128080952D01*
X148428571Y-128652380D01*
X147809523Y-128652380D01*
X146857142Y-128652380D02*
X147428571Y-128652380D01*
X147142857Y-128652380D02*
X147142857Y-127652380D01*
X147238095Y-127795238D01*
X147333333Y-127890476D01*
X147428571Y-127938095D01*
D11*
X147700000Y-151600000D02*
X141050000Y-151600000D01*
X147700000Y-157250000D02*
X147700000Y-151600000D01*
X141050000Y-157250000D02*
X147700000Y-157250000D01*
X141050000Y-151600000D02*
X141050000Y-157250000D01*
X133604000Y-129794000D02*
X130810000Y-129794000D01*
X133604000Y-142748000D02*
X133604000Y-129794000D01*
X105918000Y-142748000D02*
X133604000Y-142748000D01*
X105918000Y-130048000D02*
X105918000Y-142748000D01*
X130810000Y-129794000D02*
X105918000Y-130048000D01*
D12*
X148656979Y-158266666D02*
X148569479Y-157566666D01*
X148256979Y-158266666D02*
X148506979Y-157866666D01*
X148169479Y-157566666D02*
X148619479Y-157966666D01*
X147923645Y-158000000D02*
X147390312Y-158000000D01*
X147102812Y-157566666D02*
X146702812Y-157566666D01*
X146990312Y-158266666D02*
X146902812Y-157566666D01*
X146556979Y-158266666D02*
X146469479Y-157566666D01*
X146256979Y-158266666D02*
X146211145Y-157900000D01*
X146236145Y-157833333D01*
X146298645Y-157800000D01*
X146398645Y-157800000D01*
X146469479Y-157833333D01*
X146506979Y-157866666D01*
X145652812Y-158233333D02*
X145723645Y-158266666D01*
X145856979Y-158266666D01*
X145919479Y-158233333D01*
X145944479Y-158166666D01*
X145911145Y-157900000D01*
X145869479Y-157833333D01*
X145798645Y-157800000D01*
X145665312Y-157800000D01*
X145602812Y-157833333D01*
X145577812Y-157900000D01*
X145586145Y-157966666D01*
X145927812Y-158033333D01*
X145323645Y-158266666D02*
X145265312Y-157800000D01*
X145281979Y-157933333D02*
X145240312Y-157866666D01*
X145202812Y-157833333D01*
X145131979Y-157800000D01*
X145065312Y-157800000D01*
X144890312Y-158266666D02*
X144831979Y-157800000D01*
X144840312Y-157866666D02*
X144802812Y-157833333D01*
X144731979Y-157800000D01*
X144631979Y-157800000D01*
X144569479Y-157833333D01*
X144544479Y-157900000D01*
X144590312Y-158266666D01*
X144544479Y-157900000D02*
X144502812Y-157833333D01*
X144431979Y-157800000D01*
X144331979Y-157800000D01*
X144269479Y-157833333D01*
X144244479Y-157900000D01*
X144290312Y-158266666D01*
X143856979Y-158266666D02*
X143919479Y-158233333D01*
X143948645Y-158200000D01*
X143973645Y-158133333D01*
X143948645Y-157933333D01*
X143906979Y-157866666D01*
X143869479Y-157833333D01*
X143798645Y-157800000D01*
X143698645Y-157800000D01*
X143636145Y-157833333D01*
X143606979Y-157866666D01*
X143581979Y-157933333D01*
X143606979Y-158133333D01*
X143648645Y-158200000D01*
X143686145Y-158233333D01*
X143756979Y-158266666D01*
X143856979Y-158266666D01*
X143019479Y-158233333D02*
X143090312Y-158266666D01*
X143223645Y-158266666D01*
X143286145Y-158233333D01*
X143315312Y-158200000D01*
X143340312Y-158133333D01*
X143315312Y-157933333D01*
X143273645Y-157866666D01*
X143236145Y-157833333D01*
X143165312Y-157800000D01*
X143031979Y-157800000D01*
X142969479Y-157833333D01*
X142623645Y-158266666D02*
X142686145Y-158233333D01*
X142715312Y-158200000D01*
X142740312Y-158133333D01*
X142715312Y-157933333D01*
X142673645Y-157866666D01*
X142636145Y-157833333D01*
X142565312Y-157800000D01*
X142465312Y-157800000D01*
X142402812Y-157833333D01*
X142373645Y-157866666D01*
X142348645Y-157933333D01*
X142373645Y-158133333D01*
X142415312Y-158200000D01*
X142452812Y-158233333D01*
X142523645Y-158266666D01*
X142623645Y-158266666D01*
X141731979Y-157800000D02*
X141790312Y-158266666D01*
X142031979Y-157800000D02*
X142077812Y-158166666D01*
X142052812Y-158233333D01*
X141990312Y-158266666D01*
X141890312Y-158266666D01*
X141819479Y-158233333D01*
X141781979Y-158200000D01*
X141398645Y-157800000D02*
X141486145Y-158500000D01*
X141402812Y-157833333D02*
X141331979Y-157800000D01*
X141198645Y-157800000D01*
X141136145Y-157833333D01*
X141106979Y-157866666D01*
X141081979Y-157933333D01*
X141106979Y-158133333D01*
X141148645Y-158200000D01*
X141186145Y-158233333D01*
X141256979Y-158266666D01*
X141390312Y-158266666D01*
X141452812Y-158233333D01*
X140723645Y-158266666D02*
X140786145Y-158233333D01*
X140811145Y-158166666D01*
X140736145Y-157566666D01*
X140186145Y-158233333D02*
X140256979Y-158266666D01*
X140390312Y-158266666D01*
X140452812Y-158233333D01*
X140477812Y-158166666D01*
X140444479Y-157900000D01*
X140402812Y-157833333D01*
X140331979Y-157800000D01*
X140198645Y-157800000D01*
X140136145Y-157833333D01*
X140111145Y-157900000D01*
X140119479Y-157966666D01*
X140461145Y-158033333D01*
X113652380Y-137414285D02*
X112652380Y-137414285D01*
X113128571Y-137414285D02*
X113128571Y-137985714D01*
X113652380Y-137985714D02*
X112652380Y-137985714D01*
X113652380Y-135309523D02*
X113652380Y-134833333D01*
X112652380Y-134833333D01*
D13*
X144117857Y-154783035D02*
X143689285Y-154783035D01*
X143903571Y-155533035D02*
X143903571Y-154783035D01*
X143010714Y-155461607D02*
X143046428Y-155497321D01*
X143153571Y-155533035D01*
X143225000Y-155533035D01*
X143332142Y-155497321D01*
X143403571Y-155425892D01*
X143439285Y-155354464D01*
X143475000Y-155211607D01*
X143475000Y-155104464D01*
X143439285Y-154961607D01*
X143403571Y-154890178D01*
X143332142Y-154818750D01*
X143225000Y-154783035D01*
X143153571Y-154783035D01*
X143046428Y-154818750D01*
X143010714Y-154854464D01*
X142689285Y-155533035D02*
X142689285Y-154783035D01*
X142403571Y-154783035D01*
X142332142Y-154818750D01*
X142296428Y-154854464D01*
X142260714Y-154925892D01*
X142260714Y-155033035D01*
X142296428Y-155104464D01*
X142332142Y-155140178D01*
X142403571Y-155175892D01*
X142689285Y-155175892D01*
X141582142Y-155533035D02*
X141939285Y-155533035D01*
X141939285Y-154783035D01*
X143135714Y-156559821D02*
X142564285Y-156559821D01*
X142850000Y-156845535D02*
X142850000Y-156274107D01*
X147155189Y-154783035D02*
X146726618Y-154783035D01*
X147034654Y-155533035D02*
X146940904Y-154783035D01*
X146132868Y-155461607D02*
X146173046Y-155497321D01*
X146284654Y-155533035D01*
X146356082Y-155533035D01*
X146458761Y-155497321D01*
X146521261Y-155425892D01*
X146548046Y-155354464D01*
X146565904Y-155211607D01*
X146552511Y-155104464D01*
X146498939Y-154961607D01*
X146454296Y-154890178D01*
X146373939Y-154818750D01*
X146262332Y-154783035D01*
X146190904Y-154783035D01*
X146088225Y-154818750D01*
X146056975Y-154854464D01*
X145820368Y-155533035D02*
X145726618Y-154783035D01*
X145440904Y-154783035D01*
X145373939Y-154818750D01*
X145342689Y-154854464D01*
X145315904Y-154925892D01*
X145329296Y-155033035D01*
X145373939Y-155104464D01*
X145414118Y-155140178D01*
X145490011Y-155175892D01*
X145775725Y-155175892D01*
X144713225Y-155533035D02*
X145070368Y-155533035D01*
X144976618Y-154783035D01*
X146231082Y-156559821D02*
X145659654Y-156559821D01*
D11*
X147700000Y-142200000D02*
X141050000Y-142200000D01*
X147700000Y-151200000D02*
X147700000Y-142200000D01*
X141050000Y-151200000D02*
X147700000Y-151200000D01*
X141050000Y-142200000D02*
X141050000Y-151200000D01*
D13*
X155438225Y-146633035D02*
X155344475Y-145883035D01*
X155389118Y-146240178D02*
X154960546Y-146240178D01*
X155009654Y-146633035D02*
X154915904Y-145883035D01*
X154362332Y-146597321D02*
X154438225Y-146633035D01*
X154581082Y-146633035D01*
X154648046Y-146597321D01*
X154674832Y-146525892D01*
X154639118Y-146240178D01*
X154594475Y-146168750D01*
X154518582Y-146133035D01*
X154375725Y-146133035D01*
X154308761Y-146168750D01*
X154281975Y-146240178D01*
X154290904Y-146311607D01*
X154656975Y-146383035D01*
X153688225Y-146633035D02*
X153639118Y-146240178D01*
X153665904Y-146168750D01*
X153732868Y-146133035D01*
X153875725Y-146133035D01*
X153951618Y-146168750D01*
X153683761Y-146597321D02*
X153759654Y-146633035D01*
X153938225Y-146633035D01*
X154005189Y-146597321D01*
X154031975Y-146525892D01*
X154023046Y-146454464D01*
X153978404Y-146383035D01*
X153902511Y-146347321D01*
X153723939Y-146347321D01*
X153648046Y-146311607D01*
X153375725Y-146133035D02*
X153090011Y-146133035D01*
X153237332Y-145883035D02*
X153317689Y-146525892D01*
X153290904Y-146597321D01*
X153223939Y-146633035D01*
X153152511Y-146633035D01*
X152612332Y-146597321D02*
X152688225Y-146633035D01*
X152831082Y-146633035D01*
X152898046Y-146597321D01*
X152924832Y-146525892D01*
X152889118Y-146240178D01*
X152844475Y-146168750D01*
X152768582Y-146133035D01*
X152625725Y-146133035D01*
X152558761Y-146168750D01*
X152531975Y-146240178D01*
X152540904Y-146311607D01*
X152906975Y-146383035D01*
X152259654Y-146633035D02*
X152197154Y-146133035D01*
X152215011Y-146275892D02*
X152170368Y-146204464D01*
X152130189Y-146168750D01*
X152054296Y-146133035D01*
X151982868Y-146133035D01*
X151759654Y-146347321D02*
X151188225Y-146347321D01*
X151509654Y-146633035D02*
X151438225Y-146061607D01*
X154081082Y-147231250D02*
X154148046Y-147195535D01*
X154255189Y-147195535D01*
X154366796Y-147231250D01*
X154447154Y-147302678D01*
X154491796Y-147374107D01*
X154545368Y-147516964D01*
X154558761Y-147624107D01*
X154540904Y-147766964D01*
X154514118Y-147838392D01*
X154451618Y-147909821D01*
X154348939Y-147945535D01*
X154277511Y-147945535D01*
X154165904Y-147909821D01*
X154125725Y-147874107D01*
X154094475Y-147624107D01*
X154237332Y-147624107D01*
X153384654Y-147945535D02*
X153590011Y-147588392D01*
X153813225Y-147945535D02*
X153719475Y-147195535D01*
X153433761Y-147195535D01*
X153366796Y-147231250D01*
X153335546Y-147266964D01*
X153308761Y-147338392D01*
X153322154Y-147445535D01*
X153366796Y-147516964D01*
X153406975Y-147552678D01*
X153482868Y-147588392D01*
X153768582Y-147588392D01*
X153014118Y-147552678D02*
X152764118Y-147552678D01*
X152706082Y-147945535D02*
X153063225Y-147945535D01*
X152969475Y-147195535D01*
X152612332Y-147195535D01*
X152197154Y-147588392D02*
X152241796Y-147945535D01*
X152398046Y-147195535D02*
X152197154Y-147588392D01*
X151898046Y-147195535D01*
X155116796Y-149683035D02*
X155473939Y-149683035D01*
X155380189Y-148933035D01*
X154898046Y-149647321D02*
X154795368Y-149683035D01*
X154616796Y-149683035D01*
X154540904Y-149647321D01*
X154500725Y-149611607D01*
X154456082Y-149540178D01*
X154447154Y-149468750D01*
X154473939Y-149397321D01*
X154505189Y-149361607D01*
X154572154Y-149325892D01*
X154710546Y-149290178D01*
X154777511Y-149254464D01*
X154808761Y-149218750D01*
X154835546Y-149147321D01*
X154826618Y-149075892D01*
X154781975Y-149004464D01*
X154741796Y-148968750D01*
X154665904Y-148933035D01*
X154487332Y-148933035D01*
X154384654Y-148968750D01*
X154058761Y-148933035D02*
X154134654Y-149540178D01*
X154107868Y-149611607D01*
X154076618Y-149647321D01*
X154009654Y-149683035D01*
X153866796Y-149683035D01*
X153790904Y-149647321D01*
X153750725Y-149611607D01*
X153706082Y-149540178D01*
X153630189Y-148933035D01*
X152701618Y-148933035D02*
X152777511Y-149540178D01*
X152750725Y-149611607D01*
X152719475Y-149647321D01*
X152652511Y-149683035D01*
X152509654Y-149683035D01*
X152433761Y-149647321D01*
X152393582Y-149611607D01*
X152348939Y-149540178D01*
X152273046Y-148933035D01*
X151947154Y-149183035D02*
X152009654Y-149683035D01*
X151956082Y-149254464D02*
X151915904Y-149218750D01*
X151840011Y-149183035D01*
X151732868Y-149183035D01*
X151665904Y-149218750D01*
X151639118Y-149290178D01*
X151688225Y-149683035D01*
X154853404Y-150602678D02*
X154750725Y-150638392D01*
X154719475Y-150674107D01*
X154692689Y-150745535D01*
X154706082Y-150852678D01*
X154750725Y-150924107D01*
X154790904Y-150959821D01*
X154866796Y-150995535D01*
X155152511Y-150995535D01*
X155058761Y-150245535D01*
X154808761Y-150245535D01*
X154741796Y-150281250D01*
X154710546Y-150316964D01*
X154683761Y-150388392D01*
X154692689Y-150459821D01*
X154737332Y-150531250D01*
X154777511Y-150566964D01*
X154853404Y-150602678D01*
X155103404Y-150602678D01*
X154045368Y-150995535D02*
X154402511Y-150995535D01*
X154308761Y-150245535D01*
X153804296Y-150781250D02*
X153447154Y-150781250D01*
X153902511Y-150995535D02*
X153558761Y-150245535D01*
X153402511Y-150995535D01*
X152715011Y-150924107D02*
X152755189Y-150959821D01*
X152866796Y-150995535D01*
X152938225Y-150995535D01*
X153040904Y-150959821D01*
X153103404Y-150888392D01*
X153130189Y-150816964D01*
X153148046Y-150674107D01*
X153134654Y-150566964D01*
X153081082Y-150424107D01*
X153036439Y-150352678D01*
X152956082Y-150281250D01*
X152844475Y-150245535D01*
X152773046Y-150245535D01*
X152670368Y-150281250D01*
X152639118Y-150316964D01*
X152402511Y-150995535D02*
X152308761Y-150245535D01*
X151973939Y-150995535D02*
X152241796Y-150566964D01*
X151880189Y-150245535D02*
X152362332Y-150674107D01*
X155056082Y-143633035D02*
X155413225Y-143633035D01*
X155319475Y-142883035D01*
X154837332Y-143597321D02*
X154734654Y-143633035D01*
X154556082Y-143633035D01*
X154480189Y-143597321D01*
X154440011Y-143561607D01*
X154395368Y-143490178D01*
X154386439Y-143418750D01*
X154413225Y-143347321D01*
X154444475Y-143311607D01*
X154511439Y-143275892D01*
X154649832Y-143240178D01*
X154716796Y-143204464D01*
X154748046Y-143168750D01*
X154774832Y-143097321D01*
X154765904Y-143025892D01*
X154721261Y-142954464D01*
X154681082Y-142918750D01*
X154605189Y-142883035D01*
X154426618Y-142883035D01*
X154323939Y-142918750D01*
X153998046Y-142883035D02*
X154073939Y-143490178D01*
X154047154Y-143561607D01*
X154015904Y-143597321D01*
X153948939Y-143633035D01*
X153806082Y-143633035D01*
X153730189Y-143597321D01*
X153690011Y-143561607D01*
X153645368Y-143490178D01*
X153569475Y-142883035D01*
X152748046Y-142883035D02*
X152591796Y-143633035D01*
X152248046Y-142883035D01*
X152091796Y-143633035D02*
X152029296Y-143133035D01*
X152038225Y-143204464D02*
X151998046Y-143168750D01*
X151922154Y-143133035D01*
X151815011Y-143133035D01*
X151748046Y-143168750D01*
X151721261Y-143240178D01*
X151770368Y-143633035D01*
X151721261Y-143240178D02*
X151676618Y-143168750D01*
X151600725Y-143133035D01*
X151493582Y-143133035D01*
X151426618Y-143168750D01*
X151399832Y-143240178D01*
X151448939Y-143633035D01*
X155154296Y-144588392D02*
X155198939Y-144945535D01*
X155355189Y-144195535D02*
X155154296Y-144588392D01*
X154855189Y-144195535D01*
X154649832Y-144552678D02*
X154399832Y-144552678D01*
X154341796Y-144945535D02*
X154698939Y-144945535D01*
X154605189Y-144195535D01*
X154248046Y-144195535D01*
X153663225Y-144945535D02*
X154020368Y-144945535D01*
X153926618Y-144195535D01*
X153056082Y-144945535D02*
X153413225Y-144945535D01*
X153319475Y-144195535D01*
X152569475Y-144195535D02*
X152426618Y-144195535D01*
X152359654Y-144231250D01*
X152297154Y-144302678D01*
X152279296Y-144445535D01*
X152310546Y-144695535D01*
X152364118Y-144838392D01*
X152444475Y-144909821D01*
X152520368Y-144945535D01*
X152663225Y-144945535D01*
X152730189Y-144909821D01*
X152792689Y-144838392D01*
X152810546Y-144695535D01*
X152779296Y-144445535D01*
X152725725Y-144302678D01*
X152645368Y-144231250D01*
X152569475Y-144195535D01*
X151998046Y-144195535D02*
X151913225Y-144945535D01*
X151703404Y-144409821D01*
X151627511Y-144945535D01*
X151355189Y-144195535D01*
X138402511Y-143833035D02*
X138759654Y-143833035D01*
X138665904Y-143083035D01*
X138183761Y-143797321D02*
X138081082Y-143833035D01*
X137902511Y-143833035D01*
X137826618Y-143797321D01*
X137786439Y-143761607D01*
X137741796Y-143690178D01*
X137732868Y-143618750D01*
X137759654Y-143547321D01*
X137790904Y-143511607D01*
X137857868Y-143475892D01*
X137996261Y-143440178D01*
X138063225Y-143404464D01*
X138094475Y-143368750D01*
X138121261Y-143297321D01*
X138112332Y-143225892D01*
X138067689Y-143154464D01*
X138027511Y-143118750D01*
X137951618Y-143083035D01*
X137773046Y-143083035D01*
X137670368Y-143118750D01*
X137344475Y-143083035D02*
X137420368Y-143690178D01*
X137393582Y-143761607D01*
X137362332Y-143797321D01*
X137295368Y-143833035D01*
X137152511Y-143833035D01*
X137076618Y-143797321D01*
X137036439Y-143761607D01*
X136991796Y-143690178D01*
X136915904Y-143083035D01*
X136081082Y-143833035D02*
X135987332Y-143083035D01*
X135661439Y-143333035D02*
X135755189Y-144083035D01*
X135665904Y-143368750D02*
X135590011Y-143333035D01*
X135447154Y-143333035D01*
X135380189Y-143368750D01*
X135348939Y-143404464D01*
X135322154Y-143475892D01*
X135348939Y-143690178D01*
X135393582Y-143761607D01*
X135433761Y-143797321D01*
X135509654Y-143833035D01*
X135652511Y-143833035D01*
X135719475Y-143797321D01*
X137563225Y-145145535D02*
X137768582Y-144788392D01*
X137991796Y-145145535D02*
X137898046Y-144395535D01*
X137612332Y-144395535D01*
X137545368Y-144431250D01*
X137514118Y-144466964D01*
X137487332Y-144538392D01*
X137500725Y-144645535D01*
X137545368Y-144716964D01*
X137585546Y-144752678D01*
X137661439Y-144788392D01*
X137947154Y-144788392D01*
X137192689Y-144752678D02*
X136942689Y-144752678D01*
X136884654Y-145145535D02*
X137241796Y-145145535D01*
X137148046Y-144395535D01*
X136790904Y-144395535D01*
X136563225Y-145145535D02*
X136469475Y-144395535D01*
X136290904Y-144395535D01*
X136188225Y-144431250D01*
X136125725Y-144502678D01*
X136098939Y-144574107D01*
X136081082Y-144716964D01*
X136094475Y-144824107D01*
X136148046Y-144966964D01*
X136192689Y-145038392D01*
X136273046Y-145109821D01*
X136384654Y-145145535D01*
X136563225Y-145145535D01*
X139188225Y-146683035D02*
X139094475Y-145933035D01*
X139139118Y-146290178D02*
X138710546Y-146290178D01*
X138759654Y-146683035D02*
X138665904Y-145933035D01*
X138112332Y-146647321D02*
X138188225Y-146683035D01*
X138331082Y-146683035D01*
X138398046Y-146647321D01*
X138424832Y-146575892D01*
X138389118Y-146290178D01*
X138344475Y-146218750D01*
X138268582Y-146183035D01*
X138125725Y-146183035D01*
X138058761Y-146218750D01*
X138031975Y-146290178D01*
X138040904Y-146361607D01*
X138406975Y-146433035D01*
X137438225Y-146683035D02*
X137389118Y-146290178D01*
X137415904Y-146218750D01*
X137482868Y-146183035D01*
X137625725Y-146183035D01*
X137701618Y-146218750D01*
X137433761Y-146647321D02*
X137509654Y-146683035D01*
X137688225Y-146683035D01*
X137755189Y-146647321D01*
X137781975Y-146575892D01*
X137773046Y-146504464D01*
X137728404Y-146433035D01*
X137652511Y-146397321D01*
X137473939Y-146397321D01*
X137398046Y-146361607D01*
X137125725Y-146183035D02*
X136840011Y-146183035D01*
X136987332Y-145933035D02*
X137067689Y-146575892D01*
X137040904Y-146647321D01*
X136973939Y-146683035D01*
X136902511Y-146683035D01*
X136362332Y-146647321D02*
X136438225Y-146683035D01*
X136581082Y-146683035D01*
X136648046Y-146647321D01*
X136674832Y-146575892D01*
X136639118Y-146290178D01*
X136594475Y-146218750D01*
X136518582Y-146183035D01*
X136375725Y-146183035D01*
X136308761Y-146218750D01*
X136281975Y-146290178D01*
X136290904Y-146361607D01*
X136656975Y-146433035D01*
X136009654Y-146683035D02*
X135947154Y-146183035D01*
X135965011Y-146325892D02*
X135920368Y-146254464D01*
X135880189Y-146218750D01*
X135804296Y-146183035D01*
X135732868Y-146183035D01*
X135509654Y-146397321D02*
X134938225Y-146397321D01*
X138505189Y-147245535D02*
X138420368Y-147995535D01*
X138210546Y-147459821D01*
X138134654Y-147995535D01*
X137862332Y-147245535D01*
X137670368Y-147995535D02*
X137576618Y-147245535D01*
X137621261Y-147602678D02*
X137192689Y-147602678D01*
X137241796Y-147995535D02*
X137148046Y-147245535D01*
X136884654Y-147995535D02*
X136790904Y-147245535D01*
X136540904Y-147245535D02*
X136112332Y-147245535D01*
X136420368Y-147995535D02*
X136326618Y-147245535D01*
X135906975Y-147602678D02*
X135656975Y-147602678D01*
X135598939Y-147995535D02*
X135956082Y-147995535D01*
X135862332Y-147245535D01*
X135505189Y-147245535D01*
X139384654Y-149833035D02*
X139741796Y-149833035D01*
X139648046Y-149083035D01*
X139165904Y-149797321D02*
X139063225Y-149833035D01*
X138884654Y-149833035D01*
X138808761Y-149797321D01*
X138768582Y-149761607D01*
X138723939Y-149690178D01*
X138715011Y-149618750D01*
X138741796Y-149547321D01*
X138773046Y-149511607D01*
X138840011Y-149475892D01*
X138978404Y-149440178D01*
X139045368Y-149404464D01*
X139076618Y-149368750D01*
X139103404Y-149297321D01*
X139094475Y-149225892D01*
X139049832Y-149154464D01*
X139009654Y-149118750D01*
X138933761Y-149083035D01*
X138755189Y-149083035D01*
X138652511Y-149118750D01*
X138326618Y-149083035D02*
X138402511Y-149690178D01*
X138375725Y-149761607D01*
X138344475Y-149797321D01*
X138277511Y-149833035D01*
X138134654Y-149833035D01*
X138058761Y-149797321D01*
X138018582Y-149761607D01*
X137973939Y-149690178D01*
X137898046Y-149083035D01*
X136634654Y-149833035D02*
X136840011Y-149475892D01*
X137063225Y-149833035D02*
X136969475Y-149083035D01*
X136683761Y-149083035D01*
X136616796Y-149118750D01*
X136585546Y-149154464D01*
X136558761Y-149225892D01*
X136572154Y-149333035D01*
X136616796Y-149404464D01*
X136656975Y-149440178D01*
X136732868Y-149475892D01*
X137018582Y-149475892D01*
X136357868Y-149333035D02*
X136072154Y-149333035D01*
X136219475Y-149083035D02*
X136299832Y-149725892D01*
X136273046Y-149797321D01*
X136206082Y-149833035D01*
X136134654Y-149833035D01*
X135884654Y-149833035D02*
X135822154Y-149333035D01*
X135840011Y-149475892D02*
X135795368Y-149404464D01*
X135755189Y-149368750D01*
X135679296Y-149333035D01*
X135607868Y-149333035D01*
X135420368Y-149833035D02*
X135357868Y-149333035D01*
X135326618Y-149083035D02*
X135366796Y-149118750D01*
X135335546Y-149154464D01*
X135295368Y-149118750D01*
X135326618Y-149083035D01*
X135335546Y-149154464D01*
X135063225Y-149833035D02*
X135000725Y-149333035D01*
X135009654Y-149404464D02*
X134969475Y-149368750D01*
X134893582Y-149333035D01*
X134786439Y-149333035D01*
X134719475Y-149368750D01*
X134692689Y-149440178D01*
X134741796Y-149833035D01*
X134692689Y-149440178D02*
X134648046Y-149368750D01*
X134572154Y-149333035D01*
X134465011Y-149333035D01*
X134398046Y-149368750D01*
X134371261Y-149440178D01*
X134420368Y-149833035D01*
X138241796Y-150431250D02*
X138308761Y-150395535D01*
X138415904Y-150395535D01*
X138527511Y-150431250D01*
X138607868Y-150502678D01*
X138652511Y-150574107D01*
X138706082Y-150716964D01*
X138719475Y-150824107D01*
X138701618Y-150966964D01*
X138674832Y-151038392D01*
X138612332Y-151109821D01*
X138509654Y-151145535D01*
X138438225Y-151145535D01*
X138326618Y-151109821D01*
X138286439Y-151074107D01*
X138255189Y-150824107D01*
X138398046Y-150824107D01*
X137545368Y-151145535D02*
X137750725Y-150788392D01*
X137973939Y-151145535D02*
X137880189Y-150395535D01*
X137594475Y-150395535D01*
X137527511Y-150431250D01*
X137496261Y-150466964D01*
X137469475Y-150538392D01*
X137482868Y-150645535D01*
X137527511Y-150716964D01*
X137567689Y-150752678D01*
X137643582Y-150788392D01*
X137929296Y-150788392D01*
X137174832Y-150752678D02*
X136924832Y-150752678D01*
X136866796Y-151145535D02*
X137223939Y-151145535D01*
X137130189Y-150395535D01*
X136773046Y-150395535D01*
X136496261Y-150752678D02*
X136246261Y-150752678D01*
X136188225Y-151145535D02*
X136545368Y-151145535D01*
X136451618Y-150395535D01*
X136094475Y-150395535D01*
X135866796Y-151145535D02*
X135773046Y-150395535D01*
X135438225Y-151145535D01*
X135344475Y-150395535D01*
D12*
X125729714Y-130249785D02*
X125729714Y-130785500D01*
X125765428Y-130892642D01*
X125836857Y-130964071D01*
X125944000Y-130999785D01*
X126015428Y-130999785D01*
X125372571Y-130999785D02*
X125372571Y-130249785D01*
X125086857Y-130249785D01*
X125015428Y-130285500D01*
X124979714Y-130321214D01*
X124944000Y-130392642D01*
X124944000Y-130499785D01*
X124979714Y-130571214D01*
X125015428Y-130606928D01*
X125086857Y-130642642D01*
X125372571Y-130642642D01*
X124229714Y-130999785D02*
X124658285Y-130999785D01*
X124444000Y-130999785D02*
X124444000Y-130249785D01*
X124515428Y-130356928D01*
X124586857Y-130428357D01*
X124658285Y-130464071D01*
X123872571Y-130964071D02*
X123872571Y-130999785D01*
X123908285Y-131071214D01*
X123944000Y-131106928D01*
X122765428Y-130249785D02*
X122765428Y-130785500D01*
X122801142Y-130892642D01*
X122872571Y-130964071D01*
X122979714Y-130999785D01*
X123051142Y-130999785D01*
X122408285Y-130999785D02*
X122408285Y-130249785D01*
X122122571Y-130249785D01*
X122051142Y-130285500D01*
X122015428Y-130321214D01*
X121979714Y-130392642D01*
X121979714Y-130499785D01*
X122015428Y-130571214D01*
X122051142Y-130606928D01*
X122122571Y-130642642D01*
X122408285Y-130642642D01*
X121694000Y-130321214D02*
X121658285Y-130285500D01*
X121586857Y-130249785D01*
X121408285Y-130249785D01*
X121336857Y-130285500D01*
X121301142Y-130321214D01*
X121265428Y-130392642D01*
X121265428Y-130464071D01*
X121301142Y-130571214D01*
X121729714Y-130999785D01*
X121265428Y-130999785D01*
X120944000Y-130928357D02*
X120908285Y-130964071D01*
X120944000Y-130999785D01*
X120979714Y-130964071D01*
X120944000Y-130928357D01*
X120944000Y-130999785D01*
X120944000Y-130535500D02*
X120908285Y-130571214D01*
X120944000Y-130606928D01*
X120979714Y-130571214D01*
X120944000Y-130535500D01*
X120944000Y-130606928D01*
X127979714Y-132274785D02*
X128051142Y-132239071D01*
X128086857Y-132167642D01*
X128086857Y-131524785D01*
X127586857Y-132274785D02*
X127658285Y-132239071D01*
X127694000Y-132203357D01*
X127729714Y-132131928D01*
X127729714Y-131917642D01*
X127694000Y-131846214D01*
X127658285Y-131810500D01*
X127586857Y-131774785D01*
X127479714Y-131774785D01*
X127408285Y-131810500D01*
X127372571Y-131846214D01*
X127336857Y-131917642D01*
X127336857Y-132131928D01*
X127372571Y-132203357D01*
X127408285Y-132239071D01*
X127479714Y-132274785D01*
X127586857Y-132274785D01*
X127086857Y-131774785D02*
X126944000Y-132274785D01*
X126801142Y-131917642D01*
X126658285Y-132274785D01*
X126515428Y-131774785D01*
X126194000Y-132239071D02*
X126194000Y-132274785D01*
X126229714Y-132346214D01*
X126265428Y-132381928D01*
X125194000Y-132274785D02*
X125265428Y-132239071D01*
X125301142Y-132167642D01*
X125301142Y-131524785D01*
X124801142Y-132274785D02*
X124872571Y-132239071D01*
X124908285Y-132203357D01*
X124944000Y-132131928D01*
X124944000Y-131917642D01*
X124908285Y-131846214D01*
X124872571Y-131810500D01*
X124801142Y-131774785D01*
X124694000Y-131774785D01*
X124622571Y-131810500D01*
X124586857Y-131846214D01*
X124551142Y-131917642D01*
X124551142Y-132131928D01*
X124586857Y-132203357D01*
X124622571Y-132239071D01*
X124694000Y-132274785D01*
X124801142Y-132274785D01*
X124301142Y-131774785D02*
X124158285Y-132274785D01*
X124015428Y-131917642D01*
X123872571Y-132274785D01*
X123729714Y-131774785D01*
X122872571Y-131881928D02*
X122301142Y-131881928D01*
X122301142Y-132096214D02*
X122872571Y-132096214D01*
X121372571Y-132274785D02*
X121372571Y-131774785D01*
X121372571Y-131524785D02*
X121408285Y-131560500D01*
X121372571Y-131596214D01*
X121336857Y-131560500D01*
X121372571Y-131524785D01*
X121372571Y-131596214D01*
X120694000Y-132274785D02*
X120694000Y-131524785D01*
X120694000Y-132239071D02*
X120765428Y-132274785D01*
X120908285Y-132274785D01*
X120979714Y-132239071D01*
X121015428Y-132203357D01*
X121051142Y-132131928D01*
X121051142Y-131917642D01*
X121015428Y-131846214D01*
X120979714Y-131810500D01*
X120908285Y-131774785D01*
X120765428Y-131774785D01*
X120694000Y-131810500D01*
X120408285Y-132274785D02*
X120015428Y-131774785D01*
X120408285Y-131774785D02*
X120015428Y-132274785D01*
X119194000Y-131596214D02*
X119158285Y-131560500D01*
X119086857Y-131524785D01*
X118908285Y-131524785D01*
X118836857Y-131560500D01*
X118801142Y-131596214D01*
X118765428Y-131667642D01*
X118765428Y-131739071D01*
X118801142Y-131846214D01*
X119229714Y-132274785D01*
X118765428Y-132274785D01*
X128354714Y-133549785D02*
X128426142Y-133514071D01*
X128461857Y-133442642D01*
X128461857Y-132799785D01*
X127961857Y-133549785D02*
X128033285Y-133514071D01*
X128069000Y-133478357D01*
X128104714Y-133406928D01*
X128104714Y-133192642D01*
X128069000Y-133121214D01*
X128033285Y-133085500D01*
X127961857Y-133049785D01*
X127854714Y-133049785D01*
X127783285Y-133085500D01*
X127747571Y-133121214D01*
X127711857Y-133192642D01*
X127711857Y-133406928D01*
X127747571Y-133478357D01*
X127783285Y-133514071D01*
X127854714Y-133549785D01*
X127961857Y-133549785D01*
X127461857Y-133049785D02*
X127319000Y-133549785D01*
X127176142Y-133192642D01*
X127033285Y-133549785D01*
X126890428Y-133049785D01*
X126569000Y-133514071D02*
X126569000Y-133549785D01*
X126604714Y-133621214D01*
X126640428Y-133656928D01*
X125783285Y-133049785D02*
X125497571Y-133049785D01*
X125676142Y-133549785D02*
X125676142Y-132906928D01*
X125640428Y-132835500D01*
X125569000Y-132799785D01*
X125497571Y-132799785D01*
X125140428Y-133549785D02*
X125211857Y-133514071D01*
X125247571Y-133442642D01*
X125247571Y-132799785D01*
X124747571Y-133549785D02*
X124819000Y-133514071D01*
X124854714Y-133478357D01*
X124890428Y-133406928D01*
X124890428Y-133192642D01*
X124854714Y-133121214D01*
X124819000Y-133085500D01*
X124747571Y-133049785D01*
X124640428Y-133049785D01*
X124569000Y-133085500D01*
X124533285Y-133121214D01*
X124497571Y-133192642D01*
X124497571Y-133406928D01*
X124533285Y-133478357D01*
X124569000Y-133514071D01*
X124640428Y-133549785D01*
X124747571Y-133549785D01*
X123854714Y-133549785D02*
X123854714Y-133156928D01*
X123890428Y-133085500D01*
X123961857Y-133049785D01*
X124104714Y-133049785D01*
X124176142Y-133085500D01*
X123854714Y-133514071D02*
X123926142Y-133549785D01*
X124104714Y-133549785D01*
X124176142Y-133514071D01*
X124211857Y-133442642D01*
X124211857Y-133371214D01*
X124176142Y-133299785D01*
X124104714Y-133264071D01*
X123926142Y-133264071D01*
X123854714Y-133228357D01*
X123604714Y-133049785D02*
X123319000Y-133049785D01*
X123497571Y-132799785D02*
X123497571Y-133442642D01*
X123461857Y-133514071D01*
X123390428Y-133549785D01*
X123319000Y-133549785D01*
X122497571Y-133156928D02*
X121926142Y-133156928D01*
X121926142Y-133371214D02*
X122497571Y-133371214D01*
X120997571Y-133549785D02*
X120997571Y-133049785D01*
X120997571Y-132799785D02*
X121033285Y-132835500D01*
X120997571Y-132871214D01*
X120961857Y-132835500D01*
X120997571Y-132799785D01*
X120997571Y-132871214D01*
X120319000Y-133549785D02*
X120319000Y-132799785D01*
X120319000Y-133514071D02*
X120390428Y-133549785D01*
X120533285Y-133549785D01*
X120604714Y-133514071D01*
X120640428Y-133478357D01*
X120676142Y-133406928D01*
X120676142Y-133192642D01*
X120640428Y-133121214D01*
X120604714Y-133085500D01*
X120533285Y-133049785D01*
X120390428Y-133049785D01*
X120319000Y-133085500D01*
X120033285Y-133549785D02*
X119640428Y-133049785D01*
X120033285Y-133049785D02*
X119640428Y-133549785D01*
X118640428Y-132799785D02*
X118569000Y-132799785D01*
X118497571Y-132835500D01*
X118461857Y-132871214D01*
X118426142Y-132942642D01*
X118390428Y-133085500D01*
X118390428Y-133264071D01*
X118426142Y-133406928D01*
X118461857Y-133478357D01*
X118497571Y-133514071D01*
X118569000Y-133549785D01*
X118640428Y-133549785D01*
X118711857Y-133514071D01*
X118747571Y-133478357D01*
X118783285Y-133406928D01*
X118819000Y-133264071D01*
X118819000Y-133085500D01*
X118783285Y-132942642D01*
X118747571Y-132871214D01*
X118711857Y-132835500D01*
X118640428Y-132799785D01*
X128247571Y-134824785D02*
X128319000Y-134789071D01*
X128354714Y-134717642D01*
X128354714Y-134074785D01*
X127854714Y-134824785D02*
X127926142Y-134789071D01*
X127961857Y-134753357D01*
X127997571Y-134681928D01*
X127997571Y-134467642D01*
X127961857Y-134396214D01*
X127926142Y-134360500D01*
X127854714Y-134324785D01*
X127747571Y-134324785D01*
X127676142Y-134360500D01*
X127640428Y-134396214D01*
X127604714Y-134467642D01*
X127604714Y-134681928D01*
X127640428Y-134753357D01*
X127676142Y-134789071D01*
X127747571Y-134824785D01*
X127854714Y-134824785D01*
X127354714Y-134324785D02*
X127211857Y-134824785D01*
X127069000Y-134467642D01*
X126926142Y-134824785D01*
X126783285Y-134324785D01*
X126461857Y-134789071D02*
X126461857Y-134824785D01*
X126497571Y-134896214D01*
X126533285Y-134931928D01*
X125569000Y-134824785D02*
X125569000Y-134074785D01*
X125247571Y-134824785D02*
X125247571Y-134431928D01*
X125283285Y-134360500D01*
X125354714Y-134324785D01*
X125461857Y-134324785D01*
X125533285Y-134360500D01*
X125569000Y-134396214D01*
X124890428Y-134824785D02*
X124890428Y-134324785D01*
X124890428Y-134074785D02*
X124926142Y-134110500D01*
X124890428Y-134146214D01*
X124854714Y-134110500D01*
X124890428Y-134074785D01*
X124890428Y-134146214D01*
X124211857Y-134324785D02*
X124211857Y-134931928D01*
X124247571Y-135003357D01*
X124283285Y-135039071D01*
X124354714Y-135074785D01*
X124461857Y-135074785D01*
X124533285Y-135039071D01*
X124211857Y-134789071D02*
X124283285Y-134824785D01*
X124426142Y-134824785D01*
X124497571Y-134789071D01*
X124533285Y-134753357D01*
X124569000Y-134681928D01*
X124569000Y-134467642D01*
X124533285Y-134396214D01*
X124497571Y-134360500D01*
X124426142Y-134324785D01*
X124283285Y-134324785D01*
X124211857Y-134360500D01*
X123854714Y-134824785D02*
X123854714Y-134074785D01*
X123533285Y-134824785D02*
X123533285Y-134431928D01*
X123569000Y-134360500D01*
X123640428Y-134324785D01*
X123747571Y-134324785D01*
X123819000Y-134360500D01*
X123854714Y-134396214D01*
X122604714Y-134431928D02*
X122033285Y-134431928D01*
X122033285Y-134646214D02*
X122604714Y-134646214D01*
X121104714Y-134824785D02*
X121104714Y-134324785D01*
X121104714Y-134074785D02*
X121140428Y-134110500D01*
X121104714Y-134146214D01*
X121069000Y-134110500D01*
X121104714Y-134074785D01*
X121104714Y-134146214D01*
X120426142Y-134824785D02*
X120426142Y-134074785D01*
X120426142Y-134789071D02*
X120497571Y-134824785D01*
X120640428Y-134824785D01*
X120711857Y-134789071D01*
X120747571Y-134753357D01*
X120783285Y-134681928D01*
X120783285Y-134467642D01*
X120747571Y-134396214D01*
X120711857Y-134360500D01*
X120640428Y-134324785D01*
X120497571Y-134324785D01*
X120426142Y-134360500D01*
X120140428Y-134824785D02*
X119747571Y-134324785D01*
X120140428Y-134324785D02*
X119747571Y-134824785D01*
X118961857Y-134074785D02*
X118497571Y-134074785D01*
X118747571Y-134360500D01*
X118640428Y-134360500D01*
X118569000Y-134396214D01*
X118533285Y-134431928D01*
X118497571Y-134503357D01*
X118497571Y-134681928D01*
X118533285Y-134753357D01*
X118569000Y-134789071D01*
X118640428Y-134824785D01*
X118854714Y-134824785D01*
X118926142Y-134789071D01*
X118961857Y-134753357D01*
X128569000Y-135599785D02*
X128283285Y-135599785D01*
X128461857Y-136099785D02*
X128461857Y-135456928D01*
X128426142Y-135385500D01*
X128354714Y-135349785D01*
X128283285Y-135349785D01*
X127926142Y-136099785D02*
X127997571Y-136064071D01*
X128033285Y-135992642D01*
X128033285Y-135349785D01*
X127533285Y-136099785D02*
X127604714Y-136064071D01*
X127640428Y-136028357D01*
X127676142Y-135956928D01*
X127676142Y-135742642D01*
X127640428Y-135671214D01*
X127604714Y-135635500D01*
X127533285Y-135599785D01*
X127426142Y-135599785D01*
X127354714Y-135635500D01*
X127319000Y-135671214D01*
X127283285Y-135742642D01*
X127283285Y-135956928D01*
X127319000Y-136028357D01*
X127354714Y-136064071D01*
X127426142Y-136099785D01*
X127533285Y-136099785D01*
X126640428Y-136099785D02*
X126640428Y-135706928D01*
X126676142Y-135635500D01*
X126747571Y-135599785D01*
X126890428Y-135599785D01*
X126961857Y-135635500D01*
X126640428Y-136064071D02*
X126711857Y-136099785D01*
X126890428Y-136099785D01*
X126961857Y-136064071D01*
X126997571Y-135992642D01*
X126997571Y-135921214D01*
X126961857Y-135849785D01*
X126890428Y-135814071D01*
X126711857Y-135814071D01*
X126640428Y-135778357D01*
X126390428Y-135599785D02*
X126104714Y-135599785D01*
X126283285Y-135349785D02*
X126283285Y-135992642D01*
X126247571Y-136064071D01*
X126176142Y-136099785D01*
X126104714Y-136099785D01*
X125819000Y-136064071D02*
X125819000Y-136099785D01*
X125854714Y-136171214D01*
X125890428Y-136206928D01*
X124819000Y-136099785D02*
X124890428Y-136064071D01*
X124926142Y-135992642D01*
X124926142Y-135349785D01*
X124426142Y-136099785D02*
X124497571Y-136064071D01*
X124533285Y-136028357D01*
X124569000Y-135956928D01*
X124569000Y-135742642D01*
X124533285Y-135671214D01*
X124497571Y-135635500D01*
X124426142Y-135599785D01*
X124319000Y-135599785D01*
X124247571Y-135635500D01*
X124211857Y-135671214D01*
X124176142Y-135742642D01*
X124176142Y-135956928D01*
X124211857Y-136028357D01*
X124247571Y-136064071D01*
X124319000Y-136099785D01*
X124426142Y-136099785D01*
X123926142Y-135599785D02*
X123783285Y-136099785D01*
X123640428Y-135742642D01*
X123497571Y-136099785D01*
X123354714Y-135599785D01*
X122497571Y-135706928D02*
X121926142Y-135706928D01*
X121926142Y-135921214D02*
X122497571Y-135921214D01*
X120997571Y-136099785D02*
X120997571Y-135599785D01*
X120997571Y-135349785D02*
X121033285Y-135385500D01*
X120997571Y-135421214D01*
X120961857Y-135385500D01*
X120997571Y-135349785D01*
X120997571Y-135421214D01*
X120319000Y-136099785D02*
X120319000Y-135349785D01*
X120319000Y-136064071D02*
X120390428Y-136099785D01*
X120533285Y-136099785D01*
X120604714Y-136064071D01*
X120640428Y-136028357D01*
X120676142Y-135956928D01*
X120676142Y-135742642D01*
X120640428Y-135671214D01*
X120604714Y-135635500D01*
X120533285Y-135599785D01*
X120390428Y-135599785D01*
X120319000Y-135635500D01*
X120033285Y-136099785D02*
X119640428Y-135599785D01*
X120033285Y-135599785D02*
X119640428Y-136099785D01*
X118461857Y-135599785D02*
X118461857Y-136099785D01*
X118640428Y-135314071D02*
X118819000Y-135849785D01*
X118354714Y-135849785D01*
X128836857Y-136874785D02*
X128551142Y-136874785D01*
X128729714Y-137374785D02*
X128729714Y-136731928D01*
X128694000Y-136660500D01*
X128622571Y-136624785D01*
X128551142Y-136624785D01*
X128194000Y-137374785D02*
X128265428Y-137339071D01*
X128301142Y-137267642D01*
X128301142Y-136624785D01*
X127801142Y-137374785D02*
X127872571Y-137339071D01*
X127908285Y-137303357D01*
X127944000Y-137231928D01*
X127944000Y-137017642D01*
X127908285Y-136946214D01*
X127872571Y-136910500D01*
X127801142Y-136874785D01*
X127694000Y-136874785D01*
X127622571Y-136910500D01*
X127586857Y-136946214D01*
X127551142Y-137017642D01*
X127551142Y-137231928D01*
X127586857Y-137303357D01*
X127622571Y-137339071D01*
X127694000Y-137374785D01*
X127801142Y-137374785D01*
X126908285Y-137374785D02*
X126908285Y-136981928D01*
X126944000Y-136910500D01*
X127015428Y-136874785D01*
X127158285Y-136874785D01*
X127229714Y-136910500D01*
X126908285Y-137339071D02*
X126979714Y-137374785D01*
X127158285Y-137374785D01*
X127229714Y-137339071D01*
X127265428Y-137267642D01*
X127265428Y-137196214D01*
X127229714Y-137124785D01*
X127158285Y-137089071D01*
X126979714Y-137089071D01*
X126908285Y-137053357D01*
X126658285Y-136874785D02*
X126372571Y-136874785D01*
X126551142Y-136624785D02*
X126551142Y-137267642D01*
X126515428Y-137339071D01*
X126444000Y-137374785D01*
X126372571Y-137374785D01*
X126086857Y-137339071D02*
X126086857Y-137374785D01*
X126122571Y-137446214D01*
X126158285Y-137481928D01*
X125194000Y-137374785D02*
X125194000Y-136624785D01*
X124872571Y-137374785D02*
X124872571Y-136981928D01*
X124908285Y-136910500D01*
X124979714Y-136874785D01*
X125086857Y-136874785D01*
X125158285Y-136910500D01*
X125194000Y-136946214D01*
X124515428Y-137374785D02*
X124515428Y-136874785D01*
X124515428Y-136624785D02*
X124551142Y-136660500D01*
X124515428Y-136696214D01*
X124479714Y-136660500D01*
X124515428Y-136624785D01*
X124515428Y-136696214D01*
X123836857Y-136874785D02*
X123836857Y-137481928D01*
X123872571Y-137553357D01*
X123908285Y-137589071D01*
X123979714Y-137624785D01*
X124086857Y-137624785D01*
X124158285Y-137589071D01*
X123836857Y-137339071D02*
X123908285Y-137374785D01*
X124051142Y-137374785D01*
X124122571Y-137339071D01*
X124158285Y-137303357D01*
X124194000Y-137231928D01*
X124194000Y-137017642D01*
X124158285Y-136946214D01*
X124122571Y-136910500D01*
X124051142Y-136874785D01*
X123908285Y-136874785D01*
X123836857Y-136910500D01*
X123479714Y-137374785D02*
X123479714Y-136624785D01*
X123158285Y-137374785D02*
X123158285Y-136981928D01*
X123194000Y-136910500D01*
X123265428Y-136874785D01*
X123372571Y-136874785D01*
X123444000Y-136910500D01*
X123479714Y-136946214D01*
X122229714Y-136981928D02*
X121658285Y-136981928D01*
X121658285Y-137196214D02*
X122229714Y-137196214D01*
X120729714Y-137374785D02*
X120729714Y-136874785D01*
X120729714Y-136624785D02*
X120765428Y-136660500D01*
X120729714Y-136696214D01*
X120694000Y-136660500D01*
X120729714Y-136624785D01*
X120729714Y-136696214D01*
X120051142Y-137374785D02*
X120051142Y-136624785D01*
X120051142Y-137339071D02*
X120122571Y-137374785D01*
X120265428Y-137374785D01*
X120336857Y-137339071D01*
X120372571Y-137303357D01*
X120408285Y-137231928D01*
X120408285Y-137017642D01*
X120372571Y-136946214D01*
X120336857Y-136910500D01*
X120265428Y-136874785D01*
X120122571Y-136874785D01*
X120051142Y-136910500D01*
X119765428Y-137374785D02*
X119372571Y-136874785D01*
X119765428Y-136874785D02*
X119372571Y-137374785D01*
X118122571Y-137374785D02*
X118551142Y-137374785D01*
X118336857Y-137374785D02*
X118336857Y-136624785D01*
X118408285Y-136731928D01*
X118479714Y-136803357D01*
X118551142Y-136839071D01*
X128354714Y-138649785D02*
X128354714Y-137899785D01*
X128033285Y-138649785D02*
X128033285Y-138256928D01*
X128069000Y-138185500D01*
X128140428Y-138149785D01*
X128247571Y-138149785D01*
X128319000Y-138185500D01*
X128354714Y-138221214D01*
X127676142Y-138649785D02*
X127676142Y-138149785D01*
X127676142Y-137899785D02*
X127711857Y-137935500D01*
X127676142Y-137971214D01*
X127640428Y-137935500D01*
X127676142Y-137899785D01*
X127676142Y-137971214D01*
X126997571Y-138149785D02*
X126997571Y-138756928D01*
X127033285Y-138828357D01*
X127069000Y-138864071D01*
X127140428Y-138899785D01*
X127247571Y-138899785D01*
X127319000Y-138864071D01*
X126997571Y-138614071D02*
X127069000Y-138649785D01*
X127211857Y-138649785D01*
X127283285Y-138614071D01*
X127319000Y-138578357D01*
X127354714Y-138506928D01*
X127354714Y-138292642D01*
X127319000Y-138221214D01*
X127283285Y-138185500D01*
X127211857Y-138149785D01*
X127069000Y-138149785D01*
X126997571Y-138185500D01*
X126640428Y-138649785D02*
X126640428Y-137899785D01*
X126319000Y-138649785D02*
X126319000Y-138256928D01*
X126354714Y-138185500D01*
X126426142Y-138149785D01*
X126533285Y-138149785D01*
X126604714Y-138185500D01*
X126640428Y-138221214D01*
X125926142Y-138614071D02*
X125926142Y-138649785D01*
X125961857Y-138721214D01*
X125997571Y-138756928D01*
X124926142Y-138649785D02*
X124997571Y-138614071D01*
X125033285Y-138542642D01*
X125033285Y-137899785D01*
X124533285Y-138649785D02*
X124604714Y-138614071D01*
X124640428Y-138578357D01*
X124676142Y-138506928D01*
X124676142Y-138292642D01*
X124640428Y-138221214D01*
X124604714Y-138185500D01*
X124533285Y-138149785D01*
X124426142Y-138149785D01*
X124354714Y-138185500D01*
X124319000Y-138221214D01*
X124283285Y-138292642D01*
X124283285Y-138506928D01*
X124319000Y-138578357D01*
X124354714Y-138614071D01*
X124426142Y-138649785D01*
X124533285Y-138649785D01*
X124033285Y-138149785D02*
X123890428Y-138649785D01*
X123747571Y-138292642D01*
X123604714Y-138649785D01*
X123461857Y-138149785D01*
X122604714Y-138256928D02*
X122033285Y-138256928D01*
X122033285Y-138471214D02*
X122604714Y-138471214D01*
X121104714Y-138649785D02*
X121104714Y-138149785D01*
X121104714Y-137899785D02*
X121140428Y-137935500D01*
X121104714Y-137971214D01*
X121069000Y-137935500D01*
X121104714Y-137899785D01*
X121104714Y-137971214D01*
X120426142Y-138649785D02*
X120426142Y-137899785D01*
X120426142Y-138614071D02*
X120497571Y-138649785D01*
X120640428Y-138649785D01*
X120711857Y-138614071D01*
X120747571Y-138578357D01*
X120783285Y-138506928D01*
X120783285Y-138292642D01*
X120747571Y-138221214D01*
X120711857Y-138185500D01*
X120640428Y-138149785D01*
X120497571Y-138149785D01*
X120426142Y-138185500D01*
X120140428Y-138649785D02*
X119747571Y-138149785D01*
X120140428Y-138149785D02*
X119747571Y-138649785D01*
X118533285Y-137899785D02*
X118890428Y-137899785D01*
X118926142Y-138256928D01*
X118890428Y-138221214D01*
X118819000Y-138185500D01*
X118640428Y-138185500D01*
X118569000Y-138221214D01*
X118533285Y-138256928D01*
X118497571Y-138328357D01*
X118497571Y-138506928D01*
X118533285Y-138578357D01*
X118569000Y-138614071D01*
X118640428Y-138649785D01*
X118819000Y-138649785D01*
X118890428Y-138614071D01*
X118926142Y-138578357D01*
X128729714Y-139924785D02*
X128729714Y-139174785D01*
X128408285Y-139924785D02*
X128408285Y-139531928D01*
X128444000Y-139460500D01*
X128515428Y-139424785D01*
X128622571Y-139424785D01*
X128694000Y-139460500D01*
X128729714Y-139496214D01*
X128051142Y-139924785D02*
X128051142Y-139424785D01*
X128051142Y-139174785D02*
X128086857Y-139210500D01*
X128051142Y-139246214D01*
X128015428Y-139210500D01*
X128051142Y-139174785D01*
X128051142Y-139246214D01*
X127372571Y-139424785D02*
X127372571Y-140031928D01*
X127408285Y-140103357D01*
X127444000Y-140139071D01*
X127515428Y-140174785D01*
X127622571Y-140174785D01*
X127694000Y-140139071D01*
X127372571Y-139889071D02*
X127444000Y-139924785D01*
X127586857Y-139924785D01*
X127658285Y-139889071D01*
X127694000Y-139853357D01*
X127729714Y-139781928D01*
X127729714Y-139567642D01*
X127694000Y-139496214D01*
X127658285Y-139460500D01*
X127586857Y-139424785D01*
X127444000Y-139424785D01*
X127372571Y-139460500D01*
X127015428Y-139924785D02*
X127015428Y-139174785D01*
X126694000Y-139924785D02*
X126694000Y-139531928D01*
X126729714Y-139460500D01*
X126801142Y-139424785D01*
X126908285Y-139424785D01*
X126979714Y-139460500D01*
X127015428Y-139496214D01*
X126301142Y-139889071D02*
X126301142Y-139924785D01*
X126336857Y-139996214D01*
X126372571Y-140031928D01*
X125515428Y-139424785D02*
X125229714Y-139424785D01*
X125408285Y-139924785D02*
X125408285Y-139281928D01*
X125372571Y-139210500D01*
X125301142Y-139174785D01*
X125229714Y-139174785D01*
X124872571Y-139924785D02*
X124944000Y-139889071D01*
X124979714Y-139817642D01*
X124979714Y-139174785D01*
X124479714Y-139924785D02*
X124551142Y-139889071D01*
X124586857Y-139853357D01*
X124622571Y-139781928D01*
X124622571Y-139567642D01*
X124586857Y-139496214D01*
X124551142Y-139460500D01*
X124479714Y-139424785D01*
X124372571Y-139424785D01*
X124301142Y-139460500D01*
X124265428Y-139496214D01*
X124229714Y-139567642D01*
X124229714Y-139781928D01*
X124265428Y-139853357D01*
X124301142Y-139889071D01*
X124372571Y-139924785D01*
X124479714Y-139924785D01*
X123586857Y-139924785D02*
X123586857Y-139531928D01*
X123622571Y-139460500D01*
X123694000Y-139424785D01*
X123836857Y-139424785D01*
X123908285Y-139460500D01*
X123586857Y-139889071D02*
X123658285Y-139924785D01*
X123836857Y-139924785D01*
X123908285Y-139889071D01*
X123944000Y-139817642D01*
X123944000Y-139746214D01*
X123908285Y-139674785D01*
X123836857Y-139639071D01*
X123658285Y-139639071D01*
X123586857Y-139603357D01*
X123336857Y-139424785D02*
X123051142Y-139424785D01*
X123229714Y-139174785D02*
X123229714Y-139817642D01*
X123194000Y-139889071D01*
X123122571Y-139924785D01*
X123051142Y-139924785D01*
X122229714Y-139531928D02*
X121658285Y-139531928D01*
X121658285Y-139746214D02*
X122229714Y-139746214D01*
X120729714Y-139924785D02*
X120729714Y-139424785D01*
X120729714Y-139174785D02*
X120765428Y-139210500D01*
X120729714Y-139246214D01*
X120694000Y-139210500D01*
X120729714Y-139174785D01*
X120729714Y-139246214D01*
X120051142Y-139924785D02*
X120051142Y-139174785D01*
X120051142Y-139889071D02*
X120122571Y-139924785D01*
X120265428Y-139924785D01*
X120336857Y-139889071D01*
X120372571Y-139853357D01*
X120408285Y-139781928D01*
X120408285Y-139567642D01*
X120372571Y-139496214D01*
X120336857Y-139460500D01*
X120265428Y-139424785D01*
X120122571Y-139424785D01*
X120051142Y-139460500D01*
X119765428Y-139924785D02*
X119372571Y-139424785D01*
X119765428Y-139424785D02*
X119372571Y-139924785D01*
X118194000Y-139174785D02*
X118336857Y-139174785D01*
X118408285Y-139210500D01*
X118444000Y-139246214D01*
X118515428Y-139353357D01*
X118551142Y-139496214D01*
X118551142Y-139781928D01*
X118515428Y-139853357D01*
X118479714Y-139889071D01*
X118408285Y-139924785D01*
X118265428Y-139924785D01*
X118194000Y-139889071D01*
X118158285Y-139853357D01*
X118122571Y-139781928D01*
X118122571Y-139603357D01*
X118158285Y-139531928D01*
X118194000Y-139496214D01*
X118265428Y-139460500D01*
X118408285Y-139460500D01*
X118479714Y-139496214D01*
X118515428Y-139531928D01*
X118551142Y-139603357D01*
X128622571Y-141199785D02*
X128622571Y-140449785D01*
X128301142Y-141199785D02*
X128301142Y-140806928D01*
X128336857Y-140735500D01*
X128408285Y-140699785D01*
X128515428Y-140699785D01*
X128586857Y-140735500D01*
X128622571Y-140771214D01*
X127944000Y-141199785D02*
X127944000Y-140699785D01*
X127944000Y-140449785D02*
X127979714Y-140485500D01*
X127944000Y-140521214D01*
X127908285Y-140485500D01*
X127944000Y-140449785D01*
X127944000Y-140521214D01*
X127265428Y-140699785D02*
X127265428Y-141306928D01*
X127301142Y-141378357D01*
X127336857Y-141414071D01*
X127408285Y-141449785D01*
X127515428Y-141449785D01*
X127586857Y-141414071D01*
X127265428Y-141164071D02*
X127336857Y-141199785D01*
X127479714Y-141199785D01*
X127551142Y-141164071D01*
X127586857Y-141128357D01*
X127622571Y-141056928D01*
X127622571Y-140842642D01*
X127586857Y-140771214D01*
X127551142Y-140735500D01*
X127479714Y-140699785D01*
X127336857Y-140699785D01*
X127265428Y-140735500D01*
X126908285Y-141199785D02*
X126908285Y-140449785D01*
X126586857Y-141199785D02*
X126586857Y-140806928D01*
X126622571Y-140735500D01*
X126694000Y-140699785D01*
X126801142Y-140699785D01*
X126872571Y-140735500D01*
X126908285Y-140771214D01*
X126194000Y-141164071D02*
X126194000Y-141199785D01*
X126229714Y-141271214D01*
X126265428Y-141306928D01*
X125301142Y-141199785D02*
X125301142Y-140449785D01*
X124979714Y-141199785D02*
X124979714Y-140806928D01*
X125015428Y-140735500D01*
X125086857Y-140699785D01*
X125194000Y-140699785D01*
X125265428Y-140735500D01*
X125301142Y-140771214D01*
X124622571Y-141199785D02*
X124622571Y-140699785D01*
X124622571Y-140449785D02*
X124658285Y-140485500D01*
X124622571Y-140521214D01*
X124586857Y-140485500D01*
X124622571Y-140449785D01*
X124622571Y-140521214D01*
X123944000Y-140699785D02*
X123944000Y-141306928D01*
X123979714Y-141378357D01*
X124015428Y-141414071D01*
X124086857Y-141449785D01*
X124194000Y-141449785D01*
X124265428Y-141414071D01*
X123944000Y-141164071D02*
X124015428Y-141199785D01*
X124158285Y-141199785D01*
X124229714Y-141164071D01*
X124265428Y-141128357D01*
X124301142Y-141056928D01*
X124301142Y-140842642D01*
X124265428Y-140771214D01*
X124229714Y-140735500D01*
X124158285Y-140699785D01*
X124015428Y-140699785D01*
X123944000Y-140735500D01*
X123586857Y-141199785D02*
X123586857Y-140449785D01*
X123265428Y-141199785D02*
X123265428Y-140806928D01*
X123301142Y-140735500D01*
X123372571Y-140699785D01*
X123479714Y-140699785D01*
X123551142Y-140735500D01*
X123586857Y-140771214D01*
X122336857Y-140806928D02*
X121765428Y-140806928D01*
X121765428Y-141021214D02*
X122336857Y-141021214D01*
X120836857Y-141199785D02*
X120836857Y-140699785D01*
X120836857Y-140449785D02*
X120872571Y-140485500D01*
X120836857Y-140521214D01*
X120801142Y-140485500D01*
X120836857Y-140449785D01*
X120836857Y-140521214D01*
X120158285Y-141199785D02*
X120158285Y-140449785D01*
X120158285Y-141164071D02*
X120229714Y-141199785D01*
X120372571Y-141199785D01*
X120444000Y-141164071D01*
X120479714Y-141128357D01*
X120515428Y-141056928D01*
X120515428Y-140842642D01*
X120479714Y-140771214D01*
X120444000Y-140735500D01*
X120372571Y-140699785D01*
X120229714Y-140699785D01*
X120158285Y-140735500D01*
X119872571Y-141199785D02*
X119479714Y-140699785D01*
X119872571Y-140699785D02*
X119479714Y-141199785D01*
X118694000Y-140449785D02*
X118194000Y-140449785D01*
X118515428Y-141199785D01*
X133069000Y-141974785D02*
X132783285Y-141974785D01*
X132961857Y-142474785D02*
X132961857Y-141831928D01*
X132926142Y-141760500D01*
X132854714Y-141724785D01*
X132783285Y-141724785D01*
X132426142Y-142474785D02*
X132497571Y-142439071D01*
X132533285Y-142367642D01*
X132533285Y-141724785D01*
X132033285Y-142474785D02*
X132104714Y-142439071D01*
X132140428Y-142403357D01*
X132176142Y-142331928D01*
X132176142Y-142117642D01*
X132140428Y-142046214D01*
X132104714Y-142010500D01*
X132033285Y-141974785D01*
X131926142Y-141974785D01*
X131854714Y-142010500D01*
X131819000Y-142046214D01*
X131783285Y-142117642D01*
X131783285Y-142331928D01*
X131819000Y-142403357D01*
X131854714Y-142439071D01*
X131926142Y-142474785D01*
X132033285Y-142474785D01*
X131140428Y-142474785D02*
X131140428Y-142081928D01*
X131176142Y-142010500D01*
X131247571Y-141974785D01*
X131390428Y-141974785D01*
X131461857Y-142010500D01*
X131140428Y-142439071D02*
X131211857Y-142474785D01*
X131390428Y-142474785D01*
X131461857Y-142439071D01*
X131497571Y-142367642D01*
X131497571Y-142296214D01*
X131461857Y-142224785D01*
X131390428Y-142189071D01*
X131211857Y-142189071D01*
X131140428Y-142153357D01*
X130890428Y-141974785D02*
X130604714Y-141974785D01*
X130783285Y-141724785D02*
X130783285Y-142367642D01*
X130747571Y-142439071D01*
X130676142Y-142474785D01*
X130604714Y-142474785D01*
X130319000Y-142439071D02*
X130319000Y-142474785D01*
X130354714Y-142546214D01*
X130390428Y-142581928D01*
X129533285Y-141974785D02*
X129247571Y-141974785D01*
X129426142Y-142474785D02*
X129426142Y-141831928D01*
X129390428Y-141760500D01*
X129319000Y-141724785D01*
X129247571Y-141724785D01*
X128890428Y-142474785D02*
X128961857Y-142439071D01*
X128997571Y-142367642D01*
X128997571Y-141724785D01*
X128497571Y-142474785D02*
X128569000Y-142439071D01*
X128604714Y-142403357D01*
X128640428Y-142331928D01*
X128640428Y-142117642D01*
X128604714Y-142046214D01*
X128569000Y-142010500D01*
X128497571Y-141974785D01*
X128390428Y-141974785D01*
X128319000Y-142010500D01*
X128283285Y-142046214D01*
X128247571Y-142117642D01*
X128247571Y-142331928D01*
X128283285Y-142403357D01*
X128319000Y-142439071D01*
X128390428Y-142474785D01*
X128497571Y-142474785D01*
X127604714Y-142474785D02*
X127604714Y-142081928D01*
X127640428Y-142010500D01*
X127711857Y-141974785D01*
X127854714Y-141974785D01*
X127926142Y-142010500D01*
X127604714Y-142439071D02*
X127676142Y-142474785D01*
X127854714Y-142474785D01*
X127926142Y-142439071D01*
X127961857Y-142367642D01*
X127961857Y-142296214D01*
X127926142Y-142224785D01*
X127854714Y-142189071D01*
X127676142Y-142189071D01*
X127604714Y-142153357D01*
X127354714Y-141974785D02*
X127069000Y-141974785D01*
X127247571Y-141724785D02*
X127247571Y-142367642D01*
X127211857Y-142439071D01*
X127140428Y-142474785D01*
X127069000Y-142474785D01*
X126247571Y-142081928D02*
X125676142Y-142081928D01*
X125676142Y-142296214D02*
X126247571Y-142296214D01*
X124747571Y-142474785D02*
X124747571Y-141974785D01*
X124747571Y-142117642D02*
X124711857Y-142046214D01*
X124676142Y-142010500D01*
X124604714Y-141974785D01*
X124533285Y-141974785D01*
X123997571Y-142439071D02*
X124069000Y-142474785D01*
X124211857Y-142474785D01*
X124283285Y-142439071D01*
X124319000Y-142367642D01*
X124319000Y-142081928D01*
X124283285Y-142010500D01*
X124211857Y-141974785D01*
X124069000Y-141974785D01*
X123997571Y-142010500D01*
X123961857Y-142081928D01*
X123961857Y-142153357D01*
X124319000Y-142224785D01*
X123319000Y-142474785D02*
X123319000Y-142081928D01*
X123354714Y-142010500D01*
X123426142Y-141974785D01*
X123569000Y-141974785D01*
X123640428Y-142010500D01*
X123319000Y-142439071D02*
X123390428Y-142474785D01*
X123569000Y-142474785D01*
X123640428Y-142439071D01*
X123676142Y-142367642D01*
X123676142Y-142296214D01*
X123640428Y-142224785D01*
X123569000Y-142189071D01*
X123390428Y-142189071D01*
X123319000Y-142153357D01*
X122640428Y-142474785D02*
X122640428Y-141724785D01*
X122640428Y-142439071D02*
X122711857Y-142474785D01*
X122854714Y-142474785D01*
X122926142Y-142439071D01*
X122961857Y-142403357D01*
X122997571Y-142331928D01*
X122997571Y-142117642D01*
X122961857Y-142046214D01*
X122926142Y-142010500D01*
X122854714Y-141974785D01*
X122711857Y-141974785D01*
X122640428Y-142010500D01*
X121711857Y-142474785D02*
X121711857Y-141974785D01*
X121711857Y-141724785D02*
X121747571Y-141760500D01*
X121711857Y-141796214D01*
X121676142Y-141760500D01*
X121711857Y-141724785D01*
X121711857Y-141796214D01*
X121033285Y-142474785D02*
X121033285Y-141724785D01*
X121033285Y-142439071D02*
X121104714Y-142474785D01*
X121247571Y-142474785D01*
X121319000Y-142439071D01*
X121354714Y-142403357D01*
X121390428Y-142331928D01*
X121390428Y-142117642D01*
X121354714Y-142046214D01*
X121319000Y-142010500D01*
X121247571Y-141974785D01*
X121104714Y-141974785D01*
X121033285Y-142010500D01*
X120747571Y-142474785D02*
X120354714Y-141974785D01*
X120747571Y-141974785D02*
X120354714Y-142474785D01*
X119604714Y-141974785D02*
X119319000Y-141974785D01*
X119497571Y-142474785D02*
X119497571Y-141831928D01*
X119461857Y-141760500D01*
X119390428Y-141724785D01*
X119319000Y-141724785D01*
X119069000Y-142474785D02*
X119069000Y-141974785D01*
X119069000Y-142117642D02*
X119033285Y-142046214D01*
X118997571Y-142010500D01*
X118926142Y-141974785D01*
X118854714Y-141974785D01*
X118497571Y-142474785D02*
X118569000Y-142439071D01*
X118604714Y-142403357D01*
X118640428Y-142331928D01*
X118640428Y-142117642D01*
X118604714Y-142046214D01*
X118569000Y-142010500D01*
X118497571Y-141974785D01*
X118390428Y-141974785D01*
X118319000Y-142010500D01*
X118283285Y-142046214D01*
X118247571Y-142117642D01*
X118247571Y-142331928D01*
X118283285Y-142403357D01*
X118319000Y-142439071D01*
X118390428Y-142474785D01*
X118497571Y-142474785D01*
X117926142Y-142474785D02*
X117926142Y-141974785D01*
X117926142Y-142046214D02*
X117890428Y-142010500D01*
X117819000Y-141974785D01*
X117711857Y-141974785D01*
X117640428Y-142010500D01*
X117604714Y-142081928D01*
X117604714Y-142474785D01*
X117604714Y-142081928D02*
X117569000Y-142010500D01*
X117497571Y-141974785D01*
X117390428Y-141974785D01*
X117319000Y-142010500D01*
X117283285Y-142081928D01*
X117283285Y-142474785D01*
X116461857Y-141974785D02*
X116176142Y-141974785D01*
X116354714Y-142474785D02*
X116354714Y-141831928D01*
X116319000Y-141760500D01*
X116247571Y-141724785D01*
X116176142Y-141724785D01*
X115819000Y-142474785D02*
X115890428Y-142439071D01*
X115926142Y-142367642D01*
X115926142Y-141724785D01*
X115211857Y-142474785D02*
X115211857Y-142081928D01*
X115247571Y-142010500D01*
X115319000Y-141974785D01*
X115461857Y-141974785D01*
X115533285Y-142010500D01*
X115211857Y-142439071D02*
X115283285Y-142474785D01*
X115461857Y-142474785D01*
X115533285Y-142439071D01*
X115569000Y-142367642D01*
X115569000Y-142296214D01*
X115533285Y-142224785D01*
X115461857Y-142189071D01*
X115283285Y-142189071D01*
X115211857Y-142153357D01*
X114890428Y-142439071D02*
X114819000Y-142474785D01*
X114676142Y-142474785D01*
X114604714Y-142439071D01*
X114569000Y-142367642D01*
X114569000Y-142331928D01*
X114604714Y-142260500D01*
X114676142Y-142224785D01*
X114783285Y-142224785D01*
X114854714Y-142189071D01*
X114890428Y-142117642D01*
X114890428Y-142081928D01*
X114854714Y-142010500D01*
X114783285Y-141974785D01*
X114676142Y-141974785D01*
X114604714Y-142010500D01*
X114247571Y-142474785D02*
X114247571Y-141724785D01*
X113926142Y-142474785D02*
X113926142Y-142081928D01*
X113961857Y-142010500D01*
X114033285Y-141974785D01*
X114140428Y-141974785D01*
X114211857Y-142010500D01*
X114247571Y-142046214D01*
D14*
X116358221Y-126226190D02*
X116048697Y-126226190D01*
X116239174Y-126416666D01*
X116167745Y-126416666D01*
X116123102Y-126440476D01*
X116102269Y-126464285D01*
X116084412Y-126511904D01*
X116099293Y-126630952D01*
X116129055Y-126678571D01*
X116155840Y-126702380D01*
X116206436Y-126726190D01*
X116349293Y-126726190D01*
X116393936Y-126702380D01*
X116414769Y-126678571D01*
X115890959Y-126678571D02*
X115870126Y-126702380D01*
X115896912Y-126726190D01*
X115917745Y-126702380D01*
X115890959Y-126678571D01*
X115896912Y-126726190D01*
X115643936Y-126226190D02*
X115334412Y-126226190D01*
X115524888Y-126416666D01*
X115453459Y-126416666D01*
X115408816Y-126440476D01*
X115387983Y-126464285D01*
X115370126Y-126511904D01*
X115385007Y-126630952D01*
X115414769Y-126678571D01*
X115441555Y-126702380D01*
X115492150Y-126726190D01*
X115635007Y-126726190D01*
X115679650Y-126702380D01*
X115700483Y-126678571D01*
X115191555Y-126226190D02*
X115087388Y-126726190D01*
X114858221Y-126226190D01*
X114012983Y-126702380D02*
X113944531Y-126726190D01*
X113825483Y-126726190D01*
X113774888Y-126702380D01*
X113748102Y-126678571D01*
X113718340Y-126630952D01*
X113712388Y-126583333D01*
X113730245Y-126535714D01*
X113751078Y-126511904D01*
X113795721Y-126488095D01*
X113887983Y-126464285D01*
X113932626Y-126440476D01*
X113953459Y-126416666D01*
X113971316Y-126369047D01*
X113965364Y-126321428D01*
X113935602Y-126273809D01*
X113908816Y-126250000D01*
X113858221Y-126226190D01*
X113739174Y-126226190D01*
X113670721Y-126250000D01*
X113501078Y-126226190D02*
X113444531Y-126726190D01*
X113304650Y-126369047D01*
X113254055Y-126726190D01*
X113072507Y-126226190D01*
X112652864Y-126678571D02*
X112679650Y-126702380D01*
X112754055Y-126726190D01*
X112801674Y-126726190D01*
X112870126Y-126702380D01*
X112911793Y-126654761D01*
X112929650Y-126607142D01*
X112941555Y-126511904D01*
X112932626Y-126440476D01*
X112896912Y-126345238D01*
X112867150Y-126297619D01*
X112813578Y-126250000D01*
X112739174Y-126226190D01*
X112691555Y-126226190D01*
X112623102Y-126250000D01*
X112602269Y-126273809D01*
X112206436Y-126726190D02*
X112444531Y-126726190D01*
X112382031Y-126226190D01*
X112039769Y-126726190D02*
X111977269Y-126226190D01*
X111754055Y-126726190D02*
X111932626Y-126440476D01*
X111691555Y-126226190D02*
X112012983Y-126511904D01*
X110837388Y-126250000D02*
X110882031Y-126226190D01*
X110953459Y-126226190D01*
X111027864Y-126250000D01*
X111081436Y-126297619D01*
X111111197Y-126345238D01*
X111146912Y-126440476D01*
X111155840Y-126511904D01*
X111143936Y-126607142D01*
X111126078Y-126654761D01*
X111084412Y-126702380D01*
X111015959Y-126726190D01*
X110968340Y-126726190D01*
X110893936Y-126702380D01*
X110867150Y-126678571D01*
X110846316Y-126511904D01*
X110941555Y-126511904D01*
X110658816Y-126726190D02*
X110596316Y-126226190D01*
X110373102Y-126726190D01*
X110310602Y-126226190D01*
X110135007Y-126726190D02*
X110072507Y-126226190D01*
X109953459Y-126226190D01*
X109885007Y-126250000D01*
X109843340Y-126297619D01*
X109825483Y-126345238D01*
X109813578Y-126440476D01*
X109822507Y-126511904D01*
X109858221Y-126607142D01*
X109887983Y-126654761D01*
X109941555Y-126702380D01*
X110015959Y-126726190D01*
X110135007Y-126726190D01*
X109274888Y-126702380D02*
X109206436Y-126726190D01*
X109087388Y-126726190D01*
X109036793Y-126702380D01*
X109010007Y-126678571D01*
X108980245Y-126630952D01*
X108974293Y-126583333D01*
X108992150Y-126535714D01*
X109012983Y-126511904D01*
X109057626Y-126488095D01*
X109149888Y-126464285D01*
X109194531Y-126440476D01*
X109215364Y-126416666D01*
X109233221Y-126369047D01*
X109227269Y-126321428D01*
X109197507Y-126273809D01*
X109170721Y-126250000D01*
X109120126Y-126226190D01*
X109001078Y-126226190D01*
X108932626Y-126250000D01*
X108762983Y-126226190D02*
X108706436Y-126726190D01*
X108566555Y-126369047D01*
X108515959Y-126726190D01*
X108334412Y-126226190D01*
X108206436Y-126726190D02*
X108143936Y-126226190D01*
X108024888Y-126226190D01*
X107956436Y-126250000D01*
X107914769Y-126297619D01*
X107896912Y-126345238D01*
X107885007Y-126440476D01*
X107893936Y-126511904D01*
X107929650Y-126607142D01*
X107959412Y-126654761D01*
X108012983Y-126702380D01*
X108087388Y-126726190D01*
X108206436Y-126726190D01*
X107706436Y-126726190D02*
X107643936Y-126226190D01*
X107310602Y-126226190D02*
X107215364Y-126226190D01*
X107170721Y-126250000D01*
X107129055Y-126297619D01*
X107117150Y-126392857D01*
X107137983Y-126559523D01*
X107173697Y-126654761D01*
X107227269Y-126702380D01*
X107277864Y-126726190D01*
X107373102Y-126726190D01*
X107417745Y-126702380D01*
X107459412Y-126654761D01*
X107471316Y-126559523D01*
X107450483Y-126392857D01*
X107414769Y-126297619D01*
X107361197Y-126250000D01*
X107310602Y-126226190D01*
X106521912Y-126392857D02*
X106563578Y-126726190D01*
X106527864Y-126440476D02*
X106501078Y-126416666D01*
X106450483Y-126392857D01*
X106379055Y-126392857D01*
X106334412Y-126416666D01*
X106316555Y-126464285D01*
X106349293Y-126726190D01*
X105825483Y-126726190D02*
X105962388Y-126488095D01*
X106111197Y-126726190D02*
X106048697Y-126226190D01*
X105858221Y-126226190D01*
X105813578Y-126250000D01*
X105792745Y-126273809D01*
X105774888Y-126321428D01*
X105783816Y-126392857D01*
X105813578Y-126440476D01*
X105840364Y-126464285D01*
X105890959Y-126488095D01*
X106081436Y-126488095D01*
X105578459Y-126464285D02*
X105411793Y-126464285D01*
X105373102Y-126726190D02*
X105611197Y-126726190D01*
X105548697Y-126226190D01*
X105310602Y-126226190D01*
X105179650Y-126702380D02*
X105111197Y-126726190D01*
X104992150Y-126726190D01*
X104941555Y-126702380D01*
X104914769Y-126678571D01*
X104885007Y-126630952D01*
X104879055Y-126583333D01*
X104896912Y-126535714D01*
X104917745Y-126511904D01*
X104962388Y-126488095D01*
X105054650Y-126464285D01*
X105099293Y-126440476D01*
X105120126Y-126416666D01*
X105137983Y-126369047D01*
X105132031Y-126321428D01*
X105102269Y-126273809D01*
X105075483Y-126250000D01*
X105024888Y-126226190D01*
X104905840Y-126226190D01*
X104837388Y-126250000D01*
X104649888Y-126464285D02*
X104483221Y-126464285D01*
X104444531Y-126726190D02*
X104682626Y-126726190D01*
X104620126Y-126226190D01*
X104382031Y-126226190D01*
X104239174Y-126226190D02*
X103953459Y-126226190D01*
X104158816Y-126726190D02*
X104096316Y-126226190D01*
X103489174Y-126702380D02*
X103420721Y-126726190D01*
X103301674Y-126726190D01*
X103251078Y-126702380D01*
X103224293Y-126678571D01*
X103194531Y-126630952D01*
X103188578Y-126583333D01*
X103206436Y-126535714D01*
X103227269Y-126511904D01*
X103271912Y-126488095D01*
X103364174Y-126464285D01*
X103408816Y-126440476D01*
X103429650Y-126416666D01*
X103447507Y-126369047D01*
X103441555Y-126321428D01*
X103411793Y-126273809D01*
X103385007Y-126250000D01*
X103334412Y-126226190D01*
X103215364Y-126226190D01*
X103146912Y-126250000D01*
X102977269Y-126226190D02*
X102920721Y-126726190D01*
X102780840Y-126369047D01*
X102730245Y-126726190D01*
X102548697Y-126226190D01*
X102262983Y-126226190D02*
X102167745Y-126226190D01*
X102123102Y-126250000D01*
X102081436Y-126297619D01*
X102069531Y-126392857D01*
X102090364Y-126559523D01*
X102126078Y-126654761D01*
X102179650Y-126702380D01*
X102230245Y-126726190D01*
X102325483Y-126726190D01*
X102370126Y-126702380D01*
X102411793Y-126654761D01*
X102423697Y-126559523D01*
X102402864Y-126392857D01*
X102367150Y-126297619D01*
X102313578Y-126250000D01*
X102262983Y-126226190D01*
D10*
X100923809Y-130852380D02*
X100352380Y-130852380D01*
X100638095Y-131852380D02*
X100638095Y-130852380D01*
X100114285Y-130852380D02*
X99447619Y-131852380D01*
X99447619Y-130852380D02*
X100114285Y-131852380D01*
X97733333Y-131852380D02*
X98066666Y-131376190D01*
X98304761Y-131852380D02*
X98304761Y-130852380D01*
X97923809Y-130852380D01*
X97828571Y-130900000D01*
X97780952Y-130947619D01*
X97733333Y-131042857D01*
X97733333Y-131185714D01*
X97780952Y-131280952D01*
X97828571Y-131328571D01*
X97923809Y-131376190D01*
X98304761Y-131376190D01*
X97400000Y-130852380D02*
X96733333Y-131852380D01*
X96733333Y-130852380D02*
X97400000Y-131852380D01*
X95066666Y-130900000D02*
X95161904Y-130852380D01*
X95304761Y-130852380D01*
X95447619Y-130900000D01*
X95542857Y-130995238D01*
X95590476Y-131090476D01*
X95638095Y-131280952D01*
X95638095Y-131423809D01*
X95590476Y-131614285D01*
X95542857Y-131709523D01*
X95447619Y-131804761D01*
X95304761Y-131852380D01*
X95209523Y-131852380D01*
X95066666Y-131804761D01*
X95019047Y-131757142D01*
X95019047Y-131423809D01*
X95209523Y-131423809D01*
X94590476Y-131852380D02*
X94590476Y-130852380D01*
X94019047Y-131852380D01*
X94019047Y-130852380D01*
X93542857Y-131852380D02*
X93542857Y-130852380D01*
X93304761Y-130852380D01*
X93161904Y-130900000D01*
X93066666Y-130995238D01*
X93019047Y-131090476D01*
X92971428Y-131280952D01*
X92971428Y-131423809D01*
X93019047Y-131614285D01*
X93066666Y-131709523D01*
X93161904Y-131804761D01*
X93304761Y-131852380D01*
X93542857Y-131852380D01*
D11*
X123638000Y-164506600D02*
X123638000Y-169706600D01*
X136458000Y-164506600D02*
X136458000Y-169706600D01*
X124208000Y-163066600D02*
X124208000Y-164506600D01*
X123638000Y-164506600D02*
X124208000Y-164506600D01*
X123638000Y-169706600D02*
X124208000Y-169706600D01*
X135888000Y-164506600D02*
X136458000Y-164506600D01*
X135888000Y-169706600D02*
X136458000Y-169706600D01*
X125728000Y-164506600D02*
X126748000Y-164506600D01*
X125728000Y-169706600D02*
X126748000Y-169706600D01*
X128268000Y-164506600D02*
X129288000Y-164506600D01*
X128268000Y-169706600D02*
X129288000Y-169706600D01*
X130808000Y-164506600D02*
X131828000Y-164506600D01*
X130808000Y-169706600D02*
X131828000Y-169706600D01*
X133348000Y-164506600D02*
X134368000Y-164506600D01*
X133348000Y-169706600D02*
X134368000Y-169706600D01*
X138035000Y-152850000D02*
X138035000Y-155135000D01*
X138035000Y-155135000D02*
X136565000Y-155135000D01*
X136565000Y-155135000D02*
X136565000Y-152850000D01*
X123035000Y-158800000D02*
X123035000Y-161085000D01*
X123035000Y-161085000D02*
X121565000Y-161085000D01*
X121565000Y-161085000D02*
X121565000Y-158800000D01*
X124685000Y-158800000D02*
X124685000Y-161085000D01*
X124685000Y-161085000D02*
X123215000Y-161085000D01*
X123215000Y-161085000D02*
X123215000Y-158800000D01*
D15*
X132689600Y-162869800D02*
X127609600Y-162869800D01*
D10*
X124287931Y-172722460D02*
G75*
G03X124287931Y-172722460I-495951J0D01*
G01*
X146063351Y-140314600D02*
G75*
G03X146063351Y-140314600I-495951J0D01*
G01*
D16*
G36*
X140296090Y-167842348D02*
G01*
X140217546Y-167842778D01*
X140160702Y-167843942D01*
X140121895Y-167846207D01*
X140097462Y-167849940D01*
X140083738Y-167855506D01*
X140077060Y-167863273D01*
X140073764Y-167873605D01*
X140073444Y-167874943D01*
X140068438Y-167899079D01*
X140059171Y-167946701D01*
X140046608Y-168012741D01*
X140031713Y-168092128D01*
X140015449Y-168179796D01*
X140014881Y-168182875D01*
X139998590Y-168268789D01*
X139983348Y-168344696D01*
X139970139Y-168406045D01*
X139959946Y-168448282D01*
X139953752Y-168466855D01*
X139953457Y-168467184D01*
X139935212Y-168476253D01*
X139897595Y-168491367D01*
X139848729Y-168509262D01*
X139848457Y-168509358D01*
X139786907Y-168532493D01*
X139714343Y-168561965D01*
X139645943Y-168591597D01*
X139642706Y-168593062D01*
X139531298Y-168643626D01*
X139284601Y-168475160D01*
X139208923Y-168423803D01*
X139140369Y-168377889D01*
X139082912Y-168340030D01*
X139040524Y-168312837D01*
X139017175Y-168298921D01*
X139014958Y-168297889D01*
X138997990Y-168302484D01*
X138966299Y-168324655D01*
X138918648Y-168365447D01*
X138853802Y-168425905D01*
X138787603Y-168490227D01*
X138723786Y-168553612D01*
X138666671Y-168611451D01*
X138619695Y-168660175D01*
X138586297Y-168696210D01*
X138569915Y-168715984D01*
X138569306Y-168717002D01*
X138567495Y-168730572D01*
X138574317Y-168752733D01*
X138591460Y-168786478D01*
X138620607Y-168834800D01*
X138663445Y-168900692D01*
X138720552Y-168985517D01*
X138771234Y-169060177D01*
X138816539Y-169127140D01*
X138853850Y-169182516D01*
X138880548Y-169222420D01*
X138894015Y-169242962D01*
X138894863Y-169244356D01*
X138893219Y-169264038D01*
X138880755Y-169302293D01*
X138859952Y-169351889D01*
X138852538Y-169367728D01*
X138820186Y-169438290D01*
X138785672Y-169518353D01*
X138757635Y-169587629D01*
X138737432Y-169639045D01*
X138721385Y-169678119D01*
X138712112Y-169698541D01*
X138710959Y-169700114D01*
X138693904Y-169702721D01*
X138653702Y-169709863D01*
X138595698Y-169720523D01*
X138525237Y-169733685D01*
X138447665Y-169748333D01*
X138368328Y-169763449D01*
X138292569Y-169778018D01*
X138225736Y-169791022D01*
X138173172Y-169801445D01*
X138140224Y-169808270D01*
X138132143Y-169810199D01*
X138123795Y-169814962D01*
X138117494Y-169825718D01*
X138112955Y-169846098D01*
X138109896Y-169879734D01*
X138108033Y-169930255D01*
X138107082Y-170001292D01*
X138106760Y-170096476D01*
X138106743Y-170135492D01*
X138106743Y-170452799D01*
X138182943Y-170467839D01*
X138225337Y-170475995D01*
X138288600Y-170487899D01*
X138365038Y-170502116D01*
X138446957Y-170517210D01*
X138469600Y-170521355D01*
X138545194Y-170536053D01*
X138611047Y-170550505D01*
X138661634Y-170563375D01*
X138691426Y-170573322D01*
X138696388Y-170576287D01*
X138708574Y-170597283D01*
X138726047Y-170637967D01*
X138745423Y-170690322D01*
X138749266Y-170701600D01*
X138774661Y-170771523D01*
X138806183Y-170850418D01*
X138837031Y-170921266D01*
X138837183Y-170921595D01*
X138888553Y-171032733D01*
X138719601Y-171281253D01*
X138550648Y-171529772D01*
X138767571Y-171747058D01*
X138833181Y-171811726D01*
X138893021Y-171868733D01*
X138943733Y-171915033D01*
X138981954Y-171947584D01*
X139004325Y-171963343D01*
X139007534Y-171964343D01*
X139026374Y-171956469D01*
X139064820Y-171934578D01*
X139118670Y-171901267D01*
X139183724Y-171859131D01*
X139254060Y-171811943D01*
X139325445Y-171763810D01*
X139389092Y-171721928D01*
X139440959Y-171688871D01*
X139477005Y-171667218D01*
X139493133Y-171659543D01*
X139512811Y-171666037D01*
X139550125Y-171683150D01*
X139597379Y-171707326D01*
X139602388Y-171710013D01*
X139666023Y-171741927D01*
X139709659Y-171757579D01*
X139736798Y-171757745D01*
X139750943Y-171743204D01*
X139751025Y-171743000D01*
X139758095Y-171725779D01*
X139774958Y-171684899D01*
X139800305Y-171623525D01*
X139832829Y-171544819D01*
X139871222Y-171451947D01*
X139914178Y-171348072D01*
X139955778Y-171247502D01*
X140001496Y-171136516D01*
X140043474Y-171033703D01*
X140080452Y-170942215D01*
X140111173Y-170865201D01*
X140134378Y-170805815D01*
X140148810Y-170767209D01*
X140153257Y-170752800D01*
X140142104Y-170736272D01*
X140112931Y-170709930D01*
X140074029Y-170680887D01*
X139963243Y-170589039D01*
X139876649Y-170483759D01*
X139815284Y-170367266D01*
X139780185Y-170241776D01*
X139772392Y-170109507D01*
X139778057Y-170048457D01*
X139808922Y-169921795D01*
X139862080Y-169809941D01*
X139934233Y-169714001D01*
X140022083Y-169635076D01*
X140122335Y-169574270D01*
X140231690Y-169532687D01*
X140346853Y-169511428D01*
X140464525Y-169511599D01*
X140581410Y-169534301D01*
X140694211Y-169580638D01*
X140799631Y-169651713D01*
X140843632Y-169691911D01*
X140928021Y-169795129D01*
X140986778Y-169907925D01*
X141020296Y-170027010D01*
X141028965Y-170149095D01*
X141013177Y-170270893D01*
X140973322Y-170389116D01*
X140909793Y-170500475D01*
X140822979Y-170601684D01*
X140725971Y-170680887D01*
X140685563Y-170711162D01*
X140657018Y-170737219D01*
X140646743Y-170752825D01*
X140652123Y-170769843D01*
X140667425Y-170810500D01*
X140691388Y-170871642D01*
X140722756Y-170950119D01*
X140760268Y-171042780D01*
X140802667Y-171146472D01*
X140844337Y-171247526D01*
X140890310Y-171358607D01*
X140932893Y-171461541D01*
X140970779Y-171553165D01*
X141002660Y-171630316D01*
X141027229Y-171689831D01*
X141043180Y-171728544D01*
X141049090Y-171743000D01*
X141063052Y-171757685D01*
X141090060Y-171757642D01*
X141133587Y-171742099D01*
X141197110Y-171710284D01*
X141197612Y-171710013D01*
X141245440Y-171685323D01*
X141284103Y-171667338D01*
X141305905Y-171659614D01*
X141306867Y-171659543D01*
X141323279Y-171667378D01*
X141359513Y-171689165D01*
X141411526Y-171722328D01*
X141475275Y-171764291D01*
X141545940Y-171811943D01*
X141617884Y-171860191D01*
X141682726Y-171902151D01*
X141736265Y-171935227D01*
X141774303Y-171956821D01*
X141792467Y-171964343D01*
X141809192Y-171954457D01*
X141842820Y-171926826D01*
X141889990Y-171884495D01*
X141947342Y-171830505D01*
X142011516Y-171767899D01*
X142032503Y-171746983D01*
X142249501Y-171529623D01*
X142084332Y-171287220D01*
X142034136Y-171212781D01*
X141990081Y-171145972D01*
X141954638Y-171090665D01*
X141930281Y-171050729D01*
X141919478Y-171030036D01*
X141919162Y-171028563D01*
X141924857Y-171009058D01*
X141940174Y-170969822D01*
X141962463Y-170917430D01*
X141978107Y-170882355D01*
X142007359Y-170815201D01*
X142034906Y-170747358D01*
X142056263Y-170690034D01*
X142062065Y-170672572D01*
X142078548Y-170625938D01*
X142094660Y-170589905D01*
X142103510Y-170576287D01*
X142123040Y-170567952D01*
X142165666Y-170556137D01*
X142225855Y-170542181D01*
X142298078Y-170527422D01*
X142330400Y-170521355D01*
X142412478Y-170506273D01*
X142491205Y-170491669D01*
X142558891Y-170478980D01*
X142607840Y-170469642D01*
X142617057Y-170467839D01*
X142693257Y-170452799D01*
X142693257Y-170135492D01*
X142693086Y-170031154D01*
X142692384Y-169952213D01*
X142690866Y-169895038D01*
X142688251Y-169855999D01*
X142684254Y-169831465D01*
X142678591Y-169817805D01*
X142670980Y-169811389D01*
X142667857Y-169810199D01*
X142649022Y-169805980D01*
X142607412Y-169797562D01*
X142548370Y-169785961D01*
X142477243Y-169772195D01*
X142399375Y-169757280D01*
X142320113Y-169742232D01*
X142244802Y-169728069D01*
X142178787Y-169715806D01*
X142127413Y-169706461D01*
X142096025Y-169701050D01*
X142089041Y-169700114D01*
X142082715Y-169687596D01*
X142068710Y-169654246D01*
X142049645Y-169606377D01*
X142042366Y-169587629D01*
X142013004Y-169515195D01*
X141978429Y-169435170D01*
X141947463Y-169367728D01*
X141924677Y-169316159D01*
X141909518Y-169273785D01*
X141904458Y-169247834D01*
X141905264Y-169244356D01*
X141915959Y-169227936D01*
X141940380Y-169191417D01*
X141975905Y-169138687D01*
X142019913Y-169073635D01*
X142069783Y-169000151D01*
X142079644Y-168985645D01*
X142137508Y-168899704D01*
X142180044Y-168834261D01*
X142208946Y-168786304D01*
X142225910Y-168752820D01*
X142232633Y-168730795D01*
X142230810Y-168717217D01*
X142230764Y-168717131D01*
X142216414Y-168699297D01*
X142184677Y-168664817D01*
X142138990Y-168617268D01*
X142082796Y-168560222D01*
X142019532Y-168497255D01*
X142012398Y-168490227D01*
X141932670Y-168413020D01*
X141871143Y-168356330D01*
X141826579Y-168319110D01*
X141797743Y-168300315D01*
X141785042Y-168297889D01*
X141766506Y-168308471D01*
X141728039Y-168332916D01*
X141673614Y-168368612D01*
X141607202Y-168412947D01*
X141532775Y-168463311D01*
X141515399Y-168475160D01*
X141268703Y-168643626D01*
X141157294Y-168593062D01*
X141089543Y-168563595D01*
X141016817Y-168533959D01*
X140954297Y-168510330D01*
X140951543Y-168509358D01*
X140902640Y-168491457D01*
X140864943Y-168476320D01*
X140846575Y-168467210D01*
X140846544Y-168467184D01*
X140840715Y-168450717D01*
X140830808Y-168410219D01*
X140817805Y-168350242D01*
X140802691Y-168275340D01*
X140786448Y-168190064D01*
X140785119Y-168182875D01*
X140768825Y-168095014D01*
X140753867Y-168015260D01*
X140741209Y-167948681D01*
X140731814Y-167900347D01*
X140726646Y-167875325D01*
X140726556Y-167874943D01*
X140723411Y-167864299D01*
X140717296Y-167856262D01*
X140704547Y-167850467D01*
X140681500Y-167846547D01*
X140644491Y-167844135D01*
X140589856Y-167842865D01*
X140513933Y-167842371D01*
X140413056Y-167842286D01*
X140400000Y-167842286D01*
X140296090Y-167842348D01*
G37*
X140296090Y-167842348D02*
X140217546Y-167842778D01*
X140160702Y-167843942D01*
X140121895Y-167846207D01*
X140097462Y-167849940D01*
X140083738Y-167855506D01*
X140077060Y-167863273D01*
X140073764Y-167873605D01*
X140073444Y-167874943D01*
X140068438Y-167899079D01*
X140059171Y-167946701D01*
X140046608Y-168012741D01*
X140031713Y-168092128D01*
X140015449Y-168179796D01*
X140014881Y-168182875D01*
X139998590Y-168268789D01*
X139983348Y-168344696D01*
X139970139Y-168406045D01*
X139959946Y-168448282D01*
X139953752Y-168466855D01*
X139953457Y-168467184D01*
X139935212Y-168476253D01*
X139897595Y-168491367D01*
X139848729Y-168509262D01*
X139848457Y-168509358D01*
X139786907Y-168532493D01*
X139714343Y-168561965D01*
X139645943Y-168591597D01*
X139642706Y-168593062D01*
X139531298Y-168643626D01*
X139284601Y-168475160D01*
X139208923Y-168423803D01*
X139140369Y-168377889D01*
X139082912Y-168340030D01*
X139040524Y-168312837D01*
X139017175Y-168298921D01*
X139014958Y-168297889D01*
X138997990Y-168302484D01*
X138966299Y-168324655D01*
X138918648Y-168365447D01*
X138853802Y-168425905D01*
X138787603Y-168490227D01*
X138723786Y-168553612D01*
X138666671Y-168611451D01*
X138619695Y-168660175D01*
X138586297Y-168696210D01*
X138569915Y-168715984D01*
X138569306Y-168717002D01*
X138567495Y-168730572D01*
X138574317Y-168752733D01*
X138591460Y-168786478D01*
X138620607Y-168834800D01*
X138663445Y-168900692D01*
X138720552Y-168985517D01*
X138771234Y-169060177D01*
X138816539Y-169127140D01*
X138853850Y-169182516D01*
X138880548Y-169222420D01*
X138894015Y-169242962D01*
X138894863Y-169244356D01*
X138893219Y-169264038D01*
X138880755Y-169302293D01*
X138859952Y-169351889D01*
X138852538Y-169367728D01*
X138820186Y-169438290D01*
X138785672Y-169518353D01*
X138757635Y-169587629D01*
X138737432Y-169639045D01*
X138721385Y-169678119D01*
X138712112Y-169698541D01*
X138710959Y-169700114D01*
X138693904Y-169702721D01*
X138653702Y-169709863D01*
X138595698Y-169720523D01*
X138525237Y-169733685D01*
X138447665Y-169748333D01*
X138368328Y-169763449D01*
X138292569Y-169778018D01*
X138225736Y-169791022D01*
X138173172Y-169801445D01*
X138140224Y-169808270D01*
X138132143Y-169810199D01*
X138123795Y-169814962D01*
X138117494Y-169825718D01*
X138112955Y-169846098D01*
X138109896Y-169879734D01*
X138108033Y-169930255D01*
X138107082Y-170001292D01*
X138106760Y-170096476D01*
X138106743Y-170135492D01*
X138106743Y-170452799D01*
X138182943Y-170467839D01*
X138225337Y-170475995D01*
X138288600Y-170487899D01*
X138365038Y-170502116D01*
X138446957Y-170517210D01*
X138469600Y-170521355D01*
X138545194Y-170536053D01*
X138611047Y-170550505D01*
X138661634Y-170563375D01*
X138691426Y-170573322D01*
X138696388Y-170576287D01*
X138708574Y-170597283D01*
X138726047Y-170637967D01*
X138745423Y-170690322D01*
X138749266Y-170701600D01*
X138774661Y-170771523D01*
X138806183Y-170850418D01*
X138837031Y-170921266D01*
X138837183Y-170921595D01*
X138888553Y-171032733D01*
X138719601Y-171281253D01*
X138550648Y-171529772D01*
X138767571Y-171747058D01*
X138833181Y-171811726D01*
X138893021Y-171868733D01*
X138943733Y-171915033D01*
X138981954Y-171947584D01*
X139004325Y-171963343D01*
X139007534Y-171964343D01*
X139026374Y-171956469D01*
X139064820Y-171934578D01*
X139118670Y-171901267D01*
X139183724Y-171859131D01*
X139254060Y-171811943D01*
X139325445Y-171763810D01*
X139389092Y-171721928D01*
X139440959Y-171688871D01*
X139477005Y-171667218D01*
X139493133Y-171659543D01*
X139512811Y-171666037D01*
X139550125Y-171683150D01*
X139597379Y-171707326D01*
X139602388Y-171710013D01*
X139666023Y-171741927D01*
X139709659Y-171757579D01*
X139736798Y-171757745D01*
X139750943Y-171743204D01*
X139751025Y-171743000D01*
X139758095Y-171725779D01*
X139774958Y-171684899D01*
X139800305Y-171623525D01*
X139832829Y-171544819D01*
X139871222Y-171451947D01*
X139914178Y-171348072D01*
X139955778Y-171247502D01*
X140001496Y-171136516D01*
X140043474Y-171033703D01*
X140080452Y-170942215D01*
X140111173Y-170865201D01*
X140134378Y-170805815D01*
X140148810Y-170767209D01*
X140153257Y-170752800D01*
X140142104Y-170736272D01*
X140112931Y-170709930D01*
X140074029Y-170680887D01*
X139963243Y-170589039D01*
X139876649Y-170483759D01*
X139815284Y-170367266D01*
X139780185Y-170241776D01*
X139772392Y-170109507D01*
X139778057Y-170048457D01*
X139808922Y-169921795D01*
X139862080Y-169809941D01*
X139934233Y-169714001D01*
X140022083Y-169635076D01*
X140122335Y-169574270D01*
X140231690Y-169532687D01*
X140346853Y-169511428D01*
X140464525Y-169511599D01*
X140581410Y-169534301D01*
X140694211Y-169580638D01*
X140799631Y-169651713D01*
X140843632Y-169691911D01*
X140928021Y-169795129D01*
X140986778Y-169907925D01*
X141020296Y-170027010D01*
X141028965Y-170149095D01*
X141013177Y-170270893D01*
X140973322Y-170389116D01*
X140909793Y-170500475D01*
X140822979Y-170601684D01*
X140725971Y-170680887D01*
X140685563Y-170711162D01*
X140657018Y-170737219D01*
X140646743Y-170752825D01*
X140652123Y-170769843D01*
X140667425Y-170810500D01*
X140691388Y-170871642D01*
X140722756Y-170950119D01*
X140760268Y-171042780D01*
X140802667Y-171146472D01*
X140844337Y-171247526D01*
X140890310Y-171358607D01*
X140932893Y-171461541D01*
X140970779Y-171553165D01*
X141002660Y-171630316D01*
X141027229Y-171689831D01*
X141043180Y-171728544D01*
X141049090Y-171743000D01*
X141063052Y-171757685D01*
X141090060Y-171757642D01*
X141133587Y-171742099D01*
X141197110Y-171710284D01*
X141197612Y-171710013D01*
X141245440Y-171685323D01*
X141284103Y-171667338D01*
X141305905Y-171659614D01*
X141306867Y-171659543D01*
X141323279Y-171667378D01*
X141359513Y-171689165D01*
X141411526Y-171722328D01*
X141475275Y-171764291D01*
X141545940Y-171811943D01*
X141617884Y-171860191D01*
X141682726Y-171902151D01*
X141736265Y-171935227D01*
X141774303Y-171956821D01*
X141792467Y-171964343D01*
X141809192Y-171954457D01*
X141842820Y-171926826D01*
X141889990Y-171884495D01*
X141947342Y-171830505D01*
X142011516Y-171767899D01*
X142032503Y-171746983D01*
X142249501Y-171529623D01*
X142084332Y-171287220D01*
X142034136Y-171212781D01*
X141990081Y-171145972D01*
X141954638Y-171090665D01*
X141930281Y-171050729D01*
X141919478Y-171030036D01*
X141919162Y-171028563D01*
X141924857Y-171009058D01*
X141940174Y-170969822D01*
X141962463Y-170917430D01*
X141978107Y-170882355D01*
X142007359Y-170815201D01*
X142034906Y-170747358D01*
X142056263Y-170690034D01*
X142062065Y-170672572D01*
X142078548Y-170625938D01*
X142094660Y-170589905D01*
X142103510Y-170576287D01*
X142123040Y-170567952D01*
X142165666Y-170556137D01*
X142225855Y-170542181D01*
X142298078Y-170527422D01*
X142330400Y-170521355D01*
X142412478Y-170506273D01*
X142491205Y-170491669D01*
X142558891Y-170478980D01*
X142607840Y-170469642D01*
X142617057Y-170467839D01*
X142693257Y-170452799D01*
X142693257Y-170135492D01*
X142693086Y-170031154D01*
X142692384Y-169952213D01*
X142690866Y-169895038D01*
X142688251Y-169855999D01*
X142684254Y-169831465D01*
X142678591Y-169817805D01*
X142670980Y-169811389D01*
X142667857Y-169810199D01*
X142649022Y-169805980D01*
X142607412Y-169797562D01*
X142548370Y-169785961D01*
X142477243Y-169772195D01*
X142399375Y-169757280D01*
X142320113Y-169742232D01*
X142244802Y-169728069D01*
X142178787Y-169715806D01*
X142127413Y-169706461D01*
X142096025Y-169701050D01*
X142089041Y-169700114D01*
X142082715Y-169687596D01*
X142068710Y-169654246D01*
X142049645Y-169606377D01*
X142042366Y-169587629D01*
X142013004Y-169515195D01*
X141978429Y-169435170D01*
X141947463Y-169367728D01*
X141924677Y-169316159D01*
X141909518Y-169273785D01*
X141904458Y-169247834D01*
X141905264Y-169244356D01*
X141915959Y-169227936D01*
X141940380Y-169191417D01*
X141975905Y-169138687D01*
X142019913Y-169073635D01*
X142069783Y-169000151D01*
X142079644Y-168985645D01*
X142137508Y-168899704D01*
X142180044Y-168834261D01*
X142208946Y-168786304D01*
X142225910Y-168752820D01*
X142232633Y-168730795D01*
X142230810Y-168717217D01*
X142230764Y-168717131D01*
X142216414Y-168699297D01*
X142184677Y-168664817D01*
X142138990Y-168617268D01*
X142082796Y-168560222D01*
X142019532Y-168497255D01*
X142012398Y-168490227D01*
X141932670Y-168413020D01*
X141871143Y-168356330D01*
X141826579Y-168319110D01*
X141797743Y-168300315D01*
X141785042Y-168297889D01*
X141766506Y-168308471D01*
X141728039Y-168332916D01*
X141673614Y-168368612D01*
X141607202Y-168412947D01*
X141532775Y-168463311D01*
X141515399Y-168475160D01*
X141268703Y-168643626D01*
X141157294Y-168593062D01*
X141089543Y-168563595D01*
X141016817Y-168533959D01*
X140954297Y-168510330D01*
X140951543Y-168509358D01*
X140902640Y-168491457D01*
X140864943Y-168476320D01*
X140846575Y-168467210D01*
X140846544Y-168467184D01*
X140840715Y-168450717D01*
X140830808Y-168410219D01*
X140817805Y-168350242D01*
X140802691Y-168275340D01*
X140786448Y-168190064D01*
X140785119Y-168182875D01*
X140768825Y-168095014D01*
X140753867Y-168015260D01*
X140741209Y-167948681D01*
X140731814Y-167900347D01*
X140726646Y-167875325D01*
X140726556Y-167874943D01*
X140723411Y-167864299D01*
X140717296Y-167856262D01*
X140704547Y-167850467D01*
X140681500Y-167846547D01*
X140644491Y-167844135D01*
X140589856Y-167842865D01*
X140513933Y-167842371D01*
X140413056Y-167842286D01*
X140400000Y-167842286D01*
X140296090Y-167842348D01*
G36*
X137246405Y-172566966D02*
G01*
X137188979Y-172604497D01*
X137161281Y-172638096D01*
X137139338Y-172699064D01*
X137137595Y-172747308D01*
X137141543Y-172811816D01*
X137290314Y-172876934D01*
X137362651Y-172910202D01*
X137409916Y-172936964D01*
X137434493Y-172960144D01*
X137438763Y-172982667D01*
X137425111Y-173007455D01*
X137410057Y-173023886D01*
X137366254Y-173050235D01*
X137318611Y-173052081D01*
X137274855Y-173031546D01*
X137242711Y-172990752D01*
X137236962Y-172976347D01*
X137209424Y-172931356D01*
X137177742Y-172912182D01*
X137134286Y-172895779D01*
X137134286Y-172957966D01*
X137138128Y-173000283D01*
X137153177Y-173035969D01*
X137184720Y-173076943D01*
X137189408Y-173082267D01*
X137224494Y-173118720D01*
X137254653Y-173138283D01*
X137292385Y-173147283D01*
X137323665Y-173150230D01*
X137379615Y-173150965D01*
X137419445Y-173141660D01*
X137444292Y-173127846D01*
X137483344Y-173097467D01*
X137510375Y-173064613D01*
X137527483Y-173023294D01*
X137536762Y-172967521D01*
X137540307Y-172891305D01*
X137540590Y-172852622D01*
X137539628Y-172806247D01*
X137451993Y-172806247D01*
X137450977Y-172831126D01*
X137448444Y-172835200D01*
X137431726Y-172829665D01*
X137395751Y-172815017D01*
X137347669Y-172794190D01*
X137337614Y-172789714D01*
X137276848Y-172758814D01*
X137243368Y-172731657D01*
X137236010Y-172706220D01*
X137253609Y-172680481D01*
X137268144Y-172669109D01*
X137320590Y-172646364D01*
X137369678Y-172650122D01*
X137410773Y-172677884D01*
X137439242Y-172727152D01*
X137448369Y-172766257D01*
X137451993Y-172806247D01*
X137539628Y-172806247D01*
X137538715Y-172762249D01*
X137531804Y-172695384D01*
X137518116Y-172646695D01*
X137495904Y-172610849D01*
X137463426Y-172582513D01*
X137449267Y-172573355D01*
X137384947Y-172549507D01*
X137314527Y-172548006D01*
X137246405Y-172566966D01*
G37*
X137246405Y-172566966D02*
X137188979Y-172604497D01*
X137161281Y-172638096D01*
X137139338Y-172699064D01*
X137137595Y-172747308D01*
X137141543Y-172811816D01*
X137290314Y-172876934D01*
X137362651Y-172910202D01*
X137409916Y-172936964D01*
X137434493Y-172960144D01*
X137438763Y-172982667D01*
X137425111Y-173007455D01*
X137410057Y-173023886D01*
X137366254Y-173050235D01*
X137318611Y-173052081D01*
X137274855Y-173031546D01*
X137242711Y-172990752D01*
X137236962Y-172976347D01*
X137209424Y-172931356D01*
X137177742Y-172912182D01*
X137134286Y-172895779D01*
X137134286Y-172957966D01*
X137138128Y-173000283D01*
X137153177Y-173035969D01*
X137184720Y-173076943D01*
X137189408Y-173082267D01*
X137224494Y-173118720D01*
X137254653Y-173138283D01*
X137292385Y-173147283D01*
X137323665Y-173150230D01*
X137379615Y-173150965D01*
X137419445Y-173141660D01*
X137444292Y-173127846D01*
X137483344Y-173097467D01*
X137510375Y-173064613D01*
X137527483Y-173023294D01*
X137536762Y-172967521D01*
X137540307Y-172891305D01*
X137540590Y-172852622D01*
X137539628Y-172806247D01*
X137451993Y-172806247D01*
X137450977Y-172831126D01*
X137448444Y-172835200D01*
X137431726Y-172829665D01*
X137395751Y-172815017D01*
X137347669Y-172794190D01*
X137337614Y-172789714D01*
X137276848Y-172758814D01*
X137243368Y-172731657D01*
X137236010Y-172706220D01*
X137253609Y-172680481D01*
X137268144Y-172669109D01*
X137320590Y-172646364D01*
X137369678Y-172650122D01*
X137410773Y-172677884D01*
X137439242Y-172727152D01*
X137448369Y-172766257D01*
X137451993Y-172806247D01*
X137539628Y-172806247D01*
X137538715Y-172762249D01*
X137531804Y-172695384D01*
X137518116Y-172646695D01*
X137495904Y-172610849D01*
X137463426Y-172582513D01*
X137449267Y-172573355D01*
X137384947Y-172549507D01*
X137314527Y-172548006D01*
X137246405Y-172566966D01*
G36*
X137747400Y-172558752D02*
G01*
X137730052Y-172566334D01*
X137688644Y-172599128D01*
X137653235Y-172646547D01*
X137631336Y-172697151D01*
X137627771Y-172722098D01*
X137639721Y-172756927D01*
X137665933Y-172775357D01*
X137694036Y-172786516D01*
X137706905Y-172788572D01*
X137713171Y-172773649D01*
X137725544Y-172741175D01*
X137730972Y-172726502D01*
X137761410Y-172675744D01*
X137805480Y-172650427D01*
X137861990Y-172651206D01*
X137866175Y-172652203D01*
X137896345Y-172666507D01*
X137918524Y-172694393D01*
X137933673Y-172739287D01*
X137942750Y-172804615D01*
X137946714Y-172893804D01*
X137947086Y-172941261D01*
X137947270Y-173016071D01*
X137948478Y-173067069D01*
X137951691Y-173099471D01*
X137957891Y-173118495D01*
X137968060Y-173129356D01*
X137983181Y-173137272D01*
X137984054Y-173137670D01*
X138013172Y-173149981D01*
X138027597Y-173154514D01*
X138029814Y-173140809D01*
X138031711Y-173102925D01*
X138033153Y-173045715D01*
X138034002Y-172974027D01*
X138034171Y-172921565D01*
X138033308Y-172820047D01*
X138029930Y-172743032D01*
X138022858Y-172686023D01*
X138010912Y-172644526D01*
X137992910Y-172614043D01*
X137967673Y-172590080D01*
X137942753Y-172573355D01*
X137882829Y-172551097D01*
X137813089Y-172546076D01*
X137747400Y-172558752D01*
G37*
X137747400Y-172558752D02*
X137730052Y-172566334D01*
X137688644Y-172599128D01*
X137653235Y-172646547D01*
X137631336Y-172697151D01*
X137627771Y-172722098D01*
X137639721Y-172756927D01*
X137665933Y-172775357D01*
X137694036Y-172786516D01*
X137706905Y-172788572D01*
X137713171Y-172773649D01*
X137725544Y-172741175D01*
X137730972Y-172726502D01*
X137761410Y-172675744D01*
X137805480Y-172650427D01*
X137861990Y-172651206D01*
X137866175Y-172652203D01*
X137896345Y-172666507D01*
X137918524Y-172694393D01*
X137933673Y-172739287D01*
X137942750Y-172804615D01*
X137946714Y-172893804D01*
X137947086Y-172941261D01*
X137947270Y-173016071D01*
X137948478Y-173067069D01*
X137951691Y-173099471D01*
X137957891Y-173118495D01*
X137968060Y-173129356D01*
X137983181Y-173137272D01*
X137984054Y-173137670D01*
X138013172Y-173149981D01*
X138027597Y-173154514D01*
X138029814Y-173140809D01*
X138031711Y-173102925D01*
X138033153Y-173045715D01*
X138034002Y-172974027D01*
X138034171Y-172921565D01*
X138033308Y-172820047D01*
X138029930Y-172743032D01*
X138022858Y-172686023D01*
X138010912Y-172644526D01*
X137992910Y-172614043D01*
X137967673Y-172590080D01*
X137942753Y-172573355D01*
X137882829Y-172551097D01*
X137813089Y-172546076D01*
X137747400Y-172558752D01*
G36*
X138255124Y-172556335D02*
G01*
X138213333Y-172575344D01*
X138180531Y-172598378D01*
X138156497Y-172624133D01*
X138139903Y-172657358D01*
X138129423Y-172702800D01*
X138123729Y-172765207D01*
X138121493Y-172849327D01*
X138121257Y-172904721D01*
X138121257Y-173120826D01*
X138158226Y-173137670D01*
X138187344Y-173149981D01*
X138201769Y-173154514D01*
X138204528Y-173141025D01*
X138206718Y-173104653D01*
X138208058Y-173051542D01*
X138208343Y-173009372D01*
X138209566Y-172948447D01*
X138212864Y-172900115D01*
X138217679Y-172870518D01*
X138221504Y-172864229D01*
X138247217Y-172870652D01*
X138287582Y-172887125D01*
X138334321Y-172909458D01*
X138379155Y-172933457D01*
X138413807Y-172954930D01*
X138429998Y-172969685D01*
X138430062Y-172969845D01*
X138428670Y-172997152D01*
X138416182Y-173023219D01*
X138394257Y-173044392D01*
X138362257Y-173051474D01*
X138334908Y-173050649D01*
X138296174Y-173050042D01*
X138275842Y-173059116D01*
X138263631Y-173083092D01*
X138262091Y-173087613D01*
X138256797Y-173121806D01*
X138270953Y-173142568D01*
X138307852Y-173152462D01*
X138347711Y-173154292D01*
X138419438Y-173140727D01*
X138456568Y-173121355D01*
X138502424Y-173075845D01*
X138526744Y-173019983D01*
X138528927Y-172960957D01*
X138508371Y-172905953D01*
X138477451Y-172871486D01*
X138446580Y-172852189D01*
X138398058Y-172827759D01*
X138341515Y-172802985D01*
X138332090Y-172799199D01*
X138269981Y-172771791D01*
X138234178Y-172747634D01*
X138222663Y-172723619D01*
X138233420Y-172696635D01*
X138251886Y-172675543D01*
X138295531Y-172649572D01*
X138343554Y-172647624D01*
X138387594Y-172667637D01*
X138419291Y-172707551D01*
X138423451Y-172717848D01*
X138447673Y-172755724D01*
X138483035Y-172783842D01*
X138527657Y-172806917D01*
X138527657Y-172741485D01*
X138525031Y-172701506D01*
X138513770Y-172669997D01*
X138488801Y-172636378D01*
X138464831Y-172610484D01*
X138427559Y-172573817D01*
X138398599Y-172554121D01*
X138367495Y-172546220D01*
X138332287Y-172544914D01*
X138255124Y-172556335D01*
G37*
X138255124Y-172556335D02*
X138213333Y-172575344D01*
X138180531Y-172598378D01*
X138156497Y-172624133D01*
X138139903Y-172657358D01*
X138129423Y-172702800D01*
X138123729Y-172765207D01*
X138121493Y-172849327D01*
X138121257Y-172904721D01*
X138121257Y-173120826D01*
X138158226Y-173137670D01*
X138187344Y-173149981D01*
X138201769Y-173154514D01*
X138204528Y-173141025D01*
X138206718Y-173104653D01*
X138208058Y-173051542D01*
X138208343Y-173009372D01*
X138209566Y-172948447D01*
X138212864Y-172900115D01*
X138217679Y-172870518D01*
X138221504Y-172864229D01*
X138247217Y-172870652D01*
X138287582Y-172887125D01*
X138334321Y-172909458D01*
X138379155Y-172933457D01*
X138413807Y-172954930D01*
X138429998Y-172969685D01*
X138430062Y-172969845D01*
X138428670Y-172997152D01*
X138416182Y-173023219D01*
X138394257Y-173044392D01*
X138362257Y-173051474D01*
X138334908Y-173050649D01*
X138296174Y-173050042D01*
X138275842Y-173059116D01*
X138263631Y-173083092D01*
X138262091Y-173087613D01*
X138256797Y-173121806D01*
X138270953Y-173142568D01*
X138307852Y-173152462D01*
X138347711Y-173154292D01*
X138419438Y-173140727D01*
X138456568Y-173121355D01*
X138502424Y-173075845D01*
X138526744Y-173019983D01*
X138528927Y-172960957D01*
X138508371Y-172905953D01*
X138477451Y-172871486D01*
X138446580Y-172852189D01*
X138398058Y-172827759D01*
X138341515Y-172802985D01*
X138332090Y-172799199D01*
X138269981Y-172771791D01*
X138234178Y-172747634D01*
X138222663Y-172723619D01*
X138233420Y-172696635D01*
X138251886Y-172675543D01*
X138295531Y-172649572D01*
X138343554Y-172647624D01*
X138387594Y-172667637D01*
X138419291Y-172707551D01*
X138423451Y-172717848D01*
X138447673Y-172755724D01*
X138483035Y-172783842D01*
X138527657Y-172806917D01*
X138527657Y-172741485D01*
X138525031Y-172701506D01*
X138513770Y-172669997D01*
X138488801Y-172636378D01*
X138464831Y-172610484D01*
X138427559Y-172573817D01*
X138398599Y-172554121D01*
X138367495Y-172546220D01*
X138332287Y-172544914D01*
X138255124Y-172556335D01*
G36*
X138620167Y-172558663D02*
G01*
X138617952Y-172596850D01*
X138616216Y-172654886D01*
X138615101Y-172728180D01*
X138614743Y-172805055D01*
X138614743Y-173065196D01*
X138660674Y-173111127D01*
X138692325Y-173139429D01*
X138720110Y-173150893D01*
X138758085Y-173150168D01*
X138773160Y-173148321D01*
X138820274Y-173142948D01*
X138859244Y-173139869D01*
X138868743Y-173139585D01*
X138900767Y-173141445D01*
X138946568Y-173146114D01*
X138964326Y-173148321D01*
X139007943Y-173151735D01*
X139037255Y-173144320D01*
X139066320Y-173121427D01*
X139076812Y-173111127D01*
X139122743Y-173065196D01*
X139122743Y-172578602D01*
X139085774Y-172561758D01*
X139053941Y-172549282D01*
X139035317Y-172544914D01*
X139030542Y-172558718D01*
X139026079Y-172597286D01*
X139022225Y-172656356D01*
X139019278Y-172731663D01*
X139017857Y-172795286D01*
X139013886Y-173045657D01*
X138979241Y-173050556D01*
X138947732Y-173047131D01*
X138932292Y-173036041D01*
X138927977Y-173015308D01*
X138924292Y-172971145D01*
X138921531Y-172909146D01*
X138919988Y-172834909D01*
X138919765Y-172796706D01*
X138919543Y-172576783D01*
X138873834Y-172560849D01*
X138841482Y-172550015D01*
X138823885Y-172544962D01*
X138823377Y-172544914D01*
X138821612Y-172558648D01*
X138819671Y-172596730D01*
X138817718Y-172654482D01*
X138815916Y-172727227D01*
X138814657Y-172795286D01*
X138810686Y-173045657D01*
X138723600Y-173045657D01*
X138719604Y-172817240D01*
X138715608Y-172588822D01*
X138673153Y-172566868D01*
X138641808Y-172551793D01*
X138623256Y-172544951D01*
X138622721Y-172544914D01*
X138620167Y-172558663D01*
G37*
X138620167Y-172558663D02*
X138617952Y-172596850D01*
X138616216Y-172654886D01*
X138615101Y-172728180D01*
X138614743Y-172805055D01*
X138614743Y-173065196D01*
X138660674Y-173111127D01*
X138692325Y-173139429D01*
X138720110Y-173150893D01*
X138758085Y-173150168D01*
X138773160Y-173148321D01*
X138820274Y-173142948D01*
X138859244Y-173139869D01*
X138868743Y-173139585D01*
X138900767Y-173141445D01*
X138946568Y-173146114D01*
X138964326Y-173148321D01*
X139007943Y-173151735D01*
X139037255Y-173144320D01*
X139066320Y-173121427D01*
X139076812Y-173111127D01*
X139122743Y-173065196D01*
X139122743Y-172578602D01*
X139085774Y-172561758D01*
X139053941Y-172549282D01*
X139035317Y-172544914D01*
X139030542Y-172558718D01*
X139026079Y-172597286D01*
X139022225Y-172656356D01*
X139019278Y-172731663D01*
X139017857Y-172795286D01*
X139013886Y-173045657D01*
X138979241Y-173050556D01*
X138947732Y-173047131D01*
X138932292Y-173036041D01*
X138927977Y-173015308D01*
X138924292Y-172971145D01*
X138921531Y-172909146D01*
X138919988Y-172834909D01*
X138919765Y-172796706D01*
X138919543Y-172576783D01*
X138873834Y-172560849D01*
X138841482Y-172550015D01*
X138823885Y-172544962D01*
X138823377Y-172544914D01*
X138821612Y-172558648D01*
X138819671Y-172596730D01*
X138817718Y-172654482D01*
X138815916Y-172727227D01*
X138814657Y-172795286D01*
X138810686Y-173045657D01*
X138723600Y-173045657D01*
X138719604Y-172817240D01*
X138715608Y-172588822D01*
X138673153Y-172566868D01*
X138641808Y-172551793D01*
X138623256Y-172544951D01*
X138622721Y-172544914D01*
X138620167Y-172558663D01*
G36*
X139209883Y-172665358D02*
G01*
X139210067Y-172773837D01*
X139210781Y-172857287D01*
X139212325Y-172919704D01*
X139214999Y-172965085D01*
X139219106Y-172997429D01*
X139224945Y-173020733D01*
X139232818Y-173038995D01*
X139238779Y-173049418D01*
X139288145Y-173105945D01*
X139350736Y-173141377D01*
X139419987Y-173154090D01*
X139489332Y-173142463D01*
X139530625Y-173121568D01*
X139573975Y-173085422D01*
X139603519Y-173041276D01*
X139621345Y-172983462D01*
X139629537Y-172906313D01*
X139630698Y-172849714D01*
X139630542Y-172845647D01*
X139529143Y-172845647D01*
X139528524Y-172910550D01*
X139525686Y-172953514D01*
X139519160Y-172981622D01*
X139507477Y-173001953D01*
X139493517Y-173017288D01*
X139446635Y-173046890D01*
X139396299Y-173049419D01*
X139348724Y-173024705D01*
X139345021Y-173021356D01*
X139329217Y-173003935D01*
X139319307Y-172983209D01*
X139313942Y-172952362D01*
X139311772Y-172904577D01*
X139311429Y-172851748D01*
X139312173Y-172785381D01*
X139315252Y-172741106D01*
X139321939Y-172712009D01*
X139333504Y-172691173D01*
X139342987Y-172680107D01*
X139387040Y-172652198D01*
X139437776Y-172648843D01*
X139486204Y-172670159D01*
X139495550Y-172678073D01*
X139511460Y-172695647D01*
X139521390Y-172716587D01*
X139526722Y-172747782D01*
X139528837Y-172796122D01*
X139529143Y-172845647D01*
X139630542Y-172845647D01*
X139627190Y-172758568D01*
X139615274Y-172690086D01*
X139592865Y-172638600D01*
X139557876Y-172598443D01*
X139530625Y-172577861D01*
X139481093Y-172555625D01*
X139423684Y-172545304D01*
X139370318Y-172548067D01*
X139340457Y-172559212D01*
X139328739Y-172562383D01*
X139320963Y-172550557D01*
X139315535Y-172518866D01*
X139311429Y-172470593D01*
X139306933Y-172416829D01*
X139300687Y-172384482D01*
X139289324Y-172365985D01*
X139269472Y-172353770D01*
X139257000Y-172348362D01*
X139209829Y-172328601D01*
X139209883Y-172665358D01*
G37*
X139209883Y-172665358D02*
X139210067Y-172773837D01*
X139210781Y-172857287D01*
X139212325Y-172919704D01*
X139214999Y-172965085D01*
X139219106Y-172997429D01*
X139224945Y-173020733D01*
X139232818Y-173038995D01*
X139238779Y-173049418D01*
X139288145Y-173105945D01*
X139350736Y-173141377D01*
X139419987Y-173154090D01*
X139489332Y-173142463D01*
X139530625Y-173121568D01*
X139573975Y-173085422D01*
X139603519Y-173041276D01*
X139621345Y-172983462D01*
X139629537Y-172906313D01*
X139630698Y-172849714D01*
X139630542Y-172845647D01*
X139529143Y-172845647D01*
X139528524Y-172910550D01*
X139525686Y-172953514D01*
X139519160Y-172981622D01*
X139507477Y-173001953D01*
X139493517Y-173017288D01*
X139446635Y-173046890D01*
X139396299Y-173049419D01*
X139348724Y-173024705D01*
X139345021Y-173021356D01*
X139329217Y-173003935D01*
X139319307Y-172983209D01*
X139313942Y-172952362D01*
X139311772Y-172904577D01*
X139311429Y-172851748D01*
X139312173Y-172785381D01*
X139315252Y-172741106D01*
X139321939Y-172712009D01*
X139333504Y-172691173D01*
X139342987Y-172680107D01*
X139387040Y-172652198D01*
X139437776Y-172648843D01*
X139486204Y-172670159D01*
X139495550Y-172678073D01*
X139511460Y-172695647D01*
X139521390Y-172716587D01*
X139526722Y-172747782D01*
X139528837Y-172796122D01*
X139529143Y-172845647D01*
X139630542Y-172845647D01*
X139627190Y-172758568D01*
X139615274Y-172690086D01*
X139592865Y-172638600D01*
X139557876Y-172598443D01*
X139530625Y-172577861D01*
X139481093Y-172555625D01*
X139423684Y-172545304D01*
X139370318Y-172548067D01*
X139340457Y-172559212D01*
X139328739Y-172562383D01*
X139320963Y-172550557D01*
X139315535Y-172518866D01*
X139311429Y-172470593D01*
X139306933Y-172416829D01*
X139300687Y-172384482D01*
X139289324Y-172365985D01*
X139269472Y-172353770D01*
X139257000Y-172348362D01*
X139209829Y-172328601D01*
X139209883Y-172665358D01*
G36*
X139870074Y-172549755D02*
G01*
X139804142Y-172574084D01*
X139750727Y-172617117D01*
X139729836Y-172647409D01*
X139707061Y-172702994D01*
X139707534Y-172743186D01*
X139731438Y-172770217D01*
X139740283Y-172774813D01*
X139778470Y-172789144D01*
X139797972Y-172785472D01*
X139804578Y-172761407D01*
X139804914Y-172748114D01*
X139817008Y-172699210D01*
X139848529Y-172664999D01*
X139892341Y-172648476D01*
X139941305Y-172652634D01*
X139981106Y-172674227D01*
X139994550Y-172686544D01*
X140004079Y-172701487D01*
X140010515Y-172724075D01*
X140014683Y-172759328D01*
X140017403Y-172812266D01*
X140019498Y-172887907D01*
X140020040Y-172911857D01*
X140022019Y-172993790D01*
X140024269Y-173051455D01*
X140027643Y-173089608D01*
X140032994Y-173113004D01*
X140041176Y-173126398D01*
X140053041Y-173134545D01*
X140060638Y-173138144D01*
X140092898Y-173150452D01*
X140111889Y-173154514D01*
X140118164Y-173140948D01*
X140121994Y-173099934D01*
X140123400Y-173030999D01*
X140122402Y-172933669D01*
X140122092Y-172918657D01*
X140119899Y-172829859D01*
X140117307Y-172765019D01*
X140113618Y-172719067D01*
X140108136Y-172686935D01*
X140100165Y-172663553D01*
X140089007Y-172643852D01*
X140083170Y-172635410D01*
X140049704Y-172598057D01*
X140012273Y-172569003D01*
X140007691Y-172566467D01*
X139940574Y-172546443D01*
X139870074Y-172549755D01*
G37*
X139870074Y-172549755D02*
X139804142Y-172574084D01*
X139750727Y-172617117D01*
X139729836Y-172647409D01*
X139707061Y-172702994D01*
X139707534Y-172743186D01*
X139731438Y-172770217D01*
X139740283Y-172774813D01*
X139778470Y-172789144D01*
X139797972Y-172785472D01*
X139804578Y-172761407D01*
X139804914Y-172748114D01*
X139817008Y-172699210D01*
X139848529Y-172664999D01*
X139892341Y-172648476D01*
X139941305Y-172652634D01*
X139981106Y-172674227D01*
X139994550Y-172686544D01*
X140004079Y-172701487D01*
X140010515Y-172724075D01*
X140014683Y-172759328D01*
X140017403Y-172812266D01*
X140019498Y-172887907D01*
X140020040Y-172911857D01*
X140022019Y-172993790D01*
X140024269Y-173051455D01*
X140027643Y-173089608D01*
X140032994Y-173113004D01*
X140041176Y-173126398D01*
X140053041Y-173134545D01*
X140060638Y-173138144D01*
X140092898Y-173150452D01*
X140111889Y-173154514D01*
X140118164Y-173140948D01*
X140121994Y-173099934D01*
X140123400Y-173030999D01*
X140122402Y-172933669D01*
X140122092Y-172918657D01*
X140119899Y-172829859D01*
X140117307Y-172765019D01*
X140113618Y-172719067D01*
X140108136Y-172686935D01*
X140100165Y-172663553D01*
X140089007Y-172643852D01*
X140083170Y-172635410D01*
X140049704Y-172598057D01*
X140012273Y-172569003D01*
X140007691Y-172566467D01*
X139940574Y-172546443D01*
X139870074Y-172549755D01*
G36*
X140360256Y-172550968D02*
G01*
X140303384Y-172572087D01*
X140302733Y-172572493D01*
X140267560Y-172598380D01*
X140241593Y-172628633D01*
X140223330Y-172668058D01*
X140211268Y-172721462D01*
X140203904Y-172793651D01*
X140199736Y-172889432D01*
X140199371Y-172903078D01*
X140194124Y-173108842D01*
X140238284Y-173131678D01*
X140270237Y-173147110D01*
X140289530Y-173154423D01*
X140290422Y-173154514D01*
X140293761Y-173141022D01*
X140296413Y-173104626D01*
X140298044Y-173051452D01*
X140298400Y-173008393D01*
X140298408Y-172938641D01*
X140301597Y-172894837D01*
X140312712Y-172873944D01*
X140336499Y-172872925D01*
X140377704Y-172888741D01*
X140439914Y-172917815D01*
X140485659Y-172941963D01*
X140509187Y-172962913D01*
X140516104Y-172985747D01*
X140516114Y-172986877D01*
X140504701Y-173026212D01*
X140470908Y-173047462D01*
X140419191Y-173050539D01*
X140381939Y-173050006D01*
X140362297Y-173060735D01*
X140350048Y-173086505D01*
X140342998Y-173119337D01*
X140353158Y-173137966D01*
X140356983Y-173140632D01*
X140392999Y-173151340D01*
X140443434Y-173152856D01*
X140495374Y-173145759D01*
X140532178Y-173132788D01*
X140583062Y-173089585D01*
X140611986Y-173029446D01*
X140617714Y-172982462D01*
X140613343Y-172940082D01*
X140597525Y-172905488D01*
X140566203Y-172874763D01*
X140515322Y-172843990D01*
X140440824Y-172809252D01*
X140436286Y-172807288D01*
X140369179Y-172776287D01*
X140327768Y-172750862D01*
X140310019Y-172728014D01*
X140313893Y-172704745D01*
X140337357Y-172678056D01*
X140344373Y-172671914D01*
X140391370Y-172648100D01*
X140440067Y-172649103D01*
X140482478Y-172672451D01*
X140510616Y-172715675D01*
X140513231Y-172724160D01*
X140538692Y-172765308D01*
X140570999Y-172785128D01*
X140617714Y-172804770D01*
X140617714Y-172753950D01*
X140603504Y-172680082D01*
X140561325Y-172612327D01*
X140539376Y-172589661D01*
X140489483Y-172560569D01*
X140426033Y-172547400D01*
X140360256Y-172550968D01*
G37*
X140360256Y-172550968D02*
X140303384Y-172572087D01*
X140302733Y-172572493D01*
X140267560Y-172598380D01*
X140241593Y-172628633D01*
X140223330Y-172668058D01*
X140211268Y-172721462D01*
X140203904Y-172793651D01*
X140199736Y-172889432D01*
X140199371Y-172903078D01*
X140194124Y-173108842D01*
X140238284Y-173131678D01*
X140270237Y-173147110D01*
X140289530Y-173154423D01*
X140290422Y-173154514D01*
X140293761Y-173141022D01*
X140296413Y-173104626D01*
X140298044Y-173051452D01*
X140298400Y-173008393D01*
X140298408Y-172938641D01*
X140301597Y-172894837D01*
X140312712Y-172873944D01*
X140336499Y-172872925D01*
X140377704Y-172888741D01*
X140439914Y-172917815D01*
X140485659Y-172941963D01*
X140509187Y-172962913D01*
X140516104Y-172985747D01*
X140516114Y-172986877D01*
X140504701Y-173026212D01*
X140470908Y-173047462D01*
X140419191Y-173050539D01*
X140381939Y-173050006D01*
X140362297Y-173060735D01*
X140350048Y-173086505D01*
X140342998Y-173119337D01*
X140353158Y-173137966D01*
X140356983Y-173140632D01*
X140392999Y-173151340D01*
X140443434Y-173152856D01*
X140495374Y-173145759D01*
X140532178Y-173132788D01*
X140583062Y-173089585D01*
X140611986Y-173029446D01*
X140617714Y-172982462D01*
X140613343Y-172940082D01*
X140597525Y-172905488D01*
X140566203Y-172874763D01*
X140515322Y-172843990D01*
X140440824Y-172809252D01*
X140436286Y-172807288D01*
X140369179Y-172776287D01*
X140327768Y-172750862D01*
X140310019Y-172728014D01*
X140313893Y-172704745D01*
X140337357Y-172678056D01*
X140344373Y-172671914D01*
X140391370Y-172648100D01*
X140440067Y-172649103D01*
X140482478Y-172672451D01*
X140510616Y-172715675D01*
X140513231Y-172724160D01*
X140538692Y-172765308D01*
X140570999Y-172785128D01*
X140617714Y-172804770D01*
X140617714Y-172753950D01*
X140603504Y-172680082D01*
X140561325Y-172612327D01*
X140539376Y-172589661D01*
X140489483Y-172560569D01*
X140426033Y-172547400D01*
X140360256Y-172550968D01*
G36*
X141024114Y-172451289D02*
G01*
X141019861Y-172510613D01*
X141014975Y-172545572D01*
X141008205Y-172560820D01*
X140998298Y-172561015D01*
X140995086Y-172559195D01*
X140952356Y-172546015D01*
X140896773Y-172546785D01*
X140840263Y-172560333D01*
X140804918Y-172577861D01*
X140768679Y-172605861D01*
X140742187Y-172637549D01*
X140724001Y-172677813D01*
X140712678Y-172731543D01*
X140706778Y-172803626D01*
X140704857Y-172898951D01*
X140704823Y-172917237D01*
X140704800Y-173122646D01*
X140750509Y-173138580D01*
X140782973Y-173149420D01*
X140800785Y-173154468D01*
X140801309Y-173154514D01*
X140803063Y-173140828D01*
X140804556Y-173103076D01*
X140805674Y-173046224D01*
X140806303Y-172975234D01*
X140806400Y-172932073D01*
X140806602Y-172846973D01*
X140807642Y-172785981D01*
X140810169Y-172744177D01*
X140814836Y-172716642D01*
X140822293Y-172698456D01*
X140833189Y-172684698D01*
X140839993Y-172678073D01*
X140886728Y-172651375D01*
X140937728Y-172649375D01*
X140983999Y-172671955D01*
X140992556Y-172680107D01*
X141005107Y-172695436D01*
X141013812Y-172713618D01*
X141019369Y-172739909D01*
X141022474Y-172779562D01*
X141023824Y-172837832D01*
X141024114Y-172918173D01*
X141024114Y-173122646D01*
X141069823Y-173138580D01*
X141102287Y-173149420D01*
X141120099Y-173154468D01*
X141120623Y-173154514D01*
X141121963Y-173140623D01*
X141123172Y-173101439D01*
X141124199Y-173040700D01*
X141124998Y-172962141D01*
X141125519Y-172869498D01*
X141125714Y-172766509D01*
X141125714Y-172369342D01*
X141078543Y-172349444D01*
X141031371Y-172329547D01*
X141024114Y-172451289D01*
G37*
X141024114Y-172451289D02*
X141019861Y-172510613D01*
X141014975Y-172545572D01*
X141008205Y-172560820D01*
X140998298Y-172561015D01*
X140995086Y-172559195D01*
X140952356Y-172546015D01*
X140896773Y-172546785D01*
X140840263Y-172560333D01*
X140804918Y-172577861D01*
X140768679Y-172605861D01*
X140742187Y-172637549D01*
X140724001Y-172677813D01*
X140712678Y-172731543D01*
X140706778Y-172803626D01*
X140704857Y-172898951D01*
X140704823Y-172917237D01*
X140704800Y-173122646D01*
X140750509Y-173138580D01*
X140782973Y-173149420D01*
X140800785Y-173154468D01*
X140801309Y-173154514D01*
X140803063Y-173140828D01*
X140804556Y-173103076D01*
X140805674Y-173046224D01*
X140806303Y-172975234D01*
X140806400Y-172932073D01*
X140806602Y-172846973D01*
X140807642Y-172785981D01*
X140810169Y-172744177D01*
X140814836Y-172716642D01*
X140822293Y-172698456D01*
X140833189Y-172684698D01*
X140839993Y-172678073D01*
X140886728Y-172651375D01*
X140937728Y-172649375D01*
X140983999Y-172671955D01*
X140992556Y-172680107D01*
X141005107Y-172695436D01*
X141013812Y-172713618D01*
X141019369Y-172739909D01*
X141022474Y-172779562D01*
X141023824Y-172837832D01*
X141024114Y-172918173D01*
X141024114Y-173122646D01*
X141069823Y-173138580D01*
X141102287Y-173149420D01*
X141120099Y-173154468D01*
X141120623Y-173154514D01*
X141121963Y-173140623D01*
X141123172Y-173101439D01*
X141124199Y-173040700D01*
X141124998Y-172962141D01*
X141125519Y-172869498D01*
X141125714Y-172766509D01*
X141125714Y-172369342D01*
X141078543Y-172349444D01*
X141031371Y-172329547D01*
X141024114Y-172451289D01*
G36*
X142231697Y-172531239D02*
G01*
X142174473Y-172569735D01*
X142130251Y-172625335D01*
X142103833Y-172696086D01*
X142098490Y-172748162D01*
X142099097Y-172769893D01*
X142104178Y-172786531D01*
X142118145Y-172801437D01*
X142145411Y-172817973D01*
X142190388Y-172839498D01*
X142257489Y-172869374D01*
X142257829Y-172869524D01*
X142319593Y-172897813D01*
X142370241Y-172922933D01*
X142404596Y-172942179D01*
X142417482Y-172952848D01*
X142417486Y-172952934D01*
X142406128Y-172976166D01*
X142379569Y-173001774D01*
X142349077Y-173020221D01*
X142333630Y-173023886D01*
X142291485Y-173011212D01*
X142255192Y-172979471D01*
X142237483Y-172944572D01*
X142220448Y-172918845D01*
X142187078Y-172889546D01*
X142147851Y-172864235D01*
X142113244Y-172850471D01*
X142106007Y-172849714D01*
X142097861Y-172862160D01*
X142097370Y-172893972D01*
X142103357Y-172936866D01*
X142114643Y-172982558D01*
X142130050Y-173022761D01*
X142130829Y-173024322D01*
X142177196Y-173089062D01*
X142237289Y-173133097D01*
X142305535Y-173154711D01*
X142376362Y-173152185D01*
X142444196Y-173123804D01*
X142447212Y-173121808D01*
X142500573Y-173073448D01*
X142535660Y-173010352D01*
X142555078Y-172927387D01*
X142557684Y-172904078D01*
X142562299Y-172794055D01*
X142556767Y-172742748D01*
X142417486Y-172742748D01*
X142415676Y-172774753D01*
X142405778Y-172784093D01*
X142381102Y-172777105D01*
X142342205Y-172760587D01*
X142298725Y-172739881D01*
X142297644Y-172739333D01*
X142260791Y-172719949D01*
X142246000Y-172707013D01*
X142249647Y-172693451D01*
X142265005Y-172675632D01*
X142304077Y-172649845D01*
X142346154Y-172647950D01*
X142383897Y-172666717D01*
X142409966Y-172702915D01*
X142417486Y-172742748D01*
X142556767Y-172742748D01*
X142552806Y-172706027D01*
X142528450Y-172636212D01*
X142494544Y-172587302D01*
X142433347Y-172537878D01*
X142365937Y-172513359D01*
X142297120Y-172511797D01*
X142231697Y-172531239D01*
G37*
X142231697Y-172531239D02*
X142174473Y-172569735D01*
X142130251Y-172625335D01*
X142103833Y-172696086D01*
X142098490Y-172748162D01*
X142099097Y-172769893D01*
X142104178Y-172786531D01*
X142118145Y-172801437D01*
X142145411Y-172817973D01*
X142190388Y-172839498D01*
X142257489Y-172869374D01*
X142257829Y-172869524D01*
X142319593Y-172897813D01*
X142370241Y-172922933D01*
X142404596Y-172942179D01*
X142417482Y-172952848D01*
X142417486Y-172952934D01*
X142406128Y-172976166D01*
X142379569Y-173001774D01*
X142349077Y-173020221D01*
X142333630Y-173023886D01*
X142291485Y-173011212D01*
X142255192Y-172979471D01*
X142237483Y-172944572D01*
X142220448Y-172918845D01*
X142187078Y-172889546D01*
X142147851Y-172864235D01*
X142113244Y-172850471D01*
X142106007Y-172849714D01*
X142097861Y-172862160D01*
X142097370Y-172893972D01*
X142103357Y-172936866D01*
X142114643Y-172982558D01*
X142130050Y-173022761D01*
X142130829Y-173024322D01*
X142177196Y-173089062D01*
X142237289Y-173133097D01*
X142305535Y-173154711D01*
X142376362Y-173152185D01*
X142444196Y-173123804D01*
X142447212Y-173121808D01*
X142500573Y-173073448D01*
X142535660Y-173010352D01*
X142555078Y-172927387D01*
X142557684Y-172904078D01*
X142562299Y-172794055D01*
X142556767Y-172742748D01*
X142417486Y-172742748D01*
X142415676Y-172774753D01*
X142405778Y-172784093D01*
X142381102Y-172777105D01*
X142342205Y-172760587D01*
X142298725Y-172739881D01*
X142297644Y-172739333D01*
X142260791Y-172719949D01*
X142246000Y-172707013D01*
X142249647Y-172693451D01*
X142265005Y-172675632D01*
X142304077Y-172649845D01*
X142346154Y-172647950D01*
X142383897Y-172666717D01*
X142409966Y-172702915D01*
X142417486Y-172742748D01*
X142556767Y-172742748D01*
X142552806Y-172706027D01*
X142528450Y-172636212D01*
X142494544Y-172587302D01*
X142433347Y-172537878D01*
X142365937Y-172513359D01*
X142297120Y-172511797D01*
X142231697Y-172531239D01*
G36*
X143358885Y-172521962D02*
G01*
X143290855Y-172557733D01*
X143240649Y-172615301D01*
X143222815Y-172652312D01*
X143208937Y-172707882D01*
X143201833Y-172778096D01*
X143201160Y-172854727D01*
X143206573Y-172929552D01*
X143217730Y-172994342D01*
X143234286Y-173040873D01*
X143239374Y-173048887D01*
X143299645Y-173108707D01*
X143371231Y-173144535D01*
X143448908Y-173155020D01*
X143527452Y-173138810D01*
X143549311Y-173129092D01*
X143591878Y-173099143D01*
X143629237Y-173059433D01*
X143632768Y-173054397D01*
X143647119Y-173030124D01*
X143656606Y-173004178D01*
X143662210Y-172970022D01*
X143664914Y-172921119D01*
X143665701Y-172850935D01*
X143665714Y-172835200D01*
X143665678Y-172830192D01*
X143520571Y-172830192D01*
X143519727Y-172896430D01*
X143516404Y-172940386D01*
X143509417Y-172968779D01*
X143497584Y-172988325D01*
X143491543Y-172994857D01*
X143456814Y-173019680D01*
X143423097Y-173018548D01*
X143389005Y-172997016D01*
X143368671Y-172974029D01*
X143356629Y-172940478D01*
X143349866Y-172887569D01*
X143349402Y-172881399D01*
X143348248Y-172785513D01*
X143360312Y-172714299D01*
X143385430Y-172668194D01*
X143423440Y-172647635D01*
X143437008Y-172646514D01*
X143472636Y-172652152D01*
X143497006Y-172671686D01*
X143511907Y-172709042D01*
X143519125Y-172768150D01*
X143520571Y-172830192D01*
X143665678Y-172830192D01*
X143665174Y-172760413D01*
X143662904Y-172708159D01*
X143657932Y-172671949D01*
X143649287Y-172645299D01*
X143635995Y-172621722D01*
X143633057Y-172617338D01*
X143583687Y-172558249D01*
X143529891Y-172523947D01*
X143464398Y-172510331D01*
X143442158Y-172509665D01*
X143358885Y-172521962D01*
G37*
X143358885Y-172521962D02*
X143290855Y-172557733D01*
X143240649Y-172615301D01*
X143222815Y-172652312D01*
X143208937Y-172707882D01*
X143201833Y-172778096D01*
X143201160Y-172854727D01*
X143206573Y-172929552D01*
X143217730Y-172994342D01*
X143234286Y-173040873D01*
X143239374Y-173048887D01*
X143299645Y-173108707D01*
X143371231Y-173144535D01*
X143448908Y-173155020D01*
X143527452Y-173138810D01*
X143549311Y-173129092D01*
X143591878Y-173099143D01*
X143629237Y-173059433D01*
X143632768Y-173054397D01*
X143647119Y-173030124D01*
X143656606Y-173004178D01*
X143662210Y-172970022D01*
X143664914Y-172921119D01*
X143665701Y-172850935D01*
X143665714Y-172835200D01*
X143665678Y-172830192D01*
X143520571Y-172830192D01*
X143519727Y-172896430D01*
X143516404Y-172940386D01*
X143509417Y-172968779D01*
X143497584Y-172988325D01*
X143491543Y-172994857D01*
X143456814Y-173019680D01*
X143423097Y-173018548D01*
X143389005Y-172997016D01*
X143368671Y-172974029D01*
X143356629Y-172940478D01*
X143349866Y-172887569D01*
X143349402Y-172881399D01*
X143348248Y-172785513D01*
X143360312Y-172714299D01*
X143385430Y-172668194D01*
X143423440Y-172647635D01*
X143437008Y-172646514D01*
X143472636Y-172652152D01*
X143497006Y-172671686D01*
X143511907Y-172709042D01*
X143519125Y-172768150D01*
X143520571Y-172830192D01*
X143665678Y-172830192D01*
X143665174Y-172760413D01*
X143662904Y-172708159D01*
X143657932Y-172671949D01*
X143649287Y-172645299D01*
X143635995Y-172621722D01*
X143633057Y-172617338D01*
X143583687Y-172558249D01*
X143529891Y-172523947D01*
X143464398Y-172510331D01*
X143442158Y-172509665D01*
X143358885Y-172521962D01*
G36*
X141683907Y-172527780D02*
G01*
X141637328Y-172554723D01*
X141604943Y-172581466D01*
X141581258Y-172609484D01*
X141564941Y-172643748D01*
X141554661Y-172689227D01*
X141549086Y-172750892D01*
X141546884Y-172833711D01*
X141546629Y-172893246D01*
X141546629Y-173112391D01*
X141608314Y-173140044D01*
X141670000Y-173167697D01*
X141677257Y-172927670D01*
X141680256Y-172838028D01*
X141683402Y-172772962D01*
X141687299Y-172728026D01*
X141692553Y-172698770D01*
X141699769Y-172680748D01*
X141709550Y-172669511D01*
X141712688Y-172667079D01*
X141760239Y-172648083D01*
X141808303Y-172655600D01*
X141836914Y-172675543D01*
X141848553Y-172689675D01*
X141856609Y-172708220D01*
X141861729Y-172736334D01*
X141864559Y-172779173D01*
X141865744Y-172841895D01*
X141865943Y-172907261D01*
X141865982Y-172989268D01*
X141867386Y-173047316D01*
X141872086Y-173086465D01*
X141882013Y-173111780D01*
X141899097Y-173128323D01*
X141925268Y-173141156D01*
X141960225Y-173154491D01*
X141998404Y-173169007D01*
X141993859Y-172911389D01*
X141992029Y-172818519D01*
X141989888Y-172749889D01*
X141986819Y-172700711D01*
X141982206Y-172666198D01*
X141975432Y-172641562D01*
X141965881Y-172622016D01*
X141954366Y-172604770D01*
X141898810Y-172549680D01*
X141831020Y-172517822D01*
X141757287Y-172510191D01*
X141683907Y-172527780D01*
G37*
X141683907Y-172527780D02*
X141637328Y-172554723D01*
X141604943Y-172581466D01*
X141581258Y-172609484D01*
X141564941Y-172643748D01*
X141554661Y-172689227D01*
X141549086Y-172750892D01*
X141546884Y-172833711D01*
X141546629Y-172893246D01*
X141546629Y-173112391D01*
X141608314Y-173140044D01*
X141670000Y-173167697D01*
X141677257Y-172927670D01*
X141680256Y-172838028D01*
X141683402Y-172772962D01*
X141687299Y-172728026D01*
X141692553Y-172698770D01*
X141699769Y-172680748D01*
X141709550Y-172669511D01*
X141712688Y-172667079D01*
X141760239Y-172648083D01*
X141808303Y-172655600D01*
X141836914Y-172675543D01*
X141848553Y-172689675D01*
X141856609Y-172708220D01*
X141861729Y-172736334D01*
X141864559Y-172779173D01*
X141865744Y-172841895D01*
X141865943Y-172907261D01*
X141865982Y-172989268D01*
X141867386Y-173047316D01*
X141872086Y-173086465D01*
X141882013Y-173111780D01*
X141899097Y-173128323D01*
X141925268Y-173141156D01*
X141960225Y-173154491D01*
X141998404Y-173169007D01*
X141993859Y-172911389D01*
X141992029Y-172818519D01*
X141989888Y-172749889D01*
X141986819Y-172700711D01*
X141982206Y-172666198D01*
X141975432Y-172641562D01*
X141965881Y-172622016D01*
X141954366Y-172604770D01*
X141898810Y-172549680D01*
X141831020Y-172517822D01*
X141757287Y-172510191D01*
X141683907Y-172527780D01*
G36*
X142800256Y-172519918D02*
G01*
X142744799Y-172547568D01*
X142695852Y-172598480D01*
X142682371Y-172617338D01*
X142667686Y-172642015D01*
X142658158Y-172668816D01*
X142652707Y-172704587D01*
X142650253Y-172756169D01*
X142649714Y-172824267D01*
X142652148Y-172917588D01*
X142660606Y-172987657D01*
X142676826Y-173039931D01*
X142702546Y-173079869D01*
X142739503Y-173112929D01*
X142742218Y-173114886D01*
X142778640Y-173134908D01*
X142822498Y-173144815D01*
X142878276Y-173147257D01*
X142968952Y-173147257D01*
X142968990Y-173235283D01*
X142969834Y-173284308D01*
X142974976Y-173313065D01*
X142988413Y-173330311D01*
X143014142Y-173344808D01*
X143020321Y-173347769D01*
X143049236Y-173361648D01*
X143071624Y-173370414D01*
X143088271Y-173371171D01*
X143099964Y-173361023D01*
X143107490Y-173337073D01*
X143111634Y-173296426D01*
X143113185Y-173236186D01*
X143112929Y-173153455D01*
X143111651Y-173045339D01*
X143111252Y-173013000D01*
X143109815Y-172901524D01*
X143108528Y-172828603D01*
X142969029Y-172828603D01*
X142968245Y-172890499D01*
X142964760Y-172930997D01*
X142956876Y-172957708D01*
X142942895Y-172978244D01*
X142933403Y-172988260D01*
X142894596Y-173017567D01*
X142860237Y-173019952D01*
X142824784Y-172995750D01*
X142823886Y-172994857D01*
X142809461Y-172976153D01*
X142800687Y-172950732D01*
X142796261Y-172911584D01*
X142794882Y-172851697D01*
X142794857Y-172838430D01*
X142798188Y-172755901D01*
X142809031Y-172698691D01*
X142828660Y-172663766D01*
X142858350Y-172648094D01*
X142875509Y-172646514D01*
X142916234Y-172653926D01*
X142944168Y-172678330D01*
X142960983Y-172722980D01*
X142968350Y-172791130D01*
X142969029Y-172828603D01*
X143108528Y-172828603D01*
X143108292Y-172815245D01*
X143106323Y-172750333D01*
X143103550Y-172702958D01*
X143099612Y-172669290D01*
X143094151Y-172645498D01*
X143086808Y-172627753D01*
X143077223Y-172612224D01*
X143073113Y-172606381D01*
X143018595Y-172551185D01*
X142949664Y-172519890D01*
X142869928Y-172511165D01*
X142800256Y-172519918D01*
G37*
X142800256Y-172519918D02*
X142744799Y-172547568D01*
X142695852Y-172598480D01*
X142682371Y-172617338D01*
X142667686Y-172642015D01*
X142658158Y-172668816D01*
X142652707Y-172704587D01*
X142650253Y-172756169D01*
X142649714Y-172824267D01*
X142652148Y-172917588D01*
X142660606Y-172987657D01*
X142676826Y-173039931D01*
X142702546Y-173079869D01*
X142739503Y-173112929D01*
X142742218Y-173114886D01*
X142778640Y-173134908D01*
X142822498Y-173144815D01*
X142878276Y-173147257D01*
X142968952Y-173147257D01*
X142968990Y-173235283D01*
X142969834Y-173284308D01*
X142974976Y-173313065D01*
X142988413Y-173330311D01*
X143014142Y-173344808D01*
X143020321Y-173347769D01*
X143049236Y-173361648D01*
X143071624Y-173370414D01*
X143088271Y-173371171D01*
X143099964Y-173361023D01*
X143107490Y-173337073D01*
X143111634Y-173296426D01*
X143113185Y-173236186D01*
X143112929Y-173153455D01*
X143111651Y-173045339D01*
X143111252Y-173013000D01*
X143109815Y-172901524D01*
X143108528Y-172828603D01*
X142969029Y-172828603D01*
X142968245Y-172890499D01*
X142964760Y-172930997D01*
X142956876Y-172957708D01*
X142942895Y-172978244D01*
X142933403Y-172988260D01*
X142894596Y-173017567D01*
X142860237Y-173019952D01*
X142824784Y-172995750D01*
X142823886Y-172994857D01*
X142809461Y-172976153D01*
X142800687Y-172950732D01*
X142796261Y-172911584D01*
X142794882Y-172851697D01*
X142794857Y-172838430D01*
X142798188Y-172755901D01*
X142809031Y-172698691D01*
X142828660Y-172663766D01*
X142858350Y-172648094D01*
X142875509Y-172646514D01*
X142916234Y-172653926D01*
X142944168Y-172678330D01*
X142960983Y-172722980D01*
X142968350Y-172791130D01*
X142969029Y-172828603D01*
X143108528Y-172828603D01*
X143108292Y-172815245D01*
X143106323Y-172750333D01*
X143103550Y-172702958D01*
X143099612Y-172669290D01*
X143094151Y-172645498D01*
X143086808Y-172627753D01*
X143077223Y-172612224D01*
X143073113Y-172606381D01*
X143018595Y-172551185D01*
X142949664Y-172519890D01*
X142869928Y-172511165D01*
X142800256Y-172519918D01*
D11*
X107000000Y-134350000D02*
X107000000Y-138450000D01*
X107000000Y-138450000D02*
X109000000Y-138450000D01*
X109000000Y-138450000D02*
X109000000Y-134350000D01*
X109000000Y-134350000D02*
X107000000Y-134350000D01*
X109200000Y-135100000D02*
X109500000Y-134800000D01*
X109500000Y-134800000D02*
X109500000Y-135400000D01*
X109200000Y-135100000D02*
X109500000Y-135400000D01*
X109600000Y-134350000D02*
X109600000Y-138450000D01*
X109600000Y-138450000D02*
X111600000Y-138450000D01*
X111600000Y-138450000D02*
X111600000Y-134350000D01*
X111600000Y-134350000D02*
X109600000Y-134350000D01*
X111800000Y-135100000D02*
X112100000Y-134800000D01*
X112100000Y-134800000D02*
X112100000Y-135400000D01*
X111800000Y-135100000D02*
X112100000Y-135400000D01*
X116930000Y-129530000D02*
X116930000Y-128200000D01*
X115600000Y-129530000D02*
X116930000Y-129530000D01*
X114330000Y-129530000D02*
X114330000Y-126870000D01*
X114330000Y-126870000D02*
X101570000Y-126870000D01*
X114330000Y-129530000D02*
X101570000Y-129530000D01*
X101570000Y-129530000D02*
X101570000Y-126870000D01*
D14*
X137669047Y-151976190D02*
X137669047Y-151476190D01*
X137550000Y-151476190D01*
X137478571Y-151500000D01*
X137430952Y-151547619D01*
X137407142Y-151595238D01*
X137383333Y-151690476D01*
X137383333Y-151761904D01*
X137407142Y-151857142D01*
X137430952Y-151904761D01*
X137478571Y-151952380D01*
X137550000Y-151976190D01*
X137669047Y-151976190D01*
X136907142Y-151976190D02*
X137192857Y-151976190D01*
X137050000Y-151976190D02*
X137050000Y-151476190D01*
X137097619Y-151547619D01*
X137145238Y-151595238D01*
X137192857Y-151619047D01*
X122669047Y-157826190D02*
X122669047Y-157326190D01*
X122550000Y-157326190D01*
X122478571Y-157350000D01*
X122430952Y-157397619D01*
X122407142Y-157445238D01*
X122383333Y-157540476D01*
X122383333Y-157611904D01*
X122407142Y-157707142D01*
X122430952Y-157754761D01*
X122478571Y-157802380D01*
X122550000Y-157826190D01*
X122669047Y-157826190D01*
X122216666Y-157326190D02*
X121907142Y-157326190D01*
X122073809Y-157516666D01*
X122002380Y-157516666D01*
X121954761Y-157540476D01*
X121930952Y-157564285D01*
X121907142Y-157611904D01*
X121907142Y-157730952D01*
X121930952Y-157778571D01*
X121954761Y-157802380D01*
X122002380Y-157826190D01*
X122145238Y-157826190D01*
X122192857Y-157802380D01*
X122216666Y-157778571D01*
X124319047Y-157826190D02*
X124319047Y-157326190D01*
X124200000Y-157326190D01*
X124128571Y-157350000D01*
X124080952Y-157397619D01*
X124057142Y-157445238D01*
X124033333Y-157540476D01*
X124033333Y-157611904D01*
X124057142Y-157707142D01*
X124080952Y-157754761D01*
X124128571Y-157802380D01*
X124200000Y-157826190D01*
X124319047Y-157826190D01*
X123842857Y-157373809D02*
X123819047Y-157350000D01*
X123771428Y-157326190D01*
X123652380Y-157326190D01*
X123604761Y-157350000D01*
X123580952Y-157373809D01*
X123557142Y-157421428D01*
X123557142Y-157469047D01*
X123580952Y-157540476D01*
X123866666Y-157826190D01*
X123557142Y-157826190D01*
X118323361Y-160462990D02*
X118323361Y-160820133D01*
X118347171Y-160891561D01*
X118394790Y-160939180D01*
X118466219Y-160962990D01*
X118513838Y-160962990D01*
X117823361Y-160962990D02*
X118109076Y-160962990D01*
X117966219Y-160962990D02*
X117966219Y-160462990D01*
X118013838Y-160534419D01*
X118061457Y-160582038D01*
X118109076Y-160605847D01*
X117656695Y-160462990D02*
X117347171Y-160462990D01*
X117513838Y-160653466D01*
X117442409Y-160653466D01*
X117394790Y-160677276D01*
X117370980Y-160701085D01*
X117347171Y-160748704D01*
X117347171Y-160867752D01*
X117370980Y-160915371D01*
X117394790Y-160939180D01*
X117442409Y-160962990D01*
X117585266Y-160962990D01*
X117632885Y-160939180D01*
X117656695Y-160915371D01*
X115783361Y-160462990D02*
X115783361Y-160820133D01*
X115807171Y-160891561D01*
X115854790Y-160939180D01*
X115926219Y-160962990D01*
X115973838Y-160962990D01*
X115283361Y-160962990D02*
X115569076Y-160962990D01*
X115426219Y-160962990D02*
X115426219Y-160462990D01*
X115473838Y-160534419D01*
X115521457Y-160582038D01*
X115569076Y-160605847D01*
X115092885Y-160510609D02*
X115069076Y-160486800D01*
X115021457Y-160462990D01*
X114902409Y-160462990D01*
X114854790Y-160486800D01*
X114830980Y-160510609D01*
X114807171Y-160558228D01*
X114807171Y-160605847D01*
X114830980Y-160677276D01*
X115116695Y-160962990D01*
X114807171Y-160962990D01*
D17*
X129886751Y-160017060D02*
X129922465Y-160124202D01*
X129922465Y-160302774D01*
X129886751Y-160374202D01*
X129851037Y-160409917D01*
X129779608Y-160445631D01*
X129708180Y-160445631D01*
X129636751Y-160409917D01*
X129601037Y-160374202D01*
X129565322Y-160302774D01*
X129529608Y-160159917D01*
X129493894Y-160088488D01*
X129458180Y-160052774D01*
X129386751Y-160017060D01*
X129315322Y-160017060D01*
X129243894Y-160052774D01*
X129208180Y-160088488D01*
X129172465Y-160159917D01*
X129172465Y-160338488D01*
X129208180Y-160445631D01*
X129172465Y-160695631D02*
X129922465Y-160874202D01*
X129386751Y-161017060D01*
X129922465Y-161159917D01*
X129172465Y-161338488D01*
X129922465Y-161624202D02*
X129172465Y-161624202D01*
X129922465Y-161981345D02*
X129172465Y-161981345D01*
X129708180Y-162231345D01*
X129172465Y-162481345D01*
X129922465Y-162481345D01*
X132256180Y-171998631D02*
X132220465Y-171927202D01*
X132220465Y-171820060D01*
X132256180Y-171712917D01*
X132327608Y-171641488D01*
X132399037Y-171605774D01*
X132541894Y-171570060D01*
X132649037Y-171570060D01*
X132791894Y-171605774D01*
X132863322Y-171641488D01*
X132934751Y-171712917D01*
X132970465Y-171820060D01*
X132970465Y-171891488D01*
X132934751Y-171998631D01*
X132899037Y-172034345D01*
X132649037Y-172034345D01*
X132649037Y-171891488D01*
X132970465Y-172355774D02*
X132220465Y-172355774D01*
X132970465Y-172784345D01*
X132220465Y-172784345D01*
X132970465Y-173141488D02*
X132220465Y-173141488D01*
X132220465Y-173320060D01*
X132256180Y-173427202D01*
X132327608Y-173498631D01*
X132399037Y-173534345D01*
X132541894Y-173570060D01*
X132649037Y-173570060D01*
X132791894Y-173534345D01*
X132863322Y-173498631D01*
X132934751Y-173427202D01*
X132970465Y-173320060D01*
X132970465Y-173141488D01*
X127140465Y-160413917D02*
X127140465Y-160878202D01*
X127426180Y-160628202D01*
X127426180Y-160735345D01*
X127461894Y-160806774D01*
X127497608Y-160842488D01*
X127569037Y-160878202D01*
X127747608Y-160878202D01*
X127819037Y-160842488D01*
X127854751Y-160806774D01*
X127890465Y-160735345D01*
X127890465Y-160521060D01*
X127854751Y-160449631D01*
X127819037Y-160413917D01*
X127819037Y-161199631D02*
X127854751Y-161235345D01*
X127890465Y-161199631D01*
X127854751Y-161163917D01*
X127819037Y-161199631D01*
X127890465Y-161199631D01*
X127140465Y-161485345D02*
X127140465Y-161949631D01*
X127426180Y-161699631D01*
X127426180Y-161806774D01*
X127461894Y-161878202D01*
X127497608Y-161913917D01*
X127569037Y-161949631D01*
X127747608Y-161949631D01*
X127819037Y-161913917D01*
X127854751Y-161878202D01*
X127890465Y-161806774D01*
X127890465Y-161592488D01*
X127854751Y-161521060D01*
X127819037Y-161485345D01*
X127140465Y-162163917D02*
X127890465Y-162413917D01*
X127140465Y-162663917D01*
X132256180Y-161076631D02*
X132220465Y-161005202D01*
X132220465Y-160898060D01*
X132256180Y-160790917D01*
X132327608Y-160719488D01*
X132399037Y-160683774D01*
X132541894Y-160648060D01*
X132649037Y-160648060D01*
X132791894Y-160683774D01*
X132863322Y-160719488D01*
X132934751Y-160790917D01*
X132970465Y-160898060D01*
X132970465Y-160969488D01*
X132934751Y-161076631D01*
X132899037Y-161112345D01*
X132649037Y-161112345D01*
X132649037Y-160969488D01*
X132970465Y-161433774D02*
X132220465Y-161433774D01*
X132970465Y-161862345D01*
X132220465Y-161862345D01*
X132970465Y-162219488D02*
X132220465Y-162219488D01*
X132220465Y-162398060D01*
X132256180Y-162505202D01*
X132327608Y-162576631D01*
X132399037Y-162612345D01*
X132541894Y-162648060D01*
X132649037Y-162648060D01*
X132791894Y-162612345D01*
X132863322Y-162576631D01*
X132934751Y-162505202D01*
X132970465Y-162398060D01*
X132970465Y-162219488D01*
X130394751Y-171605774D02*
X130430465Y-171712917D01*
X130430465Y-171891488D01*
X130394751Y-171962917D01*
X130359037Y-171998631D01*
X130287608Y-172034345D01*
X130216180Y-172034345D01*
X130144751Y-171998631D01*
X130109037Y-171962917D01*
X130073322Y-171891488D01*
X130037608Y-171748631D01*
X130001894Y-171677202D01*
X129966180Y-171641488D01*
X129894751Y-171605774D01*
X129823322Y-171605774D01*
X129751894Y-171641488D01*
X129716180Y-171677202D01*
X129680465Y-171748631D01*
X129680465Y-171927202D01*
X129716180Y-172034345D01*
X130359037Y-172784345D02*
X130394751Y-172748631D01*
X130430465Y-172641488D01*
X130430465Y-172570060D01*
X130394751Y-172462917D01*
X130323322Y-172391488D01*
X130251894Y-172355774D01*
X130109037Y-172320060D01*
X130001894Y-172320060D01*
X129859037Y-172355774D01*
X129787608Y-172391488D01*
X129716180Y-172462917D01*
X129680465Y-172570060D01*
X129680465Y-172641488D01*
X129716180Y-172748631D01*
X129751894Y-172784345D01*
X130430465Y-173105774D02*
X129680465Y-173105774D01*
X130430465Y-173534345D02*
X130001894Y-173212917D01*
X129680465Y-173534345D02*
X130109037Y-173105774D01*
X131156751Y-159663228D02*
X131192465Y-159770371D01*
X131192465Y-159948942D01*
X131156751Y-160020371D01*
X131121037Y-160056085D01*
X131049608Y-160091800D01*
X130978180Y-160091800D01*
X130906751Y-160056085D01*
X130871037Y-160020371D01*
X130835322Y-159948942D01*
X130799608Y-159806085D01*
X130763894Y-159734657D01*
X130728180Y-159698942D01*
X130656751Y-159663228D01*
X130585322Y-159663228D01*
X130513894Y-159698942D01*
X130478180Y-159734657D01*
X130442465Y-159806085D01*
X130442465Y-159984657D01*
X130478180Y-160091800D01*
X130442465Y-160341800D02*
X131192465Y-160520371D01*
X130656751Y-160663228D01*
X131192465Y-160806085D01*
X130442465Y-160984657D01*
X130442465Y-161413228D02*
X130442465Y-161556085D01*
X130478180Y-161627514D01*
X130549608Y-161698942D01*
X130692465Y-161734657D01*
X130942465Y-161734657D01*
X131085322Y-161698942D01*
X131156751Y-161627514D01*
X131192465Y-161556085D01*
X131192465Y-161413228D01*
X131156751Y-161341800D01*
X131085322Y-161270371D01*
X130942465Y-161234657D01*
X130692465Y-161234657D01*
X130549608Y-161270371D01*
X130478180Y-161341800D01*
X130442465Y-161413228D01*
X130406751Y-162591800D02*
X131371037Y-161948942D01*
X135637465Y-160034917D02*
X134887465Y-160034917D01*
X135637465Y-160463488D01*
X134887465Y-160463488D01*
X135637465Y-161249202D02*
X135280322Y-160999202D01*
X135637465Y-160820631D02*
X134887465Y-160820631D01*
X134887465Y-161106345D01*
X134923180Y-161177774D01*
X134958894Y-161213488D01*
X135030322Y-161249202D01*
X135137465Y-161249202D01*
X135208894Y-161213488D01*
X135244608Y-161177774D01*
X135280322Y-161106345D01*
X135280322Y-160820631D01*
X135601751Y-161534917D02*
X135637465Y-161642060D01*
X135637465Y-161820631D01*
X135601751Y-161892060D01*
X135566037Y-161927774D01*
X135494608Y-161963488D01*
X135423180Y-161963488D01*
X135351751Y-161927774D01*
X135316037Y-161892060D01*
X135280322Y-161820631D01*
X135244608Y-161677774D01*
X135208894Y-161606345D01*
X135173180Y-161570631D01*
X135101751Y-161534917D01*
X135030322Y-161534917D01*
X134958894Y-161570631D01*
X134923180Y-161606345D01*
X134887465Y-161677774D01*
X134887465Y-161856345D01*
X134923180Y-161963488D01*
X134887465Y-162177774D02*
X134887465Y-162606345D01*
X135637465Y-162392060D02*
X134887465Y-162392060D01*
X127140465Y-171589917D02*
X127140465Y-172054202D01*
X127426180Y-171804202D01*
X127426180Y-171911345D01*
X127461894Y-171982774D01*
X127497608Y-172018488D01*
X127569037Y-172054202D01*
X127747608Y-172054202D01*
X127819037Y-172018488D01*
X127854751Y-171982774D01*
X127890465Y-171911345D01*
X127890465Y-171697060D01*
X127854751Y-171625631D01*
X127819037Y-171589917D01*
X127819037Y-172375631D02*
X127854751Y-172411345D01*
X127890465Y-172375631D01*
X127854751Y-172339917D01*
X127819037Y-172375631D01*
X127890465Y-172375631D01*
X127140465Y-172661345D02*
X127140465Y-173125631D01*
X127426180Y-172875631D01*
X127426180Y-172982774D01*
X127461894Y-173054202D01*
X127497608Y-173089917D01*
X127569037Y-173125631D01*
X127747608Y-173125631D01*
X127819037Y-173089917D01*
X127854751Y-173054202D01*
X127890465Y-172982774D01*
X127890465Y-172768488D01*
X127854751Y-172697060D01*
X127819037Y-172661345D01*
X127140465Y-173339917D02*
X127890465Y-173589917D01*
X127140465Y-173839917D01*
X124600465Y-161886202D02*
X124600465Y-161529060D01*
X124957608Y-161493345D01*
X124921894Y-161529060D01*
X124886180Y-161600488D01*
X124886180Y-161779060D01*
X124921894Y-161850488D01*
X124957608Y-161886202D01*
X125029037Y-161921917D01*
X125207608Y-161921917D01*
X125279037Y-161886202D01*
X125314751Y-161850488D01*
X125350465Y-161779060D01*
X125350465Y-161600488D01*
X125314751Y-161529060D01*
X125279037Y-161493345D01*
X124600465Y-162136202D02*
X125350465Y-162386202D01*
X124600465Y-162636202D01*
D18*
X135376799Y-171493583D02*
X135400989Y-171566155D01*
X135400989Y-171687107D01*
X135376799Y-171735488D01*
X135352608Y-171759679D01*
X135304227Y-171783869D01*
X135255846Y-171783869D01*
X135207465Y-171759679D01*
X135183275Y-171735488D01*
X135159084Y-171687107D01*
X135134894Y-171590345D01*
X135110703Y-171541964D01*
X135086513Y-171517774D01*
X135038132Y-171493583D01*
X134989751Y-171493583D01*
X134941370Y-171517774D01*
X134917180Y-171541964D01*
X134892989Y-171590345D01*
X134892989Y-171711298D01*
X134917180Y-171783869D01*
X134892989Y-171953202D02*
X135400989Y-172074155D01*
X135038132Y-172170917D01*
X135400989Y-172267679D01*
X134892989Y-172388631D01*
X135400989Y-172582155D02*
X134892989Y-172582155D01*
X134892989Y-172703107D01*
X134917180Y-172775679D01*
X134965560Y-172824060D01*
X135013941Y-172848250D01*
X135110703Y-172872440D01*
X135183275Y-172872440D01*
X135280037Y-172848250D01*
X135328418Y-172824060D01*
X135376799Y-172775679D01*
X135400989Y-172703107D01*
X135400989Y-172582155D01*
X135400989Y-173090155D02*
X134892989Y-173090155D01*
X134892989Y-173428821D02*
X134892989Y-173525583D01*
X134917180Y-173573964D01*
X134965560Y-173622345D01*
X135062322Y-173646536D01*
X135231656Y-173646536D01*
X135328418Y-173622345D01*
X135376799Y-173573964D01*
X135400989Y-173525583D01*
X135400989Y-173428821D01*
X135376799Y-173380440D01*
X135328418Y-173332060D01*
X135231656Y-173307869D01*
X135062322Y-173307869D01*
X134965560Y-173332060D01*
X134917180Y-173380440D01*
X134892989Y-173428821D01*
D17*
X124600465Y-172046202D02*
X124600465Y-171689060D01*
X124957608Y-171653345D01*
X124921894Y-171689060D01*
X124886180Y-171760488D01*
X124886180Y-171939060D01*
X124921894Y-172010488D01*
X124957608Y-172046202D01*
X125029037Y-172081917D01*
X125207608Y-172081917D01*
X125279037Y-172046202D01*
X125314751Y-172010488D01*
X125350465Y-171939060D01*
X125350465Y-171760488D01*
X125314751Y-171689060D01*
X125279037Y-171653345D01*
X124600465Y-172296202D02*
X125350465Y-172546202D01*
X124600465Y-172796202D01*
D12*
X136604760Y-166299536D02*
X137319046Y-166299536D01*
X137461903Y-166251917D01*
X137557141Y-166156679D01*
X137604760Y-166013821D01*
X137604760Y-165918583D01*
X136604760Y-166680488D02*
X136604760Y-167299536D01*
X136985713Y-166966202D01*
X136985713Y-167109060D01*
X137033332Y-167204298D01*
X137080951Y-167251917D01*
X137176189Y-167299536D01*
X137414284Y-167299536D01*
X137509522Y-167251917D01*
X137557141Y-167204298D01*
X137604760Y-167109060D01*
X137604760Y-166823345D01*
X137557141Y-166728107D01*
X137509522Y-166680488D01*
X136604760Y-167918583D02*
X136604760Y-168013821D01*
X136652380Y-168109060D01*
X136699999Y-168156679D01*
X136795237Y-168204298D01*
X136985713Y-168251917D01*
X137223808Y-168251917D01*
X137414284Y-168204298D01*
X137509522Y-168156679D01*
X137557141Y-168109060D01*
X137604760Y-168013821D01*
X137604760Y-167918583D01*
X137557141Y-167823345D01*
X137509522Y-167775726D01*
X137414284Y-167728107D01*
X137223808Y-167680488D01*
X136985713Y-167680488D01*
X136795237Y-167728107D01*
X136699999Y-167775726D01*
X136652380Y-167823345D01*
X136604760Y-167918583D01*
D17*
X140775885Y-136714285D02*
X140025885Y-136714285D01*
X140025885Y-137000000D01*
X140061600Y-137071428D01*
X140097314Y-137107142D01*
X140168742Y-137142857D01*
X140275885Y-137142857D01*
X140347314Y-137107142D01*
X140383028Y-137071428D01*
X140418742Y-137000000D01*
X140418742Y-136714285D01*
X140704457Y-137892857D02*
X140740171Y-137857142D01*
X140775885Y-137750000D01*
X140775885Y-137678571D01*
X140740171Y-137571428D01*
X140668742Y-137500000D01*
X140597314Y-137464285D01*
X140454457Y-137428571D01*
X140347314Y-137428571D01*
X140204457Y-137464285D01*
X140133028Y-137500000D01*
X140061600Y-137571428D01*
X140025885Y-137678571D01*
X140025885Y-137750000D01*
X140061600Y-137857142D01*
X140097314Y-137892857D01*
X140775885Y-138607142D02*
X140775885Y-138178571D01*
X140775885Y-138392857D02*
X140025885Y-138392857D01*
X140133028Y-138321428D01*
X140204457Y-138250000D01*
X140240171Y-138178571D01*
X140775885Y-139321428D02*
X140775885Y-138892857D01*
X140775885Y-139107142D02*
X140025885Y-139107142D01*
X140133028Y-139035714D01*
X140204457Y-138964285D01*
X140240171Y-138892857D01*
X143315885Y-137071428D02*
X142565885Y-137071428D01*
X142565885Y-137357142D01*
X142601600Y-137428571D01*
X142637314Y-137464285D01*
X142708742Y-137500000D01*
X142815885Y-137500000D01*
X142887314Y-137464285D01*
X142923028Y-137428571D01*
X142958742Y-137357142D01*
X142958742Y-137071428D01*
X142923028Y-138071428D02*
X142958742Y-138178571D01*
X142994457Y-138214285D01*
X143065885Y-138250000D01*
X143173028Y-138250000D01*
X143244457Y-138214285D01*
X143280171Y-138178571D01*
X143315885Y-138107142D01*
X143315885Y-137821428D01*
X142565885Y-137821428D01*
X142565885Y-138071428D01*
X142601600Y-138142857D01*
X142637314Y-138178571D01*
X142708742Y-138214285D01*
X142780171Y-138214285D01*
X142851600Y-138178571D01*
X142887314Y-138142857D01*
X142923028Y-138071428D01*
X142923028Y-137821428D01*
X142887314Y-138678571D02*
X142851600Y-138607142D01*
X142815885Y-138571428D01*
X142744457Y-138535714D01*
X142708742Y-138535714D01*
X142637314Y-138571428D01*
X142601600Y-138607142D01*
X142565885Y-138678571D01*
X142565885Y-138821428D01*
X142601600Y-138892857D01*
X142637314Y-138928571D01*
X142708742Y-138964285D01*
X142744457Y-138964285D01*
X142815885Y-138928571D01*
X142851600Y-138892857D01*
X142887314Y-138821428D01*
X142887314Y-138678571D01*
X142923028Y-138607142D01*
X142958742Y-138571428D01*
X143030171Y-138535714D01*
X143173028Y-138535714D01*
X143244457Y-138571428D01*
X143280171Y-138607142D01*
X143315885Y-138678571D01*
X143315885Y-138821428D01*
X143280171Y-138892857D01*
X143244457Y-138928571D01*
X143173028Y-138964285D01*
X143030171Y-138964285D01*
X142958742Y-138928571D01*
X142923028Y-138892857D01*
X142887314Y-138821428D01*
X145839285Y-129735714D02*
X145839285Y-129307142D01*
X145839285Y-129521428D02*
X145089285Y-129521428D01*
X145196428Y-129450000D01*
X145267857Y-129378571D01*
X145303571Y-129307142D01*
X145160714Y-130021428D02*
X145125000Y-130057142D01*
X145089285Y-130128571D01*
X145089285Y-130307142D01*
X145125000Y-130378571D01*
X145160714Y-130414285D01*
X145232142Y-130450000D01*
X145303571Y-130450000D01*
X145410714Y-130414285D01*
X145839285Y-129985714D01*
X145839285Y-130450000D01*
X145089285Y-130664285D02*
X145839285Y-130914285D01*
X145089285Y-131164285D01*
X138235885Y-136767857D02*
X137485885Y-136767857D01*
X137485885Y-137053571D01*
X137521600Y-137125000D01*
X137557314Y-137160714D01*
X137628742Y-137196428D01*
X137735885Y-137196428D01*
X137807314Y-137160714D01*
X137843028Y-137125000D01*
X137878742Y-137053571D01*
X137878742Y-136767857D01*
X138021600Y-137482142D02*
X138021600Y-137839285D01*
X138235885Y-137410714D02*
X137485885Y-137660714D01*
X138235885Y-137910714D01*
X138235885Y-138553571D02*
X138235885Y-138125000D01*
X138235885Y-138339285D02*
X137485885Y-138339285D01*
X137593028Y-138267857D01*
X137664457Y-138196428D01*
X137700171Y-138125000D01*
X137485885Y-139232142D02*
X137485885Y-138875000D01*
X137843028Y-138839285D01*
X137807314Y-138875000D01*
X137771600Y-138946428D01*
X137771600Y-139125000D01*
X137807314Y-139196428D01*
X137843028Y-139232142D01*
X137914457Y-139267857D01*
X138093028Y-139267857D01*
X138164457Y-139232142D01*
X138200171Y-139196428D01*
X138235885Y-139125000D01*
X138235885Y-138946428D01*
X138200171Y-138875000D01*
X138164457Y-138839285D01*
X135822885Y-128964285D02*
X135072885Y-128964285D01*
X135072885Y-129250000D01*
X135108600Y-129321428D01*
X135144314Y-129357142D01*
X135215742Y-129392857D01*
X135322885Y-129392857D01*
X135394314Y-129357142D01*
X135430028Y-129321428D01*
X135465742Y-129250000D01*
X135465742Y-128964285D01*
X135751457Y-130142857D02*
X135787171Y-130107142D01*
X135822885Y-130000000D01*
X135822885Y-129928571D01*
X135787171Y-129821428D01*
X135715742Y-129750000D01*
X135644314Y-129714285D01*
X135501457Y-129678571D01*
X135394314Y-129678571D01*
X135251457Y-129714285D01*
X135180028Y-129750000D01*
X135108600Y-129821428D01*
X135072885Y-129928571D01*
X135072885Y-130000000D01*
X135108600Y-130107142D01*
X135144314Y-130142857D01*
X135822885Y-130857142D02*
X135822885Y-130428571D01*
X135822885Y-130642857D02*
X135072885Y-130642857D01*
X135180028Y-130571428D01*
X135251457Y-130500000D01*
X135287171Y-130428571D01*
X135144314Y-131142857D02*
X135108600Y-131178571D01*
X135072885Y-131250000D01*
X135072885Y-131428571D01*
X135108600Y-131500000D01*
X135144314Y-131535714D01*
X135215742Y-131571428D01*
X135287171Y-131571428D01*
X135394314Y-131535714D01*
X135822885Y-131107142D01*
X135822885Y-131571428D01*
X138239285Y-128914285D02*
X137489285Y-128914285D01*
X137489285Y-129200000D01*
X137525000Y-129271428D01*
X137560714Y-129307142D01*
X137632142Y-129342857D01*
X137739285Y-129342857D01*
X137810714Y-129307142D01*
X137846428Y-129271428D01*
X137882142Y-129200000D01*
X137882142Y-128914285D01*
X138167857Y-130092857D02*
X138203571Y-130057142D01*
X138239285Y-129950000D01*
X138239285Y-129878571D01*
X138203571Y-129771428D01*
X138132142Y-129700000D01*
X138060714Y-129664285D01*
X137917857Y-129628571D01*
X137810714Y-129628571D01*
X137667857Y-129664285D01*
X137596428Y-129700000D01*
X137525000Y-129771428D01*
X137489285Y-129878571D01*
X137489285Y-129950000D01*
X137525000Y-130057142D01*
X137560714Y-130092857D01*
X138239285Y-130807142D02*
X138239285Y-130378571D01*
X138239285Y-130592857D02*
X137489285Y-130592857D01*
X137596428Y-130521428D01*
X137667857Y-130450000D01*
X137703571Y-130378571D01*
X137489285Y-131271428D02*
X137489285Y-131342857D01*
X137525000Y-131414285D01*
X137560714Y-131450000D01*
X137632142Y-131485714D01*
X137775000Y-131521428D01*
X137953571Y-131521428D01*
X138096428Y-131485714D01*
X138167857Y-131450000D01*
X138203571Y-131414285D01*
X138239285Y-131342857D01*
X138239285Y-131271428D01*
X138203571Y-131200000D01*
X138167857Y-131164285D01*
X138096428Y-131128571D01*
X137953571Y-131092857D01*
X137775000Y-131092857D01*
X137632142Y-131128571D01*
X137560714Y-131164285D01*
X137525000Y-131200000D01*
X137489285Y-131271428D01*
X140789285Y-129321428D02*
X140039285Y-129321428D01*
X140039285Y-129607142D01*
X140075000Y-129678571D01*
X140110714Y-129714285D01*
X140182142Y-129750000D01*
X140289285Y-129750000D01*
X140360714Y-129714285D01*
X140396428Y-129678571D01*
X140432142Y-129607142D01*
X140432142Y-129321428D01*
X140396428Y-130321428D02*
X140432142Y-130428571D01*
X140467857Y-130464285D01*
X140539285Y-130500000D01*
X140646428Y-130500000D01*
X140717857Y-130464285D01*
X140753571Y-130428571D01*
X140789285Y-130357142D01*
X140789285Y-130071428D01*
X140039285Y-130071428D01*
X140039285Y-130321428D01*
X140075000Y-130392857D01*
X140110714Y-130428571D01*
X140182142Y-130464285D01*
X140253571Y-130464285D01*
X140325000Y-130428571D01*
X140360714Y-130392857D01*
X140396428Y-130321428D01*
X140396428Y-130071428D01*
X140789285Y-130857142D02*
X140789285Y-131000000D01*
X140753571Y-131071428D01*
X140717857Y-131107142D01*
X140610714Y-131178571D01*
X140467857Y-131214285D01*
X140182142Y-131214285D01*
X140110714Y-131178571D01*
X140075000Y-131142857D01*
X140039285Y-131071428D01*
X140039285Y-130928571D01*
X140075000Y-130857142D01*
X140110714Y-130821428D01*
X140182142Y-130785714D01*
X140360714Y-130785714D01*
X140432142Y-130821428D01*
X140467857Y-130857142D01*
X140503571Y-130928571D01*
X140503571Y-131071428D01*
X140467857Y-131142857D01*
X140432142Y-131178571D01*
X140360714Y-131214285D01*
X142565885Y-129250000D02*
X143315885Y-129500000D01*
X142565885Y-129750000D01*
X143315885Y-130000000D02*
X142565885Y-130000000D01*
X142565885Y-130178571D01*
X142601600Y-130285714D01*
X142673028Y-130357142D01*
X142744457Y-130392857D01*
X142887314Y-130428571D01*
X142994457Y-130428571D01*
X143137314Y-130392857D01*
X143208742Y-130357142D01*
X143280171Y-130285714D01*
X143315885Y-130178571D01*
X143315885Y-130000000D01*
X143315885Y-130750000D02*
X142565885Y-130750000D01*
X142565885Y-130928571D01*
X142601600Y-131035714D01*
X142673028Y-131107142D01*
X142744457Y-131142857D01*
X142887314Y-131178571D01*
X142994457Y-131178571D01*
X143137314Y-131142857D01*
X143208742Y-131107142D01*
X143280171Y-131035714D01*
X143315885Y-130928571D01*
X143315885Y-130750000D01*
X134981600Y-137428571D02*
X134945885Y-137357142D01*
X134945885Y-137250000D01*
X134981600Y-137142857D01*
X135053028Y-137071428D01*
X135124457Y-137035714D01*
X135267314Y-137000000D01*
X135374457Y-137000000D01*
X135517314Y-137035714D01*
X135588742Y-137071428D01*
X135660171Y-137142857D01*
X135695885Y-137250000D01*
X135695885Y-137321428D01*
X135660171Y-137428571D01*
X135624457Y-137464285D01*
X135374457Y-137464285D01*
X135374457Y-137321428D01*
X135695885Y-137785714D02*
X134945885Y-137785714D01*
X135695885Y-138214285D01*
X134945885Y-138214285D01*
X135695885Y-138571428D02*
X134945885Y-138571428D01*
X134945885Y-138750000D01*
X134981600Y-138857142D01*
X135053028Y-138928571D01*
X135124457Y-138964285D01*
X135267314Y-139000000D01*
X135374457Y-139000000D01*
X135517314Y-138964285D01*
X135588742Y-138928571D01*
X135660171Y-138857142D01*
X135695885Y-138750000D01*
X135695885Y-138571428D01*
X145105885Y-137857142D02*
X145105885Y-137500000D01*
X145463028Y-137464285D01*
X145427314Y-137500000D01*
X145391600Y-137571428D01*
X145391600Y-137750000D01*
X145427314Y-137821428D01*
X145463028Y-137857142D01*
X145534457Y-137892857D01*
X145713028Y-137892857D01*
X145784457Y-137857142D01*
X145820171Y-137821428D01*
X145855885Y-137750000D01*
X145855885Y-137571428D01*
X145820171Y-137500000D01*
X145784457Y-137464285D01*
X145105885Y-138107142D02*
X145855885Y-138357142D01*
X145105885Y-138607142D01*
D12*
X78201780Y-161526876D02*
X77201780Y-161526876D01*
X77916066Y-161860209D01*
X77201780Y-162193542D01*
X78201780Y-162193542D01*
X77297019Y-162622114D02*
X77249400Y-162669733D01*
X77201780Y-162764971D01*
X77201780Y-163003066D01*
X77249400Y-163098304D01*
X77297019Y-163145923D01*
X77392257Y-163193542D01*
X77487495Y-163193542D01*
X77630352Y-163145923D01*
X78201780Y-162574495D01*
X78201780Y-163193542D01*
X76957180Y-145448676D02*
X75957180Y-145448676D01*
X76671466Y-145782009D01*
X75957180Y-146115342D01*
X76957180Y-146115342D01*
X75957180Y-147067723D02*
X75957180Y-146591533D01*
X76433371Y-146543914D01*
X76385752Y-146591533D01*
X76338133Y-146686771D01*
X76338133Y-146924866D01*
X76385752Y-147020104D01*
X76433371Y-147067723D01*
X76528609Y-147115342D01*
X76766704Y-147115342D01*
X76861942Y-147067723D01*
X76909561Y-147020104D01*
X76957180Y-146924866D01*
X76957180Y-146686771D01*
X76909561Y-146591533D01*
X76861942Y-146543914D01*
X83809523Y-152352380D02*
X83809523Y-151352380D01*
X83476190Y-152066666D01*
X83142857Y-151352380D01*
X83142857Y-152352380D01*
X82761904Y-151352380D02*
X82095238Y-151352380D01*
X82523809Y-152352380D01*
X83689723Y-161213980D02*
X83689723Y-160213980D01*
X83356390Y-160928266D01*
X83023057Y-160213980D01*
X83023057Y-161213980D01*
X82118295Y-160213980D02*
X82308771Y-160213980D01*
X82404009Y-160261600D01*
X82451628Y-160309219D01*
X82546866Y-160452076D01*
X82594485Y-160642552D01*
X82594485Y-161023504D01*
X82546866Y-161118742D01*
X82499247Y-161166361D01*
X82404009Y-161213980D01*
X82213533Y-161213980D01*
X82118295Y-161166361D01*
X82070676Y-161118742D01*
X82023057Y-161023504D01*
X82023057Y-160785409D01*
X82070676Y-160690171D01*
X82118295Y-160642552D01*
X82213533Y-160594933D01*
X82404009Y-160594933D01*
X82499247Y-160642552D01*
X82546866Y-160690171D01*
X82594485Y-160785409D01*
X110371523Y-171958780D02*
X110371523Y-170958780D01*
X110038190Y-171673066D01*
X109704857Y-170958780D01*
X109704857Y-171958780D01*
X108800095Y-171292114D02*
X108800095Y-171958780D01*
X109038190Y-170911161D02*
X109276285Y-171625447D01*
X108657238Y-171625447D01*
X122411123Y-171958780D02*
X122411123Y-170958780D01*
X122077790Y-171673066D01*
X121744457Y-170958780D01*
X121744457Y-171958780D01*
X121363504Y-170958780D02*
X120744457Y-170958780D01*
X121077790Y-171339733D01*
X120934933Y-171339733D01*
X120839695Y-171387352D01*
X120792076Y-171434971D01*
X120744457Y-171530209D01*
X120744457Y-171768304D01*
X120792076Y-171863542D01*
X120839695Y-171911161D01*
X120934933Y-171958780D01*
X121220647Y-171958780D01*
X121315885Y-171911161D01*
X121363504Y-171863542D01*
X146950180Y-133256676D02*
X147664466Y-133256676D01*
X147807323Y-133209057D01*
X147902561Y-133113819D01*
X147950180Y-132970961D01*
X147950180Y-132875723D01*
X147045419Y-133685247D02*
X146997800Y-133732866D01*
X146950180Y-133828104D01*
X146950180Y-134066200D01*
X146997800Y-134161438D01*
X147045419Y-134209057D01*
X147140657Y-134256676D01*
X147235895Y-134256676D01*
X147378752Y-134209057D01*
X147950180Y-133637628D01*
X147950180Y-134256676D01*
X146950180Y-134875723D02*
X146950180Y-134970961D01*
X146997800Y-135066200D01*
X147045419Y-135113819D01*
X147140657Y-135161438D01*
X147331133Y-135209057D01*
X147569228Y-135209057D01*
X147759704Y-135161438D01*
X147854942Y-135113819D01*
X147902561Y-135066200D01*
X147950180Y-134970961D01*
X147950180Y-134875723D01*
X147902561Y-134780485D01*
X147854942Y-134732866D01*
X147759704Y-134685247D01*
X147569228Y-134637628D01*
X147331133Y-134637628D01*
X147140657Y-134685247D01*
X147045419Y-134732866D01*
X146997800Y-134780485D01*
X146950180Y-134875723D01*
D14*
X113281552Y-160486800D02*
X113329171Y-160462990D01*
X113400600Y-160462990D01*
X113472028Y-160486800D01*
X113519647Y-160534419D01*
X113543457Y-160582038D01*
X113567266Y-160677276D01*
X113567266Y-160748704D01*
X113543457Y-160843942D01*
X113519647Y-160891561D01*
X113472028Y-160939180D01*
X113400600Y-160962990D01*
X113352980Y-160962990D01*
X113281552Y-160939180D01*
X113257742Y-160915371D01*
X113257742Y-160748704D01*
X113352980Y-160748704D01*
X113043457Y-160962990D02*
X113043457Y-160462990D01*
X112757742Y-160962990D01*
X112757742Y-160462990D01*
X112519647Y-160962990D02*
X112519647Y-160462990D01*
X112400600Y-160462990D01*
X112329171Y-160486800D01*
X112281552Y-160534419D01*
X112257742Y-160582038D01*
X112233933Y-160677276D01*
X112233933Y-160748704D01*
X112257742Y-160843942D01*
X112281552Y-160891561D01*
X112329171Y-160939180D01*
X112400600Y-160962990D01*
X112519647Y-160962990D01*
X111067266Y-160462990D02*
X110900600Y-160962990D01*
X110733933Y-160462990D01*
X110281552Y-160915371D02*
X110305361Y-160939180D01*
X110376790Y-160962990D01*
X110424409Y-160962990D01*
X110495838Y-160939180D01*
X110543457Y-160891561D01*
X110567266Y-160843942D01*
X110591076Y-160748704D01*
X110591076Y-160677276D01*
X110567266Y-160582038D01*
X110543457Y-160534419D01*
X110495838Y-160486800D01*
X110424409Y-160462990D01*
X110376790Y-160462990D01*
X110305361Y-160486800D01*
X110281552Y-160510609D01*
X109781552Y-160915371D02*
X109805361Y-160939180D01*
X109876790Y-160962990D01*
X109924409Y-160962990D01*
X109995838Y-160939180D01*
X110043457Y-160891561D01*
X110067266Y-160843942D01*
X110091076Y-160748704D01*
X110091076Y-160677276D01*
X110067266Y-160582038D01*
X110043457Y-160534419D01*
X109995838Y-160486800D01*
X109924409Y-160462990D01*
X109876790Y-160462990D01*
X109805361Y-160486800D01*
X109781552Y-160510609D01*
D12*
X92162600Y-142467857D02*
X92198314Y-142503571D01*
X92305457Y-142539285D01*
X92376885Y-142539285D01*
X92484028Y-142503571D01*
X92555457Y-142432142D01*
X92591171Y-142360714D01*
X92626885Y-142217857D01*
X92626885Y-142110714D01*
X92591171Y-141967857D01*
X92555457Y-141896428D01*
X92484028Y-141825000D01*
X92376885Y-141789285D01*
X92305457Y-141789285D01*
X92198314Y-141825000D01*
X92162600Y-141860714D01*
X91876885Y-142325000D02*
X91519742Y-142325000D01*
X91948314Y-142539285D02*
X91698314Y-141789285D01*
X91448314Y-142539285D01*
X91198314Y-142539285D02*
X91198314Y-141789285D01*
X90769742Y-142539285D01*
X90769742Y-141789285D01*
X90412600Y-142539285D02*
X90412600Y-141789285D01*
X90412600Y-142146428D02*
X89984028Y-142146428D01*
X89984028Y-142539285D02*
X89984028Y-141789285D01*
X86231314Y-142467857D02*
X86267028Y-142503571D01*
X86374171Y-142539285D01*
X86445600Y-142539285D01*
X86552742Y-142503571D01*
X86624171Y-142432142D01*
X86659885Y-142360714D01*
X86695600Y-142217857D01*
X86695600Y-142110714D01*
X86659885Y-141967857D01*
X86624171Y-141896428D01*
X86552742Y-141825000D01*
X86445600Y-141789285D01*
X86374171Y-141789285D01*
X86267028Y-141825000D01*
X86231314Y-141860714D01*
X85945600Y-142325000D02*
X85588457Y-142325000D01*
X86017028Y-142539285D02*
X85767028Y-141789285D01*
X85517028Y-142539285D01*
X85267028Y-142539285D02*
X85267028Y-141789285D01*
X84838457Y-142539285D01*
X84838457Y-141789285D01*
X84124171Y-142539285D02*
X84481314Y-142539285D01*
X84481314Y-141789285D01*
D19*
X107452380Y-131966666D02*
X108166666Y-131966666D01*
X108309523Y-131919047D01*
X108404761Y-131823809D01*
X108452380Y-131680952D01*
X108452380Y-131585714D01*
X108452380Y-132442857D02*
X107452380Y-132442857D01*
X107452380Y-132823809D01*
X107500000Y-132919047D01*
X107547619Y-132966666D01*
X107642857Y-133014285D01*
X107785714Y-133014285D01*
X107880952Y-132966666D01*
X107928571Y-132919047D01*
X107976190Y-132823809D01*
X107976190Y-132442857D01*
X107547619Y-133395238D02*
X107500000Y-133442857D01*
X107452380Y-133538095D01*
X107452380Y-133776190D01*
X107500000Y-133871428D01*
X107547619Y-133919047D01*
X107642857Y-133966666D01*
X107738095Y-133966666D01*
X107880952Y-133919047D01*
X108452380Y-133347619D01*
X108452380Y-133966666D01*
X110052380Y-131966666D02*
X110766666Y-131966666D01*
X110909523Y-131919047D01*
X111004761Y-131823809D01*
X111052380Y-131680952D01*
X111052380Y-131585714D01*
X111052380Y-132442857D02*
X110052380Y-132442857D01*
X110052380Y-132823809D01*
X110100000Y-132919047D01*
X110147619Y-132966666D01*
X110242857Y-133014285D01*
X110385714Y-133014285D01*
X110480952Y-132966666D01*
X110528571Y-132919047D01*
X110576190Y-132823809D01*
X110576190Y-132442857D01*
X111052380Y-133966666D02*
X111052380Y-133395238D01*
X111052380Y-133680952D02*
X110052380Y-133680952D01*
X110195238Y-133585714D01*
X110290476Y-133490476D01*
X110338095Y-133395238D01*
D12*
X117382380Y-127866666D02*
X118096666Y-127866666D01*
X118239523Y-127819047D01*
X118334761Y-127723809D01*
X118382380Y-127580952D01*
X118382380Y-127485714D01*
X117477619Y-128295238D02*
X117430000Y-128342857D01*
X117382380Y-128438095D01*
X117382380Y-128676190D01*
X117430000Y-128771428D01*
X117477619Y-128819047D01*
X117572857Y-128866666D01*
X117668095Y-128866666D01*
X117810952Y-128819047D01*
X118382380Y-128247619D01*
X118382380Y-128866666D01*
M02*
