G04 #@! TF.GenerationSoftware,KiCad,Pcbnew,6.0.10-86aedd382b~118~ubuntu22.04.1*
G04 #@! TF.CreationDate,2023-01-19T22:52:08+01:00*
G04 #@! TF.ProjectId,mre_addon_v2,6d72655f-6164-4646-9f6e-5f76322e6b69,V2.5*
G04 #@! TF.SameCoordinates,Original*
G04 #@! TF.FileFunction,Soldermask,Bot*
G04 #@! TF.FilePolarity,Negative*
%FSLAX46Y46*%
G04 Gerber Fmt 4.6, Leading zero omitted, Abs format (unit mm)*
G04 Created by KiCad (PCBNEW 6.0.10-86aedd382b~118~ubuntu22.04.1) date 2023-01-19 22:52:08*
%MOMM*%
%LPD*%
G01*
G04 APERTURE LIST*
G04 Aperture macros list*
%AMRoundRect*
0 Rectangle with rounded corners*
0 $1 Rounding radius*
0 $2 $3 $4 $5 $6 $7 $8 $9 X,Y pos of 4 corners*
0 Add a 4 corners polygon primitive as box body*
4,1,4,$2,$3,$4,$5,$6,$7,$8,$9,$2,$3,0*
0 Add four circle primitives for the rounded corners*
1,1,$1+$1,$2,$3*
1,1,$1+$1,$4,$5*
1,1,$1+$1,$6,$7*
1,1,$1+$1,$8,$9*
0 Add four rect primitives between the rounded corners*
20,1,$1+$1,$2,$3,$4,$5,0*
20,1,$1+$1,$4,$5,$6,$7,0*
20,1,$1+$1,$6,$7,$8,$9,0*
20,1,$1+$1,$8,$9,$2,$3,0*%
G04 Aperture macros list end*
%ADD10C,1.092600*%
%ADD11C,3.102000*%
%ADD12RoundRect,0.301001X-0.499999X0.499999X-0.499999X-0.499999X0.499999X-0.499999X0.499999X0.499999X0*%
%ADD13C,1.602000*%
%ADD14C,1.102000*%
%ADD15C,0.991000*%
%ADD16C,3.101740*%
%ADD17RoundRect,0.051000X-0.850000X-0.850000X0.850000X-0.850000X0.850000X0.850000X-0.850000X0.850000X0*%
%ADD18RoundRect,0.051000X0.850000X-0.850000X0.850000X0.850000X-0.850000X0.850000X-0.850000X-0.850000X0*%
%ADD19O,1.802000X1.802000*%
%ADD20C,1.702000*%
%ADD21O,1.702000X1.702000*%
%ADD22C,0.802000*%
%ADD23C,0.902000*%
%ADD24C,6.502000*%
%ADD25RoundRect,0.051000X-0.800000X0.800000X-0.800000X-0.800000X0.800000X-0.800000X0.800000X0.800000X0*%
%ADD26RoundRect,0.051000X0.762000X0.762000X-0.762000X0.762000X-0.762000X-0.762000X0.762000X-0.762000X0*%
%ADD27RoundRect,0.051000X-0.650000X0.400000X-0.650000X-0.400000X0.650000X-0.400000X0.650000X0.400000X0*%
%ADD28O,1.402000X0.902000*%
%ADD29C,1.502000*%
%ADD30RoundRect,0.051000X-0.750000X0.500000X-0.750000X-0.500000X0.750000X-0.500000X0.750000X0.500000X0*%
%ADD31RoundRect,0.269750X0.256250X-0.218750X0.256250X0.218750X-0.256250X0.218750X-0.256250X-0.218750X0*%
%ADD32RoundRect,0.051000X-0.500000X1.575000X-0.500000X-1.575000X0.500000X-1.575000X0.500000X1.575000X0*%
%ADD33C,0.889400*%
G04 APERTURE END LIST*
D10*
X94060000Y-129000000D03*
X99140000Y-130016000D03*
X99140000Y-127984000D03*
D11*
X149235000Y-146160000D03*
X149235000Y-150860000D03*
D12*
X144915000Y-144000000D03*
D13*
X144915000Y-147000000D03*
X144915000Y-150000000D03*
X144915000Y-153000000D03*
X141915000Y-144000000D03*
X141915000Y-147000000D03*
X141915000Y-150000000D03*
X141915000Y-153000000D03*
D14*
X140975000Y-156000000D03*
X140975000Y-141000000D03*
D12*
X144915000Y-144000000D03*
D13*
X144915000Y-147000000D03*
X144915000Y-150000000D03*
X144915000Y-153000000D03*
X141915000Y-144000000D03*
X141915000Y-147000000D03*
X141915000Y-150000000D03*
X141915000Y-153000000D03*
D15*
X95889000Y-165257000D03*
X103889000Y-165257000D03*
D16*
X16951220Y-139599580D03*
X16951220Y-126000420D03*
X30448780Y-140699400D03*
X30448780Y-124900600D03*
D17*
X145500000Y-128200000D03*
D18*
X94725000Y-133150000D03*
D19*
X97265000Y-133150000D03*
X99805000Y-133150000D03*
D20*
X151000000Y-128700000D03*
D21*
X151000000Y-138860000D03*
D22*
X98400000Y-146445000D03*
X96950000Y-145000000D03*
D23*
X88519900Y-165089500D03*
X90216956Y-160992444D03*
X86119900Y-162689500D03*
X90216956Y-164386556D03*
X88519900Y-160289500D03*
X86822844Y-160992444D03*
X86822844Y-164386556D03*
D24*
X88519900Y-162689500D03*
D23*
X90919900Y-162689500D03*
X144589200Y-162689500D03*
X140492144Y-164386556D03*
X139789200Y-162689500D03*
X143886256Y-160992444D03*
X143886256Y-164386556D03*
X140492144Y-160992444D03*
X142189200Y-165089500D03*
X142189200Y-160289500D03*
D24*
X142189200Y-162689500D03*
D25*
X115400600Y-159360800D03*
X117900600Y-159360800D03*
D26*
X112900600Y-159360800D03*
X110400600Y-159360800D03*
D27*
X106654600Y-146055000D03*
D28*
X106654600Y-144810400D03*
D29*
X91360600Y-140771800D03*
X85360600Y-140771800D03*
D25*
X124973080Y-168379060D03*
D20*
X124973080Y-165839060D03*
X127513080Y-168379060D03*
X127513080Y-165839060D03*
X130053080Y-168379060D03*
X130053080Y-165839060D03*
X132593080Y-168379060D03*
X132593080Y-165839060D03*
X135133080Y-168379060D03*
X135133080Y-165839060D03*
D25*
X145478500Y-135336200D03*
D20*
X145478500Y-132796200D03*
X142938500Y-135336200D03*
X142938500Y-132796200D03*
X140398500Y-135336200D03*
X140398500Y-132796200D03*
X137858500Y-135336200D03*
X137858500Y-132796200D03*
X135318500Y-135336200D03*
X135318500Y-132796200D03*
D25*
X79197200Y-159212200D03*
D20*
X81737200Y-159212200D03*
X84277200Y-159212200D03*
D25*
X79197200Y-149941200D03*
D20*
X81737200Y-149941200D03*
X84277200Y-149941200D03*
D18*
X115600000Y-128200000D03*
D19*
X113060000Y-128200000D03*
X110520000Y-128200000D03*
X107980000Y-128200000D03*
X105440000Y-128200000D03*
X102900000Y-128200000D03*
D30*
X110600000Y-135100000D03*
X110600000Y-136400000D03*
X110600000Y-137700000D03*
X108000000Y-135100000D03*
X108000000Y-136400000D03*
X108000000Y-137700000D03*
D31*
X123950000Y-160387500D03*
X123950000Y-158812500D03*
X122300000Y-160387500D03*
X122300000Y-158812500D03*
X137300000Y-154437500D03*
X137300000Y-152862500D03*
D32*
X124968000Y-164581600D03*
X124968000Y-169631600D03*
X127508000Y-164581600D03*
X127508000Y-169631600D03*
X130048000Y-164581600D03*
X130048000Y-169631600D03*
X132588000Y-164581600D03*
X132588000Y-169631600D03*
X135128000Y-164581600D03*
X135128000Y-169631600D03*
D10*
X99140000Y-130016000D03*
X99140000Y-127984000D03*
X94060000Y-129000000D03*
D33*
X95330000Y-128365000D03*
X95330000Y-129635000D03*
X96600000Y-128365000D03*
X96600000Y-129635000D03*
X97870000Y-128365000D03*
X97870000Y-129635000D03*
G36*
X111366668Y-136946665D02*
G01*
X111367058Y-136948627D01*
X111366699Y-136949267D01*
X111323511Y-137000946D01*
X111314880Y-137069661D01*
X111344844Y-137132291D01*
X111365682Y-137150348D01*
X111366336Y-137152238D01*
X111365026Y-137153749D01*
X111363982Y-137153821D01*
X111349801Y-137151000D01*
X109850199Y-137151000D01*
X109835226Y-137153978D01*
X109833332Y-137153335D01*
X109832942Y-137151373D01*
X109833301Y-137150733D01*
X109876489Y-137099054D01*
X109885120Y-137030339D01*
X109855156Y-136967709D01*
X109834318Y-136949652D01*
X109833664Y-136947762D01*
X109834974Y-136946251D01*
X109836018Y-136946179D01*
X109850199Y-136949000D01*
X111349801Y-136949000D01*
X111364774Y-136946022D01*
X111366668Y-136946665D01*
G37*
G36*
X108766668Y-136946665D02*
G01*
X108767058Y-136948627D01*
X108766699Y-136949267D01*
X108723511Y-137000946D01*
X108714880Y-137069661D01*
X108744844Y-137132291D01*
X108765682Y-137150348D01*
X108766336Y-137152238D01*
X108765026Y-137153749D01*
X108763982Y-137153821D01*
X108749801Y-137151000D01*
X107250199Y-137151000D01*
X107235226Y-137153978D01*
X107233332Y-137153335D01*
X107232942Y-137151373D01*
X107233301Y-137150733D01*
X107276489Y-137099054D01*
X107285120Y-137030339D01*
X107255156Y-136967709D01*
X107234318Y-136949652D01*
X107233664Y-136947762D01*
X107234974Y-136946251D01*
X107236018Y-136946179D01*
X107250199Y-136949000D01*
X108749801Y-136949000D01*
X108764774Y-136946022D01*
X108766668Y-136946665D01*
G37*
G36*
X111366668Y-135646665D02*
G01*
X111367058Y-135648627D01*
X111366699Y-135649267D01*
X111323511Y-135700946D01*
X111314880Y-135769661D01*
X111344844Y-135832291D01*
X111365682Y-135850348D01*
X111366336Y-135852238D01*
X111365026Y-135853749D01*
X111363982Y-135853821D01*
X111349801Y-135851000D01*
X109850199Y-135851000D01*
X109835226Y-135853978D01*
X109833332Y-135853335D01*
X109832942Y-135851373D01*
X109833301Y-135850733D01*
X109876489Y-135799054D01*
X109885120Y-135730339D01*
X109855156Y-135667709D01*
X109834318Y-135649652D01*
X109833664Y-135647762D01*
X109834974Y-135646251D01*
X109836018Y-135646179D01*
X109850199Y-135649000D01*
X111349801Y-135649000D01*
X111364774Y-135646022D01*
X111366668Y-135646665D01*
G37*
G36*
X108766668Y-135646665D02*
G01*
X108767058Y-135648627D01*
X108766699Y-135649267D01*
X108723511Y-135700946D01*
X108714880Y-135769661D01*
X108744844Y-135832291D01*
X108765682Y-135850348D01*
X108766336Y-135852238D01*
X108765026Y-135853749D01*
X108763982Y-135853821D01*
X108749801Y-135851000D01*
X107250199Y-135851000D01*
X107235226Y-135853978D01*
X107233332Y-135853335D01*
X107232942Y-135851373D01*
X107233301Y-135850733D01*
X107276489Y-135799054D01*
X107285120Y-135730339D01*
X107255156Y-135667709D01*
X107234318Y-135649652D01*
X107233664Y-135647762D01*
X107234974Y-135646251D01*
X107236018Y-135646179D01*
X107250199Y-135649000D01*
X108749801Y-135649000D01*
X108764774Y-135646022D01*
X108766668Y-135646665D01*
G37*
M02*
