G04 #@! TF.GenerationSoftware,KiCad,Pcbnew,6.0.11-2627ca5db0~126~ubuntu22.04.1*
G04 #@! TF.CreationDate,2023-02-05T21:12:01+01:00*
G04 #@! TF.ProjectId,mre_addon_v2,6d72655f-6164-4646-9f6e-5f76322e6b69,V2.5*
G04 #@! TF.SameCoordinates,Original*
G04 #@! TF.FileFunction,Legend,Top*
G04 #@! TF.FilePolarity,Positive*
%FSLAX46Y46*%
G04 Gerber Fmt 4.6, Leading zero omitted, Abs format (unit mm)*
G04 Created by KiCad (PCBNEW 6.0.11-2627ca5db0~126~ubuntu22.04.1) date 2023-02-05 21:12:01*
%MOMM*%
%LPD*%
G01*
G04 APERTURE LIST*
%ADD10C,0.150000*%
%ADD11C,0.250000*%
%ADD12C,0.225000*%
%ADD13C,0.125000*%
%ADD14C,0.187500*%
%ADD15C,0.304800*%
%ADD16C,0.130000*%
%ADD17C,0.120000*%
%ADD18C,0.010000*%
%ADD19C,0.127000*%
%ADD20C,0.381000*%
%ADD21C,0.254000*%
%ADD22C,0.889000*%
%ADD23C,2.999740*%
G04 APERTURE END LIST*
D10*
X104789285Y-142503571D02*
X104896428Y-142539285D01*
X105075000Y-142539285D01*
X105146428Y-142503571D01*
X105182142Y-142467857D01*
X105217857Y-142396428D01*
X105217857Y-142325000D01*
X105182142Y-142253571D01*
X105146428Y-142217857D01*
X105075000Y-142182142D01*
X104932142Y-142146428D01*
X104860714Y-142110714D01*
X104825000Y-142075000D01*
X104789285Y-142003571D01*
X104789285Y-141932142D01*
X104825000Y-141860714D01*
X104860714Y-141825000D01*
X104932142Y-141789285D01*
X105110714Y-141789285D01*
X105217857Y-141825000D01*
X105432142Y-141789285D02*
X105860714Y-141789285D01*
X105646428Y-142539285D02*
X105646428Y-141789285D01*
X106110714Y-142539285D02*
X106110714Y-141789285D01*
X106360714Y-142325000D01*
X106610714Y-141789285D01*
X106610714Y-142539285D01*
X106896428Y-141789285D02*
X107360714Y-141789285D01*
X107110714Y-142075000D01*
X107217857Y-142075000D01*
X107289285Y-142110714D01*
X107325000Y-142146428D01*
X107360714Y-142217857D01*
X107360714Y-142396428D01*
X107325000Y-142467857D01*
X107289285Y-142503571D01*
X107217857Y-142539285D01*
X107003571Y-142539285D01*
X106932142Y-142503571D01*
X106896428Y-142467857D01*
X107646428Y-141860714D02*
X107682142Y-141825000D01*
X107753571Y-141789285D01*
X107932142Y-141789285D01*
X108003571Y-141825000D01*
X108039285Y-141860714D01*
X108075000Y-141932142D01*
X108075000Y-142003571D01*
X108039285Y-142110714D01*
X107610714Y-142539285D01*
X108075000Y-142539285D01*
X108646428Y-142146428D02*
X108396428Y-142146428D01*
X108396428Y-142539285D02*
X108396428Y-141789285D01*
X108753571Y-141789285D01*
X109182142Y-141789285D02*
X109253571Y-141789285D01*
X109325000Y-141825000D01*
X109360714Y-141860714D01*
X109396428Y-141932142D01*
X109432142Y-142075000D01*
X109432142Y-142253571D01*
X109396428Y-142396428D01*
X109360714Y-142467857D01*
X109325000Y-142503571D01*
X109253571Y-142539285D01*
X109182142Y-142539285D01*
X109110714Y-142503571D01*
X109075000Y-142467857D01*
X109039285Y-142396428D01*
X109003571Y-142253571D01*
X109003571Y-142075000D01*
X109039285Y-141932142D01*
X109075000Y-141860714D01*
X109110714Y-141825000D01*
X109182142Y-141789285D01*
X109682142Y-141789285D02*
X110182142Y-141789285D01*
X109860714Y-142539285D01*
X110432142Y-141860714D02*
X110467857Y-141825000D01*
X110539285Y-141789285D01*
X110717857Y-141789285D01*
X110789285Y-141825000D01*
X110825000Y-141860714D01*
X110860714Y-141932142D01*
X110860714Y-142003571D01*
X110825000Y-142110714D01*
X110396428Y-142539285D01*
X110860714Y-142539285D01*
X111610714Y-142467857D02*
X111575000Y-142503571D01*
X111467857Y-142539285D01*
X111396428Y-142539285D01*
X111289285Y-142503571D01*
X111217857Y-142432142D01*
X111182142Y-142360714D01*
X111146428Y-142217857D01*
X111146428Y-142110714D01*
X111182142Y-141967857D01*
X111217857Y-141896428D01*
X111289285Y-141825000D01*
X111396428Y-141789285D01*
X111467857Y-141789285D01*
X111575000Y-141825000D01*
X111610714Y-141860714D01*
X112039285Y-142110714D02*
X111967857Y-142075000D01*
X111932142Y-142039285D01*
X111896428Y-141967857D01*
X111896428Y-141932142D01*
X111932142Y-141860714D01*
X111967857Y-141825000D01*
X112039285Y-141789285D01*
X112182142Y-141789285D01*
X112253571Y-141825000D01*
X112289285Y-141860714D01*
X112325000Y-141932142D01*
X112325000Y-141967857D01*
X112289285Y-142039285D01*
X112253571Y-142075000D01*
X112182142Y-142110714D01*
X112039285Y-142110714D01*
X111967857Y-142146428D01*
X111932142Y-142182142D01*
X111896428Y-142253571D01*
X111896428Y-142396428D01*
X111932142Y-142467857D01*
X111967857Y-142503571D01*
X112039285Y-142539285D01*
X112182142Y-142539285D01*
X112253571Y-142503571D01*
X112289285Y-142467857D01*
X112325000Y-142396428D01*
X112325000Y-142253571D01*
X112289285Y-142182142D01*
X112253571Y-142146428D01*
X112182142Y-142110714D01*
X112539285Y-141789285D02*
X112967857Y-141789285D01*
X112753571Y-142539285D02*
X112753571Y-141789285D01*
X113539285Y-141789285D02*
X113396428Y-141789285D01*
X113325000Y-141825000D01*
X113289285Y-141860714D01*
X113217857Y-141967857D01*
X113182142Y-142110714D01*
X113182142Y-142396428D01*
X113217857Y-142467857D01*
X113253571Y-142503571D01*
X113325000Y-142539285D01*
X113467857Y-142539285D01*
X113539285Y-142503571D01*
X113575000Y-142467857D01*
X113610714Y-142396428D01*
X113610714Y-142217857D01*
X113575000Y-142146428D01*
X113539285Y-142110714D01*
X113467857Y-142075000D01*
X113325000Y-142075000D01*
X113253571Y-142110714D01*
X113217857Y-142146428D01*
X113182142Y-142217857D01*
D11*
X138809523Y-149597380D02*
X138333333Y-149597380D01*
X138333333Y-148597380D01*
X139095238Y-149549761D02*
X139238095Y-149597380D01*
X139476190Y-149597380D01*
X139571428Y-149549761D01*
X139619047Y-149502142D01*
X139666666Y-149406904D01*
X139666666Y-149311666D01*
X139619047Y-149216428D01*
X139571428Y-149168809D01*
X139476190Y-149121190D01*
X139285714Y-149073571D01*
X139190476Y-149025952D01*
X139142857Y-148978333D01*
X139095238Y-148883095D01*
X139095238Y-148787857D01*
X139142857Y-148692619D01*
X139190476Y-148645000D01*
X139285714Y-148597380D01*
X139523809Y-148597380D01*
X139666666Y-148645000D01*
X140095238Y-148597380D02*
X140095238Y-149406904D01*
X140142857Y-149502142D01*
X140190476Y-149549761D01*
X140285714Y-149597380D01*
X140476190Y-149597380D01*
X140571428Y-149549761D01*
X140619047Y-149502142D01*
X140666666Y-149406904D01*
X140666666Y-148597380D01*
X138309523Y-151207380D02*
X137976190Y-150731190D01*
X137738095Y-151207380D02*
X137738095Y-150207380D01*
X138119047Y-150207380D01*
X138214285Y-150255000D01*
X138261904Y-150302619D01*
X138309523Y-150397857D01*
X138309523Y-150540714D01*
X138261904Y-150635952D01*
X138214285Y-150683571D01*
X138119047Y-150731190D01*
X137738095Y-150731190D01*
X138595238Y-150540714D02*
X138976190Y-150540714D01*
X138738095Y-150207380D02*
X138738095Y-151064523D01*
X138785714Y-151159761D01*
X138880952Y-151207380D01*
X138976190Y-151207380D01*
X139309523Y-151207380D02*
X139309523Y-150540714D01*
X139309523Y-150731190D02*
X139357142Y-150635952D01*
X139404761Y-150588333D01*
X139500000Y-150540714D01*
X139595238Y-150540714D01*
X139928571Y-151207380D02*
X139928571Y-150540714D01*
X139928571Y-150207380D02*
X139880952Y-150255000D01*
X139928571Y-150302619D01*
X139976190Y-150255000D01*
X139928571Y-150207380D01*
X139928571Y-150302619D01*
X140404761Y-151207380D02*
X140404761Y-150540714D01*
X140404761Y-150635952D02*
X140452380Y-150588333D01*
X140547619Y-150540714D01*
X140690476Y-150540714D01*
X140785714Y-150588333D01*
X140833333Y-150683571D01*
X140833333Y-151207380D01*
X140833333Y-150683571D02*
X140880952Y-150588333D01*
X140976190Y-150540714D01*
X141119047Y-150540714D01*
X141214285Y-150588333D01*
X141261904Y-150683571D01*
X141261904Y-151207380D01*
D10*
X92733333Y-140366666D02*
X92733333Y-139666666D01*
X92966666Y-140166666D01*
X93200000Y-139666666D01*
X93200000Y-140366666D01*
X93933333Y-140300000D02*
X93900000Y-140333333D01*
X93800000Y-140366666D01*
X93733333Y-140366666D01*
X93633333Y-140333333D01*
X93566666Y-140266666D01*
X93533333Y-140200000D01*
X93500000Y-140066666D01*
X93500000Y-139966666D01*
X93533333Y-139833333D01*
X93566666Y-139766666D01*
X93633333Y-139700000D01*
X93733333Y-139666666D01*
X93800000Y-139666666D01*
X93900000Y-139700000D01*
X93933333Y-139733333D01*
X94233333Y-140366666D02*
X94233333Y-139666666D01*
X94500000Y-139666666D01*
X94566666Y-139700000D01*
X94600000Y-139733333D01*
X94633333Y-139800000D01*
X94633333Y-139900000D01*
X94600000Y-139966666D01*
X94566666Y-140000000D01*
X94500000Y-140033333D01*
X94233333Y-140033333D01*
X95233333Y-139666666D02*
X95100000Y-139666666D01*
X95033333Y-139700000D01*
X95000000Y-139733333D01*
X94933333Y-139833333D01*
X94900000Y-139966666D01*
X94900000Y-140233333D01*
X94933333Y-140300000D01*
X94966666Y-140333333D01*
X95033333Y-140366666D01*
X95166666Y-140366666D01*
X95233333Y-140333333D01*
X95266666Y-140300000D01*
X95300000Y-140233333D01*
X95300000Y-140066666D01*
X95266666Y-140000000D01*
X95233333Y-139966666D01*
X95166666Y-139933333D01*
X95033333Y-139933333D01*
X94966666Y-139966666D01*
X94933333Y-140000000D01*
X94900000Y-140066666D01*
X95733333Y-139666666D02*
X95800000Y-139666666D01*
X95866666Y-139700000D01*
X95900000Y-139733333D01*
X95933333Y-139800000D01*
X95966666Y-139933333D01*
X95966666Y-140100000D01*
X95933333Y-140233333D01*
X95900000Y-140300000D01*
X95866666Y-140333333D01*
X95800000Y-140366666D01*
X95733333Y-140366666D01*
X95666666Y-140333333D01*
X95633333Y-140300000D01*
X95600000Y-140233333D01*
X95566666Y-140100000D01*
X95566666Y-139933333D01*
X95600000Y-139800000D01*
X95633333Y-139733333D01*
X95666666Y-139700000D01*
X95733333Y-139666666D01*
X96400000Y-139666666D02*
X96466666Y-139666666D01*
X96533333Y-139700000D01*
X96566666Y-139733333D01*
X96600000Y-139800000D01*
X96633333Y-139933333D01*
X96633333Y-140100000D01*
X96600000Y-140233333D01*
X96566666Y-140300000D01*
X96533333Y-140333333D01*
X96466666Y-140366666D01*
X96400000Y-140366666D01*
X96333333Y-140333333D01*
X96300000Y-140300000D01*
X96266666Y-140233333D01*
X96233333Y-140100000D01*
X96233333Y-139933333D01*
X96266666Y-139800000D01*
X96300000Y-139733333D01*
X96333333Y-139700000D01*
X96400000Y-139666666D01*
X96900000Y-139733333D02*
X96933333Y-139700000D01*
X97000000Y-139666666D01*
X97166666Y-139666666D01*
X97233333Y-139700000D01*
X97266666Y-139733333D01*
X97300000Y-139800000D01*
X97300000Y-139866666D01*
X97266666Y-139966666D01*
X96866666Y-140366666D01*
X97300000Y-140366666D01*
X121233333Y-139766666D02*
X121233333Y-139066666D01*
X121466666Y-139566666D01*
X121700000Y-139066666D01*
X121700000Y-139766666D01*
X122433333Y-139700000D02*
X122400000Y-139733333D01*
X122300000Y-139766666D01*
X122233333Y-139766666D01*
X122133333Y-139733333D01*
X122066666Y-139666666D01*
X122033333Y-139600000D01*
X122000000Y-139466666D01*
X122000000Y-139366666D01*
X122033333Y-139233333D01*
X122066666Y-139166666D01*
X122133333Y-139100000D01*
X122233333Y-139066666D01*
X122300000Y-139066666D01*
X122400000Y-139100000D01*
X122433333Y-139133333D01*
X122733333Y-139766666D02*
X122733333Y-139066666D01*
X123000000Y-139066666D01*
X123066666Y-139100000D01*
X123100000Y-139133333D01*
X123133333Y-139200000D01*
X123133333Y-139300000D01*
X123100000Y-139366666D01*
X123066666Y-139400000D01*
X123000000Y-139433333D01*
X122733333Y-139433333D01*
X123733333Y-139066666D02*
X123600000Y-139066666D01*
X123533333Y-139100000D01*
X123500000Y-139133333D01*
X123433333Y-139233333D01*
X123400000Y-139366666D01*
X123400000Y-139633333D01*
X123433333Y-139700000D01*
X123466666Y-139733333D01*
X123533333Y-139766666D01*
X123666666Y-139766666D01*
X123733333Y-139733333D01*
X123766666Y-139700000D01*
X123800000Y-139633333D01*
X123800000Y-139466666D01*
X123766666Y-139400000D01*
X123733333Y-139366666D01*
X123666666Y-139333333D01*
X123533333Y-139333333D01*
X123466666Y-139366666D01*
X123433333Y-139400000D01*
X123400000Y-139466666D01*
X124233333Y-139066666D02*
X124300000Y-139066666D01*
X124366666Y-139100000D01*
X124400000Y-139133333D01*
X124433333Y-139200000D01*
X124466666Y-139333333D01*
X124466666Y-139500000D01*
X124433333Y-139633333D01*
X124400000Y-139700000D01*
X124366666Y-139733333D01*
X124300000Y-139766666D01*
X124233333Y-139766666D01*
X124166666Y-139733333D01*
X124133333Y-139700000D01*
X124100000Y-139633333D01*
X124066666Y-139500000D01*
X124066666Y-139333333D01*
X124100000Y-139200000D01*
X124133333Y-139133333D01*
X124166666Y-139100000D01*
X124233333Y-139066666D01*
X124900000Y-139066666D02*
X124966666Y-139066666D01*
X125033333Y-139100000D01*
X125066666Y-139133333D01*
X125100000Y-139200000D01*
X125133333Y-139333333D01*
X125133333Y-139500000D01*
X125100000Y-139633333D01*
X125066666Y-139700000D01*
X125033333Y-139733333D01*
X124966666Y-139766666D01*
X124900000Y-139766666D01*
X124833333Y-139733333D01*
X124800000Y-139700000D01*
X124766666Y-139633333D01*
X124733333Y-139500000D01*
X124733333Y-139333333D01*
X124766666Y-139200000D01*
X124800000Y-139133333D01*
X124833333Y-139100000D01*
X124900000Y-139066666D01*
X125733333Y-139300000D02*
X125733333Y-139766666D01*
X125566666Y-139033333D02*
X125400000Y-139533333D01*
X125833333Y-139533333D01*
D11*
X90418571Y-147450714D02*
X90609047Y-148117380D01*
X90799523Y-147641190D01*
X90990000Y-148117380D01*
X91180476Y-147450714D01*
X91466190Y-147450714D02*
X91656666Y-148117380D01*
X91847142Y-147641190D01*
X92037619Y-148117380D01*
X92228095Y-147450714D01*
X92513809Y-147450714D02*
X92704285Y-148117380D01*
X92894761Y-147641190D01*
X93085238Y-148117380D01*
X93275714Y-147450714D01*
X93656666Y-148022142D02*
X93704285Y-148069761D01*
X93656666Y-148117380D01*
X93609047Y-148069761D01*
X93656666Y-148022142D01*
X93656666Y-148117380D01*
X94132857Y-148117380D02*
X94132857Y-147450714D01*
X94132857Y-147641190D02*
X94180476Y-147545952D01*
X94228095Y-147498333D01*
X94323333Y-147450714D01*
X94418571Y-147450714D01*
X95180476Y-147450714D02*
X95180476Y-148117380D01*
X94751904Y-147450714D02*
X94751904Y-147974523D01*
X94799523Y-148069761D01*
X94894761Y-148117380D01*
X95037619Y-148117380D01*
X95132857Y-148069761D01*
X95180476Y-148022142D01*
X95609047Y-148069761D02*
X95704285Y-148117380D01*
X95894761Y-148117380D01*
X95990000Y-148069761D01*
X96037619Y-147974523D01*
X96037619Y-147926904D01*
X95990000Y-147831666D01*
X95894761Y-147784047D01*
X95751904Y-147784047D01*
X95656666Y-147736428D01*
X95609047Y-147641190D01*
X95609047Y-147593571D01*
X95656666Y-147498333D01*
X95751904Y-147450714D01*
X95894761Y-147450714D01*
X95990000Y-147498333D01*
X96847142Y-148069761D02*
X96751904Y-148117380D01*
X96561428Y-148117380D01*
X96466190Y-148069761D01*
X96418571Y-147974523D01*
X96418571Y-147593571D01*
X96466190Y-147498333D01*
X96561428Y-147450714D01*
X96751904Y-147450714D01*
X96847142Y-147498333D01*
X96894761Y-147593571D01*
X96894761Y-147688809D01*
X96418571Y-147784047D01*
X97180476Y-147450714D02*
X97561428Y-147450714D01*
X97323333Y-148117380D02*
X97323333Y-147260238D01*
X97370952Y-147165000D01*
X97466190Y-147117380D01*
X97561428Y-147117380D01*
X97894761Y-148117380D02*
X97894761Y-147450714D01*
X97894761Y-147117380D02*
X97847142Y-147165000D01*
X97894761Y-147212619D01*
X97942380Y-147165000D01*
X97894761Y-147117380D01*
X97894761Y-147212619D01*
X98370952Y-148022142D02*
X98418571Y-148069761D01*
X98370952Y-148117380D01*
X98323333Y-148069761D01*
X98370952Y-148022142D01*
X98370952Y-148117380D01*
X99275714Y-148069761D02*
X99180476Y-148117380D01*
X98990000Y-148117380D01*
X98894761Y-148069761D01*
X98847142Y-148022142D01*
X98799523Y-147926904D01*
X98799523Y-147641190D01*
X98847142Y-147545952D01*
X98894761Y-147498333D01*
X98990000Y-147450714D01*
X99180476Y-147450714D01*
X99275714Y-147498333D01*
X99847142Y-148117380D02*
X99751904Y-148069761D01*
X99704285Y-148022142D01*
X99656666Y-147926904D01*
X99656666Y-147641190D01*
X99704285Y-147545952D01*
X99751904Y-147498333D01*
X99847142Y-147450714D01*
X99990000Y-147450714D01*
X100085238Y-147498333D01*
X100132857Y-147545952D01*
X100180476Y-147641190D01*
X100180476Y-147926904D01*
X100132857Y-148022142D01*
X100085238Y-148069761D01*
X99990000Y-148117380D01*
X99847142Y-148117380D01*
X100609047Y-148117380D02*
X100609047Y-147450714D01*
X100609047Y-147545952D02*
X100656666Y-147498333D01*
X100751904Y-147450714D01*
X100894761Y-147450714D01*
X100990000Y-147498333D01*
X101037619Y-147593571D01*
X101037619Y-148117380D01*
X101037619Y-147593571D02*
X101085238Y-147498333D01*
X101180476Y-147450714D01*
X101323333Y-147450714D01*
X101418571Y-147498333D01*
X101466190Y-147593571D01*
X101466190Y-148117380D01*
D10*
X78966666Y-146316666D02*
X78966666Y-145616666D01*
X79200000Y-146116666D01*
X79433333Y-145616666D01*
X79433333Y-146316666D01*
X79733333Y-146116666D02*
X80066666Y-146116666D01*
X79666666Y-146316666D02*
X79900000Y-145616666D01*
X80133333Y-146316666D01*
X80300000Y-145616666D02*
X80766666Y-146316666D01*
X80766666Y-145616666D02*
X80300000Y-146316666D01*
X81400000Y-146316666D02*
X81000000Y-146316666D01*
X81200000Y-146316666D02*
X81200000Y-145616666D01*
X81133333Y-145716666D01*
X81066666Y-145783333D01*
X81000000Y-145816666D01*
X81633333Y-145616666D02*
X82066666Y-145616666D01*
X81833333Y-145883333D01*
X81933333Y-145883333D01*
X82000000Y-145916666D01*
X82033333Y-145950000D01*
X82066666Y-146016666D01*
X82066666Y-146183333D01*
X82033333Y-146250000D01*
X82000000Y-146283333D01*
X81933333Y-146316666D01*
X81733333Y-146316666D01*
X81666666Y-146283333D01*
X81633333Y-146250000D01*
X82500000Y-145616666D02*
X82566666Y-145616666D01*
X82633333Y-145650000D01*
X82666666Y-145683333D01*
X82700000Y-145750000D01*
X82733333Y-145883333D01*
X82733333Y-146050000D01*
X82700000Y-146183333D01*
X82666666Y-146250000D01*
X82633333Y-146283333D01*
X82566666Y-146316666D01*
X82500000Y-146316666D01*
X82433333Y-146283333D01*
X82400000Y-146250000D01*
X82366666Y-146183333D01*
X82333333Y-146050000D01*
X82333333Y-145883333D01*
X82366666Y-145750000D01*
X82400000Y-145683333D01*
X82433333Y-145650000D01*
X82500000Y-145616666D01*
X83366666Y-145616666D02*
X83033333Y-145616666D01*
X83000000Y-145950000D01*
X83033333Y-145916666D01*
X83100000Y-145883333D01*
X83266666Y-145883333D01*
X83333333Y-145916666D01*
X83366666Y-145950000D01*
X83400000Y-146016666D01*
X83400000Y-146183333D01*
X83366666Y-146250000D01*
X83333333Y-146283333D01*
X83266666Y-146316666D01*
X83100000Y-146316666D01*
X83033333Y-146283333D01*
X83000000Y-146250000D01*
X84000000Y-145850000D02*
X84000000Y-146316666D01*
X83833333Y-145583333D02*
X83666666Y-146083333D01*
X84100000Y-146083333D01*
D12*
X151035714Y-147427380D02*
X151035714Y-146427380D01*
X151035714Y-146903571D02*
X151550000Y-146903571D01*
X151550000Y-147427380D02*
X151550000Y-146427380D01*
X151978571Y-147046428D02*
X152664285Y-147046428D01*
X152321428Y-147427380D02*
X152321428Y-146665476D01*
D13*
X121378571Y-145233333D02*
X121616666Y-145233333D01*
X121330952Y-145376190D02*
X121497619Y-144876190D01*
X121664285Y-145376190D01*
X121830952Y-145376190D02*
X121830952Y-144876190D01*
X121950000Y-144876190D01*
X122021428Y-144900000D01*
X122069047Y-144947619D01*
X122092857Y-144995238D01*
X122116666Y-145090476D01*
X122116666Y-145161904D01*
X122092857Y-145257142D01*
X122069047Y-145304761D01*
X122021428Y-145352380D01*
X121950000Y-145376190D01*
X121830952Y-145376190D01*
X122402380Y-145090476D02*
X122354761Y-145066666D01*
X122330952Y-145042857D01*
X122307142Y-144995238D01*
X122307142Y-144971428D01*
X122330952Y-144923809D01*
X122354761Y-144900000D01*
X122402380Y-144876190D01*
X122497619Y-144876190D01*
X122545238Y-144900000D01*
X122569047Y-144923809D01*
X122592857Y-144971428D01*
X122592857Y-144995238D01*
X122569047Y-145042857D01*
X122545238Y-145066666D01*
X122497619Y-145090476D01*
X122402380Y-145090476D01*
X122354761Y-145114285D01*
X122330952Y-145138095D01*
X122307142Y-145185714D01*
X122307142Y-145280952D01*
X122330952Y-145328571D01*
X122354761Y-145352380D01*
X122402380Y-145376190D01*
X122497619Y-145376190D01*
X122545238Y-145352380D01*
X122569047Y-145328571D01*
X122592857Y-145280952D01*
X122592857Y-145185714D01*
X122569047Y-145138095D01*
X122545238Y-145114285D01*
X122497619Y-145090476D01*
X123021428Y-144876190D02*
X122926190Y-144876190D01*
X122878571Y-144900000D01*
X122854761Y-144923809D01*
X122807142Y-144995238D01*
X122783333Y-145090476D01*
X122783333Y-145280952D01*
X122807142Y-145328571D01*
X122830952Y-145352380D01*
X122878571Y-145376190D01*
X122973809Y-145376190D01*
X123021428Y-145352380D01*
X123045238Y-145328571D01*
X123069047Y-145280952D01*
X123069047Y-145161904D01*
X123045238Y-145114285D01*
X123021428Y-145090476D01*
X122973809Y-145066666D01*
X122878571Y-145066666D01*
X122830952Y-145090476D01*
X122807142Y-145114285D01*
X122783333Y-145161904D01*
X123259523Y-144923809D02*
X123283333Y-144900000D01*
X123330952Y-144876190D01*
X123450000Y-144876190D01*
X123497619Y-144900000D01*
X123521428Y-144923809D01*
X123545238Y-144971428D01*
X123545238Y-145019047D01*
X123521428Y-145090476D01*
X123235714Y-145376190D01*
X123545238Y-145376190D01*
X123830952Y-145090476D02*
X123783333Y-145066666D01*
X123759523Y-145042857D01*
X123735714Y-144995238D01*
X123735714Y-144971428D01*
X123759523Y-144923809D01*
X123783333Y-144900000D01*
X123830952Y-144876190D01*
X123926190Y-144876190D01*
X123973809Y-144900000D01*
X123997619Y-144923809D01*
X124021428Y-144971428D01*
X124021428Y-144995238D01*
X123997619Y-145042857D01*
X123973809Y-145066666D01*
X123926190Y-145090476D01*
X123830952Y-145090476D01*
X123783333Y-145114285D01*
X123759523Y-145138095D01*
X123735714Y-145185714D01*
X123735714Y-145280952D01*
X123759523Y-145328571D01*
X123783333Y-145352380D01*
X123830952Y-145376190D01*
X123926190Y-145376190D01*
X123973809Y-145352380D01*
X123997619Y-145328571D01*
X124021428Y-145280952D01*
X124021428Y-145185714D01*
X123997619Y-145138095D01*
X123973809Y-145114285D01*
X123926190Y-145090476D01*
D14*
X138204888Y-152785535D02*
X138633459Y-152785535D01*
X138325424Y-153535535D02*
X138419174Y-152785535D01*
X139227209Y-153464107D02*
X139187031Y-153499821D01*
X139075424Y-153535535D01*
X139003995Y-153535535D01*
X138901316Y-153499821D01*
X138838816Y-153428392D01*
X138812031Y-153356964D01*
X138794174Y-153214107D01*
X138807566Y-153106964D01*
X138861138Y-152964107D01*
X138905781Y-152892678D01*
X138986138Y-152821250D01*
X139097745Y-152785535D01*
X139169174Y-152785535D01*
X139271852Y-152821250D01*
X139303102Y-152856964D01*
X139539709Y-153535535D02*
X139633459Y-152785535D01*
X139919174Y-152785535D01*
X139986138Y-152821250D01*
X140017388Y-152856964D01*
X140044174Y-152928392D01*
X140030781Y-153035535D01*
X139986138Y-153106964D01*
X139945959Y-153142678D01*
X139870066Y-153178392D01*
X139584352Y-153178392D01*
X140646852Y-153535535D02*
X140289709Y-153535535D01*
X140383459Y-152785535D01*
X139128995Y-154457321D02*
X139700424Y-154457321D01*
X139378995Y-154743035D02*
X139450424Y-154171607D01*
D12*
X138585714Y-147402380D02*
X138585714Y-146402380D01*
X138585714Y-146878571D02*
X139100000Y-146878571D01*
X139100000Y-147402380D02*
X139100000Y-146402380D01*
X139528571Y-147021428D02*
X140214285Y-147021428D01*
D11*
X147783333Y-144402380D02*
X147307142Y-144402380D01*
X147307142Y-143402380D01*
X148069047Y-144354761D02*
X148211904Y-144402380D01*
X148450000Y-144402380D01*
X148545238Y-144354761D01*
X148592857Y-144307142D01*
X148640476Y-144211904D01*
X148640476Y-144116666D01*
X148592857Y-144021428D01*
X148545238Y-143973809D01*
X148450000Y-143926190D01*
X148259523Y-143878571D01*
X148164285Y-143830952D01*
X148116666Y-143783333D01*
X148069047Y-143688095D01*
X148069047Y-143592857D01*
X148116666Y-143497619D01*
X148164285Y-143450000D01*
X148259523Y-143402380D01*
X148497619Y-143402380D01*
X148640476Y-143450000D01*
X149069047Y-143402380D02*
X149069047Y-144211904D01*
X149116666Y-144307142D01*
X149164285Y-144354761D01*
X149259523Y-144402380D01*
X149450000Y-144402380D01*
X149545238Y-144354761D01*
X149592857Y-144307142D01*
X149640476Y-144211904D01*
X149640476Y-143402380D01*
X150735714Y-143402380D02*
X151069047Y-144402380D01*
X151402380Y-143402380D01*
X151735714Y-144402380D02*
X151735714Y-143735714D01*
X151735714Y-143830952D02*
X151783333Y-143783333D01*
X151878571Y-143735714D01*
X152021428Y-143735714D01*
X152116666Y-143783333D01*
X152164285Y-143878571D01*
X152164285Y-144402380D01*
X152164285Y-143878571D02*
X152211904Y-143783333D01*
X152307142Y-143735714D01*
X152450000Y-143735714D01*
X152545238Y-143783333D01*
X152592857Y-143878571D01*
X152592857Y-144402380D01*
D10*
X86453333Y-143103166D02*
X86620000Y-143803166D01*
X86753333Y-143303166D01*
X86886666Y-143803166D01*
X87053333Y-143103166D01*
X87553333Y-143436500D02*
X87653333Y-143469833D01*
X87686666Y-143503166D01*
X87720000Y-143569833D01*
X87720000Y-143669833D01*
X87686666Y-143736500D01*
X87653333Y-143769833D01*
X87586666Y-143803166D01*
X87320000Y-143803166D01*
X87320000Y-143103166D01*
X87553333Y-143103166D01*
X87620000Y-143136500D01*
X87653333Y-143169833D01*
X87686666Y-143236500D01*
X87686666Y-143303166D01*
X87653333Y-143369833D01*
X87620000Y-143403166D01*
X87553333Y-143436500D01*
X87320000Y-143436500D01*
X88153333Y-143103166D02*
X88286666Y-143103166D01*
X88353333Y-143136500D01*
X88420000Y-143203166D01*
X88453333Y-143336500D01*
X88453333Y-143569833D01*
X88420000Y-143703166D01*
X88353333Y-143769833D01*
X88286666Y-143803166D01*
X88153333Y-143803166D01*
X88086666Y-143769833D01*
X88020000Y-143703166D01*
X87986666Y-143569833D01*
X87986666Y-143336500D01*
X88020000Y-143203166D01*
X88086666Y-143136500D01*
X88153333Y-143103166D01*
X88720000Y-143169833D02*
X88753333Y-143136500D01*
X88820000Y-143103166D01*
X88986666Y-143103166D01*
X89053333Y-143136500D01*
X89086666Y-143169833D01*
X89120000Y-143236500D01*
X89120000Y-143303166D01*
X89086666Y-143403166D01*
X88686666Y-143803166D01*
X89120000Y-143803166D01*
X90253333Y-143769833D02*
X90186666Y-143803166D01*
X90053333Y-143803166D01*
X89986666Y-143769833D01*
X89953333Y-143736500D01*
X89920000Y-143669833D01*
X89920000Y-143469833D01*
X89953333Y-143403166D01*
X89986666Y-143369833D01*
X90053333Y-143336500D01*
X90186666Y-143336500D01*
X90253333Y-143369833D01*
X90653333Y-143803166D02*
X90586666Y-143769833D01*
X90553333Y-143736500D01*
X90520000Y-143669833D01*
X90520000Y-143469833D01*
X90553333Y-143403166D01*
X90586666Y-143369833D01*
X90653333Y-143336500D01*
X90753333Y-143336500D01*
X90820000Y-143369833D01*
X90853333Y-143403166D01*
X90886666Y-143469833D01*
X90886666Y-143669833D01*
X90853333Y-143736500D01*
X90820000Y-143769833D01*
X90753333Y-143803166D01*
X90653333Y-143803166D01*
X91186666Y-143336500D02*
X91186666Y-143803166D01*
X91186666Y-143403166D02*
X91220000Y-143369833D01*
X91286666Y-143336500D01*
X91386666Y-143336500D01*
X91453333Y-143369833D01*
X91486666Y-143436500D01*
X91486666Y-143803166D01*
X91720000Y-143336500D02*
X91986666Y-143336500D01*
X91820000Y-143103166D02*
X91820000Y-143703166D01*
X91853333Y-143769833D01*
X91920000Y-143803166D01*
X91986666Y-143803166D01*
X92220000Y-143803166D02*
X92220000Y-143336500D01*
X92220000Y-143469833D02*
X92253333Y-143403166D01*
X92286666Y-143369833D01*
X92353333Y-143336500D01*
X92420000Y-143336500D01*
X92753333Y-143803166D02*
X92686666Y-143769833D01*
X92653333Y-143736500D01*
X92620000Y-143669833D01*
X92620000Y-143469833D01*
X92653333Y-143403166D01*
X92686666Y-143369833D01*
X92753333Y-143336500D01*
X92853333Y-143336500D01*
X92920000Y-143369833D01*
X92953333Y-143403166D01*
X92986666Y-143469833D01*
X92986666Y-143669833D01*
X92953333Y-143736500D01*
X92920000Y-143769833D01*
X92853333Y-143803166D01*
X92753333Y-143803166D01*
X93386666Y-143803166D02*
X93320000Y-143769833D01*
X93286666Y-143703166D01*
X93286666Y-143103166D01*
X93753333Y-143803166D02*
X93686666Y-143769833D01*
X93653333Y-143703166D01*
X93653333Y-143103166D01*
X94286666Y-143769833D02*
X94220000Y-143803166D01*
X94086666Y-143803166D01*
X94020000Y-143769833D01*
X93986666Y-143703166D01*
X93986666Y-143436500D01*
X94020000Y-143369833D01*
X94086666Y-143336500D01*
X94220000Y-143336500D01*
X94286666Y-143369833D01*
X94320000Y-143436500D01*
X94320000Y-143503166D01*
X93986666Y-143569833D01*
X94620000Y-143803166D02*
X94620000Y-143336500D01*
X94620000Y-143469833D02*
X94653333Y-143403166D01*
X94686666Y-143369833D01*
X94753333Y-143336500D01*
X94820000Y-143336500D01*
X95586666Y-143803166D02*
X95586666Y-143103166D01*
X95586666Y-143369833D02*
X95653333Y-143336500D01*
X95786666Y-143336500D01*
X95853333Y-143369833D01*
X95886666Y-143403166D01*
X95920000Y-143469833D01*
X95920000Y-143669833D01*
X95886666Y-143736500D01*
X95853333Y-143769833D01*
X95786666Y-143803166D01*
X95653333Y-143803166D01*
X95586666Y-143769833D01*
X96153333Y-143336500D02*
X96320000Y-143803166D01*
X96486666Y-143336500D02*
X96320000Y-143803166D01*
X96253333Y-143969833D01*
X96220000Y-144003166D01*
X96153333Y-144036500D01*
X97286666Y-143803166D02*
X97286666Y-143336500D01*
X97286666Y-143403166D02*
X97320000Y-143369833D01*
X97386666Y-143336500D01*
X97486666Y-143336500D01*
X97553333Y-143369833D01*
X97586666Y-143436500D01*
X97586666Y-143803166D01*
X97586666Y-143436500D02*
X97620000Y-143369833D01*
X97686666Y-143336500D01*
X97786666Y-143336500D01*
X97853333Y-143369833D01*
X97886666Y-143436500D01*
X97886666Y-143803166D01*
X98520000Y-143769833D02*
X98453333Y-143803166D01*
X98320000Y-143803166D01*
X98253333Y-143769833D01*
X98220000Y-143736500D01*
X98186666Y-143669833D01*
X98186666Y-143469833D01*
X98220000Y-143403166D01*
X98253333Y-143369833D01*
X98320000Y-143336500D01*
X98453333Y-143336500D01*
X98520000Y-143369833D01*
X98820000Y-143803166D02*
X98820000Y-143103166D01*
X98886666Y-143536500D02*
X99086666Y-143803166D01*
X99086666Y-143336500D02*
X98820000Y-143603166D01*
X99753333Y-143803166D02*
X99353333Y-143803166D01*
X99553333Y-143803166D02*
X99553333Y-143103166D01*
X99486666Y-143203166D01*
X99420000Y-143269833D01*
X99353333Y-143303166D01*
X100420000Y-143803166D02*
X100020000Y-143803166D01*
X100220000Y-143803166D02*
X100220000Y-143103166D01*
X100153333Y-143203166D01*
X100086666Y-143269833D01*
X100020000Y-143303166D01*
X101086666Y-143803166D02*
X100686666Y-143803166D01*
X100886666Y-143803166D02*
X100886666Y-143103166D01*
X100820000Y-143203166D01*
X100753333Y-143269833D01*
X100686666Y-143303166D01*
X101320000Y-143103166D02*
X101786666Y-143103166D01*
X101486666Y-143803166D01*
X86520000Y-144930166D02*
X86520000Y-144230166D01*
X86786666Y-144230166D01*
X86853333Y-144263500D01*
X86886666Y-144296833D01*
X86920000Y-144363500D01*
X86920000Y-144463500D01*
X86886666Y-144530166D01*
X86853333Y-144563500D01*
X86786666Y-144596833D01*
X86520000Y-144596833D01*
X87620000Y-144863500D02*
X87586666Y-144896833D01*
X87486666Y-144930166D01*
X87420000Y-144930166D01*
X87320000Y-144896833D01*
X87253333Y-144830166D01*
X87220000Y-144763500D01*
X87186666Y-144630166D01*
X87186666Y-144530166D01*
X87220000Y-144396833D01*
X87253333Y-144330166D01*
X87320000Y-144263500D01*
X87420000Y-144230166D01*
X87486666Y-144230166D01*
X87586666Y-144263500D01*
X87620000Y-144296833D01*
X88153333Y-144563500D02*
X88253333Y-144596833D01*
X88286666Y-144630166D01*
X88320000Y-144696833D01*
X88320000Y-144796833D01*
X88286666Y-144863500D01*
X88253333Y-144896833D01*
X88186666Y-144930166D01*
X87920000Y-144930166D01*
X87920000Y-144230166D01*
X88153333Y-144230166D01*
X88220000Y-144263500D01*
X88253333Y-144296833D01*
X88286666Y-144363500D01*
X88286666Y-144430166D01*
X88253333Y-144496833D01*
X88220000Y-144530166D01*
X88153333Y-144563500D01*
X87920000Y-144563500D01*
X89086666Y-144463500D02*
X89253333Y-144930166D01*
X89420000Y-144463500D01*
X89953333Y-144896833D02*
X89886666Y-144930166D01*
X89753333Y-144930166D01*
X89686666Y-144896833D01*
X89653333Y-144830166D01*
X89653333Y-144563500D01*
X89686666Y-144496833D01*
X89753333Y-144463500D01*
X89886666Y-144463500D01*
X89953333Y-144496833D01*
X89986666Y-144563500D01*
X89986666Y-144630166D01*
X89653333Y-144696833D01*
X90286666Y-144930166D02*
X90286666Y-144463500D01*
X90286666Y-144596833D02*
X90320000Y-144530166D01*
X90353333Y-144496833D01*
X90420000Y-144463500D01*
X90486666Y-144463500D01*
X90720000Y-144863500D02*
X90753333Y-144896833D01*
X90720000Y-144930166D01*
X90686666Y-144896833D01*
X90720000Y-144863500D01*
X90720000Y-144930166D01*
X91020000Y-144296833D02*
X91053333Y-144263500D01*
X91120000Y-144230166D01*
X91286666Y-144230166D01*
X91353333Y-144263500D01*
X91386666Y-144296833D01*
X91420000Y-144363500D01*
X91420000Y-144430166D01*
X91386666Y-144530166D01*
X90986666Y-144930166D01*
X91420000Y-144930166D01*
X91720000Y-144863500D02*
X91753333Y-144896833D01*
X91720000Y-144930166D01*
X91686666Y-144896833D01*
X91720000Y-144863500D01*
X91720000Y-144930166D01*
X92386666Y-144230166D02*
X92053333Y-144230166D01*
X92020000Y-144563500D01*
X92053333Y-144530166D01*
X92120000Y-144496833D01*
X92286666Y-144496833D01*
X92353333Y-144530166D01*
X92386666Y-144563500D01*
X92420000Y-144630166D01*
X92420000Y-144796833D01*
X92386666Y-144863500D01*
X92353333Y-144896833D01*
X92286666Y-144930166D01*
X92120000Y-144930166D01*
X92053333Y-144896833D01*
X92020000Y-144863500D01*
X93253333Y-144930166D02*
X93253333Y-144230166D01*
X93253333Y-144496833D02*
X93320000Y-144463500D01*
X93453333Y-144463500D01*
X93520000Y-144496833D01*
X93553333Y-144530166D01*
X93586666Y-144596833D01*
X93586666Y-144796833D01*
X93553333Y-144863500D01*
X93520000Y-144896833D01*
X93453333Y-144930166D01*
X93320000Y-144930166D01*
X93253333Y-144896833D01*
X93820000Y-144463500D02*
X93986666Y-144930166D01*
X94153333Y-144463500D02*
X93986666Y-144930166D01*
X93920000Y-145096833D01*
X93886666Y-145130166D01*
X93820000Y-145163500D01*
X95153333Y-144230166D02*
X95153333Y-144730166D01*
X95120000Y-144830166D01*
X95053333Y-144896833D01*
X94953333Y-144930166D01*
X94886666Y-144930166D01*
X95886666Y-144930166D02*
X95653333Y-144596833D01*
X95486666Y-144930166D02*
X95486666Y-144230166D01*
X95753333Y-144230166D01*
X95820000Y-144263500D01*
X95853333Y-144296833D01*
X95886666Y-144363500D01*
X95886666Y-144463500D01*
X95853333Y-144530166D01*
X95820000Y-144563500D01*
X95753333Y-144596833D01*
X95486666Y-144596833D01*
X96186666Y-144930166D02*
X96186666Y-144230166D01*
X96353333Y-144230166D01*
X96453333Y-144263500D01*
X96520000Y-144330166D01*
X96553333Y-144396833D01*
X96586666Y-144530166D01*
X96586666Y-144630166D01*
X96553333Y-144763500D01*
X96520000Y-144830166D01*
X96453333Y-144896833D01*
X96353333Y-144930166D01*
X96186666Y-144930166D01*
X97420000Y-144930166D02*
X97420000Y-144230166D01*
X97653333Y-144730166D01*
X97886666Y-144230166D01*
X97886666Y-144930166D01*
X98520000Y-144896833D02*
X98453333Y-144930166D01*
X98320000Y-144930166D01*
X98253333Y-144896833D01*
X98220000Y-144863500D01*
X98186666Y-144796833D01*
X98186666Y-144596833D01*
X98220000Y-144530166D01*
X98253333Y-144496833D01*
X98320000Y-144463500D01*
X98453333Y-144463500D01*
X98520000Y-144496833D01*
X99153333Y-144930166D02*
X98820000Y-144930166D01*
X98820000Y-144230166D01*
X99353333Y-144730166D02*
X99686666Y-144730166D01*
X99286666Y-144930166D02*
X99520000Y-144230166D01*
X99753333Y-144930166D01*
X100386666Y-144930166D02*
X100153333Y-144596833D01*
X99986666Y-144930166D02*
X99986666Y-144230166D01*
X100253333Y-144230166D01*
X100320000Y-144263500D01*
X100353333Y-144296833D01*
X100386666Y-144363500D01*
X100386666Y-144463500D01*
X100353333Y-144530166D01*
X100320000Y-144563500D01*
X100253333Y-144596833D01*
X99986666Y-144596833D01*
X100686666Y-144563500D02*
X100920000Y-144563500D01*
X101020000Y-144930166D02*
X100686666Y-144930166D01*
X100686666Y-144230166D01*
X101020000Y-144230166D01*
X101320000Y-144930166D02*
X101320000Y-144230166D01*
X101720000Y-144930166D01*
X101720000Y-144230166D01*
D11*
X91641428Y-145842857D02*
X91998571Y-146642857D01*
X92355714Y-145842857D01*
X93498571Y-146585714D02*
X93355714Y-146642857D01*
X93070000Y-146642857D01*
X92927142Y-146585714D01*
X92855714Y-146471428D01*
X92855714Y-146014285D01*
X92927142Y-145900000D01*
X93070000Y-145842857D01*
X93355714Y-145842857D01*
X93498571Y-145900000D01*
X93570000Y-146014285D01*
X93570000Y-146128571D01*
X92855714Y-146242857D01*
X94212857Y-146642857D02*
X94212857Y-145842857D01*
X94212857Y-146071428D02*
X94284285Y-145957142D01*
X94355714Y-145900000D01*
X94498571Y-145842857D01*
X94641428Y-145842857D01*
X95141428Y-146528571D02*
X95212857Y-146585714D01*
X95141428Y-146642857D01*
X95070000Y-146585714D01*
X95141428Y-146528571D01*
X95141428Y-146642857D01*
X96927142Y-145557142D02*
X96998571Y-145500000D01*
X97141428Y-145442857D01*
X97498571Y-145442857D01*
X97641428Y-145500000D01*
X97712857Y-145557142D01*
X97784285Y-145671428D01*
X97784285Y-145785714D01*
X97712857Y-145957142D01*
X96855714Y-146642857D01*
X97784285Y-146642857D01*
X98427142Y-146528571D02*
X98498571Y-146585714D01*
X98427142Y-146642857D01*
X98355714Y-146585714D01*
X98427142Y-146528571D01*
X98427142Y-146642857D01*
X99855714Y-145442857D02*
X99141428Y-145442857D01*
X99070000Y-146014285D01*
X99141428Y-145957142D01*
X99284285Y-145900000D01*
X99641428Y-145900000D01*
X99784285Y-145957142D01*
X99855714Y-146014285D01*
X99927142Y-146128571D01*
X99927142Y-146414285D01*
X99855714Y-146528571D01*
X99784285Y-146585714D01*
X99641428Y-146642857D01*
X99284285Y-146642857D01*
X99141428Y-146585714D01*
X99070000Y-146528571D01*
X138809523Y-143647380D02*
X138333333Y-143647380D01*
X138333333Y-142647380D01*
X139095238Y-143599761D02*
X139238095Y-143647380D01*
X139476190Y-143647380D01*
X139571428Y-143599761D01*
X139619047Y-143552142D01*
X139666666Y-143456904D01*
X139666666Y-143361666D01*
X139619047Y-143266428D01*
X139571428Y-143218809D01*
X139476190Y-143171190D01*
X139285714Y-143123571D01*
X139190476Y-143075952D01*
X139142857Y-143028333D01*
X139095238Y-142933095D01*
X139095238Y-142837857D01*
X139142857Y-142742619D01*
X139190476Y-142695000D01*
X139285714Y-142647380D01*
X139523809Y-142647380D01*
X139666666Y-142695000D01*
X140095238Y-142647380D02*
X140095238Y-143456904D01*
X140142857Y-143552142D01*
X140190476Y-143599761D01*
X140285714Y-143647380D01*
X140476190Y-143647380D01*
X140571428Y-143599761D01*
X140619047Y-143552142D01*
X140666666Y-143456904D01*
X140666666Y-142647380D01*
X139047619Y-145257380D02*
X139047619Y-144257380D01*
X139523809Y-144590714D02*
X139523809Y-145590714D01*
X139523809Y-144638333D02*
X139619047Y-144590714D01*
X139809523Y-144590714D01*
X139904761Y-144638333D01*
X139952380Y-144685952D01*
X140000000Y-144781190D01*
X140000000Y-145066904D01*
X139952380Y-145162142D01*
X139904761Y-145209761D01*
X139809523Y-145257380D01*
X139619047Y-145257380D01*
X139523809Y-145209761D01*
D13*
X102103258Y-126702380D02*
X102171711Y-126726190D01*
X102290758Y-126726190D01*
X102341354Y-126702380D01*
X102368139Y-126678571D01*
X102397901Y-126630952D01*
X102403854Y-126583333D01*
X102385997Y-126535714D01*
X102365163Y-126511904D01*
X102320520Y-126488095D01*
X102228258Y-126464285D01*
X102183616Y-126440476D01*
X102162782Y-126416666D01*
X102144925Y-126369047D01*
X102150877Y-126321428D01*
X102180639Y-126273809D01*
X102207425Y-126250000D01*
X102258020Y-126226190D01*
X102377068Y-126226190D01*
X102445520Y-126250000D01*
X102615163Y-126226190D02*
X102671711Y-126726190D01*
X102811592Y-126369047D01*
X102862187Y-126726190D01*
X103043735Y-126226190D01*
X103329449Y-126226190D02*
X103424687Y-126226190D01*
X103469330Y-126250000D01*
X103510997Y-126297619D01*
X103522901Y-126392857D01*
X103502068Y-126559523D01*
X103466354Y-126654761D01*
X103412782Y-126702380D01*
X103362187Y-126726190D01*
X103266949Y-126726190D01*
X103222306Y-126702380D01*
X103180639Y-126654761D01*
X103168735Y-126559523D01*
X103189568Y-126392857D01*
X103225282Y-126297619D01*
X103278854Y-126250000D01*
X103329449Y-126226190D01*
X104118139Y-126392857D02*
X104076473Y-126726190D01*
X104112187Y-126440476D02*
X104138973Y-126416666D01*
X104189568Y-126392857D01*
X104260997Y-126392857D01*
X104305639Y-126416666D01*
X104323497Y-126464285D01*
X104290758Y-126726190D01*
X104814568Y-126726190D02*
X104677663Y-126488095D01*
X104528854Y-126726190D02*
X104591354Y-126226190D01*
X104781830Y-126226190D01*
X104826473Y-126250000D01*
X104847306Y-126273809D01*
X104865163Y-126321428D01*
X104856235Y-126392857D01*
X104826473Y-126440476D01*
X104799687Y-126464285D01*
X104749092Y-126488095D01*
X104558616Y-126488095D01*
X105061592Y-126464285D02*
X105228258Y-126464285D01*
X105266949Y-126726190D02*
X105028854Y-126726190D01*
X105091354Y-126226190D01*
X105329449Y-126226190D01*
X105460401Y-126702380D02*
X105528854Y-126726190D01*
X105647901Y-126726190D01*
X105698497Y-126702380D01*
X105725282Y-126678571D01*
X105755044Y-126630952D01*
X105760997Y-126583333D01*
X105743139Y-126535714D01*
X105722306Y-126511904D01*
X105677663Y-126488095D01*
X105585401Y-126464285D01*
X105540758Y-126440476D01*
X105519925Y-126416666D01*
X105502068Y-126369047D01*
X105508020Y-126321428D01*
X105537782Y-126273809D01*
X105564568Y-126250000D01*
X105615163Y-126226190D01*
X105734211Y-126226190D01*
X105802663Y-126250000D01*
X105990163Y-126464285D02*
X106156830Y-126464285D01*
X106195520Y-126726190D02*
X105957425Y-126726190D01*
X106019925Y-126226190D01*
X106258020Y-126226190D01*
X106400877Y-126226190D02*
X106686592Y-126226190D01*
X106481235Y-126726190D02*
X106543735Y-126226190D01*
X107150877Y-126702380D02*
X107219330Y-126726190D01*
X107338377Y-126726190D01*
X107388973Y-126702380D01*
X107415758Y-126678571D01*
X107445520Y-126630952D01*
X107451473Y-126583333D01*
X107433616Y-126535714D01*
X107412782Y-126511904D01*
X107368139Y-126488095D01*
X107275877Y-126464285D01*
X107231235Y-126440476D01*
X107210401Y-126416666D01*
X107192544Y-126369047D01*
X107198497Y-126321428D01*
X107228258Y-126273809D01*
X107255044Y-126250000D01*
X107305639Y-126226190D01*
X107424687Y-126226190D01*
X107493139Y-126250000D01*
X107662782Y-126226190D02*
X107719330Y-126726190D01*
X107859211Y-126369047D01*
X107909806Y-126726190D01*
X108091354Y-126226190D01*
X108219330Y-126726190D02*
X108281830Y-126226190D01*
X108400877Y-126226190D01*
X108469330Y-126250000D01*
X108510997Y-126297619D01*
X108528854Y-126345238D01*
X108540758Y-126440476D01*
X108531830Y-126511904D01*
X108496116Y-126607142D01*
X108466354Y-126654761D01*
X108412782Y-126702380D01*
X108338377Y-126726190D01*
X108219330Y-126726190D01*
X108719330Y-126726190D02*
X108781830Y-126226190D01*
X109115163Y-126226190D02*
X109210401Y-126226190D01*
X109255044Y-126250000D01*
X109296711Y-126297619D01*
X109308616Y-126392857D01*
X109287782Y-126559523D01*
X109252068Y-126654761D01*
X109198497Y-126702380D01*
X109147901Y-126726190D01*
X109052663Y-126726190D01*
X109008020Y-126702380D01*
X108966354Y-126654761D01*
X108954449Y-126559523D01*
X108975282Y-126392857D01*
X109010997Y-126297619D01*
X109064568Y-126250000D01*
X109115163Y-126226190D01*
X110183616Y-126250000D02*
X110138973Y-126226190D01*
X110067544Y-126226190D01*
X109993139Y-126250000D01*
X109939568Y-126297619D01*
X109909806Y-126345238D01*
X109874092Y-126440476D01*
X109865163Y-126511904D01*
X109877068Y-126607142D01*
X109894925Y-126654761D01*
X109936592Y-126702380D01*
X110005044Y-126726190D01*
X110052663Y-126726190D01*
X110127068Y-126702380D01*
X110153854Y-126678571D01*
X110174687Y-126511904D01*
X110079449Y-126511904D01*
X110362187Y-126726190D02*
X110424687Y-126226190D01*
X110647901Y-126726190D01*
X110710401Y-126226190D01*
X110885997Y-126726190D02*
X110948497Y-126226190D01*
X111067544Y-126226190D01*
X111135997Y-126250000D01*
X111177663Y-126297619D01*
X111195520Y-126345238D01*
X111207425Y-126440476D01*
X111198497Y-126511904D01*
X111162782Y-126607142D01*
X111133020Y-126654761D01*
X111079449Y-126702380D01*
X111005044Y-126726190D01*
X110885997Y-126726190D01*
X111746116Y-126702380D02*
X111814568Y-126726190D01*
X111933616Y-126726190D01*
X111984211Y-126702380D01*
X112010997Y-126678571D01*
X112040758Y-126630952D01*
X112046711Y-126583333D01*
X112028854Y-126535714D01*
X112008020Y-126511904D01*
X111963377Y-126488095D01*
X111871116Y-126464285D01*
X111826473Y-126440476D01*
X111805639Y-126416666D01*
X111787782Y-126369047D01*
X111793735Y-126321428D01*
X111823497Y-126273809D01*
X111850282Y-126250000D01*
X111900877Y-126226190D01*
X112019925Y-126226190D01*
X112088377Y-126250000D01*
X112258020Y-126226190D02*
X112314568Y-126726190D01*
X112454449Y-126369047D01*
X112505044Y-126726190D01*
X112686592Y-126226190D01*
X113106235Y-126678571D02*
X113079449Y-126702380D01*
X113005044Y-126726190D01*
X112957425Y-126726190D01*
X112888973Y-126702380D01*
X112847306Y-126654761D01*
X112829449Y-126607142D01*
X112817544Y-126511904D01*
X112826473Y-126440476D01*
X112862187Y-126345238D01*
X112891949Y-126297619D01*
X112945520Y-126250000D01*
X113019925Y-126226190D01*
X113067544Y-126226190D01*
X113135997Y-126250000D01*
X113156830Y-126273809D01*
X113552663Y-126726190D02*
X113314568Y-126726190D01*
X113377068Y-126226190D01*
X113719330Y-126726190D02*
X113781830Y-126226190D01*
X114005044Y-126726190D02*
X113826473Y-126440476D01*
X114067544Y-126226190D02*
X113746116Y-126511904D01*
X114615163Y-126226190D02*
X114924687Y-126226190D01*
X114734211Y-126416666D01*
X114805639Y-126416666D01*
X114850282Y-126440476D01*
X114871116Y-126464285D01*
X114888973Y-126511904D01*
X114874092Y-126630952D01*
X114844330Y-126678571D01*
X114817544Y-126702380D01*
X114766949Y-126726190D01*
X114624092Y-126726190D01*
X114579449Y-126702380D01*
X114558616Y-126678571D01*
X115082425Y-126678571D02*
X115103258Y-126702380D01*
X115076473Y-126726190D01*
X115055639Y-126702380D01*
X115082425Y-126678571D01*
X115076473Y-126726190D01*
X115329449Y-126226190D02*
X115638973Y-126226190D01*
X115448497Y-126416666D01*
X115519925Y-126416666D01*
X115564568Y-126440476D01*
X115585401Y-126464285D01*
X115603258Y-126511904D01*
X115588377Y-126630952D01*
X115558616Y-126678571D01*
X115531830Y-126702380D01*
X115481235Y-126726190D01*
X115338377Y-126726190D01*
X115293735Y-126702380D01*
X115272901Y-126678571D01*
X115781830Y-126226190D02*
X115885997Y-126726190D01*
X116115163Y-126226190D01*
D14*
X147304888Y-152760535D02*
X147733459Y-152760535D01*
X147425424Y-153510535D02*
X147519174Y-152760535D01*
X148327209Y-153439107D02*
X148287031Y-153474821D01*
X148175424Y-153510535D01*
X148103995Y-153510535D01*
X148001316Y-153474821D01*
X147938816Y-153403392D01*
X147912031Y-153331964D01*
X147894174Y-153189107D01*
X147907566Y-153081964D01*
X147961138Y-152939107D01*
X148005781Y-152867678D01*
X148086138Y-152796250D01*
X148197745Y-152760535D01*
X148269174Y-152760535D01*
X148371852Y-152796250D01*
X148403102Y-152831964D01*
X148639709Y-153510535D02*
X148733459Y-152760535D01*
X149019174Y-152760535D01*
X149086138Y-152796250D01*
X149117388Y-152831964D01*
X149144174Y-152903392D01*
X149130781Y-153010535D01*
X149086138Y-153081964D01*
X149045959Y-153117678D01*
X148970066Y-153153392D01*
X148684352Y-153153392D01*
X149746852Y-153510535D02*
X149389709Y-153510535D01*
X149483459Y-152760535D01*
X148228995Y-154432321D02*
X148800424Y-154432321D01*
D13*
X78659523Y-134050000D02*
X78611904Y-134026190D01*
X78540476Y-134026190D01*
X78469047Y-134050000D01*
X78421428Y-134097619D01*
X78397619Y-134145238D01*
X78373809Y-134240476D01*
X78373809Y-134311904D01*
X78397619Y-134407142D01*
X78421428Y-134454761D01*
X78469047Y-134502380D01*
X78540476Y-134526190D01*
X78588095Y-134526190D01*
X78659523Y-134502380D01*
X78683333Y-134478571D01*
X78683333Y-134311904D01*
X78588095Y-134311904D01*
X78897619Y-134526190D02*
X78897619Y-134026190D01*
X79183333Y-134526190D01*
X79183333Y-134026190D01*
X79421428Y-134526190D02*
X79421428Y-134026190D01*
X79540476Y-134026190D01*
X79611904Y-134050000D01*
X79659523Y-134097619D01*
X79683333Y-134145238D01*
X79707142Y-134240476D01*
X79707142Y-134311904D01*
X79683333Y-134407142D01*
X79659523Y-134454761D01*
X79611904Y-134502380D01*
X79540476Y-134526190D01*
X79421428Y-134526190D01*
X81350000Y-134526190D02*
X81183333Y-134288095D01*
X81064285Y-134526190D02*
X81064285Y-134026190D01*
X81254761Y-134026190D01*
X81302380Y-134050000D01*
X81326190Y-134073809D01*
X81350000Y-134121428D01*
X81350000Y-134192857D01*
X81326190Y-134240476D01*
X81302380Y-134264285D01*
X81254761Y-134288095D01*
X81064285Y-134288095D01*
X81516666Y-134026190D02*
X81850000Y-134526190D01*
X81850000Y-134026190D02*
X81516666Y-134526190D01*
X83873809Y-134026190D02*
X84159523Y-134026190D01*
X84016666Y-134526190D02*
X84016666Y-134026190D01*
X84278571Y-134026190D02*
X84611904Y-134526190D01*
X84611904Y-134026190D02*
X84278571Y-134526190D01*
D10*
X131485714Y-162089285D02*
X131485714Y-161339285D01*
X131735714Y-161875000D01*
X131985714Y-161339285D01*
X131985714Y-162089285D01*
X132307142Y-161875000D02*
X132664285Y-161875000D01*
X132235714Y-162089285D02*
X132485714Y-161339285D01*
X132735714Y-162089285D01*
X132914285Y-161339285D02*
X133414285Y-162089285D01*
X133414285Y-161339285D02*
X132914285Y-162089285D01*
X133628571Y-161339285D02*
X134092857Y-161339285D01*
X133842857Y-161625000D01*
X133950000Y-161625000D01*
X134021428Y-161660714D01*
X134057142Y-161696428D01*
X134092857Y-161767857D01*
X134092857Y-161946428D01*
X134057142Y-162017857D01*
X134021428Y-162053571D01*
X133950000Y-162089285D01*
X133735714Y-162089285D01*
X133664285Y-162053571D01*
X133628571Y-162017857D01*
X134807142Y-162089285D02*
X134378571Y-162089285D01*
X134592857Y-162089285D02*
X134592857Y-161339285D01*
X134521428Y-161446428D01*
X134450000Y-161517857D01*
X134378571Y-161553571D01*
X135235714Y-161660714D02*
X135164285Y-161625000D01*
X135128571Y-161589285D01*
X135092857Y-161517857D01*
X135092857Y-161482142D01*
X135128571Y-161410714D01*
X135164285Y-161375000D01*
X135235714Y-161339285D01*
X135378571Y-161339285D01*
X135450000Y-161375000D01*
X135485714Y-161410714D01*
X135521428Y-161482142D01*
X135521428Y-161517857D01*
X135485714Y-161589285D01*
X135450000Y-161625000D01*
X135378571Y-161660714D01*
X135235714Y-161660714D01*
X135164285Y-161696428D01*
X135128571Y-161732142D01*
X135092857Y-161803571D01*
X135092857Y-161946428D01*
X135128571Y-162017857D01*
X135164285Y-162053571D01*
X135235714Y-162089285D01*
X135378571Y-162089285D01*
X135450000Y-162053571D01*
X135485714Y-162017857D01*
X135521428Y-161946428D01*
X135521428Y-161803571D01*
X135485714Y-161732142D01*
X135450000Y-161696428D01*
X135378571Y-161660714D01*
X136200000Y-161339285D02*
X135842857Y-161339285D01*
X135807142Y-161696428D01*
X135842857Y-161660714D01*
X135914285Y-161625000D01*
X136092857Y-161625000D01*
X136164285Y-161660714D01*
X136200000Y-161696428D01*
X136235714Y-161767857D01*
X136235714Y-161946428D01*
X136200000Y-162017857D01*
X136164285Y-162053571D01*
X136092857Y-162089285D01*
X135914285Y-162089285D01*
X135842857Y-162053571D01*
X135807142Y-162017857D01*
X136914285Y-161339285D02*
X136557142Y-161339285D01*
X136521428Y-161696428D01*
X136557142Y-161660714D01*
X136628571Y-161625000D01*
X136807142Y-161625000D01*
X136878571Y-161660714D01*
X136914285Y-161696428D01*
X136950000Y-161767857D01*
X136950000Y-161946428D01*
X136914285Y-162017857D01*
X136878571Y-162053571D01*
X136807142Y-162089285D01*
X136628571Y-162089285D01*
X136557142Y-162053571D01*
X136521428Y-162017857D01*
D11*
X147927380Y-150652380D02*
X147451190Y-150652380D01*
X147451190Y-149652380D01*
X148213095Y-150604761D02*
X148355952Y-150652380D01*
X148594047Y-150652380D01*
X148689285Y-150604761D01*
X148736904Y-150557142D01*
X148784523Y-150461904D01*
X148784523Y-150366666D01*
X148736904Y-150271428D01*
X148689285Y-150223809D01*
X148594047Y-150176190D01*
X148403571Y-150128571D01*
X148308333Y-150080952D01*
X148260714Y-150033333D01*
X148213095Y-149938095D01*
X148213095Y-149842857D01*
X148260714Y-149747619D01*
X148308333Y-149700000D01*
X148403571Y-149652380D01*
X148641666Y-149652380D01*
X148784523Y-149700000D01*
X149213095Y-149652380D02*
X149213095Y-150461904D01*
X149260714Y-150557142D01*
X149308333Y-150604761D01*
X149403571Y-150652380D01*
X149594047Y-150652380D01*
X149689285Y-150604761D01*
X149736904Y-150557142D01*
X149784523Y-150461904D01*
X149784523Y-149652380D01*
X151022619Y-149652380D02*
X151022619Y-150461904D01*
X151070238Y-150557142D01*
X151117857Y-150604761D01*
X151213095Y-150652380D01*
X151403571Y-150652380D01*
X151498809Y-150604761D01*
X151546428Y-150557142D01*
X151594047Y-150461904D01*
X151594047Y-149652380D01*
X152070238Y-149985714D02*
X152070238Y-150652380D01*
X152070238Y-150080952D02*
X152117857Y-150033333D01*
X152213095Y-149985714D01*
X152355952Y-149985714D01*
X152451190Y-150033333D01*
X152498809Y-150128571D01*
X152498809Y-150652380D01*
D13*
X124566666Y-126528571D02*
X124542857Y-126552380D01*
X124471428Y-126576190D01*
X124423809Y-126576190D01*
X124352380Y-126552380D01*
X124304761Y-126504761D01*
X124280952Y-126457142D01*
X124257142Y-126361904D01*
X124257142Y-126290476D01*
X124280952Y-126195238D01*
X124304761Y-126147619D01*
X124352380Y-126100000D01*
X124423809Y-126076190D01*
X124471428Y-126076190D01*
X124542857Y-126100000D01*
X124566666Y-126123809D01*
X125042857Y-126576190D02*
X124757142Y-126576190D01*
X124900000Y-126576190D02*
X124900000Y-126076190D01*
X124852380Y-126147619D01*
X124804761Y-126195238D01*
X124757142Y-126219047D01*
X133464966Y-133555271D02*
X133441157Y-133579080D01*
X133369728Y-133602890D01*
X133322109Y-133602890D01*
X133250680Y-133579080D01*
X133203061Y-133531461D01*
X133179252Y-133483842D01*
X133155442Y-133388604D01*
X133155442Y-133317176D01*
X133179252Y-133221938D01*
X133203061Y-133174319D01*
X133250680Y-133126700D01*
X133322109Y-133102890D01*
X133369728Y-133102890D01*
X133441157Y-133126700D01*
X133464966Y-133150509D01*
X133655442Y-133150509D02*
X133679252Y-133126700D01*
X133726871Y-133102890D01*
X133845919Y-133102890D01*
X133893538Y-133126700D01*
X133917347Y-133150509D01*
X133941157Y-133198128D01*
X133941157Y-133245747D01*
X133917347Y-133317176D01*
X133631633Y-133602890D01*
X133941157Y-133602890D01*
X124566666Y-144353571D02*
X124542857Y-144377380D01*
X124471428Y-144401190D01*
X124423809Y-144401190D01*
X124352380Y-144377380D01*
X124304761Y-144329761D01*
X124280952Y-144282142D01*
X124257142Y-144186904D01*
X124257142Y-144115476D01*
X124280952Y-144020238D01*
X124304761Y-143972619D01*
X124352380Y-143925000D01*
X124423809Y-143901190D01*
X124471428Y-143901190D01*
X124542857Y-143925000D01*
X124566666Y-143948809D01*
X124733333Y-143901190D02*
X125042857Y-143901190D01*
X124876190Y-144091666D01*
X124947619Y-144091666D01*
X124995238Y-144115476D01*
X125019047Y-144139285D01*
X125042857Y-144186904D01*
X125042857Y-144305952D01*
X125019047Y-144353571D01*
X124995238Y-144377380D01*
X124947619Y-144401190D01*
X124804761Y-144401190D01*
X124757142Y-144377380D01*
X124733333Y-144353571D01*
X127716666Y-126528571D02*
X127692857Y-126552380D01*
X127621428Y-126576190D01*
X127573809Y-126576190D01*
X127502380Y-126552380D01*
X127454761Y-126504761D01*
X127430952Y-126457142D01*
X127407142Y-126361904D01*
X127407142Y-126290476D01*
X127430952Y-126195238D01*
X127454761Y-126147619D01*
X127502380Y-126100000D01*
X127573809Y-126076190D01*
X127621428Y-126076190D01*
X127692857Y-126100000D01*
X127716666Y-126123809D01*
X128145238Y-126242857D02*
X128145238Y-126576190D01*
X128026190Y-126052380D02*
X127907142Y-126409523D01*
X128216666Y-126409523D01*
X128864966Y-137355271D02*
X128841157Y-137379080D01*
X128769728Y-137402890D01*
X128722109Y-137402890D01*
X128650680Y-137379080D01*
X128603061Y-137331461D01*
X128579252Y-137283842D01*
X128555442Y-137188604D01*
X128555442Y-137117176D01*
X128579252Y-137021938D01*
X128603061Y-136974319D01*
X128650680Y-136926700D01*
X128722109Y-136902890D01*
X128769728Y-136902890D01*
X128841157Y-136926700D01*
X128864966Y-136950509D01*
X129317347Y-136902890D02*
X129079252Y-136902890D01*
X129055442Y-137140985D01*
X129079252Y-137117176D01*
X129126871Y-137093366D01*
X129245919Y-137093366D01*
X129293538Y-137117176D01*
X129317347Y-137140985D01*
X129341157Y-137188604D01*
X129341157Y-137307652D01*
X129317347Y-137355271D01*
X129293538Y-137379080D01*
X129245919Y-137402890D01*
X129126871Y-137402890D01*
X129079252Y-137379080D01*
X129055442Y-137355271D01*
X122666666Y-152078571D02*
X122642857Y-152102380D01*
X122571428Y-152126190D01*
X122523809Y-152126190D01*
X122452380Y-152102380D01*
X122404761Y-152054761D01*
X122380952Y-152007142D01*
X122357142Y-151911904D01*
X122357142Y-151840476D01*
X122380952Y-151745238D01*
X122404761Y-151697619D01*
X122452380Y-151650000D01*
X122523809Y-151626190D01*
X122571428Y-151626190D01*
X122642857Y-151650000D01*
X122666666Y-151673809D01*
X123095238Y-151626190D02*
X123000000Y-151626190D01*
X122952380Y-151650000D01*
X122928571Y-151673809D01*
X122880952Y-151745238D01*
X122857142Y-151840476D01*
X122857142Y-152030952D01*
X122880952Y-152078571D01*
X122904761Y-152102380D01*
X122952380Y-152126190D01*
X123047619Y-152126190D01*
X123095238Y-152102380D01*
X123119047Y-152078571D01*
X123142857Y-152030952D01*
X123142857Y-151911904D01*
X123119047Y-151864285D01*
X123095238Y-151840476D01*
X123047619Y-151816666D01*
X122952380Y-151816666D01*
X122904761Y-151840476D01*
X122880952Y-151864285D01*
X122857142Y-151911904D01*
X120116666Y-155878571D02*
X120092857Y-155902380D01*
X120021428Y-155926190D01*
X119973809Y-155926190D01*
X119902380Y-155902380D01*
X119854761Y-155854761D01*
X119830952Y-155807142D01*
X119807142Y-155711904D01*
X119807142Y-155640476D01*
X119830952Y-155545238D01*
X119854761Y-155497619D01*
X119902380Y-155450000D01*
X119973809Y-155426190D01*
X120021428Y-155426190D01*
X120092857Y-155450000D01*
X120116666Y-155473809D01*
X120283333Y-155426190D02*
X120616666Y-155426190D01*
X120402380Y-155926190D01*
X118416666Y-155878571D02*
X118392857Y-155902380D01*
X118321428Y-155926190D01*
X118273809Y-155926190D01*
X118202380Y-155902380D01*
X118154761Y-155854761D01*
X118130952Y-155807142D01*
X118107142Y-155711904D01*
X118107142Y-155640476D01*
X118130952Y-155545238D01*
X118154761Y-155497619D01*
X118202380Y-155450000D01*
X118273809Y-155426190D01*
X118321428Y-155426190D01*
X118392857Y-155450000D01*
X118416666Y-155473809D01*
X118654761Y-155926190D02*
X118750000Y-155926190D01*
X118797619Y-155902380D01*
X118821428Y-155878571D01*
X118869047Y-155807142D01*
X118892857Y-155711904D01*
X118892857Y-155521428D01*
X118869047Y-155473809D01*
X118845238Y-155450000D01*
X118797619Y-155426190D01*
X118702380Y-155426190D01*
X118654761Y-155450000D01*
X118630952Y-155473809D01*
X118607142Y-155521428D01*
X118607142Y-155640476D01*
X118630952Y-155688095D01*
X118654761Y-155711904D01*
X118702380Y-155735714D01*
X118797619Y-155735714D01*
X118845238Y-155711904D01*
X118869047Y-155688095D01*
X118892857Y-155640476D01*
X117728571Y-143778571D02*
X117704761Y-143802380D01*
X117633333Y-143826190D01*
X117585714Y-143826190D01*
X117514285Y-143802380D01*
X117466666Y-143754761D01*
X117442857Y-143707142D01*
X117419047Y-143611904D01*
X117419047Y-143540476D01*
X117442857Y-143445238D01*
X117466666Y-143397619D01*
X117514285Y-143350000D01*
X117585714Y-143326190D01*
X117633333Y-143326190D01*
X117704761Y-143350000D01*
X117728571Y-143373809D01*
X118204761Y-143826190D02*
X117919047Y-143826190D01*
X118061904Y-143826190D02*
X118061904Y-143326190D01*
X118014285Y-143397619D01*
X117966666Y-143445238D01*
X117919047Y-143469047D01*
X118680952Y-143826190D02*
X118395238Y-143826190D01*
X118538095Y-143826190D02*
X118538095Y-143326190D01*
X118490476Y-143397619D01*
X118442857Y-143445238D01*
X118395238Y-143469047D01*
X102828571Y-131428571D02*
X102804761Y-131452380D01*
X102733333Y-131476190D01*
X102685714Y-131476190D01*
X102614285Y-131452380D01*
X102566666Y-131404761D01*
X102542857Y-131357142D01*
X102519047Y-131261904D01*
X102519047Y-131190476D01*
X102542857Y-131095238D01*
X102566666Y-131047619D01*
X102614285Y-131000000D01*
X102685714Y-130976190D01*
X102733333Y-130976190D01*
X102804761Y-131000000D01*
X102828571Y-131023809D01*
X103304761Y-131476190D02*
X103019047Y-131476190D01*
X103161904Y-131476190D02*
X103161904Y-130976190D01*
X103114285Y-131047619D01*
X103066666Y-131095238D01*
X103019047Y-131119047D01*
X103495238Y-131023809D02*
X103519047Y-131000000D01*
X103566666Y-130976190D01*
X103685714Y-130976190D01*
X103733333Y-131000000D01*
X103757142Y-131023809D01*
X103780952Y-131071428D01*
X103780952Y-131119047D01*
X103757142Y-131190476D01*
X103471428Y-131476190D01*
X103780952Y-131476190D01*
X116178571Y-143478571D02*
X116154761Y-143502380D01*
X116083333Y-143526190D01*
X116035714Y-143526190D01*
X115964285Y-143502380D01*
X115916666Y-143454761D01*
X115892857Y-143407142D01*
X115869047Y-143311904D01*
X115869047Y-143240476D01*
X115892857Y-143145238D01*
X115916666Y-143097619D01*
X115964285Y-143050000D01*
X116035714Y-143026190D01*
X116083333Y-143026190D01*
X116154761Y-143050000D01*
X116178571Y-143073809D01*
X116654761Y-143526190D02*
X116369047Y-143526190D01*
X116511904Y-143526190D02*
X116511904Y-143026190D01*
X116464285Y-143097619D01*
X116416666Y-143145238D01*
X116369047Y-143169047D01*
X116821428Y-143026190D02*
X117130952Y-143026190D01*
X116964285Y-143216666D01*
X117035714Y-143216666D01*
X117083333Y-143240476D01*
X117107142Y-143264285D01*
X117130952Y-143311904D01*
X117130952Y-143430952D01*
X117107142Y-143478571D01*
X117083333Y-143502380D01*
X117035714Y-143526190D01*
X116892857Y-143526190D01*
X116845238Y-143502380D01*
X116821428Y-143478571D01*
X99678571Y-131428571D02*
X99654761Y-131452380D01*
X99583333Y-131476190D01*
X99535714Y-131476190D01*
X99464285Y-131452380D01*
X99416666Y-131404761D01*
X99392857Y-131357142D01*
X99369047Y-131261904D01*
X99369047Y-131190476D01*
X99392857Y-131095238D01*
X99416666Y-131047619D01*
X99464285Y-131000000D01*
X99535714Y-130976190D01*
X99583333Y-130976190D01*
X99654761Y-131000000D01*
X99678571Y-131023809D01*
X100154761Y-131476190D02*
X99869047Y-131476190D01*
X100011904Y-131476190D02*
X100011904Y-130976190D01*
X99964285Y-131047619D01*
X99916666Y-131095238D01*
X99869047Y-131119047D01*
X100583333Y-130976190D02*
X100488095Y-130976190D01*
X100440476Y-131000000D01*
X100416666Y-131023809D01*
X100369047Y-131095238D01*
X100345238Y-131190476D01*
X100345238Y-131380952D01*
X100369047Y-131428571D01*
X100392857Y-131452380D01*
X100440476Y-131476190D01*
X100535714Y-131476190D01*
X100583333Y-131452380D01*
X100607142Y-131428571D01*
X100630952Y-131380952D01*
X100630952Y-131261904D01*
X100607142Y-131214285D01*
X100583333Y-131190476D01*
X100535714Y-131166666D01*
X100440476Y-131166666D01*
X100392857Y-131190476D01*
X100369047Y-131214285D01*
X100345238Y-131261904D01*
X125078571Y-155878571D02*
X125054761Y-155902380D01*
X124983333Y-155926190D01*
X124935714Y-155926190D01*
X124864285Y-155902380D01*
X124816666Y-155854761D01*
X124792857Y-155807142D01*
X124769047Y-155711904D01*
X124769047Y-155640476D01*
X124792857Y-155545238D01*
X124816666Y-155497619D01*
X124864285Y-155450000D01*
X124935714Y-155426190D01*
X124983333Y-155426190D01*
X125054761Y-155450000D01*
X125078571Y-155473809D01*
X125554761Y-155926190D02*
X125269047Y-155926190D01*
X125411904Y-155926190D02*
X125411904Y-155426190D01*
X125364285Y-155497619D01*
X125316666Y-155545238D01*
X125269047Y-155569047D01*
X125721428Y-155426190D02*
X126054761Y-155426190D01*
X125840476Y-155926190D01*
X88978571Y-139878571D02*
X88954761Y-139902380D01*
X88883333Y-139926190D01*
X88835714Y-139926190D01*
X88764285Y-139902380D01*
X88716666Y-139854761D01*
X88692857Y-139807142D01*
X88669047Y-139711904D01*
X88669047Y-139640476D01*
X88692857Y-139545238D01*
X88716666Y-139497619D01*
X88764285Y-139450000D01*
X88835714Y-139426190D01*
X88883333Y-139426190D01*
X88954761Y-139450000D01*
X88978571Y-139473809D01*
X89169047Y-139473809D02*
X89192857Y-139450000D01*
X89240476Y-139426190D01*
X89359523Y-139426190D01*
X89407142Y-139450000D01*
X89430952Y-139473809D01*
X89454761Y-139521428D01*
X89454761Y-139569047D01*
X89430952Y-139640476D01*
X89145238Y-139926190D01*
X89454761Y-139926190D01*
X89621428Y-139426190D02*
X89930952Y-139426190D01*
X89764285Y-139616666D01*
X89835714Y-139616666D01*
X89883333Y-139640476D01*
X89907142Y-139664285D01*
X89930952Y-139711904D01*
X89930952Y-139830952D01*
X89907142Y-139878571D01*
X89883333Y-139902380D01*
X89835714Y-139926190D01*
X89692857Y-139926190D01*
X89645238Y-139902380D01*
X89621428Y-139878571D01*
X87178571Y-139878571D02*
X87154761Y-139902380D01*
X87083333Y-139926190D01*
X87035714Y-139926190D01*
X86964285Y-139902380D01*
X86916666Y-139854761D01*
X86892857Y-139807142D01*
X86869047Y-139711904D01*
X86869047Y-139640476D01*
X86892857Y-139545238D01*
X86916666Y-139497619D01*
X86964285Y-139450000D01*
X87035714Y-139426190D01*
X87083333Y-139426190D01*
X87154761Y-139450000D01*
X87178571Y-139473809D01*
X87369047Y-139473809D02*
X87392857Y-139450000D01*
X87440476Y-139426190D01*
X87559523Y-139426190D01*
X87607142Y-139450000D01*
X87630952Y-139473809D01*
X87654761Y-139521428D01*
X87654761Y-139569047D01*
X87630952Y-139640476D01*
X87345238Y-139926190D01*
X87654761Y-139926190D01*
X88083333Y-139592857D02*
X88083333Y-139926190D01*
X87964285Y-139402380D02*
X87845238Y-139759523D01*
X88154761Y-139759523D01*
X116155952Y-145026190D02*
X116155952Y-144526190D01*
X116275000Y-144526190D01*
X116346428Y-144550000D01*
X116394047Y-144597619D01*
X116417857Y-144645238D01*
X116441666Y-144740476D01*
X116441666Y-144811904D01*
X116417857Y-144907142D01*
X116394047Y-144954761D01*
X116346428Y-145002380D01*
X116275000Y-145026190D01*
X116155952Y-145026190D01*
X116632142Y-144573809D02*
X116655952Y-144550000D01*
X116703571Y-144526190D01*
X116822619Y-144526190D01*
X116870238Y-144550000D01*
X116894047Y-144573809D01*
X116917857Y-144621428D01*
X116917857Y-144669047D01*
X116894047Y-144740476D01*
X116608333Y-145026190D01*
X116917857Y-145026190D01*
X116155952Y-146536190D02*
X116155952Y-146036190D01*
X116275000Y-146036190D01*
X116346428Y-146060000D01*
X116394047Y-146107619D01*
X116417857Y-146155238D01*
X116441666Y-146250476D01*
X116441666Y-146321904D01*
X116417857Y-146417142D01*
X116394047Y-146464761D01*
X116346428Y-146512380D01*
X116275000Y-146536190D01*
X116155952Y-146536190D01*
X116608333Y-146036190D02*
X116917857Y-146036190D01*
X116751190Y-146226666D01*
X116822619Y-146226666D01*
X116870238Y-146250476D01*
X116894047Y-146274285D01*
X116917857Y-146321904D01*
X116917857Y-146440952D01*
X116894047Y-146488571D01*
X116870238Y-146512380D01*
X116822619Y-146536190D01*
X116679761Y-146536190D01*
X116632142Y-146512380D01*
X116608333Y-146488571D01*
D10*
X96675000Y-126054285D02*
X96675000Y-126590000D01*
X96639285Y-126697142D01*
X96567857Y-126768571D01*
X96460714Y-126804285D01*
X96389285Y-126804285D01*
X97425000Y-126804285D02*
X96996428Y-126804285D01*
X97210714Y-126804285D02*
X97210714Y-126054285D01*
X97139285Y-126161428D01*
X97067857Y-126232857D01*
X96996428Y-126268571D01*
X147002380Y-134859523D02*
X147716666Y-134859523D01*
X147859523Y-134907142D01*
X147954761Y-135002380D01*
X148002380Y-135145238D01*
X148002380Y-135240476D01*
X147097619Y-134430952D02*
X147050000Y-134383333D01*
X147002380Y-134288095D01*
X147002380Y-134050000D01*
X147050000Y-133954761D01*
X147097619Y-133907142D01*
X147192857Y-133859523D01*
X147288095Y-133859523D01*
X147430952Y-133907142D01*
X148002380Y-134478571D01*
X148002380Y-133859523D01*
X147002380Y-133240476D02*
X147002380Y-133145238D01*
X147050000Y-133050000D01*
X147097619Y-133002380D01*
X147192857Y-132954761D01*
X147383333Y-132907142D01*
X147621428Y-132907142D01*
X147811904Y-132954761D01*
X147907142Y-133002380D01*
X147954761Y-133050000D01*
X148002380Y-133145238D01*
X148002380Y-133240476D01*
X147954761Y-133335714D01*
X147907142Y-133383333D01*
X147811904Y-133430952D01*
X147621428Y-133478571D01*
X147383333Y-133478571D01*
X147192857Y-133430952D01*
X147097619Y-133383333D01*
X147050000Y-133335714D01*
X147002380Y-133240476D01*
X134304761Y-151022619D02*
X134209523Y-150975000D01*
X134114285Y-150879761D01*
X133971428Y-150736904D01*
X133876190Y-150689285D01*
X133780952Y-150689285D01*
X133828571Y-150927380D02*
X133733333Y-150879761D01*
X133638095Y-150784523D01*
X133590476Y-150594047D01*
X133590476Y-150260714D01*
X133638095Y-150070238D01*
X133733333Y-149975000D01*
X133828571Y-149927380D01*
X134019047Y-149927380D01*
X134114285Y-149975000D01*
X134209523Y-150070238D01*
X134257142Y-150260714D01*
X134257142Y-150594047D01*
X134209523Y-150784523D01*
X134114285Y-150879761D01*
X134019047Y-150927380D01*
X133828571Y-150927380D01*
X135209523Y-150927380D02*
X134638095Y-150927380D01*
X134923809Y-150927380D02*
X134923809Y-149927380D01*
X134828571Y-150070238D01*
X134733333Y-150165476D01*
X134638095Y-150213095D01*
D13*
X122966666Y-126576190D02*
X122800000Y-126338095D01*
X122680952Y-126576190D02*
X122680952Y-126076190D01*
X122871428Y-126076190D01*
X122919047Y-126100000D01*
X122942857Y-126123809D01*
X122966666Y-126171428D01*
X122966666Y-126242857D01*
X122942857Y-126290476D01*
X122919047Y-126314285D01*
X122871428Y-126338095D01*
X122680952Y-126338095D01*
X123442857Y-126576190D02*
X123157142Y-126576190D01*
X123300000Y-126576190D02*
X123300000Y-126076190D01*
X123252380Y-126147619D01*
X123204761Y-126195238D01*
X123157142Y-126219047D01*
X126166666Y-126576190D02*
X126000000Y-126338095D01*
X125880952Y-126576190D02*
X125880952Y-126076190D01*
X126071428Y-126076190D01*
X126119047Y-126100000D01*
X126142857Y-126123809D01*
X126166666Y-126171428D01*
X126166666Y-126242857D01*
X126142857Y-126290476D01*
X126119047Y-126314285D01*
X126071428Y-126338095D01*
X125880952Y-126338095D01*
X126357142Y-126123809D02*
X126380952Y-126100000D01*
X126428571Y-126076190D01*
X126547619Y-126076190D01*
X126595238Y-126100000D01*
X126619047Y-126123809D01*
X126642857Y-126171428D01*
X126642857Y-126219047D01*
X126619047Y-126290476D01*
X126333333Y-126576190D01*
X126642857Y-126576190D01*
X121366666Y-126576190D02*
X121200000Y-126338095D01*
X121080952Y-126576190D02*
X121080952Y-126076190D01*
X121271428Y-126076190D01*
X121319047Y-126100000D01*
X121342857Y-126123809D01*
X121366666Y-126171428D01*
X121366666Y-126242857D01*
X121342857Y-126290476D01*
X121319047Y-126314285D01*
X121271428Y-126338095D01*
X121080952Y-126338095D01*
X121533333Y-126076190D02*
X121842857Y-126076190D01*
X121676190Y-126266666D01*
X121747619Y-126266666D01*
X121795238Y-126290476D01*
X121819047Y-126314285D01*
X121842857Y-126361904D01*
X121842857Y-126480952D01*
X121819047Y-126528571D01*
X121795238Y-126552380D01*
X121747619Y-126576190D01*
X121604761Y-126576190D01*
X121557142Y-126552380D01*
X121533333Y-126528571D01*
X129316666Y-126576190D02*
X129150000Y-126338095D01*
X129030952Y-126576190D02*
X129030952Y-126076190D01*
X129221428Y-126076190D01*
X129269047Y-126100000D01*
X129292857Y-126123809D01*
X129316666Y-126171428D01*
X129316666Y-126242857D01*
X129292857Y-126290476D01*
X129269047Y-126314285D01*
X129221428Y-126338095D01*
X129030952Y-126338095D01*
X129745238Y-126242857D02*
X129745238Y-126576190D01*
X129626190Y-126052380D02*
X129507142Y-126409523D01*
X129816666Y-126409523D01*
X127264966Y-133415390D02*
X127098300Y-133177295D01*
X126979252Y-133415390D02*
X126979252Y-132915390D01*
X127169728Y-132915390D01*
X127217347Y-132939200D01*
X127241157Y-132963009D01*
X127264966Y-133010628D01*
X127264966Y-133082057D01*
X127241157Y-133129676D01*
X127217347Y-133153485D01*
X127169728Y-133177295D01*
X126979252Y-133177295D01*
X127717347Y-132915390D02*
X127479252Y-132915390D01*
X127455442Y-133153485D01*
X127479252Y-133129676D01*
X127526871Y-133105866D01*
X127645919Y-133105866D01*
X127693538Y-133129676D01*
X127717347Y-133153485D01*
X127741157Y-133201104D01*
X127741157Y-133320152D01*
X127717347Y-133367771D01*
X127693538Y-133391580D01*
X127645919Y-133415390D01*
X127526871Y-133415390D01*
X127479252Y-133391580D01*
X127455442Y-133367771D01*
X128964966Y-133415390D02*
X128798300Y-133177295D01*
X128679252Y-133415390D02*
X128679252Y-132915390D01*
X128869728Y-132915390D01*
X128917347Y-132939200D01*
X128941157Y-132963009D01*
X128964966Y-133010628D01*
X128964966Y-133082057D01*
X128941157Y-133129676D01*
X128917347Y-133153485D01*
X128869728Y-133177295D01*
X128679252Y-133177295D01*
X129393538Y-132915390D02*
X129298300Y-132915390D01*
X129250680Y-132939200D01*
X129226871Y-132963009D01*
X129179252Y-133034438D01*
X129155442Y-133129676D01*
X129155442Y-133320152D01*
X129179252Y-133367771D01*
X129203061Y-133391580D01*
X129250680Y-133415390D01*
X129345919Y-133415390D01*
X129393538Y-133391580D01*
X129417347Y-133367771D01*
X129441157Y-133320152D01*
X129441157Y-133201104D01*
X129417347Y-133153485D01*
X129393538Y-133129676D01*
X129345919Y-133105866D01*
X129250680Y-133105866D01*
X129203061Y-133129676D01*
X129179252Y-133153485D01*
X129155442Y-133201104D01*
X127264966Y-137402890D02*
X127098300Y-137164795D01*
X126979252Y-137402890D02*
X126979252Y-136902890D01*
X127169728Y-136902890D01*
X127217347Y-136926700D01*
X127241157Y-136950509D01*
X127264966Y-136998128D01*
X127264966Y-137069557D01*
X127241157Y-137117176D01*
X127217347Y-137140985D01*
X127169728Y-137164795D01*
X126979252Y-137164795D01*
X127431633Y-136902890D02*
X127764966Y-136902890D01*
X127550680Y-137402890D01*
X121366666Y-144376190D02*
X121200000Y-144138095D01*
X121080952Y-144376190D02*
X121080952Y-143876190D01*
X121271428Y-143876190D01*
X121319047Y-143900000D01*
X121342857Y-143923809D01*
X121366666Y-143971428D01*
X121366666Y-144042857D01*
X121342857Y-144090476D01*
X121319047Y-144114285D01*
X121271428Y-144138095D01*
X121080952Y-144138095D01*
X121652380Y-144090476D02*
X121604761Y-144066666D01*
X121580952Y-144042857D01*
X121557142Y-143995238D01*
X121557142Y-143971428D01*
X121580952Y-143923809D01*
X121604761Y-143900000D01*
X121652380Y-143876190D01*
X121747619Y-143876190D01*
X121795238Y-143900000D01*
X121819047Y-143923809D01*
X121842857Y-143971428D01*
X121842857Y-143995238D01*
X121819047Y-144042857D01*
X121795238Y-144066666D01*
X121747619Y-144090476D01*
X121652380Y-144090476D01*
X121604761Y-144114285D01*
X121580952Y-144138095D01*
X121557142Y-144185714D01*
X121557142Y-144280952D01*
X121580952Y-144328571D01*
X121604761Y-144352380D01*
X121652380Y-144376190D01*
X121747619Y-144376190D01*
X121795238Y-144352380D01*
X121819047Y-144328571D01*
X121842857Y-144280952D01*
X121842857Y-144185714D01*
X121819047Y-144138095D01*
X121795238Y-144114285D01*
X121747619Y-144090476D01*
X119766666Y-126563690D02*
X119600000Y-126325595D01*
X119480952Y-126563690D02*
X119480952Y-126063690D01*
X119671428Y-126063690D01*
X119719047Y-126087500D01*
X119742857Y-126111309D01*
X119766666Y-126158928D01*
X119766666Y-126230357D01*
X119742857Y-126277976D01*
X119719047Y-126301785D01*
X119671428Y-126325595D01*
X119480952Y-126325595D01*
X120004761Y-126563690D02*
X120100000Y-126563690D01*
X120147619Y-126539880D01*
X120171428Y-126516071D01*
X120219047Y-126444642D01*
X120242857Y-126349404D01*
X120242857Y-126158928D01*
X120219047Y-126111309D01*
X120195238Y-126087500D01*
X120147619Y-126063690D01*
X120052380Y-126063690D01*
X120004761Y-126087500D01*
X119980952Y-126111309D01*
X119957142Y-126158928D01*
X119957142Y-126277976D01*
X119980952Y-126325595D01*
X120004761Y-126349404D01*
X120052380Y-126373214D01*
X120147619Y-126373214D01*
X120195238Y-126349404D01*
X120219047Y-126325595D01*
X120242857Y-126277976D01*
X125928571Y-144401190D02*
X125761904Y-144163095D01*
X125642857Y-144401190D02*
X125642857Y-143901190D01*
X125833333Y-143901190D01*
X125880952Y-143925000D01*
X125904761Y-143948809D01*
X125928571Y-143996428D01*
X125928571Y-144067857D01*
X125904761Y-144115476D01*
X125880952Y-144139285D01*
X125833333Y-144163095D01*
X125642857Y-144163095D01*
X126404761Y-144401190D02*
X126119047Y-144401190D01*
X126261904Y-144401190D02*
X126261904Y-143901190D01*
X126214285Y-143972619D01*
X126166666Y-144020238D01*
X126119047Y-144044047D01*
X126714285Y-143901190D02*
X126761904Y-143901190D01*
X126809523Y-143925000D01*
X126833333Y-143948809D01*
X126857142Y-143996428D01*
X126880952Y-144091666D01*
X126880952Y-144210714D01*
X126857142Y-144305952D01*
X126833333Y-144353571D01*
X126809523Y-144377380D01*
X126761904Y-144401190D01*
X126714285Y-144401190D01*
X126666666Y-144377380D01*
X126642857Y-144353571D01*
X126619047Y-144305952D01*
X126595238Y-144210714D01*
X126595238Y-144091666D01*
X126619047Y-143996428D01*
X126642857Y-143948809D01*
X126666666Y-143925000D01*
X126714285Y-143901190D01*
X127478571Y-144401190D02*
X127311904Y-144163095D01*
X127192857Y-144401190D02*
X127192857Y-143901190D01*
X127383333Y-143901190D01*
X127430952Y-143925000D01*
X127454761Y-143948809D01*
X127478571Y-143996428D01*
X127478571Y-144067857D01*
X127454761Y-144115476D01*
X127430952Y-144139285D01*
X127383333Y-144163095D01*
X127192857Y-144163095D01*
X127954761Y-144401190D02*
X127669047Y-144401190D01*
X127811904Y-144401190D02*
X127811904Y-143901190D01*
X127764285Y-143972619D01*
X127716666Y-144020238D01*
X127669047Y-144044047D01*
X128430952Y-144401190D02*
X128145238Y-144401190D01*
X128288095Y-144401190D02*
X128288095Y-143901190D01*
X128240476Y-143972619D01*
X128192857Y-144020238D01*
X128145238Y-144044047D01*
X122728571Y-144388690D02*
X122561904Y-144150595D01*
X122442857Y-144388690D02*
X122442857Y-143888690D01*
X122633333Y-143888690D01*
X122680952Y-143912500D01*
X122704761Y-143936309D01*
X122728571Y-143983928D01*
X122728571Y-144055357D01*
X122704761Y-144102976D01*
X122680952Y-144126785D01*
X122633333Y-144150595D01*
X122442857Y-144150595D01*
X123204761Y-144388690D02*
X122919047Y-144388690D01*
X123061904Y-144388690D02*
X123061904Y-143888690D01*
X123014285Y-143960119D01*
X122966666Y-144007738D01*
X122919047Y-144031547D01*
X123395238Y-143936309D02*
X123419047Y-143912500D01*
X123466666Y-143888690D01*
X123585714Y-143888690D01*
X123633333Y-143912500D01*
X123657142Y-143936309D01*
X123680952Y-143983928D01*
X123680952Y-144031547D01*
X123657142Y-144102976D01*
X123371428Y-144388690D01*
X123680952Y-144388690D01*
X126228571Y-152126190D02*
X126061904Y-151888095D01*
X125942857Y-152126190D02*
X125942857Y-151626190D01*
X126133333Y-151626190D01*
X126180952Y-151650000D01*
X126204761Y-151673809D01*
X126228571Y-151721428D01*
X126228571Y-151792857D01*
X126204761Y-151840476D01*
X126180952Y-151864285D01*
X126133333Y-151888095D01*
X125942857Y-151888095D01*
X126704761Y-152126190D02*
X126419047Y-152126190D01*
X126561904Y-152126190D02*
X126561904Y-151626190D01*
X126514285Y-151697619D01*
X126466666Y-151745238D01*
X126419047Y-151769047D01*
X126871428Y-151626190D02*
X127180952Y-151626190D01*
X127014285Y-151816666D01*
X127085714Y-151816666D01*
X127133333Y-151840476D01*
X127157142Y-151864285D01*
X127180952Y-151911904D01*
X127180952Y-152030952D01*
X127157142Y-152078571D01*
X127133333Y-152102380D01*
X127085714Y-152126190D01*
X126942857Y-152126190D01*
X126895238Y-152102380D01*
X126871428Y-152078571D01*
X129078571Y-144401190D02*
X128911904Y-144163095D01*
X128792857Y-144401190D02*
X128792857Y-143901190D01*
X128983333Y-143901190D01*
X129030952Y-143925000D01*
X129054761Y-143948809D01*
X129078571Y-143996428D01*
X129078571Y-144067857D01*
X129054761Y-144115476D01*
X129030952Y-144139285D01*
X128983333Y-144163095D01*
X128792857Y-144163095D01*
X129554761Y-144401190D02*
X129269047Y-144401190D01*
X129411904Y-144401190D02*
X129411904Y-143901190D01*
X129364285Y-143972619D01*
X129316666Y-144020238D01*
X129269047Y-144044047D01*
X129983333Y-144067857D02*
X129983333Y-144401190D01*
X129864285Y-143877380D02*
X129745238Y-144234523D01*
X130054761Y-144234523D01*
X119528571Y-144401190D02*
X119361904Y-144163095D01*
X119242857Y-144401190D02*
X119242857Y-143901190D01*
X119433333Y-143901190D01*
X119480952Y-143925000D01*
X119504761Y-143948809D01*
X119528571Y-143996428D01*
X119528571Y-144067857D01*
X119504761Y-144115476D01*
X119480952Y-144139285D01*
X119433333Y-144163095D01*
X119242857Y-144163095D01*
X120004761Y-144401190D02*
X119719047Y-144401190D01*
X119861904Y-144401190D02*
X119861904Y-143901190D01*
X119814285Y-143972619D01*
X119766666Y-144020238D01*
X119719047Y-144044047D01*
X120457142Y-143901190D02*
X120219047Y-143901190D01*
X120195238Y-144139285D01*
X120219047Y-144115476D01*
X120266666Y-144091666D01*
X120385714Y-144091666D01*
X120433333Y-144115476D01*
X120457142Y-144139285D01*
X120480952Y-144186904D01*
X120480952Y-144305952D01*
X120457142Y-144353571D01*
X120433333Y-144377380D01*
X120385714Y-144401190D01*
X120266666Y-144401190D01*
X120219047Y-144377380D01*
X120195238Y-144353571D01*
X118478571Y-152126190D02*
X118311904Y-151888095D01*
X118192857Y-152126190D02*
X118192857Y-151626190D01*
X118383333Y-151626190D01*
X118430952Y-151650000D01*
X118454761Y-151673809D01*
X118478571Y-151721428D01*
X118478571Y-151792857D01*
X118454761Y-151840476D01*
X118430952Y-151864285D01*
X118383333Y-151888095D01*
X118192857Y-151888095D01*
X118954761Y-152126190D02*
X118669047Y-152126190D01*
X118811904Y-152126190D02*
X118811904Y-151626190D01*
X118764285Y-151697619D01*
X118716666Y-151745238D01*
X118669047Y-151769047D01*
X119383333Y-151626190D02*
X119288095Y-151626190D01*
X119240476Y-151650000D01*
X119216666Y-151673809D01*
X119169047Y-151745238D01*
X119145238Y-151840476D01*
X119145238Y-152030952D01*
X119169047Y-152078571D01*
X119192857Y-152102380D01*
X119240476Y-152126190D01*
X119335714Y-152126190D01*
X119383333Y-152102380D01*
X119407142Y-152078571D01*
X119430952Y-152030952D01*
X119430952Y-151911904D01*
X119407142Y-151864285D01*
X119383333Y-151840476D01*
X119335714Y-151816666D01*
X119240476Y-151816666D01*
X119192857Y-151840476D01*
X119169047Y-151864285D01*
X119145238Y-151911904D01*
X133326871Y-138402890D02*
X133160204Y-138164795D01*
X133041157Y-138402890D02*
X133041157Y-137902890D01*
X133231633Y-137902890D01*
X133279252Y-137926700D01*
X133303061Y-137950509D01*
X133326871Y-137998128D01*
X133326871Y-138069557D01*
X133303061Y-138117176D01*
X133279252Y-138140985D01*
X133231633Y-138164795D01*
X133041157Y-138164795D01*
X133803061Y-138402890D02*
X133517347Y-138402890D01*
X133660204Y-138402890D02*
X133660204Y-137902890D01*
X133612585Y-137974319D01*
X133564966Y-138021938D01*
X133517347Y-138045747D01*
X134041157Y-138402890D02*
X134136395Y-138402890D01*
X134184014Y-138379080D01*
X134207823Y-138355271D01*
X134255442Y-138283842D01*
X134279252Y-138188604D01*
X134279252Y-137998128D01*
X134255442Y-137950509D01*
X134231633Y-137926700D01*
X134184014Y-137902890D01*
X134088776Y-137902890D01*
X134041157Y-137926700D01*
X134017347Y-137950509D01*
X133993538Y-137998128D01*
X133993538Y-138117176D01*
X134017347Y-138164795D01*
X134041157Y-138188604D01*
X134088776Y-138212414D01*
X134184014Y-138212414D01*
X134231633Y-138188604D01*
X134255442Y-138164795D01*
X134279252Y-138117176D01*
X133326871Y-136802890D02*
X133160204Y-136564795D01*
X133041157Y-136802890D02*
X133041157Y-136302890D01*
X133231633Y-136302890D01*
X133279252Y-136326700D01*
X133303061Y-136350509D01*
X133326871Y-136398128D01*
X133326871Y-136469557D01*
X133303061Y-136517176D01*
X133279252Y-136540985D01*
X133231633Y-136564795D01*
X133041157Y-136564795D01*
X133517347Y-136350509D02*
X133541157Y-136326700D01*
X133588776Y-136302890D01*
X133707823Y-136302890D01*
X133755442Y-136326700D01*
X133779252Y-136350509D01*
X133803061Y-136398128D01*
X133803061Y-136445747D01*
X133779252Y-136517176D01*
X133493538Y-136802890D01*
X133803061Y-136802890D01*
X134112585Y-136302890D02*
X134160204Y-136302890D01*
X134207823Y-136326700D01*
X134231633Y-136350509D01*
X134255442Y-136398128D01*
X134279252Y-136493366D01*
X134279252Y-136612414D01*
X134255442Y-136707652D01*
X134231633Y-136755271D01*
X134207823Y-136779080D01*
X134160204Y-136802890D01*
X134112585Y-136802890D01*
X134064966Y-136779080D01*
X134041157Y-136755271D01*
X134017347Y-136707652D01*
X133993538Y-136612414D01*
X133993538Y-136493366D01*
X134017347Y-136398128D01*
X134041157Y-136350509D01*
X134064966Y-136326700D01*
X134112585Y-136302890D01*
X133426871Y-135202890D02*
X133260204Y-134964795D01*
X133141157Y-135202890D02*
X133141157Y-134702890D01*
X133331633Y-134702890D01*
X133379252Y-134726700D01*
X133403061Y-134750509D01*
X133426871Y-134798128D01*
X133426871Y-134869557D01*
X133403061Y-134917176D01*
X133379252Y-134940985D01*
X133331633Y-134964795D01*
X133141157Y-134964795D01*
X133617347Y-134750509D02*
X133641157Y-134726700D01*
X133688776Y-134702890D01*
X133807823Y-134702890D01*
X133855442Y-134726700D01*
X133879252Y-134750509D01*
X133903061Y-134798128D01*
X133903061Y-134845747D01*
X133879252Y-134917176D01*
X133593538Y-135202890D01*
X133903061Y-135202890D01*
X134379252Y-135202890D02*
X134093538Y-135202890D01*
X134236395Y-135202890D02*
X134236395Y-134702890D01*
X134188776Y-134774319D01*
X134141157Y-134821938D01*
X134093538Y-134845747D01*
X133426871Y-132002890D02*
X133260204Y-131764795D01*
X133141157Y-132002890D02*
X133141157Y-131502890D01*
X133331633Y-131502890D01*
X133379252Y-131526700D01*
X133403061Y-131550509D01*
X133426871Y-131598128D01*
X133426871Y-131669557D01*
X133403061Y-131717176D01*
X133379252Y-131740985D01*
X133331633Y-131764795D01*
X133141157Y-131764795D01*
X133617347Y-131550509D02*
X133641157Y-131526700D01*
X133688776Y-131502890D01*
X133807823Y-131502890D01*
X133855442Y-131526700D01*
X133879252Y-131550509D01*
X133903061Y-131598128D01*
X133903061Y-131645747D01*
X133879252Y-131717176D01*
X133593538Y-132002890D01*
X133903061Y-132002890D01*
X134093538Y-131550509D02*
X134117347Y-131526700D01*
X134164966Y-131502890D01*
X134284014Y-131502890D01*
X134331633Y-131526700D01*
X134355442Y-131550509D01*
X134379252Y-131598128D01*
X134379252Y-131645747D01*
X134355442Y-131717176D01*
X134069728Y-132002890D01*
X134379252Y-132002890D01*
X108878571Y-143526190D02*
X108711904Y-143288095D01*
X108592857Y-143526190D02*
X108592857Y-143026190D01*
X108783333Y-143026190D01*
X108830952Y-143050000D01*
X108854761Y-143073809D01*
X108878571Y-143121428D01*
X108878571Y-143192857D01*
X108854761Y-143240476D01*
X108830952Y-143264285D01*
X108783333Y-143288095D01*
X108592857Y-143288095D01*
X109069047Y-143073809D02*
X109092857Y-143050000D01*
X109140476Y-143026190D01*
X109259523Y-143026190D01*
X109307142Y-143050000D01*
X109330952Y-143073809D01*
X109354761Y-143121428D01*
X109354761Y-143169047D01*
X109330952Y-143240476D01*
X109045238Y-143526190D01*
X109354761Y-143526190D01*
X109521428Y-143026190D02*
X109830952Y-143026190D01*
X109664285Y-143216666D01*
X109735714Y-143216666D01*
X109783333Y-143240476D01*
X109807142Y-143264285D01*
X109830952Y-143311904D01*
X109830952Y-143430952D01*
X109807142Y-143478571D01*
X109783333Y-143502380D01*
X109735714Y-143526190D01*
X109592857Y-143526190D01*
X109545238Y-143502380D01*
X109521428Y-143478571D01*
X108858571Y-145096190D02*
X108691904Y-144858095D01*
X108572857Y-145096190D02*
X108572857Y-144596190D01*
X108763333Y-144596190D01*
X108810952Y-144620000D01*
X108834761Y-144643809D01*
X108858571Y-144691428D01*
X108858571Y-144762857D01*
X108834761Y-144810476D01*
X108810952Y-144834285D01*
X108763333Y-144858095D01*
X108572857Y-144858095D01*
X109049047Y-144643809D02*
X109072857Y-144620000D01*
X109120476Y-144596190D01*
X109239523Y-144596190D01*
X109287142Y-144620000D01*
X109310952Y-144643809D01*
X109334761Y-144691428D01*
X109334761Y-144739047D01*
X109310952Y-144810476D01*
X109025238Y-145096190D01*
X109334761Y-145096190D01*
X109763333Y-144762857D02*
X109763333Y-145096190D01*
X109644285Y-144572380D02*
X109525238Y-144929523D01*
X109834761Y-144929523D01*
X108868571Y-146546190D02*
X108701904Y-146308095D01*
X108582857Y-146546190D02*
X108582857Y-146046190D01*
X108773333Y-146046190D01*
X108820952Y-146070000D01*
X108844761Y-146093809D01*
X108868571Y-146141428D01*
X108868571Y-146212857D01*
X108844761Y-146260476D01*
X108820952Y-146284285D01*
X108773333Y-146308095D01*
X108582857Y-146308095D01*
X109059047Y-146093809D02*
X109082857Y-146070000D01*
X109130476Y-146046190D01*
X109249523Y-146046190D01*
X109297142Y-146070000D01*
X109320952Y-146093809D01*
X109344761Y-146141428D01*
X109344761Y-146189047D01*
X109320952Y-146260476D01*
X109035238Y-146546190D01*
X109344761Y-146546190D01*
X109797142Y-146046190D02*
X109559047Y-146046190D01*
X109535238Y-146284285D01*
X109559047Y-146260476D01*
X109606666Y-146236666D01*
X109725714Y-146236666D01*
X109773333Y-146260476D01*
X109797142Y-146284285D01*
X109820952Y-146331904D01*
X109820952Y-146450952D01*
X109797142Y-146498571D01*
X109773333Y-146522380D01*
X109725714Y-146546190D01*
X109606666Y-146546190D01*
X109559047Y-146522380D01*
X109535238Y-146498571D01*
X133928571Y-155776190D02*
X133761904Y-155538095D01*
X133642857Y-155776190D02*
X133642857Y-155276190D01*
X133833333Y-155276190D01*
X133880952Y-155300000D01*
X133904761Y-155323809D01*
X133928571Y-155371428D01*
X133928571Y-155442857D01*
X133904761Y-155490476D01*
X133880952Y-155514285D01*
X133833333Y-155538095D01*
X133642857Y-155538095D01*
X134095238Y-155276190D02*
X134404761Y-155276190D01*
X134238095Y-155466666D01*
X134309523Y-155466666D01*
X134357142Y-155490476D01*
X134380952Y-155514285D01*
X134404761Y-155561904D01*
X134404761Y-155680952D01*
X134380952Y-155728571D01*
X134357142Y-155752380D01*
X134309523Y-155776190D01*
X134166666Y-155776190D01*
X134119047Y-155752380D01*
X134095238Y-155728571D01*
X134595238Y-155323809D02*
X134619047Y-155300000D01*
X134666666Y-155276190D01*
X134785714Y-155276190D01*
X134833333Y-155300000D01*
X134857142Y-155323809D01*
X134880952Y-155371428D01*
X134880952Y-155419047D01*
X134857142Y-155490476D01*
X134571428Y-155776190D01*
X134880952Y-155776190D01*
X132428571Y-155776190D02*
X132261904Y-155538095D01*
X132142857Y-155776190D02*
X132142857Y-155276190D01*
X132333333Y-155276190D01*
X132380952Y-155300000D01*
X132404761Y-155323809D01*
X132428571Y-155371428D01*
X132428571Y-155442857D01*
X132404761Y-155490476D01*
X132380952Y-155514285D01*
X132333333Y-155538095D01*
X132142857Y-155538095D01*
X132595238Y-155276190D02*
X132904761Y-155276190D01*
X132738095Y-155466666D01*
X132809523Y-155466666D01*
X132857142Y-155490476D01*
X132880952Y-155514285D01*
X132904761Y-155561904D01*
X132904761Y-155680952D01*
X132880952Y-155728571D01*
X132857142Y-155752380D01*
X132809523Y-155776190D01*
X132666666Y-155776190D01*
X132619047Y-155752380D01*
X132595238Y-155728571D01*
X133071428Y-155276190D02*
X133380952Y-155276190D01*
X133214285Y-155466666D01*
X133285714Y-155466666D01*
X133333333Y-155490476D01*
X133357142Y-155514285D01*
X133380952Y-155561904D01*
X133380952Y-155680952D01*
X133357142Y-155728571D01*
X133333333Y-155752380D01*
X133285714Y-155776190D01*
X133142857Y-155776190D01*
X133095238Y-155752380D01*
X133071428Y-155728571D01*
X130928571Y-155776190D02*
X130761904Y-155538095D01*
X130642857Y-155776190D02*
X130642857Y-155276190D01*
X130833333Y-155276190D01*
X130880952Y-155300000D01*
X130904761Y-155323809D01*
X130928571Y-155371428D01*
X130928571Y-155442857D01*
X130904761Y-155490476D01*
X130880952Y-155514285D01*
X130833333Y-155538095D01*
X130642857Y-155538095D01*
X131095238Y-155276190D02*
X131404761Y-155276190D01*
X131238095Y-155466666D01*
X131309523Y-155466666D01*
X131357142Y-155490476D01*
X131380952Y-155514285D01*
X131404761Y-155561904D01*
X131404761Y-155680952D01*
X131380952Y-155728571D01*
X131357142Y-155752380D01*
X131309523Y-155776190D01*
X131166666Y-155776190D01*
X131119047Y-155752380D01*
X131095238Y-155728571D01*
X131833333Y-155442857D02*
X131833333Y-155776190D01*
X131714285Y-155252380D02*
X131595238Y-155609523D01*
X131904761Y-155609523D01*
D10*
X122888095Y-134529080D02*
X122888095Y-135338604D01*
X122935714Y-135433842D01*
X122983333Y-135481461D01*
X123078571Y-135529080D01*
X123269047Y-135529080D01*
X123364285Y-135481461D01*
X123411904Y-135433842D01*
X123459523Y-135338604D01*
X123459523Y-134529080D01*
X123888095Y-134624319D02*
X123935714Y-134576700D01*
X124030952Y-134529080D01*
X124269047Y-134529080D01*
X124364285Y-134576700D01*
X124411904Y-134624319D01*
X124459523Y-134719557D01*
X124459523Y-134814795D01*
X124411904Y-134957652D01*
X123840476Y-135529080D01*
X124459523Y-135529080D01*
D13*
X122303647Y-147376190D02*
X122303647Y-147780952D01*
X122327457Y-147828571D01*
X122351266Y-147852380D01*
X122398885Y-147876190D01*
X122494123Y-147876190D01*
X122541742Y-147852380D01*
X122565552Y-147828571D01*
X122589361Y-147780952D01*
X122589361Y-147376190D01*
X122779838Y-147376190D02*
X123089361Y-147376190D01*
X122922695Y-147566666D01*
X122994123Y-147566666D01*
X123041742Y-147590476D01*
X123065552Y-147614285D01*
X123089361Y-147661904D01*
X123089361Y-147780952D01*
X123065552Y-147828571D01*
X123041742Y-147852380D01*
X122994123Y-147876190D01*
X122851266Y-147876190D01*
X122803647Y-147852380D01*
X122779838Y-147828571D01*
X122419047Y-155826190D02*
X122419047Y-156230952D01*
X122442857Y-156278571D01*
X122466666Y-156302380D01*
X122514285Y-156326190D01*
X122609523Y-156326190D01*
X122657142Y-156302380D01*
X122680952Y-156278571D01*
X122704761Y-156230952D01*
X122704761Y-155826190D01*
X123157142Y-155992857D02*
X123157142Y-156326190D01*
X123038095Y-155802380D02*
X122919047Y-156159523D01*
X123228571Y-156159523D01*
D10*
X80738095Y-141002380D02*
X80738095Y-141811904D01*
X80785714Y-141907142D01*
X80833333Y-141954761D01*
X80928571Y-142002380D01*
X81119047Y-142002380D01*
X81214285Y-141954761D01*
X81261904Y-141907142D01*
X81309523Y-141811904D01*
X81309523Y-141002380D01*
X82261904Y-141002380D02*
X81785714Y-141002380D01*
X81738095Y-141478571D01*
X81785714Y-141430952D01*
X81880952Y-141383333D01*
X82119047Y-141383333D01*
X82214285Y-141430952D01*
X82261904Y-141478571D01*
X82309523Y-141573809D01*
X82309523Y-141811904D01*
X82261904Y-141907142D01*
X82214285Y-141954761D01*
X82119047Y-142002380D01*
X81880952Y-142002380D01*
X81785714Y-141954761D01*
X81738095Y-141907142D01*
X90107142Y-170842857D02*
X90154761Y-170890476D01*
X90202380Y-171033333D01*
X90202380Y-171128571D01*
X90154761Y-171271428D01*
X90059523Y-171366666D01*
X89964285Y-171414285D01*
X89773809Y-171461904D01*
X89630952Y-171461904D01*
X89440476Y-171414285D01*
X89345238Y-171366666D01*
X89250000Y-171271428D01*
X89202380Y-171128571D01*
X89202380Y-171033333D01*
X89250000Y-170890476D01*
X89297619Y-170842857D01*
X89535714Y-169985714D02*
X90202380Y-169985714D01*
X89154761Y-170223809D02*
X89869047Y-170461904D01*
X89869047Y-169842857D01*
X89297619Y-169509523D02*
X89250000Y-169461904D01*
X89202380Y-169366666D01*
X89202380Y-169128571D01*
X89250000Y-169033333D01*
X89297619Y-168985714D01*
X89392857Y-168938095D01*
X89488095Y-168938095D01*
X89630952Y-168985714D01*
X90202380Y-169557142D01*
X90202380Y-168938095D01*
X99690476Y-168652380D02*
X99690476Y-169366666D01*
X99642857Y-169509523D01*
X99547619Y-169604761D01*
X99404761Y-169652380D01*
X99309523Y-169652380D01*
X100690476Y-169652380D02*
X100119047Y-169652380D01*
X100404761Y-169652380D02*
X100404761Y-168652380D01*
X100309523Y-168795238D01*
X100214285Y-168890476D01*
X100119047Y-168938095D01*
X101595238Y-168652380D02*
X101119047Y-168652380D01*
X101071428Y-169128571D01*
X101119047Y-169080952D01*
X101214285Y-169033333D01*
X101452380Y-169033333D01*
X101547619Y-169080952D01*
X101595238Y-169128571D01*
X101642857Y-169223809D01*
X101642857Y-169461904D01*
X101595238Y-169557142D01*
X101547619Y-169604761D01*
X101452380Y-169652380D01*
X101214285Y-169652380D01*
X101119047Y-169604761D01*
X101071428Y-169557142D01*
D13*
X139928571Y-158633928D02*
X139952380Y-158657738D01*
X139976190Y-158729166D01*
X139976190Y-158776785D01*
X139952380Y-158848214D01*
X139904761Y-158895833D01*
X139857142Y-158919642D01*
X139761904Y-158943452D01*
X139690476Y-158943452D01*
X139595238Y-158919642D01*
X139547619Y-158895833D01*
X139500000Y-158848214D01*
X139476190Y-158776785D01*
X139476190Y-158729166D01*
X139500000Y-158657738D01*
X139523809Y-158633928D01*
X139523809Y-158443452D02*
X139500000Y-158419642D01*
X139476190Y-158372023D01*
X139476190Y-158252976D01*
X139500000Y-158205357D01*
X139523809Y-158181547D01*
X139571428Y-158157738D01*
X139619047Y-158157738D01*
X139690476Y-158181547D01*
X139976190Y-158467261D01*
X139976190Y-158157738D01*
X139476190Y-157705357D02*
X139476190Y-157943452D01*
X139714285Y-157967261D01*
X139690476Y-157943452D01*
X139666666Y-157895833D01*
X139666666Y-157776785D01*
X139690476Y-157729166D01*
X139714285Y-157705357D01*
X139761904Y-157681547D01*
X139880952Y-157681547D01*
X139928571Y-157705357D01*
X139952380Y-157729166D01*
X139976190Y-157776785D01*
X139976190Y-157895833D01*
X139952380Y-157943452D01*
X139928571Y-157967261D01*
X77653571Y-145728571D02*
X77629761Y-145752380D01*
X77558333Y-145776190D01*
X77510714Y-145776190D01*
X77439285Y-145752380D01*
X77391666Y-145704761D01*
X77367857Y-145657142D01*
X77344047Y-145561904D01*
X77344047Y-145490476D01*
X77367857Y-145395238D01*
X77391666Y-145347619D01*
X77439285Y-145300000D01*
X77510714Y-145276190D01*
X77558333Y-145276190D01*
X77629761Y-145300000D01*
X77653571Y-145323809D01*
X77844047Y-145323809D02*
X77867857Y-145300000D01*
X77915476Y-145276190D01*
X78034523Y-145276190D01*
X78082142Y-145300000D01*
X78105952Y-145323809D01*
X78129761Y-145371428D01*
X78129761Y-145419047D01*
X78105952Y-145490476D01*
X77820238Y-145776190D01*
X78129761Y-145776190D01*
X78558333Y-145276190D02*
X78463095Y-145276190D01*
X78415476Y-145300000D01*
X78391666Y-145323809D01*
X78344047Y-145395238D01*
X78320238Y-145490476D01*
X78320238Y-145680952D01*
X78344047Y-145728571D01*
X78367857Y-145752380D01*
X78415476Y-145776190D01*
X78510714Y-145776190D01*
X78558333Y-145752380D01*
X78582142Y-145728571D01*
X78605952Y-145680952D01*
X78605952Y-145561904D01*
X78582142Y-145514285D01*
X78558333Y-145490476D01*
X78510714Y-145466666D01*
X78415476Y-145466666D01*
X78367857Y-145490476D01*
X78344047Y-145514285D01*
X78320238Y-145561904D01*
D15*
X16134428Y-129098857D02*
X17295571Y-129098857D01*
X16715000Y-129679428D02*
X16715000Y-128518285D01*
X16823857Y-137190571D02*
X16823857Y-136029428D01*
D10*
X133538095Y-157952380D02*
X133538095Y-158761904D01*
X133585714Y-158857142D01*
X133633333Y-158904761D01*
X133728571Y-158952380D01*
X133919047Y-158952380D01*
X134014285Y-158904761D01*
X134061904Y-158857142D01*
X134109523Y-158761904D01*
X134109523Y-157952380D01*
X135014285Y-157952380D02*
X134823809Y-157952380D01*
X134728571Y-158000000D01*
X134680952Y-158047619D01*
X134585714Y-158190476D01*
X134538095Y-158380952D01*
X134538095Y-158761904D01*
X134585714Y-158857142D01*
X134633333Y-158904761D01*
X134728571Y-158952380D01*
X134919047Y-158952380D01*
X135014285Y-158904761D01*
X135061904Y-158857142D01*
X135109523Y-158761904D01*
X135109523Y-158523809D01*
X135061904Y-158428571D01*
X135014285Y-158380952D01*
X134919047Y-158333333D01*
X134728571Y-158333333D01*
X134633333Y-158380952D01*
X134585714Y-158428571D01*
X134538095Y-158523809D01*
X147290476Y-127652380D02*
X147290476Y-128366666D01*
X147242857Y-128509523D01*
X147147619Y-128604761D01*
X147004761Y-128652380D01*
X146909523Y-128652380D01*
X147719047Y-127747619D02*
X147766666Y-127700000D01*
X147861904Y-127652380D01*
X148100000Y-127652380D01*
X148195238Y-127700000D01*
X148242857Y-127747619D01*
X148290476Y-127842857D01*
X148290476Y-127938095D01*
X148242857Y-128080952D01*
X147671428Y-128652380D01*
X148290476Y-128652380D01*
X149242857Y-128652380D02*
X148671428Y-128652380D01*
X148957142Y-128652380D02*
X148957142Y-127652380D01*
X148861904Y-127795238D01*
X148766666Y-127890476D01*
X148671428Y-127938095D01*
X108238095Y-135952380D02*
X108238095Y-136761904D01*
X108285714Y-136857142D01*
X108333333Y-136904761D01*
X108428571Y-136952380D01*
X108619047Y-136952380D01*
X108714285Y-136904761D01*
X108761904Y-136857142D01*
X108809523Y-136761904D01*
X108809523Y-135952380D01*
X109809523Y-136952380D02*
X109238095Y-136952380D01*
X109523809Y-136952380D02*
X109523809Y-135952380D01*
X109428571Y-136095238D01*
X109333333Y-136190476D01*
X109238095Y-136238095D01*
D13*
X77628571Y-141378571D02*
X77604761Y-141402380D01*
X77533333Y-141426190D01*
X77485714Y-141426190D01*
X77414285Y-141402380D01*
X77366666Y-141354761D01*
X77342857Y-141307142D01*
X77319047Y-141211904D01*
X77319047Y-141140476D01*
X77342857Y-141045238D01*
X77366666Y-140997619D01*
X77414285Y-140950000D01*
X77485714Y-140926190D01*
X77533333Y-140926190D01*
X77604761Y-140950000D01*
X77628571Y-140973809D01*
X77819047Y-140973809D02*
X77842857Y-140950000D01*
X77890476Y-140926190D01*
X78009523Y-140926190D01*
X78057142Y-140950000D01*
X78080952Y-140973809D01*
X78104761Y-141021428D01*
X78104761Y-141069047D01*
X78080952Y-141140476D01*
X77795238Y-141426190D01*
X78104761Y-141426190D01*
X78580952Y-141426190D02*
X78295238Y-141426190D01*
X78438095Y-141426190D02*
X78438095Y-140926190D01*
X78390476Y-140997619D01*
X78342857Y-141045238D01*
X78295238Y-141069047D01*
X116178571Y-148776190D02*
X116011904Y-148538095D01*
X115892857Y-148776190D02*
X115892857Y-148276190D01*
X116083333Y-148276190D01*
X116130952Y-148300000D01*
X116154761Y-148323809D01*
X116178571Y-148371428D01*
X116178571Y-148442857D01*
X116154761Y-148490476D01*
X116130952Y-148514285D01*
X116083333Y-148538095D01*
X115892857Y-148538095D01*
X116654761Y-148776190D02*
X116369047Y-148776190D01*
X116511904Y-148776190D02*
X116511904Y-148276190D01*
X116464285Y-148347619D01*
X116416666Y-148395238D01*
X116369047Y-148419047D01*
X116940476Y-148490476D02*
X116892857Y-148466666D01*
X116869047Y-148442857D01*
X116845238Y-148395238D01*
X116845238Y-148371428D01*
X116869047Y-148323809D01*
X116892857Y-148300000D01*
X116940476Y-148276190D01*
X117035714Y-148276190D01*
X117083333Y-148300000D01*
X117107142Y-148323809D01*
X117130952Y-148371428D01*
X117130952Y-148395238D01*
X117107142Y-148442857D01*
X117083333Y-148466666D01*
X117035714Y-148490476D01*
X116940476Y-148490476D01*
X116892857Y-148514285D01*
X116869047Y-148538095D01*
X116845238Y-148585714D01*
X116845238Y-148680952D01*
X116869047Y-148728571D01*
X116892857Y-148752380D01*
X116940476Y-148776190D01*
X117035714Y-148776190D01*
X117083333Y-148752380D01*
X117107142Y-148728571D01*
X117130952Y-148680952D01*
X117130952Y-148585714D01*
X117107142Y-148538095D01*
X117083333Y-148514285D01*
X117035714Y-148490476D01*
D10*
X150211666Y-134210071D02*
X149878333Y-134210071D01*
X149878333Y-134733880D02*
X149878333Y-133733880D01*
X150354523Y-133733880D01*
X151259285Y-134733880D02*
X150687857Y-134733880D01*
X150973571Y-134733880D02*
X150973571Y-133733880D01*
X150878333Y-133876738D01*
X150783095Y-133971976D01*
X150687857Y-134019595D01*
D13*
X136930952Y-155776190D02*
X136930952Y-155276190D01*
X137050000Y-155276190D01*
X137121428Y-155300000D01*
X137169047Y-155347619D01*
X137192857Y-155395238D01*
X137216666Y-155490476D01*
X137216666Y-155561904D01*
X137192857Y-155657142D01*
X137169047Y-155704761D01*
X137121428Y-155752380D01*
X137050000Y-155776190D01*
X136930952Y-155776190D01*
X137692857Y-155776190D02*
X137407142Y-155776190D01*
X137550000Y-155776190D02*
X137550000Y-155276190D01*
X137502380Y-155347619D01*
X137454761Y-155395238D01*
X137407142Y-155419047D01*
X127016666Y-155878571D02*
X126992857Y-155902380D01*
X126921428Y-155926190D01*
X126873809Y-155926190D01*
X126802380Y-155902380D01*
X126754761Y-155854761D01*
X126730952Y-155807142D01*
X126707142Y-155711904D01*
X126707142Y-155640476D01*
X126730952Y-155545238D01*
X126754761Y-155497619D01*
X126802380Y-155450000D01*
X126873809Y-155426190D01*
X126921428Y-155426190D01*
X126992857Y-155450000D01*
X127016666Y-155473809D01*
X127302380Y-155640476D02*
X127254761Y-155616666D01*
X127230952Y-155592857D01*
X127207142Y-155545238D01*
X127207142Y-155521428D01*
X127230952Y-155473809D01*
X127254761Y-155450000D01*
X127302380Y-155426190D01*
X127397619Y-155426190D01*
X127445238Y-155450000D01*
X127469047Y-155473809D01*
X127492857Y-155521428D01*
X127492857Y-155545238D01*
X127469047Y-155592857D01*
X127445238Y-155616666D01*
X127397619Y-155640476D01*
X127302380Y-155640476D01*
X127254761Y-155664285D01*
X127230952Y-155688095D01*
X127207142Y-155735714D01*
X127207142Y-155830952D01*
X127230952Y-155878571D01*
X127254761Y-155902380D01*
X127302380Y-155926190D01*
X127397619Y-155926190D01*
X127445238Y-155902380D01*
X127469047Y-155878571D01*
X127492857Y-155830952D01*
X127492857Y-155735714D01*
X127469047Y-155688095D01*
X127445238Y-155664285D01*
X127397619Y-155640476D01*
X135428571Y-155728571D02*
X135404761Y-155752380D01*
X135333333Y-155776190D01*
X135285714Y-155776190D01*
X135214285Y-155752380D01*
X135166666Y-155704761D01*
X135142857Y-155657142D01*
X135119047Y-155561904D01*
X135119047Y-155490476D01*
X135142857Y-155395238D01*
X135166666Y-155347619D01*
X135214285Y-155300000D01*
X135285714Y-155276190D01*
X135333333Y-155276190D01*
X135404761Y-155300000D01*
X135428571Y-155323809D01*
X135619047Y-155323809D02*
X135642857Y-155300000D01*
X135690476Y-155276190D01*
X135809523Y-155276190D01*
X135857142Y-155300000D01*
X135880952Y-155323809D01*
X135904761Y-155371428D01*
X135904761Y-155419047D01*
X135880952Y-155490476D01*
X135595238Y-155776190D01*
X135904761Y-155776190D01*
X136071428Y-155276190D02*
X136404761Y-155276190D01*
X136190476Y-155776190D01*
D10*
D13*
X101076190Y-138741428D02*
X100838095Y-138908095D01*
X101076190Y-139027142D02*
X100576190Y-139027142D01*
X100576190Y-138836666D01*
X100600000Y-138789047D01*
X100623809Y-138765238D01*
X100671428Y-138741428D01*
X100742857Y-138741428D01*
X100790476Y-138765238D01*
X100814285Y-138789047D01*
X100838095Y-138836666D01*
X100838095Y-139027142D01*
X100576190Y-138574761D02*
X100576190Y-138265238D01*
X100766666Y-138431904D01*
X100766666Y-138360476D01*
X100790476Y-138312857D01*
X100814285Y-138289047D01*
X100861904Y-138265238D01*
X100980952Y-138265238D01*
X101028571Y-138289047D01*
X101052380Y-138312857D01*
X101076190Y-138360476D01*
X101076190Y-138503333D01*
X101052380Y-138550952D01*
X101028571Y-138574761D01*
X100576190Y-137836666D02*
X100576190Y-137931904D01*
X100600000Y-137979523D01*
X100623809Y-138003333D01*
X100695238Y-138050952D01*
X100790476Y-138074761D01*
X100980952Y-138074761D01*
X101028571Y-138050952D01*
X101052380Y-138027142D01*
X101076190Y-137979523D01*
X101076190Y-137884285D01*
X101052380Y-137836666D01*
X101028571Y-137812857D01*
X100980952Y-137789047D01*
X100861904Y-137789047D01*
X100814285Y-137812857D01*
X100790476Y-137836666D01*
X100766666Y-137884285D01*
X100766666Y-137979523D01*
X100790476Y-138027142D01*
X100814285Y-138050952D01*
X100861904Y-138074761D01*
X116678571Y-141578571D02*
X116654761Y-141602380D01*
X116583333Y-141626190D01*
X116535714Y-141626190D01*
X116464285Y-141602380D01*
X116416666Y-141554761D01*
X116392857Y-141507142D01*
X116369047Y-141411904D01*
X116369047Y-141340476D01*
X116392857Y-141245238D01*
X116416666Y-141197619D01*
X116464285Y-141150000D01*
X116535714Y-141126190D01*
X116583333Y-141126190D01*
X116654761Y-141150000D01*
X116678571Y-141173809D01*
X117154761Y-141626190D02*
X116869047Y-141626190D01*
X117011904Y-141626190D02*
X117011904Y-141126190D01*
X116964285Y-141197619D01*
X116916666Y-141245238D01*
X116869047Y-141269047D01*
X117440476Y-141340476D02*
X117392857Y-141316666D01*
X117369047Y-141292857D01*
X117345238Y-141245238D01*
X117345238Y-141221428D01*
X117369047Y-141173809D01*
X117392857Y-141150000D01*
X117440476Y-141126190D01*
X117535714Y-141126190D01*
X117583333Y-141150000D01*
X117607142Y-141173809D01*
X117630952Y-141221428D01*
X117630952Y-141245238D01*
X117607142Y-141292857D01*
X117583333Y-141316666D01*
X117535714Y-141340476D01*
X117440476Y-141340476D01*
X117392857Y-141364285D01*
X117369047Y-141388095D01*
X117345238Y-141435714D01*
X117345238Y-141530952D01*
X117369047Y-141578571D01*
X117392857Y-141602380D01*
X117440476Y-141626190D01*
X117535714Y-141626190D01*
X117583333Y-141602380D01*
X117607142Y-141578571D01*
X117630952Y-141530952D01*
X117630952Y-141435714D01*
X117607142Y-141388095D01*
X117583333Y-141364285D01*
X117535714Y-141340476D01*
X89678571Y-134176190D02*
X89511904Y-133938095D01*
X89392857Y-134176190D02*
X89392857Y-133676190D01*
X89583333Y-133676190D01*
X89630952Y-133700000D01*
X89654761Y-133723809D01*
X89678571Y-133771428D01*
X89678571Y-133842857D01*
X89654761Y-133890476D01*
X89630952Y-133914285D01*
X89583333Y-133938095D01*
X89392857Y-133938095D01*
X90107142Y-133842857D02*
X90107142Y-134176190D01*
X89988095Y-133652380D02*
X89869047Y-134009523D01*
X90178571Y-134009523D01*
X90345238Y-133723809D02*
X90369047Y-133700000D01*
X90416666Y-133676190D01*
X90535714Y-133676190D01*
X90583333Y-133700000D01*
X90607142Y-133723809D01*
X90630952Y-133771428D01*
X90630952Y-133819047D01*
X90607142Y-133890476D01*
X90321428Y-134176190D01*
X90630952Y-134176190D01*
D10*
X69007142Y-132277142D02*
X68959523Y-132324761D01*
X68816666Y-132372380D01*
X68721428Y-132372380D01*
X68578571Y-132324761D01*
X68483333Y-132229523D01*
X68435714Y-132134285D01*
X68388095Y-131943809D01*
X68388095Y-131800952D01*
X68435714Y-131610476D01*
X68483333Y-131515238D01*
X68578571Y-131420000D01*
X68721428Y-131372380D01*
X68816666Y-131372380D01*
X68959523Y-131420000D01*
X69007142Y-131467619D01*
X69388095Y-131467619D02*
X69435714Y-131420000D01*
X69530952Y-131372380D01*
X69769047Y-131372380D01*
X69864285Y-131420000D01*
X69911904Y-131467619D01*
X69959523Y-131562857D01*
X69959523Y-131658095D01*
X69911904Y-131800952D01*
X69340476Y-132372380D01*
X69959523Y-132372380D01*
X70530952Y-131800952D02*
X70435714Y-131753333D01*
X70388095Y-131705714D01*
X70340476Y-131610476D01*
X70340476Y-131562857D01*
X70388095Y-131467619D01*
X70435714Y-131420000D01*
X70530952Y-131372380D01*
X70721428Y-131372380D01*
X70816666Y-131420000D01*
X70864285Y-131467619D01*
X70911904Y-131562857D01*
X70911904Y-131610476D01*
X70864285Y-131705714D01*
X70816666Y-131753333D01*
X70721428Y-131800952D01*
X70530952Y-131800952D01*
X70435714Y-131848571D01*
X70388095Y-131896190D01*
X70340476Y-131991428D01*
X70340476Y-132181904D01*
X70388095Y-132277142D01*
X70435714Y-132324761D01*
X70530952Y-132372380D01*
X70721428Y-132372380D01*
X70816666Y-132324761D01*
X70864285Y-132277142D01*
X70911904Y-132181904D01*
X70911904Y-131991428D01*
X70864285Y-131896190D01*
X70816666Y-131848571D01*
X70721428Y-131800952D01*
D13*
X96928571Y-130876190D02*
X96761904Y-130638095D01*
X96642857Y-130876190D02*
X96642857Y-130376190D01*
X96833333Y-130376190D01*
X96880952Y-130400000D01*
X96904761Y-130423809D01*
X96928571Y-130471428D01*
X96928571Y-130542857D01*
X96904761Y-130590476D01*
X96880952Y-130614285D01*
X96833333Y-130638095D01*
X96642857Y-130638095D01*
X97095238Y-130376190D02*
X97404761Y-130376190D01*
X97238095Y-130566666D01*
X97309523Y-130566666D01*
X97357142Y-130590476D01*
X97380952Y-130614285D01*
X97404761Y-130661904D01*
X97404761Y-130780952D01*
X97380952Y-130828571D01*
X97357142Y-130852380D01*
X97309523Y-130876190D01*
X97166666Y-130876190D01*
X97119047Y-130852380D01*
X97095238Y-130828571D01*
X97571428Y-130376190D02*
X97904761Y-130376190D01*
X97690476Y-130876190D01*
X87928571Y-134176190D02*
X87761904Y-133938095D01*
X87642857Y-134176190D02*
X87642857Y-133676190D01*
X87833333Y-133676190D01*
X87880952Y-133700000D01*
X87904761Y-133723809D01*
X87928571Y-133771428D01*
X87928571Y-133842857D01*
X87904761Y-133890476D01*
X87880952Y-133914285D01*
X87833333Y-133938095D01*
X87642857Y-133938095D01*
X88357142Y-133842857D02*
X88357142Y-134176190D01*
X88238095Y-133652380D02*
X88119047Y-134009523D01*
X88428571Y-134009523D01*
X88571428Y-133676190D02*
X88880952Y-133676190D01*
X88714285Y-133866666D01*
X88785714Y-133866666D01*
X88833333Y-133890476D01*
X88857142Y-133914285D01*
X88880952Y-133961904D01*
X88880952Y-134080952D01*
X88857142Y-134128571D01*
X88833333Y-134152380D01*
X88785714Y-134176190D01*
X88642857Y-134176190D01*
X88595238Y-134152380D01*
X88571428Y-134128571D01*
D10*
X94278571Y-136289285D02*
X94278571Y-136896428D01*
X94314285Y-136967857D01*
X94350000Y-137003571D01*
X94421428Y-137039285D01*
X94564285Y-137039285D01*
X94635714Y-137003571D01*
X94671428Y-136967857D01*
X94707142Y-136896428D01*
X94707142Y-136289285D01*
X94992857Y-136289285D02*
X95492857Y-136289285D01*
X95171428Y-137039285D01*
D13*
X116628571Y-131628571D02*
X116604761Y-131652380D01*
X116533333Y-131676190D01*
X116485714Y-131676190D01*
X116414285Y-131652380D01*
X116366666Y-131604761D01*
X116342857Y-131557142D01*
X116319047Y-131461904D01*
X116319047Y-131390476D01*
X116342857Y-131295238D01*
X116366666Y-131247619D01*
X116414285Y-131200000D01*
X116485714Y-131176190D01*
X116533333Y-131176190D01*
X116604761Y-131200000D01*
X116628571Y-131223809D01*
X117104761Y-131676190D02*
X116819047Y-131676190D01*
X116961904Y-131676190D02*
X116961904Y-131176190D01*
X116914285Y-131247619D01*
X116866666Y-131295238D01*
X116819047Y-131319047D01*
X117342857Y-131676190D02*
X117438095Y-131676190D01*
X117485714Y-131652380D01*
X117509523Y-131628571D01*
X117557142Y-131557142D01*
X117580952Y-131461904D01*
X117580952Y-131271428D01*
X117557142Y-131223809D01*
X117533333Y-131200000D01*
X117485714Y-131176190D01*
X117390476Y-131176190D01*
X117342857Y-131200000D01*
X117319047Y-131223809D01*
X117295238Y-131271428D01*
X117295238Y-131390476D01*
X117319047Y-131438095D01*
X117342857Y-131461904D01*
X117390476Y-131485714D01*
X117485714Y-131485714D01*
X117533333Y-131461904D01*
X117557142Y-131438095D01*
X117580952Y-131390476D01*
X95328571Y-130876190D02*
X95161904Y-130638095D01*
X95042857Y-130876190D02*
X95042857Y-130376190D01*
X95233333Y-130376190D01*
X95280952Y-130400000D01*
X95304761Y-130423809D01*
X95328571Y-130471428D01*
X95328571Y-130542857D01*
X95304761Y-130590476D01*
X95280952Y-130614285D01*
X95233333Y-130638095D01*
X95042857Y-130638095D01*
X95495238Y-130376190D02*
X95804761Y-130376190D01*
X95638095Y-130566666D01*
X95709523Y-130566666D01*
X95757142Y-130590476D01*
X95780952Y-130614285D01*
X95804761Y-130661904D01*
X95804761Y-130780952D01*
X95780952Y-130828571D01*
X95757142Y-130852380D01*
X95709523Y-130876190D01*
X95566666Y-130876190D01*
X95519047Y-130852380D01*
X95495238Y-130828571D01*
X96090476Y-130590476D02*
X96042857Y-130566666D01*
X96019047Y-130542857D01*
X95995238Y-130495238D01*
X95995238Y-130471428D01*
X96019047Y-130423809D01*
X96042857Y-130400000D01*
X96090476Y-130376190D01*
X96185714Y-130376190D01*
X96233333Y-130400000D01*
X96257142Y-130423809D01*
X96280952Y-130471428D01*
X96280952Y-130495238D01*
X96257142Y-130542857D01*
X96233333Y-130566666D01*
X96185714Y-130590476D01*
X96090476Y-130590476D01*
X96042857Y-130614285D01*
X96019047Y-130638095D01*
X95995238Y-130685714D01*
X95995238Y-130780952D01*
X96019047Y-130828571D01*
X96042857Y-130852380D01*
X96090476Y-130876190D01*
X96185714Y-130876190D01*
X96233333Y-130852380D01*
X96257142Y-130828571D01*
X96280952Y-130780952D01*
X96280952Y-130685714D01*
X96257142Y-130638095D01*
X96233333Y-130614285D01*
X96185714Y-130590476D01*
X93828571Y-130876190D02*
X93661904Y-130638095D01*
X93542857Y-130876190D02*
X93542857Y-130376190D01*
X93733333Y-130376190D01*
X93780952Y-130400000D01*
X93804761Y-130423809D01*
X93828571Y-130471428D01*
X93828571Y-130542857D01*
X93804761Y-130590476D01*
X93780952Y-130614285D01*
X93733333Y-130638095D01*
X93542857Y-130638095D01*
X93995238Y-130376190D02*
X94304761Y-130376190D01*
X94138095Y-130566666D01*
X94209523Y-130566666D01*
X94257142Y-130590476D01*
X94280952Y-130614285D01*
X94304761Y-130661904D01*
X94304761Y-130780952D01*
X94280952Y-130828571D01*
X94257142Y-130852380D01*
X94209523Y-130876190D01*
X94066666Y-130876190D01*
X94019047Y-130852380D01*
X93995238Y-130828571D01*
X94542857Y-130876190D02*
X94638095Y-130876190D01*
X94685714Y-130852380D01*
X94709523Y-130828571D01*
X94757142Y-130757142D01*
X94780952Y-130661904D01*
X94780952Y-130471428D01*
X94757142Y-130423809D01*
X94733333Y-130400000D01*
X94685714Y-130376190D01*
X94590476Y-130376190D01*
X94542857Y-130400000D01*
X94519047Y-130423809D01*
X94495238Y-130471428D01*
X94495238Y-130590476D01*
X94519047Y-130638095D01*
X94542857Y-130661904D01*
X94590476Y-130685714D01*
X94685714Y-130685714D01*
X94733333Y-130661904D01*
X94757142Y-130638095D01*
X94780952Y-130590476D01*
D10*
X119473809Y-136376190D02*
X119473809Y-136852380D01*
X119140476Y-135852380D02*
X119473809Y-136376190D01*
X119807142Y-135852380D01*
X120664285Y-136852380D02*
X120092857Y-136852380D01*
X120378571Y-136852380D02*
X120378571Y-135852380D01*
X120283333Y-135995238D01*
X120188095Y-136090476D01*
X120092857Y-136138095D01*
X64797142Y-132372380D02*
X64463809Y-131896190D01*
X64225714Y-132372380D02*
X64225714Y-131372380D01*
X64606666Y-131372380D01*
X64701904Y-131420000D01*
X64749523Y-131467619D01*
X64797142Y-131562857D01*
X64797142Y-131705714D01*
X64749523Y-131800952D01*
X64701904Y-131848571D01*
X64606666Y-131896190D01*
X64225714Y-131896190D01*
X65654285Y-131705714D02*
X65654285Y-132372380D01*
X65416190Y-131324761D02*
X65178095Y-132039047D01*
X65797142Y-132039047D01*
X66654285Y-131372380D02*
X66178095Y-131372380D01*
X66130476Y-131848571D01*
X66178095Y-131800952D01*
X66273333Y-131753333D01*
X66511428Y-131753333D01*
X66606666Y-131800952D01*
X66654285Y-131848571D01*
X66701904Y-131943809D01*
X66701904Y-132181904D01*
X66654285Y-132277142D01*
X66606666Y-132324761D01*
X66511428Y-132372380D01*
X66273333Y-132372380D01*
X66178095Y-132324761D01*
X66130476Y-132277142D01*
D13*
X101076190Y-135691428D02*
X100838095Y-135858095D01*
X101076190Y-135977142D02*
X100576190Y-135977142D01*
X100576190Y-135786666D01*
X100600000Y-135739047D01*
X100623809Y-135715238D01*
X100671428Y-135691428D01*
X100742857Y-135691428D01*
X100790476Y-135715238D01*
X100814285Y-135739047D01*
X100838095Y-135786666D01*
X100838095Y-135977142D01*
X100576190Y-135524761D02*
X100576190Y-135215238D01*
X100766666Y-135381904D01*
X100766666Y-135310476D01*
X100790476Y-135262857D01*
X100814285Y-135239047D01*
X100861904Y-135215238D01*
X100980952Y-135215238D01*
X101028571Y-135239047D01*
X101052380Y-135262857D01*
X101076190Y-135310476D01*
X101076190Y-135453333D01*
X101052380Y-135500952D01*
X101028571Y-135524761D01*
X100576190Y-134762857D02*
X100576190Y-135000952D01*
X100814285Y-135024761D01*
X100790476Y-135000952D01*
X100766666Y-134953333D01*
X100766666Y-134834285D01*
X100790476Y-134786666D01*
X100814285Y-134762857D01*
X100861904Y-134739047D01*
X100980952Y-134739047D01*
X101028571Y-134762857D01*
X101052380Y-134786666D01*
X101076190Y-134834285D01*
X101076190Y-134953333D01*
X101052380Y-135000952D01*
X101028571Y-135024761D01*
D10*
X78954380Y-130857523D02*
X79668666Y-130857523D01*
X79811523Y-130905142D01*
X79906761Y-131000380D01*
X79954380Y-131143238D01*
X79954380Y-131238476D01*
X79287714Y-129952761D02*
X79954380Y-129952761D01*
X78906761Y-130190857D02*
X79621047Y-130428952D01*
X79621047Y-129809904D01*
X78954380Y-129238476D02*
X78954380Y-129143238D01*
X79002000Y-129048000D01*
X79049619Y-129000380D01*
X79144857Y-128952761D01*
X79335333Y-128905142D01*
X79573428Y-128905142D01*
X79763904Y-128952761D01*
X79859142Y-129000380D01*
X79906761Y-129048000D01*
X79954380Y-129143238D01*
X79954380Y-129238476D01*
X79906761Y-129333714D01*
X79859142Y-129381333D01*
X79763904Y-129428952D01*
X79573428Y-129476571D01*
X79335333Y-129476571D01*
X79144857Y-129428952D01*
X79049619Y-129381333D01*
X79002000Y-129333714D01*
X78954380Y-129238476D01*
D13*
X86228571Y-134176190D02*
X86061904Y-133938095D01*
X85942857Y-134176190D02*
X85942857Y-133676190D01*
X86133333Y-133676190D01*
X86180952Y-133700000D01*
X86204761Y-133723809D01*
X86228571Y-133771428D01*
X86228571Y-133842857D01*
X86204761Y-133890476D01*
X86180952Y-133914285D01*
X86133333Y-133938095D01*
X85942857Y-133938095D01*
X86657142Y-133842857D02*
X86657142Y-134176190D01*
X86538095Y-133652380D02*
X86419047Y-134009523D01*
X86728571Y-134009523D01*
X87133333Y-133842857D02*
X87133333Y-134176190D01*
X87014285Y-133652380D02*
X86895238Y-134009523D01*
X87204761Y-134009523D01*
X88928571Y-137826190D02*
X88761904Y-137588095D01*
X88642857Y-137826190D02*
X88642857Y-137326190D01*
X88833333Y-137326190D01*
X88880952Y-137350000D01*
X88904761Y-137373809D01*
X88928571Y-137421428D01*
X88928571Y-137492857D01*
X88904761Y-137540476D01*
X88880952Y-137564285D01*
X88833333Y-137588095D01*
X88642857Y-137588095D01*
X89357142Y-137492857D02*
X89357142Y-137826190D01*
X89238095Y-137302380D02*
X89119047Y-137659523D01*
X89428571Y-137659523D01*
X89880952Y-137826190D02*
X89595238Y-137826190D01*
X89738095Y-137826190D02*
X89738095Y-137326190D01*
X89690476Y-137397619D01*
X89642857Y-137445238D01*
X89595238Y-137469047D01*
X85828571Y-137826190D02*
X85661904Y-137588095D01*
X85542857Y-137826190D02*
X85542857Y-137326190D01*
X85733333Y-137326190D01*
X85780952Y-137350000D01*
X85804761Y-137373809D01*
X85828571Y-137421428D01*
X85828571Y-137492857D01*
X85804761Y-137540476D01*
X85780952Y-137564285D01*
X85733333Y-137588095D01*
X85542857Y-137588095D01*
X86257142Y-137492857D02*
X86257142Y-137826190D01*
X86138095Y-137302380D02*
X86019047Y-137659523D01*
X86328571Y-137659523D01*
X86614285Y-137326190D02*
X86661904Y-137326190D01*
X86709523Y-137350000D01*
X86733333Y-137373809D01*
X86757142Y-137421428D01*
X86780952Y-137516666D01*
X86780952Y-137635714D01*
X86757142Y-137730952D01*
X86733333Y-137778571D01*
X86709523Y-137802380D01*
X86661904Y-137826190D01*
X86614285Y-137826190D01*
X86566666Y-137802380D01*
X86542857Y-137778571D01*
X86519047Y-137730952D01*
X86495238Y-137635714D01*
X86495238Y-137516666D01*
X86519047Y-137421428D01*
X86542857Y-137373809D01*
X86566666Y-137350000D01*
X86614285Y-137326190D01*
D10*
X107766790Y-124169514D02*
X107957266Y-124836180D01*
X108147742Y-124359990D01*
X108338219Y-124836180D01*
X108528695Y-124169514D01*
X108909647Y-124836180D02*
X108909647Y-124169514D01*
X108909647Y-123836180D02*
X108862028Y-123883800D01*
X108909647Y-123931419D01*
X108957266Y-123883800D01*
X108909647Y-123836180D01*
X108909647Y-123931419D01*
X109814409Y-124836180D02*
X109814409Y-123836180D01*
X109814409Y-124788561D02*
X109719171Y-124836180D01*
X109528695Y-124836180D01*
X109433457Y-124788561D01*
X109385838Y-124740942D01*
X109338219Y-124645704D01*
X109338219Y-124359990D01*
X109385838Y-124264752D01*
X109433457Y-124217133D01*
X109528695Y-124169514D01*
X109719171Y-124169514D01*
X109814409Y-124217133D01*
X110671552Y-124788561D02*
X110576314Y-124836180D01*
X110385838Y-124836180D01*
X110290600Y-124788561D01*
X110242980Y-124693323D01*
X110242980Y-124312371D01*
X110290600Y-124217133D01*
X110385838Y-124169514D01*
X110576314Y-124169514D01*
X110671552Y-124217133D01*
X110719171Y-124312371D01*
X110719171Y-124407609D01*
X110242980Y-124502847D01*
X111147742Y-124836180D02*
X111147742Y-123836180D01*
X111147742Y-124217133D02*
X111242980Y-124169514D01*
X111433457Y-124169514D01*
X111528695Y-124217133D01*
X111576314Y-124264752D01*
X111623933Y-124359990D01*
X111623933Y-124645704D01*
X111576314Y-124740942D01*
X111528695Y-124788561D01*
X111433457Y-124836180D01*
X111242980Y-124836180D01*
X111147742Y-124788561D01*
X112481076Y-124836180D02*
X112481076Y-124312371D01*
X112433457Y-124217133D01*
X112338219Y-124169514D01*
X112147742Y-124169514D01*
X112052504Y-124217133D01*
X112481076Y-124788561D02*
X112385838Y-124836180D01*
X112147742Y-124836180D01*
X112052504Y-124788561D01*
X112004885Y-124693323D01*
X112004885Y-124598085D01*
X112052504Y-124502847D01*
X112147742Y-124455228D01*
X112385838Y-124455228D01*
X112481076Y-124407609D01*
X112957266Y-124169514D02*
X112957266Y-124836180D01*
X112957266Y-124264752D02*
X113004885Y-124217133D01*
X113100123Y-124169514D01*
X113242980Y-124169514D01*
X113338219Y-124217133D01*
X113385838Y-124312371D01*
X113385838Y-124836180D01*
X114290600Y-124836180D02*
X114290600Y-123836180D01*
X114290600Y-124788561D02*
X114195361Y-124836180D01*
X114004885Y-124836180D01*
X113909647Y-124788561D01*
X113862028Y-124740942D01*
X113814409Y-124645704D01*
X113814409Y-124359990D01*
X113862028Y-124264752D01*
X113909647Y-124217133D01*
X114004885Y-124169514D01*
X114195361Y-124169514D01*
X114290600Y-124217133D01*
X114528695Y-124931419D02*
X115290600Y-124931419D01*
X115528695Y-124836180D02*
X115528695Y-123836180D01*
X115862028Y-124550466D01*
X116195361Y-123836180D01*
X116195361Y-124836180D01*
X117242980Y-124836180D02*
X116909647Y-124359990D01*
X116671552Y-124836180D02*
X116671552Y-123836180D01*
X117052504Y-123836180D01*
X117147742Y-123883800D01*
X117195361Y-123931419D01*
X117242980Y-124026657D01*
X117242980Y-124169514D01*
X117195361Y-124264752D01*
X117147742Y-124312371D01*
X117052504Y-124359990D01*
X116671552Y-124359990D01*
X117671552Y-124312371D02*
X118004885Y-124312371D01*
X118147742Y-124836180D02*
X117671552Y-124836180D01*
X117671552Y-123836180D01*
X118147742Y-123836180D01*
X118338219Y-124931419D02*
X119100123Y-124931419D01*
X119909647Y-124836180D02*
X119576314Y-124359990D01*
X119338219Y-124836180D02*
X119338219Y-123836180D01*
X119719171Y-123836180D01*
X119814409Y-123883800D01*
X119862028Y-123931419D01*
X119909647Y-124026657D01*
X119909647Y-124169514D01*
X119862028Y-124264752D01*
X119814409Y-124312371D01*
X119719171Y-124359990D01*
X119338219Y-124359990D01*
X120528695Y-123836180D02*
X120623933Y-123836180D01*
X120719171Y-123883800D01*
X120766790Y-123931419D01*
X120814409Y-124026657D01*
X120862028Y-124217133D01*
X120862028Y-124455228D01*
X120814409Y-124645704D01*
X120766790Y-124740942D01*
X120719171Y-124788561D01*
X120623933Y-124836180D01*
X120528695Y-124836180D01*
X120433457Y-124788561D01*
X120385838Y-124740942D01*
X120338219Y-124645704D01*
X120290600Y-124455228D01*
X120290600Y-124217133D01*
X120338219Y-124026657D01*
X120385838Y-123931419D01*
X120433457Y-123883800D01*
X120528695Y-123836180D01*
X121766790Y-123836180D02*
X121290600Y-123836180D01*
X121242980Y-124312371D01*
X121290600Y-124264752D01*
X121385838Y-124217133D01*
X121623933Y-124217133D01*
X121719171Y-124264752D01*
X121766790Y-124312371D01*
X121814409Y-124407609D01*
X121814409Y-124645704D01*
X121766790Y-124740942D01*
X121719171Y-124788561D01*
X121623933Y-124836180D01*
X121385838Y-124836180D01*
X121290600Y-124788561D01*
X121242980Y-124740942D01*
X122719171Y-123836180D02*
X122242980Y-123836180D01*
X122195361Y-124312371D01*
X122242980Y-124264752D01*
X122338219Y-124217133D01*
X122576314Y-124217133D01*
X122671552Y-124264752D01*
X122719171Y-124312371D01*
X122766790Y-124407609D01*
X122766790Y-124645704D01*
X122719171Y-124740942D01*
X122671552Y-124788561D01*
X122576314Y-124836180D01*
X122338219Y-124836180D01*
X122242980Y-124788561D01*
X122195361Y-124740942D01*
X84714285Y-142467857D02*
X84678571Y-142503571D01*
X84571428Y-142539285D01*
X84500000Y-142539285D01*
X84392857Y-142503571D01*
X84321428Y-142432142D01*
X84285714Y-142360714D01*
X84250000Y-142217857D01*
X84250000Y-142110714D01*
X84285714Y-141967857D01*
X84321428Y-141896428D01*
X84392857Y-141825000D01*
X84500000Y-141789285D01*
X84571428Y-141789285D01*
X84678571Y-141825000D01*
X84714285Y-141860714D01*
X85000000Y-142325000D02*
X85357142Y-142325000D01*
X84928571Y-142539285D02*
X85178571Y-141789285D01*
X85428571Y-142539285D01*
X85678571Y-142539285D02*
X85678571Y-141789285D01*
X86107142Y-142539285D01*
X86107142Y-141789285D01*
X86821428Y-142539285D02*
X86464285Y-142539285D01*
X86464285Y-141789285D01*
D16*
X140775885Y-129787771D02*
X140025885Y-129787771D01*
X140025885Y-129502057D01*
X140061600Y-129430628D01*
X140097314Y-129394914D01*
X140168742Y-129359200D01*
X140275885Y-129359200D01*
X140347314Y-129394914D01*
X140383028Y-129430628D01*
X140418742Y-129502057D01*
X140418742Y-129787771D01*
X140383028Y-128787771D02*
X140418742Y-128680628D01*
X140454457Y-128644914D01*
X140525885Y-128609200D01*
X140633028Y-128609200D01*
X140704457Y-128644914D01*
X140740171Y-128680628D01*
X140775885Y-128752057D01*
X140775885Y-129037771D01*
X140025885Y-129037771D01*
X140025885Y-128787771D01*
X140061600Y-128716342D01*
X140097314Y-128680628D01*
X140168742Y-128644914D01*
X140240171Y-128644914D01*
X140311600Y-128680628D01*
X140347314Y-128716342D01*
X140383028Y-128787771D01*
X140383028Y-129037771D01*
X140775885Y-128252057D02*
X140775885Y-128109200D01*
X140740171Y-128037771D01*
X140704457Y-128002057D01*
X140597314Y-127930628D01*
X140454457Y-127894914D01*
X140168742Y-127894914D01*
X140097314Y-127930628D01*
X140061600Y-127966342D01*
X140025885Y-128037771D01*
X140025885Y-128180628D01*
X140061600Y-128252057D01*
X140097314Y-128287771D01*
X140168742Y-128323485D01*
X140347314Y-128323485D01*
X140418742Y-128287771D01*
X140454457Y-128252057D01*
X140490171Y-128180628D01*
X140490171Y-128037771D01*
X140454457Y-127966342D01*
X140418742Y-127930628D01*
X140347314Y-127894914D01*
X138235885Y-140759342D02*
X137485885Y-140759342D01*
X137485885Y-140473628D01*
X137521600Y-140402200D01*
X137557314Y-140366485D01*
X137628742Y-140330771D01*
X137735885Y-140330771D01*
X137807314Y-140366485D01*
X137843028Y-140402200D01*
X137878742Y-140473628D01*
X137878742Y-140759342D01*
X138021600Y-140045057D02*
X138021600Y-139687914D01*
X138235885Y-140116485D02*
X137485885Y-139866485D01*
X138235885Y-139616485D01*
X138235885Y-138973628D02*
X138235885Y-139402200D01*
X138235885Y-139187914D02*
X137485885Y-139187914D01*
X137593028Y-139259342D01*
X137664457Y-139330771D01*
X137700171Y-139402200D01*
X137485885Y-138295057D02*
X137485885Y-138652200D01*
X137843028Y-138687914D01*
X137807314Y-138652200D01*
X137771600Y-138580771D01*
X137771600Y-138402200D01*
X137807314Y-138330771D01*
X137843028Y-138295057D01*
X137914457Y-138259342D01*
X138093028Y-138259342D01*
X138164457Y-138295057D01*
X138200171Y-138330771D01*
X138235885Y-138402200D01*
X138235885Y-138580771D01*
X138200171Y-138652200D01*
X138164457Y-138687914D01*
D10*
X136604760Y-167918583D02*
X137319046Y-167918583D01*
X137461903Y-167966202D01*
X137557141Y-168061440D01*
X137604760Y-168204298D01*
X137604760Y-168299536D01*
X136604760Y-167537631D02*
X136604760Y-166918583D01*
X136985713Y-167251917D01*
X136985713Y-167109060D01*
X137033332Y-167013821D01*
X137080951Y-166966202D01*
X137176189Y-166918583D01*
X137414284Y-166918583D01*
X137509522Y-166966202D01*
X137557141Y-167013821D01*
X137604760Y-167109060D01*
X137604760Y-167394774D01*
X137557141Y-167490012D01*
X137509522Y-167537631D01*
X136604760Y-166299536D02*
X136604760Y-166204298D01*
X136652380Y-166109060D01*
X136699999Y-166061440D01*
X136795237Y-166013821D01*
X136985713Y-165966202D01*
X137223808Y-165966202D01*
X137414284Y-166013821D01*
X137509522Y-166061440D01*
X137557141Y-166109060D01*
X137604760Y-166204298D01*
X137604760Y-166299536D01*
X137557141Y-166394774D01*
X137509522Y-166442393D01*
X137414284Y-166490012D01*
X137223808Y-166537631D01*
X136985713Y-166537631D01*
X136795237Y-166490012D01*
X136699999Y-166442393D01*
X136652380Y-166394774D01*
X136604760Y-166299536D01*
D16*
X134981600Y-139844628D02*
X134945885Y-139916057D01*
X134945885Y-140023200D01*
X134981600Y-140130342D01*
X135053028Y-140201771D01*
X135124457Y-140237485D01*
X135267314Y-140273200D01*
X135374457Y-140273200D01*
X135517314Y-140237485D01*
X135588742Y-140201771D01*
X135660171Y-140130342D01*
X135695885Y-140023200D01*
X135695885Y-139951771D01*
X135660171Y-139844628D01*
X135624457Y-139808914D01*
X135374457Y-139808914D01*
X135374457Y-139951771D01*
X135695885Y-139487485D02*
X134945885Y-139487485D01*
X135695885Y-139058914D01*
X134945885Y-139058914D01*
X135695885Y-138701771D02*
X134945885Y-138701771D01*
X134945885Y-138523200D01*
X134981600Y-138416057D01*
X135053028Y-138344628D01*
X135124457Y-138308914D01*
X135267314Y-138273200D01*
X135374457Y-138273200D01*
X135517314Y-138308914D01*
X135588742Y-138344628D01*
X135660171Y-138416057D01*
X135695885Y-138523200D01*
X135695885Y-138701771D01*
X124600465Y-162171917D02*
X124600465Y-162529060D01*
X124957608Y-162564774D01*
X124921894Y-162529060D01*
X124886180Y-162457631D01*
X124886180Y-162279060D01*
X124921894Y-162207631D01*
X124957608Y-162171917D01*
X125029037Y-162136202D01*
X125207608Y-162136202D01*
X125279037Y-162171917D01*
X125314751Y-162207631D01*
X125350465Y-162279060D01*
X125350465Y-162457631D01*
X125314751Y-162529060D01*
X125279037Y-162564774D01*
X124600465Y-161921917D02*
X125350465Y-161671917D01*
X124600465Y-161421917D01*
D10*
X112433171Y-157414800D02*
X112361742Y-157379085D01*
X112254600Y-157379085D01*
X112147457Y-157414800D01*
X112076028Y-157486228D01*
X112040314Y-157557657D01*
X112004600Y-157700514D01*
X112004600Y-157807657D01*
X112040314Y-157950514D01*
X112076028Y-158021942D01*
X112147457Y-158093371D01*
X112254600Y-158129085D01*
X112326028Y-158129085D01*
X112433171Y-158093371D01*
X112468885Y-158057657D01*
X112468885Y-157807657D01*
X112326028Y-157807657D01*
X112790314Y-158129085D02*
X112790314Y-157379085D01*
X113218885Y-158129085D01*
X113218885Y-157379085D01*
X113576028Y-158129085D02*
X113576028Y-157379085D01*
X113754600Y-157379085D01*
X113861742Y-157414800D01*
X113933171Y-157486228D01*
X113968885Y-157557657D01*
X114004600Y-157700514D01*
X114004600Y-157807657D01*
X113968885Y-157950514D01*
X113933171Y-158021942D01*
X113861742Y-158093371D01*
X113754600Y-158129085D01*
X113576028Y-158129085D01*
D16*
X142565885Y-129859200D02*
X143315885Y-129609200D01*
X142565885Y-129359200D01*
X143315885Y-129109200D02*
X142565885Y-129109200D01*
X142565885Y-128930628D01*
X142601600Y-128823485D01*
X142673028Y-128752057D01*
X142744457Y-128716342D01*
X142887314Y-128680628D01*
X142994457Y-128680628D01*
X143137314Y-128716342D01*
X143208742Y-128752057D01*
X143280171Y-128823485D01*
X143315885Y-128930628D01*
X143315885Y-129109200D01*
X143315885Y-128359200D02*
X142565885Y-128359200D01*
X142565885Y-128180628D01*
X142601600Y-128073485D01*
X142673028Y-128002057D01*
X142744457Y-127966342D01*
X142887314Y-127930628D01*
X142994457Y-127930628D01*
X143137314Y-127966342D01*
X143208742Y-128002057D01*
X143280171Y-128073485D01*
X143315885Y-128180628D01*
X143315885Y-128359200D01*
D10*
X109464600Y-157379085D02*
X109714600Y-158129085D01*
X109964600Y-157379085D01*
X110643171Y-158057657D02*
X110607457Y-158093371D01*
X110500314Y-158129085D01*
X110428885Y-158129085D01*
X110321742Y-158093371D01*
X110250314Y-158021942D01*
X110214600Y-157950514D01*
X110178885Y-157807657D01*
X110178885Y-157700514D01*
X110214600Y-157557657D01*
X110250314Y-157486228D01*
X110321742Y-157414800D01*
X110428885Y-157379085D01*
X110500314Y-157379085D01*
X110607457Y-157414800D01*
X110643171Y-157450514D01*
X111393171Y-158057657D02*
X111357457Y-158093371D01*
X111250314Y-158129085D01*
X111178885Y-158129085D01*
X111071742Y-158093371D01*
X111000314Y-158021942D01*
X110964600Y-157950514D01*
X110928885Y-157807657D01*
X110928885Y-157700514D01*
X110964600Y-157557657D01*
X111000314Y-157486228D01*
X111071742Y-157414800D01*
X111178885Y-157379085D01*
X111250314Y-157379085D01*
X111357457Y-157414800D01*
X111393171Y-157450514D01*
X117218377Y-157386645D02*
X117218377Y-157922360D01*
X117182662Y-158029502D01*
X117111234Y-158100931D01*
X117004091Y-158136645D01*
X116932662Y-158136645D01*
X117968377Y-158136645D02*
X117539805Y-158136645D01*
X117754091Y-158136645D02*
X117754091Y-157386645D01*
X117682662Y-157493788D01*
X117611234Y-157565217D01*
X117539805Y-157600931D01*
X118218377Y-157386645D02*
X118682662Y-157386645D01*
X118432662Y-157672360D01*
X118539805Y-157672360D01*
X118611234Y-157708074D01*
X118646948Y-157743788D01*
X118682662Y-157815217D01*
X118682662Y-157993788D01*
X118646948Y-158065217D01*
X118611234Y-158100931D01*
X118539805Y-158136645D01*
X118325520Y-158136645D01*
X118254091Y-158100931D01*
X118218377Y-158065217D01*
D16*
X138235885Y-129763914D02*
X137485885Y-129763914D01*
X137485885Y-129478200D01*
X137521600Y-129406771D01*
X137557314Y-129371057D01*
X137628742Y-129335342D01*
X137735885Y-129335342D01*
X137807314Y-129371057D01*
X137843028Y-129406771D01*
X137878742Y-129478200D01*
X137878742Y-129763914D01*
X138164457Y-128585342D02*
X138200171Y-128621057D01*
X138235885Y-128728200D01*
X138235885Y-128799628D01*
X138200171Y-128906771D01*
X138128742Y-128978200D01*
X138057314Y-129013914D01*
X137914457Y-129049628D01*
X137807314Y-129049628D01*
X137664457Y-129013914D01*
X137593028Y-128978200D01*
X137521600Y-128906771D01*
X137485885Y-128799628D01*
X137485885Y-128728200D01*
X137521600Y-128621057D01*
X137557314Y-128585342D01*
X138235885Y-127871057D02*
X138235885Y-128299628D01*
X138235885Y-128085342D02*
X137485885Y-128085342D01*
X137593028Y-128156771D01*
X137664457Y-128228200D01*
X137700171Y-128299628D01*
X137485885Y-127406771D02*
X137485885Y-127335342D01*
X137521600Y-127263914D01*
X137557314Y-127228200D01*
X137628742Y-127192485D01*
X137771600Y-127156771D01*
X137950171Y-127156771D01*
X138093028Y-127192485D01*
X138164457Y-127228200D01*
X138200171Y-127263914D01*
X138235885Y-127335342D01*
X138235885Y-127406771D01*
X138200171Y-127478200D01*
X138164457Y-127513914D01*
X138093028Y-127549628D01*
X137950171Y-127585342D01*
X137771600Y-127585342D01*
X137628742Y-127549628D01*
X137557314Y-127513914D01*
X137521600Y-127478200D01*
X137485885Y-127406771D01*
X127140465Y-162628202D02*
X127140465Y-162163917D01*
X127426180Y-162413917D01*
X127426180Y-162306774D01*
X127461894Y-162235345D01*
X127497608Y-162199631D01*
X127569037Y-162163917D01*
X127747608Y-162163917D01*
X127819037Y-162199631D01*
X127854751Y-162235345D01*
X127890465Y-162306774D01*
X127890465Y-162521060D01*
X127854751Y-162592488D01*
X127819037Y-162628202D01*
X127819037Y-161842488D02*
X127854751Y-161806774D01*
X127890465Y-161842488D01*
X127854751Y-161878202D01*
X127819037Y-161842488D01*
X127890465Y-161842488D01*
X127140465Y-161556774D02*
X127140465Y-161092488D01*
X127426180Y-161342488D01*
X127426180Y-161235345D01*
X127461894Y-161163917D01*
X127497608Y-161128202D01*
X127569037Y-161092488D01*
X127747608Y-161092488D01*
X127819037Y-161128202D01*
X127854751Y-161163917D01*
X127890465Y-161235345D01*
X127890465Y-161449631D01*
X127854751Y-161521060D01*
X127819037Y-161556774D01*
X127140465Y-160878202D02*
X127890465Y-160628202D01*
X127140465Y-160378202D01*
X140775885Y-140812914D02*
X140025885Y-140812914D01*
X140025885Y-140527200D01*
X140061600Y-140455771D01*
X140097314Y-140420057D01*
X140168742Y-140384342D01*
X140275885Y-140384342D01*
X140347314Y-140420057D01*
X140383028Y-140455771D01*
X140418742Y-140527200D01*
X140418742Y-140812914D01*
X140704457Y-139634342D02*
X140740171Y-139670057D01*
X140775885Y-139777200D01*
X140775885Y-139848628D01*
X140740171Y-139955771D01*
X140668742Y-140027200D01*
X140597314Y-140062914D01*
X140454457Y-140098628D01*
X140347314Y-140098628D01*
X140204457Y-140062914D01*
X140133028Y-140027200D01*
X140061600Y-139955771D01*
X140025885Y-139848628D01*
X140025885Y-139777200D01*
X140061600Y-139670057D01*
X140097314Y-139634342D01*
X140775885Y-138920057D02*
X140775885Y-139348628D01*
X140775885Y-139134342D02*
X140025885Y-139134342D01*
X140133028Y-139205771D01*
X140204457Y-139277200D01*
X140240171Y-139348628D01*
X140775885Y-138205771D02*
X140775885Y-138634342D01*
X140775885Y-138420057D02*
X140025885Y-138420057D01*
X140133028Y-138491485D01*
X140204457Y-138562914D01*
X140240171Y-138634342D01*
D10*
X104532380Y-145803333D02*
X105246666Y-145803333D01*
X105389523Y-145850952D01*
X105484761Y-145946190D01*
X105532380Y-146089047D01*
X105532380Y-146184285D01*
X104532380Y-145422380D02*
X104532380Y-144803333D01*
X104913333Y-145136666D01*
X104913333Y-144993809D01*
X104960952Y-144898571D01*
X105008571Y-144850952D01*
X105103809Y-144803333D01*
X105341904Y-144803333D01*
X105437142Y-144850952D01*
X105484761Y-144898571D01*
X105532380Y-144993809D01*
X105532380Y-145279523D01*
X105484761Y-145374761D01*
X105437142Y-145422380D01*
D16*
X143315885Y-140328771D02*
X142565885Y-140328771D01*
X142565885Y-140043057D01*
X142601600Y-139971628D01*
X142637314Y-139935914D01*
X142708742Y-139900200D01*
X142815885Y-139900200D01*
X142887314Y-139935914D01*
X142923028Y-139971628D01*
X142958742Y-140043057D01*
X142958742Y-140328771D01*
X142923028Y-139328771D02*
X142958742Y-139221628D01*
X142994457Y-139185914D01*
X143065885Y-139150200D01*
X143173028Y-139150200D01*
X143244457Y-139185914D01*
X143280171Y-139221628D01*
X143315885Y-139293057D01*
X143315885Y-139578771D01*
X142565885Y-139578771D01*
X142565885Y-139328771D01*
X142601600Y-139257342D01*
X142637314Y-139221628D01*
X142708742Y-139185914D01*
X142780171Y-139185914D01*
X142851600Y-139221628D01*
X142887314Y-139257342D01*
X142923028Y-139328771D01*
X142923028Y-139578771D01*
X142887314Y-138721628D02*
X142851600Y-138793057D01*
X142815885Y-138828771D01*
X142744457Y-138864485D01*
X142708742Y-138864485D01*
X142637314Y-138828771D01*
X142601600Y-138793057D01*
X142565885Y-138721628D01*
X142565885Y-138578771D01*
X142601600Y-138507342D01*
X142637314Y-138471628D01*
X142708742Y-138435914D01*
X142744457Y-138435914D01*
X142815885Y-138471628D01*
X142851600Y-138507342D01*
X142887314Y-138578771D01*
X142887314Y-138721628D01*
X142923028Y-138793057D01*
X142958742Y-138828771D01*
X143030171Y-138864485D01*
X143173028Y-138864485D01*
X143244457Y-138828771D01*
X143280171Y-138793057D01*
X143315885Y-138721628D01*
X143315885Y-138578771D01*
X143280171Y-138507342D01*
X143244457Y-138471628D01*
X143173028Y-138435914D01*
X143030171Y-138435914D01*
X142958742Y-138471628D01*
X142923028Y-138507342D01*
X142887314Y-138578771D01*
D10*
X114800297Y-157386645D02*
X114800297Y-157922360D01*
X114764582Y-158029502D01*
X114693154Y-158100931D01*
X114586011Y-158136645D01*
X114514582Y-158136645D01*
X115550297Y-158136645D02*
X115121725Y-158136645D01*
X115336011Y-158136645D02*
X115336011Y-157386645D01*
X115264582Y-157493788D01*
X115193154Y-157565217D01*
X115121725Y-157600931D01*
X115836011Y-157458074D02*
X115871725Y-157422360D01*
X115943154Y-157386645D01*
X116121725Y-157386645D01*
X116193154Y-157422360D01*
X116228868Y-157458074D01*
X116264582Y-157529502D01*
X116264582Y-157600931D01*
X116228868Y-157708074D01*
X115800297Y-158136645D01*
X116264582Y-158136645D01*
D16*
X135822885Y-129763914D02*
X135072885Y-129763914D01*
X135072885Y-129478200D01*
X135108600Y-129406771D01*
X135144314Y-129371057D01*
X135215742Y-129335342D01*
X135322885Y-129335342D01*
X135394314Y-129371057D01*
X135430028Y-129406771D01*
X135465742Y-129478200D01*
X135465742Y-129763914D01*
X135751457Y-128585342D02*
X135787171Y-128621057D01*
X135822885Y-128728200D01*
X135822885Y-128799628D01*
X135787171Y-128906771D01*
X135715742Y-128978200D01*
X135644314Y-129013914D01*
X135501457Y-129049628D01*
X135394314Y-129049628D01*
X135251457Y-129013914D01*
X135180028Y-128978200D01*
X135108600Y-128906771D01*
X135072885Y-128799628D01*
X135072885Y-128728200D01*
X135108600Y-128621057D01*
X135144314Y-128585342D01*
X135822885Y-127871057D02*
X135822885Y-128299628D01*
X135822885Y-128085342D02*
X135072885Y-128085342D01*
X135180028Y-128156771D01*
X135251457Y-128228200D01*
X135287171Y-128299628D01*
X135144314Y-127585342D02*
X135108600Y-127549628D01*
X135072885Y-127478200D01*
X135072885Y-127299628D01*
X135108600Y-127228200D01*
X135144314Y-127192485D01*
X135215742Y-127156771D01*
X135287171Y-127156771D01*
X135394314Y-127192485D01*
X135822885Y-127621057D01*
X135822885Y-127156771D01*
D10*
X90475000Y-142467857D02*
X90439285Y-142503571D01*
X90332142Y-142539285D01*
X90260714Y-142539285D01*
X90153571Y-142503571D01*
X90082142Y-142432142D01*
X90046428Y-142360714D01*
X90010714Y-142217857D01*
X90010714Y-142110714D01*
X90046428Y-141967857D01*
X90082142Y-141896428D01*
X90153571Y-141825000D01*
X90260714Y-141789285D01*
X90332142Y-141789285D01*
X90439285Y-141825000D01*
X90475000Y-141860714D01*
X90760714Y-142325000D02*
X91117857Y-142325000D01*
X90689285Y-142539285D02*
X90939285Y-141789285D01*
X91189285Y-142539285D01*
X91439285Y-142539285D02*
X91439285Y-141789285D01*
X91867857Y-142539285D01*
X91867857Y-141789285D01*
X92225000Y-142539285D02*
X92225000Y-141789285D01*
X92225000Y-142146428D02*
X92653571Y-142146428D01*
X92653571Y-142539285D02*
X92653571Y-141789285D01*
D16*
X145105885Y-139035057D02*
X145105885Y-139392200D01*
X145463028Y-139427914D01*
X145427314Y-139392200D01*
X145391600Y-139320771D01*
X145391600Y-139142200D01*
X145427314Y-139070771D01*
X145463028Y-139035057D01*
X145534457Y-138999342D01*
X145713028Y-138999342D01*
X145784457Y-139035057D01*
X145820171Y-139070771D01*
X145855885Y-139142200D01*
X145855885Y-139320771D01*
X145820171Y-139392200D01*
X145784457Y-139427914D01*
X145105885Y-138785057D02*
X145855885Y-138535057D01*
X145105885Y-138285057D01*
D17*
X124140000Y-128312779D02*
X124140000Y-127987221D01*
X125160000Y-128312779D02*
X125160000Y-127987221D01*
X131711079Y-132866700D02*
X131385521Y-132866700D01*
X131711079Y-133886700D02*
X131385521Y-133886700D01*
X125160000Y-142537779D02*
X125160000Y-142212221D01*
X124140000Y-142537779D02*
X124140000Y-142212221D01*
X127290000Y-128312779D02*
X127290000Y-127987221D01*
X128310000Y-128312779D02*
X128310000Y-127987221D01*
X128438300Y-139139479D02*
X128438300Y-138813921D01*
X129458300Y-139139479D02*
X129458300Y-138813921D01*
X122912779Y-150290000D02*
X122587221Y-150290000D01*
X122912779Y-151310000D02*
X122587221Y-151310000D01*
X120722200Y-153631321D02*
X120722200Y-153956879D01*
X119702200Y-153631321D02*
X119702200Y-153956879D01*
X117975000Y-153631221D02*
X117975000Y-153956779D01*
X118995000Y-153631221D02*
X118995000Y-153956779D01*
X118560000Y-145662779D02*
X118560000Y-145337221D01*
X117540000Y-145662779D02*
X117540000Y-145337221D01*
X103312779Y-132860000D02*
X102987221Y-132860000D01*
X103312779Y-131840000D02*
X102987221Y-131840000D01*
X114562779Y-142790000D02*
X114237221Y-142790000D01*
X114562779Y-143810000D02*
X114237221Y-143810000D01*
X99837221Y-132860000D02*
X100162779Y-132860000D01*
X99837221Y-131840000D02*
X100162779Y-131840000D01*
X125910000Y-153637221D02*
X125910000Y-153962779D01*
X124890000Y-153637221D02*
X124890000Y-153962779D01*
X89823700Y-141287221D02*
X89823700Y-141612779D01*
X88803700Y-141287221D02*
X88803700Y-141612779D01*
X86990000Y-141612779D02*
X86990000Y-141287221D01*
X88010000Y-141612779D02*
X88010000Y-141287221D01*
X115885000Y-144075000D02*
X113600000Y-144075000D01*
X115885000Y-145545000D02*
X115885000Y-144075000D01*
X113600000Y-145545000D02*
X115885000Y-145545000D01*
X115885000Y-145585000D02*
X113600000Y-145585000D01*
X115885000Y-147055000D02*
X115885000Y-145585000D01*
X113600000Y-147055000D02*
X115885000Y-147055000D01*
X95655000Y-130135000D02*
X95020000Y-130135000D01*
X95020000Y-130135000D02*
X95020000Y-129500000D01*
X152945000Y-156685000D02*
X143815000Y-156685000D01*
X143815000Y-140315000D02*
X152945000Y-140315000D01*
X153945000Y-141315000D02*
X153945000Y-155685000D01*
X143815000Y-156685000D02*
X143815000Y-140315000D01*
X152945000Y-140315000D02*
X153945000Y-141315000D01*
X153945000Y-155685000D02*
X152945000Y-156685000D01*
X139651200Y-136661200D02*
X138631200Y-136661200D01*
X137111200Y-136661200D02*
X136091200Y-136661200D01*
X142191200Y-136661200D02*
X141171200Y-136661200D01*
X144731200Y-131461200D02*
X143711200Y-131461200D01*
X144731200Y-136661200D02*
X143711200Y-136661200D01*
X146251200Y-130021200D02*
X146251200Y-131461200D01*
X134001200Y-131461200D02*
X134001200Y-136661200D01*
X137111200Y-131461200D02*
X136091200Y-131461200D01*
X134571200Y-131461200D02*
X134001200Y-131461200D01*
X146821200Y-131461200D02*
X146251200Y-131461200D01*
X139651200Y-131461200D02*
X138631200Y-131461200D01*
X134571200Y-136661200D02*
X134001200Y-136661200D01*
X146821200Y-136661200D02*
X146251200Y-136661200D01*
X142191200Y-131461200D02*
X141171200Y-131461200D01*
X146821200Y-131461200D02*
X146821200Y-136661200D01*
X128268000Y-164506600D02*
X129288000Y-164506600D01*
X136458000Y-169706600D02*
X136458000Y-164506600D01*
X123638000Y-164506600D02*
X124208000Y-164506600D01*
X133348000Y-164506600D02*
X134368000Y-164506600D01*
X135888000Y-169706600D02*
X136458000Y-169706600D01*
X123638000Y-169706600D02*
X124208000Y-169706600D01*
X125728000Y-169706600D02*
X126748000Y-169706600D01*
X128268000Y-169706600D02*
X129288000Y-169706600D01*
X130808000Y-164506600D02*
X131828000Y-164506600D01*
X133348000Y-169706600D02*
X134368000Y-169706600D01*
X123638000Y-169706600D02*
X123638000Y-164506600D01*
X124208000Y-171146600D02*
X124208000Y-169706600D01*
X135888000Y-164506600D02*
X136458000Y-164506600D01*
X125728000Y-164506600D02*
X126748000Y-164506600D01*
X130808000Y-169706600D02*
X131828000Y-169706600D01*
X131220000Y-148945000D02*
X131220000Y-151775000D01*
X137850000Y-147445000D02*
X137850000Y-148945000D01*
X130950000Y-147445000D02*
X130950000Y-148945000D01*
X130950000Y-148945000D02*
X131220000Y-148945000D01*
X137850000Y-148945000D02*
X137580000Y-148945000D01*
X137580000Y-148945000D02*
X137580000Y-150045000D01*
X123560000Y-127987221D02*
X123560000Y-128312779D01*
X122540000Y-127987221D02*
X122540000Y-128312779D01*
X125740000Y-128312779D02*
X125740000Y-127987221D01*
X126760000Y-128312779D02*
X126760000Y-127987221D01*
X121960000Y-127987221D02*
X121960000Y-128312779D01*
X120940000Y-127987221D02*
X120940000Y-128312779D01*
X129910000Y-127987221D02*
X129910000Y-128312779D01*
X128890000Y-127987221D02*
X128890000Y-128312779D01*
X127858300Y-134813921D02*
X127858300Y-135139479D01*
X126838300Y-134813921D02*
X126838300Y-135139479D01*
X129458300Y-135139479D02*
X129458300Y-134813921D01*
X128438300Y-135139479D02*
X128438300Y-134813921D01*
X127858300Y-138813921D02*
X127858300Y-139139479D01*
X126838300Y-138813921D02*
X126838300Y-139139479D01*
X121960000Y-142212221D02*
X121960000Y-142537779D01*
X120940000Y-142212221D02*
X120940000Y-142537779D01*
X119340000Y-128312779D02*
X119340000Y-127987221D01*
X120360000Y-128312779D02*
X120360000Y-127987221D01*
X126760000Y-142537779D02*
X126760000Y-142212221D01*
X125740000Y-142537779D02*
X125740000Y-142212221D01*
X127290000Y-142537779D02*
X127290000Y-142212221D01*
X128310000Y-142537779D02*
X128310000Y-142212221D01*
X123560000Y-142537779D02*
X123560000Y-142212221D01*
X122540000Y-142537779D02*
X122540000Y-142212221D01*
X126387221Y-151310000D02*
X126712779Y-151310000D01*
X126387221Y-150290000D02*
X126712779Y-150290000D01*
X129910000Y-142537779D02*
X129910000Y-142212221D01*
X128890000Y-142537779D02*
X128890000Y-142212221D01*
X119340000Y-142537779D02*
X119340000Y-142212221D01*
X120360000Y-142537779D02*
X120360000Y-142212221D01*
X118624721Y-150290000D02*
X118950279Y-150290000D01*
X118624721Y-151310000D02*
X118950279Y-151310000D01*
X131363921Y-138670100D02*
X131689479Y-138670100D01*
X131363921Y-137650100D02*
X131689479Y-137650100D01*
X131711079Y-136066700D02*
X131385521Y-136066700D01*
X131711079Y-137086700D02*
X131385521Y-137086700D01*
X131711079Y-134466700D02*
X131385521Y-134466700D01*
X131711079Y-135486700D02*
X131385521Y-135486700D01*
X131385521Y-132286700D02*
X131711079Y-132286700D01*
X131385521Y-131266700D02*
X131711079Y-131266700D01*
X111562779Y-143810000D02*
X111237221Y-143810000D01*
X111562779Y-142790000D02*
X111237221Y-142790000D01*
X111562779Y-144300000D02*
X111237221Y-144300000D01*
X111562779Y-145320000D02*
X111237221Y-145320000D01*
X111562779Y-145810000D02*
X111237221Y-145810000D01*
X111562779Y-146830000D02*
X111237221Y-146830000D01*
X133740000Y-153487221D02*
X133740000Y-153812779D01*
X134760000Y-153487221D02*
X134760000Y-153812779D01*
X132240000Y-153487221D02*
X132240000Y-153812779D01*
X133260000Y-153487221D02*
X133260000Y-153812779D01*
X130740000Y-153487221D02*
X130740000Y-153812779D01*
X131760000Y-153487221D02*
X131760000Y-153812779D01*
D10*
X121025000Y-132651700D02*
X121250000Y-132651700D01*
X126275000Y-132651700D02*
X126050000Y-132651700D01*
X121150000Y-137301700D02*
X121150000Y-138651700D01*
X126275000Y-137301700D02*
X126050000Y-137301700D01*
X121025000Y-137301700D02*
X121025000Y-132651700D01*
X121025000Y-137301700D02*
X121150000Y-137301700D01*
X126275000Y-137301700D02*
X126275000Y-132651700D01*
D17*
X121140000Y-146758000D02*
X121140000Y-148518000D01*
X124210000Y-148518000D02*
X124210000Y-146088000D01*
X121220000Y-154760000D02*
X121220000Y-153300000D01*
X124380000Y-154760000D02*
X123450000Y-154760000D01*
X124380000Y-154760000D02*
X124380000Y-152600000D01*
X121220000Y-154760000D02*
X122150000Y-154760000D01*
X78940000Y-141550000D02*
X78940000Y-139600000D01*
X84060000Y-141550000D02*
X84060000Y-143500000D01*
X78940000Y-141550000D02*
X78940000Y-143500000D01*
X84060000Y-141550000D02*
X84060000Y-138100000D01*
X146995000Y-141985000D02*
X146995000Y-155015000D01*
X140215000Y-140565000D02*
X139905000Y-140565000D01*
X147495000Y-156435000D02*
X141735000Y-156435000D01*
X146995000Y-155015000D02*
X147495000Y-155015000D01*
X139905000Y-156435000D02*
X140215000Y-156435000D01*
X147495000Y-140565000D02*
X147495000Y-141985000D01*
X141735000Y-140565000D02*
X147495000Y-140565000D01*
X147495000Y-155015000D02*
X147495000Y-156435000D01*
X139905000Y-140565000D02*
X139905000Y-156435000D01*
X147495000Y-141985000D02*
X146995000Y-141985000D01*
X128360000Y-147558578D02*
X128360000Y-147041422D01*
X126940000Y-147558578D02*
X126940000Y-147041422D01*
G36*
X101972368Y-147550563D02*
G01*
X102004607Y-147491624D01*
X102040746Y-147441826D01*
X102087259Y-147400400D01*
X102150617Y-147366578D01*
X102237294Y-147339591D01*
X102353763Y-147318671D01*
X102506495Y-147303050D01*
X102701965Y-147291960D01*
X102946645Y-147284632D01*
X103247008Y-147280297D01*
X103609526Y-147278188D01*
X104040673Y-147277537D01*
X104546921Y-147277574D01*
X104817100Y-147277611D01*
X107304844Y-147277611D01*
X107304844Y-148547611D01*
X103113844Y-148547611D01*
X103113844Y-149605944D01*
X106627510Y-149605944D01*
X106627510Y-150864436D01*
X106431102Y-150891357D01*
X106344000Y-150897549D01*
X106183199Y-150903238D01*
X105959665Y-150908258D01*
X105684367Y-150912440D01*
X105368270Y-150915615D01*
X105022342Y-150917617D01*
X104674268Y-150918278D01*
X103113844Y-150918278D01*
X103113844Y-151362778D01*
X103111352Y-151499958D01*
X103108364Y-151615201D01*
X103111610Y-151710403D01*
X103127818Y-151787458D01*
X103163718Y-151848260D01*
X103226040Y-151894704D01*
X103321513Y-151928686D01*
X103456867Y-151952099D01*
X103638831Y-151966839D01*
X103874135Y-151974799D01*
X104169508Y-151977876D01*
X104531680Y-151977963D01*
X104967380Y-151976955D01*
X105294010Y-151976611D01*
X107304844Y-151976611D01*
X107304844Y-153246611D01*
X105241094Y-153244334D01*
X104764003Y-153243583D01*
X104363751Y-153242294D01*
X104032512Y-153240198D01*
X103762458Y-153237028D01*
X103545762Y-153232515D01*
X103374598Y-153226391D01*
X103241138Y-153218387D01*
X103137556Y-153208236D01*
X103056024Y-153195669D01*
X102988715Y-153180417D01*
X102937583Y-153165380D01*
X102598635Y-153016727D01*
X102316999Y-152807072D01*
X102095674Y-152539139D01*
X101961826Y-152279171D01*
X101940039Y-152223545D01*
X101921756Y-152168733D01*
X101906620Y-152107027D01*
X101894276Y-152030720D01*
X101884367Y-151932102D01*
X101876539Y-151803467D01*
X101870434Y-151637106D01*
X101865698Y-151425310D01*
X101861973Y-151160372D01*
X101858904Y-150834584D01*
X101856136Y-150440238D01*
X101853312Y-149969626D01*
X101853044Y-149923444D01*
X101840769Y-147806778D01*
X101891551Y-147708470D01*
X102097844Y-147708470D01*
X102098773Y-149874291D01*
X102099095Y-150358996D01*
X102099792Y-150766487D01*
X102101138Y-151104218D01*
X102103410Y-151379642D01*
X102106880Y-151600212D01*
X102111824Y-151773381D01*
X102118517Y-151906603D01*
X102127233Y-152007330D01*
X102138247Y-152083016D01*
X102151833Y-152141113D01*
X102168267Y-152189075D01*
X102185569Y-152229407D01*
X102333239Y-152493585D01*
X102510743Y-152691241D01*
X102672304Y-152806084D01*
X102760153Y-152856562D01*
X102841988Y-152898795D01*
X102926024Y-152933530D01*
X103020477Y-152961515D01*
X103133563Y-152983497D01*
X103273496Y-153000224D01*
X103448494Y-153012442D01*
X103666770Y-153020901D01*
X103936541Y-153026347D01*
X104266022Y-153029528D01*
X104663429Y-153031191D01*
X105136977Y-153032084D01*
X105156427Y-153032112D01*
X107093177Y-153034944D01*
X107093177Y-152188278D01*
X103199846Y-152188278D01*
X102923344Y-151941432D01*
X102909710Y-151302855D01*
X102896077Y-150664278D01*
X106415844Y-150664278D01*
X106415844Y-149859944D01*
X102902177Y-149859944D01*
X102902177Y-148293611D01*
X107093177Y-148293611D01*
X107093177Y-147489278D01*
X104725758Y-147489277D01*
X102358340Y-147489277D01*
X102228092Y-147598874D01*
X102097844Y-147708470D01*
X101891551Y-147708470D01*
X101937556Y-147619410D01*
X101972368Y-147550563D01*
G37*
D18*
X101972368Y-147550563D02*
X102004607Y-147491624D01*
X102040746Y-147441826D01*
X102087259Y-147400400D01*
X102150617Y-147366578D01*
X102237294Y-147339591D01*
X102353763Y-147318671D01*
X102506495Y-147303050D01*
X102701965Y-147291960D01*
X102946645Y-147284632D01*
X103247008Y-147280297D01*
X103609526Y-147278188D01*
X104040673Y-147277537D01*
X104546921Y-147277574D01*
X104817100Y-147277611D01*
X107304844Y-147277611D01*
X107304844Y-148547611D01*
X103113844Y-148547611D01*
X103113844Y-149605944D01*
X106627510Y-149605944D01*
X106627510Y-150864436D01*
X106431102Y-150891357D01*
X106344000Y-150897549D01*
X106183199Y-150903238D01*
X105959665Y-150908258D01*
X105684367Y-150912440D01*
X105368270Y-150915615D01*
X105022342Y-150917617D01*
X104674268Y-150918278D01*
X103113844Y-150918278D01*
X103113844Y-151362778D01*
X103111352Y-151499958D01*
X103108364Y-151615201D01*
X103111610Y-151710403D01*
X103127818Y-151787458D01*
X103163718Y-151848260D01*
X103226040Y-151894704D01*
X103321513Y-151928686D01*
X103456867Y-151952099D01*
X103638831Y-151966839D01*
X103874135Y-151974799D01*
X104169508Y-151977876D01*
X104531680Y-151977963D01*
X104967380Y-151976955D01*
X105294010Y-151976611D01*
X107304844Y-151976611D01*
X107304844Y-153246611D01*
X105241094Y-153244334D01*
X104764003Y-153243583D01*
X104363751Y-153242294D01*
X104032512Y-153240198D01*
X103762458Y-153237028D01*
X103545762Y-153232515D01*
X103374598Y-153226391D01*
X103241138Y-153218387D01*
X103137556Y-153208236D01*
X103056024Y-153195669D01*
X102988715Y-153180417D01*
X102937583Y-153165380D01*
X102598635Y-153016727D01*
X102316999Y-152807072D01*
X102095674Y-152539139D01*
X101961826Y-152279171D01*
X101940039Y-152223545D01*
X101921756Y-152168733D01*
X101906620Y-152107027D01*
X101894276Y-152030720D01*
X101884367Y-151932102D01*
X101876539Y-151803467D01*
X101870434Y-151637106D01*
X101865698Y-151425310D01*
X101861973Y-151160372D01*
X101858904Y-150834584D01*
X101856136Y-150440238D01*
X101853312Y-149969626D01*
X101853044Y-149923444D01*
X101840769Y-147806778D01*
X101891551Y-147708470D01*
X102097844Y-147708470D01*
X102098773Y-149874291D01*
X102099095Y-150358996D01*
X102099792Y-150766487D01*
X102101138Y-151104218D01*
X102103410Y-151379642D01*
X102106880Y-151600212D01*
X102111824Y-151773381D01*
X102118517Y-151906603D01*
X102127233Y-152007330D01*
X102138247Y-152083016D01*
X102151833Y-152141113D01*
X102168267Y-152189075D01*
X102185569Y-152229407D01*
X102333239Y-152493585D01*
X102510743Y-152691241D01*
X102672304Y-152806084D01*
X102760153Y-152856562D01*
X102841988Y-152898795D01*
X102926024Y-152933530D01*
X103020477Y-152961515D01*
X103133563Y-152983497D01*
X103273496Y-153000224D01*
X103448494Y-153012442D01*
X103666770Y-153020901D01*
X103936541Y-153026347D01*
X104266022Y-153029528D01*
X104663429Y-153031191D01*
X105136977Y-153032084D01*
X105156427Y-153032112D01*
X107093177Y-153034944D01*
X107093177Y-152188278D01*
X103199846Y-152188278D01*
X102923344Y-151941432D01*
X102909710Y-151302855D01*
X102896077Y-150664278D01*
X106415844Y-150664278D01*
X106415844Y-149859944D01*
X102902177Y-149859944D01*
X102902177Y-148293611D01*
X107093177Y-148293611D01*
X107093177Y-147489278D01*
X104725758Y-147489277D01*
X102358340Y-147489277D01*
X102228092Y-147598874D01*
X102097844Y-147708470D01*
X101891551Y-147708470D01*
X101937556Y-147619410D01*
X101972368Y-147550563D01*
G36*
X92192080Y-150061028D02*
G01*
X92193829Y-150459643D01*
X92198771Y-150804131D01*
X92206687Y-151087787D01*
X92217357Y-151303906D01*
X92230562Y-151445784D01*
X92238835Y-151489778D01*
X92330085Y-151679626D01*
X92483239Y-151851667D01*
X92675578Y-151985402D01*
X92867501Y-152056963D01*
X92976217Y-152071133D01*
X93153261Y-152083549D01*
X93382299Y-152093534D01*
X93647001Y-152100412D01*
X93931032Y-152103505D01*
X93993094Y-152103611D01*
X94901177Y-152103611D01*
X94901177Y-148801611D01*
X95959510Y-148801611D01*
X95959510Y-150806735D01*
X95959444Y-151270386D01*
X95959028Y-151656889D01*
X95957938Y-151973765D01*
X95955848Y-152228533D01*
X95952432Y-152428713D01*
X95947367Y-152581824D01*
X95940325Y-152695387D01*
X95930983Y-152776920D01*
X95919015Y-152833943D01*
X95904095Y-152873977D01*
X95885899Y-152904540D01*
X95867736Y-152928532D01*
X95815137Y-152990695D01*
X95759140Y-153040726D01*
X95690436Y-153079896D01*
X95599714Y-153109478D01*
X95477663Y-153130743D01*
X95314975Y-153144964D01*
X95102339Y-153153414D01*
X94830444Y-153157363D01*
X94489982Y-153158084D01*
X94193453Y-153157306D01*
X93861023Y-153155028D01*
X93548699Y-153150819D01*
X93268544Y-153145002D01*
X93032617Y-153137898D01*
X92852980Y-153129830D01*
X92741696Y-153121120D01*
X92721010Y-153117956D01*
X92315375Y-152996863D01*
X91962337Y-152812748D01*
X91666041Y-152569570D01*
X91430631Y-152271291D01*
X91260252Y-151921872D01*
X91181358Y-151646444D01*
X91166585Y-151530692D01*
X91154251Y-151337489D01*
X91144581Y-151074024D01*
X91137798Y-150747483D01*
X91134126Y-150365055D01*
X91133510Y-150111860D01*
X91133510Y-148801611D01*
X92191844Y-148801611D01*
X92192080Y-150061028D01*
G37*
X92192080Y-150061028D02*
X92193829Y-150459643D01*
X92198771Y-150804131D01*
X92206687Y-151087787D01*
X92217357Y-151303906D01*
X92230562Y-151445784D01*
X92238835Y-151489778D01*
X92330085Y-151679626D01*
X92483239Y-151851667D01*
X92675578Y-151985402D01*
X92867501Y-152056963D01*
X92976217Y-152071133D01*
X93153261Y-152083549D01*
X93382299Y-152093534D01*
X93647001Y-152100412D01*
X93931032Y-152103505D01*
X93993094Y-152103611D01*
X94901177Y-152103611D01*
X94901177Y-148801611D01*
X95959510Y-148801611D01*
X95959510Y-150806735D01*
X95959444Y-151270386D01*
X95959028Y-151656889D01*
X95957938Y-151973765D01*
X95955848Y-152228533D01*
X95952432Y-152428713D01*
X95947367Y-152581824D01*
X95940325Y-152695387D01*
X95930983Y-152776920D01*
X95919015Y-152833943D01*
X95904095Y-152873977D01*
X95885899Y-152904540D01*
X95867736Y-152928532D01*
X95815137Y-152990695D01*
X95759140Y-153040726D01*
X95690436Y-153079896D01*
X95599714Y-153109478D01*
X95477663Y-153130743D01*
X95314975Y-153144964D01*
X95102339Y-153153414D01*
X94830444Y-153157363D01*
X94489982Y-153158084D01*
X94193453Y-153157306D01*
X93861023Y-153155028D01*
X93548699Y-153150819D01*
X93268544Y-153145002D01*
X93032617Y-153137898D01*
X92852980Y-153129830D01*
X92741696Y-153121120D01*
X92721010Y-153117956D01*
X92315375Y-152996863D01*
X91962337Y-152812748D01*
X91666041Y-152569570D01*
X91430631Y-152271291D01*
X91260252Y-151921872D01*
X91181358Y-151646444D01*
X91166585Y-151530692D01*
X91154251Y-151337489D01*
X91144581Y-151074024D01*
X91137798Y-150747483D01*
X91134126Y-150365055D01*
X91133510Y-150111860D01*
X91133510Y-148801611D01*
X92191844Y-148801611D01*
X92192080Y-150061028D01*
G36*
X100649230Y-149320194D02*
G01*
X100637344Y-149838778D01*
X99261510Y-149859944D01*
X97885677Y-149881111D01*
X97885677Y-150177444D01*
X98986344Y-150198611D01*
X99319962Y-150205206D01*
X99580600Y-150211410D01*
X99779928Y-150218425D01*
X99929619Y-150227458D01*
X100041344Y-150239710D01*
X100126773Y-150256386D01*
X100197579Y-150278691D01*
X100265432Y-150307827D01*
X100325116Y-150336709D01*
X100593306Y-150510982D01*
X100824167Y-150744137D01*
X100997632Y-151014440D01*
X101039959Y-151110919D01*
X101118470Y-151409207D01*
X101142255Y-151735283D01*
X101110571Y-152054370D01*
X101063873Y-152230193D01*
X100946597Y-152461051D01*
X100766103Y-152683444D01*
X100542968Y-152876790D01*
X100297768Y-153020507D01*
X100256031Y-153038257D01*
X100188490Y-153064540D01*
X100123848Y-153085944D01*
X100052772Y-153103056D01*
X99965933Y-153116461D01*
X99853998Y-153126748D01*
X99707636Y-153134502D01*
X99517517Y-153140310D01*
X99274308Y-153144758D01*
X98968680Y-153148434D01*
X98591300Y-153151923D01*
X98425427Y-153153337D01*
X96848510Y-153166668D01*
X96848510Y-152103611D01*
X98281526Y-152103611D01*
X98754015Y-152102088D01*
X99142420Y-152097510D01*
X99447270Y-152089859D01*
X99669092Y-152079120D01*
X99808415Y-152065276D01*
X99852413Y-152055549D01*
X99988092Y-151967582D01*
X100067282Y-151826970D01*
X100083284Y-151649548D01*
X100065503Y-151552012D01*
X100038378Y-151466016D01*
X100002199Y-151398545D01*
X99947205Y-151347361D01*
X99863633Y-151310227D01*
X99741723Y-151284905D01*
X99571713Y-151269156D01*
X99343841Y-151260744D01*
X99048347Y-151257430D01*
X98778367Y-151256944D01*
X98406469Y-151255091D01*
X98107622Y-151247874D01*
X97870258Y-151232804D01*
X97682810Y-151207394D01*
X97533711Y-151169157D01*
X97411393Y-151115605D01*
X97304290Y-151044250D01*
X97200833Y-150952604D01*
X97156308Y-150908099D01*
X96976956Y-150688914D01*
X96866171Y-150458819D01*
X96814356Y-150193634D01*
X96807520Y-150029278D01*
X96835951Y-149718488D01*
X96926844Y-149455935D01*
X97086937Y-149226110D01*
X97208423Y-149106718D01*
X97298921Y-149030119D01*
X97385684Y-148967518D01*
X97478129Y-148917507D01*
X97585675Y-148878678D01*
X97717740Y-148849624D01*
X97883744Y-148828936D01*
X98093105Y-148815205D01*
X98355240Y-148807025D01*
X98679570Y-148802987D01*
X99075512Y-148801683D01*
X99249330Y-148801611D01*
X100661116Y-148801611D01*
X100649230Y-149320194D01*
G37*
X100649230Y-149320194D02*
X100637344Y-149838778D01*
X99261510Y-149859944D01*
X97885677Y-149881111D01*
X97885677Y-150177444D01*
X98986344Y-150198611D01*
X99319962Y-150205206D01*
X99580600Y-150211410D01*
X99779928Y-150218425D01*
X99929619Y-150227458D01*
X100041344Y-150239710D01*
X100126773Y-150256386D01*
X100197579Y-150278691D01*
X100265432Y-150307827D01*
X100325116Y-150336709D01*
X100593306Y-150510982D01*
X100824167Y-150744137D01*
X100997632Y-151014440D01*
X101039959Y-151110919D01*
X101118470Y-151409207D01*
X101142255Y-151735283D01*
X101110571Y-152054370D01*
X101063873Y-152230193D01*
X100946597Y-152461051D01*
X100766103Y-152683444D01*
X100542968Y-152876790D01*
X100297768Y-153020507D01*
X100256031Y-153038257D01*
X100188490Y-153064540D01*
X100123848Y-153085944D01*
X100052772Y-153103056D01*
X99965933Y-153116461D01*
X99853998Y-153126748D01*
X99707636Y-153134502D01*
X99517517Y-153140310D01*
X99274308Y-153144758D01*
X98968680Y-153148434D01*
X98591300Y-153151923D01*
X98425427Y-153153337D01*
X96848510Y-153166668D01*
X96848510Y-152103611D01*
X98281526Y-152103611D01*
X98754015Y-152102088D01*
X99142420Y-152097510D01*
X99447270Y-152089859D01*
X99669092Y-152079120D01*
X99808415Y-152065276D01*
X99852413Y-152055549D01*
X99988092Y-151967582D01*
X100067282Y-151826970D01*
X100083284Y-151649548D01*
X100065503Y-151552012D01*
X100038378Y-151466016D01*
X100002199Y-151398545D01*
X99947205Y-151347361D01*
X99863633Y-151310227D01*
X99741723Y-151284905D01*
X99571713Y-151269156D01*
X99343841Y-151260744D01*
X99048347Y-151257430D01*
X98778367Y-151256944D01*
X98406469Y-151255091D01*
X98107622Y-151247874D01*
X97870258Y-151232804D01*
X97682810Y-151207394D01*
X97533711Y-151169157D01*
X97411393Y-151115605D01*
X97304290Y-151044250D01*
X97200833Y-150952604D01*
X97156308Y-150908099D01*
X96976956Y-150688914D01*
X96866171Y-150458819D01*
X96814356Y-150193634D01*
X96807520Y-150029278D01*
X96835951Y-149718488D01*
X96926844Y-149455935D01*
X97086937Y-149226110D01*
X97208423Y-149106718D01*
X97298921Y-149030119D01*
X97385684Y-148967518D01*
X97478129Y-148917507D01*
X97585675Y-148878678D01*
X97717740Y-148849624D01*
X97883744Y-148828936D01*
X98093105Y-148815205D01*
X98355240Y-148807025D01*
X98679570Y-148802987D01*
X99075512Y-148801683D01*
X99249330Y-148801611D01*
X100661116Y-148801611D01*
X100649230Y-149320194D01*
G36*
X108109437Y-149932619D02*
G01*
X108109800Y-149459184D01*
X108110607Y-149057696D01*
X108112044Y-148721797D01*
X108114295Y-148445126D01*
X108117545Y-148221324D01*
X108121980Y-148044031D01*
X108127783Y-147906889D01*
X108135140Y-147803537D01*
X108144235Y-147727615D01*
X108155254Y-147672766D01*
X108168381Y-147632627D01*
X108183800Y-147600842D01*
X108193615Y-147584141D01*
X108291096Y-147464456D01*
X108411034Y-147364946D01*
X108415707Y-147362049D01*
X108447023Y-147344482D01*
X108483272Y-147329546D01*
X108531160Y-147317026D01*
X108597393Y-147306709D01*
X108688675Y-147298381D01*
X108811713Y-147291829D01*
X108973212Y-147286840D01*
X109179877Y-147283201D01*
X109438414Y-147280696D01*
X109755530Y-147279114D01*
X110137928Y-147278241D01*
X110592316Y-147277862D01*
X111063059Y-147277769D01*
X113572440Y-147277611D01*
X113560725Y-147902028D01*
X113549010Y-148526444D01*
X111464094Y-148537426D01*
X109379177Y-148548409D01*
X109379177Y-149605005D01*
X112871677Y-149627111D01*
X112883392Y-150251528D01*
X112895107Y-150875944D01*
X109379177Y-150875944D01*
X109379177Y-153246611D01*
X108109177Y-153246611D01*
X108109189Y-153034944D01*
X108318991Y-153034944D01*
X109123838Y-153034944D01*
X109146344Y-150685444D01*
X112638844Y-150663338D01*
X112638844Y-149860883D01*
X110892594Y-149849830D01*
X109146344Y-149838778D01*
X109146344Y-148314778D01*
X111231260Y-148303795D01*
X113316177Y-148292813D01*
X113316177Y-147489278D01*
X108579565Y-147489278D01*
X108460787Y-147591429D01*
X108342010Y-147693581D01*
X108330501Y-150364263D01*
X108318991Y-153034944D01*
X108109189Y-153034944D01*
X108109335Y-150484361D01*
X108109437Y-149932619D01*
G37*
X108109437Y-149932619D02*
X108109800Y-149459184D01*
X108110607Y-149057696D01*
X108112044Y-148721797D01*
X108114295Y-148445126D01*
X108117545Y-148221324D01*
X108121980Y-148044031D01*
X108127783Y-147906889D01*
X108135140Y-147803537D01*
X108144235Y-147727615D01*
X108155254Y-147672766D01*
X108168381Y-147632627D01*
X108183800Y-147600842D01*
X108193615Y-147584141D01*
X108291096Y-147464456D01*
X108411034Y-147364946D01*
X108415707Y-147362049D01*
X108447023Y-147344482D01*
X108483272Y-147329546D01*
X108531160Y-147317026D01*
X108597393Y-147306709D01*
X108688675Y-147298381D01*
X108811713Y-147291829D01*
X108973212Y-147286840D01*
X109179877Y-147283201D01*
X109438414Y-147280696D01*
X109755530Y-147279114D01*
X110137928Y-147278241D01*
X110592316Y-147277862D01*
X111063059Y-147277769D01*
X113572440Y-147277611D01*
X113560725Y-147902028D01*
X113549010Y-148526444D01*
X111464094Y-148537426D01*
X109379177Y-148548409D01*
X109379177Y-149605005D01*
X112871677Y-149627111D01*
X112883392Y-150251528D01*
X112895107Y-150875944D01*
X109379177Y-150875944D01*
X109379177Y-153246611D01*
X108109177Y-153246611D01*
X108109189Y-153034944D01*
X108318991Y-153034944D01*
X109123838Y-153034944D01*
X109146344Y-150685444D01*
X112638844Y-150663338D01*
X112638844Y-149860883D01*
X110892594Y-149849830D01*
X109146344Y-149838778D01*
X109146344Y-148314778D01*
X111231260Y-148303795D01*
X113316177Y-148292813D01*
X113316177Y-147489278D01*
X108579565Y-147489278D01*
X108460787Y-147591429D01*
X108342010Y-147693581D01*
X108330501Y-150364263D01*
X108318991Y-153034944D01*
X108109189Y-153034944D01*
X108109335Y-150484361D01*
X108109437Y-149932619D01*
G36*
X115475177Y-147277611D02*
G01*
X115475177Y-153246611D01*
X114205177Y-153246611D01*
X114205177Y-153034944D01*
X114416844Y-153034944D01*
X115221177Y-153034944D01*
X115221177Y-147489278D01*
X114416844Y-147489278D01*
X114416844Y-153034944D01*
X114205177Y-153034944D01*
X114205177Y-147277611D01*
X115475177Y-147277611D01*
G37*
X115475177Y-147277611D02*
X115475177Y-153246611D01*
X114205177Y-153246611D01*
X114205177Y-153034944D01*
X114416844Y-153034944D01*
X115221177Y-153034944D01*
X115221177Y-147489278D01*
X114416844Y-147489278D01*
X114416844Y-153034944D01*
X114205177Y-153034944D01*
X114205177Y-147277611D01*
X115475177Y-147277611D01*
G36*
X87682455Y-148726370D02*
G01*
X87722410Y-148605786D01*
X87767346Y-148506587D01*
X87828978Y-148379235D01*
X87854481Y-148296287D01*
X87847496Y-148227405D01*
X87811665Y-148142249D01*
X87811193Y-148141255D01*
X87760849Y-148051937D01*
X87701290Y-148009975D01*
X87600519Y-147997774D01*
X87549377Y-147997278D01*
X87426022Y-147989021D01*
X87332537Y-147953454D01*
X87234110Y-147874385D01*
X87187620Y-147829015D01*
X87096261Y-147733372D01*
X87047232Y-147657695D01*
X87029211Y-147569968D01*
X87030878Y-147438175D01*
X87033166Y-147392226D01*
X87037621Y-147241362D01*
X87024408Y-147140717D01*
X86982568Y-147056112D01*
X86901141Y-146953366D01*
X86887222Y-146937064D01*
X86779785Y-146783073D01*
X86739512Y-146663951D01*
X86757185Y-146588962D01*
X86823584Y-146567365D01*
X86929492Y-146608424D01*
X87065689Y-146721400D01*
X87083393Y-146739974D01*
X87186047Y-146844324D01*
X87255598Y-146894186D01*
X87312609Y-146900561D01*
X87355260Y-146885411D01*
X87408337Y-146850753D01*
X87437141Y-146794024D01*
X87448776Y-146692284D01*
X87450510Y-146577825D01*
X87464195Y-146385925D01*
X87506197Y-146271744D01*
X87577938Y-146232723D01*
X87635644Y-146244243D01*
X87675372Y-146279705D01*
X87696860Y-146359582D01*
X87704327Y-146501962D01*
X87704510Y-146539321D01*
X87706576Y-146686086D01*
X87719978Y-146772802D01*
X87755523Y-146824082D01*
X87824021Y-146864542D01*
X87853511Y-146878677D01*
X88030546Y-147004710D01*
X88145707Y-147178090D01*
X88188158Y-147379202D01*
X88198584Y-147493264D01*
X88238798Y-147566665D01*
X88330232Y-147633600D01*
X88357889Y-147650001D01*
X88461576Y-147706943D01*
X88518061Y-147721495D01*
X88551766Y-147696417D01*
X88565693Y-147673502D01*
X88704482Y-147504772D01*
X88907980Y-147364146D01*
X89158207Y-147261538D01*
X89406086Y-147210171D01*
X89659723Y-147209811D01*
X89884259Y-147266252D01*
X90065009Y-147372946D01*
X90187289Y-147523343D01*
X90207189Y-147567486D01*
X90224578Y-147722965D01*
X90173410Y-147893291D01*
X90063785Y-148061978D01*
X89905804Y-148212543D01*
X89753683Y-148307718D01*
X89622689Y-148373637D01*
X89690183Y-148587057D01*
X89757677Y-148800478D01*
X90149260Y-148801045D01*
X90540844Y-148801611D01*
X90540844Y-149859944D01*
X89274306Y-149859944D01*
X88952543Y-149860797D01*
X88656309Y-149863211D01*
X88396727Y-149866965D01*
X88184918Y-149871842D01*
X88032004Y-149877621D01*
X87949109Y-149884085D01*
X87939240Y-149886241D01*
X87891038Y-149909448D01*
X87851597Y-149943841D01*
X87820045Y-149997443D01*
X87795511Y-150078277D01*
X87777122Y-150194366D01*
X87764008Y-150353736D01*
X87755295Y-150564408D01*
X87750113Y-150834407D01*
X87747590Y-151171756D01*
X87746854Y-151584478D01*
X87746844Y-151657009D01*
X87746844Y-153161944D01*
X86684824Y-153161944D01*
X86697250Y-151500361D01*
X86700575Y-151080007D01*
X86703971Y-150735567D01*
X86707918Y-150458290D01*
X86712894Y-150239425D01*
X86719378Y-150070220D01*
X86727852Y-149941924D01*
X86738793Y-149845786D01*
X86752681Y-149773054D01*
X86769995Y-149714978D01*
X86791215Y-149662804D01*
X86798816Y-149646127D01*
X86934023Y-149417904D01*
X87111586Y-149210360D01*
X87312219Y-149041534D01*
X87516639Y-148929466D01*
X87590314Y-148905760D01*
X87667878Y-148865160D01*
X87673851Y-148813634D01*
X87908658Y-148813634D01*
X88090745Y-148784517D01*
X88205571Y-148763137D01*
X88279025Y-148743801D01*
X88289969Y-148738264D01*
X88304659Y-148689481D01*
X88321674Y-148586499D01*
X88325625Y-148554666D01*
X88593510Y-148554666D01*
X88596620Y-148677308D01*
X88614951Y-148737492D01*
X88662007Y-148757410D01*
X88718012Y-148759278D01*
X88812633Y-148749618D01*
X88860277Y-148727528D01*
X88867166Y-148667946D01*
X88861113Y-148562523D01*
X88858721Y-148541976D01*
X88842667Y-148488448D01*
X89123812Y-148488448D01*
X89129598Y-148601692D01*
X89132522Y-148621694D01*
X89153623Y-148711004D01*
X89198625Y-148749956D01*
X89295467Y-148759181D01*
X89318842Y-148759278D01*
X89484231Y-148759278D01*
X89397844Y-148589944D01*
X89316043Y-148467840D01*
X89236182Y-148420876D01*
X89230148Y-148420611D01*
X89154260Y-148434409D01*
X89123812Y-148488448D01*
X88842667Y-148488448D01*
X88819687Y-148411834D01*
X88741847Y-148343724D01*
X88662862Y-148317637D01*
X88617876Y-148338223D01*
X88597798Y-148418408D01*
X88593510Y-148554666D01*
X88325625Y-148554666D01*
X88328258Y-148533459D01*
X88338523Y-148418440D01*
X88327236Y-148367206D01*
X88283234Y-148359515D01*
X88236648Y-148367348D01*
X88150755Y-148407301D01*
X88071607Y-148502154D01*
X88016271Y-148601269D01*
X87908658Y-148813634D01*
X87673851Y-148813634D01*
X87674999Y-148803736D01*
X87682455Y-148726370D01*
G37*
X87682455Y-148726370D02*
X87722410Y-148605786D01*
X87767346Y-148506587D01*
X87828978Y-148379235D01*
X87854481Y-148296287D01*
X87847496Y-148227405D01*
X87811665Y-148142249D01*
X87811193Y-148141255D01*
X87760849Y-148051937D01*
X87701290Y-148009975D01*
X87600519Y-147997774D01*
X87549377Y-147997278D01*
X87426022Y-147989021D01*
X87332537Y-147953454D01*
X87234110Y-147874385D01*
X87187620Y-147829015D01*
X87096261Y-147733372D01*
X87047232Y-147657695D01*
X87029211Y-147569968D01*
X87030878Y-147438175D01*
X87033166Y-147392226D01*
X87037621Y-147241362D01*
X87024408Y-147140717D01*
X86982568Y-147056112D01*
X86901141Y-146953366D01*
X86887222Y-146937064D01*
X86779785Y-146783073D01*
X86739512Y-146663951D01*
X86757185Y-146588962D01*
X86823584Y-146567365D01*
X86929492Y-146608424D01*
X87065689Y-146721400D01*
X87083393Y-146739974D01*
X87186047Y-146844324D01*
X87255598Y-146894186D01*
X87312609Y-146900561D01*
X87355260Y-146885411D01*
X87408337Y-146850753D01*
X87437141Y-146794024D01*
X87448776Y-146692284D01*
X87450510Y-146577825D01*
X87464195Y-146385925D01*
X87506197Y-146271744D01*
X87577938Y-146232723D01*
X87635644Y-146244243D01*
X87675372Y-146279705D01*
X87696860Y-146359582D01*
X87704327Y-146501962D01*
X87704510Y-146539321D01*
X87706576Y-146686086D01*
X87719978Y-146772802D01*
X87755523Y-146824082D01*
X87824021Y-146864542D01*
X87853511Y-146878677D01*
X88030546Y-147004710D01*
X88145707Y-147178090D01*
X88188158Y-147379202D01*
X88198584Y-147493264D01*
X88238798Y-147566665D01*
X88330232Y-147633600D01*
X88357889Y-147650001D01*
X88461576Y-147706943D01*
X88518061Y-147721495D01*
X88551766Y-147696417D01*
X88565693Y-147673502D01*
X88704482Y-147504772D01*
X88907980Y-147364146D01*
X89158207Y-147261538D01*
X89406086Y-147210171D01*
X89659723Y-147209811D01*
X89884259Y-147266252D01*
X90065009Y-147372946D01*
X90187289Y-147523343D01*
X90207189Y-147567486D01*
X90224578Y-147722965D01*
X90173410Y-147893291D01*
X90063785Y-148061978D01*
X89905804Y-148212543D01*
X89753683Y-148307718D01*
X89622689Y-148373637D01*
X89690183Y-148587057D01*
X89757677Y-148800478D01*
X90149260Y-148801045D01*
X90540844Y-148801611D01*
X90540844Y-149859944D01*
X89274306Y-149859944D01*
X88952543Y-149860797D01*
X88656309Y-149863211D01*
X88396727Y-149866965D01*
X88184918Y-149871842D01*
X88032004Y-149877621D01*
X87949109Y-149884085D01*
X87939240Y-149886241D01*
X87891038Y-149909448D01*
X87851597Y-149943841D01*
X87820045Y-149997443D01*
X87795511Y-150078277D01*
X87777122Y-150194366D01*
X87764008Y-150353736D01*
X87755295Y-150564408D01*
X87750113Y-150834407D01*
X87747590Y-151171756D01*
X87746854Y-151584478D01*
X87746844Y-151657009D01*
X87746844Y-153161944D01*
X86684824Y-153161944D01*
X86697250Y-151500361D01*
X86700575Y-151080007D01*
X86703971Y-150735567D01*
X86707918Y-150458290D01*
X86712894Y-150239425D01*
X86719378Y-150070220D01*
X86727852Y-149941924D01*
X86738793Y-149845786D01*
X86752681Y-149773054D01*
X86769995Y-149714978D01*
X86791215Y-149662804D01*
X86798816Y-149646127D01*
X86934023Y-149417904D01*
X87111586Y-149210360D01*
X87312219Y-149041534D01*
X87516639Y-148929466D01*
X87590314Y-148905760D01*
X87667878Y-148865160D01*
X87673851Y-148813634D01*
X87908658Y-148813634D01*
X88090745Y-148784517D01*
X88205571Y-148763137D01*
X88279025Y-148743801D01*
X88289969Y-148738264D01*
X88304659Y-148689481D01*
X88321674Y-148586499D01*
X88325625Y-148554666D01*
X88593510Y-148554666D01*
X88596620Y-148677308D01*
X88614951Y-148737492D01*
X88662007Y-148757410D01*
X88718012Y-148759278D01*
X88812633Y-148749618D01*
X88860277Y-148727528D01*
X88867166Y-148667946D01*
X88861113Y-148562523D01*
X88858721Y-148541976D01*
X88842667Y-148488448D01*
X89123812Y-148488448D01*
X89129598Y-148601692D01*
X89132522Y-148621694D01*
X89153623Y-148711004D01*
X89198625Y-148749956D01*
X89295467Y-148759181D01*
X89318842Y-148759278D01*
X89484231Y-148759278D01*
X89397844Y-148589944D01*
X89316043Y-148467840D01*
X89236182Y-148420876D01*
X89230148Y-148420611D01*
X89154260Y-148434409D01*
X89123812Y-148488448D01*
X88842667Y-148488448D01*
X88819687Y-148411834D01*
X88741847Y-148343724D01*
X88662862Y-148317637D01*
X88617876Y-148338223D01*
X88597798Y-148418408D01*
X88593510Y-148554666D01*
X88325625Y-148554666D01*
X88328258Y-148533459D01*
X88338523Y-148418440D01*
X88327236Y-148367206D01*
X88283234Y-148359515D01*
X88236648Y-148367348D01*
X88150755Y-148407301D01*
X88071607Y-148502154D01*
X88016271Y-148601269D01*
X87908658Y-148813634D01*
X87673851Y-148813634D01*
X87674999Y-148803736D01*
X87682455Y-148726370D01*
D17*
X91710000Y-170037221D02*
X91710000Y-170362779D01*
X90690000Y-170037221D02*
X90690000Y-170362779D01*
X95000000Y-170457500D02*
X95000000Y-171457500D01*
X95500000Y-171257500D02*
X95000000Y-171357500D01*
X99600000Y-170657500D02*
X98300000Y-170757500D01*
X101400000Y-170657500D02*
X99600000Y-170657500D01*
X106000000Y-170457500D02*
X106000000Y-171457500D01*
X107410000Y-159237500D02*
X107410000Y-156537500D01*
X105200000Y-171157500D02*
X103500000Y-170857500D01*
X98300000Y-170757500D02*
X96800000Y-170957500D01*
X103500000Y-170857500D02*
X102700000Y-170757500D01*
X93590000Y-159237500D02*
X93590000Y-156537500D01*
X107410000Y-167537500D02*
X107410000Y-161757500D01*
X107410000Y-170457500D02*
X107410000Y-170057500D01*
X102700000Y-170757500D02*
X101400000Y-170657500D01*
X93590000Y-170457500D02*
X93590000Y-170057500D01*
X107410000Y-170457500D02*
X93590000Y-170457500D01*
X106000000Y-171357500D02*
X105200000Y-171157500D01*
X93590000Y-167537500D02*
X93590000Y-161757500D01*
X96800000Y-170957500D02*
X95500000Y-171257500D01*
X105500000Y-171957500D02*
X95500000Y-171957500D01*
X93590000Y-156537500D02*
X107410000Y-156537500D01*
X105500000Y-171957500D02*
G75*
G03*
X106000000Y-171457500I-1J500001D01*
G01*
X95000000Y-171457500D02*
G75*
G03*
X95500000Y-171957500I500000J0D01*
G01*
D19*
X108268000Y-169343000D02*
X105736900Y-169343000D01*
X93282000Y-154357000D02*
X106871000Y-154357000D01*
X105728000Y-169343000D02*
X101283000Y-168327000D01*
X93282000Y-168327000D02*
X101334100Y-168327000D01*
X108268000Y-155500000D02*
X108268000Y-169343000D01*
X106871000Y-155500000D02*
X108268000Y-155500000D01*
X106871000Y-154357000D02*
X106871000Y-155500000D01*
X93282000Y-154357000D02*
X93282000Y-168327000D01*
D17*
X138290000Y-158162221D02*
X138290000Y-158487779D01*
X139310000Y-158162221D02*
X139310000Y-158487779D01*
X77440000Y-143912779D02*
X77440000Y-143587221D01*
X78460000Y-143912779D02*
X78460000Y-143587221D01*
D20*
X35249380Y-140549540D02*
X20550400Y-140549540D01*
X20550400Y-140549540D02*
X20550400Y-125050460D01*
X35249380Y-125050460D02*
X35249380Y-140549540D01*
X20550400Y-125050460D02*
X35249380Y-125050460D01*
X20601200Y-140549540D02*
X14449320Y-140549540D01*
X29651220Y-140549540D02*
X29651220Y-125050460D01*
X31248880Y-125050460D02*
X31248880Y-140549540D01*
X14449320Y-125050460D02*
X20550400Y-125050460D01*
X14449320Y-135550820D02*
X20550400Y-135550820D01*
X14449320Y-140549540D02*
X14449320Y-135550820D01*
X14449320Y-130000920D02*
X14449320Y-125050460D01*
X20550400Y-130049180D02*
X14449320Y-130000920D01*
D17*
X134300000Y-155940000D02*
X136250000Y-155940000D01*
X134300000Y-155940000D02*
X132350000Y-155940000D01*
X134300000Y-161060000D02*
X137750000Y-161060000D01*
X134300000Y-161060000D02*
X132350000Y-161060000D01*
X144170000Y-128200000D02*
X144170000Y-126870000D01*
X144170000Y-126870000D02*
X145500000Y-126870000D01*
X144170000Y-129470000D02*
X144170000Y-129530000D01*
X146830000Y-129470000D02*
X146830000Y-129530000D01*
X144170000Y-129470000D02*
X146830000Y-129470000D01*
X144170000Y-129530000D02*
X146830000Y-129530000D01*
X105840000Y-132890000D02*
X105390000Y-132890000D01*
X112160000Y-140110000D02*
X112610000Y-140110000D01*
X105390000Y-132890000D02*
X105390000Y-133340000D01*
X112610000Y-132890000D02*
X112610000Y-133340000D01*
X112610000Y-140110000D02*
X112610000Y-139660000D01*
X112160000Y-132890000D02*
X112610000Y-132890000D01*
X105840000Y-140110000D02*
X105390000Y-140110000D01*
X105390000Y-140110000D02*
X105390000Y-139660000D01*
X112610000Y-139660000D02*
X113900000Y-139660000D01*
X78460000Y-139512779D02*
X78460000Y-139187221D01*
X77440000Y-139512779D02*
X77440000Y-139187221D01*
X85310000Y-137330000D02*
X85310000Y-134670000D01*
X80170000Y-137330000D02*
X80170000Y-134670000D01*
X80170000Y-134670000D02*
X85310000Y-134670000D01*
X80170000Y-137330000D02*
X85310000Y-137330000D01*
X77570000Y-137330000D02*
X77570000Y-136000000D01*
X78900000Y-137330000D02*
X77570000Y-137330000D01*
X122700000Y-144740000D02*
X119250000Y-144740000D01*
X122700000Y-144740000D02*
X124650000Y-144740000D01*
X122700000Y-149860000D02*
X120750000Y-149860000D01*
X122700000Y-149860000D02*
X124650000Y-149860000D01*
X117540000Y-148700279D02*
X117540000Y-148374721D01*
X118560000Y-148700279D02*
X118560000Y-148374721D01*
X148265000Y-133490131D02*
X148265000Y-135084869D01*
X152685000Y-133490131D02*
X152685000Y-135084869D01*
X138035000Y-154450000D02*
X138035000Y-152165000D01*
X136565000Y-152165000D02*
X136565000Y-154450000D01*
X138035000Y-152165000D02*
X136565000Y-152165000D01*
X127610000Y-153637221D02*
X127610000Y-153962779D01*
X126590000Y-153637221D02*
X126590000Y-153962779D01*
X136260000Y-153812779D02*
X136260000Y-153487221D01*
X135240000Y-153812779D02*
X135240000Y-153487221D01*
X151000000Y-129740000D02*
X151000000Y-130510000D01*
X149630000Y-137050000D02*
X152370000Y-137050000D01*
X152370000Y-137050000D02*
X152370000Y-130510000D01*
X152370000Y-130510000D02*
X149630000Y-130510000D01*
X149630000Y-130510000D02*
X149630000Y-137050000D01*
X151000000Y-137820000D02*
X151000000Y-137050000D01*
X100272500Y-138182742D02*
X100272500Y-138657258D01*
X99227500Y-138182742D02*
X99227500Y-138657258D01*
X117090580Y-139840000D02*
X116809420Y-139840000D01*
X117090580Y-140860000D02*
X116809420Y-140860000D01*
X90522500Y-135937258D02*
X90522500Y-135462742D01*
X89477500Y-135937258D02*
X89477500Y-135462742D01*
X82600000Y-148550000D02*
X82600000Y-146750000D01*
X78300000Y-146750000D02*
X78300000Y-148550000D01*
X78300000Y-146750000D02*
X82600000Y-146750000D01*
X82600000Y-148550000D02*
X78300000Y-148550000D01*
X69509420Y-133860000D02*
X69790580Y-133860000D01*
X69509420Y-132840000D02*
X69790580Y-132840000D01*
X89680000Y-133485000D02*
X83920000Y-133485000D01*
X83920000Y-132065000D02*
X84420000Y-132065000D01*
X83920000Y-126615000D02*
X89680000Y-126615000D01*
X83920000Y-128035000D02*
X83920000Y-126615000D01*
X91200000Y-133485000D02*
X91510000Y-133485000D01*
X84420000Y-132065000D02*
X84420000Y-128035000D01*
X84420000Y-128035000D02*
X83920000Y-128035000D01*
X83920000Y-133485000D02*
X83920000Y-132065000D01*
X91510000Y-126615000D02*
X91200000Y-126615000D01*
X91510000Y-133485000D02*
X91510000Y-126615000D01*
X97772500Y-132687258D02*
X97772500Y-132212742D01*
X96727500Y-132687258D02*
X96727500Y-132212742D01*
X87727500Y-135462742D02*
X87727500Y-135937258D01*
X88772500Y-135462742D02*
X88772500Y-135937258D01*
X94850000Y-134140000D02*
X92900000Y-134140000D01*
X94850000Y-139260000D02*
X92900000Y-139260000D01*
X94850000Y-139260000D02*
X98300000Y-139260000D01*
X94850000Y-134140000D02*
X96800000Y-134140000D01*
X117090580Y-132040000D02*
X116809420Y-132040000D01*
X117090580Y-133060000D02*
X116809420Y-133060000D01*
X94672500Y-132212742D02*
X94672500Y-132687258D01*
X93627500Y-132212742D02*
X93627500Y-132687258D01*
X96222500Y-132687258D02*
X96222500Y-132212742D01*
X95177500Y-132687258D02*
X95177500Y-132212742D01*
X115366665Y-133400000D02*
X115366665Y-139150000D01*
X118966665Y-133400000D02*
X115366665Y-133400000D01*
X118966665Y-139150000D02*
X118966665Y-133400000D01*
X65212936Y-134305000D02*
X65667064Y-134305000D01*
X65212936Y-132835000D02*
X65667064Y-132835000D01*
X99227500Y-135132742D02*
X99227500Y-135607258D01*
X100272500Y-135132742D02*
X100272500Y-135607258D01*
X87600000Y-126365000D02*
X87600000Y-133735000D01*
X77470000Y-132735000D02*
X77470000Y-127365000D01*
X78470000Y-133735000D02*
X77470000Y-132735000D01*
X78470000Y-126365000D02*
X87600000Y-126365000D01*
X77470000Y-127365000D02*
X78470000Y-126365000D01*
X87600000Y-133735000D02*
X78470000Y-133735000D01*
X87072500Y-135937258D02*
X87072500Y-135462742D01*
X86027500Y-135937258D02*
X86027500Y-135462742D01*
X89012742Y-139172500D02*
X89487258Y-139172500D01*
X89012742Y-138127500D02*
X89487258Y-138127500D01*
X85912742Y-138127500D02*
X86387258Y-138127500D01*
X85912742Y-139172500D02*
X86387258Y-139172500D01*
D21*
X132689600Y-162869800D02*
X127609600Y-162869800D01*
D11*
X146063351Y-140314600D02*
G75*
G03*
X146063351Y-140314600I-495951J0D01*
G01*
X124287931Y-172722460D02*
G75*
G03*
X124287931Y-172722460I-495951J0D01*
G01*
D22*
X95889000Y-165257000D03*
X103889000Y-165257000D03*
D23*
X16951220Y-139599580D03*
X16951220Y-126000420D03*
X30448780Y-140699400D03*
X30448780Y-124900600D03*
M02*
