G04 #@! TF.GenerationSoftware,KiCad,Pcbnew,6.0.10-86aedd382b~118~ubuntu22.04.1*
G04 #@! TF.CreationDate,2023-01-19T22:52:08+01:00*
G04 #@! TF.ProjectId,mre_addon_v2,6d72655f-6164-4646-9f6e-5f76322e6b69,V2.5*
G04 #@! TF.SameCoordinates,Original*
G04 #@! TF.FileFunction,Profile,NP*
%FSLAX46Y46*%
G04 Gerber Fmt 4.6, Leading zero omitted, Abs format (unit mm)*
G04 Created by KiCad (PCBNEW 6.0.10-86aedd382b~118~ubuntu22.04.1) date 2023-01-19 22:52:08*
%MOMM*%
%LPD*%
G01*
G04 APERTURE LIST*
G04 #@! TA.AperFunction,Profile*
%ADD10C,0.120000*%
G04 #@! TD*
G04 #@! TA.AperFunction,Profile*
%ADD11C,0.050000*%
G04 #@! TD*
G04 #@! TA.AperFunction,Profile*
%ADD12C,0.100000*%
G04 #@! TD*
G04 APERTURE END LIST*
D10*
X111500000Y-161500000D02*
G75*
G03*
X109700000Y-163300000I0J-1800000D01*
G01*
X109700000Y-163300000D02*
X109700000Y-168500000D01*
X121400000Y-168500000D02*
X121400000Y-163300000D01*
D11*
X146475000Y-168575000D02*
X153600000Y-161650000D01*
X88475000Y-172500000D02*
X94000000Y-172500000D01*
X77000000Y-161625000D02*
X77000000Y-125700000D01*
D10*
X111500000Y-170300000D02*
X119600000Y-170300000D01*
D11*
X137000000Y-171700000D02*
X137000000Y-169850000D01*
X153600000Y-125700000D02*
X77000000Y-125700000D01*
X88475000Y-172500000D02*
X77000000Y-161625000D01*
X153600000Y-161650000D02*
X153600000Y-125700000D01*
X136200000Y-172500000D02*
G75*
G03*
X137000000Y-171700000I0J800000D01*
G01*
D10*
X121400000Y-163300000D02*
G75*
G03*
X119600000Y-161500000I-1800000J0D01*
G01*
X109700000Y-168500000D02*
G75*
G03*
X111500000Y-170300000I1800000J0D01*
G01*
D11*
X137775000Y-169000000D02*
X145675000Y-169000000D01*
D10*
X119600000Y-170300000D02*
G75*
G03*
X121400000Y-168500000I0J1800000D01*
G01*
D11*
X106500000Y-172500000D02*
X136200000Y-172500000D01*
X145675005Y-169000029D02*
G75*
G03*
X146475000Y-168575000I-274005J1481129D01*
G01*
X106500000Y-172500000D02*
G75*
G03*
X94000000Y-172500000I-6250000J-10825321D01*
G01*
D12*
X140350000Y-146500000D02*
G75*
G03*
X140350000Y-146500000I-1000000J0D01*
G01*
D11*
X137775000Y-169000000D02*
G75*
G03*
X137000000Y-169850000I37500J-812500D01*
G01*
D10*
X111500000Y-161500000D02*
X119600000Y-161500000D01*
D12*
X140350000Y-141500000D02*
G75*
G03*
X140350000Y-141500000I-1000000J0D01*
G01*
M02*
