G04 #@! TF.GenerationSoftware,KiCad,Pcbnew,6.0.10-86aedd382b~118~ubuntu22.04.1*
G04 #@! TF.CreationDate,2023-01-25T16:31:52+01:00*
G04 #@! TF.ProjectId,mre_addon_v2,6d72655f-6164-4646-9f6e-5f76322e6b69,V2.5*
G04 #@! TF.SameCoordinates,Original*
G04 #@! TF.FileFunction,Soldermask,Bot*
G04 #@! TF.FilePolarity,Negative*
%FSLAX46Y46*%
G04 Gerber Fmt 4.6, Leading zero omitted, Abs format (unit mm)*
G04 Created by KiCad (PCBNEW 6.0.10-86aedd382b~118~ubuntu22.04.1) date 2023-01-25 16:31:52*
%MOMM*%
%LPD*%
G01*
G04 APERTURE LIST*
G04 Aperture macros list*
%AMRoundRect*
0 Rectangle with rounded corners*
0 $1 Rounding radius*
0 $2 $3 $4 $5 $6 $7 $8 $9 X,Y pos of 4 corners*
0 Add a 4 corners polygon primitive as box body*
4,1,4,$2,$3,$4,$5,$6,$7,$8,$9,$2,$3,0*
0 Add four circle primitives for the rounded corners*
1,1,$1+$1,$2,$3*
1,1,$1+$1,$4,$5*
1,1,$1+$1,$6,$7*
1,1,$1+$1,$8,$9*
0 Add four rect primitives between the rounded corners*
20,1,$1+$1,$2,$3,$4,$5,0*
20,1,$1+$1,$4,$5,$6,$7,0*
20,1,$1+$1,$6,$7,$8,$9,0*
20,1,$1+$1,$8,$9,$2,$3,0*%
G04 Aperture macros list end*
%ADD10C,0.990600*%
%ADD11C,3.000000*%
%ADD12RoundRect,0.250001X-0.499999X0.499999X-0.499999X-0.499999X0.499999X-0.499999X0.499999X0.499999X0*%
%ADD13C,1.500000*%
%ADD14C,1.000000*%
%ADD15C,0.889000*%
%ADD16C,2.999740*%
%ADD17R,1.700000X1.700000*%
%ADD18O,1.700000X1.700000*%
%ADD19C,1.600000*%
%ADD20O,1.600000X1.600000*%
%ADD21C,0.700000*%
%ADD22C,1.400000*%
%ADD23RoundRect,0.250001X0.499999X-0.499999X0.499999X0.499999X-0.499999X0.499999X-0.499999X-0.499999X0*%
%ADD24C,0.800000*%
%ADD25C,6.400000*%
%ADD26R,1.600000X1.600000*%
%ADD27R,1.524000X1.524000*%
%ADD28R,1.300000X0.800000*%
%ADD29O,1.300000X0.800000*%
%ADD30R,1.500000X1.000000*%
%ADD31RoundRect,0.218750X0.256250X-0.218750X0.256250X0.218750X-0.256250X0.218750X-0.256250X-0.218750X0*%
%ADD32R,1.000000X3.150000*%
%ADD33C,0.787400*%
G04 APERTURE END LIST*
D10*
X94385000Y-128865000D03*
X99465000Y-129881000D03*
X99465000Y-127849000D03*
D11*
X149235000Y-146160000D03*
X149235000Y-150860000D03*
D12*
X144915000Y-144000000D03*
D13*
X144915000Y-147000000D03*
X144915000Y-150000000D03*
X144915000Y-153000000D03*
X141915000Y-144000000D03*
X141915000Y-147000000D03*
X141915000Y-150000000D03*
X141915000Y-153000000D03*
D14*
X140975000Y-156000000D03*
X140975000Y-141000000D03*
D12*
X144915000Y-144000000D03*
D13*
X144915000Y-147000000D03*
X144915000Y-150000000D03*
X144915000Y-153000000D03*
X141915000Y-144000000D03*
X141915000Y-147000000D03*
X141915000Y-150000000D03*
X141915000Y-153000000D03*
D15*
X95889000Y-165257000D03*
X103889000Y-165257000D03*
D16*
X16951220Y-139599580D03*
X16951220Y-126000420D03*
X30448780Y-140699400D03*
X30448780Y-124900600D03*
D17*
X145500000Y-128200000D03*
X78900000Y-136000000D03*
D18*
X81440000Y-136000000D03*
X83980000Y-136000000D03*
D19*
X151000000Y-128700000D03*
D20*
X151000000Y-138860000D03*
D21*
X98400000Y-146445000D03*
D22*
X79200000Y-147650000D03*
X81740000Y-147650000D03*
D21*
X96950000Y-145000000D03*
D14*
X90440000Y-127050000D03*
X90440000Y-133050000D03*
D23*
X86500000Y-130050000D03*
D13*
X89500000Y-130050000D03*
D24*
X88519900Y-165089500D03*
X90216956Y-160992444D03*
X86119900Y-162689500D03*
X90216956Y-164386556D03*
X88519900Y-160289500D03*
X86822844Y-160992444D03*
X86822844Y-164386556D03*
D25*
X88519900Y-162689500D03*
D24*
X90919900Y-162689500D03*
X144589200Y-162689500D03*
X140492144Y-164386556D03*
X139789200Y-162689500D03*
X143886256Y-160992444D03*
X143886256Y-164386556D03*
X140492144Y-160992444D03*
X142189200Y-165089500D03*
X142189200Y-160289500D03*
D25*
X142189200Y-162689500D03*
D11*
X82180000Y-130050000D03*
D23*
X86500000Y-130050000D03*
D13*
X89500000Y-130050000D03*
D26*
X115400600Y-159360800D03*
X117900600Y-159360800D03*
D27*
X112900600Y-159360800D03*
X110400600Y-159360800D03*
D28*
X106654600Y-146055000D03*
D29*
X106654600Y-144810400D03*
D22*
X91360600Y-140771800D03*
X85360600Y-140771800D03*
D26*
X124973080Y-168379060D03*
D19*
X124973080Y-165839060D03*
X127513080Y-168379060D03*
X127513080Y-165839060D03*
X130053080Y-168379060D03*
X130053080Y-165839060D03*
X132593080Y-168379060D03*
X132593080Y-165839060D03*
X135133080Y-168379060D03*
X135133080Y-165839060D03*
D26*
X145478500Y-135336200D03*
D19*
X145478500Y-132796200D03*
X142938500Y-135336200D03*
X142938500Y-132796200D03*
X140398500Y-135336200D03*
X140398500Y-132796200D03*
X137858500Y-135336200D03*
X137858500Y-132796200D03*
X135318500Y-135336200D03*
X135318500Y-132796200D03*
D26*
X79197200Y-159212200D03*
D19*
X81737200Y-159212200D03*
X84277200Y-159212200D03*
D26*
X79197200Y-149941200D03*
D19*
X81737200Y-149941200D03*
X84277200Y-149941200D03*
D17*
X115600000Y-128200000D03*
D18*
X113060000Y-128200000D03*
X110520000Y-128200000D03*
X107980000Y-128200000D03*
X105440000Y-128200000D03*
X102900000Y-128200000D03*
D30*
X110600000Y-135100000D03*
X110600000Y-136400000D03*
X110600000Y-137700000D03*
X108000000Y-135100000D03*
X108000000Y-136400000D03*
X108000000Y-137700000D03*
D31*
X123950000Y-160387500D03*
X123950000Y-158812500D03*
X122300000Y-160387500D03*
X122300000Y-158812500D03*
X137300000Y-154437500D03*
X137300000Y-152862500D03*
D32*
X124968000Y-164581600D03*
X124968000Y-169631600D03*
X127508000Y-164581600D03*
X127508000Y-169631600D03*
X130048000Y-164581600D03*
X130048000Y-169631600D03*
X132588000Y-164581600D03*
X132588000Y-169631600D03*
X135128000Y-164581600D03*
X135128000Y-169631600D03*
D10*
X99465000Y-129881000D03*
X99465000Y-127849000D03*
X94385000Y-128865000D03*
D33*
X95655000Y-128230000D03*
X95655000Y-129500000D03*
X96925000Y-128230000D03*
X96925000Y-129500000D03*
X98195000Y-128230000D03*
X98195000Y-129500000D03*
M02*
