M48
; DRILL file {KiCad 6.0.11-2627ca5db0~126~ubuntu22.04.1} date Po 13. február 2023, 20:29:24
; FORMAT={-:-/ absolute / inch / decimal}
; #@! TF.CreationDate,2023-02-13T20:29:24+01:00
; #@! TF.GenerationSoftware,Kicad,Pcbnew,6.0.11-2627ca5db0~126~ubuntu22.04.1
; #@! TF.FileFunction,MixedPlating,1,2
FMAT,2
INCH
; #@! TA.AperFunction,Plated,PTH,ViaDrill
T1C0.0118
; #@! TA.AperFunction,Plated,PTH,ViaDrill
T2C0.0157
; #@! TA.AperFunction,Plated,PTH,ComponentDrill
T3C0.0197
; #@! TA.AperFunction,Plated,PTH,ViaDrill
T4C0.0236
; #@! TA.AperFunction,Plated,PTH,ComponentDrill
T5C0.0276
; #@! TA.AperFunction,Plated,PTH,ComponentDrill
T6C0.0300
; #@! TA.AperFunction,Plated,PTH,ComponentDrill
T7C0.0315
; #@! TA.AperFunction,Plated,PTH,ComponentDrill
T8C0.0394
; #@! TA.AperFunction,Plated,PTH,ComponentDrill
T9C0.0402
; #@! TA.AperFunction,Plated,PTH,ComponentDrill
T10C0.0453
; #@! TA.AperFunction,Plated,PTH,ComponentDrill
T11C0.0697
; #@! TA.AperFunction,Plated,PTH,ComponentDrill
T12C0.1260
; #@! TA.AperFunction,NonPlated,NPTH,ComponentDrill
T13C0.0276
; #@! TA.AperFunction,NonPlated,NPTH,ComponentDrill
T14C0.0390
; #@! TA.AperFunction,NonPlated,NPTH,ComponentDrill
T15C0.0394
; #@! TA.AperFunction,NonPlated,NPTH,ComponentDrill
T16C0.1181
%
G90
G05
T1
X3.1339Y-5.5157
X3.1339Y-5.6102
X3.185Y-5.5157
X3.2343Y-5.5157
X3.2854Y-5.5157
X3.6969Y-5.3071
X3.6969Y-5.4331
X3.6969Y-5.4724
X3.7146Y-5.0276
X3.752Y-5.0157
X3.752Y-5.1535
X3.752Y-5.2598
X3.8016Y-6.1909
X3.8465Y-6.2992
X3.9213Y-6.2992
X3.9921Y-5.0276
X3.9921Y-5.1063
X3.9921Y-5.1535
X3.9921Y-5.2598
X3.9961Y-6.2992
X4.0433Y-5.2864
X4.0433Y-5.3179
X4.0433Y-5.3494
X4.0433Y-5.3809
X4.0433Y-5.4124
X4.0433Y-5.4439
X4.0433Y-5.4754
X4.0689Y-6.1909
X4.0748Y-5.2598
X4.0748Y-5.4961
X4.1024Y-5.0157
X4.1024Y-5.1063
X4.1024Y-5.5157
X4.1772Y-5.4124
X4.2126Y-5.1063
X4.2126Y-5.4803
X4.2283Y-5.2598
X4.2283Y-5.3701
X4.2677Y-5.1535
X4.2677Y-5.2598
X4.2677Y-5.3228
X4.2677Y-5.4439
X4.3071Y-5.1535
X4.3071Y-5.2598
X4.3071Y-5.4803
X4.3071Y-5.5925
X4.3425Y-5.2598
X4.3425Y-5.4803
X4.3898Y-5.3228
X4.3898Y-5.4803
X4.4449Y-5.5925
X4.4449Y-5.7008
X4.4449Y-5.7598
X4.4803Y-5.2343
X4.4803Y-5.5157
X4.5138Y-5.2028
X4.5138Y-5.2343
X4.5157Y-5.3583
X4.5157Y-5.4439
X4.5886Y-5.5925
X4.6122Y-6.0236
X4.6142Y-5.0157
X4.6634Y-5.2185
X4.6634Y-5.6378
X4.752Y-5.9272
X4.7815Y-5.0157
X4.7815Y-5.3602
X4.7913Y-6.0945
X4.8169Y-5.7106
X4.8169Y-5.8091
X4.8445Y-5.0157
X4.8504Y-5.8366
X4.872Y-5.9272
X4.8819Y-5.7106
X4.8898Y-6.0945
X4.8976Y-6.0236
X4.9075Y-5.7835
X4.9566Y-5.4124
X5.0137Y-5.4124
X5.0374Y-6.1378
X5.0728Y-5.1881
X5.0767Y-5.4124
X5.0945Y-5.1083
X5.122Y-6.1791
X5.122Y-6.2283
X5.1496Y-6.1535
X5.1496Y-6.2028
X5.1496Y-6.2539
X5.2126Y-5.1881
X5.378Y-6.0492
T2
X3.8661Y-6.626
X3.9961Y-6.626
X4.4439Y-5.8732
X4.4439Y-5.9205
X4.8583Y-5.2835
X4.8583Y-5.3602
X4.8819Y-6.3543
X4.9331Y-5.5157
X4.9724Y-6.3543
X5.0935Y-5.7303
X5.0935Y-5.7736
X5.0935Y-5.8732
X5.0935Y-5.9205
X5.1161Y-5.5157
X5.1368Y-5.7303
X5.1368Y-5.7736
X5.1368Y-5.8732
X5.1368Y-5.9205
X5.1772Y-5.0157
X5.1772Y-5.1083
X5.22Y-6.3543
X5.2691Y-5.8732
X5.2691Y-5.9205
X5.2691Y-5.9677
X5.3242Y-5.8732
X5.3242Y-5.9205
X5.3242Y-5.9677
X5.3268Y-5.0157
X5.4337Y-5.8732
X5.4337Y-5.9205
X5.4337Y-5.9677
X5.4809Y-5.8732
X5.4809Y-5.9205
X5.4809Y-5.9677
X5.7053Y-5.5157
X5.876Y-5.5157
X6.0128Y-5.0157
X6.0128Y-5.5157
T3
X3.3905Y-6.4051
X3.4182Y-6.3383
X3.4182Y-6.4719
X3.485Y-6.3106
X3.485Y-6.4996
X3.5518Y-6.3383
X3.5518Y-6.4719
X3.5795Y-6.4051
X4.199Y-5.7012
X4.199Y-5.7502
X5.5035Y-6.4051
X5.5312Y-6.3383
X5.5312Y-6.4719
X5.598Y-6.3106
X5.598Y-6.4996
X5.6648Y-6.3383
X5.6648Y-6.4719
X5.6925Y-6.4051
T4
X4.7402Y-6.2756
T5
X3.1181Y-5.813
X3.2181Y-5.813
X3.3607Y-5.5422
X3.5969Y-5.5422
T6
X3.7752Y-6.5062
X4.0901Y-6.5062
T7
X5.9449Y-5.0669
X5.9449Y-5.4669
T8
X3.1063Y-5.3543
X3.2063Y-5.3543
X3.3063Y-5.3543
X3.4055Y-5.1201
X3.5236Y-5.1201
X4.0512Y-5.0472
X4.1512Y-5.0472
X4.2512Y-5.0472
X4.3465Y-6.274
X4.3512Y-5.0472
X4.4449Y-6.274
X4.4512Y-5.0472
X4.5433Y-6.274
X4.5512Y-5.0472
X4.6418Y-6.274
X5.5872Y-5.6693
X5.5872Y-5.7874
X5.5872Y-5.9055
X5.5872Y-6.0236
X5.7053Y-5.6693
X5.7053Y-5.7874
X5.7053Y-5.9055
X5.7053Y-6.0236
X5.7283Y-5.0472
T9
X3.4055Y-5.1201
X3.5236Y-5.1201
X5.5872Y-5.6693
X5.5872Y-5.7874
X5.5872Y-5.9055
X5.5872Y-6.0236
X5.7053Y-5.6693
X5.7053Y-5.7874
X5.7053Y-5.9055
X5.7053Y-6.0236
T10
X3.118Y-5.9032
X3.118Y-6.2682
X3.218Y-5.9032
X3.218Y-6.2682
X3.318Y-5.9032
X3.318Y-6.2682
X4.9202Y-6.5291
X4.9202Y-6.6291
X5.0202Y-6.5291
X5.0202Y-6.6291
X5.1202Y-6.5291
X5.1202Y-6.6291
X5.2202Y-6.5291
X5.2202Y-6.6291
X5.3202Y-6.5291
X5.3202Y-6.6291
X5.3275Y-5.2282
X5.3275Y-5.3282
X5.4275Y-5.2282
X5.4275Y-5.3282
X5.5275Y-5.2282
X5.5275Y-5.3282
X5.6275Y-5.2282
X5.6275Y-5.3282
X5.7275Y-5.2282
X5.7275Y-5.3282
T11
X0.6674Y-4.9606
X0.6674Y-5.496
X1.1988Y-4.9173
X1.1988Y-5.5393
T12
X3.485Y-6.4051
X5.598Y-6.4051
T13
X3.8169Y-5.7087
X3.874Y-5.7656
T14
X3.7159Y-5.0734
X3.7159Y-5.0734
X3.9159Y-5.0334
X3.9159Y-5.0334
X3.9159Y-5.1134
X3.9159Y-5.1134
T15
X3.5606Y-5.002
X3.5606Y-5.2382
X5.5502Y-5.5512
X5.5502Y-6.1417
T16
X3.2354Y-5.1201
X5.8754Y-5.7543
X5.8754Y-5.9394
T0
M30
