G04 #@! TF.GenerationSoftware,KiCad,Pcbnew,6.0.10-86aedd382b~118~ubuntu22.04.1*
G04 #@! TF.CreationDate,2023-01-18T22:54:43+01:00*
G04 #@! TF.ProjectId,mre_addon_v2,6d72655f-6164-4646-9f6e-5f76322e6b69,V2.5*
G04 #@! TF.SameCoordinates,Original*
G04 #@! TF.FileFunction,Soldermask,Top*
G04 #@! TF.FilePolarity,Negative*
%FSLAX46Y46*%
G04 Gerber Fmt 4.6, Leading zero omitted, Abs format (unit mm)*
G04 Created by KiCad (PCBNEW 6.0.10-86aedd382b~118~ubuntu22.04.1) date 2023-01-18 22:54:43*
%MOMM*%
%LPD*%
G01*
G04 APERTURE LIST*
G04 Aperture macros list*
%AMRoundRect*
0 Rectangle with rounded corners*
0 $1 Rounding radius*
0 $2 $3 $4 $5 $6 $7 $8 $9 X,Y pos of 4 corners*
0 Add a 4 corners polygon primitive as box body*
4,1,4,$2,$3,$4,$5,$6,$7,$8,$9,$2,$3,0*
0 Add four circle primitives for the rounded corners*
1,1,$1+$1,$2,$3*
1,1,$1+$1,$4,$5*
1,1,$1+$1,$6,$7*
1,1,$1+$1,$8,$9*
0 Add four rect primitives between the rounded corners*
20,1,$1+$1,$2,$3,$4,$5,0*
20,1,$1+$1,$4,$5,$6,$7,0*
20,1,$1+$1,$6,$7,$8,$9,0*
20,1,$1+$1,$8,$9,$2,$3,0*%
G04 Aperture macros list end*
%ADD10C,2.200000*%
%ADD11C,0.902000*%
%ADD12C,6.502000*%
%ADD13RoundRect,0.269750X0.256250X-0.218750X0.256250X0.218750X-0.256250X0.218750X-0.256250X-0.218750X0*%
%ADD14RoundRect,0.269750X0.218750X0.256250X-0.218750X0.256250X-0.218750X-0.256250X0.218750X-0.256250X0*%
%ADD15RoundRect,0.269750X-0.256250X0.218750X-0.256250X-0.218750X0.256250X-0.218750X0.256250X0.218750X0*%
%ADD16C,1.092600*%
%ADD17C,0.889400*%
%ADD18C,3.102000*%
%ADD19RoundRect,0.301001X-0.499999X0.499999X-0.499999X-0.499999X0.499999X-0.499999X0.499999X0.499999X0*%
%ADD20C,1.602000*%
%ADD21RoundRect,0.051000X-0.500000X1.575000X-0.500000X-1.575000X0.500000X-1.575000X0.500000X1.575000X0*%
%ADD22RoundRect,0.051000X0.500000X-1.575000X0.500000X1.575000X-0.500000X1.575000X-0.500000X-1.575000X0*%
%ADD23RoundRect,0.051000X0.600000X-1.100000X0.600000X1.100000X-0.600000X1.100000X-0.600000X-1.100000X0*%
%ADD24RoundRect,0.051000X2.900000X-3.200000X2.900000X3.200000X-2.900000X3.200000X-2.900000X-3.200000X0*%
%ADD25RoundRect,0.269750X-0.218750X-0.256250X0.218750X-0.256250X0.218750X0.256250X-0.218750X0.256250X0*%
%ADD26RoundRect,0.051000X-0.750000X-0.750000X0.750000X-0.750000X0.750000X0.750000X-0.750000X0.750000X0*%
%ADD27RoundRect,0.051000X0.225000X-0.725000X0.225000X0.725000X-0.225000X0.725000X-0.225000X-0.725000X0*%
%ADD28RoundRect,0.051000X-0.325000X0.610000X-0.325000X-0.610000X0.325000X-0.610000X0.325000X0.610000X0*%
%ADD29RoundRect,0.051000X-0.400000X0.450000X-0.400000X-0.450000X0.400000X-0.450000X0.400000X0.450000X0*%
%ADD30RoundRect,0.201000X0.825000X0.150000X-0.825000X0.150000X-0.825000X-0.150000X0.825000X-0.150000X0*%
%ADD31C,1.102000*%
%ADD32RoundRect,0.294750X0.456250X-0.243750X0.456250X0.243750X-0.456250X0.243750X-0.456250X-0.243750X0*%
%ADD33RoundRect,0.051000X0.400000X0.750000X-0.400000X0.750000X-0.400000X-0.750000X0.400000X-0.750000X0*%
%ADD34RoundRect,0.051000X0.725000X1.000000X-0.725000X1.000000X-0.725000X-1.000000X0.725000X-1.000000X0*%
%ADD35C,0.991000*%
%ADD36RoundRect,0.051000X-0.381000X0.762000X-0.381000X-0.762000X0.381000X-0.762000X0.381000X0.762000X0*%
%ADD37RoundRect,0.051000X-0.508000X0.762000X-0.508000X-0.762000X0.508000X-0.762000X0.508000X0.762000X0*%
%ADD38RoundRect,0.051000X-0.762000X1.016000X-0.762000X-1.016000X0.762000X-1.016000X0.762000X1.016000X0*%
%ADD39RoundRect,0.051000X-0.762000X0.762000X-0.762000X-0.762000X0.762000X-0.762000X0.762000X0.762000X0*%
%ADD40C,3.101740*%
%ADD41RoundRect,0.051000X-0.850000X-0.850000X0.850000X-0.850000X0.850000X0.850000X-0.850000X0.850000X0*%
%ADD42RoundRect,0.126000X0.662500X0.075000X-0.662500X0.075000X-0.662500X-0.075000X0.662500X-0.075000X0*%
%ADD43RoundRect,0.126000X0.075000X0.662500X-0.075000X0.662500X-0.075000X-0.662500X0.075000X-0.662500X0*%
%ADD44RoundRect,0.051000X0.850000X-0.850000X0.850000X0.850000X-0.850000X0.850000X-0.850000X-0.850000X0*%
%ADD45O,1.802000X1.802000*%
%ADD46RoundRect,0.201000X-0.725000X-0.150000X0.725000X-0.150000X0.725000X0.150000X-0.725000X0.150000X0*%
%ADD47RoundRect,0.301001X-1.974999X1.262499X-1.974999X-1.262499X1.974999X-1.262499X1.974999X1.262499X0*%
%ADD48C,1.702000*%
%ADD49O,1.702000X1.702000*%
%ADD50C,0.802000*%
%ADD51RoundRect,0.276000X0.225000X0.250000X-0.225000X0.250000X-0.225000X-0.250000X0.225000X-0.250000X0*%
%ADD52RoundRect,0.051000X-1.200000X1.000000X-1.200000X-1.000000X1.200000X-1.000000X1.200000X1.000000X0*%
%ADD53RoundRect,0.051000X-0.800000X0.800000X-0.800000X-0.800000X0.800000X-0.800000X0.800000X0.800000X0*%
%ADD54RoundRect,0.051000X0.762000X0.762000X-0.762000X0.762000X-0.762000X-0.762000X0.762000X-0.762000X0*%
%ADD55RoundRect,0.051000X-0.650000X0.400000X-0.650000X-0.400000X0.650000X-0.400000X0.650000X0.400000X0*%
%ADD56O,1.402000X0.902000*%
%ADD57C,1.502000*%
G04 APERTURE END LIST*
D10*
X70151785Y-172300000D02*
G75*
G03*
X70151785Y-172300000I-2801785J0D01*
G01*
X158200000Y-178950000D02*
G75*
G03*
X158200000Y-178950000I-2800000J0D01*
G01*
X70151785Y-172300000D02*
G75*
G03*
X70151785Y-172300000I-2801785J0D01*
G01*
X158200000Y-178950000D02*
G75*
G03*
X158200000Y-178950000I-2800000J0D01*
G01*
D11*
X142189200Y-160289500D03*
X143886256Y-164386556D03*
X143886256Y-160992444D03*
X144589200Y-162689500D03*
D12*
X142189200Y-162689500D03*
D11*
X142189200Y-165089500D03*
X140492144Y-160992444D03*
X140492144Y-164386556D03*
X139789200Y-162689500D03*
X88519900Y-160289500D03*
X90216956Y-164386556D03*
X90216956Y-160992444D03*
X90919900Y-162689500D03*
D12*
X88519900Y-162689500D03*
D11*
X88519900Y-165089500D03*
X86822844Y-160992444D03*
X86822844Y-164386556D03*
X86119900Y-162689500D03*
D13*
X124650000Y-128937500D03*
X124650000Y-127362500D03*
D14*
X132335800Y-133376700D03*
X130760800Y-133376700D03*
D13*
X124650000Y-143162500D03*
X124650000Y-141587500D03*
X127800000Y-128937500D03*
X127800000Y-127362500D03*
X128948300Y-139764200D03*
X128948300Y-138189200D03*
D14*
X123537500Y-150800000D03*
X121962500Y-150800000D03*
D15*
X120212200Y-153006600D03*
X120212200Y-154581600D03*
X118485000Y-153006500D03*
X118485000Y-154581500D03*
D13*
X118050000Y-146287500D03*
X118050000Y-144712500D03*
D14*
X103937500Y-132350000D03*
X102362500Y-132350000D03*
X115187500Y-143300000D03*
X113612500Y-143300000D03*
X103937500Y-130850000D03*
X102362500Y-130850000D03*
D15*
X125400000Y-153012500D03*
X125400000Y-154587500D03*
X89140000Y-140142500D03*
X89140000Y-141717500D03*
D13*
X87450000Y-141717500D03*
X87450000Y-140142500D03*
D14*
X115187500Y-144810000D03*
X113612500Y-144810000D03*
X115187500Y-146320000D03*
X113612500Y-146320000D03*
D16*
X94060000Y-129000000D03*
X99140000Y-130016000D03*
X99140000Y-127984000D03*
D17*
X95330000Y-129635000D03*
X95330000Y-128365000D03*
X96600000Y-129635000D03*
X96600000Y-128365000D03*
X97870000Y-129635000D03*
X97870000Y-128365000D03*
D18*
X149235000Y-146160000D03*
X149235000Y-150860000D03*
D19*
X144915000Y-144000000D03*
D20*
X144915000Y-147000000D03*
X144915000Y-150000000D03*
X144915000Y-153000000D03*
X141915000Y-144000000D03*
X141915000Y-147000000D03*
X141915000Y-150000000D03*
X141915000Y-153000000D03*
D21*
X145491200Y-131536200D03*
X145491200Y-136586200D03*
X142951200Y-131536200D03*
X142951200Y-136586200D03*
X140411200Y-131536200D03*
X140411200Y-136586200D03*
X137871200Y-131536200D03*
X137871200Y-136586200D03*
X135331200Y-131536200D03*
X135331200Y-136586200D03*
D22*
X124968000Y-169631600D03*
X124968000Y-164581600D03*
X127508000Y-169631600D03*
X127508000Y-164581600D03*
X130048000Y-169631600D03*
X130048000Y-164581600D03*
X132588000Y-169631600D03*
X132588000Y-164581600D03*
X135128000Y-169631600D03*
X135128000Y-164581600D03*
D23*
X132120000Y-150675000D03*
D24*
X134400000Y-144375000D03*
D23*
X136680000Y-150675000D03*
D15*
X123050000Y-127362500D03*
X123050000Y-128937500D03*
D13*
X126250000Y-128937500D03*
X126250000Y-127362500D03*
D15*
X121450000Y-127362500D03*
X121450000Y-128937500D03*
X129400000Y-127362500D03*
X129400000Y-128937500D03*
X127348300Y-134189200D03*
X127348300Y-135764200D03*
D13*
X128948300Y-135764200D03*
X128948300Y-134189200D03*
D15*
X127348300Y-138189200D03*
X127348300Y-139764200D03*
X121450000Y-141587500D03*
X121450000Y-143162500D03*
D13*
X119850000Y-128937500D03*
X119850000Y-127362500D03*
X126250000Y-143162500D03*
X126250000Y-141587500D03*
X127800000Y-143162500D03*
X127800000Y-141587500D03*
X123050000Y-143162500D03*
X123050000Y-141587500D03*
D25*
X125762500Y-150800000D03*
X127337500Y-150800000D03*
D13*
X129400000Y-143162500D03*
X129400000Y-141587500D03*
X119850000Y-143162500D03*
X119850000Y-141587500D03*
D25*
X118000000Y-150800000D03*
X119575000Y-150800000D03*
D13*
X127650000Y-148187500D03*
X127650000Y-146612500D03*
D25*
X130739200Y-138160100D03*
X132314200Y-138160100D03*
D14*
X132335800Y-136576700D03*
X130760800Y-136576700D03*
X132335800Y-134976700D03*
X130760800Y-134976700D03*
D25*
X130760800Y-131776700D03*
X132335800Y-131776700D03*
D14*
X112187500Y-143300000D03*
X110612500Y-143300000D03*
X112187500Y-144810000D03*
X110612500Y-144810000D03*
X112187500Y-146320000D03*
X110612500Y-146320000D03*
D15*
X134250000Y-152862500D03*
X134250000Y-154437500D03*
X132750000Y-152862500D03*
X132750000Y-154437500D03*
X131250000Y-152862500D03*
X131250000Y-154437500D03*
D26*
X93500000Y-137200000D03*
X101300000Y-137200000D03*
D27*
X121700000Y-137926700D03*
X122350000Y-137926700D03*
X123000000Y-137926700D03*
X123650000Y-137926700D03*
X124300000Y-137926700D03*
X124950000Y-137926700D03*
X125600000Y-137926700D03*
X125600000Y-132026700D03*
X124950000Y-132026700D03*
X124300000Y-132026700D03*
X123650000Y-132026700D03*
X123000000Y-132026700D03*
X122350000Y-132026700D03*
X121700000Y-132026700D03*
D28*
X123650000Y-146328000D03*
X122700000Y-146328000D03*
X121750000Y-146328000D03*
X121750000Y-148948000D03*
X123650000Y-148948000D03*
D29*
X123750000Y-153000000D03*
X121850000Y-153000000D03*
X122800000Y-155000000D03*
D30*
X90875000Y-138605000D03*
X90875000Y-137335000D03*
X90875000Y-136065000D03*
X90875000Y-134795000D03*
X85925000Y-134795000D03*
X85925000Y-136065000D03*
X85925000Y-137335000D03*
X85925000Y-138605000D03*
D31*
X140975000Y-156000000D03*
X140975000Y-141000000D03*
D19*
X144915000Y-144000000D03*
D20*
X144915000Y-147000000D03*
X144915000Y-150000000D03*
X144915000Y-153000000D03*
X141915000Y-144000000D03*
X141915000Y-147000000D03*
X141915000Y-150000000D03*
X141915000Y-153000000D03*
D32*
X127650000Y-148237500D03*
X127650000Y-146362500D03*
D15*
X91200000Y-169412500D03*
X91200000Y-170987500D03*
D33*
X103700000Y-166197500D03*
X102600000Y-166197500D03*
X101500000Y-166197500D03*
X100400000Y-166197500D03*
X99300000Y-166197500D03*
X98200000Y-166197500D03*
X97100000Y-166197500D03*
X96000000Y-166197500D03*
D34*
X93625000Y-160497500D03*
X107375000Y-168797500D03*
X107375000Y-160497500D03*
X93625000Y-168797500D03*
D35*
X95889000Y-165257000D03*
X103889000Y-165257000D03*
D36*
X103143000Y-154357000D03*
X102043000Y-154357000D03*
X100943000Y-154357000D03*
X99843000Y-154357000D03*
X98743000Y-154357000D03*
X97643000Y-154357000D03*
X96543000Y-154357000D03*
X95443000Y-154357000D03*
X94343000Y-154357000D03*
D37*
X92743000Y-154957000D03*
D38*
X93089000Y-164730000D03*
X108489000Y-164730000D03*
D39*
X107670000Y-154749000D03*
D15*
X138800000Y-157537500D03*
X138800000Y-159112500D03*
D14*
X87437500Y-133150000D03*
X85862500Y-133150000D03*
D40*
X16951220Y-139599580D03*
X16951220Y-126000420D03*
X30448780Y-140699400D03*
X30448780Y-124900600D03*
D30*
X136775000Y-160405000D03*
X136775000Y-159135000D03*
X136775000Y-157865000D03*
X136775000Y-156595000D03*
X131825000Y-156595000D03*
X131825000Y-157865000D03*
X131825000Y-159135000D03*
X131825000Y-160405000D03*
D41*
X145500000Y-128200000D03*
D42*
X113162500Y-139250000D03*
X113162500Y-138750000D03*
X113162500Y-138250000D03*
X113162500Y-137750000D03*
X113162500Y-137250000D03*
X113162500Y-136750000D03*
X113162500Y-136250000D03*
X113162500Y-135750000D03*
X113162500Y-135250000D03*
X113162500Y-134750000D03*
X113162500Y-134250000D03*
X113162500Y-133750000D03*
D43*
X111750000Y-132337500D03*
X111250000Y-132337500D03*
X110750000Y-132337500D03*
X110250000Y-132337500D03*
X109750000Y-132337500D03*
X109250000Y-132337500D03*
X108750000Y-132337500D03*
X108250000Y-132337500D03*
X107750000Y-132337500D03*
X107250000Y-132337500D03*
X106750000Y-132337500D03*
X106250000Y-132337500D03*
D42*
X104837500Y-133750000D03*
X104837500Y-134250000D03*
X104837500Y-134750000D03*
X104837500Y-135250000D03*
X104837500Y-135750000D03*
X104837500Y-136250000D03*
X104837500Y-136750000D03*
X104837500Y-137250000D03*
X104837500Y-137750000D03*
X104837500Y-138250000D03*
X104837500Y-138750000D03*
X104837500Y-139250000D03*
D43*
X106250000Y-140662500D03*
X106750000Y-140662500D03*
X107250000Y-140662500D03*
X107750000Y-140662500D03*
X108250000Y-140662500D03*
X108750000Y-140662500D03*
X109250000Y-140662500D03*
X109750000Y-140662500D03*
X110250000Y-140662500D03*
X110750000Y-140662500D03*
X111250000Y-140662500D03*
X111750000Y-140662500D03*
D14*
X91050000Y-133150000D03*
X89475000Y-133150000D03*
D44*
X94725000Y-133150000D03*
D45*
X97265000Y-133150000D03*
X99805000Y-133150000D03*
D46*
X120125000Y-145395000D03*
X120125000Y-146665000D03*
X120125000Y-147935000D03*
X120125000Y-149205000D03*
X125275000Y-149205000D03*
X125275000Y-147935000D03*
X125275000Y-146665000D03*
X125275000Y-145395000D03*
D13*
X118050000Y-149325000D03*
X118050000Y-147750000D03*
D47*
X150475000Y-131775000D03*
X150475000Y-136800000D03*
D15*
X137300000Y-152862500D03*
X137300000Y-154437500D03*
X127100000Y-153012500D03*
X127100000Y-154587500D03*
D13*
X135750000Y-154437500D03*
X135750000Y-152862500D03*
D48*
X151000000Y-128700000D03*
D49*
X151000000Y-138860000D03*
D50*
X98400000Y-146445000D03*
D51*
X117725000Y-140350000D03*
X116175000Y-140350000D03*
D50*
X96950000Y-145000000D03*
D51*
X117725000Y-132550000D03*
X116175000Y-132550000D03*
D52*
X117166665Y-134600000D03*
X117166665Y-138300000D03*
D53*
X115400600Y-159360800D03*
X117900600Y-159360800D03*
D54*
X112900600Y-159360800D03*
X110400600Y-159360800D03*
D55*
X106654600Y-146055000D03*
D56*
X106654600Y-144810400D03*
D57*
X91360600Y-140771800D03*
X85360600Y-140771800D03*
D53*
X124973080Y-168379060D03*
D48*
X124973080Y-165839060D03*
X127513080Y-168379060D03*
X127513080Y-165839060D03*
X130053080Y-168379060D03*
X130053080Y-165839060D03*
X132593080Y-168379060D03*
X132593080Y-165839060D03*
X135133080Y-168379060D03*
X135133080Y-165839060D03*
D53*
X145478500Y-135336200D03*
D48*
X145478500Y-132796200D03*
X142938500Y-135336200D03*
X142938500Y-132796200D03*
X140398500Y-135336200D03*
X140398500Y-132796200D03*
X137858500Y-135336200D03*
X137858500Y-132796200D03*
X135318500Y-135336200D03*
X135318500Y-132796200D03*
D53*
X79197200Y-159212200D03*
D48*
X81737200Y-159212200D03*
X84277200Y-159212200D03*
D53*
X79197200Y-149941200D03*
D48*
X81737200Y-149941200D03*
X84277200Y-149941200D03*
D44*
X115600000Y-128200000D03*
D45*
X113060000Y-128200000D03*
X110520000Y-128200000D03*
X107980000Y-128200000D03*
X105440000Y-128200000D03*
X102900000Y-128200000D03*
D16*
X99140000Y-130016000D03*
X99140000Y-127984000D03*
X94060000Y-129000000D03*
G36*
X97549267Y-165430801D02*
G01*
X97600946Y-165473989D01*
X97669661Y-165482620D01*
X97732291Y-165452656D01*
X97750348Y-165431818D01*
X97752238Y-165431164D01*
X97753749Y-165432474D01*
X97753821Y-165433518D01*
X97751000Y-165447699D01*
X97751000Y-166947301D01*
X97753978Y-166962274D01*
X97753335Y-166964168D01*
X97751373Y-166964558D01*
X97750733Y-166964199D01*
X97699054Y-166921011D01*
X97630339Y-166912380D01*
X97567709Y-166942344D01*
X97549652Y-166963182D01*
X97547762Y-166963836D01*
X97546251Y-166962526D01*
X97546179Y-166961482D01*
X97549000Y-166947301D01*
X97549000Y-165447699D01*
X97546022Y-165432726D01*
X97546665Y-165430832D01*
X97548627Y-165430442D01*
X97549267Y-165430801D01*
G37*
G36*
X100849267Y-165430801D02*
G01*
X100900946Y-165473989D01*
X100969661Y-165482620D01*
X101032291Y-165452656D01*
X101050348Y-165431818D01*
X101052238Y-165431164D01*
X101053749Y-165432474D01*
X101053821Y-165433518D01*
X101051000Y-165447699D01*
X101051000Y-166947301D01*
X101053978Y-166962274D01*
X101053335Y-166964168D01*
X101051373Y-166964558D01*
X101050733Y-166964199D01*
X100999054Y-166921011D01*
X100930339Y-166912380D01*
X100867709Y-166942344D01*
X100849652Y-166963182D01*
X100847762Y-166963836D01*
X100846251Y-166962526D01*
X100846179Y-166961482D01*
X100849000Y-166947301D01*
X100849000Y-165447699D01*
X100846022Y-165432726D01*
X100846665Y-165430832D01*
X100848627Y-165430442D01*
X100849267Y-165430801D01*
G37*
G36*
X103049267Y-165430801D02*
G01*
X103100946Y-165473989D01*
X103169661Y-165482620D01*
X103232291Y-165452656D01*
X103250348Y-165431818D01*
X103252238Y-165431164D01*
X103253749Y-165432474D01*
X103253821Y-165433518D01*
X103251000Y-165447699D01*
X103251000Y-166947301D01*
X103253978Y-166962274D01*
X103253335Y-166964168D01*
X103251373Y-166964558D01*
X103250733Y-166964199D01*
X103199054Y-166921011D01*
X103130339Y-166912380D01*
X103067709Y-166942344D01*
X103049652Y-166963182D01*
X103047762Y-166963836D01*
X103046251Y-166962526D01*
X103046179Y-166961482D01*
X103049000Y-166947301D01*
X103049000Y-165447699D01*
X103046022Y-165432726D01*
X103046665Y-165430832D01*
X103048627Y-165430442D01*
X103049267Y-165430801D01*
G37*
G36*
X98649267Y-165430801D02*
G01*
X98700946Y-165473989D01*
X98769661Y-165482620D01*
X98832291Y-165452656D01*
X98850348Y-165431818D01*
X98852238Y-165431164D01*
X98853749Y-165432474D01*
X98853821Y-165433518D01*
X98851000Y-165447699D01*
X98851000Y-166947301D01*
X98853978Y-166962274D01*
X98853335Y-166964168D01*
X98851373Y-166964558D01*
X98850733Y-166964199D01*
X98799054Y-166921011D01*
X98730339Y-166912380D01*
X98667709Y-166942344D01*
X98649652Y-166963182D01*
X98647762Y-166963836D01*
X98646251Y-166962526D01*
X98646179Y-166961482D01*
X98649000Y-166947301D01*
X98649000Y-165447699D01*
X98646022Y-165432726D01*
X98646665Y-165430832D01*
X98648627Y-165430442D01*
X98649267Y-165430801D01*
G37*
G36*
X99749267Y-165430801D02*
G01*
X99800946Y-165473989D01*
X99869661Y-165482620D01*
X99932291Y-165452656D01*
X99950348Y-165431818D01*
X99952238Y-165431164D01*
X99953749Y-165432474D01*
X99953821Y-165433518D01*
X99951000Y-165447699D01*
X99951000Y-166947301D01*
X99953978Y-166962274D01*
X99953335Y-166964168D01*
X99951373Y-166964558D01*
X99950733Y-166964199D01*
X99899054Y-166921011D01*
X99830339Y-166912380D01*
X99767709Y-166942344D01*
X99749652Y-166963182D01*
X99747762Y-166963836D01*
X99746251Y-166962526D01*
X99746179Y-166961482D01*
X99749000Y-166947301D01*
X99749000Y-165447699D01*
X99746022Y-165432726D01*
X99746665Y-165430832D01*
X99748627Y-165430442D01*
X99749267Y-165430801D01*
G37*
G36*
X101949267Y-165430801D02*
G01*
X102000946Y-165473989D01*
X102069661Y-165482620D01*
X102132291Y-165452656D01*
X102150348Y-165431818D01*
X102152238Y-165431164D01*
X102153749Y-165432474D01*
X102153821Y-165433518D01*
X102151000Y-165447699D01*
X102151000Y-166947301D01*
X102153978Y-166962274D01*
X102153335Y-166964168D01*
X102151373Y-166964558D01*
X102150733Y-166964199D01*
X102099054Y-166921011D01*
X102030339Y-166912380D01*
X101967709Y-166942344D01*
X101949652Y-166963182D01*
X101947762Y-166963836D01*
X101946251Y-166962526D01*
X101946179Y-166961482D01*
X101949000Y-166947301D01*
X101949000Y-165447699D01*
X101946022Y-165432726D01*
X101946665Y-165430832D01*
X101948627Y-165430442D01*
X101949267Y-165430801D01*
G37*
G36*
X96449267Y-165430801D02*
G01*
X96500946Y-165473989D01*
X96569661Y-165482620D01*
X96632291Y-165452656D01*
X96650348Y-165431818D01*
X96652238Y-165431164D01*
X96653749Y-165432474D01*
X96653821Y-165433518D01*
X96651000Y-165447699D01*
X96651000Y-166947301D01*
X96653978Y-166962274D01*
X96653335Y-166964168D01*
X96651373Y-166964558D01*
X96650733Y-166964199D01*
X96599054Y-166921011D01*
X96530339Y-166912380D01*
X96467709Y-166942344D01*
X96449652Y-166963182D01*
X96447762Y-166963836D01*
X96446251Y-166962526D01*
X96446179Y-166961482D01*
X96449000Y-166947301D01*
X96449000Y-165447699D01*
X96446022Y-165432726D01*
X96446665Y-165430832D01*
X96448627Y-165430442D01*
X96449267Y-165430801D01*
G37*
G36*
X96976126Y-153590827D02*
G01*
X97004548Y-153645162D01*
X97064732Y-153679435D01*
X97133890Y-153675728D01*
X97190114Y-153635186D01*
X97209440Y-153592869D01*
X97211069Y-153591709D01*
X97212888Y-153592540D01*
X97213220Y-153594091D01*
X97213000Y-153595195D01*
X97213000Y-155118801D01*
X97213608Y-155121856D01*
X97212965Y-155123750D01*
X97211003Y-155124140D01*
X97209874Y-155123173D01*
X97181452Y-155068838D01*
X97121268Y-155034565D01*
X97052110Y-155038272D01*
X96995886Y-155078814D01*
X96976560Y-155121131D01*
X96974931Y-155122291D01*
X96973112Y-155121460D01*
X96972780Y-155119909D01*
X96973000Y-155118805D01*
X96973000Y-153595199D01*
X96972392Y-153592144D01*
X96973035Y-153590250D01*
X96974997Y-153589860D01*
X96976126Y-153590827D01*
G37*
G36*
X101376126Y-153590827D02*
G01*
X101404548Y-153645162D01*
X101464732Y-153679435D01*
X101533890Y-153675728D01*
X101590114Y-153635186D01*
X101609440Y-153592869D01*
X101611069Y-153591709D01*
X101612888Y-153592540D01*
X101613220Y-153594091D01*
X101613000Y-153595195D01*
X101613000Y-155118801D01*
X101613608Y-155121856D01*
X101612965Y-155123750D01*
X101611003Y-155124140D01*
X101609874Y-155123173D01*
X101581452Y-155068838D01*
X101521268Y-155034565D01*
X101452110Y-155038272D01*
X101395886Y-155078814D01*
X101376560Y-155121131D01*
X101374931Y-155122291D01*
X101373112Y-155121460D01*
X101372780Y-155119909D01*
X101373000Y-155118805D01*
X101373000Y-153595199D01*
X101372392Y-153592144D01*
X101373035Y-153590250D01*
X101374997Y-153589860D01*
X101376126Y-153590827D01*
G37*
G36*
X98076126Y-153590827D02*
G01*
X98104548Y-153645162D01*
X98164732Y-153679435D01*
X98233890Y-153675728D01*
X98290114Y-153635186D01*
X98309440Y-153592869D01*
X98311069Y-153591709D01*
X98312888Y-153592540D01*
X98313220Y-153594091D01*
X98313000Y-153595195D01*
X98313000Y-155118801D01*
X98313608Y-155121856D01*
X98312965Y-155123750D01*
X98311003Y-155124140D01*
X98309874Y-155123173D01*
X98281452Y-155068838D01*
X98221268Y-155034565D01*
X98152110Y-155038272D01*
X98095886Y-155078814D01*
X98076560Y-155121131D01*
X98074931Y-155122291D01*
X98073112Y-155121460D01*
X98072780Y-155119909D01*
X98073000Y-155118805D01*
X98073000Y-153595199D01*
X98072392Y-153592144D01*
X98073035Y-153590250D01*
X98074997Y-153589860D01*
X98076126Y-153590827D01*
G37*
G36*
X102476126Y-153590827D02*
G01*
X102504548Y-153645162D01*
X102564732Y-153679435D01*
X102633890Y-153675728D01*
X102690114Y-153635186D01*
X102709440Y-153592869D01*
X102711069Y-153591709D01*
X102712888Y-153592540D01*
X102713220Y-153594091D01*
X102713000Y-153595195D01*
X102713000Y-155118801D01*
X102713608Y-155121856D01*
X102712965Y-155123750D01*
X102711003Y-155124140D01*
X102709874Y-155123173D01*
X102681452Y-155068838D01*
X102621268Y-155034565D01*
X102552110Y-155038272D01*
X102495886Y-155078814D01*
X102476560Y-155121131D01*
X102474931Y-155122291D01*
X102473112Y-155121460D01*
X102472780Y-155119909D01*
X102473000Y-155118805D01*
X102473000Y-153595199D01*
X102472392Y-153592144D01*
X102473035Y-153590250D01*
X102474997Y-153589860D01*
X102476126Y-153590827D01*
G37*
G36*
X95876126Y-153590827D02*
G01*
X95904548Y-153645162D01*
X95964732Y-153679435D01*
X96033890Y-153675728D01*
X96090114Y-153635186D01*
X96109440Y-153592869D01*
X96111069Y-153591709D01*
X96112888Y-153592540D01*
X96113220Y-153594091D01*
X96113000Y-153595195D01*
X96113000Y-155118801D01*
X96113608Y-155121856D01*
X96112965Y-155123750D01*
X96111003Y-155124140D01*
X96109874Y-155123173D01*
X96081452Y-155068838D01*
X96021268Y-155034565D01*
X95952110Y-155038272D01*
X95895886Y-155078814D01*
X95876560Y-155121131D01*
X95874931Y-155122291D01*
X95873112Y-155121460D01*
X95872780Y-155119909D01*
X95873000Y-155118805D01*
X95873000Y-153595199D01*
X95872392Y-153592144D01*
X95873035Y-153590250D01*
X95874997Y-153589860D01*
X95876126Y-153590827D01*
G37*
G36*
X94776126Y-153590827D02*
G01*
X94804548Y-153645162D01*
X94864732Y-153679435D01*
X94933890Y-153675728D01*
X94990114Y-153635186D01*
X95009440Y-153592869D01*
X95011069Y-153591709D01*
X95012888Y-153592540D01*
X95013220Y-153594091D01*
X95013000Y-153595195D01*
X95013000Y-155118801D01*
X95013608Y-155121856D01*
X95012965Y-155123750D01*
X95011003Y-155124140D01*
X95009874Y-155123173D01*
X94981452Y-155068838D01*
X94921268Y-155034565D01*
X94852110Y-155038272D01*
X94795886Y-155078814D01*
X94776560Y-155121131D01*
X94774931Y-155122291D01*
X94773112Y-155121460D01*
X94772780Y-155119909D01*
X94773000Y-155118805D01*
X94773000Y-153595199D01*
X94772392Y-153592144D01*
X94773035Y-153590250D01*
X94774997Y-153589860D01*
X94776126Y-153590827D01*
G37*
G36*
X99176126Y-153590827D02*
G01*
X99204548Y-153645162D01*
X99264732Y-153679435D01*
X99333890Y-153675728D01*
X99390114Y-153635186D01*
X99409440Y-153592869D01*
X99411069Y-153591709D01*
X99412888Y-153592540D01*
X99413220Y-153594091D01*
X99413000Y-153595195D01*
X99413000Y-155118801D01*
X99413608Y-155121856D01*
X99412965Y-155123750D01*
X99411003Y-155124140D01*
X99409874Y-155123173D01*
X99381452Y-155068838D01*
X99321268Y-155034565D01*
X99252110Y-155038272D01*
X99195886Y-155078814D01*
X99176560Y-155121131D01*
X99174931Y-155122291D01*
X99173112Y-155121460D01*
X99172780Y-155119909D01*
X99173000Y-155118805D01*
X99173000Y-153595199D01*
X99172392Y-153592144D01*
X99173035Y-153590250D01*
X99174997Y-153589860D01*
X99176126Y-153590827D01*
G37*
G36*
X100276126Y-153590827D02*
G01*
X100304548Y-153645162D01*
X100364732Y-153679435D01*
X100433890Y-153675728D01*
X100490114Y-153635186D01*
X100509440Y-153592869D01*
X100511069Y-153591709D01*
X100512888Y-153592540D01*
X100513220Y-153594091D01*
X100513000Y-153595195D01*
X100513000Y-155118801D01*
X100513608Y-155121856D01*
X100512965Y-155123750D01*
X100511003Y-155124140D01*
X100509874Y-155123173D01*
X100481452Y-155068838D01*
X100421268Y-155034565D01*
X100352110Y-155038272D01*
X100295886Y-155078814D01*
X100276560Y-155121131D01*
X100274931Y-155122291D01*
X100273112Y-155121460D01*
X100272780Y-155119909D01*
X100273000Y-155118805D01*
X100273000Y-153595199D01*
X100272392Y-153592144D01*
X100273035Y-153590250D01*
X100274997Y-153589860D01*
X100276126Y-153590827D01*
G37*
G36*
X123074267Y-145701301D02*
G01*
X123125946Y-145744489D01*
X123194661Y-145753120D01*
X123257291Y-145723156D01*
X123275348Y-145702318D01*
X123277238Y-145701664D01*
X123278749Y-145702974D01*
X123278821Y-145704018D01*
X123276000Y-145718199D01*
X123276000Y-146937801D01*
X123278978Y-146952774D01*
X123278335Y-146954668D01*
X123276373Y-146955058D01*
X123275733Y-146954699D01*
X123224054Y-146911511D01*
X123155339Y-146902880D01*
X123092709Y-146932844D01*
X123074652Y-146953682D01*
X123072762Y-146954336D01*
X123071251Y-146953026D01*
X123071179Y-146951982D01*
X123074000Y-146937801D01*
X123074000Y-145718199D01*
X123071022Y-145703226D01*
X123071665Y-145701332D01*
X123073627Y-145700942D01*
X123074267Y-145701301D01*
G37*
G36*
X122124267Y-145701301D02*
G01*
X122175946Y-145744489D01*
X122244661Y-145753120D01*
X122307291Y-145723156D01*
X122325348Y-145702318D01*
X122327238Y-145701664D01*
X122328749Y-145702974D01*
X122328821Y-145704018D01*
X122326000Y-145718199D01*
X122326000Y-146937801D01*
X122328978Y-146952774D01*
X122328335Y-146954668D01*
X122326373Y-146955058D01*
X122325733Y-146954699D01*
X122274054Y-146911511D01*
X122205339Y-146902880D01*
X122142709Y-146932844D01*
X122124652Y-146953682D01*
X122122762Y-146954336D01*
X122121251Y-146953026D01*
X122121179Y-146951982D01*
X122124000Y-146937801D01*
X122124000Y-145718199D01*
X122121022Y-145703226D01*
X122121665Y-145701332D01*
X122123627Y-145700942D01*
X122124267Y-145701301D01*
G37*
G36*
X109918693Y-139914460D02*
G01*
X109931425Y-139922967D01*
X109997789Y-139943747D01*
X110068589Y-139922958D01*
X110081307Y-139914460D01*
X110083303Y-139914329D01*
X110084414Y-139915992D01*
X110084081Y-139917234D01*
X110060476Y-139952561D01*
X110051000Y-140000199D01*
X110051000Y-141324801D01*
X110060476Y-141372439D01*
X110084081Y-141407766D01*
X110084212Y-141409762D01*
X110082549Y-141410873D01*
X110081307Y-141410540D01*
X110068575Y-141402033D01*
X110002211Y-141381253D01*
X109931411Y-141402042D01*
X109918693Y-141410540D01*
X109916697Y-141410671D01*
X109915586Y-141409008D01*
X109915919Y-141407766D01*
X109939524Y-141372439D01*
X109949000Y-141324801D01*
X109949000Y-140000199D01*
X109939524Y-139952561D01*
X109915919Y-139917234D01*
X109915788Y-139915238D01*
X109917451Y-139914127D01*
X109918693Y-139914460D01*
G37*
G36*
X111418693Y-139914460D02*
G01*
X111431425Y-139922967D01*
X111497789Y-139943747D01*
X111568589Y-139922958D01*
X111581307Y-139914460D01*
X111583303Y-139914329D01*
X111584414Y-139915992D01*
X111584081Y-139917234D01*
X111560476Y-139952561D01*
X111551000Y-140000199D01*
X111551000Y-141324801D01*
X111560476Y-141372439D01*
X111584081Y-141407766D01*
X111584212Y-141409762D01*
X111582549Y-141410873D01*
X111581307Y-141410540D01*
X111568575Y-141402033D01*
X111502211Y-141381253D01*
X111431411Y-141402042D01*
X111418693Y-141410540D01*
X111416697Y-141410671D01*
X111415586Y-141409008D01*
X111415919Y-141407766D01*
X111439524Y-141372439D01*
X111449000Y-141324801D01*
X111449000Y-140000199D01*
X111439524Y-139952561D01*
X111415919Y-139917234D01*
X111415788Y-139915238D01*
X111417451Y-139914127D01*
X111418693Y-139914460D01*
G37*
G36*
X110918693Y-139914460D02*
G01*
X110931425Y-139922967D01*
X110997789Y-139943747D01*
X111068589Y-139922958D01*
X111081307Y-139914460D01*
X111083303Y-139914329D01*
X111084414Y-139915992D01*
X111084081Y-139917234D01*
X111060476Y-139952561D01*
X111051000Y-140000199D01*
X111051000Y-141324801D01*
X111060476Y-141372439D01*
X111084081Y-141407766D01*
X111084212Y-141409762D01*
X111082549Y-141410873D01*
X111081307Y-141410540D01*
X111068575Y-141402033D01*
X111002211Y-141381253D01*
X110931411Y-141402042D01*
X110918693Y-141410540D01*
X110916697Y-141410671D01*
X110915586Y-141409008D01*
X110915919Y-141407766D01*
X110939524Y-141372439D01*
X110949000Y-141324801D01*
X110949000Y-140000199D01*
X110939524Y-139952561D01*
X110915919Y-139917234D01*
X110915788Y-139915238D01*
X110917451Y-139914127D01*
X110918693Y-139914460D01*
G37*
G36*
X110418693Y-139914460D02*
G01*
X110431425Y-139922967D01*
X110497789Y-139943747D01*
X110568589Y-139922958D01*
X110581307Y-139914460D01*
X110583303Y-139914329D01*
X110584414Y-139915992D01*
X110584081Y-139917234D01*
X110560476Y-139952561D01*
X110551000Y-140000199D01*
X110551000Y-141324801D01*
X110560476Y-141372439D01*
X110584081Y-141407766D01*
X110584212Y-141409762D01*
X110582549Y-141410873D01*
X110581307Y-141410540D01*
X110568575Y-141402033D01*
X110502211Y-141381253D01*
X110431411Y-141402042D01*
X110418693Y-141410540D01*
X110416697Y-141410671D01*
X110415586Y-141409008D01*
X110415919Y-141407766D01*
X110439524Y-141372439D01*
X110449000Y-141324801D01*
X110449000Y-140000199D01*
X110439524Y-139952561D01*
X110415919Y-139917234D01*
X110415788Y-139915238D01*
X110417451Y-139914127D01*
X110418693Y-139914460D01*
G37*
G36*
X109418693Y-139914460D02*
G01*
X109431425Y-139922967D01*
X109497789Y-139943747D01*
X109568589Y-139922958D01*
X109581307Y-139914460D01*
X109583303Y-139914329D01*
X109584414Y-139915992D01*
X109584081Y-139917234D01*
X109560476Y-139952561D01*
X109551000Y-140000199D01*
X109551000Y-141324801D01*
X109560476Y-141372439D01*
X109584081Y-141407766D01*
X109584212Y-141409762D01*
X109582549Y-141410873D01*
X109581307Y-141410540D01*
X109568575Y-141402033D01*
X109502211Y-141381253D01*
X109431411Y-141402042D01*
X109418693Y-141410540D01*
X109416697Y-141410671D01*
X109415586Y-141409008D01*
X109415919Y-141407766D01*
X109439524Y-141372439D01*
X109449000Y-141324801D01*
X109449000Y-140000199D01*
X109439524Y-139952561D01*
X109415919Y-139917234D01*
X109415788Y-139915238D01*
X109417451Y-139914127D01*
X109418693Y-139914460D01*
G37*
G36*
X108918693Y-139914460D02*
G01*
X108931425Y-139922967D01*
X108997789Y-139943747D01*
X109068589Y-139922958D01*
X109081307Y-139914460D01*
X109083303Y-139914329D01*
X109084414Y-139915992D01*
X109084081Y-139917234D01*
X109060476Y-139952561D01*
X109051000Y-140000199D01*
X109051000Y-141324801D01*
X109060476Y-141372439D01*
X109084081Y-141407766D01*
X109084212Y-141409762D01*
X109082549Y-141410873D01*
X109081307Y-141410540D01*
X109068575Y-141402033D01*
X109002211Y-141381253D01*
X108931411Y-141402042D01*
X108918693Y-141410540D01*
X108916697Y-141410671D01*
X108915586Y-141409008D01*
X108915919Y-141407766D01*
X108939524Y-141372439D01*
X108949000Y-141324801D01*
X108949000Y-140000199D01*
X108939524Y-139952561D01*
X108915919Y-139917234D01*
X108915788Y-139915238D01*
X108917451Y-139914127D01*
X108918693Y-139914460D01*
G37*
G36*
X108418693Y-139914460D02*
G01*
X108431425Y-139922967D01*
X108497789Y-139943747D01*
X108568589Y-139922958D01*
X108581307Y-139914460D01*
X108583303Y-139914329D01*
X108584414Y-139915992D01*
X108584081Y-139917234D01*
X108560476Y-139952561D01*
X108551000Y-140000199D01*
X108551000Y-141324801D01*
X108560476Y-141372439D01*
X108584081Y-141407766D01*
X108584212Y-141409762D01*
X108582549Y-141410873D01*
X108581307Y-141410540D01*
X108568575Y-141402033D01*
X108502211Y-141381253D01*
X108431411Y-141402042D01*
X108418693Y-141410540D01*
X108416697Y-141410671D01*
X108415586Y-141409008D01*
X108415919Y-141407766D01*
X108439524Y-141372439D01*
X108449000Y-141324801D01*
X108449000Y-140000199D01*
X108439524Y-139952561D01*
X108415919Y-139917234D01*
X108415788Y-139915238D01*
X108417451Y-139914127D01*
X108418693Y-139914460D01*
G37*
G36*
X107918693Y-139914460D02*
G01*
X107931425Y-139922967D01*
X107997789Y-139943747D01*
X108068589Y-139922958D01*
X108081307Y-139914460D01*
X108083303Y-139914329D01*
X108084414Y-139915992D01*
X108084081Y-139917234D01*
X108060476Y-139952561D01*
X108051000Y-140000199D01*
X108051000Y-141324801D01*
X108060476Y-141372439D01*
X108084081Y-141407766D01*
X108084212Y-141409762D01*
X108082549Y-141410873D01*
X108081307Y-141410540D01*
X108068575Y-141402033D01*
X108002211Y-141381253D01*
X107931411Y-141402042D01*
X107918693Y-141410540D01*
X107916697Y-141410671D01*
X107915586Y-141409008D01*
X107915919Y-141407766D01*
X107939524Y-141372439D01*
X107949000Y-141324801D01*
X107949000Y-140000199D01*
X107939524Y-139952561D01*
X107915919Y-139917234D01*
X107915788Y-139915238D01*
X107917451Y-139914127D01*
X107918693Y-139914460D01*
G37*
G36*
X107418693Y-139914460D02*
G01*
X107431425Y-139922967D01*
X107497789Y-139943747D01*
X107568589Y-139922958D01*
X107581307Y-139914460D01*
X107583303Y-139914329D01*
X107584414Y-139915992D01*
X107584081Y-139917234D01*
X107560476Y-139952561D01*
X107551000Y-140000199D01*
X107551000Y-141324801D01*
X107560476Y-141372439D01*
X107584081Y-141407766D01*
X107584212Y-141409762D01*
X107582549Y-141410873D01*
X107581307Y-141410540D01*
X107568575Y-141402033D01*
X107502211Y-141381253D01*
X107431411Y-141402042D01*
X107418693Y-141410540D01*
X107416697Y-141410671D01*
X107415586Y-141409008D01*
X107415919Y-141407766D01*
X107439524Y-141372439D01*
X107449000Y-141324801D01*
X107449000Y-140000199D01*
X107439524Y-139952561D01*
X107415919Y-139917234D01*
X107415788Y-139915238D01*
X107417451Y-139914127D01*
X107418693Y-139914460D01*
G37*
G36*
X106418693Y-139914460D02*
G01*
X106431425Y-139922967D01*
X106497789Y-139943747D01*
X106568589Y-139922958D01*
X106581307Y-139914460D01*
X106583303Y-139914329D01*
X106584414Y-139915992D01*
X106584081Y-139917234D01*
X106560476Y-139952561D01*
X106551000Y-140000199D01*
X106551000Y-141324801D01*
X106560476Y-141372439D01*
X106584081Y-141407766D01*
X106584212Y-141409762D01*
X106582549Y-141410873D01*
X106581307Y-141410540D01*
X106568575Y-141402033D01*
X106502211Y-141381253D01*
X106431411Y-141402042D01*
X106418693Y-141410540D01*
X106416697Y-141410671D01*
X106415586Y-141409008D01*
X106415919Y-141407766D01*
X106439524Y-141372439D01*
X106449000Y-141324801D01*
X106449000Y-140000199D01*
X106439524Y-139952561D01*
X106415919Y-139917234D01*
X106415788Y-139915238D01*
X106417451Y-139914127D01*
X106418693Y-139914460D01*
G37*
G36*
X106918693Y-139914460D02*
G01*
X106931425Y-139922967D01*
X106997789Y-139943747D01*
X107068589Y-139922958D01*
X107081307Y-139914460D01*
X107083303Y-139914329D01*
X107084414Y-139915992D01*
X107084081Y-139917234D01*
X107060476Y-139952561D01*
X107051000Y-140000199D01*
X107051000Y-141324801D01*
X107060476Y-141372439D01*
X107084081Y-141407766D01*
X107084212Y-141409762D01*
X107082549Y-141410873D01*
X107081307Y-141410540D01*
X107068575Y-141402033D01*
X107002211Y-141381253D01*
X106931411Y-141402042D01*
X106918693Y-141410540D01*
X106916697Y-141410671D01*
X106915586Y-141409008D01*
X106915919Y-141407766D01*
X106939524Y-141372439D01*
X106949000Y-141324801D01*
X106949000Y-140000199D01*
X106939524Y-139952561D01*
X106915919Y-139917234D01*
X106915788Y-139915238D01*
X106917451Y-139914127D01*
X106918693Y-139914460D01*
G37*
G36*
X112417234Y-138915919D02*
G01*
X112452561Y-138939524D01*
X112500199Y-138949000D01*
X113824801Y-138949000D01*
X113872439Y-138939524D01*
X113907766Y-138915919D01*
X113909762Y-138915788D01*
X113910873Y-138917451D01*
X113910540Y-138918693D01*
X113902033Y-138931425D01*
X113881253Y-138997789D01*
X113902042Y-139068589D01*
X113910540Y-139081307D01*
X113910671Y-139083303D01*
X113909008Y-139084414D01*
X113907766Y-139084081D01*
X113872439Y-139060476D01*
X113824801Y-139051000D01*
X112500199Y-139051000D01*
X112452561Y-139060476D01*
X112417234Y-139084081D01*
X112415238Y-139084212D01*
X112414127Y-139082549D01*
X112414460Y-139081307D01*
X112422967Y-139068575D01*
X112443747Y-139002211D01*
X112422958Y-138931411D01*
X112414460Y-138918693D01*
X112414329Y-138916697D01*
X112415992Y-138915586D01*
X112417234Y-138915919D01*
G37*
G36*
X104092234Y-138915919D02*
G01*
X104127561Y-138939524D01*
X104175199Y-138949000D01*
X105499801Y-138949000D01*
X105547439Y-138939524D01*
X105582766Y-138915919D01*
X105584762Y-138915788D01*
X105585873Y-138917451D01*
X105585540Y-138918693D01*
X105577033Y-138931425D01*
X105556253Y-138997789D01*
X105577042Y-139068589D01*
X105585540Y-139081307D01*
X105585671Y-139083303D01*
X105584008Y-139084414D01*
X105582766Y-139084081D01*
X105547439Y-139060476D01*
X105499801Y-139051000D01*
X104175199Y-139051000D01*
X104127561Y-139060476D01*
X104092234Y-139084081D01*
X104090238Y-139084212D01*
X104089127Y-139082549D01*
X104089460Y-139081307D01*
X104097967Y-139068575D01*
X104118747Y-139002211D01*
X104097958Y-138931411D01*
X104089460Y-138918693D01*
X104089329Y-138916697D01*
X104090992Y-138915586D01*
X104092234Y-138915919D01*
G37*
G36*
X123389633Y-137165217D02*
G01*
X123390197Y-137167136D01*
X123389916Y-137167775D01*
X123379767Y-137182963D01*
X123376000Y-137201899D01*
X123376000Y-138651501D01*
X123379767Y-138670438D01*
X123389814Y-138685473D01*
X123389945Y-138687468D01*
X123388282Y-138688580D01*
X123387553Y-138688493D01*
X123327212Y-138669598D01*
X123262310Y-138688655D01*
X123260367Y-138688183D01*
X123259803Y-138686264D01*
X123260084Y-138685625D01*
X123270233Y-138670437D01*
X123274000Y-138651501D01*
X123274000Y-137201899D01*
X123270233Y-137182962D01*
X123260186Y-137167927D01*
X123260055Y-137165932D01*
X123261718Y-137164820D01*
X123262447Y-137164907D01*
X123322788Y-137183802D01*
X123387690Y-137164745D01*
X123389633Y-137165217D01*
G37*
G36*
X122089633Y-137165217D02*
G01*
X122090197Y-137167136D01*
X122089916Y-137167775D01*
X122079767Y-137182963D01*
X122076000Y-137201899D01*
X122076000Y-138651501D01*
X122079767Y-138670438D01*
X122089814Y-138685473D01*
X122089945Y-138687468D01*
X122088282Y-138688580D01*
X122087553Y-138688493D01*
X122027212Y-138669598D01*
X121962310Y-138688655D01*
X121960367Y-138688183D01*
X121959803Y-138686264D01*
X121960084Y-138685625D01*
X121970233Y-138670437D01*
X121974000Y-138651501D01*
X121974000Y-137201899D01*
X121970233Y-137182962D01*
X121960186Y-137167927D01*
X121960055Y-137165932D01*
X121961718Y-137164820D01*
X121962447Y-137164907D01*
X122022788Y-137183802D01*
X122087690Y-137164745D01*
X122089633Y-137165217D01*
G37*
G36*
X122739633Y-137165217D02*
G01*
X122740197Y-137167136D01*
X122739916Y-137167775D01*
X122729767Y-137182963D01*
X122726000Y-137201899D01*
X122726000Y-138651501D01*
X122729767Y-138670438D01*
X122739814Y-138685473D01*
X122739945Y-138687468D01*
X122738282Y-138688580D01*
X122737553Y-138688493D01*
X122677212Y-138669598D01*
X122612310Y-138688655D01*
X122610367Y-138688183D01*
X122609803Y-138686264D01*
X122610084Y-138685625D01*
X122620233Y-138670437D01*
X122624000Y-138651501D01*
X122624000Y-137201899D01*
X122620233Y-137182962D01*
X122610186Y-137167927D01*
X122610055Y-137165932D01*
X122611718Y-137164820D01*
X122612447Y-137164907D01*
X122672788Y-137183802D01*
X122737690Y-137164745D01*
X122739633Y-137165217D01*
G37*
G36*
X124039633Y-137165217D02*
G01*
X124040197Y-137167136D01*
X124039916Y-137167775D01*
X124029767Y-137182963D01*
X124026000Y-137201899D01*
X124026000Y-138651501D01*
X124029767Y-138670438D01*
X124039814Y-138685473D01*
X124039945Y-138687468D01*
X124038282Y-138688580D01*
X124037553Y-138688493D01*
X123977212Y-138669598D01*
X123912310Y-138688655D01*
X123910367Y-138688183D01*
X123909803Y-138686264D01*
X123910084Y-138685625D01*
X123920233Y-138670437D01*
X123924000Y-138651501D01*
X123924000Y-137201899D01*
X123920233Y-137182962D01*
X123910186Y-137167927D01*
X123910055Y-137165932D01*
X123911718Y-137164820D01*
X123912447Y-137164907D01*
X123972788Y-137183802D01*
X124037690Y-137164745D01*
X124039633Y-137165217D01*
G37*
G36*
X124689633Y-137165217D02*
G01*
X124690197Y-137167136D01*
X124689916Y-137167775D01*
X124679767Y-137182963D01*
X124676000Y-137201899D01*
X124676000Y-138651501D01*
X124679767Y-138670438D01*
X124689814Y-138685473D01*
X124689945Y-138687468D01*
X124688282Y-138688580D01*
X124687553Y-138688493D01*
X124627212Y-138669598D01*
X124562310Y-138688655D01*
X124560367Y-138688183D01*
X124559803Y-138686264D01*
X124560084Y-138685625D01*
X124570233Y-138670437D01*
X124574000Y-138651501D01*
X124574000Y-137201899D01*
X124570233Y-137182962D01*
X124560186Y-137167927D01*
X124560055Y-137165932D01*
X124561718Y-137164820D01*
X124562447Y-137164907D01*
X124622788Y-137183802D01*
X124687690Y-137164745D01*
X124689633Y-137165217D01*
G37*
G36*
X125339633Y-137165217D02*
G01*
X125340197Y-137167136D01*
X125339916Y-137167775D01*
X125329767Y-137182963D01*
X125326000Y-137201899D01*
X125326000Y-138651501D01*
X125329767Y-138670438D01*
X125339814Y-138685473D01*
X125339945Y-138687468D01*
X125338282Y-138688580D01*
X125337553Y-138688493D01*
X125277212Y-138669598D01*
X125212310Y-138688655D01*
X125210367Y-138688183D01*
X125209803Y-138686264D01*
X125210084Y-138685625D01*
X125220233Y-138670437D01*
X125224000Y-138651501D01*
X125224000Y-137201899D01*
X125220233Y-137182962D01*
X125210186Y-137167927D01*
X125210055Y-137165932D01*
X125211718Y-137164820D01*
X125212447Y-137164907D01*
X125272788Y-137183802D01*
X125337690Y-137164745D01*
X125339633Y-137165217D01*
G37*
G36*
X152441900Y-138362499D02*
G01*
X152441900Y-138364499D01*
X152440497Y-138365472D01*
X152440491Y-138365473D01*
X152440162Y-138365500D01*
X151902771Y-138365500D01*
X151836032Y-138385096D01*
X151790677Y-138437439D01*
X151780789Y-138506212D01*
X151784757Y-138524123D01*
X151809621Y-138606477D01*
X151809164Y-138608424D01*
X151807249Y-138609002D01*
X151805804Y-138607673D01*
X151775590Y-138514685D01*
X151688880Y-138364499D01*
X151688880Y-138362499D01*
X151690612Y-138361499D01*
X152440168Y-138361499D01*
X152441900Y-138362499D01*
G37*
G36*
X150311120Y-138362500D02*
G01*
X150311120Y-138364500D01*
X150224410Y-138514685D01*
X150195933Y-138602326D01*
X150194447Y-138603664D01*
X150192545Y-138603046D01*
X150192125Y-138601103D01*
X150215960Y-138525967D01*
X150217461Y-138456422D01*
X150181285Y-138397366D01*
X150118725Y-138367147D01*
X150098642Y-138365493D01*
X150096998Y-138364354D01*
X150097162Y-138362361D01*
X150098806Y-138361500D01*
X150309388Y-138361500D01*
X150311120Y-138362500D01*
G37*
G36*
X104092234Y-138415919D02*
G01*
X104127561Y-138439524D01*
X104175199Y-138449000D01*
X105499801Y-138449000D01*
X105547439Y-138439524D01*
X105582766Y-138415919D01*
X105584762Y-138415788D01*
X105585873Y-138417451D01*
X105585540Y-138418693D01*
X105577033Y-138431425D01*
X105556253Y-138497789D01*
X105577042Y-138568589D01*
X105585540Y-138581307D01*
X105585671Y-138583303D01*
X105584008Y-138584414D01*
X105582766Y-138584081D01*
X105547439Y-138560476D01*
X105499801Y-138551000D01*
X104175199Y-138551000D01*
X104127561Y-138560476D01*
X104092234Y-138584081D01*
X104090238Y-138584212D01*
X104089127Y-138582549D01*
X104089460Y-138581307D01*
X104097967Y-138568575D01*
X104118747Y-138502211D01*
X104097958Y-138431411D01*
X104089460Y-138418693D01*
X104089329Y-138416697D01*
X104090992Y-138415586D01*
X104092234Y-138415919D01*
G37*
G36*
X112417234Y-138415919D02*
G01*
X112452561Y-138439524D01*
X112500199Y-138449000D01*
X113824801Y-138449000D01*
X113872439Y-138439524D01*
X113907766Y-138415919D01*
X113909762Y-138415788D01*
X113910873Y-138417451D01*
X113910540Y-138418693D01*
X113902033Y-138431425D01*
X113881253Y-138497789D01*
X113902042Y-138568589D01*
X113910540Y-138581307D01*
X113910671Y-138583303D01*
X113909008Y-138584414D01*
X113907766Y-138584081D01*
X113872439Y-138560476D01*
X113824801Y-138551000D01*
X112500199Y-138551000D01*
X112452561Y-138560476D01*
X112417234Y-138584081D01*
X112415238Y-138584212D01*
X112414127Y-138582549D01*
X112414460Y-138581307D01*
X112422967Y-138568575D01*
X112443747Y-138502211D01*
X112422958Y-138431411D01*
X112414460Y-138418693D01*
X112414329Y-138416697D01*
X112415992Y-138415586D01*
X112417234Y-138415919D01*
G37*
G36*
X104092234Y-137915919D02*
G01*
X104127561Y-137939524D01*
X104175199Y-137949000D01*
X105499801Y-137949000D01*
X105547439Y-137939524D01*
X105582766Y-137915919D01*
X105584762Y-137915788D01*
X105585873Y-137917451D01*
X105585540Y-137918693D01*
X105577033Y-137931425D01*
X105556253Y-137997789D01*
X105577042Y-138068589D01*
X105585540Y-138081307D01*
X105585671Y-138083303D01*
X105584008Y-138084414D01*
X105582766Y-138084081D01*
X105547439Y-138060476D01*
X105499801Y-138051000D01*
X104175199Y-138051000D01*
X104127561Y-138060476D01*
X104092234Y-138084081D01*
X104090238Y-138084212D01*
X104089127Y-138082549D01*
X104089460Y-138081307D01*
X104097967Y-138068575D01*
X104118747Y-138002211D01*
X104097958Y-137931411D01*
X104089460Y-137918693D01*
X104089329Y-137916697D01*
X104090992Y-137915586D01*
X104092234Y-137915919D01*
G37*
G36*
X112417234Y-137915919D02*
G01*
X112452561Y-137939524D01*
X112500199Y-137949000D01*
X113824801Y-137949000D01*
X113872439Y-137939524D01*
X113907766Y-137915919D01*
X113909762Y-137915788D01*
X113910873Y-137917451D01*
X113910540Y-137918693D01*
X113902033Y-137931425D01*
X113881253Y-137997789D01*
X113902042Y-138068589D01*
X113910540Y-138081307D01*
X113910671Y-138083303D01*
X113909008Y-138084414D01*
X113907766Y-138084081D01*
X113872439Y-138060476D01*
X113824801Y-138051000D01*
X112500199Y-138051000D01*
X112452561Y-138060476D01*
X112417234Y-138084081D01*
X112415238Y-138084212D01*
X112414127Y-138082549D01*
X112414460Y-138081307D01*
X112422967Y-138068575D01*
X112443747Y-138002211D01*
X112422958Y-137931411D01*
X112414460Y-137918693D01*
X112414329Y-137916697D01*
X112415992Y-137915586D01*
X112417234Y-137915919D01*
G37*
G36*
X112417234Y-137415919D02*
G01*
X112452561Y-137439524D01*
X112500199Y-137449000D01*
X113824801Y-137449000D01*
X113872439Y-137439524D01*
X113907766Y-137415919D01*
X113909762Y-137415788D01*
X113910873Y-137417451D01*
X113910540Y-137418693D01*
X113902033Y-137431425D01*
X113881253Y-137497789D01*
X113902042Y-137568589D01*
X113910540Y-137581307D01*
X113910671Y-137583303D01*
X113909008Y-137584414D01*
X113907766Y-137584081D01*
X113872439Y-137560476D01*
X113824801Y-137551000D01*
X112500199Y-137551000D01*
X112452561Y-137560476D01*
X112417234Y-137584081D01*
X112415238Y-137584212D01*
X112414127Y-137582549D01*
X112414460Y-137581307D01*
X112422967Y-137568575D01*
X112443747Y-137502211D01*
X112422958Y-137431411D01*
X112414460Y-137418693D01*
X112414329Y-137416697D01*
X112415992Y-137415586D01*
X112417234Y-137415919D01*
G37*
G36*
X104092234Y-137415919D02*
G01*
X104127561Y-137439524D01*
X104175199Y-137449000D01*
X105499801Y-137449000D01*
X105547439Y-137439524D01*
X105582766Y-137415919D01*
X105584762Y-137415788D01*
X105585873Y-137417451D01*
X105585540Y-137418693D01*
X105577033Y-137431425D01*
X105556253Y-137497789D01*
X105577042Y-137568589D01*
X105585540Y-137581307D01*
X105585671Y-137583303D01*
X105584008Y-137584414D01*
X105582766Y-137584081D01*
X105547439Y-137560476D01*
X105499801Y-137551000D01*
X104175199Y-137551000D01*
X104127561Y-137560476D01*
X104092234Y-137584081D01*
X104090238Y-137584212D01*
X104089127Y-137582549D01*
X104089460Y-137581307D01*
X104097967Y-137568575D01*
X104118747Y-137502211D01*
X104097958Y-137431411D01*
X104089460Y-137418693D01*
X104089329Y-137416697D01*
X104090992Y-137415586D01*
X104092234Y-137415919D01*
G37*
G36*
X104092234Y-136915919D02*
G01*
X104127561Y-136939524D01*
X104175199Y-136949000D01*
X105499801Y-136949000D01*
X105547439Y-136939524D01*
X105582766Y-136915919D01*
X105584762Y-136915788D01*
X105585873Y-136917451D01*
X105585540Y-136918693D01*
X105577033Y-136931425D01*
X105556253Y-136997789D01*
X105577042Y-137068589D01*
X105585540Y-137081307D01*
X105585671Y-137083303D01*
X105584008Y-137084414D01*
X105582766Y-137084081D01*
X105547439Y-137060476D01*
X105499801Y-137051000D01*
X104175199Y-137051000D01*
X104127561Y-137060476D01*
X104092234Y-137084081D01*
X104090238Y-137084212D01*
X104089127Y-137082549D01*
X104089460Y-137081307D01*
X104097967Y-137068575D01*
X104118747Y-137002211D01*
X104097958Y-136931411D01*
X104089460Y-136918693D01*
X104089329Y-136916697D01*
X104090992Y-136915586D01*
X104092234Y-136915919D01*
G37*
G36*
X112417234Y-136915919D02*
G01*
X112452561Y-136939524D01*
X112500199Y-136949000D01*
X113824801Y-136949000D01*
X113872439Y-136939524D01*
X113907766Y-136915919D01*
X113909762Y-136915788D01*
X113910873Y-136917451D01*
X113910540Y-136918693D01*
X113902033Y-136931425D01*
X113881253Y-136997789D01*
X113902042Y-137068589D01*
X113910540Y-137081307D01*
X113910671Y-137083303D01*
X113909008Y-137084414D01*
X113907766Y-137084081D01*
X113872439Y-137060476D01*
X113824801Y-137051000D01*
X112500199Y-137051000D01*
X112452561Y-137060476D01*
X112417234Y-137084081D01*
X112415238Y-137084212D01*
X112414127Y-137082549D01*
X112414460Y-137081307D01*
X112422967Y-137068575D01*
X112443747Y-137002211D01*
X112422958Y-136931411D01*
X112414460Y-136918693D01*
X112414329Y-136916697D01*
X112415992Y-136915586D01*
X112417234Y-136915919D01*
G37*
G36*
X112417234Y-136415919D02*
G01*
X112452561Y-136439524D01*
X112500199Y-136449000D01*
X113824801Y-136449000D01*
X113872439Y-136439524D01*
X113907766Y-136415919D01*
X113909762Y-136415788D01*
X113910873Y-136417451D01*
X113910540Y-136418693D01*
X113902033Y-136431425D01*
X113881253Y-136497789D01*
X113902042Y-136568589D01*
X113910540Y-136581307D01*
X113910671Y-136583303D01*
X113909008Y-136584414D01*
X113907766Y-136584081D01*
X113872439Y-136560476D01*
X113824801Y-136551000D01*
X112500199Y-136551000D01*
X112452561Y-136560476D01*
X112417234Y-136584081D01*
X112415238Y-136584212D01*
X112414127Y-136582549D01*
X112414460Y-136581307D01*
X112422967Y-136568575D01*
X112443747Y-136502211D01*
X112422958Y-136431411D01*
X112414460Y-136418693D01*
X112414329Y-136416697D01*
X112415992Y-136415586D01*
X112417234Y-136415919D01*
G37*
G36*
X104092234Y-136415919D02*
G01*
X104127561Y-136439524D01*
X104175199Y-136449000D01*
X105499801Y-136449000D01*
X105547439Y-136439524D01*
X105582766Y-136415919D01*
X105584762Y-136415788D01*
X105585873Y-136417451D01*
X105585540Y-136418693D01*
X105577033Y-136431425D01*
X105556253Y-136497789D01*
X105577042Y-136568589D01*
X105585540Y-136581307D01*
X105585671Y-136583303D01*
X105584008Y-136584414D01*
X105582766Y-136584081D01*
X105547439Y-136560476D01*
X105499801Y-136551000D01*
X104175199Y-136551000D01*
X104127561Y-136560476D01*
X104092234Y-136584081D01*
X104090238Y-136584212D01*
X104089127Y-136582549D01*
X104089460Y-136581307D01*
X104097967Y-136568575D01*
X104118747Y-136502211D01*
X104097958Y-136431411D01*
X104089460Y-136418693D01*
X104089329Y-136416697D01*
X104090992Y-136415586D01*
X104092234Y-136415919D01*
G37*
G36*
X112417234Y-135915919D02*
G01*
X112452561Y-135939524D01*
X112500199Y-135949000D01*
X113824801Y-135949000D01*
X113872439Y-135939524D01*
X113907766Y-135915919D01*
X113909762Y-135915788D01*
X113910873Y-135917451D01*
X113910540Y-135918693D01*
X113902033Y-135931425D01*
X113881253Y-135997789D01*
X113902042Y-136068589D01*
X113910540Y-136081307D01*
X113910671Y-136083303D01*
X113909008Y-136084414D01*
X113907766Y-136084081D01*
X113872439Y-136060476D01*
X113824801Y-136051000D01*
X112500199Y-136051000D01*
X112452561Y-136060476D01*
X112417234Y-136084081D01*
X112415238Y-136084212D01*
X112414127Y-136082549D01*
X112414460Y-136081307D01*
X112422967Y-136068575D01*
X112443747Y-136002211D01*
X112422958Y-135931411D01*
X112414460Y-135918693D01*
X112414329Y-135916697D01*
X112415992Y-135915586D01*
X112417234Y-135915919D01*
G37*
G36*
X104092234Y-135915919D02*
G01*
X104127561Y-135939524D01*
X104175199Y-135949000D01*
X105499801Y-135949000D01*
X105547439Y-135939524D01*
X105582766Y-135915919D01*
X105584762Y-135915788D01*
X105585873Y-135917451D01*
X105585540Y-135918693D01*
X105577033Y-135931425D01*
X105556253Y-135997789D01*
X105577042Y-136068589D01*
X105585540Y-136081307D01*
X105585671Y-136083303D01*
X105584008Y-136084414D01*
X105582766Y-136084081D01*
X105547439Y-136060476D01*
X105499801Y-136051000D01*
X104175199Y-136051000D01*
X104127561Y-136060476D01*
X104092234Y-136084081D01*
X104090238Y-136084212D01*
X104089127Y-136082549D01*
X104089460Y-136081307D01*
X104097967Y-136068575D01*
X104118747Y-136002211D01*
X104097958Y-135931411D01*
X104089460Y-135918693D01*
X104089329Y-135916697D01*
X104090992Y-135915586D01*
X104092234Y-135915919D01*
G37*
G36*
X112417234Y-135415919D02*
G01*
X112452561Y-135439524D01*
X112500199Y-135449000D01*
X113824801Y-135449000D01*
X113872439Y-135439524D01*
X113907766Y-135415919D01*
X113909762Y-135415788D01*
X113910873Y-135417451D01*
X113910540Y-135418693D01*
X113902033Y-135431425D01*
X113881253Y-135497789D01*
X113902042Y-135568589D01*
X113910540Y-135581307D01*
X113910671Y-135583303D01*
X113909008Y-135584414D01*
X113907766Y-135584081D01*
X113872439Y-135560476D01*
X113824801Y-135551000D01*
X112500199Y-135551000D01*
X112452561Y-135560476D01*
X112417234Y-135584081D01*
X112415238Y-135584212D01*
X112414127Y-135582549D01*
X112414460Y-135581307D01*
X112422967Y-135568575D01*
X112443747Y-135502211D01*
X112422958Y-135431411D01*
X112414460Y-135418693D01*
X112414329Y-135416697D01*
X112415992Y-135415586D01*
X112417234Y-135415919D01*
G37*
G36*
X104092234Y-135415919D02*
G01*
X104127561Y-135439524D01*
X104175199Y-135449000D01*
X105499801Y-135449000D01*
X105547439Y-135439524D01*
X105582766Y-135415919D01*
X105584762Y-135415788D01*
X105585873Y-135417451D01*
X105585540Y-135418693D01*
X105577033Y-135431425D01*
X105556253Y-135497789D01*
X105577042Y-135568589D01*
X105585540Y-135581307D01*
X105585671Y-135583303D01*
X105584008Y-135584414D01*
X105582766Y-135584081D01*
X105547439Y-135560476D01*
X105499801Y-135551000D01*
X104175199Y-135551000D01*
X104127561Y-135560476D01*
X104092234Y-135584081D01*
X104090238Y-135584212D01*
X104089127Y-135582549D01*
X104089460Y-135581307D01*
X104097967Y-135568575D01*
X104118747Y-135502211D01*
X104097958Y-135431411D01*
X104089460Y-135418693D01*
X104089329Y-135416697D01*
X104090992Y-135415586D01*
X104092234Y-135415919D01*
G37*
G36*
X152441894Y-135235500D02*
G01*
X152441894Y-135237500D01*
X152440162Y-135238500D01*
X148509832Y-135238501D01*
X148508100Y-135237501D01*
X148508100Y-135235501D01*
X148509503Y-135234528D01*
X148509509Y-135234527D01*
X148509838Y-135234500D01*
X152440162Y-135234500D01*
X152441894Y-135235500D01*
G37*
G36*
X104092234Y-134915919D02*
G01*
X104127561Y-134939524D01*
X104175199Y-134949000D01*
X105499801Y-134949000D01*
X105547439Y-134939524D01*
X105582766Y-134915919D01*
X105584762Y-134915788D01*
X105585873Y-134917451D01*
X105585540Y-134918693D01*
X105577033Y-134931425D01*
X105556253Y-134997789D01*
X105577042Y-135068589D01*
X105585540Y-135081307D01*
X105585671Y-135083303D01*
X105584008Y-135084414D01*
X105582766Y-135084081D01*
X105547439Y-135060476D01*
X105499801Y-135051000D01*
X104175199Y-135051000D01*
X104127561Y-135060476D01*
X104092234Y-135084081D01*
X104090238Y-135084212D01*
X104089127Y-135082549D01*
X104089460Y-135081307D01*
X104097967Y-135068575D01*
X104118747Y-135002211D01*
X104097958Y-134931411D01*
X104089460Y-134918693D01*
X104089329Y-134916697D01*
X104090992Y-134915586D01*
X104092234Y-134915919D01*
G37*
G36*
X112417234Y-134915919D02*
G01*
X112452561Y-134939524D01*
X112500199Y-134949000D01*
X113824801Y-134949000D01*
X113872439Y-134939524D01*
X113907766Y-134915919D01*
X113909762Y-134915788D01*
X113910873Y-134917451D01*
X113910540Y-134918693D01*
X113902033Y-134931425D01*
X113881253Y-134997789D01*
X113902042Y-135068589D01*
X113910540Y-135081307D01*
X113910671Y-135083303D01*
X113909008Y-135084414D01*
X113907766Y-135084081D01*
X113872439Y-135060476D01*
X113824801Y-135051000D01*
X112500199Y-135051000D01*
X112452561Y-135060476D01*
X112417234Y-135084081D01*
X112415238Y-135084212D01*
X112414127Y-135082549D01*
X112414460Y-135081307D01*
X112422967Y-135068575D01*
X112443747Y-135002211D01*
X112422958Y-134931411D01*
X112414460Y-134918693D01*
X112414329Y-134916697D01*
X112415992Y-134915586D01*
X112417234Y-134915919D01*
G37*
G36*
X112417234Y-134415919D02*
G01*
X112452561Y-134439524D01*
X112500199Y-134449000D01*
X113824801Y-134449000D01*
X113872439Y-134439524D01*
X113907766Y-134415919D01*
X113909762Y-134415788D01*
X113910873Y-134417451D01*
X113910540Y-134418693D01*
X113902033Y-134431425D01*
X113881253Y-134497789D01*
X113902042Y-134568589D01*
X113910540Y-134581307D01*
X113910671Y-134583303D01*
X113909008Y-134584414D01*
X113907766Y-134584081D01*
X113872439Y-134560476D01*
X113824801Y-134551000D01*
X112500199Y-134551000D01*
X112452561Y-134560476D01*
X112417234Y-134584081D01*
X112415238Y-134584212D01*
X112414127Y-134582549D01*
X112414460Y-134581307D01*
X112422967Y-134568575D01*
X112443747Y-134502211D01*
X112422958Y-134431411D01*
X112414460Y-134418693D01*
X112414329Y-134416697D01*
X112415992Y-134415586D01*
X112417234Y-134415919D01*
G37*
G36*
X104092234Y-134415919D02*
G01*
X104127561Y-134439524D01*
X104175199Y-134449000D01*
X105499801Y-134449000D01*
X105547439Y-134439524D01*
X105582766Y-134415919D01*
X105584762Y-134415788D01*
X105585873Y-134417451D01*
X105585540Y-134418693D01*
X105577033Y-134431425D01*
X105556253Y-134497789D01*
X105577042Y-134568589D01*
X105585540Y-134581307D01*
X105585671Y-134583303D01*
X105584008Y-134584414D01*
X105582766Y-134584081D01*
X105547439Y-134560476D01*
X105499801Y-134551000D01*
X104175199Y-134551000D01*
X104127561Y-134560476D01*
X104092234Y-134584081D01*
X104090238Y-134584212D01*
X104089127Y-134582549D01*
X104089460Y-134581307D01*
X104097967Y-134568575D01*
X104118747Y-134502211D01*
X104097958Y-134431411D01*
X104089460Y-134418693D01*
X104089329Y-134416697D01*
X104090992Y-134415586D01*
X104092234Y-134415919D01*
G37*
G36*
X112417234Y-133915919D02*
G01*
X112452561Y-133939524D01*
X112500199Y-133949000D01*
X113824801Y-133949000D01*
X113872439Y-133939524D01*
X113907766Y-133915919D01*
X113909762Y-133915788D01*
X113910873Y-133917451D01*
X113910540Y-133918693D01*
X113902033Y-133931425D01*
X113881253Y-133997789D01*
X113902042Y-134068589D01*
X113910540Y-134081307D01*
X113910671Y-134083303D01*
X113909008Y-134084414D01*
X113907766Y-134084081D01*
X113872439Y-134060476D01*
X113824801Y-134051000D01*
X112500199Y-134051000D01*
X112452561Y-134060476D01*
X112417234Y-134084081D01*
X112415238Y-134084212D01*
X112414127Y-134082549D01*
X112414460Y-134081307D01*
X112422967Y-134068575D01*
X112443747Y-134002211D01*
X112422958Y-133931411D01*
X112414460Y-133918693D01*
X112414329Y-133916697D01*
X112415992Y-133915586D01*
X112417234Y-133915919D01*
G37*
G36*
X104092234Y-133915919D02*
G01*
X104127561Y-133939524D01*
X104175199Y-133949000D01*
X105499801Y-133949000D01*
X105547439Y-133939524D01*
X105582766Y-133915919D01*
X105584762Y-133915788D01*
X105585873Y-133917451D01*
X105585540Y-133918693D01*
X105577033Y-133931425D01*
X105556253Y-133997789D01*
X105577042Y-134068589D01*
X105585540Y-134081307D01*
X105585671Y-134083303D01*
X105584008Y-134084414D01*
X105582766Y-134084081D01*
X105547439Y-134060476D01*
X105499801Y-134051000D01*
X104175199Y-134051000D01*
X104127561Y-134060476D01*
X104092234Y-134084081D01*
X104090238Y-134084212D01*
X104089127Y-134082549D01*
X104089460Y-134081307D01*
X104097967Y-134068575D01*
X104118747Y-134002211D01*
X104097958Y-133931411D01*
X104089460Y-133918693D01*
X104089329Y-133916697D01*
X104090992Y-133915586D01*
X104092234Y-133915919D01*
G37*
G36*
X152441900Y-133337499D02*
G01*
X152441900Y-133339499D01*
X152440497Y-133340472D01*
X152440491Y-133340473D01*
X152440162Y-133340500D01*
X148509838Y-133340500D01*
X148508106Y-133339500D01*
X148508106Y-133337500D01*
X148509838Y-133336500D01*
X152440168Y-133336499D01*
X152441900Y-133337499D01*
G37*
G36*
X107918693Y-131589460D02*
G01*
X107931425Y-131597967D01*
X107997789Y-131618747D01*
X108068589Y-131597958D01*
X108081307Y-131589460D01*
X108083303Y-131589329D01*
X108084414Y-131590992D01*
X108084081Y-131592234D01*
X108060476Y-131627561D01*
X108051000Y-131675199D01*
X108051000Y-132999801D01*
X108060476Y-133047439D01*
X108084081Y-133082766D01*
X108084212Y-133084762D01*
X108082549Y-133085873D01*
X108081307Y-133085540D01*
X108068575Y-133077033D01*
X108002211Y-133056253D01*
X107931411Y-133077042D01*
X107918693Y-133085540D01*
X107916697Y-133085671D01*
X107915586Y-133084008D01*
X107915919Y-133082766D01*
X107939524Y-133047439D01*
X107949000Y-132999801D01*
X107949000Y-131675199D01*
X107939524Y-131627561D01*
X107915919Y-131592234D01*
X107915788Y-131590238D01*
X107917451Y-131589127D01*
X107918693Y-131589460D01*
G37*
G36*
X109418693Y-131589460D02*
G01*
X109431425Y-131597967D01*
X109497789Y-131618747D01*
X109568589Y-131597958D01*
X109581307Y-131589460D01*
X109583303Y-131589329D01*
X109584414Y-131590992D01*
X109584081Y-131592234D01*
X109560476Y-131627561D01*
X109551000Y-131675199D01*
X109551000Y-132999801D01*
X109560476Y-133047439D01*
X109584081Y-133082766D01*
X109584212Y-133084762D01*
X109582549Y-133085873D01*
X109581307Y-133085540D01*
X109568575Y-133077033D01*
X109502211Y-133056253D01*
X109431411Y-133077042D01*
X109418693Y-133085540D01*
X109416697Y-133085671D01*
X109415586Y-133084008D01*
X109415919Y-133082766D01*
X109439524Y-133047439D01*
X109449000Y-132999801D01*
X109449000Y-131675199D01*
X109439524Y-131627561D01*
X109415919Y-131592234D01*
X109415788Y-131590238D01*
X109417451Y-131589127D01*
X109418693Y-131589460D01*
G37*
G36*
X106418693Y-131589460D02*
G01*
X106431425Y-131597967D01*
X106497789Y-131618747D01*
X106568589Y-131597958D01*
X106581307Y-131589460D01*
X106583303Y-131589329D01*
X106584414Y-131590992D01*
X106584081Y-131592234D01*
X106560476Y-131627561D01*
X106551000Y-131675199D01*
X106551000Y-132999801D01*
X106560476Y-133047439D01*
X106584081Y-133082766D01*
X106584212Y-133084762D01*
X106582549Y-133085873D01*
X106581307Y-133085540D01*
X106568575Y-133077033D01*
X106502211Y-133056253D01*
X106431411Y-133077042D01*
X106418693Y-133085540D01*
X106416697Y-133085671D01*
X106415586Y-133084008D01*
X106415919Y-133082766D01*
X106439524Y-133047439D01*
X106449000Y-132999801D01*
X106449000Y-131675199D01*
X106439524Y-131627561D01*
X106415919Y-131592234D01*
X106415788Y-131590238D01*
X106417451Y-131589127D01*
X106418693Y-131589460D01*
G37*
G36*
X107418693Y-131589460D02*
G01*
X107431425Y-131597967D01*
X107497789Y-131618747D01*
X107568589Y-131597958D01*
X107581307Y-131589460D01*
X107583303Y-131589329D01*
X107584414Y-131590992D01*
X107584081Y-131592234D01*
X107560476Y-131627561D01*
X107551000Y-131675199D01*
X107551000Y-132999801D01*
X107560476Y-133047439D01*
X107584081Y-133082766D01*
X107584212Y-133084762D01*
X107582549Y-133085873D01*
X107581307Y-133085540D01*
X107568575Y-133077033D01*
X107502211Y-133056253D01*
X107431411Y-133077042D01*
X107418693Y-133085540D01*
X107416697Y-133085671D01*
X107415586Y-133084008D01*
X107415919Y-133082766D01*
X107439524Y-133047439D01*
X107449000Y-132999801D01*
X107449000Y-131675199D01*
X107439524Y-131627561D01*
X107415919Y-131592234D01*
X107415788Y-131590238D01*
X107417451Y-131589127D01*
X107418693Y-131589460D01*
G37*
G36*
X108918693Y-131589460D02*
G01*
X108931425Y-131597967D01*
X108997789Y-131618747D01*
X109068589Y-131597958D01*
X109081307Y-131589460D01*
X109083303Y-131589329D01*
X109084414Y-131590992D01*
X109084081Y-131592234D01*
X109060476Y-131627561D01*
X109051000Y-131675199D01*
X109051000Y-132999801D01*
X109060476Y-133047439D01*
X109084081Y-133082766D01*
X109084212Y-133084762D01*
X109082549Y-133085873D01*
X109081307Y-133085540D01*
X109068575Y-133077033D01*
X109002211Y-133056253D01*
X108931411Y-133077042D01*
X108918693Y-133085540D01*
X108916697Y-133085671D01*
X108915586Y-133084008D01*
X108915919Y-133082766D01*
X108939524Y-133047439D01*
X108949000Y-132999801D01*
X108949000Y-131675199D01*
X108939524Y-131627561D01*
X108915919Y-131592234D01*
X108915788Y-131590238D01*
X108917451Y-131589127D01*
X108918693Y-131589460D01*
G37*
G36*
X110418693Y-131589460D02*
G01*
X110431425Y-131597967D01*
X110497789Y-131618747D01*
X110568589Y-131597958D01*
X110581307Y-131589460D01*
X110583303Y-131589329D01*
X110584414Y-131590992D01*
X110584081Y-131592234D01*
X110560476Y-131627561D01*
X110551000Y-131675199D01*
X110551000Y-132999801D01*
X110560476Y-133047439D01*
X110584081Y-133082766D01*
X110584212Y-133084762D01*
X110582549Y-133085873D01*
X110581307Y-133085540D01*
X110568575Y-133077033D01*
X110502211Y-133056253D01*
X110431411Y-133077042D01*
X110418693Y-133085540D01*
X110416697Y-133085671D01*
X110415586Y-133084008D01*
X110415919Y-133082766D01*
X110439524Y-133047439D01*
X110449000Y-132999801D01*
X110449000Y-131675199D01*
X110439524Y-131627561D01*
X110415919Y-131592234D01*
X110415788Y-131590238D01*
X110417451Y-131589127D01*
X110418693Y-131589460D01*
G37*
G36*
X106918693Y-131589460D02*
G01*
X106931425Y-131597967D01*
X106997789Y-131618747D01*
X107068589Y-131597958D01*
X107081307Y-131589460D01*
X107083303Y-131589329D01*
X107084414Y-131590992D01*
X107084081Y-131592234D01*
X107060476Y-131627561D01*
X107051000Y-131675199D01*
X107051000Y-132999801D01*
X107060476Y-133047439D01*
X107084081Y-133082766D01*
X107084212Y-133084762D01*
X107082549Y-133085873D01*
X107081307Y-133085540D01*
X107068575Y-133077033D01*
X107002211Y-133056253D01*
X106931411Y-133077042D01*
X106918693Y-133085540D01*
X106916697Y-133085671D01*
X106915586Y-133084008D01*
X106915919Y-133082766D01*
X106939524Y-133047439D01*
X106949000Y-132999801D01*
X106949000Y-131675199D01*
X106939524Y-131627561D01*
X106915919Y-131592234D01*
X106915788Y-131590238D01*
X106917451Y-131589127D01*
X106918693Y-131589460D01*
G37*
G36*
X110918693Y-131589460D02*
G01*
X110931425Y-131597967D01*
X110997789Y-131618747D01*
X111068589Y-131597958D01*
X111081307Y-131589460D01*
X111083303Y-131589329D01*
X111084414Y-131590992D01*
X111084081Y-131592234D01*
X111060476Y-131627561D01*
X111051000Y-131675199D01*
X111051000Y-132999801D01*
X111060476Y-133047439D01*
X111084081Y-133082766D01*
X111084212Y-133084762D01*
X111082549Y-133085873D01*
X111081307Y-133085540D01*
X111068575Y-133077033D01*
X111002211Y-133056253D01*
X110931411Y-133077042D01*
X110918693Y-133085540D01*
X110916697Y-133085671D01*
X110915586Y-133084008D01*
X110915919Y-133082766D01*
X110939524Y-133047439D01*
X110949000Y-132999801D01*
X110949000Y-131675199D01*
X110939524Y-131627561D01*
X110915919Y-131592234D01*
X110915788Y-131590238D01*
X110917451Y-131589127D01*
X110918693Y-131589460D01*
G37*
G36*
X108418693Y-131589460D02*
G01*
X108431425Y-131597967D01*
X108497789Y-131618747D01*
X108568589Y-131597958D01*
X108581307Y-131589460D01*
X108583303Y-131589329D01*
X108584414Y-131590992D01*
X108584081Y-131592234D01*
X108560476Y-131627561D01*
X108551000Y-131675199D01*
X108551000Y-132999801D01*
X108560476Y-133047439D01*
X108584081Y-133082766D01*
X108584212Y-133084762D01*
X108582549Y-133085873D01*
X108581307Y-133085540D01*
X108568575Y-133077033D01*
X108502211Y-133056253D01*
X108431411Y-133077042D01*
X108418693Y-133085540D01*
X108416697Y-133085671D01*
X108415586Y-133084008D01*
X108415919Y-133082766D01*
X108439524Y-133047439D01*
X108449000Y-132999801D01*
X108449000Y-131675199D01*
X108439524Y-131627561D01*
X108415919Y-131592234D01*
X108415788Y-131590238D01*
X108417451Y-131589127D01*
X108418693Y-131589460D01*
G37*
G36*
X109918693Y-131589460D02*
G01*
X109931425Y-131597967D01*
X109997789Y-131618747D01*
X110068589Y-131597958D01*
X110081307Y-131589460D01*
X110083303Y-131589329D01*
X110084414Y-131590992D01*
X110084081Y-131592234D01*
X110060476Y-131627561D01*
X110051000Y-131675199D01*
X110051000Y-132999801D01*
X110060476Y-133047439D01*
X110084081Y-133082766D01*
X110084212Y-133084762D01*
X110082549Y-133085873D01*
X110081307Y-133085540D01*
X110068575Y-133077033D01*
X110002211Y-133056253D01*
X109931411Y-133077042D01*
X109918693Y-133085540D01*
X109916697Y-133085671D01*
X109915586Y-133084008D01*
X109915919Y-133082766D01*
X109939524Y-133047439D01*
X109949000Y-132999801D01*
X109949000Y-131675199D01*
X109939524Y-131627561D01*
X109915919Y-131592234D01*
X109915788Y-131590238D01*
X109917451Y-131589127D01*
X109918693Y-131589460D01*
G37*
G36*
X111418693Y-131589460D02*
G01*
X111431425Y-131597967D01*
X111497789Y-131618747D01*
X111568589Y-131597958D01*
X111581307Y-131589460D01*
X111583303Y-131589329D01*
X111584414Y-131590992D01*
X111584081Y-131592234D01*
X111560476Y-131627561D01*
X111551000Y-131675199D01*
X111551000Y-132999801D01*
X111560476Y-133047439D01*
X111584081Y-133082766D01*
X111584212Y-133084762D01*
X111582549Y-133085873D01*
X111581307Y-133085540D01*
X111568575Y-133077033D01*
X111502211Y-133056253D01*
X111431411Y-133077042D01*
X111418693Y-133085540D01*
X111416697Y-133085671D01*
X111415586Y-133084008D01*
X111415919Y-133082766D01*
X111439524Y-133047439D01*
X111449000Y-132999801D01*
X111449000Y-131675199D01*
X111439524Y-131627561D01*
X111415919Y-131592234D01*
X111415788Y-131590238D01*
X111417451Y-131589127D01*
X111418693Y-131589460D01*
G37*
G36*
X124689633Y-131265217D02*
G01*
X124690197Y-131267136D01*
X124689916Y-131267775D01*
X124679767Y-131282963D01*
X124676000Y-131301899D01*
X124676000Y-132751501D01*
X124679767Y-132770438D01*
X124689814Y-132785473D01*
X124689945Y-132787468D01*
X124688282Y-132788580D01*
X124687553Y-132788493D01*
X124627212Y-132769598D01*
X124562310Y-132788655D01*
X124560367Y-132788183D01*
X124559803Y-132786264D01*
X124560084Y-132785625D01*
X124570233Y-132770437D01*
X124574000Y-132751501D01*
X124574000Y-131301899D01*
X124570233Y-131282962D01*
X124560186Y-131267927D01*
X124560055Y-131265932D01*
X124561718Y-131264820D01*
X124562447Y-131264907D01*
X124622788Y-131283802D01*
X124687690Y-131264745D01*
X124689633Y-131265217D01*
G37*
G36*
X125339633Y-131265217D02*
G01*
X125340197Y-131267136D01*
X125339916Y-131267775D01*
X125329767Y-131282963D01*
X125326000Y-131301899D01*
X125326000Y-132751501D01*
X125329767Y-132770438D01*
X125339814Y-132785473D01*
X125339945Y-132787468D01*
X125338282Y-132788580D01*
X125337553Y-132788493D01*
X125277212Y-132769598D01*
X125212310Y-132788655D01*
X125210367Y-132788183D01*
X125209803Y-132786264D01*
X125210084Y-132785625D01*
X125220233Y-132770437D01*
X125224000Y-132751501D01*
X125224000Y-131301899D01*
X125220233Y-131282962D01*
X125210186Y-131267927D01*
X125210055Y-131265932D01*
X125211718Y-131264820D01*
X125212447Y-131264907D01*
X125272788Y-131283802D01*
X125337690Y-131264745D01*
X125339633Y-131265217D01*
G37*
G36*
X124039633Y-131265217D02*
G01*
X124040197Y-131267136D01*
X124039916Y-131267775D01*
X124029767Y-131282963D01*
X124026000Y-131301899D01*
X124026000Y-132751501D01*
X124029767Y-132770438D01*
X124039814Y-132785473D01*
X124039945Y-132787468D01*
X124038282Y-132788580D01*
X124037553Y-132788493D01*
X123977212Y-132769598D01*
X123912310Y-132788655D01*
X123910367Y-132788183D01*
X123909803Y-132786264D01*
X123910084Y-132785625D01*
X123920233Y-132770437D01*
X123924000Y-132751501D01*
X123924000Y-131301899D01*
X123920233Y-131282962D01*
X123910186Y-131267927D01*
X123910055Y-131265932D01*
X123911718Y-131264820D01*
X123912447Y-131264907D01*
X123972788Y-131283802D01*
X124037690Y-131264745D01*
X124039633Y-131265217D01*
G37*
G36*
X122739633Y-131265217D02*
G01*
X122740197Y-131267136D01*
X122739916Y-131267775D01*
X122729767Y-131282963D01*
X122726000Y-131301899D01*
X122726000Y-132751501D01*
X122729767Y-132770438D01*
X122739814Y-132785473D01*
X122739945Y-132787468D01*
X122738282Y-132788580D01*
X122737553Y-132788493D01*
X122677212Y-132769598D01*
X122612310Y-132788655D01*
X122610367Y-132788183D01*
X122609803Y-132786264D01*
X122610084Y-132785625D01*
X122620233Y-132770437D01*
X122624000Y-132751501D01*
X122624000Y-131301899D01*
X122620233Y-131282962D01*
X122610186Y-131267927D01*
X122610055Y-131265932D01*
X122611718Y-131264820D01*
X122612447Y-131264907D01*
X122672788Y-131283802D01*
X122737690Y-131264745D01*
X122739633Y-131265217D01*
G37*
G36*
X123389633Y-131265217D02*
G01*
X123390197Y-131267136D01*
X123389916Y-131267775D01*
X123379767Y-131282963D01*
X123376000Y-131301899D01*
X123376000Y-132751501D01*
X123379767Y-132770438D01*
X123389814Y-132785473D01*
X123389945Y-132787468D01*
X123388282Y-132788580D01*
X123387553Y-132788493D01*
X123327212Y-132769598D01*
X123262310Y-132788655D01*
X123260367Y-132788183D01*
X123259803Y-132786264D01*
X123260084Y-132785625D01*
X123270233Y-132770437D01*
X123274000Y-132751501D01*
X123274000Y-131301899D01*
X123270233Y-131282962D01*
X123260186Y-131267927D01*
X123260055Y-131265932D01*
X123261718Y-131264820D01*
X123262447Y-131264907D01*
X123322788Y-131283802D01*
X123387690Y-131264745D01*
X123389633Y-131265217D01*
G37*
G36*
X122089633Y-131265217D02*
G01*
X122090197Y-131267136D01*
X122089916Y-131267775D01*
X122079767Y-131282963D01*
X122076000Y-131301899D01*
X122076000Y-132751501D01*
X122079767Y-132770438D01*
X122089814Y-132785473D01*
X122089945Y-132787468D01*
X122088282Y-132788580D01*
X122087553Y-132788493D01*
X122027212Y-132769598D01*
X121962310Y-132788655D01*
X121960367Y-132788183D01*
X121959803Y-132786264D01*
X121960084Y-132785625D01*
X121970233Y-132770437D01*
X121974000Y-132751501D01*
X121974000Y-131301899D01*
X121970233Y-131282962D01*
X121960186Y-131267927D01*
X121960055Y-131265932D01*
X121961718Y-131264820D01*
X121962447Y-131264907D01*
X122022788Y-131283802D01*
X122087690Y-131264745D01*
X122089633Y-131265217D01*
G37*
G36*
X152441894Y-130210500D02*
G01*
X152441894Y-130212500D01*
X152440162Y-130213500D01*
X148509832Y-130213501D01*
X148508100Y-130212501D01*
X148508100Y-130210501D01*
X148509503Y-130209528D01*
X148509509Y-130209527D01*
X148509838Y-130209500D01*
X152440162Y-130209500D01*
X152441894Y-130210500D01*
G37*
M02*
