G04 #@! TF.GenerationSoftware,KiCad,Pcbnew,6.0.10-86aedd382b~118~ubuntu22.04.1*
G04 #@! TF.CreationDate,2023-01-18T22:54:43+01:00*
G04 #@! TF.ProjectId,mre_addon_v2,6d72655f-6164-4646-9f6e-5f76322e6b69,V2.5*
G04 #@! TF.SameCoordinates,Original*
G04 #@! TF.FileFunction,Legend,Bot*
G04 #@! TF.FilePolarity,Positive*
%FSLAX46Y46*%
G04 Gerber Fmt 4.6, Leading zero omitted, Abs format (unit mm)*
G04 Created by KiCad (PCBNEW 6.0.10-86aedd382b~118~ubuntu22.04.1) date 2023-01-18 22:54:43*
%MOMM*%
%LPD*%
G01*
G04 APERTURE LIST*
%ADD10C,0.120000*%
%ADD11C,0.150000*%
%ADD12C,0.250000*%
%ADD13C,0.300000*%
%ADD14C,0.187500*%
%ADD15C,0.125000*%
%ADD16C,0.130000*%
%ADD17C,0.101600*%
%ADD18C,0.200000*%
%ADD19C,0.254000*%
%ADD20C,0.010000*%
G04 APERTURE END LIST*
D10*
X133604000Y-129794000D02*
X130810000Y-129794000D01*
X96300000Y-145000000D02*
X97600000Y-145000000D01*
X98425000Y-147125000D02*
X98425000Y-145725000D01*
X140175000Y-151600000D02*
X146825000Y-151600000D01*
X146825000Y-151600000D02*
X146825000Y-157250000D01*
X146825000Y-157250000D02*
X140175000Y-157250000D01*
X140175000Y-157250000D02*
X140175000Y-151600000D01*
X140175000Y-142200000D02*
X146825000Y-142200000D01*
X146825000Y-142200000D02*
X146825000Y-151200000D01*
X146825000Y-151200000D02*
X140175000Y-151200000D01*
X140175000Y-151200000D02*
X140175000Y-142200000D01*
X101950000Y-145000000D02*
G75*
G03*
X101950000Y-145000000I-5000000J0D01*
G01*
X105918000Y-142748000D02*
X133604000Y-142748000D01*
X103400000Y-147050000D02*
G75*
G03*
X103400000Y-147050000I-5000000J0D01*
G01*
X130810000Y-129794000D02*
X105918000Y-130048000D01*
X97700000Y-146445000D02*
X99100000Y-146445000D01*
X96950000Y-144300000D02*
X96950000Y-145700000D01*
X133604000Y-142748000D02*
X133604000Y-129794000D01*
X105918000Y-130048000D02*
X105918000Y-142748000D01*
D11*
X125729714Y-130553535D02*
X125729714Y-131089250D01*
X125765428Y-131196392D01*
X125836857Y-131267821D01*
X125944000Y-131303535D01*
X126015428Y-131303535D01*
X125372571Y-131303535D02*
X125372571Y-130553535D01*
X125086857Y-130553535D01*
X125015428Y-130589250D01*
X124979714Y-130624964D01*
X124944000Y-130696392D01*
X124944000Y-130803535D01*
X124979714Y-130874964D01*
X125015428Y-130910678D01*
X125086857Y-130946392D01*
X125372571Y-130946392D01*
X124229714Y-131303535D02*
X124658285Y-131303535D01*
X124444000Y-131303535D02*
X124444000Y-130553535D01*
X124515428Y-130660678D01*
X124586857Y-130732107D01*
X124658285Y-130767821D01*
X123872571Y-131267821D02*
X123872571Y-131303535D01*
X123908285Y-131374964D01*
X123944000Y-131410678D01*
X122765428Y-130553535D02*
X122765428Y-131089250D01*
X122801142Y-131196392D01*
X122872571Y-131267821D01*
X122979714Y-131303535D01*
X123051142Y-131303535D01*
X122408285Y-131303535D02*
X122408285Y-130553535D01*
X122122571Y-130553535D01*
X122051142Y-130589250D01*
X122015428Y-130624964D01*
X121979714Y-130696392D01*
X121979714Y-130803535D01*
X122015428Y-130874964D01*
X122051142Y-130910678D01*
X122122571Y-130946392D01*
X122408285Y-130946392D01*
X121694000Y-130624964D02*
X121658285Y-130589250D01*
X121586857Y-130553535D01*
X121408285Y-130553535D01*
X121336857Y-130589250D01*
X121301142Y-130624964D01*
X121265428Y-130696392D01*
X121265428Y-130767821D01*
X121301142Y-130874964D01*
X121729714Y-131303535D01*
X121265428Y-131303535D01*
X120944000Y-131232107D02*
X120908285Y-131267821D01*
X120944000Y-131303535D01*
X120979714Y-131267821D01*
X120944000Y-131232107D01*
X120944000Y-131303535D01*
X120944000Y-130839250D02*
X120908285Y-130874964D01*
X120944000Y-130910678D01*
X120979714Y-130874964D01*
X120944000Y-130839250D01*
X120944000Y-130910678D01*
X127979714Y-132511035D02*
X128051142Y-132475321D01*
X128086857Y-132403892D01*
X128086857Y-131761035D01*
X127586857Y-132511035D02*
X127658285Y-132475321D01*
X127694000Y-132439607D01*
X127729714Y-132368178D01*
X127729714Y-132153892D01*
X127694000Y-132082464D01*
X127658285Y-132046750D01*
X127586857Y-132011035D01*
X127479714Y-132011035D01*
X127408285Y-132046750D01*
X127372571Y-132082464D01*
X127336857Y-132153892D01*
X127336857Y-132368178D01*
X127372571Y-132439607D01*
X127408285Y-132475321D01*
X127479714Y-132511035D01*
X127586857Y-132511035D01*
X127086857Y-132011035D02*
X126944000Y-132511035D01*
X126801142Y-132153892D01*
X126658285Y-132511035D01*
X126515428Y-132011035D01*
X126194000Y-132475321D02*
X126194000Y-132511035D01*
X126229714Y-132582464D01*
X126265428Y-132618178D01*
X125194000Y-132511035D02*
X125265428Y-132475321D01*
X125301142Y-132403892D01*
X125301142Y-131761035D01*
X124801142Y-132511035D02*
X124872571Y-132475321D01*
X124908285Y-132439607D01*
X124944000Y-132368178D01*
X124944000Y-132153892D01*
X124908285Y-132082464D01*
X124872571Y-132046750D01*
X124801142Y-132011035D01*
X124694000Y-132011035D01*
X124622571Y-132046750D01*
X124586857Y-132082464D01*
X124551142Y-132153892D01*
X124551142Y-132368178D01*
X124586857Y-132439607D01*
X124622571Y-132475321D01*
X124694000Y-132511035D01*
X124801142Y-132511035D01*
X124301142Y-132011035D02*
X124158285Y-132511035D01*
X124015428Y-132153892D01*
X123872571Y-132511035D01*
X123729714Y-132011035D01*
X122872571Y-132118178D02*
X122301142Y-132118178D01*
X122301142Y-132332464D02*
X122872571Y-132332464D01*
X121372571Y-132511035D02*
X121372571Y-132011035D01*
X121372571Y-131761035D02*
X121408285Y-131796750D01*
X121372571Y-131832464D01*
X121336857Y-131796750D01*
X121372571Y-131761035D01*
X121372571Y-131832464D01*
X120694000Y-132511035D02*
X120694000Y-131761035D01*
X120694000Y-132475321D02*
X120765428Y-132511035D01*
X120908285Y-132511035D01*
X120979714Y-132475321D01*
X121015428Y-132439607D01*
X121051142Y-132368178D01*
X121051142Y-132153892D01*
X121015428Y-132082464D01*
X120979714Y-132046750D01*
X120908285Y-132011035D01*
X120765428Y-132011035D01*
X120694000Y-132046750D01*
X120408285Y-132511035D02*
X120015428Y-132011035D01*
X120408285Y-132011035D02*
X120015428Y-132511035D01*
X119194000Y-131832464D02*
X119158285Y-131796750D01*
X119086857Y-131761035D01*
X118908285Y-131761035D01*
X118836857Y-131796750D01*
X118801142Y-131832464D01*
X118765428Y-131903892D01*
X118765428Y-131975321D01*
X118801142Y-132082464D01*
X119229714Y-132511035D01*
X118765428Y-132511035D01*
X128354714Y-133718535D02*
X128426142Y-133682821D01*
X128461857Y-133611392D01*
X128461857Y-132968535D01*
X127961857Y-133718535D02*
X128033285Y-133682821D01*
X128069000Y-133647107D01*
X128104714Y-133575678D01*
X128104714Y-133361392D01*
X128069000Y-133289964D01*
X128033285Y-133254250D01*
X127961857Y-133218535D01*
X127854714Y-133218535D01*
X127783285Y-133254250D01*
X127747571Y-133289964D01*
X127711857Y-133361392D01*
X127711857Y-133575678D01*
X127747571Y-133647107D01*
X127783285Y-133682821D01*
X127854714Y-133718535D01*
X127961857Y-133718535D01*
X127461857Y-133218535D02*
X127319000Y-133718535D01*
X127176142Y-133361392D01*
X127033285Y-133718535D01*
X126890428Y-133218535D01*
X126569000Y-133682821D02*
X126569000Y-133718535D01*
X126604714Y-133789964D01*
X126640428Y-133825678D01*
X125783285Y-133218535D02*
X125497571Y-133218535D01*
X125676142Y-133718535D02*
X125676142Y-133075678D01*
X125640428Y-133004250D01*
X125569000Y-132968535D01*
X125497571Y-132968535D01*
X125140428Y-133718535D02*
X125211857Y-133682821D01*
X125247571Y-133611392D01*
X125247571Y-132968535D01*
X124747571Y-133718535D02*
X124819000Y-133682821D01*
X124854714Y-133647107D01*
X124890428Y-133575678D01*
X124890428Y-133361392D01*
X124854714Y-133289964D01*
X124819000Y-133254250D01*
X124747571Y-133218535D01*
X124640428Y-133218535D01*
X124569000Y-133254250D01*
X124533285Y-133289964D01*
X124497571Y-133361392D01*
X124497571Y-133575678D01*
X124533285Y-133647107D01*
X124569000Y-133682821D01*
X124640428Y-133718535D01*
X124747571Y-133718535D01*
X123854714Y-133718535D02*
X123854714Y-133325678D01*
X123890428Y-133254250D01*
X123961857Y-133218535D01*
X124104714Y-133218535D01*
X124176142Y-133254250D01*
X123854714Y-133682821D02*
X123926142Y-133718535D01*
X124104714Y-133718535D01*
X124176142Y-133682821D01*
X124211857Y-133611392D01*
X124211857Y-133539964D01*
X124176142Y-133468535D01*
X124104714Y-133432821D01*
X123926142Y-133432821D01*
X123854714Y-133397107D01*
X123604714Y-133218535D02*
X123319000Y-133218535D01*
X123497571Y-132968535D02*
X123497571Y-133611392D01*
X123461857Y-133682821D01*
X123390428Y-133718535D01*
X123319000Y-133718535D01*
X122497571Y-133325678D02*
X121926142Y-133325678D01*
X121926142Y-133539964D02*
X122497571Y-133539964D01*
X120997571Y-133718535D02*
X120997571Y-133218535D01*
X120997571Y-132968535D02*
X121033285Y-133004250D01*
X120997571Y-133039964D01*
X120961857Y-133004250D01*
X120997571Y-132968535D01*
X120997571Y-133039964D01*
X120319000Y-133718535D02*
X120319000Y-132968535D01*
X120319000Y-133682821D02*
X120390428Y-133718535D01*
X120533285Y-133718535D01*
X120604714Y-133682821D01*
X120640428Y-133647107D01*
X120676142Y-133575678D01*
X120676142Y-133361392D01*
X120640428Y-133289964D01*
X120604714Y-133254250D01*
X120533285Y-133218535D01*
X120390428Y-133218535D01*
X120319000Y-133254250D01*
X120033285Y-133718535D02*
X119640428Y-133218535D01*
X120033285Y-133218535D02*
X119640428Y-133718535D01*
X118640428Y-132968535D02*
X118569000Y-132968535D01*
X118497571Y-133004250D01*
X118461857Y-133039964D01*
X118426142Y-133111392D01*
X118390428Y-133254250D01*
X118390428Y-133432821D01*
X118426142Y-133575678D01*
X118461857Y-133647107D01*
X118497571Y-133682821D01*
X118569000Y-133718535D01*
X118640428Y-133718535D01*
X118711857Y-133682821D01*
X118747571Y-133647107D01*
X118783285Y-133575678D01*
X118819000Y-133432821D01*
X118819000Y-133254250D01*
X118783285Y-133111392D01*
X118747571Y-133039964D01*
X118711857Y-133004250D01*
X118640428Y-132968535D01*
X128247571Y-134926035D02*
X128319000Y-134890321D01*
X128354714Y-134818892D01*
X128354714Y-134176035D01*
X127854714Y-134926035D02*
X127926142Y-134890321D01*
X127961857Y-134854607D01*
X127997571Y-134783178D01*
X127997571Y-134568892D01*
X127961857Y-134497464D01*
X127926142Y-134461750D01*
X127854714Y-134426035D01*
X127747571Y-134426035D01*
X127676142Y-134461750D01*
X127640428Y-134497464D01*
X127604714Y-134568892D01*
X127604714Y-134783178D01*
X127640428Y-134854607D01*
X127676142Y-134890321D01*
X127747571Y-134926035D01*
X127854714Y-134926035D01*
X127354714Y-134426035D02*
X127211857Y-134926035D01*
X127069000Y-134568892D01*
X126926142Y-134926035D01*
X126783285Y-134426035D01*
X126461857Y-134890321D02*
X126461857Y-134926035D01*
X126497571Y-134997464D01*
X126533285Y-135033178D01*
X125569000Y-134926035D02*
X125569000Y-134176035D01*
X125247571Y-134926035D02*
X125247571Y-134533178D01*
X125283285Y-134461750D01*
X125354714Y-134426035D01*
X125461857Y-134426035D01*
X125533285Y-134461750D01*
X125569000Y-134497464D01*
X124890428Y-134926035D02*
X124890428Y-134426035D01*
X124890428Y-134176035D02*
X124926142Y-134211750D01*
X124890428Y-134247464D01*
X124854714Y-134211750D01*
X124890428Y-134176035D01*
X124890428Y-134247464D01*
X124211857Y-134426035D02*
X124211857Y-135033178D01*
X124247571Y-135104607D01*
X124283285Y-135140321D01*
X124354714Y-135176035D01*
X124461857Y-135176035D01*
X124533285Y-135140321D01*
X124211857Y-134890321D02*
X124283285Y-134926035D01*
X124426142Y-134926035D01*
X124497571Y-134890321D01*
X124533285Y-134854607D01*
X124569000Y-134783178D01*
X124569000Y-134568892D01*
X124533285Y-134497464D01*
X124497571Y-134461750D01*
X124426142Y-134426035D01*
X124283285Y-134426035D01*
X124211857Y-134461750D01*
X123854714Y-134926035D02*
X123854714Y-134176035D01*
X123533285Y-134926035D02*
X123533285Y-134533178D01*
X123569000Y-134461750D01*
X123640428Y-134426035D01*
X123747571Y-134426035D01*
X123819000Y-134461750D01*
X123854714Y-134497464D01*
X122604714Y-134533178D02*
X122033285Y-134533178D01*
X122033285Y-134747464D02*
X122604714Y-134747464D01*
X121104714Y-134926035D02*
X121104714Y-134426035D01*
X121104714Y-134176035D02*
X121140428Y-134211750D01*
X121104714Y-134247464D01*
X121069000Y-134211750D01*
X121104714Y-134176035D01*
X121104714Y-134247464D01*
X120426142Y-134926035D02*
X120426142Y-134176035D01*
X120426142Y-134890321D02*
X120497571Y-134926035D01*
X120640428Y-134926035D01*
X120711857Y-134890321D01*
X120747571Y-134854607D01*
X120783285Y-134783178D01*
X120783285Y-134568892D01*
X120747571Y-134497464D01*
X120711857Y-134461750D01*
X120640428Y-134426035D01*
X120497571Y-134426035D01*
X120426142Y-134461750D01*
X120140428Y-134926035D02*
X119747571Y-134426035D01*
X120140428Y-134426035D02*
X119747571Y-134926035D01*
X118961857Y-134176035D02*
X118497571Y-134176035D01*
X118747571Y-134461750D01*
X118640428Y-134461750D01*
X118569000Y-134497464D01*
X118533285Y-134533178D01*
X118497571Y-134604607D01*
X118497571Y-134783178D01*
X118533285Y-134854607D01*
X118569000Y-134890321D01*
X118640428Y-134926035D01*
X118854714Y-134926035D01*
X118926142Y-134890321D01*
X118961857Y-134854607D01*
X128569000Y-135633535D02*
X128283285Y-135633535D01*
X128461857Y-136133535D02*
X128461857Y-135490678D01*
X128426142Y-135419250D01*
X128354714Y-135383535D01*
X128283285Y-135383535D01*
X127926142Y-136133535D02*
X127997571Y-136097821D01*
X128033285Y-136026392D01*
X128033285Y-135383535D01*
X127533285Y-136133535D02*
X127604714Y-136097821D01*
X127640428Y-136062107D01*
X127676142Y-135990678D01*
X127676142Y-135776392D01*
X127640428Y-135704964D01*
X127604714Y-135669250D01*
X127533285Y-135633535D01*
X127426142Y-135633535D01*
X127354714Y-135669250D01*
X127319000Y-135704964D01*
X127283285Y-135776392D01*
X127283285Y-135990678D01*
X127319000Y-136062107D01*
X127354714Y-136097821D01*
X127426142Y-136133535D01*
X127533285Y-136133535D01*
X126640428Y-136133535D02*
X126640428Y-135740678D01*
X126676142Y-135669250D01*
X126747571Y-135633535D01*
X126890428Y-135633535D01*
X126961857Y-135669250D01*
X126640428Y-136097821D02*
X126711857Y-136133535D01*
X126890428Y-136133535D01*
X126961857Y-136097821D01*
X126997571Y-136026392D01*
X126997571Y-135954964D01*
X126961857Y-135883535D01*
X126890428Y-135847821D01*
X126711857Y-135847821D01*
X126640428Y-135812107D01*
X126390428Y-135633535D02*
X126104714Y-135633535D01*
X126283285Y-135383535D02*
X126283285Y-136026392D01*
X126247571Y-136097821D01*
X126176142Y-136133535D01*
X126104714Y-136133535D01*
X125819000Y-136097821D02*
X125819000Y-136133535D01*
X125854714Y-136204964D01*
X125890428Y-136240678D01*
X124819000Y-136133535D02*
X124890428Y-136097821D01*
X124926142Y-136026392D01*
X124926142Y-135383535D01*
X124426142Y-136133535D02*
X124497571Y-136097821D01*
X124533285Y-136062107D01*
X124569000Y-135990678D01*
X124569000Y-135776392D01*
X124533285Y-135704964D01*
X124497571Y-135669250D01*
X124426142Y-135633535D01*
X124319000Y-135633535D01*
X124247571Y-135669250D01*
X124211857Y-135704964D01*
X124176142Y-135776392D01*
X124176142Y-135990678D01*
X124211857Y-136062107D01*
X124247571Y-136097821D01*
X124319000Y-136133535D01*
X124426142Y-136133535D01*
X123926142Y-135633535D02*
X123783285Y-136133535D01*
X123640428Y-135776392D01*
X123497571Y-136133535D01*
X123354714Y-135633535D01*
X122497571Y-135740678D02*
X121926142Y-135740678D01*
X121926142Y-135954964D02*
X122497571Y-135954964D01*
X120997571Y-136133535D02*
X120997571Y-135633535D01*
X120997571Y-135383535D02*
X121033285Y-135419250D01*
X120997571Y-135454964D01*
X120961857Y-135419250D01*
X120997571Y-135383535D01*
X120997571Y-135454964D01*
X120319000Y-136133535D02*
X120319000Y-135383535D01*
X120319000Y-136097821D02*
X120390428Y-136133535D01*
X120533285Y-136133535D01*
X120604714Y-136097821D01*
X120640428Y-136062107D01*
X120676142Y-135990678D01*
X120676142Y-135776392D01*
X120640428Y-135704964D01*
X120604714Y-135669250D01*
X120533285Y-135633535D01*
X120390428Y-135633535D01*
X120319000Y-135669250D01*
X120033285Y-136133535D02*
X119640428Y-135633535D01*
X120033285Y-135633535D02*
X119640428Y-136133535D01*
X118461857Y-135633535D02*
X118461857Y-136133535D01*
X118640428Y-135347821D02*
X118819000Y-135883535D01*
X118354714Y-135883535D01*
X128836857Y-136841035D02*
X128551142Y-136841035D01*
X128729714Y-137341035D02*
X128729714Y-136698178D01*
X128694000Y-136626750D01*
X128622571Y-136591035D01*
X128551142Y-136591035D01*
X128194000Y-137341035D02*
X128265428Y-137305321D01*
X128301142Y-137233892D01*
X128301142Y-136591035D01*
X127801142Y-137341035D02*
X127872571Y-137305321D01*
X127908285Y-137269607D01*
X127944000Y-137198178D01*
X127944000Y-136983892D01*
X127908285Y-136912464D01*
X127872571Y-136876750D01*
X127801142Y-136841035D01*
X127694000Y-136841035D01*
X127622571Y-136876750D01*
X127586857Y-136912464D01*
X127551142Y-136983892D01*
X127551142Y-137198178D01*
X127586857Y-137269607D01*
X127622571Y-137305321D01*
X127694000Y-137341035D01*
X127801142Y-137341035D01*
X126908285Y-137341035D02*
X126908285Y-136948178D01*
X126944000Y-136876750D01*
X127015428Y-136841035D01*
X127158285Y-136841035D01*
X127229714Y-136876750D01*
X126908285Y-137305321D02*
X126979714Y-137341035D01*
X127158285Y-137341035D01*
X127229714Y-137305321D01*
X127265428Y-137233892D01*
X127265428Y-137162464D01*
X127229714Y-137091035D01*
X127158285Y-137055321D01*
X126979714Y-137055321D01*
X126908285Y-137019607D01*
X126658285Y-136841035D02*
X126372571Y-136841035D01*
X126551142Y-136591035D02*
X126551142Y-137233892D01*
X126515428Y-137305321D01*
X126444000Y-137341035D01*
X126372571Y-137341035D01*
X126086857Y-137305321D02*
X126086857Y-137341035D01*
X126122571Y-137412464D01*
X126158285Y-137448178D01*
X125194000Y-137341035D02*
X125194000Y-136591035D01*
X124872571Y-137341035D02*
X124872571Y-136948178D01*
X124908285Y-136876750D01*
X124979714Y-136841035D01*
X125086857Y-136841035D01*
X125158285Y-136876750D01*
X125194000Y-136912464D01*
X124515428Y-137341035D02*
X124515428Y-136841035D01*
X124515428Y-136591035D02*
X124551142Y-136626750D01*
X124515428Y-136662464D01*
X124479714Y-136626750D01*
X124515428Y-136591035D01*
X124515428Y-136662464D01*
X123836857Y-136841035D02*
X123836857Y-137448178D01*
X123872571Y-137519607D01*
X123908285Y-137555321D01*
X123979714Y-137591035D01*
X124086857Y-137591035D01*
X124158285Y-137555321D01*
X123836857Y-137305321D02*
X123908285Y-137341035D01*
X124051142Y-137341035D01*
X124122571Y-137305321D01*
X124158285Y-137269607D01*
X124194000Y-137198178D01*
X124194000Y-136983892D01*
X124158285Y-136912464D01*
X124122571Y-136876750D01*
X124051142Y-136841035D01*
X123908285Y-136841035D01*
X123836857Y-136876750D01*
X123479714Y-137341035D02*
X123479714Y-136591035D01*
X123158285Y-137341035D02*
X123158285Y-136948178D01*
X123194000Y-136876750D01*
X123265428Y-136841035D01*
X123372571Y-136841035D01*
X123444000Y-136876750D01*
X123479714Y-136912464D01*
X122229714Y-136948178D02*
X121658285Y-136948178D01*
X121658285Y-137162464D02*
X122229714Y-137162464D01*
X120729714Y-137341035D02*
X120729714Y-136841035D01*
X120729714Y-136591035D02*
X120765428Y-136626750D01*
X120729714Y-136662464D01*
X120694000Y-136626750D01*
X120729714Y-136591035D01*
X120729714Y-136662464D01*
X120051142Y-137341035D02*
X120051142Y-136591035D01*
X120051142Y-137305321D02*
X120122571Y-137341035D01*
X120265428Y-137341035D01*
X120336857Y-137305321D01*
X120372571Y-137269607D01*
X120408285Y-137198178D01*
X120408285Y-136983892D01*
X120372571Y-136912464D01*
X120336857Y-136876750D01*
X120265428Y-136841035D01*
X120122571Y-136841035D01*
X120051142Y-136876750D01*
X119765428Y-137341035D02*
X119372571Y-136841035D01*
X119765428Y-136841035D02*
X119372571Y-137341035D01*
X118122571Y-137341035D02*
X118551142Y-137341035D01*
X118336857Y-137341035D02*
X118336857Y-136591035D01*
X118408285Y-136698178D01*
X118479714Y-136769607D01*
X118551142Y-136805321D01*
X128354714Y-138548535D02*
X128354714Y-137798535D01*
X128033285Y-138548535D02*
X128033285Y-138155678D01*
X128069000Y-138084250D01*
X128140428Y-138048535D01*
X128247571Y-138048535D01*
X128319000Y-138084250D01*
X128354714Y-138119964D01*
X127676142Y-138548535D02*
X127676142Y-138048535D01*
X127676142Y-137798535D02*
X127711857Y-137834250D01*
X127676142Y-137869964D01*
X127640428Y-137834250D01*
X127676142Y-137798535D01*
X127676142Y-137869964D01*
X126997571Y-138048535D02*
X126997571Y-138655678D01*
X127033285Y-138727107D01*
X127069000Y-138762821D01*
X127140428Y-138798535D01*
X127247571Y-138798535D01*
X127319000Y-138762821D01*
X126997571Y-138512821D02*
X127069000Y-138548535D01*
X127211857Y-138548535D01*
X127283285Y-138512821D01*
X127319000Y-138477107D01*
X127354714Y-138405678D01*
X127354714Y-138191392D01*
X127319000Y-138119964D01*
X127283285Y-138084250D01*
X127211857Y-138048535D01*
X127069000Y-138048535D01*
X126997571Y-138084250D01*
X126640428Y-138548535D02*
X126640428Y-137798535D01*
X126319000Y-138548535D02*
X126319000Y-138155678D01*
X126354714Y-138084250D01*
X126426142Y-138048535D01*
X126533285Y-138048535D01*
X126604714Y-138084250D01*
X126640428Y-138119964D01*
X125926142Y-138512821D02*
X125926142Y-138548535D01*
X125961857Y-138619964D01*
X125997571Y-138655678D01*
X124926142Y-138548535D02*
X124997571Y-138512821D01*
X125033285Y-138441392D01*
X125033285Y-137798535D01*
X124533285Y-138548535D02*
X124604714Y-138512821D01*
X124640428Y-138477107D01*
X124676142Y-138405678D01*
X124676142Y-138191392D01*
X124640428Y-138119964D01*
X124604714Y-138084250D01*
X124533285Y-138048535D01*
X124426142Y-138048535D01*
X124354714Y-138084250D01*
X124319000Y-138119964D01*
X124283285Y-138191392D01*
X124283285Y-138405678D01*
X124319000Y-138477107D01*
X124354714Y-138512821D01*
X124426142Y-138548535D01*
X124533285Y-138548535D01*
X124033285Y-138048535D02*
X123890428Y-138548535D01*
X123747571Y-138191392D01*
X123604714Y-138548535D01*
X123461857Y-138048535D01*
X122604714Y-138155678D02*
X122033285Y-138155678D01*
X122033285Y-138369964D02*
X122604714Y-138369964D01*
X121104714Y-138548535D02*
X121104714Y-138048535D01*
X121104714Y-137798535D02*
X121140428Y-137834250D01*
X121104714Y-137869964D01*
X121069000Y-137834250D01*
X121104714Y-137798535D01*
X121104714Y-137869964D01*
X120426142Y-138548535D02*
X120426142Y-137798535D01*
X120426142Y-138512821D02*
X120497571Y-138548535D01*
X120640428Y-138548535D01*
X120711857Y-138512821D01*
X120747571Y-138477107D01*
X120783285Y-138405678D01*
X120783285Y-138191392D01*
X120747571Y-138119964D01*
X120711857Y-138084250D01*
X120640428Y-138048535D01*
X120497571Y-138048535D01*
X120426142Y-138084250D01*
X120140428Y-138548535D02*
X119747571Y-138048535D01*
X120140428Y-138048535D02*
X119747571Y-138548535D01*
X118533285Y-137798535D02*
X118890428Y-137798535D01*
X118926142Y-138155678D01*
X118890428Y-138119964D01*
X118819000Y-138084250D01*
X118640428Y-138084250D01*
X118569000Y-138119964D01*
X118533285Y-138155678D01*
X118497571Y-138227107D01*
X118497571Y-138405678D01*
X118533285Y-138477107D01*
X118569000Y-138512821D01*
X118640428Y-138548535D01*
X118819000Y-138548535D01*
X118890428Y-138512821D01*
X118926142Y-138477107D01*
X128729714Y-139756035D02*
X128729714Y-139006035D01*
X128408285Y-139756035D02*
X128408285Y-139363178D01*
X128444000Y-139291750D01*
X128515428Y-139256035D01*
X128622571Y-139256035D01*
X128694000Y-139291750D01*
X128729714Y-139327464D01*
X128051142Y-139756035D02*
X128051142Y-139256035D01*
X128051142Y-139006035D02*
X128086857Y-139041750D01*
X128051142Y-139077464D01*
X128015428Y-139041750D01*
X128051142Y-139006035D01*
X128051142Y-139077464D01*
X127372571Y-139256035D02*
X127372571Y-139863178D01*
X127408285Y-139934607D01*
X127444000Y-139970321D01*
X127515428Y-140006035D01*
X127622571Y-140006035D01*
X127694000Y-139970321D01*
X127372571Y-139720321D02*
X127444000Y-139756035D01*
X127586857Y-139756035D01*
X127658285Y-139720321D01*
X127694000Y-139684607D01*
X127729714Y-139613178D01*
X127729714Y-139398892D01*
X127694000Y-139327464D01*
X127658285Y-139291750D01*
X127586857Y-139256035D01*
X127444000Y-139256035D01*
X127372571Y-139291750D01*
X127015428Y-139756035D02*
X127015428Y-139006035D01*
X126694000Y-139756035D02*
X126694000Y-139363178D01*
X126729714Y-139291750D01*
X126801142Y-139256035D01*
X126908285Y-139256035D01*
X126979714Y-139291750D01*
X127015428Y-139327464D01*
X126301142Y-139720321D02*
X126301142Y-139756035D01*
X126336857Y-139827464D01*
X126372571Y-139863178D01*
X125515428Y-139256035D02*
X125229714Y-139256035D01*
X125408285Y-139756035D02*
X125408285Y-139113178D01*
X125372571Y-139041750D01*
X125301142Y-139006035D01*
X125229714Y-139006035D01*
X124872571Y-139756035D02*
X124944000Y-139720321D01*
X124979714Y-139648892D01*
X124979714Y-139006035D01*
X124479714Y-139756035D02*
X124551142Y-139720321D01*
X124586857Y-139684607D01*
X124622571Y-139613178D01*
X124622571Y-139398892D01*
X124586857Y-139327464D01*
X124551142Y-139291750D01*
X124479714Y-139256035D01*
X124372571Y-139256035D01*
X124301142Y-139291750D01*
X124265428Y-139327464D01*
X124229714Y-139398892D01*
X124229714Y-139613178D01*
X124265428Y-139684607D01*
X124301142Y-139720321D01*
X124372571Y-139756035D01*
X124479714Y-139756035D01*
X123586857Y-139756035D02*
X123586857Y-139363178D01*
X123622571Y-139291750D01*
X123694000Y-139256035D01*
X123836857Y-139256035D01*
X123908285Y-139291750D01*
X123586857Y-139720321D02*
X123658285Y-139756035D01*
X123836857Y-139756035D01*
X123908285Y-139720321D01*
X123944000Y-139648892D01*
X123944000Y-139577464D01*
X123908285Y-139506035D01*
X123836857Y-139470321D01*
X123658285Y-139470321D01*
X123586857Y-139434607D01*
X123336857Y-139256035D02*
X123051142Y-139256035D01*
X123229714Y-139006035D02*
X123229714Y-139648892D01*
X123194000Y-139720321D01*
X123122571Y-139756035D01*
X123051142Y-139756035D01*
X122229714Y-139363178D02*
X121658285Y-139363178D01*
X121658285Y-139577464D02*
X122229714Y-139577464D01*
X120729714Y-139756035D02*
X120729714Y-139256035D01*
X120729714Y-139006035D02*
X120765428Y-139041750D01*
X120729714Y-139077464D01*
X120694000Y-139041750D01*
X120729714Y-139006035D01*
X120729714Y-139077464D01*
X120051142Y-139756035D02*
X120051142Y-139006035D01*
X120051142Y-139720321D02*
X120122571Y-139756035D01*
X120265428Y-139756035D01*
X120336857Y-139720321D01*
X120372571Y-139684607D01*
X120408285Y-139613178D01*
X120408285Y-139398892D01*
X120372571Y-139327464D01*
X120336857Y-139291750D01*
X120265428Y-139256035D01*
X120122571Y-139256035D01*
X120051142Y-139291750D01*
X119765428Y-139756035D02*
X119372571Y-139256035D01*
X119765428Y-139256035D02*
X119372571Y-139756035D01*
X118194000Y-139006035D02*
X118336857Y-139006035D01*
X118408285Y-139041750D01*
X118444000Y-139077464D01*
X118515428Y-139184607D01*
X118551142Y-139327464D01*
X118551142Y-139613178D01*
X118515428Y-139684607D01*
X118479714Y-139720321D01*
X118408285Y-139756035D01*
X118265428Y-139756035D01*
X118194000Y-139720321D01*
X118158285Y-139684607D01*
X118122571Y-139613178D01*
X118122571Y-139434607D01*
X118158285Y-139363178D01*
X118194000Y-139327464D01*
X118265428Y-139291750D01*
X118408285Y-139291750D01*
X118479714Y-139327464D01*
X118515428Y-139363178D01*
X118551142Y-139434607D01*
X128622571Y-140963535D02*
X128622571Y-140213535D01*
X128301142Y-140963535D02*
X128301142Y-140570678D01*
X128336857Y-140499250D01*
X128408285Y-140463535D01*
X128515428Y-140463535D01*
X128586857Y-140499250D01*
X128622571Y-140534964D01*
X127944000Y-140963535D02*
X127944000Y-140463535D01*
X127944000Y-140213535D02*
X127979714Y-140249250D01*
X127944000Y-140284964D01*
X127908285Y-140249250D01*
X127944000Y-140213535D01*
X127944000Y-140284964D01*
X127265428Y-140463535D02*
X127265428Y-141070678D01*
X127301142Y-141142107D01*
X127336857Y-141177821D01*
X127408285Y-141213535D01*
X127515428Y-141213535D01*
X127586857Y-141177821D01*
X127265428Y-140927821D02*
X127336857Y-140963535D01*
X127479714Y-140963535D01*
X127551142Y-140927821D01*
X127586857Y-140892107D01*
X127622571Y-140820678D01*
X127622571Y-140606392D01*
X127586857Y-140534964D01*
X127551142Y-140499250D01*
X127479714Y-140463535D01*
X127336857Y-140463535D01*
X127265428Y-140499250D01*
X126908285Y-140963535D02*
X126908285Y-140213535D01*
X126586857Y-140963535D02*
X126586857Y-140570678D01*
X126622571Y-140499250D01*
X126694000Y-140463535D01*
X126801142Y-140463535D01*
X126872571Y-140499250D01*
X126908285Y-140534964D01*
X126194000Y-140927821D02*
X126194000Y-140963535D01*
X126229714Y-141034964D01*
X126265428Y-141070678D01*
X125301142Y-140963535D02*
X125301142Y-140213535D01*
X124979714Y-140963535D02*
X124979714Y-140570678D01*
X125015428Y-140499250D01*
X125086857Y-140463535D01*
X125194000Y-140463535D01*
X125265428Y-140499250D01*
X125301142Y-140534964D01*
X124622571Y-140963535D02*
X124622571Y-140463535D01*
X124622571Y-140213535D02*
X124658285Y-140249250D01*
X124622571Y-140284964D01*
X124586857Y-140249250D01*
X124622571Y-140213535D01*
X124622571Y-140284964D01*
X123944000Y-140463535D02*
X123944000Y-141070678D01*
X123979714Y-141142107D01*
X124015428Y-141177821D01*
X124086857Y-141213535D01*
X124194000Y-141213535D01*
X124265428Y-141177821D01*
X123944000Y-140927821D02*
X124015428Y-140963535D01*
X124158285Y-140963535D01*
X124229714Y-140927821D01*
X124265428Y-140892107D01*
X124301142Y-140820678D01*
X124301142Y-140606392D01*
X124265428Y-140534964D01*
X124229714Y-140499250D01*
X124158285Y-140463535D01*
X124015428Y-140463535D01*
X123944000Y-140499250D01*
X123586857Y-140963535D02*
X123586857Y-140213535D01*
X123265428Y-140963535D02*
X123265428Y-140570678D01*
X123301142Y-140499250D01*
X123372571Y-140463535D01*
X123479714Y-140463535D01*
X123551142Y-140499250D01*
X123586857Y-140534964D01*
X122336857Y-140570678D02*
X121765428Y-140570678D01*
X121765428Y-140784964D02*
X122336857Y-140784964D01*
X120836857Y-140963535D02*
X120836857Y-140463535D01*
X120836857Y-140213535D02*
X120872571Y-140249250D01*
X120836857Y-140284964D01*
X120801142Y-140249250D01*
X120836857Y-140213535D01*
X120836857Y-140284964D01*
X120158285Y-140963535D02*
X120158285Y-140213535D01*
X120158285Y-140927821D02*
X120229714Y-140963535D01*
X120372571Y-140963535D01*
X120444000Y-140927821D01*
X120479714Y-140892107D01*
X120515428Y-140820678D01*
X120515428Y-140606392D01*
X120479714Y-140534964D01*
X120444000Y-140499250D01*
X120372571Y-140463535D01*
X120229714Y-140463535D01*
X120158285Y-140499250D01*
X119872571Y-140963535D02*
X119479714Y-140463535D01*
X119872571Y-140463535D02*
X119479714Y-140963535D01*
X118694000Y-140213535D02*
X118194000Y-140213535D01*
X118515428Y-140963535D01*
X133069000Y-141671035D02*
X132783285Y-141671035D01*
X132961857Y-142171035D02*
X132961857Y-141528178D01*
X132926142Y-141456750D01*
X132854714Y-141421035D01*
X132783285Y-141421035D01*
X132426142Y-142171035D02*
X132497571Y-142135321D01*
X132533285Y-142063892D01*
X132533285Y-141421035D01*
X132033285Y-142171035D02*
X132104714Y-142135321D01*
X132140428Y-142099607D01*
X132176142Y-142028178D01*
X132176142Y-141813892D01*
X132140428Y-141742464D01*
X132104714Y-141706750D01*
X132033285Y-141671035D01*
X131926142Y-141671035D01*
X131854714Y-141706750D01*
X131819000Y-141742464D01*
X131783285Y-141813892D01*
X131783285Y-142028178D01*
X131819000Y-142099607D01*
X131854714Y-142135321D01*
X131926142Y-142171035D01*
X132033285Y-142171035D01*
X131140428Y-142171035D02*
X131140428Y-141778178D01*
X131176142Y-141706750D01*
X131247571Y-141671035D01*
X131390428Y-141671035D01*
X131461857Y-141706750D01*
X131140428Y-142135321D02*
X131211857Y-142171035D01*
X131390428Y-142171035D01*
X131461857Y-142135321D01*
X131497571Y-142063892D01*
X131497571Y-141992464D01*
X131461857Y-141921035D01*
X131390428Y-141885321D01*
X131211857Y-141885321D01*
X131140428Y-141849607D01*
X130890428Y-141671035D02*
X130604714Y-141671035D01*
X130783285Y-141421035D02*
X130783285Y-142063892D01*
X130747571Y-142135321D01*
X130676142Y-142171035D01*
X130604714Y-142171035D01*
X130319000Y-142135321D02*
X130319000Y-142171035D01*
X130354714Y-142242464D01*
X130390428Y-142278178D01*
X129533285Y-141671035D02*
X129247571Y-141671035D01*
X129426142Y-142171035D02*
X129426142Y-141528178D01*
X129390428Y-141456750D01*
X129319000Y-141421035D01*
X129247571Y-141421035D01*
X128890428Y-142171035D02*
X128961857Y-142135321D01*
X128997571Y-142063892D01*
X128997571Y-141421035D01*
X128497571Y-142171035D02*
X128569000Y-142135321D01*
X128604714Y-142099607D01*
X128640428Y-142028178D01*
X128640428Y-141813892D01*
X128604714Y-141742464D01*
X128569000Y-141706750D01*
X128497571Y-141671035D01*
X128390428Y-141671035D01*
X128319000Y-141706750D01*
X128283285Y-141742464D01*
X128247571Y-141813892D01*
X128247571Y-142028178D01*
X128283285Y-142099607D01*
X128319000Y-142135321D01*
X128390428Y-142171035D01*
X128497571Y-142171035D01*
X127604714Y-142171035D02*
X127604714Y-141778178D01*
X127640428Y-141706750D01*
X127711857Y-141671035D01*
X127854714Y-141671035D01*
X127926142Y-141706750D01*
X127604714Y-142135321D02*
X127676142Y-142171035D01*
X127854714Y-142171035D01*
X127926142Y-142135321D01*
X127961857Y-142063892D01*
X127961857Y-141992464D01*
X127926142Y-141921035D01*
X127854714Y-141885321D01*
X127676142Y-141885321D01*
X127604714Y-141849607D01*
X127354714Y-141671035D02*
X127069000Y-141671035D01*
X127247571Y-141421035D02*
X127247571Y-142063892D01*
X127211857Y-142135321D01*
X127140428Y-142171035D01*
X127069000Y-142171035D01*
X126247571Y-141778178D02*
X125676142Y-141778178D01*
X125676142Y-141992464D02*
X126247571Y-141992464D01*
X124747571Y-142171035D02*
X124747571Y-141671035D01*
X124747571Y-141813892D02*
X124711857Y-141742464D01*
X124676142Y-141706750D01*
X124604714Y-141671035D01*
X124533285Y-141671035D01*
X123997571Y-142135321D02*
X124069000Y-142171035D01*
X124211857Y-142171035D01*
X124283285Y-142135321D01*
X124319000Y-142063892D01*
X124319000Y-141778178D01*
X124283285Y-141706750D01*
X124211857Y-141671035D01*
X124069000Y-141671035D01*
X123997571Y-141706750D01*
X123961857Y-141778178D01*
X123961857Y-141849607D01*
X124319000Y-141921035D01*
X123319000Y-142171035D02*
X123319000Y-141778178D01*
X123354714Y-141706750D01*
X123426142Y-141671035D01*
X123569000Y-141671035D01*
X123640428Y-141706750D01*
X123319000Y-142135321D02*
X123390428Y-142171035D01*
X123569000Y-142171035D01*
X123640428Y-142135321D01*
X123676142Y-142063892D01*
X123676142Y-141992464D01*
X123640428Y-141921035D01*
X123569000Y-141885321D01*
X123390428Y-141885321D01*
X123319000Y-141849607D01*
X122640428Y-142171035D02*
X122640428Y-141421035D01*
X122640428Y-142135321D02*
X122711857Y-142171035D01*
X122854714Y-142171035D01*
X122926142Y-142135321D01*
X122961857Y-142099607D01*
X122997571Y-142028178D01*
X122997571Y-141813892D01*
X122961857Y-141742464D01*
X122926142Y-141706750D01*
X122854714Y-141671035D01*
X122711857Y-141671035D01*
X122640428Y-141706750D01*
X121711857Y-142171035D02*
X121711857Y-141671035D01*
X121711857Y-141421035D02*
X121747571Y-141456750D01*
X121711857Y-141492464D01*
X121676142Y-141456750D01*
X121711857Y-141421035D01*
X121711857Y-141492464D01*
X121033285Y-142171035D02*
X121033285Y-141421035D01*
X121033285Y-142135321D02*
X121104714Y-142171035D01*
X121247571Y-142171035D01*
X121319000Y-142135321D01*
X121354714Y-142099607D01*
X121390428Y-142028178D01*
X121390428Y-141813892D01*
X121354714Y-141742464D01*
X121319000Y-141706750D01*
X121247571Y-141671035D01*
X121104714Y-141671035D01*
X121033285Y-141706750D01*
X120747571Y-142171035D02*
X120354714Y-141671035D01*
X120747571Y-141671035D02*
X120354714Y-142171035D01*
X119604714Y-141671035D02*
X119319000Y-141671035D01*
X119497571Y-142171035D02*
X119497571Y-141528178D01*
X119461857Y-141456750D01*
X119390428Y-141421035D01*
X119319000Y-141421035D01*
X119069000Y-142171035D02*
X119069000Y-141671035D01*
X119069000Y-141813892D02*
X119033285Y-141742464D01*
X118997571Y-141706750D01*
X118926142Y-141671035D01*
X118854714Y-141671035D01*
X118497571Y-142171035D02*
X118569000Y-142135321D01*
X118604714Y-142099607D01*
X118640428Y-142028178D01*
X118640428Y-141813892D01*
X118604714Y-141742464D01*
X118569000Y-141706750D01*
X118497571Y-141671035D01*
X118390428Y-141671035D01*
X118319000Y-141706750D01*
X118283285Y-141742464D01*
X118247571Y-141813892D01*
X118247571Y-142028178D01*
X118283285Y-142099607D01*
X118319000Y-142135321D01*
X118390428Y-142171035D01*
X118497571Y-142171035D01*
X117926142Y-142171035D02*
X117926142Y-141671035D01*
X117926142Y-141742464D02*
X117890428Y-141706750D01*
X117819000Y-141671035D01*
X117711857Y-141671035D01*
X117640428Y-141706750D01*
X117604714Y-141778178D01*
X117604714Y-142171035D01*
X117604714Y-141778178D02*
X117569000Y-141706750D01*
X117497571Y-141671035D01*
X117390428Y-141671035D01*
X117319000Y-141706750D01*
X117283285Y-141778178D01*
X117283285Y-142171035D01*
X116461857Y-141671035D02*
X116176142Y-141671035D01*
X116354714Y-142171035D02*
X116354714Y-141528178D01*
X116319000Y-141456750D01*
X116247571Y-141421035D01*
X116176142Y-141421035D01*
X115819000Y-142171035D02*
X115890428Y-142135321D01*
X115926142Y-142063892D01*
X115926142Y-141421035D01*
X115211857Y-142171035D02*
X115211857Y-141778178D01*
X115247571Y-141706750D01*
X115319000Y-141671035D01*
X115461857Y-141671035D01*
X115533285Y-141706750D01*
X115211857Y-142135321D02*
X115283285Y-142171035D01*
X115461857Y-142171035D01*
X115533285Y-142135321D01*
X115569000Y-142063892D01*
X115569000Y-141992464D01*
X115533285Y-141921035D01*
X115461857Y-141885321D01*
X115283285Y-141885321D01*
X115211857Y-141849607D01*
X114890428Y-142135321D02*
X114819000Y-142171035D01*
X114676142Y-142171035D01*
X114604714Y-142135321D01*
X114569000Y-142063892D01*
X114569000Y-142028178D01*
X114604714Y-141956750D01*
X114676142Y-141921035D01*
X114783285Y-141921035D01*
X114854714Y-141885321D01*
X114890428Y-141813892D01*
X114890428Y-141778178D01*
X114854714Y-141706750D01*
X114783285Y-141671035D01*
X114676142Y-141671035D01*
X114604714Y-141706750D01*
X114247571Y-142171035D02*
X114247571Y-141421035D01*
X113926142Y-142171035D02*
X113926142Y-141778178D01*
X113961857Y-141706750D01*
X114033285Y-141671035D01*
X114140428Y-141671035D01*
X114211857Y-141706750D01*
X114247571Y-141742464D01*
D12*
X127938095Y-144449761D02*
X127795238Y-144497380D01*
X127557142Y-144497380D01*
X127461904Y-144449761D01*
X127414285Y-144402142D01*
X127366666Y-144306904D01*
X127366666Y-144211666D01*
X127414285Y-144116428D01*
X127461904Y-144068809D01*
X127557142Y-144021190D01*
X127747619Y-143973571D01*
X127842857Y-143925952D01*
X127890476Y-143878333D01*
X127938095Y-143783095D01*
X127938095Y-143687857D01*
X127890476Y-143592619D01*
X127842857Y-143545000D01*
X127747619Y-143497380D01*
X127509523Y-143497380D01*
X127366666Y-143545000D01*
X126938095Y-144497380D02*
X126938095Y-143497380D01*
X126700000Y-143497380D01*
X126557142Y-143545000D01*
X126461904Y-143640238D01*
X126414285Y-143735476D01*
X126366666Y-143925952D01*
X126366666Y-144068809D01*
X126414285Y-144259285D01*
X126461904Y-144354523D01*
X126557142Y-144449761D01*
X126700000Y-144497380D01*
X126938095Y-144497380D01*
X124604761Y-144402142D02*
X124652380Y-144449761D01*
X124795238Y-144497380D01*
X124890476Y-144497380D01*
X125033333Y-144449761D01*
X125128571Y-144354523D01*
X125176190Y-144259285D01*
X125223809Y-144068809D01*
X125223809Y-143925952D01*
X125176190Y-143735476D01*
X125128571Y-143640238D01*
X125033333Y-143545000D01*
X124890476Y-143497380D01*
X124795238Y-143497380D01*
X124652380Y-143545000D01*
X124604761Y-143592619D01*
X123747619Y-144497380D02*
X123747619Y-143973571D01*
X123795238Y-143878333D01*
X123890476Y-143830714D01*
X124080952Y-143830714D01*
X124176190Y-143878333D01*
X123747619Y-144449761D02*
X123842857Y-144497380D01*
X124080952Y-144497380D01*
X124176190Y-144449761D01*
X124223809Y-144354523D01*
X124223809Y-144259285D01*
X124176190Y-144164047D01*
X124080952Y-144116428D01*
X123842857Y-144116428D01*
X123747619Y-144068809D01*
X123271428Y-144497380D02*
X123271428Y-143830714D01*
X123271428Y-144021190D02*
X123223809Y-143925952D01*
X123176190Y-143878333D01*
X123080952Y-143830714D01*
X122985714Y-143830714D01*
X122223809Y-144497380D02*
X122223809Y-143497380D01*
X122223809Y-144449761D02*
X122319047Y-144497380D01*
X122509523Y-144497380D01*
X122604761Y-144449761D01*
X122652380Y-144402142D01*
X122700000Y-144306904D01*
X122700000Y-144021190D01*
X122652380Y-143925952D01*
X122604761Y-143878333D01*
X122509523Y-143830714D01*
X122319047Y-143830714D01*
X122223809Y-143878333D01*
X120414285Y-144402142D02*
X120461904Y-144449761D01*
X120604761Y-144497380D01*
X120700000Y-144497380D01*
X120842857Y-144449761D01*
X120938095Y-144354523D01*
X120985714Y-144259285D01*
X121033333Y-144068809D01*
X121033333Y-143925952D01*
X120985714Y-143735476D01*
X120938095Y-143640238D01*
X120842857Y-143545000D01*
X120700000Y-143497380D01*
X120604761Y-143497380D01*
X120461904Y-143545000D01*
X120414285Y-143592619D01*
X120033333Y-144449761D02*
X119890476Y-144497380D01*
X119652380Y-144497380D01*
X119557142Y-144449761D01*
X119509523Y-144402142D01*
X119461904Y-144306904D01*
X119461904Y-144211666D01*
X119509523Y-144116428D01*
X119557142Y-144068809D01*
X119652380Y-144021190D01*
X119842857Y-143973571D01*
X119938095Y-143925952D01*
X119985714Y-143878333D01*
X120033333Y-143783095D01*
X120033333Y-143687857D01*
X119985714Y-143592619D01*
X119938095Y-143545000D01*
X119842857Y-143497380D01*
X119604761Y-143497380D01*
X119461904Y-143545000D01*
X119080952Y-143830714D02*
X118366666Y-143830714D01*
X118795238Y-143402142D02*
X119080952Y-144687857D01*
X118461904Y-144259285D02*
X119176190Y-144259285D01*
X118747619Y-144687857D02*
X118461904Y-143402142D01*
X117271428Y-144497380D02*
X117271428Y-143497380D01*
X116890476Y-143497380D01*
X116795238Y-143545000D01*
X116747619Y-143592619D01*
X116700000Y-143687857D01*
X116700000Y-143830714D01*
X116747619Y-143925952D01*
X116795238Y-143973571D01*
X116890476Y-144021190D01*
X117271428Y-144021190D01*
X116271428Y-144497380D02*
X116271428Y-143497380D01*
X115795238Y-144497380D02*
X115795238Y-143497380D01*
X115223809Y-144497380D01*
X115223809Y-143497380D01*
X113985714Y-144116428D02*
X113223809Y-144116428D01*
X111985714Y-144497380D02*
X111985714Y-143497380D01*
X111604761Y-143497380D01*
X111509523Y-143545000D01*
X111461904Y-143592619D01*
X111414285Y-143687857D01*
X111414285Y-143830714D01*
X111461904Y-143925952D01*
X111509523Y-143973571D01*
X111604761Y-144021190D01*
X111985714Y-144021190D01*
X110652380Y-143973571D02*
X110509523Y-144021190D01*
X110461904Y-144068809D01*
X110414285Y-144164047D01*
X110414285Y-144306904D01*
X110461904Y-144402142D01*
X110509523Y-144449761D01*
X110604761Y-144497380D01*
X110985714Y-144497380D01*
X110985714Y-143497380D01*
X110652380Y-143497380D01*
X110557142Y-143545000D01*
X110509523Y-143592619D01*
X110461904Y-143687857D01*
X110461904Y-143783095D01*
X110509523Y-143878333D01*
X110557142Y-143925952D01*
X110652380Y-143973571D01*
X110985714Y-143973571D01*
X109938095Y-144497380D02*
X109747619Y-144497380D01*
X109652380Y-144449761D01*
X109604761Y-144402142D01*
X109509523Y-144259285D01*
X109461904Y-144068809D01*
X109461904Y-143687857D01*
X109509523Y-143592619D01*
X109557142Y-143545000D01*
X109652380Y-143497380D01*
X109842857Y-143497380D01*
X109938095Y-143545000D01*
X109985714Y-143592619D01*
X110033333Y-143687857D01*
X110033333Y-143925952D01*
X109985714Y-144021190D01*
X109938095Y-144068809D01*
X109842857Y-144116428D01*
X109652380Y-144116428D01*
X109557142Y-144068809D01*
X109509523Y-144021190D01*
X109461904Y-143925952D01*
X128580952Y-145583571D02*
X128247619Y-145583571D01*
X128104761Y-146107380D02*
X128580952Y-146107380D01*
X128580952Y-145107380D01*
X128104761Y-145107380D01*
X127152380Y-145155000D02*
X127247619Y-145107380D01*
X127390476Y-145107380D01*
X127533333Y-145155000D01*
X127628571Y-145250238D01*
X127676190Y-145345476D01*
X127723809Y-145535952D01*
X127723809Y-145678809D01*
X127676190Y-145869285D01*
X127628571Y-145964523D01*
X127533333Y-146059761D01*
X127390476Y-146107380D01*
X127295238Y-146107380D01*
X127152380Y-146059761D01*
X127104761Y-146012142D01*
X127104761Y-145678809D01*
X127295238Y-145678809D01*
X126819047Y-145107380D02*
X126247619Y-145107380D01*
X126533333Y-146107380D02*
X126533333Y-145107380D01*
X124580952Y-146012142D02*
X124628571Y-146059761D01*
X124771428Y-146107380D01*
X124866666Y-146107380D01*
X125009523Y-146059761D01*
X125104761Y-145964523D01*
X125152380Y-145869285D01*
X125200000Y-145678809D01*
X125200000Y-145535952D01*
X125152380Y-145345476D01*
X125104761Y-145250238D01*
X125009523Y-145155000D01*
X124866666Y-145107380D01*
X124771428Y-145107380D01*
X124628571Y-145155000D01*
X124580952Y-145202619D01*
X124152380Y-146107380D02*
X124152380Y-145107380D01*
X123723809Y-146107380D02*
X123723809Y-145583571D01*
X123771428Y-145488333D01*
X123866666Y-145440714D01*
X124009523Y-145440714D01*
X124104761Y-145488333D01*
X124152380Y-145535952D01*
X123247619Y-146107380D02*
X123247619Y-145440714D01*
X123247619Y-145107380D02*
X123295238Y-145155000D01*
X123247619Y-145202619D01*
X123200000Y-145155000D01*
X123247619Y-145107380D01*
X123247619Y-145202619D01*
X122771428Y-145440714D02*
X122771428Y-146440714D01*
X122771428Y-145488333D02*
X122676190Y-145440714D01*
X122485714Y-145440714D01*
X122390476Y-145488333D01*
X122342857Y-145535952D01*
X122295238Y-145631190D01*
X122295238Y-145916904D01*
X122342857Y-146012142D01*
X122390476Y-146059761D01*
X122485714Y-146107380D01*
X122676190Y-146107380D01*
X122771428Y-146059761D01*
X120533333Y-146012142D02*
X120580952Y-146059761D01*
X120723809Y-146107380D01*
X120819047Y-146107380D01*
X120961904Y-146059761D01*
X121057142Y-145964523D01*
X121104761Y-145869285D01*
X121152380Y-145678809D01*
X121152380Y-145535952D01*
X121104761Y-145345476D01*
X121057142Y-145250238D01*
X120961904Y-145155000D01*
X120819047Y-145107380D01*
X120723809Y-145107380D01*
X120580952Y-145155000D01*
X120533333Y-145202619D01*
X120152380Y-146059761D02*
X120009523Y-146107380D01*
X119771428Y-146107380D01*
X119676190Y-146059761D01*
X119628571Y-146012142D01*
X119580952Y-145916904D01*
X119580952Y-145821666D01*
X119628571Y-145726428D01*
X119676190Y-145678809D01*
X119771428Y-145631190D01*
X119961904Y-145583571D01*
X120057142Y-145535952D01*
X120104761Y-145488333D01*
X120152380Y-145393095D01*
X120152380Y-145297857D01*
X120104761Y-145202619D01*
X120057142Y-145155000D01*
X119961904Y-145107380D01*
X119723809Y-145107380D01*
X119580952Y-145155000D01*
X119200000Y-145440714D02*
X118485714Y-145440714D01*
X118914285Y-145012142D02*
X119200000Y-146297857D01*
X118580952Y-145869285D02*
X119295238Y-145869285D01*
X118866666Y-146297857D02*
X118580952Y-145012142D01*
X117390476Y-146107380D02*
X117390476Y-145107380D01*
X117009523Y-145107380D01*
X116914285Y-145155000D01*
X116866666Y-145202619D01*
X116819047Y-145297857D01*
X116819047Y-145440714D01*
X116866666Y-145535952D01*
X116914285Y-145583571D01*
X117009523Y-145631190D01*
X117390476Y-145631190D01*
X116390476Y-146107380D02*
X116390476Y-145107380D01*
X115914285Y-146107380D02*
X115914285Y-145107380D01*
X115342857Y-146107380D01*
X115342857Y-145107380D01*
X114104761Y-145726428D02*
X113342857Y-145726428D01*
X112104761Y-146107380D02*
X112104761Y-145107380D01*
X111723809Y-145107380D01*
X111628571Y-145155000D01*
X111580952Y-145202619D01*
X111533333Y-145297857D01*
X111533333Y-145440714D01*
X111580952Y-145535952D01*
X111628571Y-145583571D01*
X111723809Y-145631190D01*
X112104761Y-145631190D01*
X111152380Y-145821666D02*
X110676190Y-145821666D01*
X111247619Y-146107380D02*
X110914285Y-145107380D01*
X110580952Y-146107380D01*
X109723809Y-146107380D02*
X110295238Y-146107380D01*
X110009523Y-146107380D02*
X110009523Y-145107380D01*
X110104761Y-145250238D01*
X110200000Y-145345476D01*
X110295238Y-145393095D01*
X108819047Y-145107380D02*
X109295238Y-145107380D01*
X109342857Y-145583571D01*
X109295238Y-145535952D01*
X109200000Y-145488333D01*
X108961904Y-145488333D01*
X108866666Y-145535952D01*
X108819047Y-145583571D01*
X108771428Y-145678809D01*
X108771428Y-145916904D01*
X108819047Y-146012142D01*
X108866666Y-146059761D01*
X108961904Y-146107380D01*
X109200000Y-146107380D01*
X109295238Y-146059761D01*
X109342857Y-146012142D01*
D13*
X135152142Y-155103571D02*
X135152142Y-153603571D01*
X134652142Y-154675000D01*
X134152142Y-153603571D01*
X134152142Y-155103571D01*
X132580714Y-155103571D02*
X133080714Y-154389285D01*
X133437857Y-155103571D02*
X133437857Y-153603571D01*
X132866428Y-153603571D01*
X132723571Y-153675000D01*
X132652142Y-153746428D01*
X132580714Y-153889285D01*
X132580714Y-154103571D01*
X132652142Y-154246428D01*
X132723571Y-154317857D01*
X132866428Y-154389285D01*
X133437857Y-154389285D01*
X131937857Y-154317857D02*
X131437857Y-154317857D01*
X131223571Y-155103571D02*
X131937857Y-155103571D01*
X131937857Y-153603571D01*
X131223571Y-153603571D01*
X128795000Y-155103571D02*
X128795000Y-154317857D01*
X128866428Y-154175000D01*
X129009285Y-154103571D01*
X129295000Y-154103571D01*
X129437857Y-154175000D01*
X128795000Y-155032142D02*
X128937857Y-155103571D01*
X129295000Y-155103571D01*
X129437857Y-155032142D01*
X129509285Y-154889285D01*
X129509285Y-154746428D01*
X129437857Y-154603571D01*
X129295000Y-154532142D01*
X128937857Y-154532142D01*
X128795000Y-154460714D01*
X127437857Y-155103571D02*
X127437857Y-153603571D01*
X127437857Y-155032142D02*
X127580714Y-155103571D01*
X127866428Y-155103571D01*
X128009285Y-155032142D01*
X128080714Y-154960714D01*
X128152142Y-154817857D01*
X128152142Y-154389285D01*
X128080714Y-154246428D01*
X128009285Y-154175000D01*
X127866428Y-154103571D01*
X127580714Y-154103571D01*
X127437857Y-154175000D01*
X126080714Y-155103571D02*
X126080714Y-153603571D01*
X126080714Y-155032142D02*
X126223571Y-155103571D01*
X126509285Y-155103571D01*
X126652142Y-155032142D01*
X126723571Y-154960714D01*
X126795000Y-154817857D01*
X126795000Y-154389285D01*
X126723571Y-154246428D01*
X126652142Y-154175000D01*
X126509285Y-154103571D01*
X126223571Y-154103571D01*
X126080714Y-154175000D01*
X125152142Y-155103571D02*
X125295000Y-155032142D01*
X125366428Y-154960714D01*
X125437857Y-154817857D01*
X125437857Y-154389285D01*
X125366428Y-154246428D01*
X125295000Y-154175000D01*
X125152142Y-154103571D01*
X124937857Y-154103571D01*
X124795000Y-154175000D01*
X124723571Y-154246428D01*
X124652142Y-154389285D01*
X124652142Y-154817857D01*
X124723571Y-154960714D01*
X124795000Y-155032142D01*
X124937857Y-155103571D01*
X125152142Y-155103571D01*
X124009285Y-154103571D02*
X124009285Y-155103571D01*
X124009285Y-154246428D02*
X123937857Y-154175000D01*
X123795000Y-154103571D01*
X123580714Y-154103571D01*
X123437857Y-154175000D01*
X123366428Y-154317857D01*
X123366428Y-155103571D01*
X121509285Y-155103571D02*
X121509285Y-153603571D01*
X121509285Y-154175000D02*
X121366428Y-154103571D01*
X121080714Y-154103571D01*
X120937857Y-154175000D01*
X120866428Y-154246428D01*
X120795000Y-154389285D01*
X120795000Y-154817857D01*
X120866428Y-154960714D01*
X120937857Y-155032142D01*
X121080714Y-155103571D01*
X121366428Y-155103571D01*
X121509285Y-155032142D01*
X119937857Y-155103571D02*
X120080714Y-155032142D01*
X120152142Y-154960714D01*
X120223571Y-154817857D01*
X120223571Y-154389285D01*
X120152142Y-154246428D01*
X120080714Y-154175000D01*
X119937857Y-154103571D01*
X119723571Y-154103571D01*
X119580714Y-154175000D01*
X119509285Y-154246428D01*
X119437857Y-154389285D01*
X119437857Y-154817857D01*
X119509285Y-154960714D01*
X119580714Y-155032142D01*
X119723571Y-155103571D01*
X119937857Y-155103571D01*
X118152142Y-155103571D02*
X118152142Y-154317857D01*
X118223571Y-154175000D01*
X118366428Y-154103571D01*
X118652142Y-154103571D01*
X118795000Y-154175000D01*
X118152142Y-155032142D02*
X118295000Y-155103571D01*
X118652142Y-155103571D01*
X118795000Y-155032142D01*
X118866428Y-154889285D01*
X118866428Y-154746428D01*
X118795000Y-154603571D01*
X118652142Y-154532142D01*
X118295000Y-154532142D01*
X118152142Y-154460714D01*
X117437857Y-155103571D02*
X117437857Y-154103571D01*
X117437857Y-154389285D02*
X117366428Y-154246428D01*
X117295000Y-154175000D01*
X117152142Y-154103571D01*
X117009285Y-154103571D01*
X115866428Y-155103571D02*
X115866428Y-153603571D01*
X115866428Y-155032142D02*
X116009285Y-155103571D01*
X116295000Y-155103571D01*
X116437857Y-155032142D01*
X116509285Y-154960714D01*
X116580714Y-154817857D01*
X116580714Y-154389285D01*
X116509285Y-154246428D01*
X116437857Y-154175000D01*
X116295000Y-154103571D01*
X116009285Y-154103571D01*
X115866428Y-154175000D01*
X114009285Y-154532142D02*
X112866428Y-154532142D01*
X111152142Y-153603571D02*
X110795000Y-155103571D01*
X110509285Y-154032142D01*
X110223571Y-155103571D01*
X109866428Y-153603571D01*
X108795000Y-154317857D02*
X108580714Y-154389285D01*
X108509285Y-154460714D01*
X108437857Y-154603571D01*
X108437857Y-154817857D01*
X108509285Y-154960714D01*
X108580714Y-155032142D01*
X108723571Y-155103571D01*
X109295000Y-155103571D01*
X109295000Y-153603571D01*
X108795000Y-153603571D01*
X108652142Y-153675000D01*
X108580714Y-153746428D01*
X108509285Y-153889285D01*
X108509285Y-154032142D01*
X108580714Y-154175000D01*
X108652142Y-154246428D01*
X108795000Y-154317857D01*
X109295000Y-154317857D01*
X107509285Y-153603571D02*
X107223571Y-153603571D01*
X107080714Y-153675000D01*
X106937857Y-153817857D01*
X106866428Y-154103571D01*
X106866428Y-154603571D01*
X106937857Y-154889285D01*
X107080714Y-155032142D01*
X107223571Y-155103571D01*
X107509285Y-155103571D01*
X107652142Y-155032142D01*
X107795000Y-154889285D01*
X107866428Y-154603571D01*
X107866428Y-154103571D01*
X107795000Y-153817857D01*
X107652142Y-153675000D01*
X107509285Y-153603571D01*
X106295000Y-153746428D02*
X106223571Y-153675000D01*
X106080714Y-153603571D01*
X105723571Y-153603571D01*
X105580714Y-153675000D01*
X105509285Y-153746428D01*
X105437857Y-153889285D01*
X105437857Y-154032142D01*
X105509285Y-154246428D01*
X106366428Y-155103571D01*
X105437857Y-155103571D01*
X102437857Y-155103571D02*
X102509285Y-155103571D01*
X102652142Y-155032142D01*
X102866428Y-154817857D01*
X103223571Y-154389285D01*
X103366428Y-154175000D01*
X103437857Y-153960714D01*
X103437857Y-153817857D01*
X103366428Y-153675000D01*
X103223571Y-153603571D01*
X103152142Y-153603571D01*
X103009285Y-153675000D01*
X102937857Y-153817857D01*
X102937857Y-153889285D01*
X103009285Y-154032142D01*
X103080714Y-154103571D01*
X103509285Y-154389285D01*
X103580714Y-154460714D01*
X103652142Y-154603571D01*
X103652142Y-154817857D01*
X103580714Y-154960714D01*
X103509285Y-155032142D01*
X103366428Y-155103571D01*
X103152142Y-155103571D01*
X103009285Y-155032142D01*
X102937857Y-154960714D01*
X102723571Y-154675000D01*
X102652142Y-154460714D01*
X102652142Y-154317857D01*
X100652142Y-154317857D02*
X100152142Y-154317857D01*
X99937857Y-155103571D02*
X100652142Y-155103571D01*
X100652142Y-153603571D01*
X99937857Y-153603571D01*
X98509285Y-153675000D02*
X98652142Y-153603571D01*
X98866428Y-153603571D01*
X99080714Y-153675000D01*
X99223571Y-153817857D01*
X99295000Y-153960714D01*
X99366428Y-154246428D01*
X99366428Y-154460714D01*
X99295000Y-154746428D01*
X99223571Y-154889285D01*
X99080714Y-155032142D01*
X98866428Y-155103571D01*
X98723571Y-155103571D01*
X98509285Y-155032142D01*
X98437857Y-154960714D01*
X98437857Y-154460714D01*
X98723571Y-154460714D01*
X98009285Y-153603571D02*
X97152142Y-153603571D01*
X97580714Y-155103571D02*
X97580714Y-153603571D01*
X94295000Y-155103571D02*
X94366428Y-155103571D01*
X94509285Y-155032142D01*
X94723571Y-154817857D01*
X95080714Y-154389285D01*
X95223571Y-154175000D01*
X95295000Y-153960714D01*
X95295000Y-153817857D01*
X95223571Y-153675000D01*
X95080714Y-153603571D01*
X95009285Y-153603571D01*
X94866428Y-153675000D01*
X94795000Y-153817857D01*
X94795000Y-153889285D01*
X94866428Y-154032142D01*
X94937857Y-154103571D01*
X95366428Y-154389285D01*
X95437857Y-154460714D01*
X95509285Y-154603571D01*
X95509285Y-154817857D01*
X95437857Y-154960714D01*
X95366428Y-155032142D01*
X95223571Y-155103571D01*
X95009285Y-155103571D01*
X94866428Y-155032142D01*
X94795000Y-154960714D01*
X94580714Y-154675000D01*
X94509285Y-154460714D01*
X94509285Y-154317857D01*
X92580714Y-155032142D02*
X92366428Y-155103571D01*
X92009285Y-155103571D01*
X91866428Y-155032142D01*
X91795000Y-154960714D01*
X91723571Y-154817857D01*
X91723571Y-154675000D01*
X91795000Y-154532142D01*
X91866428Y-154460714D01*
X92009285Y-154389285D01*
X92295000Y-154317857D01*
X92437857Y-154246428D01*
X92509285Y-154175000D01*
X92580714Y-154032142D01*
X92580714Y-153889285D01*
X92509285Y-153746428D01*
X92437857Y-153675000D01*
X92295000Y-153603571D01*
X91937857Y-153603571D01*
X91723571Y-153675000D01*
X91080714Y-155103571D02*
X91080714Y-153603571D01*
X90723571Y-153603571D01*
X90509285Y-153675000D01*
X90366428Y-153817857D01*
X90295000Y-153960714D01*
X90223571Y-154246428D01*
X90223571Y-154460714D01*
X90295000Y-154746428D01*
X90366428Y-154889285D01*
X90509285Y-155032142D01*
X90723571Y-155103571D01*
X91080714Y-155103571D01*
X88723571Y-154960714D02*
X88795000Y-155032142D01*
X89009285Y-155103571D01*
X89152142Y-155103571D01*
X89366428Y-155032142D01*
X89509285Y-154889285D01*
X89580714Y-154746428D01*
X89652142Y-154460714D01*
X89652142Y-154246428D01*
X89580714Y-153960714D01*
X89509285Y-153817857D01*
X89366428Y-153675000D01*
X89152142Y-153603571D01*
X89009285Y-153603571D01*
X88795000Y-153675000D01*
X88723571Y-153746428D01*
X87437857Y-155103571D02*
X87437857Y-154317857D01*
X87509285Y-154175000D01*
X87652142Y-154103571D01*
X87937857Y-154103571D01*
X88080714Y-154175000D01*
X87437857Y-155032142D02*
X87580714Y-155103571D01*
X87937857Y-155103571D01*
X88080714Y-155032142D01*
X88152142Y-154889285D01*
X88152142Y-154746428D01*
X88080714Y-154603571D01*
X87937857Y-154532142D01*
X87580714Y-154532142D01*
X87437857Y-154460714D01*
X86723571Y-155103571D02*
X86723571Y-154103571D01*
X86723571Y-154389285D02*
X86652142Y-154246428D01*
X86580714Y-154175000D01*
X86437857Y-154103571D01*
X86295000Y-154103571D01*
X85152142Y-155103571D02*
X85152142Y-153603571D01*
X85152142Y-155032142D02*
X85295000Y-155103571D01*
X85580714Y-155103571D01*
X85723571Y-155032142D01*
X85795000Y-154960714D01*
X85866428Y-154817857D01*
X85866428Y-154389285D01*
X85795000Y-154246428D01*
X85723571Y-154175000D01*
X85580714Y-154103571D01*
X85295000Y-154103571D01*
X85152142Y-154175000D01*
D14*
X153021004Y-143710535D02*
X153378147Y-143710535D01*
X153284397Y-142960535D01*
X152802254Y-143674821D02*
X152699575Y-143710535D01*
X152521004Y-143710535D01*
X152445111Y-143674821D01*
X152404933Y-143639107D01*
X152360290Y-143567678D01*
X152351361Y-143496250D01*
X152378147Y-143424821D01*
X152409397Y-143389107D01*
X152476361Y-143353392D01*
X152614754Y-143317678D01*
X152681718Y-143281964D01*
X152712968Y-143246250D01*
X152739754Y-143174821D01*
X152730825Y-143103392D01*
X152686183Y-143031964D01*
X152646004Y-142996250D01*
X152570111Y-142960535D01*
X152391540Y-142960535D01*
X152288861Y-142996250D01*
X151962968Y-142960535D02*
X152038861Y-143567678D01*
X152012075Y-143639107D01*
X151980825Y-143674821D01*
X151913861Y-143710535D01*
X151771004Y-143710535D01*
X151695111Y-143674821D01*
X151654933Y-143639107D01*
X151610290Y-143567678D01*
X151534397Y-142960535D01*
X150712968Y-142960535D02*
X150556718Y-143710535D01*
X150212968Y-142960535D01*
X150056718Y-143710535D02*
X149994218Y-143210535D01*
X150003147Y-143281964D02*
X149962968Y-143246250D01*
X149887075Y-143210535D01*
X149779933Y-143210535D01*
X149712968Y-143246250D01*
X149686183Y-143317678D01*
X149735290Y-143710535D01*
X149686183Y-143317678D02*
X149641540Y-143246250D01*
X149565647Y-143210535D01*
X149458504Y-143210535D01*
X149391540Y-143246250D01*
X149364754Y-143317678D01*
X149413861Y-143710535D01*
X153119218Y-144560892D02*
X153163861Y-144918035D01*
X153320111Y-144168035D02*
X153119218Y-144560892D01*
X152820111Y-144168035D01*
X152614754Y-144525178D02*
X152364754Y-144525178D01*
X152306718Y-144918035D02*
X152663861Y-144918035D01*
X152570111Y-144168035D01*
X152212968Y-144168035D01*
X151628147Y-144918035D02*
X151985290Y-144918035D01*
X151891540Y-144168035D01*
X151021004Y-144918035D02*
X151378147Y-144918035D01*
X151284397Y-144168035D01*
X150534397Y-144168035D02*
X150391540Y-144168035D01*
X150324575Y-144203750D01*
X150262075Y-144275178D01*
X150244218Y-144418035D01*
X150275468Y-144668035D01*
X150329040Y-144810892D01*
X150409397Y-144882321D01*
X150485290Y-144918035D01*
X150628147Y-144918035D01*
X150695111Y-144882321D01*
X150757611Y-144810892D01*
X150775468Y-144668035D01*
X150744218Y-144418035D01*
X150690647Y-144275178D01*
X150610290Y-144203750D01*
X150534397Y-144168035D01*
X149962968Y-144168035D02*
X149878147Y-144918035D01*
X149668325Y-144382321D01*
X149592433Y-144918035D01*
X149320111Y-144168035D01*
D11*
X113652380Y-137414285D02*
X112652380Y-137414285D01*
X113128571Y-137414285D02*
X113128571Y-137985714D01*
X113652380Y-137985714D02*
X112652380Y-137985714D01*
X113652380Y-135309523D02*
X113652380Y-134833333D01*
X112652380Y-134833333D01*
D14*
X153081718Y-149760535D02*
X153438861Y-149760535D01*
X153345111Y-149010535D01*
X152862968Y-149724821D02*
X152760290Y-149760535D01*
X152581718Y-149760535D01*
X152505825Y-149724821D01*
X152465647Y-149689107D01*
X152421004Y-149617678D01*
X152412075Y-149546250D01*
X152438861Y-149474821D01*
X152470111Y-149439107D01*
X152537075Y-149403392D01*
X152675468Y-149367678D01*
X152742433Y-149331964D01*
X152773683Y-149296250D01*
X152800468Y-149224821D01*
X152791540Y-149153392D01*
X152746897Y-149081964D01*
X152706718Y-149046250D01*
X152630825Y-149010535D01*
X152452254Y-149010535D01*
X152349575Y-149046250D01*
X152023683Y-149010535D02*
X152099575Y-149617678D01*
X152072790Y-149689107D01*
X152041540Y-149724821D01*
X151974575Y-149760535D01*
X151831718Y-149760535D01*
X151755825Y-149724821D01*
X151715647Y-149689107D01*
X151671004Y-149617678D01*
X151595111Y-149010535D01*
X150666540Y-149010535D02*
X150742433Y-149617678D01*
X150715647Y-149689107D01*
X150684397Y-149724821D01*
X150617433Y-149760535D01*
X150474575Y-149760535D01*
X150398683Y-149724821D01*
X150358504Y-149689107D01*
X150313861Y-149617678D01*
X150237968Y-149010535D01*
X149912075Y-149260535D02*
X149974575Y-149760535D01*
X149921004Y-149331964D02*
X149880825Y-149296250D01*
X149804933Y-149260535D01*
X149697790Y-149260535D01*
X149630825Y-149296250D01*
X149604040Y-149367678D01*
X149653147Y-149760535D01*
X152818325Y-150575178D02*
X152715647Y-150610892D01*
X152684397Y-150646607D01*
X152657611Y-150718035D01*
X152671004Y-150825178D01*
X152715647Y-150896607D01*
X152755825Y-150932321D01*
X152831718Y-150968035D01*
X153117433Y-150968035D01*
X153023683Y-150218035D01*
X152773683Y-150218035D01*
X152706718Y-150253750D01*
X152675468Y-150289464D01*
X152648683Y-150360892D01*
X152657611Y-150432321D01*
X152702254Y-150503750D01*
X152742433Y-150539464D01*
X152818325Y-150575178D01*
X153068325Y-150575178D01*
X152010290Y-150968035D02*
X152367433Y-150968035D01*
X152273683Y-150218035D01*
X151769218Y-150753750D02*
X151412075Y-150753750D01*
X151867433Y-150968035D02*
X151523683Y-150218035D01*
X151367433Y-150968035D01*
X150679933Y-150896607D02*
X150720111Y-150932321D01*
X150831718Y-150968035D01*
X150903147Y-150968035D01*
X151005825Y-150932321D01*
X151068325Y-150860892D01*
X151095111Y-150789464D01*
X151112968Y-150646607D01*
X151099575Y-150539464D01*
X151046004Y-150396607D01*
X151001361Y-150325178D01*
X150921004Y-150253750D01*
X150809397Y-150218035D01*
X150737968Y-150218035D01*
X150635290Y-150253750D01*
X150604040Y-150289464D01*
X150367433Y-150968035D02*
X150273683Y-150218035D01*
X149938861Y-150968035D02*
X150206718Y-150539464D01*
X149845111Y-150218035D02*
X150327254Y-150646607D01*
X143242857Y-154835535D02*
X142814285Y-154835535D01*
X143028571Y-155585535D02*
X143028571Y-154835535D01*
X142135714Y-155514107D02*
X142171428Y-155549821D01*
X142278571Y-155585535D01*
X142350000Y-155585535D01*
X142457142Y-155549821D01*
X142528571Y-155478392D01*
X142564285Y-155406964D01*
X142600000Y-155264107D01*
X142600000Y-155156964D01*
X142564285Y-155014107D01*
X142528571Y-154942678D01*
X142457142Y-154871250D01*
X142350000Y-154835535D01*
X142278571Y-154835535D01*
X142171428Y-154871250D01*
X142135714Y-154906964D01*
X141814285Y-155585535D02*
X141814285Y-154835535D01*
X141528571Y-154835535D01*
X141457142Y-154871250D01*
X141421428Y-154906964D01*
X141385714Y-154978392D01*
X141385714Y-155085535D01*
X141421428Y-155156964D01*
X141457142Y-155192678D01*
X141528571Y-155228392D01*
X141814285Y-155228392D01*
X140707142Y-155585535D02*
X141064285Y-155585535D01*
X141064285Y-154835535D01*
X142260714Y-156507321D02*
X141689285Y-156507321D01*
X141975000Y-156793035D02*
X141975000Y-156221607D01*
X138392433Y-143885535D02*
X138749575Y-143885535D01*
X138655825Y-143135535D01*
X138173683Y-143849821D02*
X138071004Y-143885535D01*
X137892433Y-143885535D01*
X137816540Y-143849821D01*
X137776361Y-143814107D01*
X137731718Y-143742678D01*
X137722790Y-143671250D01*
X137749575Y-143599821D01*
X137780825Y-143564107D01*
X137847790Y-143528392D01*
X137986183Y-143492678D01*
X138053147Y-143456964D01*
X138084397Y-143421250D01*
X138111183Y-143349821D01*
X138102254Y-143278392D01*
X138057611Y-143206964D01*
X138017433Y-143171250D01*
X137941540Y-143135535D01*
X137762968Y-143135535D01*
X137660290Y-143171250D01*
X137334397Y-143135535D02*
X137410290Y-143742678D01*
X137383504Y-143814107D01*
X137352254Y-143849821D01*
X137285290Y-143885535D01*
X137142433Y-143885535D01*
X137066540Y-143849821D01*
X137026361Y-143814107D01*
X136981718Y-143742678D01*
X136905825Y-143135535D01*
X136071004Y-143885535D02*
X135977254Y-143135535D01*
X135651361Y-143385535D02*
X135745111Y-144135535D01*
X135655825Y-143421250D02*
X135579933Y-143385535D01*
X135437075Y-143385535D01*
X135370111Y-143421250D01*
X135338861Y-143456964D01*
X135312075Y-143528392D01*
X135338861Y-143742678D01*
X135383504Y-143814107D01*
X135423683Y-143849821D01*
X135499575Y-143885535D01*
X135642433Y-143885535D01*
X135709397Y-143849821D01*
X137553147Y-145093035D02*
X137758504Y-144735892D01*
X137981718Y-145093035D02*
X137887968Y-144343035D01*
X137602254Y-144343035D01*
X137535290Y-144378750D01*
X137504040Y-144414464D01*
X137477254Y-144485892D01*
X137490647Y-144593035D01*
X137535290Y-144664464D01*
X137575468Y-144700178D01*
X137651361Y-144735892D01*
X137937075Y-144735892D01*
X137182611Y-144700178D02*
X136932611Y-144700178D01*
X136874575Y-145093035D02*
X137231718Y-145093035D01*
X137137968Y-144343035D01*
X136780825Y-144343035D01*
X136553147Y-145093035D02*
X136459397Y-144343035D01*
X136280825Y-144343035D01*
X136178147Y-144378750D01*
X136115647Y-144450178D01*
X136088861Y-144521607D01*
X136071004Y-144664464D01*
X136084397Y-144771607D01*
X136137968Y-144914464D01*
X136182611Y-144985892D01*
X136262968Y-145057321D01*
X136374575Y-145093035D01*
X136553147Y-145093035D01*
D15*
X116351502Y-126226190D02*
X116041979Y-126226190D01*
X116232455Y-126416666D01*
X116161026Y-126416666D01*
X116116383Y-126440476D01*
X116095550Y-126464285D01*
X116077693Y-126511904D01*
X116092574Y-126630952D01*
X116122336Y-126678571D01*
X116149122Y-126702380D01*
X116199717Y-126726190D01*
X116342574Y-126726190D01*
X116387217Y-126702380D01*
X116408050Y-126678571D01*
X115884241Y-126678571D02*
X115863407Y-126702380D01*
X115890193Y-126726190D01*
X115911026Y-126702380D01*
X115884241Y-126678571D01*
X115890193Y-126726190D01*
X115637217Y-126226190D02*
X115327693Y-126226190D01*
X115518169Y-126416666D01*
X115446741Y-126416666D01*
X115402098Y-126440476D01*
X115381264Y-126464285D01*
X115363407Y-126511904D01*
X115378288Y-126630952D01*
X115408050Y-126678571D01*
X115434836Y-126702380D01*
X115485431Y-126726190D01*
X115628288Y-126726190D01*
X115672931Y-126702380D01*
X115693764Y-126678571D01*
X115184836Y-126226190D02*
X115080669Y-126726190D01*
X114851502Y-126226190D01*
X114006264Y-126702380D02*
X113937812Y-126726190D01*
X113818764Y-126726190D01*
X113768169Y-126702380D01*
X113741383Y-126678571D01*
X113711622Y-126630952D01*
X113705669Y-126583333D01*
X113723526Y-126535714D01*
X113744360Y-126511904D01*
X113789002Y-126488095D01*
X113881264Y-126464285D01*
X113925907Y-126440476D01*
X113946741Y-126416666D01*
X113964598Y-126369047D01*
X113958645Y-126321428D01*
X113928883Y-126273809D01*
X113902098Y-126250000D01*
X113851502Y-126226190D01*
X113732455Y-126226190D01*
X113664002Y-126250000D01*
X113494360Y-126226190D02*
X113437812Y-126726190D01*
X113297931Y-126369047D01*
X113247336Y-126726190D01*
X113065788Y-126226190D01*
X112646145Y-126678571D02*
X112672931Y-126702380D01*
X112747336Y-126726190D01*
X112794955Y-126726190D01*
X112863407Y-126702380D01*
X112905074Y-126654761D01*
X112922931Y-126607142D01*
X112934836Y-126511904D01*
X112925907Y-126440476D01*
X112890193Y-126345238D01*
X112860431Y-126297619D01*
X112806860Y-126250000D01*
X112732455Y-126226190D01*
X112684836Y-126226190D01*
X112616383Y-126250000D01*
X112595550Y-126273809D01*
X112199717Y-126726190D02*
X112437812Y-126726190D01*
X112375312Y-126226190D01*
X112033050Y-126726190D02*
X111970550Y-126226190D01*
X111747336Y-126726190D02*
X111925907Y-126440476D01*
X111684836Y-126226190D02*
X112006264Y-126511904D01*
X110830669Y-126250000D02*
X110875312Y-126226190D01*
X110946741Y-126226190D01*
X111021145Y-126250000D01*
X111074717Y-126297619D01*
X111104479Y-126345238D01*
X111140193Y-126440476D01*
X111149122Y-126511904D01*
X111137217Y-126607142D01*
X111119360Y-126654761D01*
X111077693Y-126702380D01*
X111009241Y-126726190D01*
X110961622Y-126726190D01*
X110887217Y-126702380D01*
X110860431Y-126678571D01*
X110839598Y-126511904D01*
X110934836Y-126511904D01*
X110652098Y-126726190D02*
X110589598Y-126226190D01*
X110366383Y-126726190D01*
X110303883Y-126226190D01*
X110128288Y-126726190D02*
X110065788Y-126226190D01*
X109946741Y-126226190D01*
X109878288Y-126250000D01*
X109836622Y-126297619D01*
X109818764Y-126345238D01*
X109806860Y-126440476D01*
X109815788Y-126511904D01*
X109851502Y-126607142D01*
X109881264Y-126654761D01*
X109934836Y-126702380D01*
X110009241Y-126726190D01*
X110128288Y-126726190D01*
X109268169Y-126702380D02*
X109199717Y-126726190D01*
X109080669Y-126726190D01*
X109030074Y-126702380D01*
X109003288Y-126678571D01*
X108973526Y-126630952D01*
X108967574Y-126583333D01*
X108985431Y-126535714D01*
X109006264Y-126511904D01*
X109050907Y-126488095D01*
X109143169Y-126464285D01*
X109187812Y-126440476D01*
X109208645Y-126416666D01*
X109226502Y-126369047D01*
X109220550Y-126321428D01*
X109190788Y-126273809D01*
X109164002Y-126250000D01*
X109113407Y-126226190D01*
X108994360Y-126226190D01*
X108925907Y-126250000D01*
X108756264Y-126226190D02*
X108699717Y-126726190D01*
X108559836Y-126369047D01*
X108509241Y-126726190D01*
X108327693Y-126226190D01*
X108199717Y-126726190D02*
X108137217Y-126226190D01*
X108018169Y-126226190D01*
X107949717Y-126250000D01*
X107908050Y-126297619D01*
X107890193Y-126345238D01*
X107878288Y-126440476D01*
X107887217Y-126511904D01*
X107922931Y-126607142D01*
X107952693Y-126654761D01*
X108006264Y-126702380D01*
X108080669Y-126726190D01*
X108199717Y-126726190D01*
X107699717Y-126726190D02*
X107637217Y-126226190D01*
X107303883Y-126226190D02*
X107208645Y-126226190D01*
X107164002Y-126250000D01*
X107122336Y-126297619D01*
X107110431Y-126392857D01*
X107131264Y-126559523D01*
X107166979Y-126654761D01*
X107220550Y-126702380D01*
X107271145Y-126726190D01*
X107366383Y-126726190D01*
X107411026Y-126702380D01*
X107452693Y-126654761D01*
X107464598Y-126559523D01*
X107443764Y-126392857D01*
X107408050Y-126297619D01*
X107354479Y-126250000D01*
X107303883Y-126226190D01*
X106515193Y-126392857D02*
X106556860Y-126726190D01*
X106521145Y-126440476D02*
X106494360Y-126416666D01*
X106443764Y-126392857D01*
X106372336Y-126392857D01*
X106327693Y-126416666D01*
X106309836Y-126464285D01*
X106342574Y-126726190D01*
X105818764Y-126726190D02*
X105955669Y-126488095D01*
X106104479Y-126726190D02*
X106041979Y-126226190D01*
X105851502Y-126226190D01*
X105806860Y-126250000D01*
X105786026Y-126273809D01*
X105768169Y-126321428D01*
X105777098Y-126392857D01*
X105806860Y-126440476D01*
X105833645Y-126464285D01*
X105884241Y-126488095D01*
X106074717Y-126488095D01*
X105571741Y-126464285D02*
X105405074Y-126464285D01*
X105366383Y-126726190D02*
X105604479Y-126726190D01*
X105541979Y-126226190D01*
X105303883Y-126226190D01*
X105172931Y-126702380D02*
X105104479Y-126726190D01*
X104985431Y-126726190D01*
X104934836Y-126702380D01*
X104908050Y-126678571D01*
X104878288Y-126630952D01*
X104872336Y-126583333D01*
X104890193Y-126535714D01*
X104911026Y-126511904D01*
X104955669Y-126488095D01*
X105047931Y-126464285D01*
X105092574Y-126440476D01*
X105113407Y-126416666D01*
X105131264Y-126369047D01*
X105125312Y-126321428D01*
X105095550Y-126273809D01*
X105068764Y-126250000D01*
X105018169Y-126226190D01*
X104899122Y-126226190D01*
X104830669Y-126250000D01*
X104643169Y-126464285D02*
X104476502Y-126464285D01*
X104437812Y-126726190D02*
X104675907Y-126726190D01*
X104613407Y-126226190D01*
X104375312Y-126226190D01*
X104232455Y-126226190D02*
X103946741Y-126226190D01*
X104152098Y-126726190D02*
X104089598Y-126226190D01*
X103482455Y-126702380D02*
X103414002Y-126726190D01*
X103294955Y-126726190D01*
X103244360Y-126702380D01*
X103217574Y-126678571D01*
X103187812Y-126630952D01*
X103181860Y-126583333D01*
X103199717Y-126535714D01*
X103220550Y-126511904D01*
X103265193Y-126488095D01*
X103357455Y-126464285D01*
X103402098Y-126440476D01*
X103422931Y-126416666D01*
X103440788Y-126369047D01*
X103434836Y-126321428D01*
X103405074Y-126273809D01*
X103378288Y-126250000D01*
X103327693Y-126226190D01*
X103208645Y-126226190D01*
X103140193Y-126250000D01*
X102970550Y-126226190D02*
X102914002Y-126726190D01*
X102774122Y-126369047D01*
X102723526Y-126726190D01*
X102541979Y-126226190D01*
X102256264Y-126226190D02*
X102161026Y-126226190D01*
X102116383Y-126250000D01*
X102074717Y-126297619D01*
X102062812Y-126392857D01*
X102083645Y-126559523D01*
X102119360Y-126654761D01*
X102172931Y-126702380D01*
X102223526Y-126726190D01*
X102318764Y-126726190D01*
X102363407Y-126702380D01*
X102405074Y-126654761D01*
X102416979Y-126559523D01*
X102396145Y-126392857D01*
X102360431Y-126297619D01*
X102306860Y-126250000D01*
X102256264Y-126226190D01*
D11*
X147774604Y-158266666D02*
X147687104Y-157566666D01*
X147374604Y-158266666D02*
X147624604Y-157866666D01*
X147287104Y-157566666D02*
X147737104Y-157966666D01*
X147041270Y-158000000D02*
X146507937Y-158000000D01*
X146220437Y-157566666D02*
X145820437Y-157566666D01*
X146107937Y-158266666D02*
X146020437Y-157566666D01*
X145674604Y-158266666D02*
X145587104Y-157566666D01*
X145374604Y-158266666D02*
X145328770Y-157900000D01*
X145353770Y-157833333D01*
X145416270Y-157800000D01*
X145516270Y-157800000D01*
X145587104Y-157833333D01*
X145624604Y-157866666D01*
X144770437Y-158233333D02*
X144841270Y-158266666D01*
X144974604Y-158266666D01*
X145037104Y-158233333D01*
X145062104Y-158166666D01*
X145028770Y-157900000D01*
X144987104Y-157833333D01*
X144916270Y-157800000D01*
X144782937Y-157800000D01*
X144720437Y-157833333D01*
X144695437Y-157900000D01*
X144703770Y-157966666D01*
X145045437Y-158033333D01*
X144441270Y-158266666D02*
X144382937Y-157800000D01*
X144399604Y-157933333D02*
X144357937Y-157866666D01*
X144320437Y-157833333D01*
X144249604Y-157800000D01*
X144182937Y-157800000D01*
X144007937Y-158266666D02*
X143949604Y-157800000D01*
X143957937Y-157866666D02*
X143920437Y-157833333D01*
X143849604Y-157800000D01*
X143749604Y-157800000D01*
X143687104Y-157833333D01*
X143662104Y-157900000D01*
X143707937Y-158266666D01*
X143662104Y-157900000D02*
X143620437Y-157833333D01*
X143549604Y-157800000D01*
X143449604Y-157800000D01*
X143387104Y-157833333D01*
X143362104Y-157900000D01*
X143407937Y-158266666D01*
X142974604Y-158266666D02*
X143037104Y-158233333D01*
X143066270Y-158200000D01*
X143091270Y-158133333D01*
X143066270Y-157933333D01*
X143024604Y-157866666D01*
X142987104Y-157833333D01*
X142916270Y-157800000D01*
X142816270Y-157800000D01*
X142753770Y-157833333D01*
X142724604Y-157866666D01*
X142699604Y-157933333D01*
X142724604Y-158133333D01*
X142766270Y-158200000D01*
X142803770Y-158233333D01*
X142874604Y-158266666D01*
X142974604Y-158266666D01*
X142137104Y-158233333D02*
X142207937Y-158266666D01*
X142341270Y-158266666D01*
X142403770Y-158233333D01*
X142432937Y-158200000D01*
X142457937Y-158133333D01*
X142432937Y-157933333D01*
X142391270Y-157866666D01*
X142353770Y-157833333D01*
X142282937Y-157800000D01*
X142149604Y-157800000D01*
X142087104Y-157833333D01*
X141741270Y-158266666D02*
X141803770Y-158233333D01*
X141832937Y-158200000D01*
X141857937Y-158133333D01*
X141832937Y-157933333D01*
X141791270Y-157866666D01*
X141753770Y-157833333D01*
X141682937Y-157800000D01*
X141582937Y-157800000D01*
X141520437Y-157833333D01*
X141491270Y-157866666D01*
X141466270Y-157933333D01*
X141491270Y-158133333D01*
X141532937Y-158200000D01*
X141570437Y-158233333D01*
X141641270Y-158266666D01*
X141741270Y-158266666D01*
X140849604Y-157800000D02*
X140907937Y-158266666D01*
X141149604Y-157800000D02*
X141195437Y-158166666D01*
X141170437Y-158233333D01*
X141107937Y-158266666D01*
X141007937Y-158266666D01*
X140937104Y-158233333D01*
X140899604Y-158200000D01*
X140516270Y-157800000D02*
X140603770Y-158500000D01*
X140520437Y-157833333D02*
X140449604Y-157800000D01*
X140316270Y-157800000D01*
X140253770Y-157833333D01*
X140224604Y-157866666D01*
X140199604Y-157933333D01*
X140224604Y-158133333D01*
X140266270Y-158200000D01*
X140303770Y-158233333D01*
X140374604Y-158266666D01*
X140507937Y-158266666D01*
X140570437Y-158233333D01*
X139841270Y-158266666D02*
X139903770Y-158233333D01*
X139928770Y-158166666D01*
X139853770Y-157566666D01*
X139303770Y-158233333D02*
X139374604Y-158266666D01*
X139507937Y-158266666D01*
X139570437Y-158233333D01*
X139595437Y-158166666D01*
X139562104Y-157900000D01*
X139520437Y-157833333D01*
X139449604Y-157800000D01*
X139316270Y-157800000D01*
X139253770Y-157833333D01*
X139228770Y-157900000D01*
X139237104Y-157966666D01*
X139578770Y-158033333D01*
D14*
X139178147Y-146735535D02*
X139084397Y-145985535D01*
X139129040Y-146342678D02*
X138700468Y-146342678D01*
X138749575Y-146735535D02*
X138655825Y-145985535D01*
X138102254Y-146699821D02*
X138178147Y-146735535D01*
X138321004Y-146735535D01*
X138387968Y-146699821D01*
X138414754Y-146628392D01*
X138379040Y-146342678D01*
X138334397Y-146271250D01*
X138258504Y-146235535D01*
X138115647Y-146235535D01*
X138048683Y-146271250D01*
X138021897Y-146342678D01*
X138030825Y-146414107D01*
X138396897Y-146485535D01*
X137428147Y-146735535D02*
X137379040Y-146342678D01*
X137405825Y-146271250D01*
X137472790Y-146235535D01*
X137615647Y-146235535D01*
X137691540Y-146271250D01*
X137423683Y-146699821D02*
X137499575Y-146735535D01*
X137678147Y-146735535D01*
X137745111Y-146699821D01*
X137771897Y-146628392D01*
X137762968Y-146556964D01*
X137718325Y-146485535D01*
X137642433Y-146449821D01*
X137463861Y-146449821D01*
X137387968Y-146414107D01*
X137115647Y-146235535D02*
X136829933Y-146235535D01*
X136977254Y-145985535D02*
X137057611Y-146628392D01*
X137030825Y-146699821D01*
X136963861Y-146735535D01*
X136892433Y-146735535D01*
X136352254Y-146699821D02*
X136428147Y-146735535D01*
X136571004Y-146735535D01*
X136637968Y-146699821D01*
X136664754Y-146628392D01*
X136629040Y-146342678D01*
X136584397Y-146271250D01*
X136508504Y-146235535D01*
X136365647Y-146235535D01*
X136298683Y-146271250D01*
X136271897Y-146342678D01*
X136280825Y-146414107D01*
X136646897Y-146485535D01*
X135999575Y-146735535D02*
X135937075Y-146235535D01*
X135954933Y-146378392D02*
X135910290Y-146306964D01*
X135870111Y-146271250D01*
X135794218Y-146235535D01*
X135722790Y-146235535D01*
X135499575Y-146449821D02*
X134928147Y-146449821D01*
X138495111Y-147193035D02*
X138410290Y-147943035D01*
X138200468Y-147407321D01*
X138124575Y-147943035D01*
X137852254Y-147193035D01*
X137660290Y-147943035D02*
X137566540Y-147193035D01*
X137611183Y-147550178D02*
X137182611Y-147550178D01*
X137231718Y-147943035D02*
X137137968Y-147193035D01*
X136874575Y-147943035D02*
X136780825Y-147193035D01*
X136530825Y-147193035D02*
X136102254Y-147193035D01*
X136410290Y-147943035D02*
X136316540Y-147193035D01*
X135896897Y-147550178D02*
X135646897Y-147550178D01*
X135588861Y-147943035D02*
X135946004Y-147943035D01*
X135852254Y-147193035D01*
X135495111Y-147193035D01*
D11*
X148809523Y-127652380D02*
X148809523Y-128366666D01*
X148857142Y-128509523D01*
X148952380Y-128604761D01*
X149095238Y-128652380D01*
X149190476Y-128652380D01*
X148380952Y-127747619D02*
X148333333Y-127700000D01*
X148238095Y-127652380D01*
X148000000Y-127652380D01*
X147904761Y-127700000D01*
X147857142Y-127747619D01*
X147809523Y-127842857D01*
X147809523Y-127938095D01*
X147857142Y-128080952D01*
X148428571Y-128652380D01*
X147809523Y-128652380D01*
X146857142Y-128652380D02*
X147428571Y-128652380D01*
X147142857Y-128652380D02*
X147142857Y-127652380D01*
X147238095Y-127795238D01*
X147333333Y-127890476D01*
X147428571Y-127938095D01*
D12*
X100923809Y-130852380D02*
X100352380Y-130852380D01*
X100638095Y-131852380D02*
X100638095Y-130852380D01*
X100114285Y-130852380D02*
X99447619Y-131852380D01*
X99447619Y-130852380D02*
X100114285Y-131852380D01*
X97733333Y-131852380D02*
X98066666Y-131376190D01*
X98304761Y-131852380D02*
X98304761Y-130852380D01*
X97923809Y-130852380D01*
X97828571Y-130900000D01*
X97780952Y-130947619D01*
X97733333Y-131042857D01*
X97733333Y-131185714D01*
X97780952Y-131280952D01*
X97828571Y-131328571D01*
X97923809Y-131376190D01*
X98304761Y-131376190D01*
X97400000Y-130852380D02*
X96733333Y-131852380D01*
X96733333Y-130852380D02*
X97400000Y-131852380D01*
X95066666Y-130900000D02*
X95161904Y-130852380D01*
X95304761Y-130852380D01*
X95447619Y-130900000D01*
X95542857Y-130995238D01*
X95590476Y-131090476D01*
X95638095Y-131280952D01*
X95638095Y-131423809D01*
X95590476Y-131614285D01*
X95542857Y-131709523D01*
X95447619Y-131804761D01*
X95304761Y-131852380D01*
X95209523Y-131852380D01*
X95066666Y-131804761D01*
X95019047Y-131757142D01*
X95019047Y-131423809D01*
X95209523Y-131423809D01*
X94590476Y-131852380D02*
X94590476Y-130852380D01*
X94019047Y-131852380D01*
X94019047Y-130852380D01*
X93542857Y-131852380D02*
X93542857Y-130852380D01*
X93304761Y-130852380D01*
X93161904Y-130900000D01*
X93066666Y-130995238D01*
X93019047Y-131090476D01*
X92971428Y-131280952D01*
X92971428Y-131423809D01*
X93019047Y-131614285D01*
X93066666Y-131709523D01*
X93161904Y-131804761D01*
X93304761Y-131852380D01*
X93542857Y-131852380D01*
D14*
X153403147Y-146710535D02*
X153309397Y-145960535D01*
X153354040Y-146317678D02*
X152925468Y-146317678D01*
X152974575Y-146710535D02*
X152880825Y-145960535D01*
X152327254Y-146674821D02*
X152403147Y-146710535D01*
X152546004Y-146710535D01*
X152612968Y-146674821D01*
X152639754Y-146603392D01*
X152604040Y-146317678D01*
X152559397Y-146246250D01*
X152483504Y-146210535D01*
X152340647Y-146210535D01*
X152273683Y-146246250D01*
X152246897Y-146317678D01*
X152255825Y-146389107D01*
X152621897Y-146460535D01*
X151653147Y-146710535D02*
X151604040Y-146317678D01*
X151630825Y-146246250D01*
X151697790Y-146210535D01*
X151840647Y-146210535D01*
X151916540Y-146246250D01*
X151648683Y-146674821D02*
X151724575Y-146710535D01*
X151903147Y-146710535D01*
X151970111Y-146674821D01*
X151996897Y-146603392D01*
X151987968Y-146531964D01*
X151943325Y-146460535D01*
X151867433Y-146424821D01*
X151688861Y-146424821D01*
X151612968Y-146389107D01*
X151340647Y-146210535D02*
X151054933Y-146210535D01*
X151202254Y-145960535D02*
X151282611Y-146603392D01*
X151255825Y-146674821D01*
X151188861Y-146710535D01*
X151117433Y-146710535D01*
X150577254Y-146674821D02*
X150653147Y-146710535D01*
X150796004Y-146710535D01*
X150862968Y-146674821D01*
X150889754Y-146603392D01*
X150854040Y-146317678D01*
X150809397Y-146246250D01*
X150733504Y-146210535D01*
X150590647Y-146210535D01*
X150523683Y-146246250D01*
X150496897Y-146317678D01*
X150505825Y-146389107D01*
X150871897Y-146460535D01*
X150224575Y-146710535D02*
X150162075Y-146210535D01*
X150179933Y-146353392D02*
X150135290Y-146281964D01*
X150095111Y-146246250D01*
X150019218Y-146210535D01*
X149947790Y-146210535D01*
X149724575Y-146424821D02*
X149153147Y-146424821D01*
X149474575Y-146710535D02*
X149403147Y-146139107D01*
X152046004Y-147203750D02*
X152112968Y-147168035D01*
X152220111Y-147168035D01*
X152331718Y-147203750D01*
X152412075Y-147275178D01*
X152456718Y-147346607D01*
X152510290Y-147489464D01*
X152523683Y-147596607D01*
X152505825Y-147739464D01*
X152479040Y-147810892D01*
X152416540Y-147882321D01*
X152313861Y-147918035D01*
X152242433Y-147918035D01*
X152130825Y-147882321D01*
X152090647Y-147846607D01*
X152059397Y-147596607D01*
X152202254Y-147596607D01*
X151349575Y-147918035D02*
X151554933Y-147560892D01*
X151778147Y-147918035D02*
X151684397Y-147168035D01*
X151398683Y-147168035D01*
X151331718Y-147203750D01*
X151300468Y-147239464D01*
X151273683Y-147310892D01*
X151287075Y-147418035D01*
X151331718Y-147489464D01*
X151371897Y-147525178D01*
X151447790Y-147560892D01*
X151733504Y-147560892D01*
X150979040Y-147525178D02*
X150729040Y-147525178D01*
X150671004Y-147918035D02*
X151028147Y-147918035D01*
X150934397Y-147168035D01*
X150577254Y-147168035D01*
X150162075Y-147560892D02*
X150206718Y-147918035D01*
X150362968Y-147168035D02*
X150162075Y-147560892D01*
X149862968Y-147168035D01*
X146270111Y-154835535D02*
X145841540Y-154835535D01*
X146149575Y-155585535D02*
X146055825Y-154835535D01*
X145247790Y-155514107D02*
X145287968Y-155549821D01*
X145399575Y-155585535D01*
X145471004Y-155585535D01*
X145573683Y-155549821D01*
X145636183Y-155478392D01*
X145662968Y-155406964D01*
X145680825Y-155264107D01*
X145667433Y-155156964D01*
X145613861Y-155014107D01*
X145569218Y-154942678D01*
X145488861Y-154871250D01*
X145377254Y-154835535D01*
X145305825Y-154835535D01*
X145203147Y-154871250D01*
X145171897Y-154906964D01*
X144935290Y-155585535D02*
X144841540Y-154835535D01*
X144555825Y-154835535D01*
X144488861Y-154871250D01*
X144457611Y-154906964D01*
X144430825Y-154978392D01*
X144444218Y-155085535D01*
X144488861Y-155156964D01*
X144529040Y-155192678D01*
X144604933Y-155228392D01*
X144890647Y-155228392D01*
X143828147Y-155585535D02*
X144185290Y-155585535D01*
X144091540Y-154835535D01*
X145346004Y-156507321D02*
X144774575Y-156507321D01*
X139374575Y-149885535D02*
X139731718Y-149885535D01*
X139637968Y-149135535D01*
X139155825Y-149849821D02*
X139053147Y-149885535D01*
X138874575Y-149885535D01*
X138798683Y-149849821D01*
X138758504Y-149814107D01*
X138713861Y-149742678D01*
X138704933Y-149671250D01*
X138731718Y-149599821D01*
X138762968Y-149564107D01*
X138829933Y-149528392D01*
X138968325Y-149492678D01*
X139035290Y-149456964D01*
X139066540Y-149421250D01*
X139093325Y-149349821D01*
X139084397Y-149278392D01*
X139039754Y-149206964D01*
X138999575Y-149171250D01*
X138923683Y-149135535D01*
X138745111Y-149135535D01*
X138642433Y-149171250D01*
X138316540Y-149135535D02*
X138392433Y-149742678D01*
X138365647Y-149814107D01*
X138334397Y-149849821D01*
X138267433Y-149885535D01*
X138124575Y-149885535D01*
X138048683Y-149849821D01*
X138008504Y-149814107D01*
X137963861Y-149742678D01*
X137887968Y-149135535D01*
X136624575Y-149885535D02*
X136829933Y-149528392D01*
X137053147Y-149885535D02*
X136959397Y-149135535D01*
X136673683Y-149135535D01*
X136606718Y-149171250D01*
X136575468Y-149206964D01*
X136548683Y-149278392D01*
X136562075Y-149385535D01*
X136606718Y-149456964D01*
X136646897Y-149492678D01*
X136722790Y-149528392D01*
X137008504Y-149528392D01*
X136347790Y-149385535D02*
X136062075Y-149385535D01*
X136209397Y-149135535D02*
X136289754Y-149778392D01*
X136262968Y-149849821D01*
X136196004Y-149885535D01*
X136124575Y-149885535D01*
X135874575Y-149885535D02*
X135812075Y-149385535D01*
X135829933Y-149528392D02*
X135785290Y-149456964D01*
X135745111Y-149421250D01*
X135669218Y-149385535D01*
X135597790Y-149385535D01*
X135410290Y-149885535D02*
X135347790Y-149385535D01*
X135316540Y-149135535D02*
X135356718Y-149171250D01*
X135325468Y-149206964D01*
X135285290Y-149171250D01*
X135316540Y-149135535D01*
X135325468Y-149206964D01*
X135053147Y-149885535D02*
X134990647Y-149385535D01*
X134999575Y-149456964D02*
X134959397Y-149421250D01*
X134883504Y-149385535D01*
X134776361Y-149385535D01*
X134709397Y-149421250D01*
X134682611Y-149492678D01*
X134731718Y-149885535D01*
X134682611Y-149492678D02*
X134637968Y-149421250D01*
X134562075Y-149385535D01*
X134454933Y-149385535D01*
X134387968Y-149421250D01*
X134361183Y-149492678D01*
X134410290Y-149885535D01*
X138231718Y-150378750D02*
X138298683Y-150343035D01*
X138405825Y-150343035D01*
X138517433Y-150378750D01*
X138597790Y-150450178D01*
X138642433Y-150521607D01*
X138696004Y-150664464D01*
X138709397Y-150771607D01*
X138691540Y-150914464D01*
X138664754Y-150985892D01*
X138602254Y-151057321D01*
X138499575Y-151093035D01*
X138428147Y-151093035D01*
X138316540Y-151057321D01*
X138276361Y-151021607D01*
X138245111Y-150771607D01*
X138387968Y-150771607D01*
X137535290Y-151093035D02*
X137740647Y-150735892D01*
X137963861Y-151093035D02*
X137870111Y-150343035D01*
X137584397Y-150343035D01*
X137517433Y-150378750D01*
X137486183Y-150414464D01*
X137459397Y-150485892D01*
X137472790Y-150593035D01*
X137517433Y-150664464D01*
X137557611Y-150700178D01*
X137633504Y-150735892D01*
X137919218Y-150735892D01*
X137164754Y-150700178D02*
X136914754Y-150700178D01*
X136856718Y-151093035D02*
X137213861Y-151093035D01*
X137120111Y-150343035D01*
X136762968Y-150343035D01*
X136486183Y-150700178D02*
X136236183Y-150700178D01*
X136178147Y-151093035D02*
X136535290Y-151093035D01*
X136441540Y-150343035D01*
X136084397Y-150343035D01*
X135856718Y-151093035D02*
X135762968Y-150343035D01*
X135428147Y-151093035D01*
X135334397Y-150343035D01*
D16*
X133202608Y-171675000D02*
X133274037Y-171639285D01*
X133381180Y-171639285D01*
X133488322Y-171675000D01*
X133559751Y-171746428D01*
X133595465Y-171817857D01*
X133631180Y-171960714D01*
X133631180Y-172067857D01*
X133595465Y-172210714D01*
X133559751Y-172282142D01*
X133488322Y-172353571D01*
X133381180Y-172389285D01*
X133309751Y-172389285D01*
X133202608Y-172353571D01*
X133166894Y-172317857D01*
X133166894Y-172067857D01*
X133309751Y-172067857D01*
X132845465Y-172389285D02*
X132845465Y-171639285D01*
X132416894Y-172389285D01*
X132416894Y-171639285D01*
X132059751Y-172389285D02*
X132059751Y-171639285D01*
X131881180Y-171639285D01*
X131774037Y-171675000D01*
X131702608Y-171746428D01*
X131666894Y-171817857D01*
X131631180Y-171960714D01*
X131631180Y-172067857D01*
X131666894Y-172210714D01*
X131702608Y-172282142D01*
X131774037Y-172353571D01*
X131881180Y-172389285D01*
X132059751Y-172389285D01*
X131039285Y-172353571D02*
X130932142Y-172389285D01*
X130753571Y-172389285D01*
X130682142Y-172353571D01*
X130646428Y-172317857D01*
X130610714Y-172246428D01*
X130610714Y-172175000D01*
X130646428Y-172103571D01*
X130682142Y-172067857D01*
X130753571Y-172032142D01*
X130896428Y-171996428D01*
X130967857Y-171960714D01*
X131003571Y-171925000D01*
X131039285Y-171853571D01*
X131039285Y-171782142D01*
X131003571Y-171710714D01*
X130967857Y-171675000D01*
X130896428Y-171639285D01*
X130717857Y-171639285D01*
X130610714Y-171675000D01*
X129860714Y-172317857D02*
X129896428Y-172353571D01*
X130003571Y-172389285D01*
X130075000Y-172389285D01*
X130182142Y-172353571D01*
X130253571Y-172282142D01*
X130289285Y-172210714D01*
X130325000Y-172067857D01*
X130325000Y-171960714D01*
X130289285Y-171817857D01*
X130253571Y-171746428D01*
X130182142Y-171675000D01*
X130075000Y-171639285D01*
X130003571Y-171639285D01*
X129896428Y-171675000D01*
X129860714Y-171710714D01*
X129539285Y-172389285D02*
X129539285Y-171639285D01*
X129110714Y-172389285D02*
X129432142Y-171960714D01*
X129110714Y-171639285D02*
X129539285Y-172067857D01*
D15*
X118323361Y-160462990D02*
X118323361Y-160820133D01*
X118347171Y-160891561D01*
X118394790Y-160939180D01*
X118466219Y-160962990D01*
X118513838Y-160962990D01*
X117823361Y-160962990D02*
X118109076Y-160962990D01*
X117966219Y-160962990D02*
X117966219Y-160462990D01*
X118013838Y-160534419D01*
X118061457Y-160582038D01*
X118109076Y-160605847D01*
X117656695Y-160462990D02*
X117347171Y-160462990D01*
X117513838Y-160653466D01*
X117442409Y-160653466D01*
X117394790Y-160677276D01*
X117370980Y-160701085D01*
X117347171Y-160748704D01*
X117347171Y-160867752D01*
X117370980Y-160915371D01*
X117394790Y-160939180D01*
X117442409Y-160962990D01*
X117585266Y-160962990D01*
X117632885Y-160939180D01*
X117656695Y-160915371D01*
D17*
X136226476Y-172230619D02*
X136153904Y-172254809D01*
X136032952Y-172254809D01*
X135984571Y-172230619D01*
X135960380Y-172206428D01*
X135936190Y-172158047D01*
X135936190Y-172109666D01*
X135960380Y-172061285D01*
X135984571Y-172037095D01*
X136032952Y-172012904D01*
X136129714Y-171988714D01*
X136178095Y-171964523D01*
X136202285Y-171940333D01*
X136226476Y-171891952D01*
X136226476Y-171843571D01*
X136202285Y-171795190D01*
X136178095Y-171771000D01*
X136129714Y-171746809D01*
X136008761Y-171746809D01*
X135936190Y-171771000D01*
X135766857Y-171746809D02*
X135645904Y-172254809D01*
X135549142Y-171891952D01*
X135452380Y-172254809D01*
X135331428Y-171746809D01*
X135137904Y-172254809D02*
X135137904Y-171746809D01*
X135016952Y-171746809D01*
X134944380Y-171771000D01*
X134896000Y-171819380D01*
X134871809Y-171867761D01*
X134847619Y-171964523D01*
X134847619Y-172037095D01*
X134871809Y-172133857D01*
X134896000Y-172182238D01*
X134944380Y-172230619D01*
X135016952Y-172254809D01*
X135137904Y-172254809D01*
X134629904Y-172254809D02*
X134629904Y-171746809D01*
X134291238Y-171746809D02*
X134194476Y-171746809D01*
X134146095Y-171771000D01*
X134097714Y-171819380D01*
X134073523Y-171916142D01*
X134073523Y-172085476D01*
X134097714Y-172182238D01*
X134146095Y-172230619D01*
X134194476Y-172254809D01*
X134291238Y-172254809D01*
X134339619Y-172230619D01*
X134388000Y-172182238D01*
X134412190Y-172085476D01*
X134412190Y-171916142D01*
X134388000Y-171819380D01*
X134339619Y-171771000D01*
X134291238Y-171746809D01*
D16*
X142565885Y-129250000D02*
X143315885Y-129500000D01*
X142565885Y-129750000D01*
X143315885Y-130000000D02*
X142565885Y-130000000D01*
X142565885Y-130178571D01*
X142601600Y-130285714D01*
X142673028Y-130357142D01*
X142744457Y-130392857D01*
X142887314Y-130428571D01*
X142994457Y-130428571D01*
X143137314Y-130392857D01*
X143208742Y-130357142D01*
X143280171Y-130285714D01*
X143315885Y-130178571D01*
X143315885Y-130000000D01*
X143315885Y-130750000D02*
X142565885Y-130750000D01*
X142565885Y-130928571D01*
X142601600Y-131035714D01*
X142673028Y-131107142D01*
X142744457Y-131142857D01*
X142887314Y-131178571D01*
X142994457Y-131178571D01*
X143137314Y-131142857D01*
X143208742Y-131107142D01*
X143280171Y-131035714D01*
X143315885Y-130928571D01*
X143315885Y-130750000D01*
X131156751Y-159663228D02*
X131192465Y-159770371D01*
X131192465Y-159948942D01*
X131156751Y-160020371D01*
X131121037Y-160056085D01*
X131049608Y-160091800D01*
X130978180Y-160091800D01*
X130906751Y-160056085D01*
X130871037Y-160020371D01*
X130835322Y-159948942D01*
X130799608Y-159806085D01*
X130763894Y-159734657D01*
X130728180Y-159698942D01*
X130656751Y-159663228D01*
X130585322Y-159663228D01*
X130513894Y-159698942D01*
X130478180Y-159734657D01*
X130442465Y-159806085D01*
X130442465Y-159984657D01*
X130478180Y-160091800D01*
X130442465Y-160341800D02*
X131192465Y-160520371D01*
X130656751Y-160663228D01*
X131192465Y-160806085D01*
X130442465Y-160984657D01*
X130442465Y-161413228D02*
X130442465Y-161556085D01*
X130478180Y-161627514D01*
X130549608Y-161698942D01*
X130692465Y-161734657D01*
X130942465Y-161734657D01*
X131085322Y-161698942D01*
X131156751Y-161627514D01*
X131192465Y-161556085D01*
X131192465Y-161413228D01*
X131156751Y-161341800D01*
X131085322Y-161270371D01*
X130942465Y-161234657D01*
X130692465Y-161234657D01*
X130549608Y-161270371D01*
X130478180Y-161341800D01*
X130442465Y-161413228D01*
X130406751Y-162591800D02*
X131371037Y-161948942D01*
D15*
X115783361Y-160462990D02*
X115783361Y-160820133D01*
X115807171Y-160891561D01*
X115854790Y-160939180D01*
X115926219Y-160962990D01*
X115973838Y-160962990D01*
X115283361Y-160962990D02*
X115569076Y-160962990D01*
X115426219Y-160962990D02*
X115426219Y-160462990D01*
X115473838Y-160534419D01*
X115521457Y-160582038D01*
X115569076Y-160605847D01*
X115092885Y-160510609D02*
X115069076Y-160486800D01*
X115021457Y-160462990D01*
X114902409Y-160462990D01*
X114854790Y-160486800D01*
X114830980Y-160510609D01*
X114807171Y-160558228D01*
X114807171Y-160605847D01*
X114830980Y-160677276D01*
X115116695Y-160962990D01*
X114807171Y-160962990D01*
D16*
X135637465Y-160034917D02*
X134887465Y-160034917D01*
X135637465Y-160463488D01*
X134887465Y-160463488D01*
X135637465Y-161249202D02*
X135280322Y-160999202D01*
X135637465Y-160820631D02*
X134887465Y-160820631D01*
X134887465Y-161106345D01*
X134923180Y-161177774D01*
X134958894Y-161213488D01*
X135030322Y-161249202D01*
X135137465Y-161249202D01*
X135208894Y-161213488D01*
X135244608Y-161177774D01*
X135280322Y-161106345D01*
X135280322Y-160820631D01*
X135601751Y-161534917D02*
X135637465Y-161642060D01*
X135637465Y-161820631D01*
X135601751Y-161892060D01*
X135566037Y-161927774D01*
X135494608Y-161963488D01*
X135423180Y-161963488D01*
X135351751Y-161927774D01*
X135316037Y-161892060D01*
X135280322Y-161820631D01*
X135244608Y-161677774D01*
X135208894Y-161606345D01*
X135173180Y-161570631D01*
X135101751Y-161534917D01*
X135030322Y-161534917D01*
X134958894Y-161570631D01*
X134923180Y-161606345D01*
X134887465Y-161677774D01*
X134887465Y-161856345D01*
X134923180Y-161963488D01*
X134887465Y-162177774D02*
X134887465Y-162606345D01*
X135637465Y-162392060D02*
X134887465Y-162392060D01*
X124600465Y-161886202D02*
X124600465Y-161529060D01*
X124957608Y-161493345D01*
X124921894Y-161529060D01*
X124886180Y-161600488D01*
X124886180Y-161779060D01*
X124921894Y-161850488D01*
X124957608Y-161886202D01*
X125029037Y-161921917D01*
X125207608Y-161921917D01*
X125279037Y-161886202D01*
X125314751Y-161850488D01*
X125350465Y-161779060D01*
X125350465Y-161600488D01*
X125314751Y-161529060D01*
X125279037Y-161493345D01*
X124600465Y-162136202D02*
X125350465Y-162386202D01*
X124600465Y-162636202D01*
X138235885Y-136767857D02*
X137485885Y-136767857D01*
X137485885Y-137053571D01*
X137521600Y-137125000D01*
X137557314Y-137160714D01*
X137628742Y-137196428D01*
X137735885Y-137196428D01*
X137807314Y-137160714D01*
X137843028Y-137125000D01*
X137878742Y-137053571D01*
X137878742Y-136767857D01*
X138021600Y-137482142D02*
X138021600Y-137839285D01*
X138235885Y-137410714D02*
X137485885Y-137660714D01*
X138235885Y-137910714D01*
X138235885Y-138553571D02*
X138235885Y-138125000D01*
X138235885Y-138339285D02*
X137485885Y-138339285D01*
X137593028Y-138267857D01*
X137664457Y-138196428D01*
X137700171Y-138125000D01*
X137485885Y-139232142D02*
X137485885Y-138875000D01*
X137843028Y-138839285D01*
X137807314Y-138875000D01*
X137771600Y-138946428D01*
X137771600Y-139125000D01*
X137807314Y-139196428D01*
X137843028Y-139232142D01*
X137914457Y-139267857D01*
X138093028Y-139267857D01*
X138164457Y-139232142D01*
X138200171Y-139196428D01*
X138235885Y-139125000D01*
X138235885Y-138946428D01*
X138200171Y-138875000D01*
X138164457Y-138839285D01*
X143315885Y-137071428D02*
X142565885Y-137071428D01*
X142565885Y-137357142D01*
X142601600Y-137428571D01*
X142637314Y-137464285D01*
X142708742Y-137500000D01*
X142815885Y-137500000D01*
X142887314Y-137464285D01*
X142923028Y-137428571D01*
X142958742Y-137357142D01*
X142958742Y-137071428D01*
X142923028Y-138071428D02*
X142958742Y-138178571D01*
X142994457Y-138214285D01*
X143065885Y-138250000D01*
X143173028Y-138250000D01*
X143244457Y-138214285D01*
X143280171Y-138178571D01*
X143315885Y-138107142D01*
X143315885Y-137821428D01*
X142565885Y-137821428D01*
X142565885Y-138071428D01*
X142601600Y-138142857D01*
X142637314Y-138178571D01*
X142708742Y-138214285D01*
X142780171Y-138214285D01*
X142851600Y-138178571D01*
X142887314Y-138142857D01*
X142923028Y-138071428D01*
X142923028Y-137821428D01*
X142887314Y-138678571D02*
X142851600Y-138607142D01*
X142815885Y-138571428D01*
X142744457Y-138535714D01*
X142708742Y-138535714D01*
X142637314Y-138571428D01*
X142601600Y-138607142D01*
X142565885Y-138678571D01*
X142565885Y-138821428D01*
X142601600Y-138892857D01*
X142637314Y-138928571D01*
X142708742Y-138964285D01*
X142744457Y-138964285D01*
X142815885Y-138928571D01*
X142851600Y-138892857D01*
X142887314Y-138821428D01*
X142887314Y-138678571D01*
X142923028Y-138607142D01*
X142958742Y-138571428D01*
X143030171Y-138535714D01*
X143173028Y-138535714D01*
X143244457Y-138571428D01*
X143280171Y-138607142D01*
X143315885Y-138678571D01*
X143315885Y-138821428D01*
X143280171Y-138892857D01*
X143244457Y-138928571D01*
X143173028Y-138964285D01*
X143030171Y-138964285D01*
X142958742Y-138928571D01*
X142923028Y-138892857D01*
X142887314Y-138821428D01*
X127140465Y-160413917D02*
X127140465Y-160878202D01*
X127426180Y-160628202D01*
X127426180Y-160735345D01*
X127461894Y-160806774D01*
X127497608Y-160842488D01*
X127569037Y-160878202D01*
X127747608Y-160878202D01*
X127819037Y-160842488D01*
X127854751Y-160806774D01*
X127890465Y-160735345D01*
X127890465Y-160521060D01*
X127854751Y-160449631D01*
X127819037Y-160413917D01*
X127819037Y-161199631D02*
X127854751Y-161235345D01*
X127890465Y-161199631D01*
X127854751Y-161163917D01*
X127819037Y-161199631D01*
X127890465Y-161199631D01*
X127140465Y-161485345D02*
X127140465Y-161949631D01*
X127426180Y-161699631D01*
X127426180Y-161806774D01*
X127461894Y-161878202D01*
X127497608Y-161913917D01*
X127569037Y-161949631D01*
X127747608Y-161949631D01*
X127819037Y-161913917D01*
X127854751Y-161878202D01*
X127890465Y-161806774D01*
X127890465Y-161592488D01*
X127854751Y-161521060D01*
X127819037Y-161485345D01*
X127140465Y-162163917D02*
X127890465Y-162413917D01*
X127140465Y-162663917D01*
D15*
X113281552Y-160486800D02*
X113329171Y-160462990D01*
X113400600Y-160462990D01*
X113472028Y-160486800D01*
X113519647Y-160534419D01*
X113543457Y-160582038D01*
X113567266Y-160677276D01*
X113567266Y-160748704D01*
X113543457Y-160843942D01*
X113519647Y-160891561D01*
X113472028Y-160939180D01*
X113400600Y-160962990D01*
X113352980Y-160962990D01*
X113281552Y-160939180D01*
X113257742Y-160915371D01*
X113257742Y-160748704D01*
X113352980Y-160748704D01*
X113043457Y-160962990D02*
X113043457Y-160462990D01*
X112757742Y-160962990D01*
X112757742Y-160462990D01*
X112519647Y-160962990D02*
X112519647Y-160462990D01*
X112400600Y-160462990D01*
X112329171Y-160486800D01*
X112281552Y-160534419D01*
X112257742Y-160582038D01*
X112233933Y-160677276D01*
X112233933Y-160748704D01*
X112257742Y-160843942D01*
X112281552Y-160891561D01*
X112329171Y-160939180D01*
X112400600Y-160962990D01*
X112519647Y-160962990D01*
D16*
X129886751Y-160017060D02*
X129922465Y-160124202D01*
X129922465Y-160302774D01*
X129886751Y-160374202D01*
X129851037Y-160409917D01*
X129779608Y-160445631D01*
X129708180Y-160445631D01*
X129636751Y-160409917D01*
X129601037Y-160374202D01*
X129565322Y-160302774D01*
X129529608Y-160159917D01*
X129493894Y-160088488D01*
X129458180Y-160052774D01*
X129386751Y-160017060D01*
X129315322Y-160017060D01*
X129243894Y-160052774D01*
X129208180Y-160088488D01*
X129172465Y-160159917D01*
X129172465Y-160338488D01*
X129208180Y-160445631D01*
X129172465Y-160695631D02*
X129922465Y-160874202D01*
X129386751Y-161017060D01*
X129922465Y-161159917D01*
X129172465Y-161338488D01*
X129922465Y-161624202D02*
X129172465Y-161624202D01*
X129922465Y-161981345D02*
X129172465Y-161981345D01*
X129708180Y-162231345D01*
X129172465Y-162481345D01*
X129922465Y-162481345D01*
X134981600Y-137428571D02*
X134945885Y-137357142D01*
X134945885Y-137250000D01*
X134981600Y-137142857D01*
X135053028Y-137071428D01*
X135124457Y-137035714D01*
X135267314Y-137000000D01*
X135374457Y-137000000D01*
X135517314Y-137035714D01*
X135588742Y-137071428D01*
X135660171Y-137142857D01*
X135695885Y-137250000D01*
X135695885Y-137321428D01*
X135660171Y-137428571D01*
X135624457Y-137464285D01*
X135374457Y-137464285D01*
X135374457Y-137321428D01*
X135695885Y-137785714D02*
X134945885Y-137785714D01*
X135695885Y-138214285D01*
X134945885Y-138214285D01*
X135695885Y-138571428D02*
X134945885Y-138571428D01*
X134945885Y-138750000D01*
X134981600Y-138857142D01*
X135053028Y-138928571D01*
X135124457Y-138964285D01*
X135267314Y-139000000D01*
X135374457Y-139000000D01*
X135517314Y-138964285D01*
X135588742Y-138928571D01*
X135660171Y-138857142D01*
X135695885Y-138750000D01*
X135695885Y-138571428D01*
D11*
X92162600Y-142467857D02*
X92198314Y-142503571D01*
X92305457Y-142539285D01*
X92376885Y-142539285D01*
X92484028Y-142503571D01*
X92555457Y-142432142D01*
X92591171Y-142360714D01*
X92626885Y-142217857D01*
X92626885Y-142110714D01*
X92591171Y-141967857D01*
X92555457Y-141896428D01*
X92484028Y-141825000D01*
X92376885Y-141789285D01*
X92305457Y-141789285D01*
X92198314Y-141825000D01*
X92162600Y-141860714D01*
X91876885Y-142325000D02*
X91519742Y-142325000D01*
X91948314Y-142539285D02*
X91698314Y-141789285D01*
X91448314Y-142539285D01*
X91198314Y-142539285D02*
X91198314Y-141789285D01*
X90769742Y-142539285D01*
X90769742Y-141789285D01*
X90412600Y-142539285D02*
X90412600Y-141789285D01*
X90412600Y-142146428D02*
X89984028Y-142146428D01*
X89984028Y-142539285D02*
X89984028Y-141789285D01*
D16*
X145839285Y-129735714D02*
X145839285Y-129307142D01*
X145839285Y-129521428D02*
X145089285Y-129521428D01*
X145196428Y-129450000D01*
X145267857Y-129378571D01*
X145303571Y-129307142D01*
X145160714Y-130021428D02*
X145125000Y-130057142D01*
X145089285Y-130128571D01*
X145089285Y-130307142D01*
X145125000Y-130378571D01*
X145160714Y-130414285D01*
X145232142Y-130450000D01*
X145303571Y-130450000D01*
X145410714Y-130414285D01*
X145839285Y-129985714D01*
X145839285Y-130450000D01*
X145089285Y-130664285D02*
X145839285Y-130914285D01*
X145089285Y-131164285D01*
X128657142Y-171639285D02*
X128192857Y-171639285D01*
X128442857Y-171925000D01*
X128335714Y-171925000D01*
X128264285Y-171960714D01*
X128228571Y-171996428D01*
X128192857Y-172067857D01*
X128192857Y-172246428D01*
X128228571Y-172317857D01*
X128264285Y-172353571D01*
X128335714Y-172389285D01*
X128550000Y-172389285D01*
X128621428Y-172353571D01*
X128657142Y-172317857D01*
X127871428Y-172317857D02*
X127835714Y-172353571D01*
X127871428Y-172389285D01*
X127907142Y-172353571D01*
X127871428Y-172317857D01*
X127871428Y-172389285D01*
X127585714Y-171639285D02*
X127121428Y-171639285D01*
X127371428Y-171925000D01*
X127264285Y-171925000D01*
X127192857Y-171960714D01*
X127157142Y-171996428D01*
X127121428Y-172067857D01*
X127121428Y-172246428D01*
X127157142Y-172317857D01*
X127192857Y-172353571D01*
X127264285Y-172389285D01*
X127478571Y-172389285D01*
X127550000Y-172353571D01*
X127585714Y-172317857D01*
X126907142Y-171639285D02*
X126657142Y-172389285D01*
X126407142Y-171639285D01*
X132256180Y-161076631D02*
X132220465Y-161005202D01*
X132220465Y-160898060D01*
X132256180Y-160790917D01*
X132327608Y-160719488D01*
X132399037Y-160683774D01*
X132541894Y-160648060D01*
X132649037Y-160648060D01*
X132791894Y-160683774D01*
X132863322Y-160719488D01*
X132934751Y-160790917D01*
X132970465Y-160898060D01*
X132970465Y-160969488D01*
X132934751Y-161076631D01*
X132899037Y-161112345D01*
X132649037Y-161112345D01*
X132649037Y-160969488D01*
X132970465Y-161433774D02*
X132220465Y-161433774D01*
X132970465Y-161862345D01*
X132220465Y-161862345D01*
X132970465Y-162219488D02*
X132220465Y-162219488D01*
X132220465Y-162398060D01*
X132256180Y-162505202D01*
X132327608Y-162576631D01*
X132399037Y-162612345D01*
X132541894Y-162648060D01*
X132649037Y-162648060D01*
X132791894Y-162612345D01*
X132863322Y-162576631D01*
X132934751Y-162505202D01*
X132970465Y-162398060D01*
X132970465Y-162219488D01*
X138239285Y-128914285D02*
X137489285Y-128914285D01*
X137489285Y-129200000D01*
X137525000Y-129271428D01*
X137560714Y-129307142D01*
X137632142Y-129342857D01*
X137739285Y-129342857D01*
X137810714Y-129307142D01*
X137846428Y-129271428D01*
X137882142Y-129200000D01*
X137882142Y-128914285D01*
X138167857Y-130092857D02*
X138203571Y-130057142D01*
X138239285Y-129950000D01*
X138239285Y-129878571D01*
X138203571Y-129771428D01*
X138132142Y-129700000D01*
X138060714Y-129664285D01*
X137917857Y-129628571D01*
X137810714Y-129628571D01*
X137667857Y-129664285D01*
X137596428Y-129700000D01*
X137525000Y-129771428D01*
X137489285Y-129878571D01*
X137489285Y-129950000D01*
X137525000Y-130057142D01*
X137560714Y-130092857D01*
X138239285Y-130807142D02*
X138239285Y-130378571D01*
X138239285Y-130592857D02*
X137489285Y-130592857D01*
X137596428Y-130521428D01*
X137667857Y-130450000D01*
X137703571Y-130378571D01*
X137489285Y-131271428D02*
X137489285Y-131342857D01*
X137525000Y-131414285D01*
X137560714Y-131450000D01*
X137632142Y-131485714D01*
X137775000Y-131521428D01*
X137953571Y-131521428D01*
X138096428Y-131485714D01*
X138167857Y-131450000D01*
X138203571Y-131414285D01*
X138239285Y-131342857D01*
X138239285Y-131271428D01*
X138203571Y-131200000D01*
X138167857Y-131164285D01*
X138096428Y-131128571D01*
X137953571Y-131092857D01*
X137775000Y-131092857D01*
X137632142Y-131128571D01*
X137560714Y-131164285D01*
X137525000Y-131200000D01*
X137489285Y-131271428D01*
X140789285Y-129321428D02*
X140039285Y-129321428D01*
X140039285Y-129607142D01*
X140075000Y-129678571D01*
X140110714Y-129714285D01*
X140182142Y-129750000D01*
X140289285Y-129750000D01*
X140360714Y-129714285D01*
X140396428Y-129678571D01*
X140432142Y-129607142D01*
X140432142Y-129321428D01*
X140396428Y-130321428D02*
X140432142Y-130428571D01*
X140467857Y-130464285D01*
X140539285Y-130500000D01*
X140646428Y-130500000D01*
X140717857Y-130464285D01*
X140753571Y-130428571D01*
X140789285Y-130357142D01*
X140789285Y-130071428D01*
X140039285Y-130071428D01*
X140039285Y-130321428D01*
X140075000Y-130392857D01*
X140110714Y-130428571D01*
X140182142Y-130464285D01*
X140253571Y-130464285D01*
X140325000Y-130428571D01*
X140360714Y-130392857D01*
X140396428Y-130321428D01*
X140396428Y-130071428D01*
X140789285Y-130857142D02*
X140789285Y-131000000D01*
X140753571Y-131071428D01*
X140717857Y-131107142D01*
X140610714Y-131178571D01*
X140467857Y-131214285D01*
X140182142Y-131214285D01*
X140110714Y-131178571D01*
X140075000Y-131142857D01*
X140039285Y-131071428D01*
X140039285Y-130928571D01*
X140075000Y-130857142D01*
X140110714Y-130821428D01*
X140182142Y-130785714D01*
X140360714Y-130785714D01*
X140432142Y-130821428D01*
X140467857Y-130857142D01*
X140503571Y-130928571D01*
X140503571Y-131071428D01*
X140467857Y-131142857D01*
X140432142Y-131178571D01*
X140360714Y-131214285D01*
X140775885Y-136714285D02*
X140025885Y-136714285D01*
X140025885Y-137000000D01*
X140061600Y-137071428D01*
X140097314Y-137107142D01*
X140168742Y-137142857D01*
X140275885Y-137142857D01*
X140347314Y-137107142D01*
X140383028Y-137071428D01*
X140418742Y-137000000D01*
X140418742Y-136714285D01*
X140704457Y-137892857D02*
X140740171Y-137857142D01*
X140775885Y-137750000D01*
X140775885Y-137678571D01*
X140740171Y-137571428D01*
X140668742Y-137500000D01*
X140597314Y-137464285D01*
X140454457Y-137428571D01*
X140347314Y-137428571D01*
X140204457Y-137464285D01*
X140133028Y-137500000D01*
X140061600Y-137571428D01*
X140025885Y-137678571D01*
X140025885Y-137750000D01*
X140061600Y-137857142D01*
X140097314Y-137892857D01*
X140775885Y-138607142D02*
X140775885Y-138178571D01*
X140775885Y-138392857D02*
X140025885Y-138392857D01*
X140133028Y-138321428D01*
X140204457Y-138250000D01*
X140240171Y-138178571D01*
X140775885Y-139321428D02*
X140775885Y-138892857D01*
X140775885Y-139107142D02*
X140025885Y-139107142D01*
X140133028Y-139035714D01*
X140204457Y-138964285D01*
X140240171Y-138892857D01*
X125142857Y-171639285D02*
X125500000Y-171639285D01*
X125535714Y-171996428D01*
X125500000Y-171960714D01*
X125428571Y-171925000D01*
X125250000Y-171925000D01*
X125178571Y-171960714D01*
X125142857Y-171996428D01*
X125107142Y-172067857D01*
X125107142Y-172246428D01*
X125142857Y-172317857D01*
X125178571Y-172353571D01*
X125250000Y-172389285D01*
X125428571Y-172389285D01*
X125500000Y-172353571D01*
X125535714Y-172317857D01*
X124892857Y-171639285D02*
X124642857Y-172389285D01*
X124392857Y-171639285D01*
X135822885Y-128964285D02*
X135072885Y-128964285D01*
X135072885Y-129250000D01*
X135108600Y-129321428D01*
X135144314Y-129357142D01*
X135215742Y-129392857D01*
X135322885Y-129392857D01*
X135394314Y-129357142D01*
X135430028Y-129321428D01*
X135465742Y-129250000D01*
X135465742Y-128964285D01*
X135751457Y-130142857D02*
X135787171Y-130107142D01*
X135822885Y-130000000D01*
X135822885Y-129928571D01*
X135787171Y-129821428D01*
X135715742Y-129750000D01*
X135644314Y-129714285D01*
X135501457Y-129678571D01*
X135394314Y-129678571D01*
X135251457Y-129714285D01*
X135180028Y-129750000D01*
X135108600Y-129821428D01*
X135072885Y-129928571D01*
X135072885Y-130000000D01*
X135108600Y-130107142D01*
X135144314Y-130142857D01*
X135822885Y-130857142D02*
X135822885Y-130428571D01*
X135822885Y-130642857D02*
X135072885Y-130642857D01*
X135180028Y-130571428D01*
X135251457Y-130500000D01*
X135287171Y-130428571D01*
X135144314Y-131142857D02*
X135108600Y-131178571D01*
X135072885Y-131250000D01*
X135072885Y-131428571D01*
X135108600Y-131500000D01*
X135144314Y-131535714D01*
X135215742Y-131571428D01*
X135287171Y-131571428D01*
X135394314Y-131535714D01*
X135822885Y-131107142D01*
X135822885Y-131571428D01*
D11*
X86231314Y-142467857D02*
X86267028Y-142503571D01*
X86374171Y-142539285D01*
X86445600Y-142539285D01*
X86552742Y-142503571D01*
X86624171Y-142432142D01*
X86659885Y-142360714D01*
X86695600Y-142217857D01*
X86695600Y-142110714D01*
X86659885Y-141967857D01*
X86624171Y-141896428D01*
X86552742Y-141825000D01*
X86445600Y-141789285D01*
X86374171Y-141789285D01*
X86267028Y-141825000D01*
X86231314Y-141860714D01*
X85945600Y-142325000D02*
X85588457Y-142325000D01*
X86017028Y-142539285D02*
X85767028Y-141789285D01*
X85517028Y-142539285D01*
X85267028Y-142539285D02*
X85267028Y-141789285D01*
X84838457Y-142539285D01*
X84838457Y-141789285D01*
X84124171Y-142539285D02*
X84481314Y-142539285D01*
X84481314Y-141789285D01*
D15*
X111067266Y-160462990D02*
X110900600Y-160962990D01*
X110733933Y-160462990D01*
X110281552Y-160915371D02*
X110305361Y-160939180D01*
X110376790Y-160962990D01*
X110424409Y-160962990D01*
X110495838Y-160939180D01*
X110543457Y-160891561D01*
X110567266Y-160843942D01*
X110591076Y-160748704D01*
X110591076Y-160677276D01*
X110567266Y-160582038D01*
X110543457Y-160534419D01*
X110495838Y-160486800D01*
X110424409Y-160462990D01*
X110376790Y-160462990D01*
X110305361Y-160486800D01*
X110281552Y-160510609D01*
X109781552Y-160915371D02*
X109805361Y-160939180D01*
X109876790Y-160962990D01*
X109924409Y-160962990D01*
X109995838Y-160939180D01*
X110043457Y-160891561D01*
X110067266Y-160843942D01*
X110091076Y-160748704D01*
X110091076Y-160677276D01*
X110067266Y-160582038D01*
X110043457Y-160534419D01*
X109995838Y-160486800D01*
X109924409Y-160462990D01*
X109876790Y-160462990D01*
X109805361Y-160486800D01*
X109781552Y-160510609D01*
D16*
X145105885Y-137857142D02*
X145105885Y-137500000D01*
X145463028Y-137464285D01*
X145427314Y-137500000D01*
X145391600Y-137571428D01*
X145391600Y-137750000D01*
X145427314Y-137821428D01*
X145463028Y-137857142D01*
X145534457Y-137892857D01*
X145713028Y-137892857D01*
X145784457Y-137857142D01*
X145820171Y-137821428D01*
X145855885Y-137750000D01*
X145855885Y-137571428D01*
X145820171Y-137500000D01*
X145784457Y-137464285D01*
X145105885Y-138107142D02*
X145855885Y-138357142D01*
X145105885Y-138607142D01*
D11*
X117382380Y-127866666D02*
X118096666Y-127866666D01*
X118239523Y-127819047D01*
X118334761Y-127723809D01*
X118382380Y-127580952D01*
X118382380Y-127485714D01*
X117477619Y-128295238D02*
X117430000Y-128342857D01*
X117382380Y-128438095D01*
X117382380Y-128676190D01*
X117430000Y-128771428D01*
X117477619Y-128819047D01*
X117572857Y-128866666D01*
X117668095Y-128866666D01*
X117810952Y-128819047D01*
X118382380Y-128247619D01*
X118382380Y-128866666D01*
D18*
X110052380Y-131966666D02*
X110766666Y-131966666D01*
X110909523Y-131919047D01*
X111004761Y-131823809D01*
X111052380Y-131680952D01*
X111052380Y-131585714D01*
X111052380Y-132442857D02*
X110052380Y-132442857D01*
X110052380Y-132823809D01*
X110100000Y-132919047D01*
X110147619Y-132966666D01*
X110242857Y-133014285D01*
X110385714Y-133014285D01*
X110480952Y-132966666D01*
X110528571Y-132919047D01*
X110576190Y-132823809D01*
X110576190Y-132442857D01*
X111052380Y-133966666D02*
X111052380Y-133395238D01*
X111052380Y-133680952D02*
X110052380Y-133680952D01*
X110195238Y-133585714D01*
X110290476Y-133490476D01*
X110338095Y-133395238D01*
X107452380Y-131966666D02*
X108166666Y-131966666D01*
X108309523Y-131919047D01*
X108404761Y-131823809D01*
X108452380Y-131680952D01*
X108452380Y-131585714D01*
X108452380Y-132442857D02*
X107452380Y-132442857D01*
X107452380Y-132823809D01*
X107500000Y-132919047D01*
X107547619Y-132966666D01*
X107642857Y-133014285D01*
X107785714Y-133014285D01*
X107880952Y-132966666D01*
X107928571Y-132919047D01*
X107976190Y-132823809D01*
X107976190Y-132442857D01*
X107547619Y-133395238D02*
X107500000Y-133442857D01*
X107452380Y-133538095D01*
X107452380Y-133776190D01*
X107500000Y-133871428D01*
X107547619Y-133919047D01*
X107642857Y-133966666D01*
X107738095Y-133966666D01*
X107880952Y-133919047D01*
X108452380Y-133347619D01*
X108452380Y-133966666D01*
D15*
X124319047Y-157826190D02*
X124319047Y-157326190D01*
X124200000Y-157326190D01*
X124128571Y-157350000D01*
X124080952Y-157397619D01*
X124057142Y-157445238D01*
X124033333Y-157540476D01*
X124033333Y-157611904D01*
X124057142Y-157707142D01*
X124080952Y-157754761D01*
X124128571Y-157802380D01*
X124200000Y-157826190D01*
X124319047Y-157826190D01*
X123842857Y-157373809D02*
X123819047Y-157350000D01*
X123771428Y-157326190D01*
X123652380Y-157326190D01*
X123604761Y-157350000D01*
X123580952Y-157373809D01*
X123557142Y-157421428D01*
X123557142Y-157469047D01*
X123580952Y-157540476D01*
X123866666Y-157826190D01*
X123557142Y-157826190D01*
X122669047Y-157826190D02*
X122669047Y-157326190D01*
X122550000Y-157326190D01*
X122478571Y-157350000D01*
X122430952Y-157397619D01*
X122407142Y-157445238D01*
X122383333Y-157540476D01*
X122383333Y-157611904D01*
X122407142Y-157707142D01*
X122430952Y-157754761D01*
X122478571Y-157802380D01*
X122550000Y-157826190D01*
X122669047Y-157826190D01*
X122216666Y-157326190D02*
X121907142Y-157326190D01*
X122073809Y-157516666D01*
X122002380Y-157516666D01*
X121954761Y-157540476D01*
X121930952Y-157564285D01*
X121907142Y-157611904D01*
X121907142Y-157730952D01*
X121930952Y-157778571D01*
X121954761Y-157802380D01*
X122002380Y-157826190D01*
X122145238Y-157826190D01*
X122192857Y-157802380D01*
X122216666Y-157778571D01*
X137669047Y-151976190D02*
X137669047Y-151476190D01*
X137550000Y-151476190D01*
X137478571Y-151500000D01*
X137430952Y-151547619D01*
X137407142Y-151595238D01*
X137383333Y-151690476D01*
X137383333Y-151761904D01*
X137407142Y-151857142D01*
X137430952Y-151904761D01*
X137478571Y-151952380D01*
X137550000Y-151976190D01*
X137669047Y-151976190D01*
X136907142Y-151976190D02*
X137192857Y-151976190D01*
X137050000Y-151976190D02*
X137050000Y-151476190D01*
X137097619Y-151547619D01*
X137145238Y-151595238D01*
X137192857Y-151619047D01*
D11*
X96850000Y-126189285D02*
X96850000Y-126725000D01*
X96885714Y-126832142D01*
X96957142Y-126903571D01*
X97064285Y-126939285D01*
X97135714Y-126939285D01*
X96100000Y-126939285D02*
X96528571Y-126939285D01*
X96314285Y-126939285D02*
X96314285Y-126189285D01*
X96385714Y-126296428D01*
X96457142Y-126367857D01*
X96528571Y-126403571D01*
D19*
X132689600Y-162869800D02*
X127609600Y-162869800D01*
D12*
X146063351Y-140314600D02*
G75*
G03*
X146063351Y-140314600I-495951J0D01*
G01*
X124287931Y-172722460D02*
G75*
G03*
X124287931Y-172722460I-495951J0D01*
G01*
D10*
X115600000Y-129530000D02*
X116930000Y-129530000D01*
X114330000Y-129530000D02*
X114330000Y-126870000D01*
X116930000Y-129530000D02*
X116930000Y-128200000D01*
X114330000Y-126870000D02*
X101570000Y-126870000D01*
X114330000Y-129530000D02*
X101570000Y-129530000D01*
X101570000Y-129530000D02*
X101570000Y-126870000D01*
X109600000Y-134350000D02*
X109600000Y-138450000D01*
X111800000Y-135100000D02*
X112100000Y-135400000D01*
X111600000Y-134350000D02*
X109600000Y-134350000D01*
X111800000Y-135100000D02*
X112100000Y-134800000D01*
X111600000Y-138450000D02*
X111600000Y-134350000D01*
X109600000Y-138450000D02*
X111600000Y-138450000D01*
X112100000Y-134800000D02*
X112100000Y-135400000D01*
X109200000Y-135100000D02*
X109500000Y-135400000D01*
X107000000Y-134350000D02*
X107000000Y-138450000D01*
X107000000Y-138450000D02*
X109000000Y-138450000D01*
X109000000Y-138450000D02*
X109000000Y-134350000D01*
X109500000Y-134800000D02*
X109500000Y-135400000D01*
X109200000Y-135100000D02*
X109500000Y-134800000D01*
X109000000Y-134350000D02*
X107000000Y-134350000D01*
G36*
X94086252Y-171488000D02*
G01*
X94086651Y-171520339D01*
X94087929Y-171628455D01*
X94088185Y-171711186D01*
X94086634Y-171771426D01*
X94082490Y-171812073D01*
X94074964Y-171836023D01*
X94063271Y-171846171D01*
X94046624Y-171845414D01*
X94024236Y-171836648D01*
X93995321Y-171822769D01*
X93989142Y-171819808D01*
X93963413Y-171805311D01*
X93949976Y-171788065D01*
X93944834Y-171759308D01*
X93943990Y-171710283D01*
X93943952Y-171622257D01*
X93853276Y-171622257D01*
X93797498Y-171619815D01*
X93753640Y-171609908D01*
X93717218Y-171589886D01*
X93714503Y-171587929D01*
X93677546Y-171554869D01*
X93651826Y-171514931D01*
X93635606Y-171462657D01*
X93627148Y-171392588D01*
X93625083Y-171313430D01*
X93769857Y-171313430D01*
X93769882Y-171326697D01*
X93771261Y-171386584D01*
X93775687Y-171425732D01*
X93784461Y-171451153D01*
X93798886Y-171469857D01*
X93799784Y-171470750D01*
X93835237Y-171494952D01*
X93869596Y-171492567D01*
X93908403Y-171463260D01*
X93917895Y-171453244D01*
X93931876Y-171432708D01*
X93939760Y-171405997D01*
X93943245Y-171365499D01*
X93944029Y-171303603D01*
X93943350Y-171266130D01*
X93935983Y-171197980D01*
X93919168Y-171153330D01*
X93891234Y-171128926D01*
X93850509Y-171121514D01*
X93833350Y-171123094D01*
X93803660Y-171138766D01*
X93784031Y-171173691D01*
X93773188Y-171230901D01*
X93769857Y-171313430D01*
X93625083Y-171313430D01*
X93624714Y-171299267D01*
X93625253Y-171231169D01*
X93627707Y-171179587D01*
X93633158Y-171143816D01*
X93642686Y-171117015D01*
X93657371Y-171092338D01*
X93670852Y-171073480D01*
X93719799Y-171022568D01*
X93775256Y-170994918D01*
X93844928Y-170986165D01*
X93924664Y-170994890D01*
X93993595Y-171026185D01*
X94048113Y-171081381D01*
X94052223Y-171087224D01*
X94061808Y-171102753D01*
X94069151Y-171120498D01*
X94074612Y-171144290D01*
X94078550Y-171177958D01*
X94081323Y-171225333D01*
X94083292Y-171290245D01*
X94083528Y-171303603D01*
X94084815Y-171376524D01*
X94086252Y-171488000D01*
G37*
D20*
X94086252Y-171488000D02*
X94086651Y-171520339D01*
X94087929Y-171628455D01*
X94088185Y-171711186D01*
X94086634Y-171771426D01*
X94082490Y-171812073D01*
X94074964Y-171836023D01*
X94063271Y-171846171D01*
X94046624Y-171845414D01*
X94024236Y-171836648D01*
X93995321Y-171822769D01*
X93989142Y-171819808D01*
X93963413Y-171805311D01*
X93949976Y-171788065D01*
X93944834Y-171759308D01*
X93943990Y-171710283D01*
X93943952Y-171622257D01*
X93853276Y-171622257D01*
X93797498Y-171619815D01*
X93753640Y-171609908D01*
X93717218Y-171589886D01*
X93714503Y-171587929D01*
X93677546Y-171554869D01*
X93651826Y-171514931D01*
X93635606Y-171462657D01*
X93627148Y-171392588D01*
X93625083Y-171313430D01*
X93769857Y-171313430D01*
X93769882Y-171326697D01*
X93771261Y-171386584D01*
X93775687Y-171425732D01*
X93784461Y-171451153D01*
X93798886Y-171469857D01*
X93799784Y-171470750D01*
X93835237Y-171494952D01*
X93869596Y-171492567D01*
X93908403Y-171463260D01*
X93917895Y-171453244D01*
X93931876Y-171432708D01*
X93939760Y-171405997D01*
X93943245Y-171365499D01*
X93944029Y-171303603D01*
X93943350Y-171266130D01*
X93935983Y-171197980D01*
X93919168Y-171153330D01*
X93891234Y-171128926D01*
X93850509Y-171121514D01*
X93833350Y-171123094D01*
X93803660Y-171138766D01*
X93784031Y-171173691D01*
X93773188Y-171230901D01*
X93769857Y-171313430D01*
X93625083Y-171313430D01*
X93624714Y-171299267D01*
X93625253Y-171231169D01*
X93627707Y-171179587D01*
X93633158Y-171143816D01*
X93642686Y-171117015D01*
X93657371Y-171092338D01*
X93670852Y-171073480D01*
X93719799Y-171022568D01*
X93775256Y-170994918D01*
X93844928Y-170986165D01*
X93924664Y-170994890D01*
X93993595Y-171026185D01*
X94048113Y-171081381D01*
X94052223Y-171087224D01*
X94061808Y-171102753D01*
X94069151Y-171120498D01*
X94074612Y-171144290D01*
X94078550Y-171177958D01*
X94081323Y-171225333D01*
X94083292Y-171290245D01*
X94083528Y-171303603D01*
X94084815Y-171376524D01*
X94086252Y-171488000D01*
G36*
X90604537Y-171381313D02*
G01*
X90596345Y-171458462D01*
X90578519Y-171516276D01*
X90548975Y-171560422D01*
X90505625Y-171596568D01*
X90464332Y-171617463D01*
X90394987Y-171629090D01*
X90325736Y-171616377D01*
X90263145Y-171580945D01*
X90213779Y-171524418D01*
X90207818Y-171513995D01*
X90199945Y-171495733D01*
X90194106Y-171472429D01*
X90189999Y-171440085D01*
X90187325Y-171394704D01*
X90185781Y-171332287D01*
X90185734Y-171326748D01*
X90286429Y-171326748D01*
X90286772Y-171379577D01*
X90288942Y-171427362D01*
X90294307Y-171458209D01*
X90304217Y-171478935D01*
X90320021Y-171496356D01*
X90323724Y-171499705D01*
X90371299Y-171524419D01*
X90421635Y-171521890D01*
X90468517Y-171492288D01*
X90482477Y-171476953D01*
X90494160Y-171456622D01*
X90500686Y-171428514D01*
X90503524Y-171385550D01*
X90504143Y-171320647D01*
X90503837Y-171271122D01*
X90501722Y-171222782D01*
X90496390Y-171191587D01*
X90486460Y-171170647D01*
X90470550Y-171153073D01*
X90461204Y-171145159D01*
X90412776Y-171123843D01*
X90362040Y-171127198D01*
X90317987Y-171155107D01*
X90308504Y-171166173D01*
X90296939Y-171187009D01*
X90290252Y-171216106D01*
X90287173Y-171260381D01*
X90286429Y-171326748D01*
X90185734Y-171326748D01*
X90185067Y-171248837D01*
X90184883Y-171140358D01*
X90184829Y-170803601D01*
X90232000Y-170823362D01*
X90244472Y-170828770D01*
X90264324Y-170840985D01*
X90275687Y-170859482D01*
X90281933Y-170891829D01*
X90286429Y-170945593D01*
X90290535Y-170993866D01*
X90295963Y-171025557D01*
X90303739Y-171037383D01*
X90315457Y-171034212D01*
X90345318Y-171023067D01*
X90398684Y-171020304D01*
X90456093Y-171030625D01*
X90505625Y-171052861D01*
X90532876Y-171073443D01*
X90567865Y-171113600D01*
X90590274Y-171165086D01*
X90602190Y-171233568D01*
X90605542Y-171320647D01*
X90605698Y-171324714D01*
X90604537Y-171381313D01*
G37*
X90604537Y-171381313D02*
X90596345Y-171458462D01*
X90578519Y-171516276D01*
X90548975Y-171560422D01*
X90505625Y-171596568D01*
X90464332Y-171617463D01*
X90394987Y-171629090D01*
X90325736Y-171616377D01*
X90263145Y-171580945D01*
X90213779Y-171524418D01*
X90207818Y-171513995D01*
X90199945Y-171495733D01*
X90194106Y-171472429D01*
X90189999Y-171440085D01*
X90187325Y-171394704D01*
X90185781Y-171332287D01*
X90185734Y-171326748D01*
X90286429Y-171326748D01*
X90286772Y-171379577D01*
X90288942Y-171427362D01*
X90294307Y-171458209D01*
X90304217Y-171478935D01*
X90320021Y-171496356D01*
X90323724Y-171499705D01*
X90371299Y-171524419D01*
X90421635Y-171521890D01*
X90468517Y-171492288D01*
X90482477Y-171476953D01*
X90494160Y-171456622D01*
X90500686Y-171428514D01*
X90503524Y-171385550D01*
X90504143Y-171320647D01*
X90503837Y-171271122D01*
X90501722Y-171222782D01*
X90496390Y-171191587D01*
X90486460Y-171170647D01*
X90470550Y-171153073D01*
X90461204Y-171145159D01*
X90412776Y-171123843D01*
X90362040Y-171127198D01*
X90317987Y-171155107D01*
X90308504Y-171166173D01*
X90296939Y-171187009D01*
X90290252Y-171216106D01*
X90287173Y-171260381D01*
X90286429Y-171326748D01*
X90185734Y-171326748D01*
X90185067Y-171248837D01*
X90184883Y-171140358D01*
X90184829Y-170803601D01*
X90232000Y-170823362D01*
X90244472Y-170828770D01*
X90264324Y-170840985D01*
X90275687Y-170859482D01*
X90281933Y-170891829D01*
X90286429Y-170945593D01*
X90290535Y-170993866D01*
X90295963Y-171025557D01*
X90303739Y-171037383D01*
X90315457Y-171034212D01*
X90345318Y-171023067D01*
X90398684Y-171020304D01*
X90456093Y-171030625D01*
X90505625Y-171052861D01*
X90532876Y-171073443D01*
X90567865Y-171113600D01*
X90590274Y-171165086D01*
X90602190Y-171233568D01*
X90605542Y-171320647D01*
X90605698Y-171324714D01*
X90604537Y-171381313D01*
G36*
X90982691Y-171041467D02*
G01*
X90987273Y-171044003D01*
X91024704Y-171073057D01*
X91058170Y-171110410D01*
X91064007Y-171118852D01*
X91075165Y-171138553D01*
X91083136Y-171161935D01*
X91088618Y-171194067D01*
X91092307Y-171240019D01*
X91094899Y-171304859D01*
X91097092Y-171393657D01*
X91097402Y-171408669D01*
X91098400Y-171505999D01*
X91096994Y-171574934D01*
X91093164Y-171615948D01*
X91086889Y-171629514D01*
X91067898Y-171625452D01*
X91035638Y-171613144D01*
X91028041Y-171609545D01*
X91016176Y-171601398D01*
X91007994Y-171588004D01*
X91002643Y-171564608D01*
X90999269Y-171526455D01*
X90997019Y-171468790D01*
X90995040Y-171386857D01*
X90994498Y-171362907D01*
X90992403Y-171287266D01*
X90989683Y-171234328D01*
X90985515Y-171199075D01*
X90979079Y-171176487D01*
X90969550Y-171161544D01*
X90956106Y-171149227D01*
X90916305Y-171127634D01*
X90867341Y-171123476D01*
X90823529Y-171139999D01*
X90792008Y-171174210D01*
X90779914Y-171223114D01*
X90779578Y-171236407D01*
X90772972Y-171260472D01*
X90753470Y-171264144D01*
X90715283Y-171249813D01*
X90706438Y-171245217D01*
X90682534Y-171218186D01*
X90682061Y-171177994D01*
X90704836Y-171122409D01*
X90725727Y-171092117D01*
X90779142Y-171049084D01*
X90845074Y-171024755D01*
X90915574Y-171021443D01*
X90982691Y-171041467D01*
G37*
X90982691Y-171041467D02*
X90987273Y-171044003D01*
X91024704Y-171073057D01*
X91058170Y-171110410D01*
X91064007Y-171118852D01*
X91075165Y-171138553D01*
X91083136Y-171161935D01*
X91088618Y-171194067D01*
X91092307Y-171240019D01*
X91094899Y-171304859D01*
X91097092Y-171393657D01*
X91097402Y-171408669D01*
X91098400Y-171505999D01*
X91096994Y-171574934D01*
X91093164Y-171615948D01*
X91086889Y-171629514D01*
X91067898Y-171625452D01*
X91035638Y-171613144D01*
X91028041Y-171609545D01*
X91016176Y-171601398D01*
X91007994Y-171588004D01*
X91002643Y-171564608D01*
X90999269Y-171526455D01*
X90997019Y-171468790D01*
X90995040Y-171386857D01*
X90994498Y-171362907D01*
X90992403Y-171287266D01*
X90989683Y-171234328D01*
X90985515Y-171199075D01*
X90979079Y-171176487D01*
X90969550Y-171161544D01*
X90956106Y-171149227D01*
X90916305Y-171127634D01*
X90867341Y-171123476D01*
X90823529Y-171139999D01*
X90792008Y-171174210D01*
X90779914Y-171223114D01*
X90779578Y-171236407D01*
X90772972Y-171260472D01*
X90753470Y-171264144D01*
X90715283Y-171249813D01*
X90706438Y-171245217D01*
X90682534Y-171218186D01*
X90682061Y-171177994D01*
X90704836Y-171122409D01*
X90725727Y-171092117D01*
X90779142Y-171049084D01*
X90845074Y-171024755D01*
X90915574Y-171021443D01*
X90982691Y-171041467D01*
G36*
X94640701Y-171325935D02*
G01*
X94639914Y-171396119D01*
X94637210Y-171445022D01*
X94631606Y-171479178D01*
X94622119Y-171505124D01*
X94607768Y-171529397D01*
X94604237Y-171534433D01*
X94566878Y-171574143D01*
X94524311Y-171604092D01*
X94502452Y-171613810D01*
X94423908Y-171630020D01*
X94346231Y-171619535D01*
X94274645Y-171583707D01*
X94214374Y-171523887D01*
X94209286Y-171515873D01*
X94192730Y-171469342D01*
X94181573Y-171404552D01*
X94176160Y-171329727D01*
X94176768Y-171260513D01*
X94323248Y-171260513D01*
X94324402Y-171356399D01*
X94324866Y-171362569D01*
X94331629Y-171415478D01*
X94343671Y-171449029D01*
X94364005Y-171472016D01*
X94398097Y-171493548D01*
X94431814Y-171494680D01*
X94466543Y-171469857D01*
X94472584Y-171463325D01*
X94484417Y-171443779D01*
X94491404Y-171415386D01*
X94494727Y-171371430D01*
X94495571Y-171305192D01*
X94494125Y-171243150D01*
X94486907Y-171184042D01*
X94472006Y-171146686D01*
X94447636Y-171127152D01*
X94412008Y-171121514D01*
X94398440Y-171122635D01*
X94360430Y-171143194D01*
X94335312Y-171189299D01*
X94323248Y-171260513D01*
X94176768Y-171260513D01*
X94176833Y-171253096D01*
X94183937Y-171182882D01*
X94197815Y-171127312D01*
X94215649Y-171090301D01*
X94265855Y-171032733D01*
X94333885Y-170996962D01*
X94417158Y-170984665D01*
X94439398Y-170985331D01*
X94504891Y-170998947D01*
X94558687Y-171033249D01*
X94608057Y-171092338D01*
X94610995Y-171096722D01*
X94624287Y-171120299D01*
X94632932Y-171146949D01*
X94637904Y-171183159D01*
X94640174Y-171235413D01*
X94640678Y-171305192D01*
X94640714Y-171310200D01*
X94640701Y-171325935D01*
G37*
X94640701Y-171325935D02*
X94639914Y-171396119D01*
X94637210Y-171445022D01*
X94631606Y-171479178D01*
X94622119Y-171505124D01*
X94607768Y-171529397D01*
X94604237Y-171534433D01*
X94566878Y-171574143D01*
X94524311Y-171604092D01*
X94502452Y-171613810D01*
X94423908Y-171630020D01*
X94346231Y-171619535D01*
X94274645Y-171583707D01*
X94214374Y-171523887D01*
X94209286Y-171515873D01*
X94192730Y-171469342D01*
X94181573Y-171404552D01*
X94176160Y-171329727D01*
X94176768Y-171260513D01*
X94323248Y-171260513D01*
X94324402Y-171356399D01*
X94324866Y-171362569D01*
X94331629Y-171415478D01*
X94343671Y-171449029D01*
X94364005Y-171472016D01*
X94398097Y-171493548D01*
X94431814Y-171494680D01*
X94466543Y-171469857D01*
X94472584Y-171463325D01*
X94484417Y-171443779D01*
X94491404Y-171415386D01*
X94494727Y-171371430D01*
X94495571Y-171305192D01*
X94494125Y-171243150D01*
X94486907Y-171184042D01*
X94472006Y-171146686D01*
X94447636Y-171127152D01*
X94412008Y-171121514D01*
X94398440Y-171122635D01*
X94360430Y-171143194D01*
X94335312Y-171189299D01*
X94323248Y-171260513D01*
X94176768Y-171260513D01*
X94176833Y-171253096D01*
X94183937Y-171182882D01*
X94197815Y-171127312D01*
X94215649Y-171090301D01*
X94265855Y-171032733D01*
X94333885Y-170996962D01*
X94417158Y-170984665D01*
X94439398Y-170985331D01*
X94504891Y-170998947D01*
X94558687Y-171033249D01*
X94608057Y-171092338D01*
X94610995Y-171096722D01*
X94624287Y-171120299D01*
X94632932Y-171146949D01*
X94637904Y-171183159D01*
X94640174Y-171235413D01*
X94640678Y-171305192D01*
X94640714Y-171310200D01*
X94640701Y-171325935D01*
G36*
X88515307Y-171366305D02*
G01*
X88511762Y-171442521D01*
X88502483Y-171498294D01*
X88485375Y-171539613D01*
X88458344Y-171572467D01*
X88419292Y-171602846D01*
X88394445Y-171616660D01*
X88354615Y-171625965D01*
X88298665Y-171625230D01*
X88267385Y-171622283D01*
X88229653Y-171613283D01*
X88199494Y-171593720D01*
X88164408Y-171557267D01*
X88159720Y-171551943D01*
X88128177Y-171510969D01*
X88113128Y-171475283D01*
X88109286Y-171432966D01*
X88109286Y-171370779D01*
X88152742Y-171387182D01*
X88184424Y-171406356D01*
X88211962Y-171451347D01*
X88217711Y-171465752D01*
X88249855Y-171506546D01*
X88293611Y-171527081D01*
X88341254Y-171525235D01*
X88385057Y-171498886D01*
X88400111Y-171482455D01*
X88413763Y-171457667D01*
X88409493Y-171435144D01*
X88384916Y-171411964D01*
X88337651Y-171385202D01*
X88265314Y-171351934D01*
X88116543Y-171286816D01*
X88112595Y-171222308D01*
X88114079Y-171181220D01*
X88211010Y-171181220D01*
X88218368Y-171206657D01*
X88251848Y-171233814D01*
X88312614Y-171264714D01*
X88322669Y-171269190D01*
X88370751Y-171290017D01*
X88406726Y-171304665D01*
X88423444Y-171310200D01*
X88425977Y-171306126D01*
X88426993Y-171281247D01*
X88423369Y-171241257D01*
X88414242Y-171202152D01*
X88385773Y-171152884D01*
X88344678Y-171125122D01*
X88295590Y-171121364D01*
X88243144Y-171144109D01*
X88228609Y-171155481D01*
X88211010Y-171181220D01*
X88114079Y-171181220D01*
X88114338Y-171174064D01*
X88136281Y-171113096D01*
X88163979Y-171079497D01*
X88221405Y-171041966D01*
X88289527Y-171023006D01*
X88359947Y-171024507D01*
X88424267Y-171048355D01*
X88438426Y-171057513D01*
X88470904Y-171085849D01*
X88493116Y-171121695D01*
X88506804Y-171170384D01*
X88513715Y-171237249D01*
X88514628Y-171281247D01*
X88515590Y-171327622D01*
X88515307Y-171366305D01*
G37*
X88515307Y-171366305D02*
X88511762Y-171442521D01*
X88502483Y-171498294D01*
X88485375Y-171539613D01*
X88458344Y-171572467D01*
X88419292Y-171602846D01*
X88394445Y-171616660D01*
X88354615Y-171625965D01*
X88298665Y-171625230D01*
X88267385Y-171622283D01*
X88229653Y-171613283D01*
X88199494Y-171593720D01*
X88164408Y-171557267D01*
X88159720Y-171551943D01*
X88128177Y-171510969D01*
X88113128Y-171475283D01*
X88109286Y-171432966D01*
X88109286Y-171370779D01*
X88152742Y-171387182D01*
X88184424Y-171406356D01*
X88211962Y-171451347D01*
X88217711Y-171465752D01*
X88249855Y-171506546D01*
X88293611Y-171527081D01*
X88341254Y-171525235D01*
X88385057Y-171498886D01*
X88400111Y-171482455D01*
X88413763Y-171457667D01*
X88409493Y-171435144D01*
X88384916Y-171411964D01*
X88337651Y-171385202D01*
X88265314Y-171351934D01*
X88116543Y-171286816D01*
X88112595Y-171222308D01*
X88114079Y-171181220D01*
X88211010Y-171181220D01*
X88218368Y-171206657D01*
X88251848Y-171233814D01*
X88312614Y-171264714D01*
X88322669Y-171269190D01*
X88370751Y-171290017D01*
X88406726Y-171304665D01*
X88423444Y-171310200D01*
X88425977Y-171306126D01*
X88426993Y-171281247D01*
X88423369Y-171241257D01*
X88414242Y-171202152D01*
X88385773Y-171152884D01*
X88344678Y-171125122D01*
X88295590Y-171121364D01*
X88243144Y-171144109D01*
X88228609Y-171155481D01*
X88211010Y-171181220D01*
X88114079Y-171181220D01*
X88114338Y-171174064D01*
X88136281Y-171113096D01*
X88163979Y-171079497D01*
X88221405Y-171041966D01*
X88289527Y-171023006D01*
X88359947Y-171024507D01*
X88424267Y-171048355D01*
X88438426Y-171057513D01*
X88470904Y-171085849D01*
X88493116Y-171121695D01*
X88506804Y-171170384D01*
X88513715Y-171237249D01*
X88514628Y-171281247D01*
X88515590Y-171327622D01*
X88515307Y-171366305D01*
G36*
X90028941Y-171024282D02*
G01*
X90060774Y-171036758D01*
X90097743Y-171053602D01*
X90097743Y-171540196D01*
X90051812Y-171586127D01*
X90041320Y-171596427D01*
X90012255Y-171619320D01*
X89982943Y-171626735D01*
X89939326Y-171623321D01*
X89921568Y-171621114D01*
X89875767Y-171616445D01*
X89843743Y-171614585D01*
X89834244Y-171614869D01*
X89795274Y-171617948D01*
X89748160Y-171623321D01*
X89733085Y-171625168D01*
X89695110Y-171625893D01*
X89667325Y-171614429D01*
X89635674Y-171586127D01*
X89589743Y-171540196D01*
X89589743Y-171280055D01*
X89590101Y-171203180D01*
X89591216Y-171129886D01*
X89592952Y-171071850D01*
X89595167Y-171033663D01*
X89597721Y-171019914D01*
X89598256Y-171019951D01*
X89616808Y-171026793D01*
X89648153Y-171041868D01*
X89690608Y-171063822D01*
X89694604Y-171292240D01*
X89698600Y-171520657D01*
X89785686Y-171520657D01*
X89789657Y-171270286D01*
X89790916Y-171202227D01*
X89792718Y-171129482D01*
X89794671Y-171071730D01*
X89796612Y-171033648D01*
X89798377Y-171019914D01*
X89798885Y-171019962D01*
X89816482Y-171025015D01*
X89848834Y-171035849D01*
X89894543Y-171051783D01*
X89894765Y-171271706D01*
X89894988Y-171309909D01*
X89896531Y-171384146D01*
X89899292Y-171446145D01*
X89902977Y-171490308D01*
X89907292Y-171511041D01*
X89922732Y-171522131D01*
X89954241Y-171525556D01*
X89988886Y-171520657D01*
X89992857Y-171270286D01*
X89994278Y-171206663D01*
X89997225Y-171131356D01*
X90001079Y-171072286D01*
X90005542Y-171033718D01*
X90010317Y-171019914D01*
X90028941Y-171024282D01*
G37*
X90028941Y-171024282D02*
X90060774Y-171036758D01*
X90097743Y-171053602D01*
X90097743Y-171540196D01*
X90051812Y-171586127D01*
X90041320Y-171596427D01*
X90012255Y-171619320D01*
X89982943Y-171626735D01*
X89939326Y-171623321D01*
X89921568Y-171621114D01*
X89875767Y-171616445D01*
X89843743Y-171614585D01*
X89834244Y-171614869D01*
X89795274Y-171617948D01*
X89748160Y-171623321D01*
X89733085Y-171625168D01*
X89695110Y-171625893D01*
X89667325Y-171614429D01*
X89635674Y-171586127D01*
X89589743Y-171540196D01*
X89589743Y-171280055D01*
X89590101Y-171203180D01*
X89591216Y-171129886D01*
X89592952Y-171071850D01*
X89595167Y-171033663D01*
X89597721Y-171019914D01*
X89598256Y-171019951D01*
X89616808Y-171026793D01*
X89648153Y-171041868D01*
X89690608Y-171063822D01*
X89694604Y-171292240D01*
X89698600Y-171520657D01*
X89785686Y-171520657D01*
X89789657Y-171270286D01*
X89790916Y-171202227D01*
X89792718Y-171129482D01*
X89794671Y-171071730D01*
X89796612Y-171033648D01*
X89798377Y-171019914D01*
X89798885Y-171019962D01*
X89816482Y-171025015D01*
X89848834Y-171035849D01*
X89894543Y-171051783D01*
X89894765Y-171271706D01*
X89894988Y-171309909D01*
X89896531Y-171384146D01*
X89899292Y-171446145D01*
X89902977Y-171490308D01*
X89907292Y-171511041D01*
X89922732Y-171522131D01*
X89954241Y-171525556D01*
X89988886Y-171520657D01*
X89992857Y-171270286D01*
X89994278Y-171206663D01*
X89997225Y-171131356D01*
X90001079Y-171072286D01*
X90005542Y-171033718D01*
X90010317Y-171019914D01*
X90028941Y-171024282D01*
G36*
X92053543Y-170824444D02*
G01*
X92100714Y-170844342D01*
X92100714Y-171241509D01*
X92100519Y-171344498D01*
X92099998Y-171437141D01*
X92099199Y-171515700D01*
X92098172Y-171576439D01*
X92096963Y-171615623D01*
X92095623Y-171629514D01*
X92095099Y-171629468D01*
X92077287Y-171624420D01*
X92044823Y-171613580D01*
X91999114Y-171597646D01*
X91999114Y-171393173D01*
X91998824Y-171312832D01*
X91997474Y-171254562D01*
X91994369Y-171214909D01*
X91988812Y-171188618D01*
X91980107Y-171170436D01*
X91967556Y-171155107D01*
X91958999Y-171146955D01*
X91912728Y-171124375D01*
X91861728Y-171126375D01*
X91814993Y-171153073D01*
X91808189Y-171159698D01*
X91797293Y-171173456D01*
X91789836Y-171191642D01*
X91785169Y-171219177D01*
X91782642Y-171260981D01*
X91781602Y-171321973D01*
X91781400Y-171407073D01*
X91781303Y-171450234D01*
X91780674Y-171521224D01*
X91779556Y-171578076D01*
X91778063Y-171615828D01*
X91776309Y-171629514D01*
X91775785Y-171629468D01*
X91757973Y-171624420D01*
X91725509Y-171613580D01*
X91679800Y-171597646D01*
X91679823Y-171392237D01*
X91679857Y-171373951D01*
X91681778Y-171278626D01*
X91687678Y-171206543D01*
X91699001Y-171152813D01*
X91717187Y-171112549D01*
X91743679Y-171080861D01*
X91779918Y-171052861D01*
X91815263Y-171035333D01*
X91871773Y-171021785D01*
X91927356Y-171021015D01*
X91970086Y-171034195D01*
X91973298Y-171036015D01*
X91983205Y-171035820D01*
X91989975Y-171020572D01*
X91994861Y-170985613D01*
X91999114Y-170926289D01*
X92006371Y-170804547D01*
X92053543Y-170824444D01*
G37*
X92053543Y-170824444D02*
X92100714Y-170844342D01*
X92100714Y-171241509D01*
X92100519Y-171344498D01*
X92099998Y-171437141D01*
X92099199Y-171515700D01*
X92098172Y-171576439D01*
X92096963Y-171615623D01*
X92095623Y-171629514D01*
X92095099Y-171629468D01*
X92077287Y-171624420D01*
X92044823Y-171613580D01*
X91999114Y-171597646D01*
X91999114Y-171393173D01*
X91998824Y-171312832D01*
X91997474Y-171254562D01*
X91994369Y-171214909D01*
X91988812Y-171188618D01*
X91980107Y-171170436D01*
X91967556Y-171155107D01*
X91958999Y-171146955D01*
X91912728Y-171124375D01*
X91861728Y-171126375D01*
X91814993Y-171153073D01*
X91808189Y-171159698D01*
X91797293Y-171173456D01*
X91789836Y-171191642D01*
X91785169Y-171219177D01*
X91782642Y-171260981D01*
X91781602Y-171321973D01*
X91781400Y-171407073D01*
X91781303Y-171450234D01*
X91780674Y-171521224D01*
X91779556Y-171578076D01*
X91778063Y-171615828D01*
X91776309Y-171629514D01*
X91775785Y-171629468D01*
X91757973Y-171624420D01*
X91725509Y-171613580D01*
X91679800Y-171597646D01*
X91679823Y-171392237D01*
X91679857Y-171373951D01*
X91681778Y-171278626D01*
X91687678Y-171206543D01*
X91699001Y-171152813D01*
X91717187Y-171112549D01*
X91743679Y-171080861D01*
X91779918Y-171052861D01*
X91815263Y-171035333D01*
X91871773Y-171021785D01*
X91927356Y-171021015D01*
X91970086Y-171034195D01*
X91973298Y-171036015D01*
X91983205Y-171035820D01*
X91989975Y-171020572D01*
X91994861Y-170985613D01*
X91999114Y-170926289D01*
X92006371Y-170804547D01*
X92053543Y-170824444D01*
G36*
X92806020Y-170992822D02*
G01*
X92873810Y-171024680D01*
X92929366Y-171079770D01*
X92940881Y-171097016D01*
X92950432Y-171116562D01*
X92957206Y-171141198D01*
X92961819Y-171175711D01*
X92964888Y-171224889D01*
X92967029Y-171293519D01*
X92968859Y-171386389D01*
X92973404Y-171644007D01*
X92935225Y-171629491D01*
X92900268Y-171616156D01*
X92874097Y-171603323D01*
X92857013Y-171586780D01*
X92847086Y-171561465D01*
X92842386Y-171522316D01*
X92840982Y-171464268D01*
X92840943Y-171382261D01*
X92840744Y-171316895D01*
X92839559Y-171254173D01*
X92836729Y-171211334D01*
X92831609Y-171183220D01*
X92823553Y-171164675D01*
X92811914Y-171150543D01*
X92783303Y-171130600D01*
X92735239Y-171123083D01*
X92687688Y-171142079D01*
X92684550Y-171144511D01*
X92674769Y-171155748D01*
X92667553Y-171173770D01*
X92662299Y-171203026D01*
X92658402Y-171247962D01*
X92655256Y-171313028D01*
X92652257Y-171402670D01*
X92645000Y-171642697D01*
X92583314Y-171615044D01*
X92521629Y-171587391D01*
X92521629Y-171368246D01*
X92521884Y-171308711D01*
X92524086Y-171225892D01*
X92529661Y-171164227D01*
X92539941Y-171118748D01*
X92556258Y-171084484D01*
X92579943Y-171056466D01*
X92612328Y-171029723D01*
X92658907Y-171002780D01*
X92732287Y-170985191D01*
X92806020Y-170992822D01*
G37*
X92806020Y-170992822D02*
X92873810Y-171024680D01*
X92929366Y-171079770D01*
X92940881Y-171097016D01*
X92950432Y-171116562D01*
X92957206Y-171141198D01*
X92961819Y-171175711D01*
X92964888Y-171224889D01*
X92967029Y-171293519D01*
X92968859Y-171386389D01*
X92973404Y-171644007D01*
X92935225Y-171629491D01*
X92900268Y-171616156D01*
X92874097Y-171603323D01*
X92857013Y-171586780D01*
X92847086Y-171561465D01*
X92842386Y-171522316D01*
X92840982Y-171464268D01*
X92840943Y-171382261D01*
X92840744Y-171316895D01*
X92839559Y-171254173D01*
X92836729Y-171211334D01*
X92831609Y-171183220D01*
X92823553Y-171164675D01*
X92811914Y-171150543D01*
X92783303Y-171130600D01*
X92735239Y-171123083D01*
X92687688Y-171142079D01*
X92684550Y-171144511D01*
X92674769Y-171155748D01*
X92667553Y-171173770D01*
X92662299Y-171203026D01*
X92658402Y-171247962D01*
X92655256Y-171313028D01*
X92652257Y-171402670D01*
X92645000Y-171642697D01*
X92583314Y-171615044D01*
X92521629Y-171587391D01*
X92521629Y-171368246D01*
X92521884Y-171308711D01*
X92524086Y-171225892D01*
X92529661Y-171164227D01*
X92539941Y-171118748D01*
X92556258Y-171084484D01*
X92579943Y-171056466D01*
X92612328Y-171029723D01*
X92658907Y-171002780D01*
X92732287Y-170985191D01*
X92806020Y-170992822D01*
G36*
X88857829Y-171026097D02*
G01*
X88917753Y-171048355D01*
X88942673Y-171065080D01*
X88967910Y-171089043D01*
X88985912Y-171119526D01*
X88997858Y-171161023D01*
X89004930Y-171218032D01*
X89008308Y-171295047D01*
X89009171Y-171396565D01*
X89009002Y-171449027D01*
X89008153Y-171520715D01*
X89006711Y-171577925D01*
X89004814Y-171615809D01*
X89002597Y-171629514D01*
X88988172Y-171624981D01*
X88959054Y-171612670D01*
X88958181Y-171612272D01*
X88943060Y-171604356D01*
X88932891Y-171593495D01*
X88926691Y-171574471D01*
X88923478Y-171542069D01*
X88922270Y-171491071D01*
X88922086Y-171416261D01*
X88921714Y-171368804D01*
X88917750Y-171279615D01*
X88908673Y-171214287D01*
X88893524Y-171169393D01*
X88871345Y-171141507D01*
X88841175Y-171127203D01*
X88836990Y-171126206D01*
X88780480Y-171125427D01*
X88736410Y-171150744D01*
X88705972Y-171201502D01*
X88700544Y-171216175D01*
X88688171Y-171248649D01*
X88681905Y-171263572D01*
X88669036Y-171261516D01*
X88640933Y-171250357D01*
X88614721Y-171231927D01*
X88602771Y-171197098D01*
X88606336Y-171172151D01*
X88628235Y-171121547D01*
X88663644Y-171074128D01*
X88705052Y-171041334D01*
X88722400Y-171033752D01*
X88788089Y-171021076D01*
X88857829Y-171026097D01*
G37*
X88857829Y-171026097D02*
X88917753Y-171048355D01*
X88942673Y-171065080D01*
X88967910Y-171089043D01*
X88985912Y-171119526D01*
X88997858Y-171161023D01*
X89004930Y-171218032D01*
X89008308Y-171295047D01*
X89009171Y-171396565D01*
X89009002Y-171449027D01*
X89008153Y-171520715D01*
X89006711Y-171577925D01*
X89004814Y-171615809D01*
X89002597Y-171629514D01*
X88988172Y-171624981D01*
X88959054Y-171612670D01*
X88958181Y-171612272D01*
X88943060Y-171604356D01*
X88932891Y-171593495D01*
X88926691Y-171574471D01*
X88923478Y-171542069D01*
X88922270Y-171491071D01*
X88922086Y-171416261D01*
X88921714Y-171368804D01*
X88917750Y-171279615D01*
X88908673Y-171214287D01*
X88893524Y-171169393D01*
X88871345Y-171141507D01*
X88841175Y-171127203D01*
X88836990Y-171126206D01*
X88780480Y-171125427D01*
X88736410Y-171150744D01*
X88705972Y-171201502D01*
X88700544Y-171216175D01*
X88688171Y-171248649D01*
X88681905Y-171263572D01*
X88669036Y-171261516D01*
X88640933Y-171250357D01*
X88614721Y-171231927D01*
X88602771Y-171197098D01*
X88606336Y-171172151D01*
X88628235Y-171121547D01*
X88663644Y-171074128D01*
X88705052Y-171041334D01*
X88722400Y-171033752D01*
X88788089Y-171021076D01*
X88857829Y-171026097D01*
G36*
X91488933Y-166317371D02*
G01*
X91564856Y-166317865D01*
X91619491Y-166319135D01*
X91656500Y-166321547D01*
X91679547Y-166325467D01*
X91692296Y-166331262D01*
X91698411Y-166339299D01*
X91701556Y-166349943D01*
X91701646Y-166350325D01*
X91706814Y-166375347D01*
X91716209Y-166423681D01*
X91728867Y-166490260D01*
X91743825Y-166570014D01*
X91760119Y-166657875D01*
X91761448Y-166665064D01*
X91777691Y-166750340D01*
X91792805Y-166825242D01*
X91805808Y-166885219D01*
X91815715Y-166925717D01*
X91821544Y-166942184D01*
X91821575Y-166942210D01*
X91839943Y-166951320D01*
X91877640Y-166966457D01*
X91926543Y-166984358D01*
X91929297Y-166985330D01*
X91991817Y-167008959D01*
X92064543Y-167038595D01*
X92132294Y-167068062D01*
X92243703Y-167118626D01*
X92490399Y-166950160D01*
X92507775Y-166938311D01*
X92582202Y-166887947D01*
X92648614Y-166843612D01*
X92703039Y-166807916D01*
X92741506Y-166783471D01*
X92760042Y-166772889D01*
X92772743Y-166775315D01*
X92801579Y-166794110D01*
X92846143Y-166831330D01*
X92907670Y-166888020D01*
X92987398Y-166965227D01*
X92994532Y-166972255D01*
X93057796Y-167035222D01*
X93113990Y-167092268D01*
X93159677Y-167139817D01*
X93191414Y-167174297D01*
X93205764Y-167192131D01*
X93205810Y-167192217D01*
X93207633Y-167205795D01*
X93200910Y-167227820D01*
X93183946Y-167261304D01*
X93155044Y-167309261D01*
X93112508Y-167374704D01*
X93054644Y-167460645D01*
X93044783Y-167475151D01*
X92994913Y-167548635D01*
X92950905Y-167613687D01*
X92915380Y-167666417D01*
X92890959Y-167702936D01*
X92880264Y-167719356D01*
X92879458Y-167722834D01*
X92884518Y-167748785D01*
X92899677Y-167791159D01*
X92922463Y-167842728D01*
X92953429Y-167910170D01*
X92988004Y-167990195D01*
X93017366Y-168062629D01*
X93024645Y-168081377D01*
X93043710Y-168129246D01*
X93057715Y-168162596D01*
X93064041Y-168175114D01*
X93071025Y-168176050D01*
X93102413Y-168181461D01*
X93153787Y-168190806D01*
X93219802Y-168203069D01*
X93295113Y-168217232D01*
X93374375Y-168232280D01*
X93452243Y-168247195D01*
X93523370Y-168260961D01*
X93582412Y-168272562D01*
X93624022Y-168280980D01*
X93642857Y-168285199D01*
X93645980Y-168286389D01*
X93653591Y-168292805D01*
X93659254Y-168306465D01*
X93663251Y-168330999D01*
X93665866Y-168370038D01*
X93667384Y-168427213D01*
X93668086Y-168506154D01*
X93668257Y-168610492D01*
X93668257Y-168927799D01*
X93592057Y-168942839D01*
X93582840Y-168944642D01*
X93533891Y-168953980D01*
X93466205Y-168966669D01*
X93387478Y-168981273D01*
X93305400Y-168996355D01*
X93273078Y-169002422D01*
X93200855Y-169017181D01*
X93140666Y-169031137D01*
X93098040Y-169042952D01*
X93078510Y-169051287D01*
X93069660Y-169064905D01*
X93053548Y-169100938D01*
X93037065Y-169147572D01*
X93031263Y-169165034D01*
X93009906Y-169222358D01*
X92982359Y-169290201D01*
X92953107Y-169357355D01*
X92937463Y-169392430D01*
X92915174Y-169444822D01*
X92899857Y-169484058D01*
X92894162Y-169503563D01*
X92894478Y-169505036D01*
X92905281Y-169525729D01*
X92929638Y-169565665D01*
X92965081Y-169620972D01*
X93009136Y-169687781D01*
X93059332Y-169762220D01*
X93224501Y-170004623D01*
X93007503Y-170221983D01*
X92986516Y-170242899D01*
X92922342Y-170305505D01*
X92864990Y-170359495D01*
X92817820Y-170401826D01*
X92784192Y-170429457D01*
X92767467Y-170439343D01*
X92749303Y-170431821D01*
X92711265Y-170410227D01*
X92657726Y-170377151D01*
X92592884Y-170335191D01*
X92520940Y-170286943D01*
X92450275Y-170239291D01*
X92386526Y-170197328D01*
X92334513Y-170164165D01*
X92298279Y-170142378D01*
X92281867Y-170134543D01*
X92280905Y-170134614D01*
X92259103Y-170142338D01*
X92220440Y-170160323D01*
X92172612Y-170185013D01*
X92172110Y-170185284D01*
X92108587Y-170217099D01*
X92065060Y-170232642D01*
X92038052Y-170232685D01*
X92024090Y-170218000D01*
X92018180Y-170203544D01*
X92002229Y-170164831D01*
X91977660Y-170105316D01*
X91945779Y-170028165D01*
X91907893Y-169936541D01*
X91865310Y-169833607D01*
X91819337Y-169722526D01*
X91777667Y-169621472D01*
X91735268Y-169517780D01*
X91697756Y-169425119D01*
X91666388Y-169346642D01*
X91642425Y-169285500D01*
X91627123Y-169244843D01*
X91621743Y-169227825D01*
X91632018Y-169212219D01*
X91660563Y-169186162D01*
X91700971Y-169155887D01*
X91797979Y-169076684D01*
X91884793Y-168975475D01*
X91948322Y-168864116D01*
X91988177Y-168745893D01*
X92003965Y-168624095D01*
X91995296Y-168502010D01*
X91961778Y-168382925D01*
X91903021Y-168270129D01*
X91818632Y-168166911D01*
X91774631Y-168126713D01*
X91669211Y-168055638D01*
X91556410Y-168009301D01*
X91439525Y-167986599D01*
X91321853Y-167986428D01*
X91206690Y-168007687D01*
X91097335Y-168049270D01*
X90997083Y-168110076D01*
X90909233Y-168189001D01*
X90837080Y-168284941D01*
X90783922Y-168396795D01*
X90753057Y-168523457D01*
X90747392Y-168584507D01*
X90755185Y-168716776D01*
X90790284Y-168842266D01*
X90851649Y-168958759D01*
X90938243Y-169064039D01*
X91049029Y-169155887D01*
X91087931Y-169184930D01*
X91117104Y-169211272D01*
X91128257Y-169227800D01*
X91123810Y-169242209D01*
X91109378Y-169280815D01*
X91086173Y-169340201D01*
X91055452Y-169417215D01*
X91018474Y-169508703D01*
X90976496Y-169611516D01*
X90930778Y-169722502D01*
X90889178Y-169823072D01*
X90846222Y-169926947D01*
X90807829Y-170019819D01*
X90775305Y-170098525D01*
X90749958Y-170159899D01*
X90733095Y-170200779D01*
X90726025Y-170218000D01*
X90725943Y-170218204D01*
X90711798Y-170232745D01*
X90684659Y-170232579D01*
X90641023Y-170216927D01*
X90577388Y-170185013D01*
X90572379Y-170182326D01*
X90525125Y-170158150D01*
X90487811Y-170141037D01*
X90468133Y-170134543D01*
X90452005Y-170142218D01*
X90415959Y-170163871D01*
X90364092Y-170196928D01*
X90300445Y-170238810D01*
X90229060Y-170286943D01*
X90158724Y-170334131D01*
X90093670Y-170376267D01*
X90039820Y-170409578D01*
X90001374Y-170431469D01*
X89982534Y-170439343D01*
X89979325Y-170438343D01*
X89956954Y-170422584D01*
X89918733Y-170390033D01*
X89868021Y-170343733D01*
X89808181Y-170286726D01*
X89742571Y-170222058D01*
X89525648Y-170004772D01*
X89694601Y-169756253D01*
X89863553Y-169507733D01*
X89812183Y-169396595D01*
X89812031Y-169396266D01*
X89781183Y-169325418D01*
X89749661Y-169246523D01*
X89724266Y-169176600D01*
X89720423Y-169165322D01*
X89701047Y-169112967D01*
X89683574Y-169072283D01*
X89671388Y-169051287D01*
X89666426Y-169048322D01*
X89636634Y-169038375D01*
X89586047Y-169025505D01*
X89520194Y-169011053D01*
X89444600Y-168996355D01*
X89421957Y-168992210D01*
X89340038Y-168977116D01*
X89263600Y-168962899D01*
X89200337Y-168950995D01*
X89157943Y-168942839D01*
X89081743Y-168927799D01*
X89081743Y-168610492D01*
X89081760Y-168571476D01*
X89082082Y-168476292D01*
X89083033Y-168405255D01*
X89084896Y-168354734D01*
X89087955Y-168321098D01*
X89092494Y-168300718D01*
X89098795Y-168289962D01*
X89107143Y-168285199D01*
X89115224Y-168283270D01*
X89148172Y-168276445D01*
X89200736Y-168266022D01*
X89267569Y-168253018D01*
X89343328Y-168238449D01*
X89422665Y-168223333D01*
X89500237Y-168208685D01*
X89570698Y-168195523D01*
X89628702Y-168184863D01*
X89668904Y-168177721D01*
X89685959Y-168175114D01*
X89687112Y-168173541D01*
X89696385Y-168153119D01*
X89712432Y-168114045D01*
X89732635Y-168062629D01*
X89760672Y-167993353D01*
X89795186Y-167913290D01*
X89827538Y-167842728D01*
X89834952Y-167826889D01*
X89855755Y-167777293D01*
X89868219Y-167739038D01*
X89869863Y-167719356D01*
X89869015Y-167717962D01*
X89855548Y-167697420D01*
X89828850Y-167657516D01*
X89791539Y-167602140D01*
X89746234Y-167535177D01*
X89695552Y-167460517D01*
X89638445Y-167375692D01*
X89595607Y-167309800D01*
X89566460Y-167261478D01*
X89549317Y-167227733D01*
X89542495Y-167205572D01*
X89544306Y-167192002D01*
X89544915Y-167190984D01*
X89561297Y-167171210D01*
X89594695Y-167135175D01*
X89641671Y-167086451D01*
X89698786Y-167028612D01*
X89762603Y-166965227D01*
X89828802Y-166900905D01*
X89893648Y-166840447D01*
X89941299Y-166799655D01*
X89972990Y-166777484D01*
X89989958Y-166772889D01*
X89992175Y-166773921D01*
X90015524Y-166787837D01*
X90057912Y-166815030D01*
X90115369Y-166852889D01*
X90183923Y-166898803D01*
X90259601Y-166950160D01*
X90506298Y-167118626D01*
X90617706Y-167068062D01*
X90620943Y-167066597D01*
X90689343Y-167036965D01*
X90761907Y-167007493D01*
X90823457Y-166984358D01*
X90823729Y-166984262D01*
X90872595Y-166966367D01*
X90910212Y-166951253D01*
X90928457Y-166942184D01*
X90928752Y-166941855D01*
X90934946Y-166923282D01*
X90945139Y-166881045D01*
X90958348Y-166819696D01*
X90973590Y-166743789D01*
X90989881Y-166657875D01*
X90990449Y-166654796D01*
X91006713Y-166567128D01*
X91021608Y-166487741D01*
X91034171Y-166421701D01*
X91043438Y-166374079D01*
X91048444Y-166349943D01*
X91048764Y-166348605D01*
X91052060Y-166338273D01*
X91058738Y-166330506D01*
X91072462Y-166324940D01*
X91096895Y-166321207D01*
X91135702Y-166318942D01*
X91192546Y-166317778D01*
X91271090Y-166317348D01*
X91375000Y-166317286D01*
X91388056Y-166317286D01*
X91488933Y-166317371D01*
G37*
X91488933Y-166317371D02*
X91564856Y-166317865D01*
X91619491Y-166319135D01*
X91656500Y-166321547D01*
X91679547Y-166325467D01*
X91692296Y-166331262D01*
X91698411Y-166339299D01*
X91701556Y-166349943D01*
X91701646Y-166350325D01*
X91706814Y-166375347D01*
X91716209Y-166423681D01*
X91728867Y-166490260D01*
X91743825Y-166570014D01*
X91760119Y-166657875D01*
X91761448Y-166665064D01*
X91777691Y-166750340D01*
X91792805Y-166825242D01*
X91805808Y-166885219D01*
X91815715Y-166925717D01*
X91821544Y-166942184D01*
X91821575Y-166942210D01*
X91839943Y-166951320D01*
X91877640Y-166966457D01*
X91926543Y-166984358D01*
X91929297Y-166985330D01*
X91991817Y-167008959D01*
X92064543Y-167038595D01*
X92132294Y-167068062D01*
X92243703Y-167118626D01*
X92490399Y-166950160D01*
X92507775Y-166938311D01*
X92582202Y-166887947D01*
X92648614Y-166843612D01*
X92703039Y-166807916D01*
X92741506Y-166783471D01*
X92760042Y-166772889D01*
X92772743Y-166775315D01*
X92801579Y-166794110D01*
X92846143Y-166831330D01*
X92907670Y-166888020D01*
X92987398Y-166965227D01*
X92994532Y-166972255D01*
X93057796Y-167035222D01*
X93113990Y-167092268D01*
X93159677Y-167139817D01*
X93191414Y-167174297D01*
X93205764Y-167192131D01*
X93205810Y-167192217D01*
X93207633Y-167205795D01*
X93200910Y-167227820D01*
X93183946Y-167261304D01*
X93155044Y-167309261D01*
X93112508Y-167374704D01*
X93054644Y-167460645D01*
X93044783Y-167475151D01*
X92994913Y-167548635D01*
X92950905Y-167613687D01*
X92915380Y-167666417D01*
X92890959Y-167702936D01*
X92880264Y-167719356D01*
X92879458Y-167722834D01*
X92884518Y-167748785D01*
X92899677Y-167791159D01*
X92922463Y-167842728D01*
X92953429Y-167910170D01*
X92988004Y-167990195D01*
X93017366Y-168062629D01*
X93024645Y-168081377D01*
X93043710Y-168129246D01*
X93057715Y-168162596D01*
X93064041Y-168175114D01*
X93071025Y-168176050D01*
X93102413Y-168181461D01*
X93153787Y-168190806D01*
X93219802Y-168203069D01*
X93295113Y-168217232D01*
X93374375Y-168232280D01*
X93452243Y-168247195D01*
X93523370Y-168260961D01*
X93582412Y-168272562D01*
X93624022Y-168280980D01*
X93642857Y-168285199D01*
X93645980Y-168286389D01*
X93653591Y-168292805D01*
X93659254Y-168306465D01*
X93663251Y-168330999D01*
X93665866Y-168370038D01*
X93667384Y-168427213D01*
X93668086Y-168506154D01*
X93668257Y-168610492D01*
X93668257Y-168927799D01*
X93592057Y-168942839D01*
X93582840Y-168944642D01*
X93533891Y-168953980D01*
X93466205Y-168966669D01*
X93387478Y-168981273D01*
X93305400Y-168996355D01*
X93273078Y-169002422D01*
X93200855Y-169017181D01*
X93140666Y-169031137D01*
X93098040Y-169042952D01*
X93078510Y-169051287D01*
X93069660Y-169064905D01*
X93053548Y-169100938D01*
X93037065Y-169147572D01*
X93031263Y-169165034D01*
X93009906Y-169222358D01*
X92982359Y-169290201D01*
X92953107Y-169357355D01*
X92937463Y-169392430D01*
X92915174Y-169444822D01*
X92899857Y-169484058D01*
X92894162Y-169503563D01*
X92894478Y-169505036D01*
X92905281Y-169525729D01*
X92929638Y-169565665D01*
X92965081Y-169620972D01*
X93009136Y-169687781D01*
X93059332Y-169762220D01*
X93224501Y-170004623D01*
X93007503Y-170221983D01*
X92986516Y-170242899D01*
X92922342Y-170305505D01*
X92864990Y-170359495D01*
X92817820Y-170401826D01*
X92784192Y-170429457D01*
X92767467Y-170439343D01*
X92749303Y-170431821D01*
X92711265Y-170410227D01*
X92657726Y-170377151D01*
X92592884Y-170335191D01*
X92520940Y-170286943D01*
X92450275Y-170239291D01*
X92386526Y-170197328D01*
X92334513Y-170164165D01*
X92298279Y-170142378D01*
X92281867Y-170134543D01*
X92280905Y-170134614D01*
X92259103Y-170142338D01*
X92220440Y-170160323D01*
X92172612Y-170185013D01*
X92172110Y-170185284D01*
X92108587Y-170217099D01*
X92065060Y-170232642D01*
X92038052Y-170232685D01*
X92024090Y-170218000D01*
X92018180Y-170203544D01*
X92002229Y-170164831D01*
X91977660Y-170105316D01*
X91945779Y-170028165D01*
X91907893Y-169936541D01*
X91865310Y-169833607D01*
X91819337Y-169722526D01*
X91777667Y-169621472D01*
X91735268Y-169517780D01*
X91697756Y-169425119D01*
X91666388Y-169346642D01*
X91642425Y-169285500D01*
X91627123Y-169244843D01*
X91621743Y-169227825D01*
X91632018Y-169212219D01*
X91660563Y-169186162D01*
X91700971Y-169155887D01*
X91797979Y-169076684D01*
X91884793Y-168975475D01*
X91948322Y-168864116D01*
X91988177Y-168745893D01*
X92003965Y-168624095D01*
X91995296Y-168502010D01*
X91961778Y-168382925D01*
X91903021Y-168270129D01*
X91818632Y-168166911D01*
X91774631Y-168126713D01*
X91669211Y-168055638D01*
X91556410Y-168009301D01*
X91439525Y-167986599D01*
X91321853Y-167986428D01*
X91206690Y-168007687D01*
X91097335Y-168049270D01*
X90997083Y-168110076D01*
X90909233Y-168189001D01*
X90837080Y-168284941D01*
X90783922Y-168396795D01*
X90753057Y-168523457D01*
X90747392Y-168584507D01*
X90755185Y-168716776D01*
X90790284Y-168842266D01*
X90851649Y-168958759D01*
X90938243Y-169064039D01*
X91049029Y-169155887D01*
X91087931Y-169184930D01*
X91117104Y-169211272D01*
X91128257Y-169227800D01*
X91123810Y-169242209D01*
X91109378Y-169280815D01*
X91086173Y-169340201D01*
X91055452Y-169417215D01*
X91018474Y-169508703D01*
X90976496Y-169611516D01*
X90930778Y-169722502D01*
X90889178Y-169823072D01*
X90846222Y-169926947D01*
X90807829Y-170019819D01*
X90775305Y-170098525D01*
X90749958Y-170159899D01*
X90733095Y-170200779D01*
X90726025Y-170218000D01*
X90725943Y-170218204D01*
X90711798Y-170232745D01*
X90684659Y-170232579D01*
X90641023Y-170216927D01*
X90577388Y-170185013D01*
X90572379Y-170182326D01*
X90525125Y-170158150D01*
X90487811Y-170141037D01*
X90468133Y-170134543D01*
X90452005Y-170142218D01*
X90415959Y-170163871D01*
X90364092Y-170196928D01*
X90300445Y-170238810D01*
X90229060Y-170286943D01*
X90158724Y-170334131D01*
X90093670Y-170376267D01*
X90039820Y-170409578D01*
X90001374Y-170431469D01*
X89982534Y-170439343D01*
X89979325Y-170438343D01*
X89956954Y-170422584D01*
X89918733Y-170390033D01*
X89868021Y-170343733D01*
X89808181Y-170286726D01*
X89742571Y-170222058D01*
X89525648Y-170004772D01*
X89694601Y-169756253D01*
X89863553Y-169507733D01*
X89812183Y-169396595D01*
X89812031Y-169396266D01*
X89781183Y-169325418D01*
X89749661Y-169246523D01*
X89724266Y-169176600D01*
X89720423Y-169165322D01*
X89701047Y-169112967D01*
X89683574Y-169072283D01*
X89671388Y-169051287D01*
X89666426Y-169048322D01*
X89636634Y-169038375D01*
X89586047Y-169025505D01*
X89520194Y-169011053D01*
X89444600Y-168996355D01*
X89421957Y-168992210D01*
X89340038Y-168977116D01*
X89263600Y-168962899D01*
X89200337Y-168950995D01*
X89157943Y-168942839D01*
X89081743Y-168927799D01*
X89081743Y-168610492D01*
X89081760Y-168571476D01*
X89082082Y-168476292D01*
X89083033Y-168405255D01*
X89084896Y-168354734D01*
X89087955Y-168321098D01*
X89092494Y-168300718D01*
X89098795Y-168289962D01*
X89107143Y-168285199D01*
X89115224Y-168283270D01*
X89148172Y-168276445D01*
X89200736Y-168266022D01*
X89267569Y-168253018D01*
X89343328Y-168238449D01*
X89422665Y-168223333D01*
X89500237Y-168208685D01*
X89570698Y-168195523D01*
X89628702Y-168184863D01*
X89668904Y-168177721D01*
X89685959Y-168175114D01*
X89687112Y-168173541D01*
X89696385Y-168153119D01*
X89712432Y-168114045D01*
X89732635Y-168062629D01*
X89760672Y-167993353D01*
X89795186Y-167913290D01*
X89827538Y-167842728D01*
X89834952Y-167826889D01*
X89855755Y-167777293D01*
X89868219Y-167739038D01*
X89869863Y-167719356D01*
X89869015Y-167717962D01*
X89855548Y-167697420D01*
X89828850Y-167657516D01*
X89791539Y-167602140D01*
X89746234Y-167535177D01*
X89695552Y-167460517D01*
X89638445Y-167375692D01*
X89595607Y-167309800D01*
X89566460Y-167261478D01*
X89549317Y-167227733D01*
X89542495Y-167205572D01*
X89544306Y-167192002D01*
X89544915Y-167190984D01*
X89561297Y-167171210D01*
X89594695Y-167135175D01*
X89641671Y-167086451D01*
X89698786Y-167028612D01*
X89762603Y-166965227D01*
X89828802Y-166900905D01*
X89893648Y-166840447D01*
X89941299Y-166799655D01*
X89972990Y-166777484D01*
X89989958Y-166772889D01*
X89992175Y-166773921D01*
X90015524Y-166787837D01*
X90057912Y-166815030D01*
X90115369Y-166852889D01*
X90183923Y-166898803D01*
X90259601Y-166950160D01*
X90506298Y-167118626D01*
X90617706Y-167068062D01*
X90620943Y-167066597D01*
X90689343Y-167036965D01*
X90761907Y-167007493D01*
X90823457Y-166984358D01*
X90823729Y-166984262D01*
X90872595Y-166966367D01*
X90910212Y-166951253D01*
X90928457Y-166942184D01*
X90928752Y-166941855D01*
X90934946Y-166923282D01*
X90945139Y-166881045D01*
X90958348Y-166819696D01*
X90973590Y-166743789D01*
X90989881Y-166657875D01*
X90990449Y-166654796D01*
X91006713Y-166567128D01*
X91021608Y-166487741D01*
X91034171Y-166421701D01*
X91043438Y-166374079D01*
X91048444Y-166349943D01*
X91048764Y-166348605D01*
X91052060Y-166338273D01*
X91058738Y-166330506D01*
X91072462Y-166324940D01*
X91096895Y-166321207D01*
X91135702Y-166318942D01*
X91192546Y-166317778D01*
X91271090Y-166317348D01*
X91375000Y-166317286D01*
X91388056Y-166317286D01*
X91488933Y-166317371D01*
G36*
X93532684Y-171379078D02*
G01*
X93530078Y-171402387D01*
X93510660Y-171485352D01*
X93475573Y-171548448D01*
X93422212Y-171596808D01*
X93419196Y-171598804D01*
X93351362Y-171627185D01*
X93280535Y-171629711D01*
X93212289Y-171608097D01*
X93152196Y-171564062D01*
X93105829Y-171499322D01*
X93105050Y-171497761D01*
X93089643Y-171457558D01*
X93078357Y-171411866D01*
X93072370Y-171368972D01*
X93072861Y-171337160D01*
X93081007Y-171324714D01*
X93088244Y-171325471D01*
X93122851Y-171339235D01*
X93162078Y-171364546D01*
X93195448Y-171393845D01*
X93212483Y-171419572D01*
X93230192Y-171454471D01*
X93266485Y-171486212D01*
X93308630Y-171498886D01*
X93324077Y-171495221D01*
X93354569Y-171476774D01*
X93381128Y-171451166D01*
X93392486Y-171427934D01*
X93392482Y-171427848D01*
X93379596Y-171417179D01*
X93345241Y-171397933D01*
X93294593Y-171372813D01*
X93232829Y-171344524D01*
X93232489Y-171344374D01*
X93165388Y-171314498D01*
X93120411Y-171292973D01*
X93093145Y-171276437D01*
X93079178Y-171261531D01*
X93074097Y-171244893D01*
X93073490Y-171223162D01*
X93077712Y-171182013D01*
X93221000Y-171182013D01*
X93235791Y-171194949D01*
X93272644Y-171214333D01*
X93273725Y-171214881D01*
X93317205Y-171235587D01*
X93356102Y-171252105D01*
X93380778Y-171259093D01*
X93390676Y-171249753D01*
X93392486Y-171217748D01*
X93384966Y-171177915D01*
X93358897Y-171141717D01*
X93321154Y-171122950D01*
X93279077Y-171124845D01*
X93240005Y-171150632D01*
X93224647Y-171168451D01*
X93221000Y-171182013D01*
X93077712Y-171182013D01*
X93078833Y-171171086D01*
X93105251Y-171100335D01*
X93149473Y-171044735D01*
X93206697Y-171006239D01*
X93272120Y-170986797D01*
X93340937Y-170988359D01*
X93408347Y-171012878D01*
X93469544Y-171062302D01*
X93503450Y-171111212D01*
X93527806Y-171181027D01*
X93531767Y-171217748D01*
X93537299Y-171269055D01*
X93532684Y-171379078D01*
G37*
X93532684Y-171379078D02*
X93530078Y-171402387D01*
X93510660Y-171485352D01*
X93475573Y-171548448D01*
X93422212Y-171596808D01*
X93419196Y-171598804D01*
X93351362Y-171627185D01*
X93280535Y-171629711D01*
X93212289Y-171608097D01*
X93152196Y-171564062D01*
X93105829Y-171499322D01*
X93105050Y-171497761D01*
X93089643Y-171457558D01*
X93078357Y-171411866D01*
X93072370Y-171368972D01*
X93072861Y-171337160D01*
X93081007Y-171324714D01*
X93088244Y-171325471D01*
X93122851Y-171339235D01*
X93162078Y-171364546D01*
X93195448Y-171393845D01*
X93212483Y-171419572D01*
X93230192Y-171454471D01*
X93266485Y-171486212D01*
X93308630Y-171498886D01*
X93324077Y-171495221D01*
X93354569Y-171476774D01*
X93381128Y-171451166D01*
X93392486Y-171427934D01*
X93392482Y-171427848D01*
X93379596Y-171417179D01*
X93345241Y-171397933D01*
X93294593Y-171372813D01*
X93232829Y-171344524D01*
X93232489Y-171344374D01*
X93165388Y-171314498D01*
X93120411Y-171292973D01*
X93093145Y-171276437D01*
X93079178Y-171261531D01*
X93074097Y-171244893D01*
X93073490Y-171223162D01*
X93077712Y-171182013D01*
X93221000Y-171182013D01*
X93235791Y-171194949D01*
X93272644Y-171214333D01*
X93273725Y-171214881D01*
X93317205Y-171235587D01*
X93356102Y-171252105D01*
X93380778Y-171259093D01*
X93390676Y-171249753D01*
X93392486Y-171217748D01*
X93384966Y-171177915D01*
X93358897Y-171141717D01*
X93321154Y-171122950D01*
X93279077Y-171124845D01*
X93240005Y-171150632D01*
X93224647Y-171168451D01*
X93221000Y-171182013D01*
X93077712Y-171182013D01*
X93078833Y-171171086D01*
X93105251Y-171100335D01*
X93149473Y-171044735D01*
X93206697Y-171006239D01*
X93272120Y-170986797D01*
X93340937Y-170988359D01*
X93408347Y-171012878D01*
X93469544Y-171062302D01*
X93503450Y-171111212D01*
X93527806Y-171181027D01*
X93531767Y-171217748D01*
X93537299Y-171269055D01*
X93532684Y-171379078D01*
G36*
X89342495Y-171021220D02*
G01*
X89373599Y-171029121D01*
X89402559Y-171048817D01*
X89439831Y-171085484D01*
X89463801Y-171111378D01*
X89488770Y-171144997D01*
X89500031Y-171176506D01*
X89502657Y-171216485D01*
X89502657Y-171281917D01*
X89458035Y-171258842D01*
X89422673Y-171230724D01*
X89398451Y-171192848D01*
X89394291Y-171182551D01*
X89362594Y-171142637D01*
X89318554Y-171122624D01*
X89270531Y-171124572D01*
X89226886Y-171150543D01*
X89208420Y-171171635D01*
X89197663Y-171198619D01*
X89209178Y-171222634D01*
X89244981Y-171246791D01*
X89307090Y-171274199D01*
X89316515Y-171277985D01*
X89373058Y-171302759D01*
X89421580Y-171327189D01*
X89452451Y-171346486D01*
X89483371Y-171380953D01*
X89503927Y-171435957D01*
X89501744Y-171494983D01*
X89477424Y-171550845D01*
X89431568Y-171596355D01*
X89394438Y-171615727D01*
X89322711Y-171629292D01*
X89282852Y-171627462D01*
X89245953Y-171617568D01*
X89231797Y-171596806D01*
X89237091Y-171562613D01*
X89238631Y-171558092D01*
X89250842Y-171534116D01*
X89271174Y-171525042D01*
X89309908Y-171525649D01*
X89337257Y-171526474D01*
X89369257Y-171519392D01*
X89391182Y-171498219D01*
X89403670Y-171472152D01*
X89405062Y-171444845D01*
X89404998Y-171444685D01*
X89388807Y-171429930D01*
X89354155Y-171408457D01*
X89309321Y-171384458D01*
X89262582Y-171362125D01*
X89222217Y-171345652D01*
X89196504Y-171339229D01*
X89192679Y-171345518D01*
X89187864Y-171375115D01*
X89184566Y-171423447D01*
X89183343Y-171484372D01*
X89183058Y-171526542D01*
X89181718Y-171579653D01*
X89179528Y-171616025D01*
X89176769Y-171629514D01*
X89162344Y-171624981D01*
X89133226Y-171612670D01*
X89096257Y-171595826D01*
X89096257Y-171379721D01*
X89096493Y-171324327D01*
X89098729Y-171240207D01*
X89104423Y-171177800D01*
X89114903Y-171132358D01*
X89131497Y-171099133D01*
X89155531Y-171073378D01*
X89188333Y-171050344D01*
X89230124Y-171031335D01*
X89307287Y-171019914D01*
X89342495Y-171021220D01*
G37*
X89342495Y-171021220D02*
X89373599Y-171029121D01*
X89402559Y-171048817D01*
X89439831Y-171085484D01*
X89463801Y-171111378D01*
X89488770Y-171144997D01*
X89500031Y-171176506D01*
X89502657Y-171216485D01*
X89502657Y-171281917D01*
X89458035Y-171258842D01*
X89422673Y-171230724D01*
X89398451Y-171192848D01*
X89394291Y-171182551D01*
X89362594Y-171142637D01*
X89318554Y-171122624D01*
X89270531Y-171124572D01*
X89226886Y-171150543D01*
X89208420Y-171171635D01*
X89197663Y-171198619D01*
X89209178Y-171222634D01*
X89244981Y-171246791D01*
X89307090Y-171274199D01*
X89316515Y-171277985D01*
X89373058Y-171302759D01*
X89421580Y-171327189D01*
X89452451Y-171346486D01*
X89483371Y-171380953D01*
X89503927Y-171435957D01*
X89501744Y-171494983D01*
X89477424Y-171550845D01*
X89431568Y-171596355D01*
X89394438Y-171615727D01*
X89322711Y-171629292D01*
X89282852Y-171627462D01*
X89245953Y-171617568D01*
X89231797Y-171596806D01*
X89237091Y-171562613D01*
X89238631Y-171558092D01*
X89250842Y-171534116D01*
X89271174Y-171525042D01*
X89309908Y-171525649D01*
X89337257Y-171526474D01*
X89369257Y-171519392D01*
X89391182Y-171498219D01*
X89403670Y-171472152D01*
X89405062Y-171444845D01*
X89404998Y-171444685D01*
X89388807Y-171429930D01*
X89354155Y-171408457D01*
X89309321Y-171384458D01*
X89262582Y-171362125D01*
X89222217Y-171345652D01*
X89196504Y-171339229D01*
X89192679Y-171345518D01*
X89187864Y-171375115D01*
X89184566Y-171423447D01*
X89183343Y-171484372D01*
X89183058Y-171526542D01*
X89181718Y-171579653D01*
X89179528Y-171616025D01*
X89176769Y-171629514D01*
X89162344Y-171624981D01*
X89133226Y-171612670D01*
X89096257Y-171595826D01*
X89096257Y-171379721D01*
X89096493Y-171324327D01*
X89098729Y-171240207D01*
X89104423Y-171177800D01*
X89114903Y-171132358D01*
X89131497Y-171099133D01*
X89155531Y-171073378D01*
X89188333Y-171050344D01*
X89230124Y-171031335D01*
X89307287Y-171019914D01*
X89342495Y-171021220D01*
G36*
X91464483Y-171035569D02*
G01*
X91514376Y-171064661D01*
X91536325Y-171087327D01*
X91578504Y-171155082D01*
X91592714Y-171228950D01*
X91592714Y-171279770D01*
X91545999Y-171260128D01*
X91513692Y-171240308D01*
X91488231Y-171199160D01*
X91485616Y-171190675D01*
X91457478Y-171147451D01*
X91415067Y-171124103D01*
X91366370Y-171123100D01*
X91319373Y-171146914D01*
X91312357Y-171153056D01*
X91288893Y-171179745D01*
X91285019Y-171203014D01*
X91302768Y-171225862D01*
X91344179Y-171251287D01*
X91411286Y-171282288D01*
X91415824Y-171284252D01*
X91490322Y-171318990D01*
X91541203Y-171349763D01*
X91572525Y-171380488D01*
X91588343Y-171415082D01*
X91592714Y-171457462D01*
X91586986Y-171504446D01*
X91558062Y-171564585D01*
X91507178Y-171607788D01*
X91470374Y-171620759D01*
X91418434Y-171627856D01*
X91367999Y-171626340D01*
X91331983Y-171615632D01*
X91328158Y-171612966D01*
X91317998Y-171594337D01*
X91325048Y-171561505D01*
X91337297Y-171535735D01*
X91356939Y-171525006D01*
X91394191Y-171525539D01*
X91445908Y-171522462D01*
X91479701Y-171501212D01*
X91491114Y-171461877D01*
X91491104Y-171460747D01*
X91484187Y-171437913D01*
X91460659Y-171416963D01*
X91414914Y-171392815D01*
X91352704Y-171363741D01*
X91311499Y-171347925D01*
X91287712Y-171348944D01*
X91276597Y-171369837D01*
X91273408Y-171413641D01*
X91273400Y-171483393D01*
X91273044Y-171526452D01*
X91271413Y-171579626D01*
X91268761Y-171616022D01*
X91265422Y-171629514D01*
X91264530Y-171629423D01*
X91245237Y-171622110D01*
X91213284Y-171606678D01*
X91169124Y-171583842D01*
X91174371Y-171378078D01*
X91174736Y-171364432D01*
X91178904Y-171268651D01*
X91186268Y-171196462D01*
X91198330Y-171143058D01*
X91216593Y-171103633D01*
X91242560Y-171073380D01*
X91277733Y-171047493D01*
X91278384Y-171047087D01*
X91335256Y-171025968D01*
X91401033Y-171022400D01*
X91464483Y-171035569D01*
G37*
X91464483Y-171035569D02*
X91514376Y-171064661D01*
X91536325Y-171087327D01*
X91578504Y-171155082D01*
X91592714Y-171228950D01*
X91592714Y-171279770D01*
X91545999Y-171260128D01*
X91513692Y-171240308D01*
X91488231Y-171199160D01*
X91485616Y-171190675D01*
X91457478Y-171147451D01*
X91415067Y-171124103D01*
X91366370Y-171123100D01*
X91319373Y-171146914D01*
X91312357Y-171153056D01*
X91288893Y-171179745D01*
X91285019Y-171203014D01*
X91302768Y-171225862D01*
X91344179Y-171251287D01*
X91411286Y-171282288D01*
X91415824Y-171284252D01*
X91490322Y-171318990D01*
X91541203Y-171349763D01*
X91572525Y-171380488D01*
X91588343Y-171415082D01*
X91592714Y-171457462D01*
X91586986Y-171504446D01*
X91558062Y-171564585D01*
X91507178Y-171607788D01*
X91470374Y-171620759D01*
X91418434Y-171627856D01*
X91367999Y-171626340D01*
X91331983Y-171615632D01*
X91328158Y-171612966D01*
X91317998Y-171594337D01*
X91325048Y-171561505D01*
X91337297Y-171535735D01*
X91356939Y-171525006D01*
X91394191Y-171525539D01*
X91445908Y-171522462D01*
X91479701Y-171501212D01*
X91491114Y-171461877D01*
X91491104Y-171460747D01*
X91484187Y-171437913D01*
X91460659Y-171416963D01*
X91414914Y-171392815D01*
X91352704Y-171363741D01*
X91311499Y-171347925D01*
X91287712Y-171348944D01*
X91276597Y-171369837D01*
X91273408Y-171413641D01*
X91273400Y-171483393D01*
X91273044Y-171526452D01*
X91271413Y-171579626D01*
X91268761Y-171616022D01*
X91265422Y-171629514D01*
X91264530Y-171629423D01*
X91245237Y-171622110D01*
X91213284Y-171606678D01*
X91169124Y-171583842D01*
X91174371Y-171378078D01*
X91174736Y-171364432D01*
X91178904Y-171268651D01*
X91186268Y-171196462D01*
X91198330Y-171143058D01*
X91216593Y-171103633D01*
X91242560Y-171073380D01*
X91277733Y-171047493D01*
X91278384Y-171047087D01*
X91335256Y-171025968D01*
X91401033Y-171022400D01*
X91464483Y-171035569D01*
D10*
X124685000Y-161085000D02*
X123215000Y-161085000D01*
X123215000Y-161085000D02*
X123215000Y-158800000D01*
X124685000Y-158800000D02*
X124685000Y-161085000D01*
X123035000Y-161085000D02*
X121565000Y-161085000D01*
X121565000Y-161085000D02*
X121565000Y-158800000D01*
X123035000Y-158800000D02*
X123035000Y-161085000D01*
X138035000Y-155135000D02*
X136565000Y-155135000D01*
X138035000Y-152850000D02*
X138035000Y-155135000D01*
X136565000Y-155135000D02*
X136565000Y-152850000D01*
X125728000Y-164506600D02*
X126748000Y-164506600D01*
X124208000Y-163066600D02*
X124208000Y-164506600D01*
X135888000Y-169706600D02*
X136458000Y-169706600D01*
X123638000Y-164506600D02*
X124208000Y-164506600D01*
X123638000Y-164506600D02*
X123638000Y-169706600D01*
X133348000Y-169706600D02*
X134368000Y-169706600D01*
X130808000Y-169706600D02*
X131828000Y-169706600D01*
X136458000Y-164506600D02*
X136458000Y-169706600D01*
X128268000Y-164506600D02*
X129288000Y-164506600D01*
X130808000Y-164506600D02*
X131828000Y-164506600D01*
X133348000Y-164506600D02*
X134368000Y-164506600D01*
X128268000Y-169706600D02*
X129288000Y-169706600D01*
X123638000Y-169706600D02*
X124208000Y-169706600D01*
X125728000Y-169706600D02*
X126748000Y-169706600D01*
X135888000Y-164506600D02*
X136458000Y-164506600D01*
X95330000Y-127730000D02*
X94695000Y-127730000D01*
X94695000Y-127730000D02*
X94695000Y-128365000D01*
M02*
